<?xml version="1.0" encoding="utf-8"?>
<!-- Generator: Adobe Illustrator 20.1.0, SVG Export Plug-In . SVG Version: 6.00 Build 0)  -->
<svg version="1.1" id="Layer_1" xmlns="http://www.w3.org/2000/svg" xmlns:xlink="http://www.w3.org/1999/xlink" x="0px" y="0px"
	 viewBox="0 0 397.4 354.2" style="enable-background:new 0 0 397.4 354.2;" xml:space="preserve">
<style type="text/css">
	.st0{fill:none;}
	.st1{fill:#FFFFFF;}
</style>
<g>
	<polygon class="st0" points="20.8,199.1 90.7,320.2 160.6,199.1 	"/>
	<polygon class="st0" points="90.7,34 20.8,155.1 160.6,155.1 	"/>
	<polygon class="st0" points="268.6,12 128.8,12 198.7,133.2 	"/>
	<polygon class="st0" points="376.6,155.1 306.7,34 236.8,155.1 	"/>
	<polygon class="st0" points="128.8,342.2 268.6,342.1 198.7,221 	"/>
	<polygon class="st0" points="306.7,320.2 376.6,199.1 236.8,199.1 	"/>
	<path class="st1" d="M0,187.1l90.7,157.1l90.7-157.1H0z M20.8,199.1h139.8L90.7,320.2L20.8,199.1z"/>
	<path class="st1" d="M397.4,167.1L306.7,10L216,167.1H397.4z M376.6,155.1H236.8L306.7,34L376.6,155.1z"/>
	<path class="st1" d="M90.7,10L0,167.1h181.4L90.7,10z M90.7,34l69.9,121.1H20.8L90.7,34z"/>
	<path class="st1" d="M306.7,344.2l90.7-157.1H216L306.7,344.2z M306.7,320.2l-69.9-121.1h139.8L306.7,320.2z"/>
	<path class="st1" d="M289.4,0H108l90.7,157.2L289.4,0z M268.6,12l-69.9,121.2L128.8,12H268.6z"/>
	<path class="st1" d="M108,354.2h181.4L198.7,197L108,354.2z M128.8,342.2L198.7,221l69.9,121.1L128.8,342.2z"/>
</g>
</svg>
