<?xml version="1.0" encoding="utf-8"?>
<!-- Generator: Adobe Illustrator 20.1.0, SVG Export Plug-In . SVG Version: 6.00 Build 0)  -->
<svg version="1.1" id="Layer_1" xmlns="http://www.w3.org/2000/svg" xmlns:xlink="http://www.w3.org/1999/xlink" x="0px" y="0px"
	 viewBox="0 0 228.3 224.1" style="enable-background:new 0 0 228.3 224.1;" xml:space="preserve">
<style type="text/css">
	.st0{fill:#FFFFFF;}
</style>
<g>
	<polygon class="st0" points="121.3,99.8 71.8,14.1 85.9,14.1 128.3,87.6 	"/>
	<polygon class="st0" points="135.4,75.3 100.1,14.1 114.1,14.1 142.4,63.1 	"/>
	<polygon class="st0" points="149.6,50.8 128.3,14.1 142.4,14.1 156.6,38.6 	"/>
	<polygon class="st0" points="156.6,14.1 170.7,14.1 163.7,26.4 	"/>
	<polygon class="st0" points="156.6,14.1 163.6,26.3 163.6,26.3 	"/>
	<polygon class="st0" points="128.3,112.1 177.9,26.4 184.9,38.6 142.4,112.1 	"/>
	<polygon class="st0" points="156.6,112.1 191.9,50.8 199,63.1 170.7,112.1 	"/>
	<polygon class="st0" points="184.9,112.1 206.1,75.3 213.2,87.6 199,112.1 	"/>
	<polygon class="st0" points="220.2,99.8 227.2,112.1 213.2,112.1 	"/>
	<polygon class="st0" points="220.2,99.8 213.1,112 213.1,112 	"/>
	<polygon class="st0" points="121.3,124.3 220.2,124.3 213.2,136.5 128.3,136.5 	"/>
	<polygon class="st0" points="135.4,148.8 206.1,148.8 199,161 142.4,161 	"/>
	<polygon class="st0" points="149.6,173.3 191.9,173.3 184.9,185.5 156.6,185.5 	"/>
	<polygon class="st0" points="177.9,197.8 170.7,210 163.7,197.8 	"/>
	<polygon class="st0" points="163.7,197.8 177.7,197.8 177.7,197.8 	"/>
	<polygon class="st0" points="107.1,124.3 156.6,210 142.4,210 100.1,136.5 	"/>
	<polygon class="st0" points="93,148.8 128.3,210 114.1,210 85.9,161 	"/>
	<polygon class="st0" points="78.8,173.3 100.1,210 85.9,210 71.8,185.5 	"/>
	<polygon class="st0" points="71.8,210 57.6,210 64.8,197.8 	"/>
	<polygon class="st0" points="71.8,210 64.7,197.8 64.7,197.8 	"/>
	<polygon class="st0" points="100.1,112.1 50.6,197.8 43.5,185.5 85.9,112.1 	"/>
	<polygon class="st0" points="71.8,112.1 36.5,173.3 29.3,161 57.6,112.1 	"/>
	<polygon class="st0" points="43.5,112.1 22.3,148.8 15.3,136.5 29.3,112.1 	"/>
	<polygon class="st0" points="8.2,124.3 1.1,112.1 15.3,112.1 	"/>
	<polygon class="st0" points="8.1,124.3 15.2,112.1 15.2,112.1 	"/>
	<polygon class="st0" points="107.1,99.8 8.2,99.8 15.3,87.6 100.1,87.6 	"/>
	<polygon class="st0" points="93,75.3 22.3,75.3 29.3,63.1 85.9,63.1 	"/>
	<polygon class="st0" points="78.8,50.8 36.5,50.8 43.5,38.6 71.8,38.6 	"/>
	<polygon class="st0" points="50.6,26.4 57.6,14.1 64.8,26.4 	"/>
	<polygon class="st0" points="50.6,26.4 64.6,26.4 64.6,26.4 	"/>
</g>
</svg>
