<svg id="Layer_1" data-name="Layer 1" xmlns="http://www.w3.org/2000/svg" viewBox="0 0 1072.6 429.1"><defs><style>.cls-1{fill:#00acec;}.cls-2,.cls-3{fill:none;stroke:#00acec;stroke-miterlimit:10;}.cls-2{stroke-width:0.5px;}</style></defs><title>Vector Smart Object5</title><path class="cls-1" d="M524.6,6.8,267.3,432.4,11.6,6.8h513m.9-.5H10.7L267.3,433.4,525.4,6.3Z" transform="translate(-10.2 -4.7)"/><path class="cls-1" d="M516.4,11.4l-249,412L19.7,11.4H516.4m.9-.5H18.8L267.4,424.4,517.3,10.9Z" transform="translate(-10.2 -4.7)"/><path class="cls-1" d="M508.2,16,267.4,414.5,27.9,16H508.2m.9-.5H27l240.4,400,241.7-400Z" transform="translate(-10.2 -4.7)"/><path class="cls-1" d="M500,20.6,267.4,405.6,36,20.6H500m.9-.5H35.2L267.4,406.5,500.9,20.1Z" transform="translate(-10.2 -4.7)"/><path class="cls-1" d="M491.8,25.3,267.4,396.6,44.2,25.3H491.8m.9-.5H43.3L267.4,397.6,492.7,24.8Z" transform="translate(-10.2 -4.7)"/><path class="cls-1" d="M483.6,29.9,267.4,387.7,52.4,29.9H483.6m.9-.5H51.5L267.4,388.7,484.5,29.4Z" transform="translate(-10.2 -4.7)"/><path class="cls-1" d="M475.5,34.5,267.4,378.7,60.5,34.5H475.5m.9-.5H59.6L267.4,379.7,476.3,34Z" transform="translate(-10.2 -4.7)"/><path class="cls-1" d="M467.3,39.1,267.4,369.8,68.7,39.1H467.3m.9-.5H67.8L267.4,370.8,468.2,38.6Z" transform="translate(-10.2 -4.7)"/><path class="cls-1" d="M459.1,43.7,267.4,360.9,76.8,43.7H459.1m.9-.5H75.9L267.4,361.8,460,43.2Z" transform="translate(-10.2 -4.7)"/><path class="cls-1" d="M450.9,48.3,267.4,351.9,85,48.3H450.9m.9-.5H84.1L267.4,352.9,451.8,47.8Z" transform="translate(-10.2 -4.7)"/><path class="cls-1" d="M442.7,52.9,267.5,343,93.1,52.9H442.7m.9-.5H92.3L267.5,343.9,443.6,52.4Z" transform="translate(-10.2 -4.7)"/><path class="cls-1" d="M434.5,57.6,267.5,334,101.3,57.6H434.5m.9-.5h-335L267.5,335l168-277.9Z" transform="translate(-10.2 -4.7)"/><path class="cls-1" d="M426.4,62.2,267.5,325.1,109.5,62.2H426.4m.9-.5H108.6L267.5,326.1,427.3,61.7Z" transform="translate(-10.2 -4.7)"/><path class="cls-1" d="M418.2,66.8,267.5,316.2,117.6,66.8H418.2m.9-.5H116.7L267.5,317.1,419.1,66.3Z" transform="translate(-10.2 -4.7)"/><path class="cls-1" d="M410,71.4,267.5,307.2,125.8,71.4H410m.9-.5h-286L267.5,308.2,410.9,70.9Z" transform="translate(-10.2 -4.7)"/><path class="cls-1" d="M401.8,76,267.5,298.3,133.9,76H401.8m.9-.5H133.1L267.5,299.2,402.7,75.5Z" transform="translate(-10.2 -4.7)"/><path class="cls-1" d="M393.6,80.6,267.5,289.3,142.1,80.6H393.6m.9-.5H141.2L267.5,290.3l127-210.2Z" transform="translate(-10.2 -4.7)"/><path class="cls-1" d="M385.5,85.3,267.5,280.4,150.3,85.3H385.5m.9-.5h-237L267.5,281.4,386.3,84.8Z" transform="translate(-10.2 -4.7)"/><path class="cls-1" d="M377.3,89.9,267.5,271.4,158.4,89.9H377.3m.9-.5H157.5l110,183,110.6-183Z" transform="translate(-10.2 -4.7)"/><path class="cls-1" d="M369.1,94.5l-101.5,168-101-168H369.1m.9-.5H165.7L267.6,263.5,370,94Z" transform="translate(-10.2 -4.7)"/><path class="cls-1" d="M360.9,99.1,267.6,253.6,174.7,99.1H360.9m.9-.5H173.8l93.7,155.9L361.8,98.6Z" transform="translate(-10.2 -4.7)"/><path class="cls-1" d="M352.7,103.7,267.6,244.6,182.9,103.7H352.7m.9-.5H182l85.6,142.4,86-142.4Z" transform="translate(-10.2 -4.7)"/><path class="cls-1" d="M344.5,108.3l-77,127.4L191.1,108.3H344.5m.9-.5H190.2l77.4,128.8,77.8-128.8Z" transform="translate(-10.2 -4.7)"/><path class="cls-1" d="M336.4,112.9,267.6,226.7,199.2,112.9H336.4m.9-.5H198.3l69.3,115.3,69.7-115.3Z" transform="translate(-10.2 -4.7)"/><path class="cls-1" d="M328.2,117.6,267.6,217.8,207.4,117.6H328.2m.9-.5H206.5l61.1,101.7,61.5-101.7Z" transform="translate(-10.2 -4.7)"/><path class="cls-1" d="M320,122.2l-52.4,86.7-52.1-86.7H320m.9-.5H214.6l53,88.1,53.3-88.1Z" transform="translate(-10.2 -4.7)"/><path class="cls-1" d="M311.8,126.8l-44.2,73.1-43.9-73.1h88.1m.9-.5H222.8l44.8,74.6,45.1-74.6Z" transform="translate(-10.2 -4.7)"/><path class="cls-1" d="M524.1,7,267.3,431.9,12,7H524.1m.9-.5H11.1L267.3,432.9,525,6.5Z" transform="translate(-10.2 -4.7)"/><path class="cls-2" d="M524.6,6.8,267.3,432.4,11.6,6.8h513m.9-.5H10.7L267.3,433.4,525.4,6.3Z" transform="translate(-10.2 -4.7)"/><path class="cls-1" d="M515.9,11.7,267.4,423,20.2,11.7H515.9m.9-.5H19.3L267.4,423.9,516.8,11.2Z" transform="translate(-10.2 -4.7)"/><path class="cls-2" d="M516.4,11.4l-249,412L19.7,11.4H516.4m.9-.5H18.8L267.4,424.4,517.3,10.9Z" transform="translate(-10.2 -4.7)"/><path class="cls-1" d="M507.7,16.3,267.4,414,28.3,16.3H507.7m.9-.5H27.4L267.4,415,508.6,15.8Z" transform="translate(-10.2 -4.7)"/><path class="cls-2" d="M508.2,16,267.4,414.5,27.9,16H508.2m.9-.5H27l240.4,400,241.7-400Z" transform="translate(-10.2 -4.7)"/><path class="cls-1" d="M499.6,20.9,267.4,405.1,36.5,20.9H499.6m.9-.5H35.6L267.4,406.1,500.4,20.4Z" transform="translate(-10.2 -4.7)"/><path class="cls-2" d="M500,20.6,267.4,405.6,36,20.6H500m.9-.5H35.2L267.4,406.5,500.9,20.1Z" transform="translate(-10.2 -4.7)"/><path class="cls-1" d="M491.4,25.5l-224,370.6L44.6,25.5H491.4m.9-.5H43.8L267.4,397.1,492.3,25Z" transform="translate(-10.2 -4.7)"/><path class="cls-2" d="M491.8,25.3,267.4,396.6,44.2,25.3H491.8m.9-.5H43.3L267.4,397.6,492.7,24.8Z" transform="translate(-10.2 -4.7)"/><path class="cls-1" d="M483.2,30.1,267.4,387.2,52.8,30.1H483.2m.9-.5H51.9L267.4,388.2,484.1,29.6Z" transform="translate(-10.2 -4.7)"/><path class="cls-2" d="M483.6,29.9,267.4,387.7,52.4,29.9H483.6m.9-.5H51.5L267.4,388.7,484.5,29.4Z" transform="translate(-10.2 -4.7)"/><path class="cls-1" d="M475,34.7,267.4,378.3,61,34.7H475m.9-.5H60.1l207.3,345,208.5-345Z" transform="translate(-10.2 -4.7)"/><path class="cls-2" d="M475.5,34.5,267.4,378.7,60.5,34.5H475.5m.9-.5H59.6L267.4,379.7,476.3,34Z" transform="translate(-10.2 -4.7)"/><path class="cls-1" d="M466.8,39.3l-199.4,330L69.1,39.3H466.8m.9-.5H68.2L267.4,370.3,467.7,38.8Z" transform="translate(-10.2 -4.7)"/><path class="cls-2" d="M467.3,39.1,267.4,369.8,68.7,39.1H467.3m.9-.5H67.8L267.4,370.8,468.2,38.6Z" transform="translate(-10.2 -4.7)"/><path class="cls-1" d="M458.7,44,267.4,360.4,77.3,44H458.7m.9-.5H76.4l191,317.9L459.5,43.5Z" transform="translate(-10.2 -4.7)"/><path class="cls-2" d="M459.1,43.7,267.4,360.9,76.8,43.7H459.1m.9-.5H75.9L267.4,361.8,460,43.2Z" transform="translate(-10.2 -4.7)"/><path class="cls-1" d="M450.5,48.6l-183,302.9L85.4,48.6h365m.9-.5H84.5L267.4,352.4,451.4,48.1Z" transform="translate(-10.2 -4.7)"/><path class="cls-2" d="M450.9,48.3,267.4,351.9,85,48.3H450.9m.9-.5H84.1L267.4,352.9,451.8,47.8Z" transform="translate(-10.2 -4.7)"/><path class="cls-1" d="M442.3,53.2,267.5,342.5,93.6,53.2H442.3m.9-.5H92.7L267.5,343.5,443.2,52.7Z" transform="translate(-10.2 -4.7)"/><path class="cls-2" d="M442.7,52.9,267.5,343,93.1,52.9H442.7m.9-.5H92.3L267.5,343.9,443.6,52.4Z" transform="translate(-10.2 -4.7)"/><path class="cls-1" d="M434.1,57.8,267.5,333.6,101.7,57.8H434.1m.9-.5H100.9L267.5,334.5,435,57.3Z" transform="translate(-10.2 -4.7)"/><path class="cls-2" d="M434.5,57.6,267.5,334,101.3,57.6H434.5m.9-.5h-335L267.5,335l168-277.9Z" transform="translate(-10.2 -4.7)"/><path class="cls-1" d="M425.9,62.4,267.5,324.6,109.9,62.4h316m.9-.5H109L267.5,325.6,426.8,61.9Z" transform="translate(-10.2 -4.7)"/><path class="cls-2" d="M426.4,62.2,267.5,325.1,109.5,62.2H426.4m.9-.5H108.6L267.5,326.1,427.3,61.7Z" transform="translate(-10.2 -4.7)"/><path class="cls-1" d="M417.7,67,267.5,315.7,118.1,67H417.7m.9-.5H117.2L267.5,316.6,418.6,66.5Z" transform="translate(-10.2 -4.7)"/><path class="cls-2" d="M418.2,66.8,267.5,316.2,117.6,66.8H418.2m.9-.5H116.7L267.5,317.1,419.1,66.3Z" transform="translate(-10.2 -4.7)"/><path class="cls-1" d="M409.6,71.7,267.5,306.7,126.2,71.7H409.6m.9-.5H125.3L267.5,307.7,410.4,71.2Z" transform="translate(-10.2 -4.7)"/><path class="cls-2" d="M410,71.4,267.5,307.2,125.8,71.4H410m.9-.5h-286L267.5,308.2,410.9,70.9Z" transform="translate(-10.2 -4.7)"/><path class="cls-1" d="M401.4,76.3,267.5,297.8,134.4,76.3h267m.9-.5H133.5l134,223,134.8-223Z" transform="translate(-10.2 -4.7)"/><path class="cls-2" d="M401.8,76,267.5,298.3,133.9,76H401.8m.9-.5H133.1L267.5,299.2,402.7,75.5Z" transform="translate(-10.2 -4.7)"/><path class="cls-1" d="M393.2,80.9l-125.7,208-125-208H393.2m.9-.5H141.7L267.5,289.8,394.1,80.4Z" transform="translate(-10.2 -4.7)"/><path class="cls-2" d="M393.6,80.6,267.5,289.3,142.1,80.6H393.6m.9-.5H141.2L267.5,290.3l127-210.2Z" transform="translate(-10.2 -4.7)"/><path class="cls-1" d="M385,85.5,267.5,279.9,150.7,85.5H385m.9-.5H149.8L267.5,280.9,385.9,85Z" transform="translate(-10.2 -4.7)"/><path class="cls-2" d="M385.5,85.3,267.5,280.4,150.3,85.3H385.5m.9-.5h-237L267.5,281.4,386.3,84.8Z" transform="translate(-10.2 -4.7)"/><path class="cls-1" d="M376.8,90.1,267.5,271,158.9,90.1h218m.9-.5H158L267.5,271.9,377.7,89.6Z" transform="translate(-10.2 -4.7)"/><path class="cls-2" d="M377.3,89.9,267.5,271.4,158.4,89.9H377.3m.9-.5H157.5l110,183,110.6-183Z" transform="translate(-10.2 -4.7)"/><path class="cls-1" d="M368.7,94.7,267.6,262,167,94.7H368.7m.9-.5H166.1L267.6,263l102-168.8Z" transform="translate(-10.2 -4.7)"/><path class="cls-2" d="M369.1,94.5l-101.5,168-101-168H369.1m.9-.5H165.7L267.6,263.5,370,94Z" transform="translate(-10.2 -4.7)"/><path class="cls-1" d="M360.5,99.3,267.6,253.1,175.2,99.3H360.5m.9-.5H174.3L267.6,254,361.4,98.8Z" transform="translate(-10.2 -4.7)"/><path class="cls-2" d="M360.9,99.1,267.6,253.6,174.7,99.1H360.9m.9-.5H173.8l93.7,155.9L361.8,98.6Z" transform="translate(-10.2 -4.7)"/><path class="cls-1" d="M352.3,104,267.6,244.1,183.3,104h169m.9-.5H182.4l85.1,141.6,85.6-141.6Z" transform="translate(-10.2 -4.7)"/><path class="cls-2" d="M352.7,103.7,267.6,244.6,182.9,103.7H352.7m.9-.5H182l85.6,142.4,86-142.4Z" transform="translate(-10.2 -4.7)"/><path class="cls-1" d="M344.1,108.6,267.6,235.2,191.5,108.6H344.1m.9-.5H190.6l77,128.1L345,108.1Z" transform="translate(-10.2 -4.7)"/><path class="cls-2" d="M344.5,108.3l-77,127.4L191.1,108.3H344.5m.9-.5H190.2l77.4,128.8,77.8-128.8Z" transform="translate(-10.2 -4.7)"/><path class="cls-1" d="M335.9,113.2,267.6,226.3,199.7,113.2H335.9m.9-.5h-138l68.8,114.5,69.2-114.5Z" transform="translate(-10.2 -4.7)"/><path class="cls-2" d="M336.4,112.9,267.6,226.7,199.2,112.9H336.4m.9-.5H198.3l69.3,115.3,69.7-115.3Z" transform="translate(-10.2 -4.7)"/><path class="cls-1" d="M327.7,117.8l-60.1,99.5-59.8-99.5H327.7m.9-.5H206.9l60.7,101,61-101Z" transform="translate(-10.2 -4.7)"/><path class="cls-2" d="M328.2,117.6,267.6,217.8,207.4,117.6H328.2m.9-.5H206.5l61.1,101.7,61.5-101.7Z" transform="translate(-10.2 -4.7)"/><path class="cls-1" d="M319.6,122.4l-51.9,85.9L216,122.4H319.6m.9-.5H215.1l52.5,87.4,52.8-87.4Z" transform="translate(-10.2 -4.7)"/><path class="cls-2" d="M320,122.2l-52.4,86.7-52.1-86.7H320m.9-.5H214.6l53,88.1,53.3-88.1Z" transform="translate(-10.2 -4.7)"/><path class="cls-1" d="M311.4,127l-43.7,72.4L224.1,127h87.2m.9-.5h-89l44.4,73.9,44.6-73.9Z" transform="translate(-10.2 -4.7)"/><path class="cls-2" d="M311.8,126.8l-44.2,73.1-43.9-73.1h88.1m.9-.5H222.8l44.8,74.6,45.1-74.6Z" transform="translate(-10.2 -4.7)"/><polygon class="cls-3" points="622.2 0.9 374.5 427.7 454.2 427.7 701.3 0.5 622.2 0.9"/><polygon class="cls-3" points="630.9 15.9 675.2 15.6 445.6 412.7 400.6 412.7 630.9 15.9"/><polygon class="cls-3" points="639.5 30.8 649.2 30.8 436.9 397.7 426.6 397.7 639.5 30.8"/><path class="cls-1" d="M710.7,5.8,464.2,431.9H385.6L632.7,6.1l78-.4m.9-.5-79.1.4L384.7,432.5h79.7L711.5,5.2Z" transform="translate(-10.2 -4.7)"/><path class="cls-1" d="M710.7,5.8,464.2,431.9H385.6L632.7,6.1l78-.4m.9-.5-79.1.4L384.7,432.5h79.7L711.5,5.2Z" transform="translate(-10.2 -4.7)"/><path class="cls-1" d="M684.6,20.9,455.5,416.9H411.7L641.4,21.1l43.2-.2m.9-.5-44.4.2L410.8,417.5h45L685.5,20.4Z" transform="translate(-10.2 -4.7)"/><path class="cls-1" d="M684.6,20.9,455.5,416.9H411.7L641.4,21.1l43.2-.2m.9-.5-44.4.2L410.8,417.5h45L685.5,20.4Z" transform="translate(-10.2 -4.7)"/><path class="cls-1" d="M658.5,36,446.9,401.9h-9.2L650,36.1h8.5m.9-.5h-9.6L436.9,402.4h10.3L659.4,35.5Z" transform="translate(-10.2 -4.7)"/><path class="cls-1" d="M658.5,36,446.9,401.9h-9.2L650,36.1h8.5m.9-.5h-9.6L436.9,402.4h10.3L659.4,35.5Z" transform="translate(-10.2 -4.7)"/><path class="cls-1" d="M825.7,7.3l255.8,425.6h-513L825.7,7.3m0-1L567.6,433.4h514.8L825.7,6.3Z" transform="translate(-10.2 -4.7)"/><path class="cls-1" d="M825.7,16.2l247.6,412H576.7l249-412m0-1L575.8,428.8h498.4L825.7,15.2Z" transform="translate(-10.2 -4.7)"/><path class="cls-1" d="M825.7,25.1l239.5,398.5H584.9L825.7,25.1m0-1L584,424.1h482.1L825.7,24.2Z" transform="translate(-10.2 -4.7)"/><path class="cls-1" d="M825.7,34.1,1057,419h-464L825.7,34.1m0-1L592.2,419.5h465.7L825.7,33.1Z" transform="translate(-10.2 -4.7)"/><path class="cls-1" d="M825.7,43l223.2,371.4H601.2L825.7,43m0-1L600.4,414.9h449.4L825.7,42.1Z" transform="translate(-10.2 -4.7)"/><path class="cls-1" d="M825.7,52l215,357.8H609.4L825.7,52m0-1L608.5,410.3h433.1L825.7,51Z" transform="translate(-10.2 -4.7)"/><path class="cls-1" d="M825.7,60.9l206.9,344.3H617.6L825.7,60.9m0-1L616.7,405.7h416.7L825.7,59.9Z" transform="translate(-10.2 -4.7)"/><path class="cls-1" d="M825.6,69.9l198.7,330.7H625.8L825.6,69.9m0-1L624.9,401.1h400.4L825.7,68.9Z" transform="translate(-10.2 -4.7)"/><path class="cls-1" d="M825.6,78.8l190.6,317.1H634L825.6,78.8m0-1L633.1,396.4h384L825.6,77.8Z" transform="translate(-10.2 -4.7)"/><path class="cls-1" d="M825.6,87.7l182.5,303.6H642.2L825.6,87.7m0-1L641.3,391.8H1009L825.6,86.8Z" transform="translate(-10.2 -4.7)"/><path class="cls-1" d="M825.6,96.7l174.3,290H650.3l175.3-290m0-1L649.5,387.2h351.4L825.6,95.7Z" transform="translate(-10.2 -4.7)"/><path class="cls-1" d="M825.6,105.6,991.8,382.1H658.5L825.6,105.6m0-1-168,277.9h335l-167-277.9Z" transform="translate(-10.2 -4.7)"/><path class="cls-1" d="M825.6,114.6l158,262.9H666.7L825.6,114.6m0-1L665.8,378H984.5L825.6,113.6Z" transform="translate(-10.2 -4.7)"/><path class="cls-1" d="M825.6,123.5,975.4,372.9H674.9L825.6,123.5m0-1L674,373.4H976.3L825.6,122.5Z" transform="translate(-10.2 -4.7)"/><path class="cls-1" d="M825.6,132.4,967.3,368.3H683.1L825.6,132.4m0-1L682.2,368.8h286L825.6,131.5Z" transform="translate(-10.2 -4.7)"/><path class="cls-1" d="M825.6,141.4,959.1,363.6H691.2L825.6,141.4m0-1L690.4,364.1H960L825.6,140.4Z" transform="translate(-10.2 -4.7)"/><path class="cls-1" d="M825.6,150.3,951,359H699.4L825.6,150.3m0-1-127,210.2H951.9L825.6,149.4Z" transform="translate(-10.2 -4.7)"/><path class="cls-1" d="M825.5,159.3,942.8,354.4H707.6L825.5,159.3m0-1L706.7,354.9h237L825.5,158.3Z" transform="translate(-10.2 -4.7)"/><path class="cls-1" d="M825.5,168.2,934.7,349.8H715.8L825.5,168.2m0-1-110.6,183H935.5l-110-183Z" transform="translate(-10.2 -4.7)"/><path class="cls-1" d="M825.5,177.2l101,168H724l101.5-168m0-1L723.1,345.7H927.4L825.5,176.2Z" transform="translate(-10.2 -4.7)"/><path class="cls-1" d="M825.5,186.1l92.8,154.5H732.2l93.3-154.5m0-1L731.3,341.1H919.2L825.5,185.1Z" transform="translate(-10.2 -4.7)"/><path class="cls-1" d="M825.5,195l84.7,140.9H740.3L825.5,195m0-1-86,142.4H911.1L825.5,194.1Z" transform="translate(-10.2 -4.7)"/><path class="cls-1" d="M825.5,204,902,331.3H748.5l77-127.4m0-1L747.6,331.8H902.9L825.5,203Z" transform="translate(-10.2 -4.7)"/><path class="cls-1" d="M825.5,212.9l68.4,113.8H756.7l68.8-113.8m0-1L755.8,327.2H894.7L825.5,211.9Z" transform="translate(-10.2 -4.7)"/><path class="cls-1" d="M825.5,221.9l60.2,100.2H764.9l60.6-100.2m0-1L764,322.6H886.6L825.5,220.9Z" transform="translate(-10.2 -4.7)"/><path class="cls-1" d="M825.5,230.8l52.1,86.7H773.1l52.4-86.7m0-1L772.2,318H878.4l-53-88.1Z" transform="translate(-10.2 -4.7)"/><path class="cls-1" d="M825.4,239.7l43.9,73.1H781.2l44.2-73.1m0-1-45.1,74.6h89.9l-44.8-74.6Z" transform="translate(-10.2 -4.7)"/><path class="cls-1" d="M825.7,7.7l255.3,424.9H569L825.7,7.7m0-1L568.1,433.1h513.9L825.7,6.8Z" transform="translate(-10.2 -4.7)"/><path class="cls-2" d="M825.7,7.3l255.8,425.6h-513L825.7,7.3m0-1L567.6,433.4h514.8L825.7,6.3Z" transform="translate(-10.2 -4.7)"/><path class="cls-1" d="M825.7,16.7,1072.9,428H577.1L825.7,16.7m0-1L576.3,428.5h497.5L825.7,15.7Z" transform="translate(-10.2 -4.7)"/><path class="cls-2" d="M825.7,16.2l247.6,412H576.7l249-412m0-1L575.8,428.8h498.4L825.7,15.2Z" transform="translate(-10.2 -4.7)"/><path class="cls-1" d="M825.7,25.6l239,397.8H585.3L825.7,25.6m0-1L584.4,423.9h481.2L825.7,24.7Z" transform="translate(-10.2 -4.7)"/><path class="cls-2" d="M825.7,25.1l239.5,398.5H584.9L825.7,25.1m0-1L584,424.1h482.1L825.7,24.2Z" transform="translate(-10.2 -4.7)"/><path class="cls-1" d="M825.7,34.6l230.9,384.2H593.5L825.7,34.6m0-1L592.6,419.3h464.8L825.7,33.6Z" transform="translate(-10.2 -4.7)"/><path class="cls-2" d="M825.7,34.1,1057,419h-464L825.7,34.1m0-1L592.2,419.5h465.7L825.7,33.1Z" transform="translate(-10.2 -4.7)"/><path class="cls-1" d="M825.7,43.5l222.7,370.6H601.7l224-370.6m0-1L600.8,414.7h448.5L825.7,42.5Z" transform="translate(-10.2 -4.7)"/><path class="cls-2" d="M825.7,43l223.2,371.4H601.2L825.7,43m0-1L600.4,414.9h449.4L825.7,42.1Z" transform="translate(-10.2 -4.7)"/><path class="cls-1" d="M825.7,52.5l214.6,357.1H609.9L825.7,52.5m0-1L609,410h432.2L825.7,51.5Z" transform="translate(-10.2 -4.7)"/><path class="cls-2" d="M825.7,52l215,357.8H609.4L825.7,52m0-1L608.5,410.3h433.1L825.7,51Z" transform="translate(-10.2 -4.7)"/><path class="cls-1" d="M825.7,61.4l206.5,343.5H618.1L825.7,61.4m0-1-208.5,345H1033L825.7,60.4Z" transform="translate(-10.2 -4.7)"/><path class="cls-2" d="M825.7,60.9l206.9,344.3H617.6L825.7,60.9m0-1L616.7,405.7h416.7L825.7,59.9Z" transform="translate(-10.2 -4.7)"/><path class="cls-1" d="M825.6,70.3l198.3,330H626.2l199.4-330m0-1L625.3,400.8h399.5L825.7,69.4Z" transform="translate(-10.2 -4.7)"/><path class="cls-2" d="M825.6,69.9l198.7,330.7H625.8L825.6,69.9m0-1L624.9,401.1h400.4L825.7,68.9Z" transform="translate(-10.2 -4.7)"/><path class="cls-1" d="M825.6,79.3l190.2,316.4H634.4L825.6,79.3m0-1L633.5,396.2h383.1L825.6,78.3Z" transform="translate(-10.2 -4.7)"/><path class="cls-2" d="M825.6,78.8l190.6,317.1H634L825.6,78.8m0-1L633.1,396.4h384L825.6,77.8Z" transform="translate(-10.2 -4.7)"/><path class="cls-1" d="M825.6,88.2l182,302.9h-365l183-302.9m0-1L641.7,391.6h366.8L825.6,87.3Z" transform="translate(-10.2 -4.7)"/><path class="cls-2" d="M825.6,87.7l182.5,303.6H642.2L825.6,87.7m0-1L641.3,391.8H1009L825.6,86.8Z" transform="translate(-10.2 -4.7)"/><path class="cls-1" d="M825.6,97.2,999.5,386.5H650.8L825.6,97.2m0-1L649.9,387h350.5L825.6,96.2Z" transform="translate(-10.2 -4.7)"/><path class="cls-2" d="M825.6,96.7l174.3,290H650.3l175.3-290m0-1L649.5,387.2h351.4L825.6,95.7Z" transform="translate(-10.2 -4.7)"/><path class="cls-1" d="M825.6,106.1,991.3,381.8H659L825.6,106.1m0-1L658.1,382.3H992.2L825.6,105.1Z" transform="translate(-10.2 -4.7)"/><path class="cls-2" d="M825.6,105.6,991.8,382.1H658.5L825.6,105.6m0-1-168,277.9h335l-167-277.9Z" transform="translate(-10.2 -4.7)"/><path class="cls-1" d="M825.6,115,983.2,377.2h-316L825.6,115m0-1L666.3,377.7H984L825.6,114.1Z" transform="translate(-10.2 -4.7)"/><path class="cls-2" d="M825.6,114.6l158,262.9H666.7L825.6,114.6m0-1L665.8,378H984.5L825.6,113.6Z" transform="translate(-10.2 -4.7)"/><path class="cls-1" d="M825.6,124,975,372.6H675.3L825.6,124m0-1L674.4,373.1H975.9L825.6,123Z" transform="translate(-10.2 -4.7)"/><path class="cls-2" d="M825.6,123.5,975.4,372.9H674.9L825.6,123.5m0-1L674,373.4H976.3L825.6,122.5Z" transform="translate(-10.2 -4.7)"/><path class="cls-1" d="M825.6,132.9,966.8,368H683.5L825.6,132.9m0-1L682.6,368.5H967.7L825.6,132Z" transform="translate(-10.2 -4.7)"/><path class="cls-2" d="M825.6,132.4,967.3,368.3H683.1L825.6,132.4m0-1L682.2,368.8h286L825.6,131.5Z" transform="translate(-10.2 -4.7)"/><path class="cls-1" d="M825.6,141.9,958.7,363.4h-267L825.6,141.9m0-1-134.8,223H959.6l-134-223Z" transform="translate(-10.2 -4.7)"/><path class="cls-2" d="M825.6,141.4,959.1,363.6H691.2L825.6,141.4m0-1L690.4,364.1H960L825.6,140.4Z" transform="translate(-10.2 -4.7)"/><path class="cls-1" d="M825.6,150.8l125,208H699.9l125.7-208m0-1L699,359.3H951.4L825.6,149.8Z" transform="translate(-10.2 -4.7)"/><path class="cls-2" d="M825.6,150.3,951,359H699.4L825.6,150.3m0-1-127,210.2H951.9L825.6,149.4Z" transform="translate(-10.2 -4.7)"/><path class="cls-1" d="M825.5,159.8,942.4,354.2H708.1L825.5,159.8m0-1L707.2,354.7H943.3L825.5,158.8Z" transform="translate(-10.2 -4.7)"/><path class="cls-2" d="M825.5,159.3,942.8,354.4H707.6L825.5,159.3m0-1L706.7,354.9h237L825.5,158.3Z" transform="translate(-10.2 -4.7)"/><path class="cls-1" d="M825.5,168.7,934.2,349.5h-218L825.5,168.7m0-1L715.4,350H935.1L825.5,167.7Z" transform="translate(-10.2 -4.7)"/><path class="cls-2" d="M825.5,168.2,934.7,349.8H715.8L825.5,168.2m0-1-110.6,183H935.5l-110-183Z" transform="translate(-10.2 -4.7)"/><path class="cls-1" d="M825.5,177.6,926.1,344.9H724.4L825.5,177.6m0-1-102,168.8H926.9L825.5,176.7Z" transform="translate(-10.2 -4.7)"/><path class="cls-2" d="M825.5,177.2l101,168H724l101.5-168m0-1L723.1,345.7H927.4L825.5,176.2Z" transform="translate(-10.2 -4.7)"/><path class="cls-1" d="M825.5,186.6l92.4,153.7H732.6l92.9-153.7m0-1L731.7,340.8H918.8L825.5,185.6Z" transform="translate(-10.2 -4.7)"/><path class="cls-2" d="M825.5,186.1l92.8,154.5H732.2l93.3-154.5m0-1L731.3,341.1H919.2L825.5,185.1Z" transform="translate(-10.2 -4.7)"/><path class="cls-1" d="M825.5,195.5l84.2,140.2h-169l84.7-140.2m0-1L739.9,336.2H910.6L825.5,194.6Z" transform="translate(-10.2 -4.7)"/><path class="cls-2" d="M825.5,195l84.7,140.9H740.3L825.5,195m0-1-86,142.4H911.1L825.5,194.1Z" transform="translate(-10.2 -4.7)"/><path class="cls-1" d="M825.5,204.5l76.1,126.6H749l76.5-126.6m0-1L748.1,331.6H902.5l-77-128.1Z" transform="translate(-10.2 -4.7)"/><path class="cls-2" d="M825.5,204,902,331.3H748.5l77-127.4m0-1L747.6,331.8H902.9L825.5,203Z" transform="translate(-10.2 -4.7)"/><path class="cls-1" d="M825.5,213.4l67.9,113.1H757.1l68.3-113.1m0-1L756.3,327h138L825.5,212.4Z" transform="translate(-10.2 -4.7)"/><path class="cls-2" d="M825.5,212.9l68.4,113.8H756.7l68.8-113.8m0-1L755.8,327.2H894.7L825.5,211.9Z" transform="translate(-10.2 -4.7)"/><path class="cls-1" d="M825.5,222.3l59.8,99.5H765.3l60.1-99.5m0-1-61,101H886.1l-60.7-101Z" transform="translate(-10.2 -4.7)"/><path class="cls-2" d="M825.5,221.9l60.2,100.2H764.9l60.6-100.2m0-1L764,322.6H886.6L825.5,220.9Z" transform="translate(-10.2 -4.7)"/><path class="cls-1" d="M825.5,231.3l51.7,85.9H773.5l51.9-85.9m0-1-52.8,87.4H878l-52.5-87.4Z" transform="translate(-10.2 -4.7)"/><path class="cls-2" d="M825.5,230.8l52.1,86.7H773.1l52.4-86.7m0-1L772.2,318H878.4l-53-88.1Z" transform="translate(-10.2 -4.7)"/><path class="cls-1" d="M825.4,240.2l43.5,72.4H781.7l43.7-72.4m0-1-44.6,73.9h89l-44.4-73.9Z" transform="translate(-10.2 -4.7)"/><path class="cls-2" d="M825.4,239.7l43.9,73.1H781.2l44.2-73.1m0-1-45.1,74.6h89.9l-44.8-74.6Z" transform="translate(-10.2 -4.7)"/></svg>