<?xml version="1.0" encoding="utf-8"?>
<!-- Generator: Adobe Illustrator 20.1.0, SVG Export Plug-In . SVG Version: 6.00 Build 0)  -->
<svg version="1.1" id="Layer_1" xmlns="http://www.w3.org/2000/svg" xmlns:xlink="http://www.w3.org/1999/xlink" x="0px" y="0px"
	 viewBox="0 0 400 346.4" style="enable-background:new 0 0 400 346.4;" xml:space="preserve">
<style type="text/css">
	.st0{fill:none;}
	.st1{fill:#FFFFFF;}
</style>
<g>
	<polygon class="st0" points="250,86.6 150,86.6 200,173.2 	"/>
	<polygon class="st0" points="350,86.6 250,86.6 300,173.2 	"/>
	<polygon class="st0" points="200,346.4 250,259.8 150,259.8 	"/>
	<polygon class="st0" points="100,173.2 150,259.8 200,173.2 	"/>
	<polygon class="st0" points="50,86.6 100,173.2 150,86.6 	"/>
	<polygon class="st0" points="200,173.2 250,259.8 300,173.2 	"/>
	<polygon class="st1" points="100,346.4 200,346.4 150,259.8 	"/>
	<polygon class="st1" points="300,346.4 250,259.8 200,346.4 	"/>
	<polygon class="st1" points="300,173.2 250,86.6 200,173.2 	"/>
	<polygon class="st1" points="400,173.2 350,86.6 300,173.2 	"/>
	<polygon class="st1" points="0,173.2 100,173.2 50,86.6 	"/>
	<polygon class="st1" points="150,86.6 100,173.2 200,173.2 	"/>
	<polygon class="st1" points="50,259.8 150,259.8 100,173.2 	"/>
	<polygon class="st1" points="150,259.8 250,259.8 200,173.2 	"/>
	<polygon class="st1" points="300,173.2 250,259.8 350,259.8 	"/>
	<polygon class="st1" points="100,0 50,86.6 150,86.6 	"/>
	<polygon class="st1" points="200,0 150,86.6 250,86.6 	"/>
	<polygon class="st1" points="300,0 250,86.6 350,86.6 	"/>
</g>
</svg>
