<svg id="Layer_1" data-name="Layer 1" xmlns="http://www.w3.org/2000/svg" viewBox="0 0 392.8 381.1"><defs><style>.cls-1{fill:#fff;}</style></defs><title>play</title><polygon class="cls-1" points="14.1 147.5 0 171.9 28.2 171.9 14.1 147.5"/><polygon class="cls-1" points="45.6 171.9 73.8 171.9 59.7 147.5 45.6 171.9"/><polygon class="cls-1" points="91.2 171.9 119.3 171.9 105.3 147.5 91.2 171.9"/><polygon class="cls-1" points="136.7 171.9 164.9 171.9 150.8 147.5 136.7 171.9"/><polygon class="cls-1" points="182.3 171.9 210.5 171.9 196.4 147.5 182.3 171.9"/><polygon class="cls-1" points="227.9 171.9 256.1 171.9 242 147.5 227.9 171.9"/><polygon class="cls-1" points="273.5 171.9 301.7 171.9 287.6 147.5 273.5 171.9"/><polygon class="cls-1" points="333.2 147.5 319.1 171.9 347.3 171.9 333.2 147.5"/><polygon class="cls-1" points="392.8 171.9 378.7 147.5 364.7 171.9 392.8 171.9"/><polygon class="cls-1" points="37.1 98.3 23 122.7 51.2 122.7 37.1 98.3"/><polygon class="cls-1" points="68.6 122.7 96.8 122.7 82.7 98.3 68.6 122.7"/><polygon class="cls-1" points="114.2 122.7 142.4 122.7 128.3 98.3 114.2 122.7"/><polygon class="cls-1" points="159.8 122.7 187.9 122.7 173.8 98.3 159.8 122.7"/><polygon class="cls-1" points="205.3 122.7 233.5 122.7 219.4 98.3 205.3 122.7"/><polygon class="cls-1" points="250.9 122.7 279.1 122.7 265 98.3 250.9 122.7"/><polygon class="cls-1" points="310.6 98.3 296.5 122.7 324.7 122.7 310.6 98.3"/><polygon class="cls-1" points="370.3 122.7 356.2 98.3 342.1 122.7 370.3 122.7"/><polygon class="cls-1" points="59.7 49.2 45.6 73.6 73.8 73.6 59.7 49.2"/><polygon class="cls-1" points="119.3 73.6 105.3 49.2 91.2 73.6 119.3 73.6"/><polygon class="cls-1" points="164.9 73.6 150.8 49.2 136.7 73.6 164.9 73.6"/><polygon class="cls-1" points="210.5 73.6 196.4 49.2 182.3 73.6 210.5 73.6"/><polygon class="cls-1" points="256.1 73.6 242 49.2 227.9 73.6 256.1 73.6"/><polygon class="cls-1" points="301.7 73.6 287.6 49.2 273.5 73.6 301.7 73.6"/><polygon class="cls-1" points="347.3 73.6 333.2 49.2 319.1 73.6 347.3 73.6"/><polygon class="cls-1" points="84.3 0 70.2 24.4 98.4 24.4 84.3 0"/><polygon class="cls-1" points="129.9 0 115.8 24.4 144 24.4 129.9 0"/><polygon class="cls-1" points="175.5 0 161.4 24.4 189.6 24.4 175.5 0"/><polygon class="cls-1" points="221.1 0 207 24.4 235.2 24.4 221.1 0"/><polygon class="cls-1" points="266.7 0 252.6 24.4 280.8 24.4 266.7 0"/><polygon class="cls-1" points="312.2 0 298.2 24.4 326.3 24.4 312.2 0"/><polygon class="cls-1" points="14.1 199.8 0 224.2 28.2 224.2 14.1 199.8"/><polygon class="cls-1" points="73.8 224.2 59.7 199.8 45.6 224.2 73.8 224.2"/><polygon class="cls-1" points="119.3 224.2 105.3 199.8 91.2 224.2 119.3 224.2"/><polygon class="cls-1" points="164.9 224.2 150.8 199.8 136.7 224.2 164.9 224.2"/><polygon class="cls-1" points="210.5 224.2 196.4 199.8 182.3 224.2 210.5 224.2"/><polygon class="cls-1" points="256.1 224.2 242 199.8 227.9 224.2 256.1 224.2"/><polygon class="cls-1" points="301.7 224.2 287.6 199.8 273.5 224.2 301.7 224.2"/><polygon class="cls-1" points="333.2 199.8 319.1 224.2 347.3 224.2 333.2 199.8"/><polygon class="cls-1" points="364.7 224.2 392.8 224.2 378.7 199.8 364.7 224.2"/><polygon class="cls-1" points="35 252.1 20.9 276.5 49.1 276.5 35 252.1"/><polygon class="cls-1" points="80.6 252.1 66.5 276.5 94.7 276.5 80.6 252.1"/><polygon class="cls-1" points="126.2 252.1 112.1 276.5 140.3 276.5 126.2 252.1"/><polygon class="cls-1" points="171.8 252.1 157.7 276.5 185.8 276.5 171.8 252.1"/><polygon class="cls-1" points="217.3 252.1 203.2 276.5 231.4 276.5 217.3 252.1"/><polygon class="cls-1" points="262.9 252.1 248.8 276.5 277 276.5 262.9 252.1"/><polygon class="cls-1" points="308.5 252.1 294.4 276.5 322.6 276.5 308.5 252.1"/><polygon class="cls-1" points="340 276.5 368.2 276.5 354.1 252.1 340 276.5"/><polygon class="cls-1" points="59.7 304.4 45.6 328.8 73.8 328.8 59.7 304.4"/><polygon class="cls-1" points="105.3 304.4 91.2 328.8 119.3 328.8 105.3 304.4"/><polygon class="cls-1" points="150.8 304.4 136.7 328.8 164.9 328.8 150.8 304.4"/><polygon class="cls-1" points="196.4 304.4 182.3 328.8 210.5 328.8 196.4 304.4"/><polygon class="cls-1" points="242 304.4 227.9 328.8 256.1 328.8 242 304.4"/><polygon class="cls-1" points="287.6 304.4 273.5 328.8 301.7 328.8 287.6 304.4"/><polygon class="cls-1" points="319.1 328.8 347.3 328.8 333.2 304.4 319.1 328.8"/><polygon class="cls-1" points="69.3 381.1 97.5 381.1 83.4 356.7 69.3 381.1"/><polygon class="cls-1" points="114.9 381.1 143.1 381.1 129 356.7 114.9 381.1"/><polygon class="cls-1" points="160.5 381.1 188.6 381.1 174.5 356.7 160.5 381.1"/><polygon class="cls-1" points="206 381.1 234.2 381.1 220.1 356.7 206 381.1"/><polygon class="cls-1" points="251.6 381.1 279.8 381.1 265.7 356.7 251.6 381.1"/><polygon class="cls-1" points="297.2 381.1 325.4 381.1 311.3 356.7 297.2 381.1"/></svg>