<?xml version="1.0" encoding="utf-8"?>
<!-- Generator: Adobe Illustrator 20.1.0, SVG Export Plug-In . SVG Version: 6.00 Build 0)  -->
<svg version="1.1" id="Layer_1" xmlns="http://www.w3.org/2000/svg" xmlns:xlink="http://www.w3.org/1999/xlink" x="0px" y="0px"
	 viewBox="0 0 400 400" style="enable-background:new 0 0 400 400;" xml:space="preserve">
<style type="text/css">
	.st0{clip-path:url(#SVGID_2_);fill:none;stroke:url(#XMLID_3_);stroke-width:0.7705;stroke-miterlimit:10;}
	.st1{fill:url(#XMLID_4_);}
	.st2{fill:url(#XMLID_5_);}
</style>
<g>
	<g id="XMLID_6862_">
		<g>
			<defs>
				<path id="SVGID_1_" d="M320.3,127.7c-24.1-41.6-69-69.6-120.5-69.6s-96.5,28-120.5,69.6l0,0l120.5,69.6"/>
			</defs>
			<clipPath id="SVGID_2_">
				<use xlink:href="#SVGID_1_"  style="overflow:visible;"/>
			</clipPath>
			
				<linearGradient id="XMLID_3_" gradientUnits="userSpaceOnUse" x1="202.3385" y1="522.8635" x2="202.3385" y2="68.6052" gradientTransform="matrix(1 0 0 -1 0 402.8)">
				<stop  offset="0" style="stop-color:#2F4AE8"/>
				<stop  offset="4.975450e-02" style="stop-color:#3847EA"/>
				<stop  offset="0.3624" style="stop-color:#6934F3"/>
				<stop  offset="0.6362" style="stop-color:#8E26F9"/>
				<stop  offset="0.858" style="stop-color:#A41EFE"/>
				<stop  offset="1" style="stop-color:#AC1BFF"/>
			</linearGradient>
			<path id="XMLID_1780_" class="st0" d="M282.9,333.1h-3.4 M37.3,333.1h-6.7 M243.8,333.1h8.2 M48.4,333.1h4.3 M261.7,333.1h5.9
				 M409.9,224.6l-2.9-4.7 M414.4,232.4l3,4.8 M160.1,333.1h-5.1 M190.7,333.1l0.1,0.3l0.1-0.3H190.7z M137.2,333.1h7.6
				 M471.1,326.5l-3.7-6.2 M210.6-106.8l0.1,0.3 M66.1,333.1h1.8 M375,333.1h-6.7 M386.1,333.1h4.4 M405.6,333.1h-1.9 M172.8,333.1
				h2.6 M239,177l3.2,5.2h8.9l4.4-7.1l-3.2-5.4h-8.9L239,177z M231.3,164.3l3.3,5.4h8.8l4.4-7.4l-3-5.2h-9.1L231.3,164.3z
				 M215.9,138.8l-3.4,5.8h7L215.9,138.8z M234.5,169.6h-6.6l-5.6,9.3l1.9,3.2h11.4l3.2-5.2L234.5,169.6z M235.9,182.3h6.3L239,177
				L235.9,182.3z M244.8,157.1l-4.5-7.6l-4.5,7.6H244.8z M198.2,168.2l-0.8,1.4h1.6L198.2,168.2z M223.6,151.5l3.4,5.6h8.5l4.5-7.6
				l-3-4.9h-9.3L223.6,151.5z M237.3,144.5l-4.7-7.7l-4.7,7.7H237.3z M227.9,144.5l4.7-7.7l-2.9-4.8h-9.5l-4.1,6.7l3.4,5.8
				L227.9,144.5L227.9,144.5z M221.2,206.5l7.1-11.7h-14L221.2,206.5z M213.5,193.8l7-11.5h-13.9L213.5,193.8z M216.9,169.6h-4.1
				l-6.9,11.3l0.7,1.2h13.9l1.9-3.2L216.9,169.6z M190,207.3h14l-7-11.7L190,207.3z M189.3,183l-7.1,11.8h14.2L189.3,183z
				 M196.4,194.8h-14.2l-1.8,3l5.8,9.6h3.8l7-11.7L196.4,194.8z M197.5,194.8l7.6-12.6h-15.4l-0.4,0.7l7.1,11.8L197.5,194.8
				L197.5,194.8z M205.9,180.9l-6.7-11.3h-1.6l-7.6,12.6h15.1L205.9,180.9z M197.5,194.8l-0.5,1l7,11.7h1.4l7.6-12.6H197.5z
				 M207.1,153.5l-2.1,3.6h4.4L207.1,153.5z M212.8,194.8l-7.6,12.6h15.4l0.5-0.8l-7-11.7L212.8,194.8L212.8,194.8z M220.3,157.1
				l3.4-5.6l-4.3-7h-7l-5.4,8.9l2.1,3.6h11.1V157.1z M212.8,169.6l2.1-3.4l-5.5-9.1h-4.4l-6.7,11.1l0.8,1.4H212.8L212.8,169.6z
				 M220.5,182.3h4l-1.9-3.2L220.5,182.3z M252.4,169.6l-4.4-7.4l-4.4,7.4H252.4z M255.5,175l4.4,7.1h6.7l5.6-9.2l-2.1-3.3H259
				L255.5,175z M270.1,169.6l-5.8-9.5l-5.8,9.5H270.1z M212.5,144.5l3.4-5.8l-4.1-6.7h-7.1l-5.4,8.8l2.2,3.7H212.5z M247.8,162.2
				l4.4,7.4h6.5l5.8-9.5l-1.9-3.2H251L247.8,162.2z M198.2,168.2l-6.7-11.1h-1.9l-7.6,12.6h15.4L198.2,168.2z M190.7,155.5l-1,1.6
				h1.9L190.7,155.5z M199.5,140.8l-2.2,3.7h4.5L199.5,140.8z M208.4,126l-3.6,5.9h7.1L208.4,126z M204.9,157.1l2.1-3.6l-5.4-8.9
				h-4.5l-6.7,11l1,1.6h13.6V157.1z M247.4,132l-5.9-9.9l-6,9.9H247.4z M205.1,182.3l-7.6,12.6h15.4l0.7-1.1l-6.9-11.5H205.1z
				 M255,144.5l-5.8-9.8l-5.9,9.8H255z M232.6,136.8l4.7,7.7h6l5.9-9.8l-1.6-2.7h-12L232.6,136.8z M240.3,149.6l4.5,7.6h6.2l5.8-9.6
				l-1.8-3h-11.8L240.3,149.6z M227.8,119.5h-5.6l2.7,4.7L227.8,119.5z M220.2,132l4.8-8l-2.7-4.7h-9.8l-4,6.7l3.6,5.9H220.2z
				 M229.7,132h5.8l6-9.9l-1.6-2.6h-12.2l-2.7,4.7L229.7,132z M259,194.8h8.5l-4.3-7.1L259,194.8z M262.7,157.1l-5.8-9.6l-5.8,9.6
				H262.7z M263.2,187.8l4.3,7.1h6.7l5.5-9.1l-2.1-3.4h-11.1L263.2,187.8z M180.5,197.8l-1.8-3h-11.8l-3,4.9l4.5,7.6h6.2
				L180.5,197.8z M168.4,207.3l3,5.2l3-5.2H168.4z M186.1,207.3h-11.5l-3,5.2l4.4,7.4h6.5l5.8-9.5L186.1,207.3z M172.6,185l-5.9,9.8
				h11.8L172.6,185z M205.4,207.3l-0.7,1.1l6.9,11.4h1.6l7.6-12.6h-15.4V207.3z M182.3,194.8l7.1-11.8l-0.4-0.7h-14.4l-1.6,2.7
				l5.8,9.8H182.3z M259.9,182.3h-8.7l-4.5,7.6l3,5.1h9.2l4.3-7.1L259.9,182.3z M197.7,219.9h13.7l-6.9-11.4L197.7,219.9z
				 M204,207.3h-14l-1.9,3.2l5.6,9.5h4l6.9-11.4L204,207.3z M182.3,219.9h11.3l-5.6-9.5L182.3,219.9z M224.3,182.3h-4l-7,11.5
				l0.7,1.1h14l1.8-3L224.3,182.3z M228.2,194.8h3.7l-1.8-3L228.2,194.8z M242.2,182.3h-6.3l-5.8,9.5l1.8,3h11.7l3-5.1L242.2,182.3z
				 M243.6,194.8h6.2l-3-5.1L243.6,194.8z M189.7,182.3l7.6-12.6h-15.4l-0.3,0.7l7.1,12H189.7z M277.7,182.3l-5.6-9.2l-5.6,9.2
				H277.7z M181.6,170.3l-7.1,12h14.4L181.6,170.3z M220.6,207.3l-7.6,12.6h15.4l0.4-0.7l-7.1-11.8L220.6,207.3L220.6,207.3z
				 M230.1,191.8l5.8-9.5h-11.5L230.1,191.8z M143.1,194.8l4.3,7l4.3-7H143.1z M132.9,207.3l5.5,9.2l5.5-9.2H132.9z M136.2,219.9
				h4.1l-2.1-3.4L136.2,219.9z M176.4,132l6.5,10.9l6.6-10.9H176.4z M173.7,157.1l0.3,0.4l0.3-0.4H173.7z M163.4,169.6l1.6,2.6
				l1.6-2.6H163.4z M229.3,219.9l-0.4-0.7l-0.4,0.7H229.3z M129.5,231.2l6.9-11.3h-13.6L129.5,231.2z M203.4,235.9l2.1-3.4h-4.3
				L203.4,235.9z M219.9,234l0.8-1.5H219L219.9,234z M186.8,237.9l3.3-5.5h-6.6L186.8,237.9z M159.5,232.4h6.3l-3.2-5.2L159.5,232.4
				z M146,229.3l5.6-9.3h-11.3L146,229.3z M170.3,240l4.5-7.6h-8.9L170.3,240z M207,94.3l2.5,4.3l2.5-4.3H207z M292.8,207.3
				l-5.4-8.9l-5.4,8.9H292.8z M278.5,213.2l3.4-5.8h-7L278.5,213.2z M303.1,194.8l-6.7-11.1l-6.7,11.1H303.1z M297.5,207.3h-4.7
				l2.3,3.8L297.5,207.3z M186.5,119.5l5.2,8.7l5.2-8.7H186.5z M262,215.1l4.8-7.8h-9.5L262,215.1z M245.4,217.2l5.9-9.9h-11.8
				L245.4,217.2z M236.8,232.4l-0.3-0.5l-0.3,0.5H236.8z M244.4,245.1l-0.3-0.3l-0.3,0.3H244.4z M196.8,106.8l4,6.5l4-6.5H196.8z
				 M227.5,94.3h-2.7l1.4,2.2L227.5,94.3z M218.6,83.8l-6.3,10.4h12.6L218.6,83.8z M242.7,94.6l-7.4,12.2h14.8L242.7,94.6z
				 M153.3,182.3l2.9,4.8l2.9-4.8H153.3z M209.8,69.1l1.1,1.9l1.1-1.9H209.8z M199.5,81.6l2.5,4.1l2.5-4.1H199.5z M282.3,130.7
				l-0.7,1.2h1.5L282.3,130.7z M296.9,132H283l6.9,11.5L296.9,132z M298.1,157.1l-0.5-0.8l-0.5,0.8H298.1z M304.6,144.5h-14l7,11.7
				L304.6,144.5z M189.3,94.3l3.8,6.2l3.8-6.2C197,94.3,189.3,94.3,189.3,94.3z M156,157.1l1.5,2.5l1.5-2.5H156z M318.1,219.9
				l-6.5-10.7l-6.5,10.7H318.1z M205.9,180.9l-0.7,1.2h1.5L205.9,180.9z M166.2,144.5l0.1,0.3l0.3-0.3H166.2z M145.7,169.6l2.7,4.7
				l2.7-4.7H145.7z M168.9,119.5l6.3,10.7l6.5-10.7H168.9z M135.5,182.3l4.1,6.7l4.1-6.7H135.5z M211,248.8l2.2-3.7h-4.4L211,248.8z
				 M177.9,252.8l4.7-7.7h-9.2L177.9,252.8z M125.2,194.8l5.4,8.9l5.4-8.9H125.2z M194.4,250.7l3.4-5.8h-6.9L194.4,250.7z
				 M151.9,245.1h3.7l-1.8-3L151.9,245.1z M227.5,246.7l1-1.6h-2.1L227.5,246.7z M253.1,230l6-10H247L253.1,230z M161.4,254.7
				l5.8-9.6h-11.5L161.4,254.7z M286.2,226l3.6-6h-7.1L286.2,226z M269.6,228l4.8-8.1h-9.6L269.6,228z M302.8,223.9l2.5-4h-4.8
				L302.8,223.9z M137,244l7-11.5h-13.9L137,244z M112.9,233.3l0.5-0.7h-1L112.9,233.3z M115.1,207.3l6.7,11.1l6.7-11.1H115.1z
				 M179.1,106.8l5.1,8.5l5.1-8.5H179.1z M259.9,182.3l-4.4-7.1l-4.4,7.1H259.9z M243.3,144.5h-6l3,4.9L243.3,144.5z M224.9,124
				l-4.8,8h9.5L224.9,124z M188,210.4l1.9-3.2h-3.8L188,210.4z M266.5,182.3h-6.7l3.3,5.5L266.5,182.3z M212,132l4.1,6.7l4.1-6.7
				H212z M258.8,169.6h-6.5l3.2,5.4L258.8,169.6z M235.5,132h-5.8l2.9,4.8L235.5,132z M260.8,242.7l6.2-10.2h-12.4L260.8,242.7z
				 M201.6,144.5l5.4,8.9l5.4-8.9H201.6z M174.6,207.3h11.5l-5.8-9.6L174.6,207.3z M178.6,194.8l1.8,3l1.8-3H178.6z M188.7,182.3
				l0.4,0.7l0.4-0.7H188.7z M191.5,157.1l6.7,11.1l6.7-11.1H191.5z M251.1,157.1h-6.2l3,5.2L251.1,157.1z M235.7,157.1h-8.7l4.4,7.1
				L235.7,157.1z M222.4,179l5.6-9.3h-11.3L222.4,179z M212.4,221.2l0.7-1.2h-1.6L212.4,221.2z M234.5,169.6l-3.3-5.4l-3.3,5.4
				H234.5z M228,169.6l3.3-5.4l-4.3-7.3h-6.9l-5.5,9.1l2.1,3.4L228,169.6L228,169.6z M214.7,166.2l-2.1,3.4h4.1L214.7,166.2z
				 M209.2,157.1l5.5,9.1l5.5-9.1H209.2z M197,195.7l0.5-1h-1.1L197,195.7z M199,169.6l6.7,11.3l6.9-11.3H199z M214.2,194.8
				l-0.7-1.1l-0.7,1.1H214.2z M246.6,189.7l4.5-7.6h-8.9L246.6,189.7z M223.6,151.5l-3.4,5.6h6.7L223.6,151.5z M219.5,144.5l4.3,7
				l4.3-7H219.5z M243.4,169.6h-8.8l4.4,7.3L243.4,169.6z M194.2,132l5.4,8.8l5.4-8.8H194.2z M171,182.3l1.6,2.7l1.6-2.7H171z
				 M181.3,169.6l0.3,0.7l0.3-0.7H181.3z M183.9,144.5l6.6,11l6.7-11H183.9z M217.3,111.2l-4.8,8.1h9.8L217.3,111.2z M204.4,119.5
				l4,6.7l4-6.7H204.4z M214.6,106.8l2.6,4.4l2.6-4.4H214.6z M167,219.9h8.9l-4.4-7.4L167,219.9z M179.1,225.2l3.2-5.4h-6.5
				L179.1,225.2z M160.8,194.8l3,4.9l3-4.9H160.8z M195.7,223.2l2.1-3.3h-4L195.7,223.2z M154.9,214.6l4.4-7.1h-8.5L154.9,214.6z
				 M159.2,207.3h9.1l-4.5-7.6L159.2,207.3z M258.6,144.5H255l1.8,3L258.6,144.5z M254.3,202.5l4.7-7.6h-9.2L254.3,202.5z
				 M270.9,200.4l3.4-5.8h-6.7L270.9,200.4z M285.2,194.8l-5.5-9.1l-5.5,9.1H285.2z M221.7,207.3l-0.5-0.8l-0.5,0.8H221.7z
				 M281.9,182.3h-4.3l2.1,3.4L281.9,182.3z M237.7,204.4l5.8-9.6h-11.7L237.7,204.4z M204.5,208.5l0.7-1.1h-1.4L204.5,208.5z
				 M250.9,132h-3.4l1.6,2.7L250.9,132z M233.8,109.3l-6.2,10.2h12.2L233.8,109.3z M274.1,169.6h-4l2.1,3.3L274.1,169.6z
				 M243.2,119.5H240l1.6,2.6L243.2,119.5z M266.3,157.1h-3.8l1.9,3.2L266.3,157.1z M273.4,145.4l-7,11.7h14L273.4,145.4z
				 M205.6,257.6h10.7l-5.4-8.9L205.6,257.6z M300.9,132l-1.9-3.3L297,132H300.9z M283,132h13.9l1.9-3.3l-5.6-9.3h-4.1l-6.9,11.3
				L283,132z M289.9,143.5l0.7,1.1h14l1.8-3l-5.8-9.5h-4L289.9,143.5z M258.4,119.5h15.4l0.8-1.4l-6.7-11.1H266L258.4,119.5z
				 M289.2,119.5h-13.6l6.7,11.3L289.2,119.5z M275.5,119.5l-0.8-1.4l-0.8,1.4H275.5z M308.3,144.5l-1.8-3l-1.8,3H308.3z M266.3,132
				h15.4l0.7-1.2l-6.7-11.3h-1.8L266.3,132z M297.6,156.2l0.5,0.8h14.3l1.6-2.9l-5.8-9.6h-3.7L297.6,156.2z M313.3,182.3l-0.3-0.5
				l-0.3,0.5H313.3z M305.7,169.6l-0.4-0.7l-0.4,0.7H305.7z M297.2,182.3h15.4l0.3-0.5l-7.1-12.1h-0.8L297.2,182.3z M297,157.1
				l-7.6,12.6h15.4l0.4-0.7l-7.1-11.8L297,157.1L297,157.1z M305.3,168.9l7.1-11.8h-14.3L305.3,168.9z M235.1,81.8L235.1,81.8
				L235.1,81.8L235.1,81.8z M227.4,69.1L227.4,69.1l-7.4-12.6h-0.3l-7.6,12.6H227.4z M219.8,81.6h15.3L227.5,69h-0.1L219.8,81.6z
				 M227.5,69.1L227.5,69.1L227.5,69.1L227.5,69.1z M212,69.1l7.6-12.6h-15.4l-1.1,1.6l6.5,10.9L212,69.1L212,69.1z M204.4,81.6
				l6.5-10.7l-1.1-1.9h-13.1l-2.3,4l5.2,8.7H204.4L204.4,81.6z M203.2,58.3l-6.6,10.9h13.1L203.2,58.3z M258.3,94.3l1.1-1.8
				l-6.5-10.9h-2.3L243,94.3L258.3,94.3L258.3,94.3z M260.3,94.3l-1.1-1.8l-1.1,1.8H260.3z M250.6,106.8H266l1-1.6l-6.6-11h-2.1
				L250.6,106.8z M267.9,106.8l-1-1.6l-1,1.6H267.9z M242.6,94.3h0.3l7.6-12.6h-15.4v0.1L242.6,94.3z M235.2,81.6l7.6-12.6h-15.3
				L235.2,81.6L235.2,81.6z M305,194.8h15.4l0.3-0.3l-7.3-12.2h-0.7L305,194.8z M318.1,219.9h-12.9l-2.5,4l5.2,8.5h5.1l6.3-10.6
				L318.1,219.9z M201.2,232.4h-11.1l-3.3,5.5l4.3,7.1h6.9l5.5-9.1L201.2,232.4z M304.1,196.4l6.6,10.9h2.2l7.6-12.6H305
				L304.1,196.4z M213.2,245.1h13.3l-6.7-11.1L213.2,245.1z M219.1,232.4h-13.6l-2.1,3.4l5.5,9.1h4.4l6.7-11.1L219.1,232.4z
				 M244.1,244.7l7.4-12.2h-14.7L244.1,244.7z M220.8,232.4l-0.8,1.5l6.7,11.1h2.1l7.6-12.6L220.8,232.4L220.8,232.4z M236.2,232.4
				l-7.6,12.6H244l0.3-0.3l-7.3-12.2L236.2,232.4L236.2,232.4z M147.9,232.4l5.8,9.5l5.8-9.5H147.9z M247,219.9h-3.3l-7.3,12.1
				l0.3,0.5h14.7l1.5-2.5L247,219.9z M182.5,245.1h8.5l-4.3-7.1L182.5,245.1z M162.5,227.2l-4.4-7.3h-6.6l-5.6,9.3l1.9,3.2h11.4
				L162.5,227.2z M165.6,232.4h-6.3l-5.8,9.5l1.8,3H167l3-5.1L165.6,232.4z M167.1,245.1h6.2l-3-5.1L167.1,245.1z M183.5,232.4h-8.7
				l-4.5,7.6l3,5.1h9.2l4.3-7.1L183.5,232.4z M197.9,245.1h10.9l-5.5-9.1L197.9,245.1z M319.3,222l1.1-2.1h-2.5L319.3,222z
				 M325.6,232.4h2.6l7.6-12.6h-15.3l-1.1,2.1L325.6,232.4z M312.9,232.4h12.6l-6.3-10.6L312.9,232.4z M311.6,209.1l1.1-1.8h-2.1
				L311.6,209.1z M194.4,73l-5.2,8.7h10.4L194.4,73z M318.1,219.9h2.5l7.6-12.6h-15.4l-1.1,1.8L318.1,219.9z M282.2,232.4h8l-4-6.6
				L282.2,232.4z M266.8,232.4h5.5l-2.7-4.5L266.8,232.4z M264.9,219.9h-5.8l-6,10l1.5,2.5h12.2l2.7-4.5L264.9,219.9z M282.5,219.9
				h-8.1l-4.8,8.1l2.7,4.5h9.9l4-6.6L282.5,219.9z M251.5,232.4h3l-1.5-2.5L251.5,232.4z M300.3,219.9h-10.4l-3.6,6l4,6.6h7.4
				l5.2-8.5L300.3,219.9z M297.6,232.4h10.3l-5.2-8.5L297.6,232.4z M254.6,232.4h-3l-7.4,12.2l0.3,0.3h15l1.4-2.3L254.6,232.4z
				 M277.3,240.7l4.9-8.1h-9.9L277.3,240.7z M190.2,257.6h8.2l-4.1-6.9L190.2,257.6z M208.8,245.1h-10.9l-3.4,5.8l4.1,6.9h7.1
				l5.4-8.9L208.8,245.1z M226.7,245.1h-13.3l-2.2,3.7l5.4,8.9h4.7l6.6-10.9L226.7,245.1z M228.9,219.2l7.1-11.8h-14.3L228.9,219.2z
				 M228.6,245.1l-1,1.6l6.6,10.9h2.2l7.6-12.6h-15.4V245.1z M221,257.6h13.2l-6.6-10.9L221,257.6z M191.1,245.1h-8.5l-4.7,7.7
				l3,4.8h9.5l4.1-6.9L191.1,245.1z M155.6,245.1h-3.7l-7.1,11.7l0.5,0.8h14.3l1.6-2.9L155.6,245.1z M137.7,245.1l7,11.7l7.1-11.7
				H137.7z M159.6,257.6h3.4l-1.6-2.9L159.6,257.6z M251.8,257.5l7.6-12.4h-15L251.8,257.5z M173.2,245.1H167l-5.8,9.6l1.6,2.9h11.8
				l3-4.8L173.2,245.1z M175,257.6h5.9l-3-4.8L175,257.6z M305.4,245.1h10l-5.1-8.4L305.4,245.1z M153.7,241.9l-5.8-9.5h-4l-7,11.5
				l0.7,1.1h14L153.7,241.9z M325.6,232.4H313l-2.5,4.1l5.1,8.4h5.4l6.2-10.4L325.6,232.4z M328.2,232.4l-1.2,2.2l6.2,10.4h2.9
				l7.6-12.4l-0.1-0.3L328.2,232.4L328.2,232.4z M320.7,245.1h12.5l-6.2-10.4L320.7,245.1z M343.5,232.6l0.1-0.3h-0.3L343.5,232.6z
				 M144.1,232.4h4l-1.9-3.2L144.1,232.4z M343.6,232.4l7.6-12.6h-15.4l7.6,12.6H343.6z M272.3,232.4h-5.5l-6.2,10.2l1.4,2.3h12.5
				l2.6-4.4L272.3,232.4z M259.4,245.1h2.9l-1.4-2.3L259.4,245.1z M274.6,245.1h5.4l-2.6-4.4L274.6,245.1z M307.9,232.4h-10.3
				l-3.7,6.2l3.8,6.3h7.6l5.1-8.4L307.9,232.4z M290.2,232.4h-8l-4.9,8.1l2.6,4.4h10l3.8-6.3L290.2,232.4z M290,245.1h7.7l-3.8-6.3
				L290,245.1z M185.4,87.8l-4,6.5h7.7L185.4,87.8z M158.8,132l-7.6,12.5h15L158.8,132z M166.5,144.5l7.6-12.6h-15.4l-0.1,0.1
				l7.6,12.5L166.5,144.5L166.5,144.5z M158.6,132L158.6,132L158.6,132L158.6,132z M158.9,157.1l7.4-12.2l-0.1-0.3h-15l-1.4,2.2
				l6.2,10.3L158.9,157.1L158.9,157.1z M166.3,119.5h-15.3l7.6,12.6h0.1L166.3,119.5z M151.3,169.6l6.2-10.2L156,157h-12.4l-2.6,4.4
				l4.8,8.1L151.3,169.6L151.3,169.6z M149.7,146.8l-6.2,10.3H156L149.7,146.8z M174,132l1.1-1.9l-6.3-10.7h-2.5l-7.6,12.6H174z
				 M176.5,102.5l-2.5,4.3h5.2L176.5,102.5z M189.3,106.8l3.8-6.2l-3.8-6.2h-7.7l-4.9,8.2l2.5,4.3h10.2V106.8z M140.8,161.5
				l-4.8,8.1h9.8L140.8,161.5z M196.8,94.3l5.1-8.5l-2.5-4.1H189l-3.7,6.2l4,6.5H196.8z M167.6,117.3l-1.2,2.1h2.5L167.6,117.3z
				 M181.7,119.5l2.5-4.1l-5.1-8.5h-5.2l-6.3,10.4l1.2,2.1h12.9V119.5z M128.5,207.3l2.1-3.6l-5.4-8.9h-4.5l-6.7,11l1,1.6h13.6
				V207.3z M105.7,245.1h14.2l-7.1-11.8L105.7,245.1z M112.4,232.4H98l-1.6,2.7l5.8,9.8h3.6l7.1-11.8L112.4,232.4z M143.6,182.3
				l4.8-8l-2.7-4.7h-9.8l-4,6.7l3.6,5.9H143.6z M105.3,220.6l-7.1,12h14.4L105.3,220.6z M130.2,232.4h-1.5l-7.6,12.6h15.3l0.7-1.1
				L130.2,232.4z M113.4,232.4l-0.5,0.7l7.1,11.8h1.1l7.6-12.6L113.4,232.4L113.4,232.4z M113.4,232.4l7.6-12.6h-15.4l-0.4,0.7
				l7.1,12H113.4z M136.2,194.8l3.4-5.8l-4.1-6.7h-7.1l-5.4,8.8l2.2,3.7H136.2z M123,191.1l-2.2,3.7h4.5L123,191.1z M132,176.4
				l-3.6,5.9h7.1L132,176.4z M114.1,205.8l-1,1.6h1.9L114.1,205.8z M136.5,245.1h1.2L137,244L136.5,245.1z M121.8,218.6l-6.7-11.1
				h-1.9l-7.6,12.6H121L121.8,218.6z M244,245.1l-7.6,12.6h15.4l0.1-0.3l-7.4-12.4H244L244,245.1z M174.4,182.3l7.1-12l-0.3-0.7
				h-14.7l-1.6,2.6l5.9,9.9h3.6V182.3z M174,157.5l-7.3,12.2h14.6L174,157.5z M165.1,172.2l-6,9.9h12L165.1,172.2z M182,169.6
				l7.6-12.6h-15.4l-0.3,0.4l7.3,12.2H182z M159.2,207.3l4.5-7.6l-3-4.9h-9.2l-4.3,7l3.4,5.6L159.2,207.3L159.2,207.3z M166.9,194.8
				l5.9-9.8l-1.6-2.7h-12l-2.9,4.8l4.7,7.7H166.9L166.9,194.8z M156.2,186.9l-4.7,7.7h9.3L156.2,186.9z M190.7,155.5l-6.6-11H182
				l-7.6,12.6h15.4L190.7,155.5z M204.8,132l3.6-5.9l-4-6.7H197l-5.2,8.7l2.3,4H204.8L204.8,132z M147.2,201.8l-3.4,5.6h6.7
				L147.2,201.8z M200.8,113.3l-3.7,6.2h7.4L200.8,113.3z M191.8,128l-2.3,4h4.8L191.8,128z M182.8,142.8l-1.1,1.6h2.1L182.8,142.8z
				 M197.1,144.5l2.2-3.7L194,132h-4.8l-6.6,10.9l1.1,1.6H197.1L197.1,144.5z M158.2,219.9l4.4,7.3l4.4-7.3H158.2z M205.4,232.4H219
				l-6.7-11.3L205.4,232.4z M213.1,219.9l-0.7,1.2l6.7,11.3h1.8l7.6-12.6L213.1,219.9L213.1,219.9z M190.1,232.4h11.1l-5.5-9.2
				L190.1,232.4z M211.4,219.9h-13.7l-2.1,3.3l5.5,9.2h4.3l6.7-11.3L211.4,219.9z M228.5,219.9l-7.6,12.6h15.4l0.3-0.5l-7.1-12.1
				H228.5z M150.5,207.3h-6.7l-5.5,9.2l2.1,3.4h11.3l3.3-5.4L150.5,207.3z M236.4,232l7.3-12.1h-14.6L236.4,232z M171.5,212.5
				l-3-5.2h-9.1l-4.4,7.1l3.3,5.4h8.8L171.5,212.5z M193.7,219.9h-11.3l-3.2,5.4l4.4,7.1h6.7l5.6-9.2L193.7,219.9z M212.4,119.5
				l4.8-8.1l-2.6-4.4h-9.9l-4,6.5l3.7,6.2L212.4,119.5L212.4,119.5z M151.6,219.9h6.6l-3.3-5.4L151.6,219.9z M175.9,219.9H167
				l-4.4,7.3l3.2,5.2h8.9l4.4-7.1L175.9,219.9z M174.7,232.4h8.7l-4.4-7.1L174.7,232.4z M257.7,119.5l-7.3-12.2l-7.3,12.2H257.7z
				 M279.7,185.7l5.5,9.1h4.4l6.7-11.1l-0.8-1.5h-13.5L279.7,185.7z M295.4,182.3l-6.7-11.3l-6.7,11.3H295.4z M287.4,198.5l2.2-3.7
				h-4.4L287.4,198.5z M274.2,194.8l-3.4,5.8l4.1,6.9h7l5.4-8.9l-2.2-3.7H274.2z M266.3,157.1l-1.9,3.2l5.8,9.5h4l6.9-11.4l-0.7-1.1
				h-14V157.1z M288,169.6l-6.9-11.4l-6.9,11.4H288z M272.2,173.1l5.6,9.2h4.3l6.7-11.3l-0.7-1.2h-13.7L272.2,173.1z M236,207.3h3.4
				l-1.6-2.9L236,207.3z M281.1,158.2l0.7-1.1h-1.4L281.1,158.2z M231.9,194.8h-3.7l-7.1,11.7l0.5,0.8h14.3l1.6-2.9L231.9,194.8z
				 M209.6,98.6l-4.9,8.2h9.9L209.6,98.6z M249.8,194.8h-6.2l-5.8,9.6l1.6,2.9h11.8l3-4.8L249.8,194.8z M267.5,194.8H259l-4.7,7.6
				l3,4.8h9.5l4.1-6.9L267.5,194.8z M251.4,207.3h5.9l-3-4.8L251.4,207.3z M266.8,207.3h8.2l-4.1-6.9L266.8,207.3z M280.4,157.1h1.4
				l7.6-12.6H274l-0.5,1L280.4,157.1z M235.3,106.8h-3l1.5,2.5L235.3,106.8z M240,119.5h3.2l7.3-12.2l-0.3-0.4h-14.8l-1.5,2.5
				L240,119.5z M232.4,106.8l-6.2-10.3l-6.2,10.3H232.4z M239.6,207.3h-3.4l-7.1,11.8l0.4,0.7H244l1.6-2.7L239.6,207.3z
				 M219.9,106.8l6.2-10.3l-1.4-2.2h-12.6l-2.5,4.3l4.9,8.2H219.9L219.9,106.8z M217.3,111.2l4.8,8.1h5.6l6.2-10.2l-1.5-2.5h-12.4
				L217.3,111.2z M256.8,147.5l5.8,9.6h3.8l7-11.7l-0.5-1h-14.2L256.8,147.5z M272.7,144.5l-7.1-11.8l-7.1,11.8H272.7z M274,144.5
				h-1.1l0.5,1L274,144.5z M249.2,134.7l5.8,9.8h3.6l7.1-11.8l-0.4-0.7h-14.4L249.2,134.7z M241.5,121.9l5.9,9.9h3.4l7.1-12
				l-0.3-0.7h-14.6L241.5,121.9z M265.3,132l-7.1-12l-7.1,12H265.3z M157.4,159.6l-6.2,10.2h12.2L157.4,159.6z M197.1,119.5l3.7-6.2
				l-4-6.5h-7.6l-5.1,8.5l2.5,4.1H197.1z M184.2,115.3l-2.5,4.1h4.9L184.2,115.3z M193,100.6l-3.8,6.2h7.6L193,100.6z M182.8,142.8
				l-6.5-10.9H174l-7.6,12.6h15.4L182.8,142.8z M174.3,157.1l7.6-12.6h-15.3l-0.3,0.3l7.4,12.2L174.3,157.1L174.3,157.1z
				 M204.5,106.8l4.9-8.2l-2.5-4.3h-10.2l-3.8,6.2l3.8,6.2h7.7V106.8z M175.3,130l-1.1,1.9h2.3L175.3,130z M189.4,132l2.3-4
				l-5.2-8.7h-4.9l-6.5,10.7l1.1,1.9H189.4L189.4,132z M218.6,83.8l1.2-2.1h-2.5L218.6,83.8z M224.7,94.3h2.7l7.6-12.5v-0.1h-15.3
				l-1.2,2.1L224.7,94.3z M219.8,81.6l7.6-12.6H212l-1.1,1.9l6.3,10.7C217.2,81.6,219.8,81.6,219.8,81.6z M242.6,94.3l-7.6-12.5
				l-7.6,12.5H242.6z M210.9,71.1l-6.5,10.7h12.8L210.9,71.1z M201.9,85.8l-5.1,8.5H207L201.9,85.8z M212.2,94.3l6.3-10.4l-1.2-2.1
				h-12.8l-2.5,4.1l5.1,8.5h5.1V94.3z M136.2,219.9l2.1-3.4l-5.5-9.2h-4.4l-6.7,11.1l0.8,1.4L136.2,219.9L136.2,219.9z M130.6,203.7
				l-2.1,3.6h4.4L130.6,203.7z M121.8,218.6l-0.8,1.4h1.6L121.8,218.6z M143.9,207.3l3.4-5.6l-4.3-7h-6.9l-5.4,8.9l2.1,3.6h11V207.3
				z M166.3,144.9l-7.4,12.2h14.8L166.3,144.9z M128.8,232.4h1.5l-0.8-1.2L128.8,232.4z M122.6,219.9H121l-7.6,12.6h15.4l0.7-1.1
				L122.6,219.9z M140.3,219.9h-4.1l-6.9,11.3l0.7,1.1h13.9l1.9-3.2L140.3,219.9z M159,182.3l6-9.9l-1.6-2.6h-12.2l-2.7,4.7l4.8,8
				h5.8V182.3z M166.6,169.6l7.3-12.2l-0.3-0.4h-14.8l-1.5,2.5l6,10.2H166.6z M148.6,174.3l-4.8,8h9.5L148.6,174.3z M139.7,189
				l-3.4,5.8h6.9L139.7,189z M151.5,194.8l4.7-7.7l-2.9-4.8h-9.5l-4.1,6.7l3.4,5.8L151.5,194.8L151.5,194.8z M288.7,171l0.7-1.2
				h-1.6L288.7,171z M304.1,196.4l1-1.6H303L304.1,196.4z M289.6,194.8l-2.2,3.7l5.4,8.9h4.7l6.6-10.9l-1-1.6h-13.5V194.8z
				 M295.1,211.1l5.4,8.7h4.8l6.5-10.7l-1.1-1.8h-13.2L295.1,211.1z M295.4,182.3h1.8l7.6-12.6h-15.4l-0.7,1.2L295.4,182.3z
				 M296.4,183.6l0.8-1.5h-1.8L296.4,183.6z M303.1,194.8h2.1l7.6-12.6h-15.4l-0.8,1.5L303.1,194.8z M310.7,207.3l-6.6-10.9
				l-6.6,10.9H310.7z M259.1,219.9h5.8l-2.9-4.8L259.1,219.9z M275.1,207.3h-8.2l-4.8,7.8l2.9,4.8h9.6l4-6.7L275.1,207.3z
				 M257.2,207.3h-5.9l-5.9,9.9l1.6,2.7h12.1l2.9-4.8L257.2,207.3z M274.5,219.9h8.1l-4-6.7L274.5,219.9z M226.1,96.5l6.2,10.3h3
				l7.4-12.2l-0.1-0.3h-15L226.1,96.5z M292.8,207.3h-10.7l-3.4,5.8l4,6.7h7.1l5.4-8.7L292.8,207.3z M289.9,219.9h10.4l-5.4-8.7
				L289.9,219.9z M257.7,119.5h0.7l7.6-12.6h-15.4l-0.3,0.4L257.7,119.5z M265.3,132h1l7.6-12.6h-15.4l-0.3,0.7L265.3,132z
				 M250.4,107.2l0.3-0.4h-0.5L250.4,107.2z M258,120l0.3-0.7h-0.7L258,120z M242.9,94.3h-0.3l0.1,0.3L242.9,94.3z M250.2,106.8h0.5
				l7.6-12.6h-15.4l-0.1,0.3L250.2,106.8z M290.6,144.5l-0.7-1.1l-0.7,1.1H290.6z M243.7,219.9h3.3l-1.6-2.7L243.7,219.9z
				 M281.6,157.1H297l0.5-0.8l-7-11.7h-1.2L281.6,157.1z M281.1,158.2l6.9,11.4h1.6l7.6-12.6h-15.4L281.1,158.2z M265.7,132.8
				l0.4-0.7h-1L265.7,132.8z M289.3,144.5l0.7-1.1l-6.9-11.5h-1.5l-7.6,12.6H289.3z M272.7,144.5h1.1l7.6-12.6H266l-0.4,0.7
				L272.7,144.5z M83.6,332.5l7.3-12.1H76.3L83.6,332.5z M216.1,316.4l5.2-8.5H211L216.1,316.4z M232.7,314.4l4-6.6h-7.8
				L232.7,314.4z M172.8,333.1l-6.3-10.6l-6.3,10.6H172.8z M199.6,318.5l6.3-10.6h-12.6L199.6,318.5z M183.1,320.4L183.1,320.4
				L183.1,320.4L183.1,320.4z M265.8,310.4l1.5-2.5h-3L265.8,310.4z M249.2,312.4l2.7-4.5h-5.5L249.2,312.4z M282.1,307.8l-7.3-12.2
				l-7.4,12.2H282.1z M10.6,270.1l1.6,2.6l1.6-2.6L10.6,270.1L10.6,270.1z M332.1,302.3l4.3-7.1h-8.5L332.1,302.3z M348.7,300.3
				l3-5.1h-6L348.7,300.3z M299.1,306.4l6.7-11.1h-13.3L299.1,306.4z M315.6,304.3l5.5-9.1h-10.9L315.6,304.3z M101.4,303l4.7-7.7
				h-9.2L101.4,303z M44.1,296.2l0.7-1h-1.1L44.1,296.2z M84.9,305l5.8-9.8H79L84.9,305z M27.5,298.3l1.8-3h-3.6L27.5,298.3z
				 M68.3,306.9l7.1-11.7h-14L68.3,306.9z M13.9,295.4h11.8l-5.8-9.8L13.9,295.4z M6.2,282.7h12l-5.9-9.9L6.2,282.7z M150,324.4
				l2.5-4h-4.8L150,324.4z M381.9,296.2l0.7-1.1h-1.2L381.9,296.2z M166.5,322.5l1.1-2.1h-2.3L166.5,322.5z M137,320.4h10.4
				l-5.4-8.7L137,320.4z M113.8,307.8h8.2l-4.1-6.9L113.8,307.8z M125.6,313.8l3.4-5.8h-7.1L125.6,313.8z M365.2,298.3l1.8-3h-3.7
				L365.2,298.3z M157-18.8l0.4,0.7l0.4-0.7H157z M144.1,19l3.2,5.2l3.2-5.2H144.1z M142.5,6.3c4,0,7.3,0,11.7,0l-5.8-9.6L142.5,6.3
				z M146.7-6.3l1.6,2.9l1.6-2.9H146.7z M177.3-43.8l5.5,9.1l5.5-9.1C183.6-43.8,181.6-43.8,177.3-43.8z M200.5-64.3l-4.8,7.8h9.5
				L200.5-64.3z M167.1-31.3l6.7,11.3l6.7-11.3C175-31.3,172.2-31.3,167.1-31.3z M110.7,81.6l0.8,1.4l0.8-1.4H110.7z M95,85.1
				l-5.5,9.1h11L95,85.1z M82.6,94.3l3.4,5.6l3.4-5.6H82.6z M123.6,44l5.8,9.6l5.8-9.6C131.1,44,127.3,44,123.6,44z M113.3,56.6
				l7.1,11.8l7.1-11.8H113.3z M133.7,31.3l4.4,7.4l4.4-7.4H133.7z M232.4-41l-5.8,9.5c5.5,0,5.8,0,11.4,0L232.4-41z M419.5,270.1
				l-3.2-5.4l-3.2,5.4H419.5z M420.6,257.6H412l4.4,7.1L420.6,257.6z M414.4,232.4l-4.8-7.8l-4.8,7.8H414.4z M412.8,245.1h-8.5
				l4.3,7.1L412.8,245.1z M211.1-56.5h-5.9l3,4.8L211.1-56.5z M420.8,282.7h-11.5l5.8,9.5L420.8,282.7z M409.2,282.7l-1.9-3.2
				l-1.9,3.2H409.2z M398.4,294.3l7-11.5h-14L398.4,294.3z M219-43.8c-2.9,0-3.3,0-6.2,0l3,5.1L219-43.8z M264.3-17.5l-6.7,11.1
				h13.5L264.3-17.5z M249.8-18.8h-4.1l2.1,3.4L249.8-18.8z M242.1-31.3c-1.9,0-2.1,0-4,0l1.9,3.2L242.1-31.3z M151.5,31.3l3.3,5.4
				l3.3-5.4H151.5z M397.4,219.9h-8.1l4,6.7L397.4,219.9z M389.6,207.3h-7.8l4,6.6L389.6,207.3z M396.8,232.4l-3.4-5.8l-3.4,5.8
				H396.8z M223.5-26.1l-4.4,7.3h8.8L223.5-26.1z M397.4,245.1h-10.9l5.4,9.1L397.4,245.1z M405.2,257.6h-11.1l5.5,9.2L405.2,257.6z
				 M401.6,270.1l-2.1-3.3l-2.1,3.3H401.6z M287.3,20.8l-6.5,10.7h12.8L287.3,20.8z M255.4-2.7L250,6.2c5.4,0,5.4,0,10.9,0
				L255.4-2.7z M234.5-18.8H228l3.3,5.4L234.5-18.8z M242.3-6.3h-6.7l3.4,5.6L242.3-6.3z M273.1,19h-4.8l2.3,4L273.1,19z M265.4,6.3
				c-2.2,0-2.2,0-4.5,0l2.2,3.7L265.4,6.3z M391.9,194.8l-5.1-8.4l-5.1,8.4H391.9z M258.1,297.7l1.4-2.3h-2.9L258.1,297.7z
				 M390.8,281.5l6.9-11.4h-13.7L390.8,281.5z M291.3,293.6l6.6-10.9h-13.1L291.3,293.6z M20.8,257.6L21,258l0.3-0.4H20.8z
				 M208.5,303.6l5.1-8.4h-10L208.5,303.6z M225.2,301.7l3.8-6.3h-7.6L225.2,301.7z M274.6,295.4l-7.4-12.4l-7.6,12.4H274.6z
				 M357.7,285.6l1.6-2.9h-3.4L357.7,285.6z M307.9,291.7l5.4-8.9h-10.6L307.9,291.7z M374.2,283.6l0.5-0.8h-1.1L374.2,283.6z
				 M324.4,289.6l4.1-6.9h-8.2L324.4,289.6z M341,287.6l3-4.8h-5.9L341,287.6z M241.6,299.7l2.6-4.4h-5.4L241.6,299.7z M87.6,132
				l4.8,8.1l4.8-8.1H87.6z M64.5,182.3l1.2,2.1l1.2-2.1H64.5z M67.1,157.1l7.6,12.5l7.6-12.5H67.1z M211.4-31.3c-4,0-4.8,0-8.7,0
				l4.4,7.1L211.4-31.3z M90.2,106.8l3.4,5.8l3.4-5.8H90.2z M89.5,119.5h8.1l-4.1-6.7L89.5,119.5z M77.3,144.5l6.2,10.3l6.2-10.3
				H77.3z M51.7,182.3h12.8l-6.3-10.6L51.7,182.3z M33.7,219.9l5.2,8.7l5.2-8.7H33.7z M192,305.7l6.2-10.4h-12.5L192,305.7z
				 M44,207.3l4,6.5l4-6.5H44z M54.2,194.8l2.5,4.3l2.5-4.3H54.2z M102.5,97.9l-5.4,8.9H108L102.5,97.9z M174.6-18.8l6.9,11.4
				l6.9-11.4H174.6z M184.9-31.3l5.5,9.2l5.6-9.2C191.1-31.3,189.6-31.3,184.9-31.3z M164.4-6.3l0.5,0.8l0.5-0.8H164.4z M157.8,6.3
				c5.4,0,8.2,0,14,0l-7-11.7L157.8,6.3z M195.1-43.8l4.3,7.1l4.3-7.1C199.9-43.8,198.8-43.8,195.1-43.8z M199.3-37l-3.3,5.5
				c3,0,3.6,0,6.7,0L199.3-37z M131.1,56.6l5.8,9.8l5.9-9.8H131.1z M118.2,94.3l1,1.6l1-1.6H118.2z M121,69.1l7.1,12l7.1-12H121z
				 M161.8,19l1.9,3.3l1.9-3.3H161.8z M72.4,106.8l4.7,7.7l4.7-7.7H72.4z M141.3,44l4.5,7.6l4.5-7.6C146.9,44,144.6,44,141.3,44z
				 M23.5,232.4l6.5,10.9l6.6-10.9H23.5z M-24.3,307.8h4.4l-2.1-3.6L-24.3,307.8z M-27.6,295.4l5.4,8.9l5.4-8.9H-27.6z M-14.6,317.1
				l5.5-9.2h-11L-14.6,317.1z M-31.1,319l6.7-11.3h-13.6L-31.1,319z M-24.5,282.7h7.1l-3.6-5.9L-24.5,282.7z M-24.9,270.1l4,6.7
				l4-6.7L-24.9,270.1L-24.9,270.1z M9.8,327.7l4.4-7.3H5.2L9.8,327.7z M59.4,321.6l0.8-1.2h-1.6L59.4,321.6z M328.2,232.4h15.1
				l-7.6-12.6l0,0L328.2,232.4z M-1.2,320.4h6.5l-3.3-5.4L-1.2,320.4z M98.7,333.1h3l-1.5-2.5L98.7,333.1z M-24.6,257.6h9.9
				l-4.9-8.2L-24.6,257.6z M21.9,333.1h8.7l-4.4-7.1L21.9,333.1z M48.4,333.1l-5.5-9.2l-5.6,9.2H48.4z M103.1,69.1l0.7,1.2l0.7-1.2
				H103.1z M87.3,72.4l-5.6,9.3h11.3L87.3,72.4z M105.7,44l7,11.7l7-11.7C115.3,44,109.6,44,105.7,44z M58.8,119.5h3.4l-1.6-2.7
				L58.8,119.5z M115.9,31.3l5.8,9.5l5.8-9.5H115.9z M126.2,19l4.4,7.1L135,19H126.2z M20.9,182.3h8l-4-6.7L20.9,182.3z M18.6,194.8
				l4.9,8.2l4.9-8.2H18.6z M8.4,207.3l6.2,10.4l6.3-10.4H8.4z M52,132l7.3,12.2l7.3-12.2H52z M42.7,146.1l-6.7,11h13.2L42.7,146.1z
				 M-10.7,234.5l-6.3,10.4h12.6L-10.7,234.5z M397.1,321.8l0.8-1.4h-1.6L397.1,321.8z M-47.6,321.1l0.4-0.7h-0.7L-47.6,321.1z
				 M-23.5,331.8l6.9-11.3h-13.6L-23.5,331.8z M-8.8,333.1h4l-1.9-3.2L-8.8,333.1z M-45.4,295.4l6.6,11l6.7-11H-45.4z M-39.9,282.7
				h4.8l-2.3-4L-39.9,282.7z M421.4,332.5l7.3-12.1H414L421.4,332.5z M467.5,320.4l-4-6.7l-4,6.7H467.5z M203-119.3l-7.6,12.6h15.1
				L203-119.3z M474.9,333.1l-4-6.5l-4,6.5H474.9z M-70.2,333.1h12l-5.9-9.9L-70.2,333.1z M194.2-104.6L188-94.2h12.5L194.2-104.6z
				 M437.9,330.4l6.2-10h-12.2L437.9,330.4z M454.6,328.5l4.8-8.1h-9.8L454.6,328.5z M364,325.8l3.3-5.4h-6.5L364,325.8z
				 M347.5,327.8l4.4-7.4H343L347.5,327.8z M127.1,6.3c2.7,0,6.2,0,9.2,0l-4.7-7.6L127.1,6.3z M380.6,323.8l2.1-3.4h-4.1
				L380.6,323.8z M297.2,333.1l-7.1-11.8l-7.1,11.8H297.2z M330.9,329.9l5.8-9.5h-11.3L330.9,329.9z M314.4,331.8l6.9-11.4h-13.7
				L314.4,331.8z M459.8,307.8l-4.1-6.7l-4.1,6.7H459.8z M218.4-93.9L211-81.6h14.7L218.4-93.9z M413.7,319.9l7.1-12h-14.4
				L413.7,319.9z M203.3-94.2h-2.9l1.4,2.3L203.3-94.2z M446.7,315.7l4.8-8h-9.5L446.7,315.7z M430.2,317.8l6-9.9h-12L430.2,317.8z
				 M223.8,329.1l5.4-8.7h-10.4L223.8,329.1z M6.5,307.8h9.1l-4.5-7.6L6.5,307.8z M40.8,320.4l-5.6-9.5l-5.8,9.5H40.8z M35.2,311.1
				l1.9-3.2h-3.8L35.2,311.1z M18.6,313l3-5.2h-6.2L18.6,313z M207.3,331.1l6.5-10.7h-12.9L207.3,331.1z M-1.4,295.4H8l-4.7-7.7
				L-1.4,295.4z M-9.2,282.7h9.5l-4.8-8L-9.2,282.7z M116.8,328.5l4.8-8.1H112L116.8,328.5z M129.3,333.1h7.8l-4-6.6L129.3,333.1z
				 M106.3,320.4h5.8l-2.9-4.7L106.3,320.4z M51.7,309l0.7-1.1H51L51.7,309z M92.5,317.7l5.9-9.9H86.6L92.5,317.7z M76,319.7
				l7.1-11.8H68.9L76,319.7z M-5.5,302.3l4.3-7h-8.5L-5.5,302.3z M39,169.6l2.3,4l2.3-4H39z M50.3,158.8l-6.6,10.9h13.1L50.3,158.8z
				 M36.3,182.3h10.4l-5.2-8.5L36.3,182.3z M-7.1,270.1l2.7,4.7l2.7-4.7L-7.1,270.1L-7.1,270.1z M69.7,132l6,10.2l6.2-10.2H69.7z
				 M59.5,144.5l7.4,12.2l7.4-12.2H59.5z M36.4,194.8l3.8,6.2l3.8-6.2H36.4z M26.3,207.3l5.1,8.5l5.1-8.5H26.3z M3.2,257.6l1.5,2.5
				l1.5-2.5H3.2z M-9.3,257.6H3l-6.2-10.3L-9.3,257.6z M15.9,219.9l6.3,10.7l6.5-10.7H15.9z M13.3,245.1l0.3,0.3l0.3-0.3H13.3z
				 M240.4,327.1l4-6.7h-8.1L240.4,327.1z M218.8-69.1c-1.4,0-1.9,0-3.3,0l1.6,2.7L218.8-69.1z M241.4-55.7L234.2-44
				c6.7,0,7.1,0,14,0L241.4-55.7z M226.5-56.5H223l1.6,2.9L226.5-56.5z M437.1,270.1l-4.4-7.3l-4.4,7.3H437.1z M436.2,282.7h-9.1
				l4.5,7.6L436.2,282.7z M443.8,295.4h-9.3l4.7,7.7L443.8,295.4z M169.8-56.5l5.4,8.9l5.4-8.9H169.8z M180.1-69.1l4,6.7l4-6.7
				C185.3-69.1,182.5-69.1,180.1-69.1z M434.5,295.4l-3-4.9l-3,4.9H434.5z M190.1-81.6l2.7,4.5l2.7-4.5H190.1z M209.5-79l-6,10
				c4.7,0,7.1,0,12.1,0L209.5-79z M193-77.1l-4.8,8.1c3.3,0,6.2,0,9.6,0L193-77.1z M372.9,311.1l1.9-3.2h-4L372.9,311.1z
				 M289.6,320.4l-7.1-12.1l-7.3,12.1H289.6z M273.5,323l1.6-2.6h-3.3L273.5,323z M293.9,238.6l3.7-6.2h-7.4L293.9,238.6z
				 M306.7,319l6.7-11.3h-13.5L306.7,319z M257,325.1l2.9-4.7h-5.8L257,325.1z M159.6-43.8l6.7,11.1l6.7-11.1
				C167.8-43.8,164.1-43.8,159.6-43.8z M406,307.1l7.1-11.8h-14.3L406,307.1z M422.7,305l5.9-9.8h-11.8L422.7,305z M339.8,315.2
				l4.4-7.1h-8.7L339.8,315.2z M389.6,309.1l0.7-1.1h-1.5L389.6,309.1z M74.2,119.5H80l-2.9-4.8L74.2,119.5z M356.3,313.1l3.2-5.2
				h-6.2L356.3,313.1z M323.2,317.1l5.6-9.2h-11.1L323.2,317.1z M153.7,94.3l6.2,10.3l6.2-10.3C166,94.3,153.7,94.3,153.7,94.3z
				 M164,81.6l4.8,8.1l4.8-8.1H164z M143.5,106.8l7.6,12.5l7.6-12.5H143.5z M174.2,69.1l3.6,5.9l3.6-5.9H174.2z M140.8,132l1.2,2.1
				l1.2-2.1H140.8z M184.5,56.6l2.2,3.7l2.2-3.7H184.5z M120.4,157.1l4,6.5l4-6.5H120.4z M97.3,207.3l0.3,0.4l0.3-0.4H97.3z
				 M87.1,219.9l1.6,2.6l1.6-2.6H87.1z M99.9,182.3l6.5,10.9l6.6-10.9H99.9z M194.6,44l1,1.6l1-1.6C195.7,44,195.5,44,194.6,44z
				 M130.6,144.5l2.5,4.3l2.5-4.3H130.6z M110.2,169.6l5.2,8.7l5.2-8.7H110.2z M281.2,81.6h-10.6l5.4,8.8L281.2,81.6z M76.8,232.4
				l2.9,4.8l2.9-4.8H76.8z M197.3,19l7.1,12l7.1-12H197.3z M288.9,94.3h-10.9l5.4,8.9L288.9,94.3z M273.4,69.1H263l5.2,8.7
				L273.4,69.1z M312,106.8h-8.5l4.4,7.1L312,106.8z M300.1,101.2l-3.4,5.6h6.7L300.1,101.2z M260.6,65l-2.5,4.1h4.9L260.6,65z
				 M219.5,31.3h-14.6l7.1,12.2L219.5,31.3z M250.3,56.6h-12.6l6.2,10.4L250.3,56.6z M319.9,119.5h-8.8l4.4,7.3L319.9,119.5z
				 M242.6,44c-6.2,0-6.2,0-12.4,0l6.2,10.3L242.6,44z M228.7,41.5l-1.5,2.5c1.5,0,1.5,0,3,0L228.7,41.5z M204.4,30.9l-0.3,0.7h0.7
				L204.4,30.9z M342.3,260.2l1.5-2.5h-3L342.3,260.2z M358.9,258.1l0.3-0.5h-0.7L358.9,258.1z M361.2,232.4l-1.1-1.8l-1.1,1.8
				H361.2z M66.5,245.1l4.3,7l4.3-7H66.5z M292.6,266.1l5.2-8.5h-10.3L292.6,266.1z M309.1,264.1l4-6.6h-7.8L309.1,264.1z
				 M351.5,157.1l-4.1-6.9l-4.1,6.9H351.5z M358.6,182.3h-9.9l4.8,8.1L358.6,182.3z M350.9,169.6h-9.6l4.8,8.1L350.9,169.6z
				 M276,268.2l6.3-10.6h-12.6L276,268.2z M356.3,194.8l-2.6-4.4l-2.6,4.4H356.3z M366.6,219.9h-12.9l6.5,10.7L366.6,219.9z
				 M358.8,207.3h-12.6l6.3,10.6L358.8,207.3z M325.8,262.1l2.7-4.5H323L325.8,262.1z M78.5,264.7l4.4-7.1h-8.5L78.5,264.7z
				 M95.1,262.7l3-5.2H92L95.1,262.7z M111.6,260.8l1.9-3.2h-3.8L111.6,260.8z M61.9,266.8l5.5-9.2h-11L61.9,266.8z M128.2,258.7
				l0.7-1.1h-1.4L128.2,258.7z M67.4,257.6h6.7l-3.4-5.6L67.4,257.6z M176.6,280.1l6-10h-12.1L176.6,280.1z M209.8,276.2l3.6-6H206
				L209.8,276.2z M226.3,274.1l2.5-4h-4.8L226.3,274.1z M160.1,282.2l7.3-12.1h-14.6L160.1,282.2z M193.3,278.2l4.8-8.1h-9.6
				L193.3,278.2z M242.9,272.2l1.1-2.1h-2.5L242.9,272.2z M334.6,247.4l1.4-2.3h-2.9L334.6,247.4z M181.7,81.6l3.7,6.2l3.7-6.2
				H181.7z M265.8,81.6h-13.1l6.5,10.9L265.8,81.6z M192,69.1l2.3,4l2.3-4H192z M107.5,194.8l6.6,11l6.7-11H107.5z M251.7,79.9
				l-1.1,1.9h2.3L251.7,79.9z M234.9,56.6h-15l7.6,12.5L234.9,56.6z M219.8,56.4l-0.1,0.3h0.3L219.8,56.4z M138.1,157.1l2.6,4.4
				l2.6-4.4H138.1z M128,169.6l4,6.7l4-6.7H128z M117.7,182.3l5.4,8.8l5.4-8.8H117.7z M161.2,106.8l6.2,10.4l6.3-10.4H161.2z
				 M171.5,94.3l4.9,8.2l4.9-8.2C181.4,94.3,171.5,94.3,171.5,94.3z M148.5,144.5l1.4,2.2l1.4-2.2H148.5z M202.2,56.6l1.1,1.6
				l1.1-1.6H202.2z M320.8,194.8l-0.3-0.3l-0.3,0.3H320.8z M328,182.3h-14.7l7.3,12.2L328,182.3z M320.3,169.6h-14.6l7.1,12.1
				L320.3,169.6z M315.9,157.1l-1.6-2.9l-1.6,2.9H315.9z M327,234.6l1.2-2.2h-2.6L327,234.6z M310.4,236.7l2.5-4.1h-5.1L310.4,236.7
				z M273.7,94.3h-13.2l6.6,11L273.7,94.3z M291.3,116l-2.1,3.4h4.1L291.3,116z M281.4,106.8h-13.5l6.7,11.1L281.4,106.8z
				 M312.3,132h-11.4l5.8,9.5L312.3,132z M320,144.5h-11.7l5.8,9.6L320,144.5z M304.5,119.5h-11.3l5.6,9.3L304.5,119.5z
				 M235.3,259.4l1.1-1.8h-2.2L235.3,259.4z M350.8,144.5h-6.9l3.4,5.6L350.8,144.5z M351.1,245.1l-7.4-12.4l-7.6,12.4H351.1z
				 M343.5,207.3h-15.1l7.6,12.6L343.5,207.3z M104.7,219.9l0.3,0.7l0.4-0.7H104.7z M284.9,253.3l5.1-8.4h-10.2L284.9,253.3z
				 M301.4,251.4l3.8-6.3h-7.6L301.4,251.4z M335.4,144.5h-9.2l4.7,7.6L335.4,144.5z M333.7,157.1l-3-4.8l-3,4.8H333.7z
				 M268.3,255.4l6.2-10.4H262L268.3,255.4z M335.5,169.6h-12.1l6,10L335.5,169.6z M338.6,194.8l-1.4-2.3l-1.4,2.3H338.6z
				 M343.4,182.3h-12.2l6.2,10.2L343.4,182.3z M318.1,249.3l2.6-4.4h-5.4L318.1,249.3z M103.9,248l1.8-3h-3.6L103.9,248z M120.4,246
				l0.5-1h-1.1L120.4,246z M252,257.6l-0.1-0.3l-0.1,0.3H252z M90.4,245.1h11.8l-5.8-9.8L90.4,245.1z M94.6,232.4l1.6,2.7l1.6-2.7
				H94.6z M152.3,269.6l7.1-11.8h-14.3L152.3,269.6z M87.4,250l3-4.9h-6L87.4,250z M327.7,132h-8.9l4.5,7.6L327.7,132z M218.7,261.4
				l2.3-3.8h-4.7L218.7,261.4z M202.2,263.5l3.4-5.8h-7.1L202.2,263.5z M168.9,267.5l5.9-9.9H163L168.9,267.5z M185.6,265.4l4.8-7.8
				h-9.5L185.6,265.4z M135.9,94.3l7.4,12.2l7.4-12.2H135.9z M257.7,19h-7.1l3.6,5.9L257.7,19z M296.4,56.6H291l2.6,4.4L296.4,56.6z
				 M169.3,31.3l2.1,3.4l2.1-3.4H169.3z M246.5,12l-4.1,6.7h8.1L246.5,12z M278.4,35.5l-5.1,8.5c5.1,0,5.2,0,10.2,0L278.4,35.5z
				 M288.7,44c-2.5,0-2.6,0-5.2,0l2.5,4.3L288.7,44z M265.4,31.3h-7.3l3.7,6.2L265.4,31.3z M192.4-18.8l5.6,9.5l5.8-9.5H192.4z
				 M182.3-6.3l7,11.7l7-11.7H182.3z M179.5,19l0.7,1.2l0.7-1.2H179.5z M198.1-9.3l-1.9,3.2h3.8L198.1-9.3z M214.6-11.4l-3,5.2h6.2
				L214.6-11.4z M226.9-6.3h-9.1l4.5,7.6L226.9-6.3z M234.6,6.3c-4.5,0-4.8,0-9.3,0L230,14L234.6,6.3z M382.1,245.1h-13.3l6.7,11.1
				L382.1,245.1z M304.2,69.1h-5.6l2.7,4.7L304.2,69.1z M374.2,207.3h-10.3l5.1,8.5L374.2,207.3z M382,219.9h-10.4l5.2,8.7
				L382,219.9z M390,257.6h-13.6l6.7,11.3L390,257.6z M376.4,257.6l-0.8-1.5l-1,1.5H376.4z M379,232.4l-2.3-3.8l-2.3,3.8H379z
				 M369.2,157.1l-5.4-8.9l-5.4,8.9H369.2z M374.2,194.8l-3.8-6.3l-3.8,6.3H374.2z M343,132h-6.6l3.3,5.5L343,132z M366.3,169.6H359
				l3.6,6L366.3,169.6z M374,182.3h-7.4l3.7,6.2L374,182.3z M110.4,288.2l3.3-5.5h-6.7L110.4,288.2z M21.6,282.7H36l-7.1-12
				L21.6,282.7z M77.3,292.2l5.8-9.5H71.6L77.3,292.2z M60.6,294.3l7-11.5H53.7L60.6,294.3z M36.4,283.6l0.5-0.8h-1L36.4,283.6z
				 M31.1,245.1l6.6,11l6.7-11H31.1z M41.2,232.4l5.4,8.8l5.4-8.8H41.2z M28.5,270.1l0.4,0.7l0.4-0.7H28.5z M159,44l3.4,5.6l3.4-5.6
				C162.9,44,161.8,44,159,44z M144.5,307.8h13.2l-6.6-10.9L144.5,307.8z M158.8,309.7l1.1-1.8h-2.2L158.8,309.7z M134.6,299
				l2.2-3.7h-4.4L134.6,299z M366.5,270.9l0.4-0.7H366L366.5,270.9z M121.4,295.4h10.9l-5.4-9.1L121.4,295.4z M93.7,290.3l4.5-7.6
				h-9.1L93.7,290.3z M128.4,81.6l7.3,12.2l7.3-12.2H128.4z M104.9,119.5h10.6l-5.4-8.8L104.9,119.5z M115.5,119.5l2.3,4l2.3-4
				H115.5z M125.8,106.8l1.1,1.8l1.1-1.8H125.8z M138.6,69.1l5.9,9.9l6-9.9H138.6z M148.9,56.6l4.7,7.7l4.7-7.7H148.9z M61.7,207.3
				l2.6,4.4l2.6-4.4H61.7z M51.5,219.9l4,6.7l4-6.7H51.5z M72,194.8l1.4,2.2l1.4-2.2H72z M105.3,132l3.7,6.2l3.7-6.2H105.3z
				 M84.9,157.1l6.2,10.4l6.3-10.4H84.9z M95.1,144.5l4.9,8.2l4.9-8.2H95.1z M317.9,71.8l-6,9.9h12L317.9,71.8z M187.1,31.3l0.8,1.4
				l0.8-1.4H187.1z M227.1,19h-12l5.9,9.9L227.1,19z M189.7,6.3l7.1,11.8L204,6.3C197.4,6.3,196,6.3,189.7,6.3z M166.6,56.6l3.4,5.8
				l3.4-5.8H166.6z M205.8,3.3l-1.8,3c1.6,0,1.9,0,3.6,0L205.8,3.3z M219.2,6.3c-5.6,0-6.2,0-11.8,0l5.8,9.8L219.2,6.3z M176.8,44
				l2.1,3.6l2.1-3.6C179.2,44,178.7,44,176.8,44z M133.3,119.5l1.1,1.9l1.1-1.9H133.3z M123,132l2.5,4.1l2.5-4.1H123z M156.4,69.1
				l4.8,8l4.8-8H156.4z M112.9,144.5l3.8,6.2l3.8-6.2H112.9z M146.3,81.6l6,10.2l6.2-10.2H146.3z M175.4,307.8l-0.1-0.3l-0.1,0.3
				H175.4z M309,86.5l-4.7,7.7h9.3L309,86.5z M319.7,94.3h-6l3,4.9L319.7,94.3z M102.5,157.1l5.1,8.5l5.1-8.5H102.5z M327.4,106.8
				h-6.2l3,5.2L327.4,106.8z M296.6,81.6h-8.2l4.1,6.7L296.6,81.6z M340.9,110l-5.8,9.5h11.4L340.9,110z M237.7,26.8l-2.7,4.7h5.6
				L237.7,26.8z M335.1,119.5h-6.3l3.2,5.4L335.1,119.5z M250.2,31.3h-9.8l4.8,8.1L250.2,31.3z M258,44c-4.9,0-4.9,0-9.9,0l4.9,8.2
				L258,44z M288.8,69.1h-8l4,6.7L288.8,69.1z M269.6,50.3l-3.8,6.2h7.6L269.6,50.3z M281.1,56.6h-7.7l4,6.5L281.1,56.6z M168,295.4
				l-0.3-0.3l-0.3,0.3H168z M200.8,290.9l4.9-8.1h-9.9L200.8,290.9z M129.1,282.7h13.6l-6.7-11.3L129.1,282.7z M184.2,292.9
				l6.2-10.2h-12.2L184.2,292.9z M143.5,284.3l0.8-1.5h-1.8L143.5,284.3z M350,272.9l1.6-2.6h-3.3L350,272.9z M234,287l2.5-4.3h-5.1
				L234,287z M217.3,288.9l3.7-6.2h-7.4L217.3,288.9z M333.3,274.9l2.9-4.7h-5.8L333.3,274.9z M316.8,276.8l4-6.7h-8.1L316.8,276.8z
				 M283.7,281l6.5-10.7h-12.9L283.7,281z M250.6,284.9l1.2-2.2h-2.6L250.6,284.9z M300.2,278.9l5.4-8.7h-10.4L300.2,278.9z
				 M38.6,257.6l6.7,11.3l6.7-11.3H38.6z M92.4,169.6l6.3,10.7l6.5-10.7H92.4z M59.1,232.4l4.1,6.7l4.1-6.7H59.1z M48.9,245.1
				l5.4,8.9l5.4-8.9H48.9z M69.3,219.9l2.7,4.7l2.7-4.7H69.3z M79.5,207.3l1.5,2.5l1.5-2.5H79.5z M89.8,194.8l0.3,0.3l0.3-0.3H89.8z
				 M44.5,270.1h1.6l-0.8-1.4L44.5,270.1z M102.7,275.5l3.2-5.4h-6.5L102.7,275.5z M119.3,273.5l2.1-3.3h-4L119.3,273.5z
				 M86.2,277.5l4.4-7.3h-8.8L86.2,277.5z M53.1,281.5l6.9-11.3H46.3L53.1,281.5z M69.6,279.6l5.6-9.3H63.9L69.6,279.6z M187.5-56.5
				l4.1,6.9l4.1-6.9H187.5z M44.7,295.4l-0.7,1l7,11.5h1.4l7.6-12.6L44.7,295.4L44.7,295.4z M37.1,307.8h14l-7-11.5L37.1,307.8z
				 M61.3,295.4h-1.2L52.5,308h15.4l0.5-0.8L61.3,295.4z M79,295.4h-3.7l-7.1,11.7l0.5,0.8H83l1.6-2.9L79,295.4z M335.9,219.9
				L335.9,219.9L335.9,219.9L335.9,219.9z M43.4,295.4H29.3l-1.8,3l5.8,9.6h3.8l7-11.5L43.4,295.4z M8,295.4l3,4.9l3-4.9H8z
				 M0.4,282.7l2.9,4.8l2.9-4.8H0.4z M21.7,307.8h11.5l-5.8-9.6L21.7,307.8z M12.2,272.7l-1.6-2.6H-1.6l-2.7,4.7l4.8,8h5.8
				L12.2,272.7z M19.8,285.5l-1.6-2.7h-12l-2.9,4.8l4.7,7.7h6L19.8,285.5z M83.2,307.8h3.4l-1.6-2.9L83.2,307.8z M4.5,260.1l-6.2,10
				h12.2L4.5,260.1z M25.7,295.4H13.9l-3,4.9l4.5,7.6h6.2l5.8-9.6L25.7,295.4z M166.5,322.5l-1.1-2.1h-12.9l-2.5,4l5.2,8.5h5.1
				L166.5,322.5z M144.7,333.1h10.3l-5.2-8.5L144.7,333.1z M147.5,320.4H137l-3.6,6l4,6.6h7.6l5.2-8.5L147.5,320.4z M129.8,320.4
				l3.6,6l3.6-6H129.8L129.8,320.4z M183.1,320.4h-15.4l-1.1,2.1l6.3,10.6h2.6L183.1,320.4L183.1,320.4z M96.9,295.4h-6.2l-5.8,9.8
				l1.6,2.9h11.8l3-4.8L96.9,295.4z M175.4,333.1h15.1l-7.6-12.6L175.4,333.1z M118.1,300.9l-3.4-5.8h-8.5l-4.7,7.7l3,4.8h9.5
				L118.1,300.9z M104.3,307.8l4.8,7.8l4.8-7.8H104.3z M98.4,307.8h5.9l-3-4.8L98.4,307.8z M121.6,320.4h8.1l-4-6.7L121.6,320.4z
				 M142.1,311.8l-2.3-3.8h-10.7l-3.4,5.8l4,6.7h7.3L142.1,311.8z M122.2,307.8H114l-4.8,7.8l2.9,4.7h9.6l4-6.7L122.2,307.8z
				 M84.8,127.4l-2.7,4.7h5.6L84.8,127.4z M82.2,157.1l1.4-2.2l-6.2-10.3h-3l-7.4,12.2l0.1,0.3L82.2,157.1L82.2,157.1z M66.9,156.8
				l-0.1,0.3h0.3L66.9,156.8z M75.7,142.1l-1.5,2.5h3L75.7,142.1z M89.8,144.5l2.6-4.4l-4.8-8.1h-5.6l-6.2,10.2l1.5,2.5L89.8,144.5
				L89.8,144.5z M64.5,182.3h2.5l7.6-12.6H59.1l-1.1,1.9L64.5,182.3z M13.9,270.1l7.3-12.1l-0.3-0.4H6l-1.5,2.5l6,10H13.9z
				 M85.9,99.8l-4.3,7H90L85.9,99.8z M183.1,320.4l7.6,12.6h0.3l7.6-12.6H183.1L183.1,320.4z M93.7,112.6l-3.4-5.8h-8.4l-4.7,7.7
				l2.9,4.8h9.5L93.7,112.6z M97.2,106.8l5.4-8.9l-2.1-3.6h-11L86,99.9l4.3,7h6.9V106.8z M59.1,169.6h-2.3l1.1,1.9L59.1,169.6z
				 M97.3,132l4-6.7l-3.6-5.9h-8.1l-4.8,8l2.7,4.7H97.3z M80,119.5l4.8,8l4.8-8H80z M74.6,169.6l-7.6-12.5h-0.3l-7.6,12.6
				L74.6,169.6L74.6,169.6z M22.4,230.5l-1.1,1.9h2.3L22.4,230.5z M36.6,232.4l2.3-4l-5.2-8.7h-4.8l-6.5,10.7l1.1,1.9H36.6
				L36.6,232.4z M180.6-31.3l2.1-3.4l-5.5-9.1c-1.6,0-2.7,0-4.4,0L166-32.7l0.8,1.5C172.2-31.3,175-31.3,180.6-31.3z M31.3,215.8
				l-2.5,4.1h4.9L31.3,215.8z M21.3,257.6l7.6-12.6H13.6l-0.3,0.3l7.4,12.2h0.5V257.6z M13.5,245.4L6,257.6h14.8L13.5,245.4z
				 M51.7,207.3l4.9-8.2l-2.5-4.3H44l-3.8,6.2l3.8,6.2h7.7V207.3z M49.1,186.4l-5.1,8.5h10.2L49.1,186.4z M59.4,194.8l6.3-10.4
				l-1.2-2.1H51.7l-2.5,4.1l5.1,8.5h5.1V194.8z M46.6,182.3l2.5,4.1l2.5-4.1H46.6z M44.1,219.9l3.7-6.2l-4-6.5h-7.6l-5.1,8.5
				l2.5,4.1H44.1z M40.1,201.1l-3.8,6.2h7.6L40.1,201.1z M58,171.7l-1.1-1.9H43.8l-2.3,4l5.2,8.5h4.9L58,171.7z M310.1,295.4h-4.4
				l-6.7,11.1l0.8,1.5h13.6l2.1-3.4L310.1,295.4z M429.7,257.6l-4.5-7.6l-4.5,7.6H429.7z M408.5,252.1l3.3,5.5h8.7l4.5-7.6l-3-5.1
				h-9.3L408.5,252.1z M422.1,245.1l-4.7-7.7l-4.7,7.7H422.1z M247.8-15.4l5.5,9.2h4.4l6.7-11.1l-0.8-1.4H250L247.8-15.4z
				 M263.5-18.8l-6.7-11.3l-6.9,11.3H263.5z M415,292.4l1.8,3h11.8l3-4.9l-4.5-7.6h-6.2L415,292.4z M240.1-28.2l5.6,9.3h4.1
				l6.9-11.3l-0.7-1.2c-6.9,0-7.1,0-13.9,0L240.1-28.2z M409.2,282.7h-3.8l-7,11.5l0.7,1h14.2l1.8-3L409.2,282.7z M426.9,282.7
				l-3-5.2l-3,5.2H426.9z M416.2,264.9l3.2,5.4h8.9l4.4-7.3l-3.2-5.2h-9.1L416.2,264.9z M413.1,270.1l-5.8,9.5l1.9,3.2h11.5l3-5.2
				l-4.4-7.4L413.1,270.1L413.1,270.1z M423.9,277.5l4.4-7.4h-8.8L423.9,277.5z M413.1,295.4h3.6l-1.8-3L413.1,295.4z M255.9-31.3
				l-6.9-11.5l-7,11.5C248.9-31.3,249.1-31.3,255.9-31.3z M203.4-69.1c-2.2,0-3.6,0-5.8,0l2.9,4.7L203.4-69.1z M184.1-62.3l-3.4,5.8
				h7.1L184.1-62.3z M175.1-47.6l-2.2,3.7c1.6,0,2.6,0,4.4,0L175.1-47.6z M205.4-56.5h5.9l5.9-9.9l-1.6-2.7c-4.9,0-7.4,0-12.1,0
				l-2.9,4.7L205.4-56.5z M188.3-43.8l3.4-5.8l-4.1-6.9h-7.1l-5.4,8.9l2.2,3.7C181.6-43.8,183.6-43.8,188.3-43.8z M195.7-56.5
				l4.8-7.8l-2.9-4.7c-3.6,0-6.3,0-9.6,0l-4,6.7l3.4,5.8H195.7L195.7-56.5z M234.4-43.8c-1.8,0-1.9,0-3.7,0l1.8,3L234.4-43.8z
				 M215.9-38.9l4.5,7.6c3,0,3.3,0,6.3,0l5.8-9.6l-1.8-3c-5.6,0-6.2,0-11.7,0L215.9-38.9z M223.1-56.5l-5.9-9.9l-5.9,9.9H223.1z
				 M238.2-31.3c1.9,0,2.1,0,4,0l7-11.5l-0.7-1.1c-7,0-7.3,0-14,0l-1.9,3L238.2-31.3z M208.2-51.7l4.7,7.7c2.7,0,3.3,0,6.2,0
				l5.8-9.6l-1.6-2.9h-11.8L208.2-51.7z M230.7-43.8l-5.8-9.6l-5.8,9.6C224.3-43.8,225-43.8,230.7-43.8z M344.2,307.8h8.9l-4.5-7.6
				L344.2,307.8z M267.4,307.8l-1.5,2.5l6,10h3.3l7.3-12.1l-0.3-0.5h-14.8V307.8z M259.8,320.4h12.1l-6-10L259.8,320.4z
				 M244.4,320.4h9.6l-4.8-8.1L244.4,320.4z M264.3,307.8h-12.2l-2.7,4.5l4.8,8.1h5.8l6-10L264.3,307.8z M282.5,308.3l0.3-0.5h-0.7
				L282.5,308.3z M275.1,295.4l-0.3,0.3l7.3,12.2h0.7l7.6-12.6L275.1,295.4L275.1,295.4z M198.5,320.4h2.5l-1.1-2.1L198.5,320.4z
				 M211,307.8h-5.1l-6.3,10.6l1.1,2.1h12.9l2.5-4L211,307.8z M246.6,307.8h-9.9l-4,6.6l3.6,6h8.1l4.8-8.1L246.6,307.8z
				 M213.7,320.4h4.8l-2.5-4L213.7,320.4z M292.4,295.4h-2.1l-7.6,12.6h15.4l1-1.5L292.4,295.4z M229,320.4h7.3l-3.6-6L229,320.4z
				 M228.9,307.8h-7.6l-5.2,8.7l2.5,4H229l3.6-6L228.9,307.8z M104.7,94.3h-4.4l2.1,3.6L104.7,94.3z M363.4,295.4h-11.7l-3,5.1
				l4.5,7.6h6.2l5.8-9.5L363.4,295.4z M381.2,295.4h-14l-1.8,3l5.8,9.5h4l7-11.5L381.2,295.4z M359.6,307.8H371l-5.8-9.5
				L359.6,307.8z M374.8,307.8h13.9l-6.9-11.5L374.8,307.8z M391.3,282.7H390l-7.6,12.6h15.4l0.7-1L391.3,282.7z M381.9,296.2
				l6.9,11.5h1.5l7.6-12.6h-15.4L381.9,296.2z M313.4,307.8h4.3l-2.1-3.4L313.4,307.8z M298.1,307.8h1.8l-0.8-1.5L298.1,307.8z
				 M397.8,295.4h1.1l-0.7-1L397.8,295.4z M327.8,295.4H321l-5.5,9.1l2.1,3.4h11.1l3.3-5.5L327.8,295.4z M345.7,295.4h-9.2l-4.3,7.1
				l3.3,5.5h8.7l4.5-7.6L345.7,295.4z M328.8,307.8h6.7l-3.3-5.5L328.8,307.8z M193.3,307.8h-2.6l-7.6,12.6h15.4l1.1-2.1
				L193.3,307.8z M30,243.3l-6.5-10.9h-2.3l-7.6,12.6H29L30,243.3z M256.8,295.4h-12.5l-2.6,4.4l4.9,8.1h5.5l6.2-10.2L256.8,295.4z
				 M236.7,307.8h9.9l-4.9-8.1L236.7,307.8z M252,307.8h12.2l-6.2-10.2L252,307.8z M239,295.4h-10l-3.8,6.3l3.7,6.2h7.8l4.9-8.1
				L239,295.4z M274.8,295.7l0.3-0.3h-0.4L274.8,295.7z M259.7,295.4l-1.4,2.3l6.2,10.2h3l7.4-12.2l-0.3-0.3H259.7L259.7,295.4z
				 M205.9,307.8h5.1l-2.5-4.3L205.9,307.8z M190.7,307.8h2.6l-1.2-2.2L190.7,307.8z M203.6,295.4h-5.4l-6.2,10.4l1.2,2.2h12.6
				l2.5-4.3L203.6,295.4z M183.1,320.4L183.1,320.4l7.6-12.6h-15.1L183.1,320.4z M185.7,295.4h-2.9l-7.6,12.4l0.1,0.3h15.1l1.2-2.2
				L185.7,295.4z M221.2,295.4h-7.6l-5.1,8.4l2.5,4.3h10.3l3.7-6.2L221.2,295.4z M267.2,282.7l-0.1,0.3l7.4,12.4h0.4l7.6-12.6H267.2
				L267.2,282.7z M221.3,307.8h7.6l-3.7-6.2L221.3,307.8z M284.8,282.7h-2.2l-7.6,12.6h15.3l1-1.6L284.8,282.7z M373.6,282.7h-14.3
				l-1.6,2.9l5.8,9.8h3.7l7.1-11.7L373.6,282.7z M355.9,282.7h-11.8l-3,4.8l4.7,7.7h6l5.8-9.8L355.9,282.7z M336.5,295.4h9.2
				l-4.7-7.7L336.5,295.4z M374.2,283.6l7,11.7h1.2l7.6-12.6h-15.4L374.2,283.6z M367.1,295.4h14l-7-11.7L367.1,295.4z M351.8,295.4
				h11.7l-5.8-9.8L351.8,295.4z M302.5,282.7h-4.7l-6.6,10.9l1,1.6h13.3l2.2-3.7L302.5,282.7z M383.9,270.1h-1.6l-7.6,12.6h15.4
				l0.7-1.1L383.9,270.1z M290.3,295.4h2.1l-1-1.6L290.3,295.4z M320.3,282.7h-7.1l-5.4,8.9l2.2,3.7h10.9l3.4-5.8L320.3,282.7z
				 M338.1,282.7h-9.5l-4.1,6.9l3.4,5.8h8.5l4.7-7.7L338.1,282.7z M321.1,295.4h6.9l-3.4-5.8L321.1,295.4z M305.7,295.4h4.4
				l-2.2-3.7L305.7,295.4z M36,282.7H21.6l-1.6,2.7l5.8,9.8h3.6l7.1-11.8L36,282.7z M75.3,295.4H79l-1.8-3L75.3,295.4z M53.7,282.7
				h-1.5l-7.6,12.6h15.4l0.7-1.1L53.7,282.7z M37,282.7l-0.5,0.8l7.1,11.8h1.1l7.6-12.6H37z M60.1,295.4h1.2l-0.7-1.1L60.1,295.4z
				 M71.6,282.7h-4l-7,11.5l0.7,1.1h14l1.8-3L71.6,282.7z M29.3,295.4h14.2l-7.1-11.8L29.3,295.4z M175.3,307.8l-7.6,12.6h15.4
				l-7.6-12.6H175.3z M30,243.3l-1.1,1.6h2.1L30,243.3z M29.1,270.1l7.6-12.6H21.4l-0.3,0.4l7.3,12.1L29.1,270.1L29.1,270.1z
				 M21.2,258l-7.3,12.1h14.6L21.2,258z M28.7,270.8l-0.4-0.7H13.7l-1.6,2.6l5.9,9.9h3.4L28.7,270.8z M18.1,282.7l1.6,2.7l1.6-2.7
				H18.1z M37.7,256.1l-6.6-11H29l-7.6,12.6h15.4L37.7,256.1z M129.2,307.8h10.7l-5.4-8.9L129.2,307.8z M157.7,307.8h-13.2l-2.3,3.8
				l5.4,8.7h4.8l6.5-10.7L157.7,307.8z M151.2,296.9l-1-1.6h-13.3l-2.2,3.7l5.4,8.9h4.7L151.2,296.9z M139.9,307.8l2.3,3.8l2.3-3.8
				H139.9z M152.3,320.4h12.9l-6.5-10.7L152.3,320.4z M159.9,307.8l-1.1,1.8l6.5,10.7h2.5l7.6-12.6L159.9,307.8L159.9,307.8z
				 M89.2,282.7h-6.3l-5.8,9.5l1.8,3h11.7l3-5.1L89.2,282.7z M107.1,282.7h-8.7l-4.7,7.6l3,5.1h9.2l4.3-7.1L107.1,282.7z
				 M90.7,295.4h6.2l-3.2-5.1L90.7,295.4z M106.1,295.4h8.5l-4.3-7.1L106.1,295.4z M126.9,286.2l-2.1-3.4h-11.1l-3.3,5.5l4.3,7.1
				h6.9L126.9,286.2z M114.6,295.4l3.4,5.8l3.4-5.8H114.6z M132.4,295.4h-10.9l-3.4,5.8l4.1,6.9h7.1l5.4-8.9L132.4,295.4z M120,94.3
				l7.6-12.6h-15.4l-0.8,1.4l6.7,11.1L120,94.3L120,94.3z M154.2,6.3l1.8,3l1.8-3C156.4,6.3,155.6,6.3,154.2,6.3z M180.9-6.3
				l0.7-1.1l-6.9-11.4h-1.6l-7.6,12.6L180.9-6.3L180.9-6.3z M188.3-18.8l2.1-3.3l-5.5-9.2c-1.8,0-2.5,0-4.3,0l-6.7,11.3l0.7,1.2
				H188.3z M173.9-20.1l-0.7,1.2h1.6L173.9-20.1z M157.3-18.1l-7.1,11.8h14.4L157.3-18.1z M164.9-5.4l-0.5-0.8h-14.3l-1.6,2.9
				l5.8,9.6c1.4,0,2.2,0,3.7,0L164.9-5.4z M165.5-6.3l7.6-12.6h-15.4l-0.4,0.7l7.1,11.8h1.1V-6.3z M212.8-43.8l-4.7-7.7l-4.7,7.7
				C207.7-43.8,208.7-43.8,212.8-43.8z M199.3-37l3.3,5.5c4,0,4.7,0,8.7,0l4.5-7.6l-3-5.1c-4.3,0-5.2,0-9.2,0L199.3-37z M44.3,245.1
				l2.2-3.7l-5.4-8.8h-4.8l-6.6,10.9l1.1,1.6H44.3L44.3,245.1z M191.6-49.6l-3.4,5.8c2.9,0,4,0,6.9,0L191.6-49.6z M390,282.7h1.4
				l-0.7-1.1L390,282.7z M182.8-34.9l-2.1,3.4c1.6,0,2.5,0,4.3,0L182.8-34.9z M138.1,38.8l-3,5.2c2.2,0,4,0,6.2,0L138.1,38.8z
				 M128,81.1l-7.1-12H120l-7.6,12.6h15.4L128,81.1z M120.4,68.3L120,69h1L120.4,68.3z M135.3,69.1l1.6-2.7l-5.8-9.8h-3.6l-7.1,11.8
				l0.4,0.7H135.3z M129.2,53.6l-1.8,3h3.6L129.2,53.6z M111.5,83l-6.7,11.1h13.5L111.5,83z M108,106.8h4.5l6.7-11l-1-1.6h-13.6
				l-2.1,3.6L108,106.8z M165.6,19l7-11.5L172,6.3c-5.8,0-8.7,0-14,0l-1.8,3l5.8,9.5h3.7V19z M158.1,31.3l5.6-9.3l-1.9-3.3h-11.4
				l-3.2,5.2l4.4,7.3L158.1,31.3L158.1,31.3z M147.2,24.1l-4.4,7.3h8.8L147.2,24.1z M156,9.3l-5.8,9.5h11.4L156,9.3z M142.8,56.6
				l3-4.9l-4.5-7.6c-2.2,0-4,0-6.2,0l-5.8,9.6l1.8,3L142.8,56.6L142.8,56.6z M220.3-31.3l-4.5-7.6l-4.5,7.6
				C215.5-31.3,216.1-31.3,220.3-31.3z M150.5,44l4.4-7.1l-3.3-5.4h-8.8l-4.4,7.4l3,5.2C144.6,44,146.9,44,150.5,44z M196-31.3
				l3.3-5.5l-4.3-7.1c-2.9,0-4,0-6.9,0l-5.5,9.1l2.1,3.4C189.6-31.3,191.1-31.3,196-31.3z M407,219.9l-4.8-8.1l-4.8,8.1H407z
				 M393.3,226.7l3.4,5.8h8.2l4.8-7.8l-2.9-4.7h-9.6L393.3,226.7z M401,239.3l4.1-6.9h-8.2L401,239.3z M381.7,194.8l-3.8,6.3
				l3.7,6.2h7.8l4.9-8.2l-2.6-4.4h-10V194.8z M399.5,207.3l-4.9-8.2l-4.9,8.2H399.5z M385.6,213.9l3.6,6h8.1l4.8-8.1l-2.7-4.5h-9.9
				L385.6,213.9z M389.7,232.4l-5.4,8.9l2.2,3.7h10.9l3.4-5.8l-4.1-6.9H389.7z M407.3,279.6l5.8-9.5h-11.4L407.3,279.6z
				 M399.7,266.8l2.1,3.3h11.3l3.2-5.4l-4.4-7.1h-6.7L399.7,266.8z M397.7,270.1l-6.9,11.4l0.7,1.1h14l1.9-3.2l-5.6-9.5h-4.1V270.1z
				 M404.3,245.1l-3.4-5.8l-3.4,5.8H404.3z M392,254.2l2.1,3.4h11.1l3.3-5.5l-4.3-7.1h-6.9L392,254.2z M411.8,257.6l-3.3-5.5
				l-3.3,5.5H411.8z M207-24.1l3.2,5.4h8.9l4.4-7.3l-3.2-5.2c-4.3,0-4.8,0-8.9,0L207-24.1z M245.8-18.8l-5.6-9.3l-5.6,9.3H245.8z
				 M231.2-13.3l4.4,7.1h6.7l5.5-9.2l-2.1-3.4h-11.3L231.2-13.3z M270.8,22.8l5.2,8.7h4.9l6.5-10.7l-1.1-1.9h-13.1L270.8,22.8z
				 M238.9-0.7l4.3,7c3.4,0,3.4,0,7,0l5.4-8.9l-2.1-3.6h-11L238.9-0.7z M228-18.8h6.6l5.6-9.3l-1.9-3.2c-5.6,0-5.9,0-11.4,0
				l-3.2,5.2L228-18.8z M226.7-31.3c-3,0-3.3,0-6.3,0l3.2,5.2L226.7-31.3z M253.3-6.3l-5.5-9.2l-5.5,9.2H253.3z M257.6-6.3h-4.4
				l2.1,3.6L257.6-6.3z M286.2,19l-6.5-10.9L273.1,19H286.2z M263.1,10.2l5.4,8.8h4.8l6.6-10.9l-1.1-1.6c-6.6,0-6.7,0-13.2,0
				L263.1,10.2z M260.8,6.3c2.2,0,2.2,0,4.5,0l6.7-11l-1-1.6h-13.5l-2.1,3.6L260.8,6.3z M278.6,6.3l-6.6-11l-6.7,11
				C271.9,6.3,272,6.3,278.6,6.3z M203.6-43.8l4.7-7.7l-3-4.8h-9.5l-4.1,6.9l3.4,5.8C198.8-43.8,199.9-43.8,203.6-43.8z M28.6,194.8
				l4-6.5l-3.7-6.2h-8l-4.8,8.1l2.6,4.4L28.6,194.8L28.6,194.8z M49.3,157.1h2.1l7.6-12.6H43.6l-1,1.6L49.3,157.1z M15.9,190.4
				l-2.6,4.4h5.4L15.9,190.4z M21,207.3l2.5-4.3l-4.9-8.2h-5.4L7,205.1l1.4,2.2H21L21,207.3z M59.2,144.1L52,131.8h-0.7l-7.6,12.6
				h15.4L59.2,144.1z M7,205.1l-1.4,2.2h2.7L7,205.1z M104.6,69.1l7.6-12.6H96.8l-0.7,1.1l6.9,11.5C103,69.1,104.6,69.1,104.6,69.1z
				 M-1.8,219.9h15.3l1.2-2.1l-6.2-10.4H5.8L-1.8,219.9L-1.8,219.9z M96.1,57.7l-7,11.5H103L96.1,57.7z M112.7,55.7l-7-11.7
				c-0.3,0-1,0-1.4,0l-7.6,12.6h15.4L112.7,55.7z M92.8,81.6h4.1l6.9-11.3l-0.7-1.2H89.2l-1.9,3.3L92.8,81.6z M51.7,131.4l-0.3,0.7
				h0.7L51.7,131.4z M66.5,132l1.6-2.6l-5.9-9.9h-3.4l-7.1,12l0.3,0.7h14.6V132z M-29.8,291.5l-2.2,3.7h4.5L-29.8,291.5z
				 M-24.3,307.8l2.1-3.6l-5.4-8.9h-4.5l-6.7,11l1,1.6h13.6V307.8z M105.2,42.9l0.7,1.1c3.8,0,9.6,0,14,0l1.9-3.2l-5.8-9.5h-4
				L104.5,44c0.3,0,1,0,1.4,0L105.2,42.9z M-1.8,219.8L-1.8,219.8L-1.8,219.8L-1.8,219.8z M-31.9,320.4h1.6l-0.8-1.4L-31.9,320.4z
				 M-16.8,295.4l3.4-5.8l-4.1-6.7h-7l-5.4,8.8l2.2,3.7H-16.8z M-37.8,307.8h-1.9l-7.6,12.6h15.4l0.8-1.4L-37.8,307.8z M-38.8,306.4
				l-1,1.6h1.9L-38.8,306.4z M-35.1,282.7l5.4,8.8l5.4-8.8H-35.1z M-1.8,219.9L-1.8,219.9l-7.7,12.6H5.8L-1.8,219.9z M-16.9,270.1
				l4.8-8.1l-2.6-4.4h-9.9l-4,6.5l3.7,6.2L-16.9,270.1L-16.9,270.1z M166.2-32.9l-0.8,1.5c0.7,0,1.1,0,1.8,0L166.2-32.9z
				 M-20.9,276.8l-4-6.7h-7.3l-5.2,8.7l2.3,4h10.6L-20.9,276.8z M-28.6,264.1l-3.7,6.2h7.3L-28.6,264.1z M240.8-56.5l-7.1-11.8
				l-7.1,11.8H240.8z M217.2-66.4l5.9,9.9h3.4l7.1-11.8l-0.4-0.7c-6.5,0-8.4,0-14.6,0L217.2-66.4z M233.3-69.1l-7.1-12.1l-7.3,12.1
				C224.9-69.1,226.8-69.1,233.3-69.1z M-20.1,307.8h-4.4l-6.7,11.3l0.8,1.4h13.6l2.1-3.4L-20.1,307.8z M211-81.6h-3l1.5,2.5
				L211-81.6z M215.5-69.1c1.4,0,1.9,0,3.3,0l7.3-12.1l-0.4-0.4H211l-1.5,2.5L215.5-69.1z M224.7-53.6l5.8,9.6c1.8,0,1.9,0,3.7,0
				l7.1-11.7l-0.5-0.8h-14.3L224.7-53.6z M193-77.1l4.8,8.1c2.1,0,3.4,0,5.8,0l6-10l-1.5-2.5h-12.2L193-77.1z M452.2,295.4l-4.3-7
				l-4.3,7H452.2z M439.2,303.1l2.9,4.8h9.5l4.1-6.7l-3.4-5.8h-8.5L439.2,303.1z M436.3,307.8h5.8l-2.9-4.8L436.3,307.8z M114,28.2
				l-2.1,3.3h4L114,28.2z M444.8,282.7l-4.4-7.1l-4.4,7.1H444.8z M431.5,290.3l3,4.9h9.3l4.3-7l-3.4-5.6H436L431.5,290.3z
				 M428.3,270.1l-4.4,7.4l3,5.2h9.1l4.4-7.1l-3.3-5.4h-8.8V270.1z M165.2-31.3l0.8-1.5L159.3-44c-0.7,0-1.2,0-2.1,0l-7.6,12.6
				C155.1-31.3,159.5-31.3,165.2-31.3z M172.9-43.8l2.2-3.7l-5.4-8.9h-4.7l-6.6,10.9l1,1.6C164.1-43.8,167.8-43.8,172.9-43.8z
				 M158.5-45.6l-1,1.6c0.7,0,1.2,0,2.1,0L158.5-45.6z M208-81.6l-6.2-10.2l-6.2,10.2C195.6-81.6,208-81.6,208-81.6z M127.4,31.3
				l3.2-5.4l-4.4-7.1h-6.7l-5.6,9.2l2.1,3.3H127.4z M122.9,13.3l-3.3,5.5h6.7L122.9,13.3z M134.8,19l4.5-7.6l-3-5.1
				c-3,0-6.5,0-9.2,0l-4.3,7.1l3.3,5.5H134.8L134.8,19z M188-69.1l4.8-8.1l-2.7-4.5h-9.8l-4,6.6l3.6,6
				C182.5-69.1,185.3-69.1,188-69.1z M185.3-89.9l-4.9,8.2h9.9L185.3-89.9z M195.7-81.6l6.2-10.2l-1.4-2.3H188l-2.6,4.4l4.9,8.1
				C190.4-81.6,195.7-81.6,195.7-81.6z M167.4-60.3l-2.3,3.8h4.7L167.4-60.3z M180.5-56.5l3.4-5.8l-4-6.7c-2.2,0-5.2,0-7.3,0
				l-5.4,8.7l2.3,3.8H180.5z M176.4-75.2l-3.6,6c2.1,0,4.9,0,7.3,0L176.4-75.2z M396.3,320.4h-13.6l-2.1,3.4l5.5,9.2h4.4l6.7-11.3
				L396.3,320.4z M-55.4,308.3l-7.3,12.1h14.6L-55.4,308.3z M-32.2,295.4l2.2-3.7l-5.4-8.8h-4.8l-6.6,10.9l1.1,1.6H-32.2
				L-32.2,295.4z M200.4-94.2h2.9l7.6-12.4l-0.1-0.3h-15.1l-1.2,2.2L200.4-94.2z M-47.3,320.4l7.6-12.6H-55l-0.3,0.4l7.3,12.1
				L-47.3,320.4L-47.3,320.4z M218.3-94.2l-7.4-12.4l-7.6,12.4C203.3-94.2,218.3-94.2,218.3-94.2z M-38.8,306.4l-6.6-11h-2.1
				L-55,308h15.4L-38.8,306.4z M-46.5,293.5l-1.1,1.6h2.1L-46.5,293.5z M428.7,320.4h3.2l-1.6-2.6L428.7,320.4z M424.3,307.8h-3.4
				l-7.1,12l0.4,0.7h14.6l1.6-2.6L424.3,307.8z M203.3-94.2l-1.4,2.3l6.2,10.2h3 M442.2,307.8h-5.8l-6,9.9l1.6,2.6h12.2l2.7-4.7
				L442.2,307.8z M451.7,307.8l-4.8,8l2.7,4.7h9.8l4-6.7l-3.6-5.9H451.7z M444,320.4h5.6l-2.7-4.7L444,320.4z M431.9,320.4h-3.2
				l-7.3,12.1l0.3,0.4h14.8l1.5-2.5L431.9,320.4z M436.4,333.1h3l-1.5-2.5L436.4,333.1z M449.6,320.4H444l-6.2,10l1.5,2.5h12.4
				l2.6-4.4L449.6,320.4z M421,333.1h0.5l-0.3-0.4L421,333.1z M413.3,320.4h0.7l-0.4-0.7L413.3,320.4z M471.1,326.5l-3.7-6.2h-8.1
				l-4.8,8.1l2.6,4.4h9.9L471.1,326.5z M451.8,333.1h5.4l-2.6-4.4L451.8,333.1z M-24.2,333.1h1.5l-0.7-1.1L-24.2,333.1z M414,320.4
				h-0.7l-7.6,12.6h15.4l0.3-0.4L414,320.4z M-31.9,320.4h-15.4l-0.4,0.7l7.1,12h1L-31.9,320.4z M-54.8,333.1h14.4l-7.1-12
				L-54.8,333.1z M-30.2,320.4h-1.6l-7.6,12.6h15.4l0.7-1.1L-30.2,320.4z M-48,320.4h-14.7l-1.6,2.6l5.9,9.9h3.4l7.1-12L-48,320.4z
				 M-6.9,329.8l-5.6-9.3h-4.1l-6.9,11.3l0.7,1.1h13.9L-6.9,329.8z M434.5,295.4h-6l-5.9,9.8l1.6,2.7h12l2.9-4.8L434.5,295.4z
				 M83.3,333.1H84l-0.3-0.5L83.3,333.1z M76.4,320.4h-0.8L68,333.1h15.4l0.3-0.5L76.4,320.4z M60.2,320.4l-0.8,1.2l6.7,11.3h1.8
				l7.6-12.6L60.2,320.4L60.2,320.4z M100.2,330.4l-6-10h-3.3l-7.3,12.1l0.3,0.5h14.7L100.2,330.4z M52.6,333.1h13.6l-6.7-11.3
				L52.6,333.1z M290.4,320.4l-0.4,0.7l7.1,11.8h1.1l7.6-12.6h-15.4V320.4z M5.2,320.4h-6.5l-5.6,9.3l1.9,3.2H6.5l3.2-5.2L5.2,320.4
				z M-12.5,320.4l5.6,9.3l5.6-9.3H-12.5L-12.5,320.4z M307.4,320.4h-1.6l-7.6,12.6h15.4l0.7-1.1L307.4,320.4z M406.6,307.8h-1
				l-7.6,12.6h15.4l0.4-0.7L406.6,307.8z M58.7,320.4H44.9l-2.1,3.3l5.5,9.2h4.3l6.7-11.3L58.7,320.4z M6.5,333.1h6.2l-3.2-5.2
				L6.5,333.1z M26.3,325.8l-3.2-5.4h-8.9l-4.4,7.3l3.2,5.2h8.9L26.3,325.8z M2.1,315.1l-4.4-7.1h-6.7l-5.5,9.2l2.1,3.4h11.3
				L2.1,315.1z M375,333.1h11l-5.5-9.2L375,333.1z M-16.6,320.4h4.1l-2.1-3.4L-16.6,320.4z M378.6,320.4h-11.3l-3.3,5.4l4.4,7.1h6.7
				l5.5-9.2L378.6,320.4z M313.7,333.1h1.4l-0.7-1.1L313.7,333.1z M397.1,321.8l6.7,11.3h1.9l7.6-12.6h-15.4L397.1,321.8z
				 M359.7,333.1h8.7l-4.4-7.1L359.7,333.1z M390.4,333.1h13.5l-6.7-11.3L390.4,333.1z M325.2,320.4h-4l-6.9,11.4l0.7,1.1h14
				l1.9-3.2L325.2,320.4z M360.8,320.4h-8.9l-4.4,7.4l3,5.2h9.1l4.4-7.1L360.8,320.4z M329.1,333.1h3.8l-1.9-3.2L329.1,333.1z
				 M344.3,333.1h6.2l-3-5.2L344.3,333.1z M343,320.4h-6.5l-5.8,9.5l1.9,3.2h11.5l3-5.2L343,320.4z M-4.5,245.1h2.7l7.6-12.5
				l-0.1-0.1H-9.6l-1.2,2.1L-4.5,245.1z M28.9,182.3l3.7,6.2l3.7-6.2H28.9z M41.5,173.5l-2.3-4H28.6l-3.6,5.9l4,6.7h7.4L41.5,173.5z
				 M44,194.8l5.1-8.5l-2.5-4.1H36.2l-3.7,6.2l4,6.5H44z M33.8,160.8l-5.4,8.8H39L33.8,160.8z M36.4,207.3l3.8-6.2l-3.8-6.2h-7.7
				l-4.9,8.2l2.5,4.3h10.2V207.3z M32.6,188.3l-4,6.5h7.7L32.6,188.3z M66.9,156.8l-7.4-12.2H59l-7.6,12.6h15.4L66.9,156.8z
				 M59.2,144.1l-0.3,0.4h0.5L59.2,144.1z M23.6,203l-2.5,4.3h5.2L23.6,203z M74.4,144.5l1.5-2.5l-6-10.2h-3.2l-7.3,12.2l0.3,0.4
				H74.4z M51.4,157.1h-2.1l1.1,1.8L51.4,157.1z M68.2,129.3l-1.6,2.6h3.2L68.2,129.3z M43.8,169.6l6.6-10.9l-1.1-1.8H36l-2.2,3.8
				l5.4,8.8H43.8L43.8,169.6z M56.8,169.6h2.3l7.6-12.6H51.3l-1.1,1.8L56.8,169.6z M-3.2,247.4l-1.4-2.3h-12.6l-2.5,4.3l4.9,8.2h5.4
				L-3.2,247.4z M-1.8,245.1h-2.7l1.4,2.3L-1.8,245.1z M3.2,257.6h3l7.4-12.2l-0.3-0.3H-1.8l-1.4,2.3L3.2,257.6z M28.9,219.9
				l2.5-4.1l-5.1-8.5H21l-6.3,10.4l1.2,2.1h12.9V219.9z M-12,262.1l-4.8,8.1H-7L-12,262.1z M-1.5,270.1l6.2-10l-1.5-2.5H-9.2
				l-2.6,4.4l4.8,8.1H-1.5L-1.5,270.1z M-14.7,257.6l2.6,4.4l2.6-4.4H-14.7z M21.3,232.4l1.1-1.9l-6.3-10.7h-2.5L6,232.4H21.3z
				 M14.7,217.9l-1.2,2.1h2.5L14.7,217.9z M5.8,232.4L5.8,232.4L5.8,232.4L5.8,232.4z M5.8,232.6l-7.6,12.5h15L5.8,232.6z
				 M13.6,245.1l7.6-12.6H5.9l-0.1,0.1l7.6,12.5H13.6z M136.4,6.3l3,5.1l3-5.1C140.3,6.3,138.4,6.3,136.4,6.3z M139.4,11.4l-4.5,7.6
				h8.9L139.4,11.4z M-4.4,274.8l-2.7-4.7h-9.8l-4,6.7l3.6,5.9h8.2L-4.4,274.8z M150.2,19l5.8-9.5l-1.8-3c-4.4,0-7.6,0-11.7,0
				l-3,5.1l4.5,7.6L150.2,19L150.2,19z M81.9,132l2.7-4.7l-4.8-8h-5.8l-6,9.9l1.6,2.6h12.2V132z M135.1,44l3-5.2l-4.4-7.4h-6.3
				l-5.8,9.5l1.9,3.2C127.3,44,131.1,44,135.1,44z M130.6,26.1l-3.2,5.4h6.5L130.6,26.1z M142.7,31.3l4.4-7.3l-3.2-5.2H135l-4.4,7.1
				l3.2,5.4L142.7,31.3L142.7,31.3z M148.3-3.3l-1.6-2.9h-11.8l-3,4.8l4.7,7.6c2.1,0,4,0,6.2,0L148.3-3.3z M173.1-18.8l0.7-1.2
				L167-31.3c-0.7,0-1.1,0-1.8,0l-7.6,12.6L173.1-18.8L173.1-18.8z M149.6-30.9l-7.3,12.1h14.6L149.6-30.9z M157.7-18.8l7.6-12.5
				c-5.8,0-10.2,0-15.4,0l-0.3,0.5l7.1,12.1h1V-18.8z M140.8-16.2l-5.9,9.9h11.8L140.8-16.2z M150.1-6.3l7.1-11.8L157-19h-14.6
				l-1.6,2.7l5.9,9.9H150.1L150.1-6.3z M121.6,40.8l-1.9,3.2c1.1,0,2.5,0,3.8,0L121.6,40.8z M81.8,106.8l4.3-7l-3.4-5.6h-8.5
				l-4.5,7.6l3,4.9L81.8,106.8L81.8,106.8z M78.4,87.1L74,94.3h8.5L78.4,87.1z M89.3,94.3l5.5-9.1l-2.1-3.4H81.5l-3.3,5.4l4.4,7.1
				H89.3z M69.4,101.9l-3,4.9h6L69.4,101.9z M77.1,114.6l-4.7-7.7h-6l-5.9,9.8l1.6,2.7h12L77.1,114.6z M62.3,119.5l5.9,9.9l6-9.9
				H62.3z M100.5,94.3h4.4l6.7-11.1l-0.8-1.4H97.2l-2.1,3.4L100.5,94.3z M112.3,81.6l7.6-12.6h-15.4l-0.7,1.2l6.7,11.3L112.3,81.6
				L112.3,81.6z M120.4,68.3l-7.1-11.8h-1.1l-7.6,12.6H120L120.4,68.3z M112.7,55.7l-0.5,1h1.1L112.7,55.7z M96.9,81.6h-4.1l2.1,3.4
				L96.9,81.6z M127.4,56.6l1.8-3l-5.8-9.6c-1.1,0-2.6,0-3.8,0l-7,11.7l0.5,1H127.4z M103.9,70.4L97,81.6h13.6L103.9,70.4z
				 M290,321.1l0.4-0.7h-0.8L290,321.1z M420.9,307.8h3.4l-1.6-2.7L420.9,307.8z M218.6,320.4h-4.8l-6.5,10.7l1.1,1.8h13.2l2.3-3.8
				L218.6,320.4z M282.7,307.8l-0.3,0.5l7.1,12.1h0.8l7.6-12.6L282.7,307.8L282.7,307.8z M267.6,333.1h11.8l-5.9-9.9L267.6,333.1z
				 M305.8,320.4h1.6l-0.7-1.2L305.8,320.4z M299.9,307.8h-1.8l-7.6,12.6H306l0.8-1.2L299.9,307.8z M236.8,333.1h7.1l-3.4-5.8
				L236.8,333.1z M236.3,320.4H229l-5.4,8.7l2.3,3.8h10.7l3.4-5.8L236.3,320.4z M271.9,320.4h-12.2l-2.9,4.7l4.8,7.8h5.9l5.9-9.9
				L271.9,320.4z M221.6,333.1h4.7l-2.3-3.8L221.6,333.1z M317.7,307.8h-4.3l-6.7,11.3l0.7,1.2h13.7l2.1-3.3L317.7,307.8z
				 M254.2,320.4h-9.6l-4,6.7l3.4,5.8h8.2l4.8-7.8L254.2,320.4z M252.2,333.1h9.5l-4.8-7.8L252.2,333.1z M275.1,320.4l-1.6,2.6
				l5.9,9.9h3.4l7.1-11.8l-0.4-0.7H275.1L275.1,320.4z M388.7,307.8h-13.9l-1.9,3.2l5.6,9.3h4.1l6.9-11.3L388.7,307.8z M389.6,309.1
				l6.7,11.3h1.6l7.6-12.6h-15.4L389.6,309.1z M382.5,320.4h13.6l-6.7-11.3L382.5,320.4z M399,295.4h-1.1l-7.6,12.6h15.4l0.5-0.8
				L399,295.4z M416.8,295.4h-3.6l-7.1,11.8l0.5,0.8h14.3l1.6-2.7L416.8,295.4z M405.6,307.8h1l-0.5-0.8L405.6,307.8z M336.5,320.4
				h6.5l-3.2-5.4L336.5,320.4z M353.1,307.8h-8.9l-4.4,7.3l3.2,5.4h8.9l4.4-7.3L353.1,307.8z M321.2,320.4h4l-2.1-3.3L321.2,320.4z
				 M367.3,320.4h11.3l-5.6-9.3L367.3,320.4z M335.5,307.8h-6.7l-5.6,9.2l2.1,3.3h11.3l3.2-5.4L335.5,307.8z M351.9,320.4h8.9
				l-4.4-7.3L351.9,320.4z M371,307.8h-11.4l-3.2,5.2l4.4,7.3h6.5l5.6-9.3L371,307.8z M-9.8,295.4h-6.9l-5.4,8.9l2.1,3.6h11l3.4-5.6
				L-9.8,295.4z M23.1,320.4l3.2,5.4l3.2-5.4H23.1L23.1,320.4z M35.2,311.1l-1.9-3.2H21.7l-3,5.2l4.4,7.4h6.5L35.2,311.1z
				 M15.5,307.8H6.5l-4.4,7.1l3.3,5.4h8.9l4.4-7.4L15.5,307.8z M14.2,320.4h8.9l-4.4-7.4L14.2,320.4z M29.6,320.4l-3.2,5.4l4.4,7.1
				h6.6l5.6-9.2l-2.1-3.3H29.6z M42.9,323.7l2.1-3.3h-4L42.9,323.7z M-2.3,307.8l4.4,7.1l4.4-7.1H-2.3z M-13.3,289.5l-3.4,5.8h6.9
				L-13.3,289.5z M51.1,307.8h-14l-1.9,3.2l5.6,9.5h4l6.9-11.4L51.1,307.8z M-17.3,282.7l4.1,6.7l4.1-6.7H-17.3z M-1.4,295.4
				l4.7-7.7l-2.9-4.8h-9.5l-4.1,6.7l3.4,5.8H-1.4z M11,300.3l-3-4.9h-9.3l-4.3,7l3.4,5.6h8.7L11,300.3z M-8.9,307.8h6.7l-3.4-5.6
				L-8.9,307.8z M111.9,320.4h-5.8l-6,10l1.5,2.5h12.2l2.7-4.5L111.9,320.4z M206.2,333.1h2.2l-1.1-1.8L206.2,333.1z M44.8,320.4
				h13.7L51.7,309L44.8,320.4z M114,333.1h5.5l-2.7-4.5L114,333.1z M94.2,320.4l6,10l6-10H94.2L94.2,320.4z M133.3,326.5l-3.6-6
				h-8.1l-4.8,8.1l2.7,4.5h9.9L133.3,326.5z M200.8,320.4h-2.5l-7.6,12.6h15.4l1.1-1.8L200.8,320.4z M109.1,315.7l-4.8-7.8h-5.9
				l-5.9,9.9l1.6,2.6h12.1L109.1,315.7z M68.7,307.8h-1.1l-7.6,12.6h15.4l0.4-0.7L68.7,307.8z M52.5,307.8l-0.7,1.1l6.9,11.4h1.6
				l7.6-12.6H52.5V307.8z M75.6,320.4h0.8l-0.4-0.7L75.6,320.4z M86.6,307.8h-3.4L76,319.6l0.4,0.7H91l1.6-2.6L86.6,307.8z
				 M91,320.4h3.3l-1.6-2.6L91,320.4z M67.9,307.8H69l-0.5-0.8L67.9,307.8z M196.6,44l7.6-12.6h-15.4l-0.8,1.4l6.7,11.1
				C195.5,44,195.7,44,196.6,44z M204.4,30.9l-7.1-12h-1l-7.6,12.6h15.4L204.4,30.9z M187.9,32.9L181.2,44c5.9,0,7.1,0,13.5,0
				L187.9,32.9z M179.1,47.6l-5.4,8.9h10.9L179.1,47.6z M196.8,18l-0.4,0.7h1L196.8,18z M188.9,56.6l6.7-11l-1-1.6
				c-6.2,0-7.6,0-13.5,0l-2.1,3.6l5.4,9.1H188.9z M212.1,43.6l0.3,0.4c7.1,0,7.6,0,14.8,0l1.5-2.5l-6-10.2h-3.2L212.1,43.6z
				 M222.5,31.3l-1.6-2.6l-1.6,2.6H222.5z M181.4,69.1l5.4-8.8l-2.3-3.7h-10.9l-3.4,5.8l4.1,6.7H181.4z M234.9,31.3h-12.2l6,10.2
				L234.9,31.3z M204.4,30.9l0.3,0.7h14.7L221,29l-5.9-9.9h-3.4L204.4,30.9z M211.7,19l1.6-2.7l-5.8-9.8c-1.6,0-1.9,0-3.6,0
				l-7.1,11.7l0.4,0.7h14.4V19z M215.1,19l-1.6-2.7l-1.6,2.7H215.1z M143.4,132l7.6-12.6h-15.4l-1.1,1.9l6.3,10.6L143.4,132
				L143.4,132z M135.7,144.5L142,134l-1.2-2.1H128l-2.5,4.1l5.1,8.5h5.1V144.5z M170,62.3l-4.1,6.7h8.1L170,62.3z M230.2,44
				c6.2,0,6.2,0,12.4,0l2.6-4.4l-4.8-8.1h-5.6l-6.2,10.2L230.2,44z M134.4,121.4L128,132h12.8L134.4,121.4z M128.2,157.1l4.9-8.2
				l-2.5-4.3h-10.2l-3.8,6.2l3.8,6.2h7.7V157.1z M125.5,136.1l-5.1,8.5h10.2L125.5,136.1z M150.9,119.3l-7.6-12.5h-0.1l-7.6,12.6
				L150.9,119.3L150.9,119.3z M161.1,77.1l-2.7,4.7h5.6L161.1,77.1z M166.2,94.3l2.6-4.4l-4.8-8.1h-5.6L152.2,92l1.5,2.5L166.2,94.3
				L166.2,94.3z M173.7,81.6l4-6.7l-3.6-5.9H166l-4.8,8l2.7,4.7H173.7z M152.3,91.8l-1.5,2.5h3L152.3,91.8z M158.6,106.8l1.4-2.2
				l-6.2-10.3h-3l-7.4,12.2l0.1,0.3L158.6,106.8L158.6,106.8z M143.4,106.7l-0.1,0.3h0.3L143.4,106.7z M330.7,152.2l3,4.8h9.5
				l4.1-6.9l-3.4-5.6h-8.5L330.7,152.2z M336.4,132l-4.4-7.1l-4.4,7.1H336.4z M343.9,144.5l-4.3-7.1l-4.3,7.1H343.9z M323,139.4
				l3,5.1h9.2l4.3-7.1l-3.3-5.5h-8.8L323,139.4z M315.5,126.7l3.2,5.2h8.9l4.4-7.1l-3.2-5.4h-8.9L315.5,126.7z M328.8,119.5
				l-4.4-7.4l-4.4,7.4H328.8z M307.8,114l3.3,5.4h8.8l4.4-7.4l-3-5.2h-9.1L307.8,114z M338.4,164.9l4.8-7.8h-9.5L338.4,164.9z
				 M329.5,179.7l1.5,2.5h12.2l2.7-4.5l-4.8-8.1h-5.8L329.5,179.7z M348.9,182.3l-2.7-4.5l-2.7,4.5H348.9z M341.2,169.6l-2.9-4.8
				l-2.9,4.8H341.2z M116.7,150.8l-3.8,6.2h7.6L116.7,150.8z M321.2,106.8l-4.5-7.6l-4.5,7.6H321.2z M327.7,157.1l-5.9,9.9l1.6,2.7
				h12.1l2.9-4.8l-4.8-7.8H327.7z M280.8,69.1l-3.7-6.2l-3.7,6.2H280.8z M247.8,44l-2.6-4.4l-2.6,4.4C245.2,44,245.2,44,247.8,44z
				 M263.1,69.1h10.4l3.7-6.2l-4-6.5h-7.7l-5.1,8.5L263.1,69.1z M244,66.9l1.2,2.1H258l2.5-4.1l-5.1-8.5h-5.2L244,66.9z M265.7,56.6
				h-10.2l5.1,8.5L265.7,56.6z M236.3,54.3l1.4,2.2h12.6l2.5-4.3l-4.9-8.2c-2.6,0-2.6,0-5.4,0L236.3,54.3z M255.5,56.6l-2.5-4.3
				l-2.6,4.3H255.5z M283.6,103.2l2.1,3.6h11l3.4-5.6l-4.3-7h-6.9L283.6,103.2z M337.2,192.4l1.4,2.3h12.5l2.6-4.4l-4.8-8.1h-5.5
				L337.2,192.4z M304.3,94.3h-8.4l4.3,7L304.3,94.3z M268.2,77.8l2.3,4h10.6l3.6-5.9l-4-6.7h-7.4L268.2,77.8z M295.9,94.3l-3.4-5.8
				l-3.4,5.8H295.9z M275.9,90.4l2.2,3.7h10.9l3.4-5.8l-4-6.7h-7.1L275.9,90.4z M288.4,81.6l-3.6-5.9l-3.6,5.9H288.4z M205.9,282.7
				h7.8l-4-6.6L205.9,282.7z M206.2,270.1h-8.1l-4.8,8.1l2.7,4.5h9.9l4-6.6L206.2,270.1z M190.5,282.7h5.5l-2.7-4.5L190.5,282.7z
				 M221.2,282.7h10.3l-5.2-8.5L221.2,282.7z M223.9,270.1h-10.4l-3.6,6l4,6.6h7.4l5.2-8.5L223.9,270.1z M188.3,270.1h-5.8l-6,10
				l1.5,2.5h12.2l2.7-4.5L188.3,270.1z M175.1,282.7h3l-1.5-2.5L175.1,282.7z M241.6,270.1h-12.9l-2.5,4l5.2,8.5h5.1l6.3-10.6
				L241.6,270.1z M160.1,282.2l-0.3,0.5h0.7L160.1,282.2z M152.7,270.1h-0.8l-7.6,12.6h15.4l0.3-0.5L152.7,270.1z M159.7,282.7
				l-7.6,12.6h15.4l0.3-0.3l-7.3-12.2L159.7,282.7L159.7,282.7z M167.7,294.8l7.4-12.2h-14.7L167.7,294.8z M170.6,270.1h-3.3
				l-7.3,12.1l0.3,0.5H175l1.5-2.5L170.6,270.1z M305.6,270.1h7.3l-3.6-6L305.6,270.1z M136.6,270.1l-0.7,1.2l6.7,11.3h1.8L152,270
				L136.6,270.1L136.6,270.1z M305.2,257.6h-7.6l-5.2,8.5l2.5,4h10.4l3.6-6L305.2,257.6z M323,257.6h-9.9l-4,6.6l3.6,6h8.1l4.8-8.1
				L323,257.6z M120.5,169.6l3.7-6.2l-4-6.5h-7.6l-5.1,8.5l2.5,4.1H120.5z M320.8,270.1h9.6l-4.8-8.1L320.8,270.1z M340.8,257.6
				h-12.2l-2.7,4.5l4.8,8.1h5.8l6-10L340.8,257.6z M236.6,282.7h12.6l-6.3-10.6L236.6,282.7z M287.6,257.6h-5.1l-6.3,10.6l1.1,2.1
				h12.9l2.5-4L287.6,257.6z M252,282.7h15.1l-7.6-12.6l0,0L252,282.7z M244.1,270.1l-1.1,2.1l6.3,10.6h2.6l7.6-12.6H244.1z
				 M259.4,270.1L259.4,270.1L259.4,270.1L259.4,270.1z M274.8,270.1h2.5l-1.1-2.1L274.8,270.1z M269.7,257.6h-2.6l-7.6,12.6l0,0
				h15.4l1.1-2.1L269.7,257.6z M290.2,270.1h4.8l-2.5-4L290.2,270.1z M82.6,232.4l6-9.9l-1.6-2.6H74.8l-2.7,4.7l4.8,8h5.8V232.4z
				 M81,209.8l-6.2,10.2H87L81,209.8z M72,224.6l-4.8,8h9.5L72,224.6z M75.1,245.1l4.7-7.7l-2.9-4.8h-9.5l-4.1,6.7l3.4,5.8
				L75.1,245.1L75.1,245.1z M63.2,239.3l-3.4,5.8h6.9L63.2,239.3z M90.2,219.9l7.3-12.1l-0.3-0.4H82.3l-1.5,2.5l6,10.2L90.2,219.9
				L90.2,219.9z M67.4,257.6l3.4-5.6l-4.3-7h-6.9l-5.4,8.9l2.1,3.6h11V257.6z M89.9,195.1l-7.4,12.2h14.8L89.9,195.1z M113,182.3
				l2.3-4l-5.2-8.7h-4.9l-6.5,10.7l1.1,1.9H113L113,182.3z M107.6,165.6l-2.5,4.1h4.9L107.6,165.6z M98.8,180.3l-1.1,1.9h2.3
				L98.8,180.3z M97.9,207.3l7.6-12.6H90l-0.3,0.3l7.4,12.2h0.7V207.3z M106.5,193l-6.5-10.9h-2.3l-7.6,12.6h15.4L106.5,193z
				 M74.2,257.6h-6.7l-5.5,9.2l2.1,3.4h11.3l3.3-5.4L74.2,257.6z M106,270.1h11.3l-5.6-9.5L106,270.1z M127.4,257.6h-14l-1.9,3.2
				l5.6,9.5h4l6.9-11.4L127.4,257.6z M109.7,257.6H98.1l-3,5.2l4.4,7.4h6.5l5.8-9.5L109.7,257.6z M90.6,270.1h8.9l-4.4-7.4
				L90.6,270.1z M121.4,270.1h13.7l-6.9-11.4L121.4,270.1z M144.2,257.6h-15.4l-0.7,1.1l6.9,11.4h1.6L144.2,257.6z M92,257.6h-9.1
				l-4.4,7.1l3.3,5.4h8.8l4.4-7.4L92,257.6z M336.2,270.1h12.1l-6-10L336.2,270.1z M54.3,254l-2.1,3.6h4.4L54.3,254z M59.9,270.1
				h4.1l-2.1-3.4L59.9,270.1z M75.2,270.1h6.5l-3.3-5.4L75.2,270.1z M135.1,270.1l0.7,1.2l0.7-1.2H135.1z M56.4,257.6H52l-6.7,11.3
				l0.8,1.4h13.6l2.1-3.4L56.4,257.6z M195.6,45.6l-6.7,11h13.2L195.6,45.6z M128.2,182.3l3.6-5.9l-4-6.7h-7.3l-5.2,8.7l2.3,4H128.2
				L128.2,182.3z M212.1,43.6l-7.3-12.2h-0.7L196.6,44c7.1,0,8,0,15.4,0L212.1,43.6z M204.3,56.6l7.6-12.6c-7.4,0-8.2,0-15.4,0
				l-1,1.6l6.6,11H204.3z M189.1,81.6l5.2-8.7l-2.3-4h-10.6l-3.6,5.9l4,6.7H189.1L189.1,81.6z M186.7,60.3l-5.4,8.8h10.6L186.7,60.3
				z M219.9,56.6h15l1.4-2.2l-6.2-10.3c-1.5,0-1.5,0-3,0l-7.4,12.2L219.9,56.6z M177.7,75.1l-4,6.7h8L177.7,75.1z M237.7,56.6
				l-1.4-2.2l-1.4,2.2H237.7z M227.5,69L227.5,69l15.3,0.1l1.2-2.1l-6.2-10.4h-2.7L227.5,69z M227.2,44c-7.3,0-7.7,0-14.8,0
				l7.4,12.2L227.2,44z M204.3,56.6h15.4l0.1-0.3l-7.4-12.2c-0.3,0-0.3,0-0.5,0L204.3,56.6z M212.4,44l-0.3-0.4l-0.3,0.4
				C212.1,44,212.1,44,212.4,44z M135.9,169.6l4.8-8.1l-2.6-4.4h-9.9l-4,6.5l3.7,6.2L135.9,169.6L135.9,169.6z M181.4,94.3l4-6.5
				l-3.7-6.2h-8l-4.8,8.1l2.6,4.4L181.4,94.3L181.4,94.3z M142.1,134l-6.3,10.4h12.6L142.1,134z M133.2,148.7l-4.9,8.2h9.9
				L133.2,148.7z M245.2,69.1l-1.2-2.1l-1.2,2.1H245.2z M124.3,163.6l-3.7,6.2h7.3L124.3,163.6z M344.7,205.2l6.2-10.4h-12.5
				L344.7,205.2z M143.5,157.1l6.2-10.3l-1.4-2.2h-12.6l-2.5,4.3l4.9,8.2H143.5L143.5,157.1z M151.1,119.5L151.1,119.5l-7.7,12.6
				h15.3L151.1,119.5z M168.9,89.9l-2.6,4.4h5.4L168.9,89.9z M159.9,104.6l-1.4,2.2h2.7L159.9,104.6z M173.9,106.8l2.5-4.3l-4.9-8.2
				H166l-6.2,10.3l1.4,2.2H173.9L173.9,106.8z M166.3,119.5l1.2-2.1l-6.2-10.4h-2.7l-7.6,12.5v0.1h15.3V119.5z M150.9,119.3
				L150.9,119.3L150.9,119.3L150.9,119.3z M196.7,69.1l6.6-10.9l-1.1-1.6H189l-2.2,3.7l5.4,8.8H196.7L196.7,69.1z M312.4,157.1
				l-7.1,11.8l0.4,0.7h14.6l1.6-2.7L316,157L312.4,157.1L312.4,157.1z M323.6,169.6l-1.6-2.7l-1.6,2.7H323.6z M306.5,141.4l1.8,3
				H320l3-5.1l-4.5-7.6h-6.3L306.5,141.4z M326.2,144.5l-3-5.1l-3,5.1H326.2z M235.2,81.6h15.4l1.1-1.9l-6.3-10.6h-2.5L235.2,81.6z
				 M314.2,154.1l1.6,2.9h11.8l3-4.8l-4.7-7.6h-6.2L314.2,154.1z M321.8,167l5.9-9.9h-11.8L321.8,167z M38.9,228.6l-2.3,4h4.8
				L38.9,228.6z M320.5,219.9h15.4l0,0l-7.6-12.6h-0.3L320.5,219.9z M331,182.3l-1.5-2.5l-1.5,2.5H331z M320.3,194.8l-7.6,12.6h15.4
				l0.1-0.3l-7.4-12.4H320.3L320.3,194.8z M320.5,194.4l0.3,0.3h14.8l1.4-2.3l-6.2-10.2h-3L320.5,194.4z M328.2,207.1l7.6-12.4h-15
				L328.2,207.1z M312.9,181.7l0.3,0.5h14.7l1.5-2.5l-6-10H320L312.9,181.7z M270.5,81.6l-2.3-4l-2.3,4H270.5z M266.9,105.2l1,1.6
				h13.5l2.1-3.6l-5.4-8.9h-4.5L266.9,105.2z M278.2,94.3l-2.2-3.7l-2.2,3.7H278.2z M259.4,92.5l1.1,1.8h13.2l2.2-3.7l-5.4-8.8h-4.8
				L259.4,92.5z M252.9,81.6H266l2.3-4l-5.2-8.7h-4.9l-6.5,10.6L252.9,81.6z M258,69.1h-12.8l6.3,10.6L258,69.1z M296.8,106.8h-11
				l5.5,9.1L296.8,106.8z M311.1,119.5l-3.3-5.4l-3.3,5.4H311.1z M298.8,128.8l1.9,3.3h11.4l3.2-5.2l-4.4-7.3h-6.6L298.8,128.8z
				 M293.2,119.5h11.3l3.3-5.4l-4.4-7.1h-6.7l-5.5,9.1L293.2,119.5z M318.5,132l-3.2-5.2l-3.2,5.2H318.5z M274.6,118.1l0.8,1.4h13.6
				l2.1-3.4l-5.5-9.1h-4.4L274.6,118.1z M285.6,106.8l-2.1-3.6l-2.1,3.6H285.6z M151.1,144.5l7.6-12.5l-0.1-0.1h-15.3l-1.2,2.1
				l6.2,10.4h2.9V144.5z M282.5,257.6h5.1l-2.5-4.3L282.5,257.6z M115.3,178.3l-2.3,4h4.8L115.3,178.3z M267.1,257.6h2.6l-1.2-2.2
				L267.1,257.6z M297.7,245.1H290l-5.1,8.4l2.5,4.3h10.3l3.7-6.2L297.7,245.1z M297.7,257.6h7.6l-3.7-6.2L297.7,257.6z
				 M262.1,245.1h-2.9l-7.6,12.4l0.1,0.3h15.1l1.2-2.2L262.1,245.1z M228.7,270.1h12.9l-6.5-10.7L228.7,270.1z M315.5,245.1h-10
				l-3.8,6.3l3.7,6.2h7.8l4.9-8.2L315.5,245.1z M234.1,257.6h-13.2l-2.3,3.8l5.4,8.7h4.8l6.5-10.7L234.1,257.6z M216.4,257.6h-10.7
				l-3.4,5.8l4,6.7h7.3l5.4-8.7L216.4,257.6z M259.4,270.1l7.6-12.6h-15.1L259.4,270.1z M236.3,257.6l-1.1,1.8l6.5,10.7h2.5
				l7.6-12.6L236.3,257.6L236.3,257.6z M251.7,257.6l-7.6,12.6h15.4l0,0l-7.6-12.6H251.7z M213.3,270.1h10.4l-5.4-8.7L213.3,270.1z
				 M343.5,232.6l7.4,12.4h0.4l7.6-12.6h-15.4L343.5,232.6z M353.7,219.9l-1.1-2.1l-1.2,2.1H353.7z M343.6,232.4H359l1.1-1.8
				l-6.5-10.7h-2.5L343.6,232.4z M335.9,219.9L335.9,219.9h15.4l1.2-2.1l-6.3-10.6h-2.6L335.9,219.9z M335.7,194.8l-7.6,12.4
				l0.1,0.3h15.1l1.2-2.2l-6.2-10.4L335.7,194.8L335.7,194.8z M346.1,207.3l-1.2-2.2l-1.2,2.2H346.1z M333.2,245.1h-12.5l-2.6,4.4
				l4.9,8.2h5.5l6.2-10.2L333.2,245.1z M351.2,245.4l0.3-0.3h-0.4L351.2,245.4z M351.1,245.1h-15l-1.4,2.3l6.2,10.2h3l7.4-12.2
				L351.1,245.1z M313.1,257.6h9.9l-4.9-8.2L313.1,257.6z M328.5,257.6h12.2l-6.2-10.2L328.5,257.6z M343.8,257.6h14.7l-7.3-12.2
				L343.8,257.6z M358.6,257.6h0.7l7.6-12.6h-15.4l-0.3,0.3L358.6,257.6z M279.9,245.1h-5.4l-6.2,10.4l1.2,2.2h12.6l2.5-4.3
				L279.9,245.1z M79.7,237.3l-4.7,7.7h9.3L79.7,237.3z M84.4,245.1h-9.3l-4.3,7l3.4,5.6h8.5l4.5-7.6L84.4,245.1z M90.4,245.1
				l5.9-9.8l-1.6-2.7h-12l-2.9,4.8l4.7,7.7H90.4L90.4,245.1z M88.7,222.5l-6,9.9h12L88.7,222.5z M102.1,245.1H90.3l-3,4.9l4.5,7.6
				H98l5.8-9.6L102.1,245.1z M82.7,257.6h9.1l-4.5-7.6L82.7,257.6z M98.1,257.6h11.5l-5.8-9.6L98.1,257.6z M114.1,205.8l-6.6-11
				h-2.1l-7.6,12.6h15.4L114.1,205.8z M106.5,193l-1.1,1.6h2.1L106.5,193z M120.8,194.8l2.2-3.7l-5.4-8.8H113l-6.6,10.9l1.1,1.6
				H120.8L120.8,194.8z M98,232.4l7.1-12l-0.3-0.7H90.3l-1.6,2.6l5.9,9.9H98V232.4z M197.9,270.1h8.1l-4-6.7L197.9,270.1z
				 M105.6,219.9l7.6-12.6H97.9l-0.3,0.4l7.3,12.1L105.6,219.9L105.6,219.9z M97.6,207.7l-7.3,12.1h14.6L97.6,207.7z M120,245.1
				h-14.2l-1.8,3l5.8,9.6h3.8l7-11.7L120,245.1z M151.9,270.1h0.8l-0.4-0.7L151.9,270.1z M163,257.6h-3.4l-7.1,11.8l0.4,0.7h14.6
				l1.6-2.7L163,257.6z M180.9,257.6H175l-5.9,9.9l1.6,2.7h12.1l2.9-4.7L180.9,257.6z M182.7,270.1h5.8l-2.9-4.7L182.7,270.1z
				 M198.6,257.6h-8.2l-4.8,7.8l2.9,4.7h9.6l4-6.7L198.6,257.6z M167.3,270.1h3.3l-1.6-2.7L167.3,270.1z M113.5,257.6h14l-7-11.7
				L113.5,257.6z M121.1,245.1l-0.5,1l7,11.7h1.4l7.6-12.6H121.1z M144.7,256.8l-0.5,0.8h1.1L144.7,256.8z M145.3,257.6h-1.1
				l-7.6,12.6H152l0.4-0.7L145.3,257.6z M137.7,245.1h-1.2l-7.6,12.6h15.4l0.5-0.8L137.7,245.1z M328.4,207.3l-0.1-0.3l-0.1,0.3
				H328.4z M376.6,228.6l2.3,3.8h10.7l3.4-5.8l-4-6.7h-7.3L376.6,228.6z M389.1,219.9l-3.6-6l-3.6,6H389.1z M381.7,207.3l-3.7-6.2
				l-3.7,6.2H381.7z M370.3,188.3l3.8,6.3h7.6l5.1-8.4l-2.5-4.1H374L370.3,188.3z M378,201.2l3.8-6.3h-7.7L378,201.2z M366.5,194.8
				l-5.1,8.4l2.5,4.3h10.3l3.7-6.2l-3.8-6.3h-7.6V194.8z M369.1,215.9l2.5,4H382l3.6-6l-4-6.6h-7.4L369.1,215.9z M384.3,241.4
				l5.4-8.9H379L384.3,241.4z M394.1,257.6l-2.1-3.4l-2.1,3.4H394.1z M383.1,268.9l0.7,1.2h13.7l2.1-3.3l-5.5-9.2h-4.3L383.1,268.9z
				 M382.3,270.1h1.6l-0.7-1.2L382.3,270.1z M374.3,232.4l-6.6,10.9l1,1.6H382l2.2-3.7l-5.4-8.9h-4.5V232.4z M386.5,245.1l-2.2-3.7
				l-2.2,3.7H386.5z M375.4,256.1l0.8,1.5h13.6l2.1-3.4l-5.4-9.1h-4.4L375.4,256.1z M301.3,44l-6.2-10.4L288.8,44
				C294.8,44,295.3,44,301.3,44z M308.7,56.6l-6.2-10.3l-6.2,10.3H308.7z M175.4,307.8l7.6-12.4h-15L175.4,307.8z M283.4,44
				c2.5,0,2.6,0,5.2,0l6.3-10.4l-1.2-2.1H281l-2.5,4.1L283.4,44z M280.8,31.3h-4.9l2.5,4.1L280.8,31.3z M261.9,37.5l4,6.5
				c3.8,0,3.8,0,7.6,0l5.1-8.5l-2.5-4.1h-10.4L261.9,37.5z M362.6,175.7l4,6.6h7.4l5.2-8.5l-2.5-4h-10.4L362.6,175.7z M376.8,169.6
				l-5.4-8.7l-5.4,8.7H376.8z M384.3,182.3l-5.2-8.5l-5.2,8.5H384.3z M358.5,157.1l-3.4,5.8l4,6.7h7.1l5.4-8.7l-2.3-3.8L358.5,157.1
				L358.5,157.1z M316.4,69.1l-6-10.2l-6.2,10.2H316.4z M301.4,73.8l4.8,8h5.8l6-9.9l-1.6-2.6h-12.2L301.4,73.8z M293.7,61l4.8,8.1
				h5.6l6.2-10.2l-1.5-2.5h-12.4L293.7,61z M276,31.3l-5.2-8.7l-5.2,8.7H276z M249.2,282.7h-12.6l-2.5,4.3l5.1,8.4h5.4l6.2-10.4
				L249.2,282.7z M231.5,282.7h-10.3l-3.7,6.2l3.8,6.3h7.6l5.1-8.4L231.5,282.7z M228.9,295.4h10l-5.1-8.4L228.9,295.4z
				 M244.3,295.4h12.5l-6.2-10.4L244.3,295.4z M252,282.7l-1.2,2.2l6.2,10.4h2.9l7.4-12.4l-0.1-0.3H252z M267.2,282.9l0.1-0.3h-0.3
				L267.2,282.9z M182.8,295.4h2.9l-1.4-2.3L182.8,295.4z M213.6,295.4h7.6l-3.8-6.3L213.6,295.4z M195.9,282.7h-5.5l-6.2,10.2
				l1.4,2.3h12.5l2.6-4.4L195.9,282.7z M178.1,282.7h-3l-7.4,12.2l0.3,0.3h15l1.4-2.3L178.1,282.7z M259.4,270.1l7.6,12.6h0.3
				l7.6-12.6H259.4z M213.7,282.7h-7.8l-4.9,8.1l2.6,4.4h10l3.8-6.3L213.7,282.7z M198.2,295.4h5.4L201,291L198.2,295.4z
				 M328.7,282.7h9.5l-4.8-7.8L328.7,282.7z M343.9,282.7h11.8l-5.9-9.9L343.9,282.7z M348.3,270.1h-12.1l-2.9,4.7l4.8,7.8h5.9
				l5.9-9.9L348.3,270.1z M366,270.1h-14.6l-1.6,2.6l5.9,9.9h3.4l7.1-11.8L366,270.1z M277.3,270.1h-2.5l-7.6,12.6h15.4l1.1-1.8
				L277.3,270.1z M359.3,282.7h14.3l-7.1-11.8L359.3,282.7z M366.5,270.9l7.1,11.8h1.1l7.6-12.6h-15.4L366.5,270.9z M376.4,257.6
				h-1.8l-7.6,12.6h15.4l0.8-1.2L376.4,257.6z M295,270.1h-4.8l-6.5,10.7l1.1,1.8H298l2.3-3.8L295,270.1z M282.5,282.7h2.2l-1.1-1.8
				L282.5,282.7z M297.9,282.7h4.7l-2.3-3.8L297.9,282.7z M313.3,282.7h7.1L317,277L313.3,282.7z M312.9,270.1h-7.3l-5.4,8.7
				l2.3,3.8h10.7l3.4-5.8L312.9,270.1z M330.6,270.1H321l-4,6.7l3.4,5.8h8.2l4.8-7.8L330.6,270.1z M286,48.2l4.9,8.2h5.4l6.2-10.3
				l-1.4-2.2c-6,0-6.5,0-12.6,0L286,48.2z M97.7,119.5l3.6,5.9l3.6-5.9H97.7z M110.2,110.7l-2.2-3.7H97.2l-3.4,5.8l4.1,6.7h7.1
				L110.2,110.7z M112.6,106.8H108l2.2,3.7L112.6,106.8z M115.5,119.5h4.8l6.6-10.9l-1.1-1.8h-13.2l-2.2,3.7L115.5,119.5z
				 M101.3,125.4l-4,6.7h8L101.3,125.4z M112.6,132l5.2-8.7l-2.3-4h-10.6l-3.6,5.9l4,6.7H112.6L112.6,132z M127.8,106.8l7.6-12.6
				H120l-1,1.6l6.6,11H127.8z M143.1,81.6l1.6-2.6l-5.9-9.9h-3.4l-7.1,12l0.3,0.7h14.6V81.6z M128,81.1l-0.3,0.7h0.7L128,81.1z
				 M119,95.8l-6.7,11h13.2L119,95.8z M137,66.4l-1.6,2.7h3.4L137,66.4z M135.7,93.7l-7.3-12.1h-0.7l-7.6,12.6h15.4L135.7,93.7z
				 M105.2,144.5l4-6.5l-3.7-6.2h-8l-4.8,8.1l2.6,4.4L105.2,144.5L105.2,144.5z M83.6,154.8l-1.4,2.2h2.7L83.6,154.8z M56.8,199
				l-4.9,8.2h9.9L56.8,199z M254.2,24.9l4,6.7h7.3l5.2-8.7l-2.3-4h-10.6L254.2,24.9z M67.1,207.3l6.2-10.3l-1.4-2.2H59.4l-2.5,4.3
				l4.9,8.2H67.1L67.1,207.3z M47.8,213.7l-3.7,6.2h7.3L47.8,213.7z M52,232.4l3.6-5.9l-4-6.7h-7.3l-5.2,8.7l2.3,4H52L52,232.4z
				 M65.7,184.3l-6.3,10.4H72L65.7,184.3z M89.9,169.6l1.2-2.1l-6.2-10.4h-2.7l-7.6,12.5v0.1h15.3V169.6z M92.4,140.1l-2.6,4.4h5.4
				L92.4,140.1z M74.8,194.8l7.6-12.5l-0.1-0.1H67.1l-1.2,2.1l6.2,10.4h2.7V194.8z M97.5,157.1l2.5-4.3l-4.9-8.2h-5.4l-6.2,10.3
				l1.4,2.2H97.5L97.5,157.1z M150.7,69.1l2.9-4.8l-4.7-7.7h-6l-5.9,9.8l1.6,2.7H150.7L150.7,69.1z M74.6,169.6L74.6,169.6
				L74.6,169.6L74.6,169.6z M74.6,169.6L74.6,169.6l-7.7,12.6h15.3L74.6,169.6z M59.5,219.9l4.8-8.1l-2.6-4.4h-9.9l-4,6.5l3.7,6.2
				L59.5,219.9L59.5,219.9z M219.1-18.8h-8.9l4.4,7.4L219.1-18.8z M235.5-6.3l-4.3-7.1l-4.4,7.1H235.5z M198.1-9.3l1.9,3.2h11.5
				l3-5.2l-4.4-7.4h-6.5L198.1-9.3z M145.8,51.7l-3,4.9h6L145.8,51.7z M210.2-18.8l-3.2-5.4l-3.2,5.4H210.2z M203.7-18.8l3.2-5.4
				l-4.4-7.1c-3,0-3.7,0-6.7,0l-5.6,9.2l2.1,3.3H203.7z M190.4-22.1l-2.1,3.3h4L190.4-22.1z M250.6,19h7.1l5.4-8.8l-2.2-3.7
				c-5.4,0-5.4,0-10.9,0l-3.4,5.8L250.6,19z M250,6.3c-3.4,0-3.4,0-7,0l3.4,5.8L250,6.3z M268.5,19l-5.4-8.8l-5.4,8.8H268.5z
				 M222.3,1.4l3,4.9c4.5,0,4.8,0,9.3,0l4.3-7l-3.4-5.6h-8.5L222.3,1.4z M243,6.3l-4.3-7l-4.3,7C238.8,6.3,238.9,6.3,243,6.3z
				 M230,14l2.9,4.8h9.5l4.1-6.7L243,6.3c-4.1,0-4.3,0-8.4,0L230,14z M217.7-6.3h9.1l4.4-7.1l-3.3-5.4h-8.8l-4.4,7.4L217.7-6.3z
				 M165.8,44l5.5-9.1l-2.1-3.4h-11.3l-3.3,5.4L159,44C161.8,44,162.9,44,165.8,44z M163.7,22.1l-5.6,9.3h11.3L163.7,22.1z
				 M173.5,31.3l6.9-11.3l-0.7-1.2h-13.9l-1.9,3.3l5.6,9.3L173.5,31.3L173.5,31.3z M154.8,36.8l-4.4,7.1c3.4,0,5.1,0,8.5,0
				L154.8,36.8z M172.6,7.4l-7,11.5h13.9L172.6,7.4z M158.2,56.6l4.3-7L159,44c-3.4,0-5.4,0-8.5,0l-4.5,7.6l3,4.9h9.2V56.6z
				 M188.6,6.3l0.5-1l-7-11.7h-1.4l-7.6,12.6C179.5,6.3,181.9,6.3,188.6,6.3z M181.4-7.4l-0.7,1.1h1.4L181.4-7.4z M172,6.3l0.7,1.1
				l0.7-1.1C172.6,6.3,172.5,6.3,172,6.3z M180.9-6.3h-15.4l-0.5,0.8l7,11.7c0.5,0,0.7,0,1.2,0L180.9-6.3z M196.2-6.3l1.9-3.2
				l-5.6-9.5h-4l-6.9,11.4l0.7,1.1L196.2-6.3L196.2-6.3z M324.4,112l4.4,7.4h6.3l5.8-9.5l-1.9-3.2h-11.5L324.4,112z M273.3,44
				c-3.7,0-3.8,0-7.6,0l3.8,6.2L273.3,44z M273.3,56.6h7.7l4.9-8.2l-2.5-4.3c-4.9,0-5.2,0-10.2,0l-3.8,6.2L273.3,56.6z M252.9,52.2
				l2.5,4.3h10.2l3.8-6.2l-3.8-6.2c-4,0-4,0-7.8,0L252.9,52.2z M245.2,39.6l2.6,4.4c4.9,0,4.9,0,9.9,0l4-6.5l-3.7-6.2h-8L245.2,39.6
				z M265.7,44l-4-6.5l-4,6.5C261.9,44,261.9,44,265.7,44z M258.1,31.3l-4-6.7l-4,6.7H258.1z M291,56.6l-4.9-8.2l-4.9,8.2H291z
				 M306.1,81.6l-4.8-8l-4.8,8H306.1z M292.5,88.5l3.4,5.8h8.4l4.7-7.7l-2.9-4.8h-9.5L292.5,88.5z M312,81.6h-5.8l2.9,4.8L312,81.6z
				 M298.6,69.1l-4.8-8.1l-4.8,8.1H298.6z M284.8,75.7l3.6,5.9h8.1l4.8-8l-2.7-4.7h-9.6L284.8,75.7z M232.9,19l-2.9-4.8l-2.9,4.8
				H232.9z M189.1,5.4l-0.5,1c0.5,0,0.7,0,1.1,0L189.1,5.4z M240.4,31.3h9.8l4-6.7l-3.6-5.9h-8.1l-4.8,8L240.4,31.3z M196.8,18
				l-7.1-11.8c-0.5,0-0.7,0-1.1,0L181,18.8h15.4L196.8,18z M188.7,31.3l7.6-12.6h-15.4l-0.7,1.2l6.7,11.3h1.8V31.3z M211.5-6.3H200
				l5.8,9.6L211.5-6.3z M180.2,20.1l-6.9,11.3h13.6L180.2,20.1z M204,6.3l1.8-3L200-6.3h-3.8l-7,11.7l0.5,1
				C196,6.3,197.4,6.3,204,6.3z M313.7,94.3h6l5.9-9.8l-1.6-2.7h-12l-2.9,4.8L313.7,94.3z M181.2,44l6.7-11.1l-0.8-1.4h-13.6
				l-2.1,3.4l5.5,9.1C178.7,44,179.2,44,181.2,44z M207.6,6.3c5.5,0,6.2,0,11.8,0l3-4.9l-4.5-7.6h-6.2l-5.8,9.6L207.6,6.3z
				 M213.3,16.1l1.6,2.7h12l2.9-4.8l-4.7-7.7c-3,0-3,0-6,0L213.3,16.1z M225.3,6.3l-3-4.9l-3,4.9C222.1,6.3,222.4,6.3,225.3,6.3z
				 M242.3,19h-9.5l4.8,8L242.3,19z M352.4,217.9l1.1,2.1h12.9l2.5-4l-5.1-8.5h-5.1L352.4,217.9z M371.5,219.9l-2.5-4l-2.5,4H371.5z
				 M363.8,207.3l-2.5-4.3l-2.5,4.3H363.8z M351.1,194.8l-6.2,10.4l1.2,2.2h12.6l2.5-4.3l-4.9-8.4H351.1z M360.1,230.7l1.1,1.8h13.2
				l2.3-3.8l-5.2-8.7h-4.8L360.1,230.7z M361.4,203.2l5.1-8.4h-10.2L361.4,203.2z M359,232.4l-7.6,12.6h15.4l1.1-1.6l-6.6-10.9H359
				V232.4z M358.9,258.1l7.1,12.1h0.8l7.6-12.6H359L358.9,258.1z M359.2,257.6h15.4l1-1.5l-6.7-11.1h-2.1L359.2,257.6z M367.8,243.3
				l6.6-10.9h-13.2L367.8,243.3z M351.6,270.1h14.6L359,258L351.6,270.1z M368.8,245.1l-1-1.6l-1.1,1.6H368.8z M353.7,190.4l2.6,4.4
				h10l3.8-6.3l-3.7-6.2h-8L353.7,190.4z M316.7,99.2l4.5,7.6h6.2l5.8-9.6l-1.8-3h-11.8L316.7,99.2z M358.6,257.6h-14.7l-1.5,2.5
				l6,10h3.3L359,258L358.6,257.6z M335.1,119.5l-3.2,5.4l4.4,7.1h6.6l5.6-9.2l-2.1-3.3H335.1L335.1,119.5z M339.7,137.5l4.3,7.1
				h6.7l5.5-9.1l-2.1-3.4H343L339.7,137.5z M354.1,132l-5.6-9.2l-5.6,9.2H354.1z M339,106.8l-5.8-9.6l-5.8,9.6H339z M331.4,94.3
				l-5.9-9.8l-5.9,9.8H331.4z M347.4,150.2l4.1,6.9h7l5.4-8.9l-2.2-3.7h-10.9L347.4,150.2z M361.6,144.5l-5.5-9.1l-5.5,9.1H361.6z
				 M359,169.6l-4-6.7l-4,6.7H359z M346.1,177.7l2.7,4.5h9.9l4-6.6l-3.6-6h-8.4L346.1,177.7z M343.1,157.1l-4.8,7.8l2.9,4.8h9.6
				l4-6.7l-3.4-5.8h-8.2V157.1z M366.5,182.3l-4-6.6l-4,6.6H366.5z M354.9,162.9l3.4-5.8h-7L354.9,162.9z M117.8,123.3l-5.2,8.7H123
				L117.8,123.3z M37.7,256.1l-1,1.6h1.9L37.7,256.1z M45.4,268.7l-6.7-11.3h-1.9l-7.6,12.6h15.4L45.4,268.7z M46.2,270.1h-1.6
				L37,282.7h15.4l0.7-1.1L46.2,270.1z M29.1,270.1l-0.4,0.7l7.1,12h1l7.6-12.6H29.1z M63.9,270.1h-4.1l-6.9,11.3l0.7,1.1h13.9
				l1.9-3.2L63.9,270.1z M52.2,282.7h1.5l-0.7-1.1L52.2,282.7z M67.4,232.4l4.8-8l-2.7-4.7h-9.8l-4,6.7l3.6,5.9H67.4z M55.5,226.7
				l-3.6,5.9h7.1L55.5,226.7z M74.8,219.9l6.2-10.2l-1.5-2.5H67.1l-2.6,4.4l4.8,8.1L74.8,219.9L74.8,219.9z M64.5,211.8l-4.8,8.1
				h9.8L64.5,211.8z M67.6,282.7h4l-1.9-3.2L67.6,282.7z M59.7,245.1l3.4-5.8l-4.1-6.7h-7.1l-5.4,8.8l2.2,3.7H59.7z M46.6,241.4
				l-2.2,3.7h4.5L46.6,241.4z M52.1,257.6l2.1-3.6l-5.4-8.9h-4.5l-6.7,11l1,1.6h13.6V257.6z M136.8,295.4h13.3l-6.7-11.1
				L136.8,295.4z M142.7,282.7h-13.6l-2.1,3.4l5.4,9.1h4.4l6.7-11.1L142.7,282.7z M159.7,282.7h-15.4l-0.8,1.5l6.7,11.1h2.1
				L159.7,282.7z M152.2,295.4l-1,1.6l6.6,10.9h2.2l7.6-12.6h-15.4V295.4z M124.8,282.7l2.1,3.4l2.1-3.4H124.8z M150.1,295.4l1,1.6
				l1-1.6H150.1z M135.8,271.5l-0.7-1.2h-13.7l-2.1,3.3l5.5,9.2h4.3L135.8,271.5z M99.5,270.1h-8.9l-4.4,7.3l3.2,5.2h8.9l4.4-7.1
				L99.5,270.1z M83,282.7h6.3l-3.2-5.2L83,282.7z M98.3,282.7h8.7l-4.4-7.1L98.3,282.7z M81.6,270.1h-6.5l-5.6,9.3l1.9,3.2h11.4
				l3.2-5.2L81.6,270.1z M117.3,270.1H106l-3.2,5.4l4.4,7.1h6.7l5.6-9.2L117.3,270.1z M171.3,34.9l-5.5,9.1c4.7,0,6.2,0,11,0
				L171.3,34.9z M113.7,282.7h11.1l-5.5-9.2L113.7,282.7z M143.4,106.7l-7.4-12.2h-0.5l-7.6,12.6h15.4L143.4,106.7z M135.7,93.7
				l-0.3,0.4h0.5L135.7,93.7z M135.7,119.5l7.6-12.6h-15.4l-1.1,1.8l6.5,10.9H135.7L135.7,119.5z M150.8,94.3l1.5-2.5l-6-10.2h-3.2
				l-7.3,12.2l0.3,0.4H150.8z M126.9,108.6l-6.6,10.9h13.1L126.9,108.6z M167.6,295.4L160,308h15.4l0.1-0.3l-7.4-12.4H167.6
				L167.6,295.4z M128,132l6.5-10.6l-1.1-1.9h-13.1l-2.3,4l5.2,8.7L128,132L128,132z M166,69.1l4.1-6.7l-3.6-5.8h-8.2l-4.7,7.7
				l2.9,4.8H166z M144.6,79l-1.6,2.6h3.2L144.6,79z M173.6,56.6l5.4-8.9l-2.1-3.6c-4.8,0-6.5,0-11,0l-3.4,5.6l4.1,6.9H173.6z
				 M162.5,49.6l-4.3,7h8.4L162.5,49.6z M153.5,64.3l-2.9,4.8h5.8L153.5,64.3z M158.4,81.6l2.7-4.7l-4.8-8h-5.8l-6,9.9l1.6,2.6h12.2
				V81.6z M73.4,197.1l-6.2,10.3h12.4L73.4,197.1z M97.6,182.3l1.1-1.9l-6.3-10.7h-2.5l-7.6,12.6H97.6z M89.9,169.6H74.6l7.6,12.6
				h0.1L89.9,169.6z M90,194.8l7.6-12.6H82.2l-0.1,0.1l7.6,12.5L90,194.8L90,194.8z M82.2,182.3L82.2,182.3L82.2,182.3L82.2,182.3z
				 M82.5,207.3l7.4-12.2l-0.3-0.3h-15l-1.4,2.2l6.2,10.3L82.5,207.3L82.5,207.3z M82.2,182.3l-7.6,12.5h15L82.2,182.3z M108.9,138
				l-4,6.5h7.7L108.9,138z M91.1,167.6l-1.2,2.1h2.5L91.1,167.6z M112.9,157.1l3.8-6.2l-3.8-6.2h-7.7l-4.9,8.2l2.5,4.3h10.2V157.1z
				 M120.4,144.5l5.1-8.5l-2.5-4.1h-10.4l-3.7,6.2l4,6.5H120.4z M100.1,152.7l-2.5,4.3h5.2L100.1,152.7z M105.3,169.6l2.5-4.1
				l-5.1-8.5h-5.2l-6.3,10.4l1.2,2.1h12.9V169.6z"/>
		</g>
	</g>
	
		<linearGradient id="XMLID_4_" gradientUnits="userSpaceOnUse" x1="200" y1="402.8" x2="200" y2="2.8" gradientTransform="matrix(1 0 0 -1 0 402.8)">
		<stop  offset="0" style="stop-color:#2F4AE8"/>
		<stop  offset="1.057398e-02" style="stop-color:#3249E9"/>
		<stop  offset="0.1494" style="stop-color:#573BEF"/>
		<stop  offset="0.2946" style="stop-color:#762FF5"/>
		<stop  offset="0.4461" style="stop-color:#8E26F9"/>
		<stop  offset="0.6065" style="stop-color:#9F20FD"/>
		<stop  offset="0.7818" style="stop-color:#A91CFE"/>
		<stop  offset="1" style="stop-color:#AC1BFF"/>
	</linearGradient>
	<path id="XMLID_7029_" class="st1" d="M373.1,100.3c0-0.1-0.1-0.3-0.1-0.4c-0.1-0.1-0.1-0.3-0.3-0.4c-17.5-30-42.5-55-72.4-72.4
		c-0.1-0.1-0.3-0.3-0.4-0.3c-0.1-0.1-0.3-0.1-0.4-0.1C270.1,9.8,236,0,199.9,0c-36.3,0-70.2,9.8-99.5,26.7c-0.1,0-0.3,0.1-0.4,0.1
		c-0.1,0.1-0.3,0.1-0.4,0.3c-30,17.5-55,42.5-72.4,72.4c-0.1,0.1-0.3,0.3-0.3,0.4c-0.1,0.1-0.1,0.3-0.1,0.4C9.8,129.6,0,163.7,0,200
		s9.8,70.2,26.7,99.7c0,0.1,0.1,0.3,0.1,0.4c0,0.1,0.1,0.1,0.3,0.3c17.5,30,42.5,55.1,72.6,72.6c0.1,0.1,0.3,0.3,0.4,0.3
		s0.1,0.1,0.3,0.1c29.4,16.9,63.4,26.7,99.7,26.7s70.4-9.8,99.7-26.7c0.1,0,0.1,0,0.3-0.1c0.1-0.1,0.3-0.1,0.4-0.3
		c30-17.5,55.1-42.6,72.6-72.6c0.1-0.1,0.1-0.1,0.3-0.3c0.1-0.1,0.1-0.3,0.1-0.4c16.9-29.3,26.7-63.4,26.7-99.5
		C399.7,163.6,390,129.6,373.1,100.3z M369.6,294.8l-22.8-13.2c-1.2-0.7-2.9-0.3-3.6,1c-0.7,1.2-0.3,2.9,1,3.6l22.8,13.2
		c-16.6,27.8-39.9,51-67.6,67.6l-13.2-22.8c-0.7-1.2-2.3-1.6-3.6-1c-1.2,0.7-1.6,2.3-1,3.6l13.2,22.8C267.5,385,236,394,202.5,394.4
		V368c0-1.5-1.2-2.6-2.6-2.6s-2.6,1.2-2.6,2.6v26.4c-33.5-0.4-65-9.3-92.4-24.7l13.2-22.8c0.7-1.2,0.3-2.9-1-3.6s-2.9-0.3-3.6,1
		L100.3,367c-27.8-16.6-51-39.9-67.6-67.6l22.8-13.2c1.2-0.7,1.6-2.3,1-3.6c-0.7-1.2-2.3-1.6-3.6-1l-22.8,13.2
		C14.7,267.5,5.8,236,5.4,202.5h26.4c1.5,0,2.6-1.2,2.6-2.6c0-1.5-1.2-2.6-2.6-2.6H5.2c0.4-33.5,9.3-65,24.7-92.4l22.8,13.2
		c0.4,0.3,0.8,0.4,1.4,0.4c1,0,1.8-0.4,2.3-1.4c0.7-1.2,0.3-2.9-1-3.6l-22.8-13.2c16.6-27.8,39.9-51,67.6-67.6l13.2,22.8
		c0.5,0.8,1.4,1.4,2.3,1.4c0.4,0,1-0.1,1.4-0.4c1.2-0.7,1.6-2.3,1-3.6l-13.5-22.8c27.4-15.4,58.8-24.3,92.4-24.7v26.4
		c0,1.5,1.2,2.6,2.6,2.6s2.6-1.2,2.6-2.6V5.2c33.5,0.4,65,9.3,92.4,24.7l-13.2,22.8c-0.7,1.2-0.3,2.9,1,3.6c0.4,0.3,0.8,0.4,1.4,0.4
		c1,0,1.8-0.4,2.3-1.4l13.2-22.8c27.8,16.6,51,39.9,67.6,67.6l-22.8,13.2c-1.2,0.7-1.6,2.3-1,3.6c0.5,0.8,1.4,1.4,2.3,1.4
		c0.4,0,1-0.1,1.4-0.4l22.8-13.2c15.4,27.4,24.3,58.8,24.7,92.4h-26.4c-1.5,0-2.6,1.2-2.6,2.6c0,1.5,1.2,2.6,2.6,2.6h26.4
		C394,236,385,267.5,369.6,294.8z"/>
	
		<linearGradient id="XMLID_5_" gradientUnits="userSpaceOnUse" x1="198.4192" y1="275.6522" x2="198.4192" y2="123.6247" gradientTransform="matrix(1 0 0 -1 0 402.8)">
		<stop  offset="0" style="stop-color:#2F4AE8"/>
		<stop  offset="1.057398e-02" style="stop-color:#3249E9"/>
		<stop  offset="0.1494" style="stop-color:#573BEF"/>
		<stop  offset="0.2946" style="stop-color:#762FF5"/>
		<stop  offset="0.4461" style="stop-color:#8E26F9"/>
		<stop  offset="0.6065" style="stop-color:#9F20FD"/>
		<stop  offset="0.7818" style="stop-color:#A91CFE"/>
		<stop  offset="1" style="stop-color:#AC1BFF"/>
	</linearGradient>
	<path id="XMLID_1_" class="st2" d="M95.4,188.5v-46.9L82.7,148v-12.1l14-7.6h10.7v60.1L95.4,188.5L95.4,188.5z M130.7,185.2
		c-8-5.9-12-15.7-12-26.8c0-5.6,1-10.6,2.9-15.3c4-9.3,12.4-15.9,23-15.9c7.8,0,14.2,3,18.8,9.2c4.7,6,7,13.5,7,22
		c0,8.5-2.3,15.9-7,22c-4.7,6-10.9,9.2-18.8,9.2C139.4,189.7,134.8,188.2,130.7,185.2z M144.7,178c4.1,0,7.4-1.9,9.8-5.6
		c2.5-3.8,3.7-8.5,3.7-14c0-5.5-1.2-10.2-3.7-13.9c-2.3-3.8-5.6-5.8-9.8-5.8c-4.1,0-7.4,1.9-9.9,5.8c-2.5,3.7-3.7,8.4-3.7,13.9
		c0,5.5,1.2,10.2,3.7,14C137.3,176.2,140.6,178,144.7,178z M178.8,153.5c0-4.1,3.3-7.4,7.4-7.4c4.1,0,7.4,3.3,7.4,7.4
		c0,4.3-3.3,7.6-7.4,7.6C182.1,161.1,178.8,157.8,178.8,153.5z M178.8,181.9c0-4.1,3.3-7.4,7.4-7.4c4.1,0,7.4,3.3,7.4,7.4
		c0,4.3-3.3,7.6-7.4,7.6C182.1,189.4,178.8,186.1,178.8,181.9z M213.9,185.2c-8-5.9-12-15.7-12-26.8c0-5.6,1-10.6,2.9-15.3
		c4-9.3,12.4-15.9,23-15.9c7.8,0,14.2,3,18.8,9.2c4.7,6,7,13.5,7,22c0,8.5-2.3,15.9-7,22c-4.7,6-10.9,9.2-18.8,9.2
		C222.5,189.7,217.9,188.2,213.9,185.2z M227.8,178c4.1,0,7.4-1.9,9.8-5.6c2.5-3.8,3.7-8.5,3.7-14c0-5.5-1.2-10.2-3.7-13.9
		c-2.3-3.8-5.6-5.8-9.8-5.8c-4.1,0-7.4,1.9-9.9,5.8c-2.5,3.7-3.7,8.4-3.7,13.9c0,5.5,1.2,10.2,3.7,14
		C220.5,176.2,223.6,178,227.8,178z M274.4,185.2c-8-5.9-12-15.7-12-26.8c0-5.6,1-10.6,2.9-15.3c4-9.3,12.4-15.9,23-15.9
		c7.8,0,14.2,3,18.8,9.2c4.7,6,7,13.5,7,22c0,8.5-2.3,15.9-7,22c-4.7,6-10.9,9.2-18.8,9.2C283,189.7,278.4,188.2,274.4,185.2z
		 M288.4,178c4.1,0,7.4-1.9,9.8-5.6c2.5-3.8,3.7-8.5,3.7-14c0-5.5-1.2-10.2-3.7-13.9c-2.3-3.8-5.6-5.8-9.8-5.8s-7.4,1.9-9.9,5.8
		c-2.5,3.7-3.7,8.4-3.7,13.9c0,5.5,1.2,10.2,3.7,14C281,176.2,284.3,178,288.4,178z M95.4,277.9v-46.7l-12.6,6.5v-12.1l14-7.6h10.7
		v59.9H95.4z M146.5,277.9v-15h-30.1V254l30-36.2h12.2v35.1h8.8v9.9h-8.8v15.1H146.5z M130,253.1h16.5v-19.5L130,253.1z M173.3,243
		c0-4.1,3.3-7.4,7.4-7.4c4.1,0,7.4,3.3,7.4,7.4c0,4.3-3.3,7.6-7.4,7.6C176.6,250.6,173.3,247.3,173.3,243z M173.3,271.3
		c0-4.1,3.3-7.4,7.4-7.4c4.1,0,7.4,3.3,7.4,7.4c0,4.3-3.3,7.6-7.4,7.6C176.6,278.9,173.3,275.6,173.3,271.3z M208.4,274.8
		c-8-5.9-12-15.7-12-26.8c0-5.6,1-10.6,2.9-15.3c4-9.3,12.4-15.9,23-15.9c7.8,0,14.2,3,18.8,9.2c4.7,6,7,13.5,7,22
		c0,8.5-2.3,15.9-7,22c-4.7,6-10.9,9.2-18.8,9.2C217,279.2,212.4,277.8,208.4,274.8z M222.3,267.6c4.1,0,7.4-1.9,9.8-5.6
		c2.5-3.8,3.7-8.5,3.7-14c0-5.5-1.2-10.2-3.7-13.9c-2.3-3.8-5.6-5.8-9.8-5.8c-4.1,0-7.4,1.9-9.9,5.8c-2.5,3.7-3.7,8.4-3.7,13.9
		c0,5.5,1.2,10.2,3.7,14C215,265.7,218.3,267.6,222.3,267.6z M268.9,274.8c-8-5.9-12-15.7-12-26.8c0-5.6,1-10.6,2.9-15.3
		c4-9.3,12.4-15.9,23-15.9c7.8,0,14.2,3,18.8,9.2c4.7,6,7,13.5,7,22c0,8.5-2.3,15.9-7,22c-4.7,6-10.9,9.2-18.8,9.2
		C277.5,279.2,272.9,277.8,268.9,274.8z M282.9,267.6c4.1,0,7.4-1.9,9.8-5.6c2.5-3.8,3.7-8.5,3.7-14c0-5.5-1.2-10.2-3.7-13.9
		c-2.3-3.8-5.6-5.8-9.8-5.8c-4.1,0-7.4,1.9-9.9,5.8c-2.5,3.7-3.7,8.4-3.7,13.9c0,5.5,1.2,10.2,3.7,14
		C275.5,265.7,278.8,267.6,282.9,267.6z"/>
</g>
</svg>
