<?xml version="1.0" encoding="utf-8"?>
<!-- Generator: Adobe Illustrator 20.1.0, SVG Export Plug-In . SVG Version: 6.00 Build 0)  -->
<svg version="1.1" id="Layer_1" xmlns="http://www.w3.org/2000/svg" xmlns:xlink="http://www.w3.org/1999/xlink" x="0px" y="0px"
	 viewBox="0 0 400 400" style="enable-background:new 0 0 400 400;" xml:space="preserve">
<style type="text/css">
	.st0{clip-path:url(#SVGID_2_);}
	.st1{fill:url(#XMLID_3_);}
	.st2{fill:url(#XMLID_4_);}
	.st3{fill:url(#XMLID_5_);}
</style>
<g>
	<g id="XMLID_7059_">
		<g>
			<defs>
				<path id="SVGID_1_" d="M196.7,60.7c-51.6,0-96.6,28.1-120.6,69.6l0,0l120.6,69.6l69.6,120.6l0,0c41.7-24.1,69.6-69.1,69.6-120.6
					C336,123,273.6,60.7,196.7,60.7z"/>
			</defs>
			<clipPath id="SVGID_2_">
				<use xlink:href="#SVGID_1_"  style="overflow:visible;"/>
			</clipPath>
			<g id="XMLID_7062_" class="st0">
				
					<linearGradient id="XMLID_3_" gradientUnits="userSpaceOnUse" x1="208.4594" y1="507.2017" x2="208.4594" y2="52.0435" gradientTransform="matrix(1 0 0 -1 0 402.8)">
					<stop  offset="0" style="stop-color:#2F4AE8"/>
					<stop  offset="4.975450e-02" style="stop-color:#3847EA"/>
					<stop  offset="0.3624" style="stop-color:#6934F3"/>
					<stop  offset="0.6362" style="stop-color:#8E26F9"/>
					<stop  offset="0.858" style="stop-color:#A41EFE"/>
					<stop  offset="1" style="stop-color:#AC1BFF"/>
				</linearGradient>
				<path id="XMLID_7063_" class="st1" d="M197,350.8l-0.4-0.8H27.1v-0.1h-7.3v0.1h-8.1v-0.1H1.9v0.1h-5.8v-0.1H-16v0.1h-49.5
					l7.7-12.7l0,0l7.7-12.7v-0.1l0.7-0.8l0,0h0.1l7-11.6h-0.1l1.2-2.1l0,0l6.9-11.3l2.3-3.7l5.4-8.9l0,0l3.3-5.5l0,0l4.3-7l0,0
					l4.7-7.7l0,0l2.2-3.7l0,0l6.6-10.9v-0.1l1.7-2.6l0,0l7.6-12.2l7-11.8l0,0l1.7-2.6v-0.1l6.6-10.9h0.1l2.9-5v0.1l4.5-7.6l4.4-7.4
					v0.1l8.5-14l2.3-4.1H42l6.9-11.4h-0.1l8.3-13.6h0.1v-0.1l0.6-1l0,0l7-11.6l0,0l1.2-2.1v-0.1l6.3-10.3l3.3-5.6v0.1l3.7-6.2h-0.1
					l5.4-8.7l0,0l2.3-3.9l0,0l6.6-10.9v0.1l1-1.7l0,0l7.7-12.7l0,0l7.6-12.7h-0.1l8.3-13.6h0.1l1.7-2.6v-0.1l5.9-9.8h0.1l3.6-6.1
					l0,0L138,14v0.1l2.2-3.6l0,0L147-0.8v0.1l0.7-1.1l0,0l7.6-12.7h-0.1l8.3-13.6h0.1l0.6-1.1l0,0l0.6-1l0,0l5.6-9.4l0,0l8.3-13.6
					l4-6.6l0,0l3-5l0,0l5.9-9.8l0,0l1.8-2.9l0,0l7.2-12v0.1l0.4-0.7h-0.1l8.7-14.6l7.7,12.8l0.1-0.1l7.6,12.8l0,0l7.6,12.7l0,0
					l0.6,1l0,0l6.9,11.6h0.1l0.7,1.2v0.1l6.7,11.3h0.1l0.8,1.4v0.1l6.6,11h0.1l0.3,0.6l0,0l0.6,1l0,0l6.6,11h0.1l1.1,1.8v0.1
					l7.7,12.8l0,0l6.3,10.5h0.1l0.7,1.1l0,0l0.6,1l0,0l6.9,11.6l0,0l0.1,0.3l0,0l0.6,1l0,0l6.2,10.3h0.1l1.5,2.5v0.1l5.6,10h0.1
					l1,1.7l0,0l0.6,1l0,0l7.7,12.7l0,0l5.9,9.8h0.1l1.1,1.9l0,0l8.3,13.9v0.1l7.7,12.8v0.1l5.5,9.1h0.1l2.1,3.4l-0.1,0.1l6.1,10l0,0
					l7.7,12.7h-0.1l1.1,1.8l0,0l6.6,10.7h-0.1l1.2,1.9l0,0l6.5,10.7l0,0l7.7,12.7h-0.1l1.4,2.3l0,0l6.2,10.2H384l9.9,16.2l0,0
					l5.5,8.9h-0.3l1.7,2.8l0,0l5.9,9.8h-0.1l10,16.5h-0.1l0.1,0.3l0,0l7.2,11.7l0,0l5.6,9.4h-0.1l7.6,12.7h-0.1l2.2,3.7l0,0l0.7,1
					l0,0l4.8,7.8l0,0l2.3,3.9l0,0l0.7,1l0,0l4.7,7.7H452l7.6,12.7h-0.1l2.6,4.1l0,0l5.1,8.4l0,0l2.6,4.4l0,0l0.7,1l0,0l4.4,7.2l0,0
					l3.3,5.5l0,0l4.3,7h-9.8l0.1-0.3h-8.4l0.1,0.3h-7.3v-0.1h-10.6v0.1h-4.8v-0.1h-12.9l0.1,0.1H242.2v-0.1h-8.9v0.1h-6.6v-0.1
					h-11.4v0.1h-18.2L197,350.8z M474.6,348.8h5.9l-3-5L474.6,348.8z M459.1,348.8h3.6l-1.8-2.9L459.1,348.8z M443.9,348.8h1.1
					l-0.6-0.8L443.9,348.8z M413.1,348.8h14l-6.9-11.6h-0.1L413.1,348.8z M410.5,348.8h1.4l7-11.6h-14.2l-0.4,0.7v0.1v0.1
					L410.5,348.8z M397.8,348.8h11.4l-5.6-9.6L397.8,348.8z M392.8,348.8h3.6l6.5-10.7l-0.6-0.8h-13.1l-1.7,2.9L392.8,348.8z
					 M382.4,348.8h9.1l-4.5-7.6L382.4,348.8z M375.1,348.8h5.9l5.2-8.8l-1.8-2.8h-10.6l-3,4.8L375.1,348.8z M367,348.8h6.9l-3.4-5.6
					L367,348.8z M357.2,348.8h8.4l4-6.7l-2.9-4.8h-8.3l-4.1,6.7L357.2,348.8z M351.7,348.8h4.3l-2.1-3.6L351.7,348.8z M339.5,348.8
					h10.9l2.8-4.7l-4-6.9h-5.8l-5.4,8.9L339.5,348.8z M336.3,348.8h1.8l-1-1.5L336.3,348.8z M321.7,348.8h13.2l1.7-2.6l0,0l0,0
					l-5.4-8.9h-3.4l-6.5,10.9L321.7,348.8z M305.5,348.8h14.2l0.4-0.7l-6.6-10.9h-1L305.5,348.8z M303.9,348.8h0.4l7-11.6h-14.2l0,0
					l0,0l0,0L303.9,348.8z M290.2,348.8h12.4l-6.1-10.2L290.2,348.8z M274.8,348.8h10l-5-8.3L274.8,348.8z M259.4,348.8h7.6
					l-3.9-6.3L259.4,348.8z M244.2,348.8h5.2l-2.6-4.3L244.2,348.8z M228.7,348.8h2.8l-1.4-2.2L228.7,348.8z M197.9,348.8h14
					l0.7-1.2l-6.1-10.3h-1.8L197.9,348.8z M182.7,348.8h13.2l-6.6-11L182.7,348.8z M179.4,348.8h1.9l7-11.6h-14.2l-0.8,1.5
					L179.4,348.8z M167.4,348.8h10.7l-5.4-9.1L167.4,348.8z M161.6,348.8h4.4l6.1-10l-1-1.5h-12.2l-2.1,3.4v0.1v0.1L161.6,348.8z
					 M152,348.8h8.3l-4.1-6.9L152,348.8z M143.9,348.8h6.9l4.8-8.1l-2.1-3.4h-9.9l-3.3,5.5L143.9,348.8z M136.5,348.8h5.9l-3-5
					L136.5,348.8z M126,348.8h9.2l3.6-6.1l-3.3-5.5h-7.3l-4.5,7.6L126,348.8z M121.2,348.8h3.6l-1.8-3L121.2,348.8z M108.3,348.8
					h11.6l2.5-4l-4.4-7.6h-5l-5.8,9.5L108.3,348.8z M105.8,348.8h1.1l-0.6-1L105.8,348.8z M90.4,348.8h14l1.2-2.1l-5.8-9.5h-2.6
					L90.4,348.8z M75.1,348.8h14l0,0v-0.1l-6.9-11.4H82L75.1,348.8z M59.7,348.8h11.7l-5.8-9.6L59.7,348.8z M44.3,348.8h9.2
					l-4.5-7.6L44.3,348.8z M29,348.8h6.7l-3.4-5.6L29,348.8z M13.6,348.8H18l-2.2-3.6L13.6,348.8z M-1.8,348.8h2.1l-1-1.7
					L-1.8,348.8z M-32.5,348.8h14.2l0.4-0.7l-6.5-10.9h-1.1L-32.5,348.8z M-34.1,348.8h0.4l7-11.6h-14.2l-0.1,0.1L-34.1,348.8z
					 M-47.9,348.8h12.5l-6.2-10.5l-0.1,0.1l0,0L-47.9,348.8z M-52,348.8h2.8l6.9-11.4l0,0l0,0l0,0h-13.9l-1.2,2.1L-52,348.8z
					 M-63.3,348.8h10l-5-8.4L-63.3,348.8z M19.4,348.7h8.4l4-6.6l-2.9-4.8h-8.3l-4.1,6.7L19.4,348.7z M446.1,348.7h11.8l2.3-4
					l-4.4-7.6h-5l-5.8,9.5v0.1v0.1L446.1,348.7z M428.5,348.7h14.2l1.1-1.8l0,0l0,0l-5.8-9.5h-2.6L428.5,348.7z M286.1,348.7h2.9
					l6.7-11.1l0,0l0,0l-0.1-0.1h-14l-1.2,2.1L286.1,348.7z M268.2,348.7h5.4l5.6-9.4l-1.4-2.1h-11.4l-2.6,4.3L268.2,348.7z
					 M250.6,348.7h7.7l4.4-7.3l0,0v-0.1l-2.5-4h-9.1l-3.7,6.2L250.6,348.7z M232.7,348.7h10l3.2-5.4l-3.6-6.2h-6.6l-5,8.3
					L232.7,348.7z M214.9,348.7h12.5l2.1-3.3l-4.8-8.1h-4.3l-6.2,10.2L214.9,348.7z M72.6,348.7h1.2l6.9-11.4h-14l-0.6,0.8
					L72.6,348.7z M54.7,348.7h3.6l6.5-10.7l0,0l0,0l-0.4-0.7H51.2l-1.7,2.6v0.1v0.1L54.7,348.7z M37.1,348.7h6.1l5.2-8.7l-1.8-2.8
					H35.9l-2.9,4.8L37.1,348.7z M1.5,348.7h10.9l2.9-4.7l-4.1-6.7H5.2l-5.4,8.8l0,0l0,0L1.5,348.7z M-16.4,348.7H-3l1.7-2.6
					l-5.2-8.8h-3.6l-6.6,10.9L-16.4,348.7z M463.8,348.6h9.4l3.7-5.8l-3.3-5.5h-7.4l-4.5,7.6L463.8,348.6z M190.2,337.3l6.6,11.1
					l6.7-11.1H190.2z M421.5,337.3l6.3,10.6l6.3-10.6H421.5z M83.5,337.3l6.2,10.5l6.3-10.5H83.5z M314.7,337.3l5.9,9.9l5.9-9.9
					H314.7z M-23.2,337.3l5.9,9.8l5.9-9.8H-23.2z M208,337.3l5.5,9.2l5.5-9.2H208z M439.2,337.3l5.1,8.4l5.1-8.4H439.2z
					 M101.4,337.3l5.1,8.4l5.1-8.4H101.4z M332.6,337.3l4.7,7.8l4.7-7.8H332.6z M-5.4,337.3l4.7,7.7l4.7-7.7H-5.4z M225.9,337.3
					l4.3,7l4.3-7H225.9z M119.1,337.3l3.9,6.5l4-6.5H119.1z M456.9,337.3l3.9,6.3l3.9-6.3H456.9z M350.3,337.3l3.6,5.9l3.6-5.9
					H350.3z M12.2,337.3l3.6,5.8l3.6-5.8H12.2z M243.6,337.3l3,5.1l3-5.1H243.6z M136.9,337.3l2.6,4.5l2.6-4.5H136.9z M368.1,337.3
					l2.2,3.9l2.3-3.9H368.1z M30.3,337.3l2.2,3.7l2.2-3.7H30.3z M261.3,337.3l1.9,3l1.9-3H261.3z M154.6,337.3l1.5,2.3l1.5-2.3
					H154.6z M385.8,337.3l1.1,1.8l1.1-1.8H385.8z M48,337.3l1,1.7l1-1.7H48z M279.2,337.3l0.7,1.1l0.7-1.1H279.2z M456.4,336.2h8.9
					V336h0.1l3.7-6.1l-3.3-5.4h-7.6l-4.4,7.4L456.4,336.2z M451.4,336.2h3.7l-1.8-3.2L451.4,336.2z M438.5,336.2h11.6l2.5-4.1
					l-4.4-7.4h-5.1l-5.6,9.4v0.1v0.1L438.5,336.2z M436.2,336.2h1.2l-0.6-1L436.2,336.2z M420.9,336.2h13.9l1.2-2.1l0,0l0,0
					l-5.6-9.5h-2.8l-0.1,0.1L420.9,336.2L420.9,336.2z M405.2,336.2h14.2l0.1-0.1l-6.9-11.4h-0.3l-0.1,0.1L405.2,336.2z M403,336.2
					h1.1l6.9-11.4h-14l-0.3,0.4l0,0l-0.1,0.1L403,336.2z M390,336.2h11.7l-5.8-9.8L390,336.2z M374.6,336.2h9.4l-4.7-7.7
					L374.6,336.2z M359.1,336.2h7l-3.6-5.8L359.1,336.2z M343.9,336.2h4.5l-2.2-3.7L343.9,336.2z M328.5,336.2h2.2l-1.1-1.8l0,0l0,0
					L328.5,336.2z M297.7,336.2h14.2l0.6-0.8l-6.3-10.7h-0.1v-0.1h-1l-0.1,0.1L297.7,336.2z M278.5,336.2h2.3V336h0.3l6.9-11.4h-14
					l-1.1,2.1l0,0l0,0L278.5,336.2z M267.1,336.2h10l-5.1-8.4L267.1,336.2z M260.7,336.2h5l5.8-9.6l-1.2-1.9h-11.7l-2.3,4v0.1v0.1
					L260.7,336.2z M251.7,336.2h7.7l-3.9-6.3L251.7,336.2z M243.1,336.2h7.3l4.5-7.6l-2.3-4h-9.2l-3.6,6.1L243.1,336.2z
					 M236.3,336.2h5.4l-2.6-4.5L236.3,336.2z M225.2,336.2h9.8l3.3-5.5l-3.6-6.1h-6.7v0.1l0,0l-4.8,7.8L225.2,336.2z M221,336.2h2.9
					l-1.5-2.3L221,336.2z M219.7,336.2l2.1-3.4l-4.8-8.1h-4.4v0.1l0,0l-5.9,9.9l1,1.5L219.7,336.2L219.7,336.2z M190.2,336.2h14
					l0.8-1.5l-5.9-9.9l0,0v-0.1h-1.9L190.2,336.2z M174.8,336.2h13.5l-6.7-11.1L174.8,336.2z M159.6,336.2h11l-5.5-9.2L159.6,336.2z
					 M144.2,336.2h8.7l-4.4-7.2L144.2,336.2z M136.2,336.2h6.7l4.8-8.1l-2.1-3.3h-10l-3.2,5.4L136.2,336.2z M128.7,336.2h6.2l-3-5.1
					L128.7,336.2z M113.5,336.2h3.9l-1.9-3.2L113.5,336.2z M98.1,336.2h1.4l-0.7-1.1L98.1,336.2z M82.9,336.2h13.8l1.2-2.1l-5.6-9.5
					h-2.8l-6.9,11.3L82.9,336.2z M65.1,336.2h0.8V336H66l6.9-11.3h-14l-0.3,0.6L65.1,336.2z M52,336.2h12l-5.9-9.9L52,336.2z
					 M47.3,336.2h3.4l6.6-10.9l0,0l0,0l-0.3-0.6H43.7l-1.7,2.6L47.3,336.2z M46.1,336.2L46.1,336.2l-4.7-7.8l-4.7,7.8H46.1z
					 M35.4,336.2L35.4,336.2l5.4-8.9l-1.5-2.5h-0.1v-0.1H28.3l-2.8,4.7l0,0l0,0l4.1,6.9H35.4z M21.3,336.2h6.9l-3.4-5.8L21.3,336.2z
					 M11.8,336.2h8.3l4.1-6.9l-2.9-4.7h-8.3v0.1h-0.1l-4,6.6L11.8,336.2z M5.8,336.2h4.5L8,332.5L5.8,336.2z M-6.1,336.2H4.5l2.9-5
					l-4-6.6h-5.9v0.1l0,0l-5.1,8.5L-6.1,336.2z M-9.5,336.2h2.2l-1.1-1.8L-9.5,336.2z M-23.8,336.2h12.9l1.7-2.9l-5.1-8.7h-3.6
					l-6.5,10.7L-23.8,336.2z M-40.3,336.2h14l0.6-0.8l-6.3-10.6h-1.4L-40.3,336.2z M-55.6,336.2h12.8l-6.3-10.6L-55.6,336.2z
					 M466.9,336h6.1l-3-5L466.9,336z M385.3,336h3.4l6.5-10.7l-0.4-0.7h-13.1v0.1h-0.1l-1.5,2.6L385.3,336z M367.4,336h5.9l5.4-8.8
					l-1.7-2.6h-10.7v0.1l-2.9,4.7L367.4,336z M349.7,336h8.3l4.1-6.7l-2.9-4.7h-8.4l-4.1,6.7L349.7,336z M331.8,336h10.7l2.9-4.8
					l-4-6.7h-5.9l-5.4,8.8L331.8,336z M314,336h13.2l1.7-2.8l-5.2-8.7h-0.1v-0.1h-3.4l-6.5,10.7L314,336z M296.3,336h0.1l6.9-11.3
					h-14L296,336H296.3z M282.5,336h12.4l-6.2-10.3L282.5,336z M171.8,336h1.8l6.9-11.3h-14l-0.7,1.2L171.8,336z M154.1,336h4.3
					l6.1-10l-0.8-1.4h-12.4l-2.1,3.4L154.1,336z M118.4,336h9.1l3.7-6.1l-3.3-5.4h-7.6l-4.4,7.3L118.4,336z M100.7,336h11.4l2.6-4.1
					l-4.4-7.3h-5.2v0.1l0,0l-5.5,9.2L100.7,336z M67.4,336h14v-0.1l-6.7-11.3h-0.4L67.4,336z M-41.7,336L-41.7,336l7-11.3h-13.9
					L-41.7,336z M182.8,324.8l6.5,10.9l6.6-10.9H182.8z M413.9,324.8l6.2,10.3l6.2-10.3H413.9z M75.9,324.6l6.1,10.2l6.2-10.2H75.9z
					 M307.2,324.8l5.8,9.6l5.8-9.6H307.2z M-30.8,324.8l5.8,9.5l5.8-9.6L-30.8,324.8L-30.8,324.8L-30.8,324.8z M200.6,324.8l5.4,8.9
					l5.4-8.9H200.6z M431.6,324.6l5.1,8.4l5.1-8.4H431.6z M93.8,324.8l5,8.3l5-8.3H93.8z M325,324.8l4.5,7.6l4.5-7.6H325z
					 M-12.9,324.8l4.5,7.6l4.5-7.6H-12.9z M218.3,324.8l4.1,6.9l4.1-6.9H218.3z M449.5,324.6l3.7,6.3l3.9-6.3H449.5z M111.6,324.6
					l3.9,6.3l3.9-6.3H111.6z M344.8,328.2l1.4,2.2l3.4-5.6h-6.9L344.8,328.2z M4.8,324.8l3.3,5.5l3.3-5.5H4.8z M236,324.8l2.9,5
					l2.9-5H236z M129.4,324.8l2.5,4.3l2.5-4.3H129.4z M361.3,326l1.4,2.3l2.2-3.6h-4.3L361.3,326z M22.7,324.8l2.1,3.4l2.1-3.4H22.7
					z M253.8,324.6l1.8,2.9l1.8-2.9H253.8z M147.2,324.6l1.4,2.2l1.4-2.2H147.2z M379,325.9l0.3,0.6l1-1.7h-1.9L379,325.9z
					 M40.4,324.8l1,1.5l1-1.5H40.4z M271.5,324.6l0.6,1l0.6-1H271.5z M377.7,323.7h3.2v-0.1l6.7-11l-0.3-0.4h-13.5l-1.5,2.5
					L377.7,323.7z M360,323.7h5.6l5.5-9.1l-1.5-2.5h-11l-2.8,4.5L360,323.7z M342.2,323.7h8l4.3-7.2l-2.6-4.4h-8.7l-3.9,6.5
					L342.2,323.7z M324.3,323.7h10.3l3-5l-3.9-6.6h-6.2l-5.1,8.5L324.3,323.7z M164.2,323.7h1.2v-0.3h0.4l6.9-11.3h-14.2l-0.7,1.1
					L164.2,323.7z M128.7,323.7h6.3l5.1-8.5l-1.9-3h-10.3l-3,5.2L128.7,323.7L128.7,323.7L128.7,323.7z M458.9,323.5h6.3l-3.2-5.2
					L458.9,323.5z M448.8,323.5h8.8l3.9-6.2l-3.2-5.2h-7.8l-4.3,7.2L448.8,323.5z M443.7,323.5h3.9l-1.9-3.2L443.7,323.5z
					 M431.1,323.5h11.3l2.6-4.3l-4.3-7.2h-5.4l-5.6,9.2L431.1,323.5z M428.3,323.5h1.4l-0.7-1.1L428.3,323.5z M427.1,323.5
					L427.1,323.5l1.4-2.2v-0.1l0,0L423,312h-3.2l-6.7,11.1v0.1l0,0l0.1,0.1h13.9V323.5z M397.7,323.5h14l0.1-0.3l-6.7-11.3h-0.4
					L397.7,323.5z M396.3,323.5L396.3,323.5l6.9-11.4H389l-0.3,0.4l0.1,0.1l0,0l6.5,10.9H396.3z M382.4,323.5h11.8l-5.9-9.9
					L382.4,323.5z M366.9,323.5h9.5l-4.8-8L366.9,323.5z M351.6,323.5h7l-3.6-5.8L351.6,323.5z M336,323.5h4.7l-2.3-3.9L336,323.5z
					 M320.8,323.5h2.2l-1.1-1.8L320.8,323.5z M306.5,323.5h12.9l1.8-2.9l-5.1-8.5h-3.9l-6.3,10.5L306.5,323.5z M304.1,323.5
					L304.1,323.5l0.6-0.8l0,0v-0.1l-6.3-10.5H297l-6.9,11.4L304.1,323.5L304.1,323.5z M288.7,323.5L288.7,323.5l6.9-11.4h-13.9
					L288.7,323.5z M274.7,323.5h12.8l-6.3-10.6L274.7,323.5z M271,323.5h2.3l7-11.4h-14.2l-1.1,1.8l0,0l0,0L271,323.5z M259.3,323.5
					h10.3l-5.1-8.5L259.3,323.5z M253.2,323.5h4.8l5.8-9.6l-1.1-1.8h-11.8l-2.3,3.9L253.2,323.5z M243.9,323.5h7.8l-4-6.5
					L243.9,323.5z M235.4,323.5h7.3l4.5-7.7l-2.2-3.7h-9.5l-3.4,5.8L235.4,323.5z M228.6,323.5h5.5l-2.8-4.7L228.6,323.5z
					 M227.2,323.5L227.2,323.5l3.4-5.6l-3.4-5.8h-7l-4.7,7.8l2.2,3.7h9.5V323.5z M213.2,323.5h3l-1.5-2.6L213.2,323.5z M212,323.5
					l2.2-3.7l-4.7-7.8h-4.7l-5.9,9.8l1,1.7H212V323.5z M197.9,323.5h0.7l-0.4-0.6L197.9,323.5L197.9,323.5z M182.4,323.5h14l1-1.7
					l-5.8-9.9h-2.2L182.4,323.5z M151.7,323.5h11.1l-5.6-9.2L151.7,323.5L151.7,323.5z M146.5,323.5h4l6.2-10.3l-0.7-1.1h-12.7
					l-1.8,3L146.5,323.5z M136.5,323.5h8.7l-4.3-7.2L136.5,323.5z M121,323.5h6.3l-3.2-5.2L121,323.5z M111,323.5h8.7l3.9-6.5
					l-3-5.1h-8l-4.3,7.2L111,323.5z M105.6,323.5h4l-1.9-3.3L105.6,323.5z M104.3,323.5L104.3,323.5l2.6-4.3l-4.3-7.2h-5.5l-5.4,9.1
					l1.4,2.3H104.3z M90.4,323.5h1.4l-0.7-1.2L90.4,323.5z M75.4,323.5H89l1.4-2.3l-5.4-9.1h-3.2l-6.7,11L75.4,323.5z M59.6,323.5
					h14.2l0.1-0.3L67.1,312h-0.7L59.6,323.5z M57.6,323.5h0.7l6.9-11.4h-14l-0.3,0.4L57.6,323.5z M44.2,323.5h12l-6.1-9.9
					L44.2,323.5z M39.8,323.5h3.2l6.6-11l-0.3-0.6H35.6l-1.4,2.3L39.8,323.5z M28.9,323.5h9.5l-4.7-7.8L28.9,323.5z M27.6,323.5
					L27.6,323.5l5.4-8.9l-1.5-2.5H20.4l-2.6,4.4l4.3,7L27.6,323.5L27.6,323.5z M13.6,323.5h7l-3.6-5.9L13.6,323.5z M4.1,323.5h8.1
					l4.3-7l-2.6-4.4H5.2l-3.9,6.5L4.1,323.5z M-1.8,323.5h4.7l-2.3-4L-1.8,323.5z M-13.6,323.5h10.5l3-5.1l-3.9-6.3h-6.3l-5.1,8.4
					L-13.6,323.5z M-17.2,323.5h2.3l-1.2-2.1L-17.2,323.5z M-18.6,323.5L-18.6,323.5l1.9-3l-5.1-8.5h-3.9v0.1l-6.3,10.5l0.7,1.1
					h12.7V323.5z M-48,323.5h14.2l0.6-0.8l-6.3-10.6H-41L-48,323.5z M167.3,323.5h13.3l-6.6-11.1L167.3,323.5z M181.6,322.7l0.1,0.1
					l6.5-10.7h-13.1l6.5,10.7V322.7z M406.3,312.1l6.1,10.2l6.1-10.2H406.3z M68.4,312.1l6.1,10l6.2-10H68.4z M299.7,312.1l5.6,9.5
					l5.6-9.5H299.7z M-38.2,312.1l5.5,9.4l5.6-9.4H-38.2z M192.8,312.1l5.2,8.8v-0.1l0,0l5.2-8.8h-10.5V312.1z M424.2,312.1l4.8,8.1
					l5-8.1H424.2z M86.2,312.1l4.8,8.1l4.8-8.1H86.2z M317.5,312.1l4.4,7.4l4.5-7.4H317.5z M-20.5,312.1l4.4,7.4l4.4-7.4H-20.5z
					 M214.7,318.8L214.7,318.8l4.1-6.7h-8.3L214.7,318.8L214.7,318.8z M441.8,312.1l3.7,6.2l3.6-6.2H441.8z M104,312.1l3.6,6.1
					l3.7-6.1H104z M-2.8,312.1l3.3,5.5l3.3-5.5H-2.8z M335.2,312.1l3.3,5.4l3.3-5.4H335.2z M228.5,312.1l2.9,4.8l0,0l0,0l2.9-4.7
					h-5.8V312.1z M121.9,312.1l2.5,4.1l2.5-4.1H121.9z M353.1,312.1l1.9,3.4l2.1-3.4H353.1z M15,312.1l2.1,3.3l0,0l0,0l2.1-3.3H15z
					 M246.2,312.1l1.7,2.8l1.7-2.8H246.2z M140.4,313.5l0.4,0.6l1.2-2.1h-2.5L140.4,313.5z M371,312.5l0.7,1.1l0.8-1.4h-1.7
					L371,312.5z M32.7,312.1l0.8,1.4l0.8-1.4H32.7z M264.1,312.1l0.4,0.7l0.4-0.7H264.1z M451.2,311h6.6l-3.3-5.5L451.2,311z
					 M441.3,311h8.7l3.9-6.5l-3-5.1h-8l-4.3,7.2L441.3,311z M435.9,311h4.1l-2.1-3.4L435.9,311z M423.4,311h11.1l2.6-4.4l-4.3-7.2
					h-5.5l-5.4,8.9l0,0l-0.1,0.1L423.4,311z M420.5,311h1.7l-0.8-1.4L420.5,311z M374.4,311h12.2l-6.1-10L374.4,311z M359.1,311h9.8
					v-0.1l0,0l-4.8-8.1L359.1,311z M343.7,311h7.3l-3.7-6.2L343.7,311z M328.3,311h5l-2.5-4.1L328.3,311z M312.9,311h2.5l-1.2-2.1
					L312.9,311z M267,311h12.9l-6.5-10.7v0.1v-0.1L267,311z M263.5,311h2.2l7-11.6h-14.2l-1,1.7l0,0l0,0L263.5,311z M251.6,311h10.6
					l-5.2-8.8L251.6,311z M245.7,311h4.5l5.9-9.9l-1.1-1.7h-12l-2.2,3.7L245.7,311z M236.2,311h8.3l-4.1-6.7L236.2,311z M220.8,311
					h5.8l-2.9-4.8L220.8,311z M205.4,311h3.4l-1.7-2.8L205.4,311z M190.1,311h1l-0.4-0.7L190.1,311z M159.4,311h13.8l-6.9-11.4h-0.1
					L159.4,311z M156.8,311h1.2l7-11.6h-14.2l-0.6,1L156.8,311L156.8,311L156.8,311z M128.6,311h8.9l-4.5-7.6L128.6,311z M127.4,311
					L127.4,311l5.2-8.5l-1.8-3h-10.6l-3,5l3.9,6.5l0,0v0.1H127.4z M97.8,311h4.3l-2.2-3.6L97.8,311z M82.5,311h1.8l-0.8-1.4
					L82.5,311z M67.7,311h13.5l1.5-2.5l-5.4-9.1H74l-6.7,11L67.7,311z M49.9,311h0.3l0,0h0.3l6.9-11.4H43.2l-0.1,0.3L49.9,311z
					 M36.3,311h12.4l-6.2-10.2L36.3,311z M21,311h9.9l-5-8.3L21,311z M5.6,311h7.4l-3.7-6.2L5.6,311z M-3.4,311h7.8l4.4-7.2
					l-2.5-4.3h-8.9l-3.9,6.2L-3.4,311z M-21,311h10l3.2-5.2l-3.7-6.2H-18l-5,8.3L-21,311z M-38.9,311h12.5l1.9-3.2l-5-8.3h-4.1
					l-6.2,10.2L-38.9,311z M405.6,311h13.6l1.5-2.3l-5.5-9.1h-3.2l-6.6,11L405.6,311z M389.8,311H404l0.3-0.3l-6.6-11.1h-0.8
					L389.8,311z M387.9,311h0.7l6.9-11.4h-14.2l-0.1,0.3l0.1,0.1l0,0L387.9,311z M370,311h3.3l6.7-11l-0.3-0.4H366l-1.4,2.3L370,311
					z M352.4,311h5.5l5.5-9.1l-1.5-2.3h-11.1l-2.6,4.4L352.4,311z M334.5,311h7.8l4.3-7.2l-2.6-4.4h-8.9l-3.7,6.3L334.5,311z
					 M316.8,311h10.3l3-5.1l-3.7-6.3h-6.3L315,308L316.8,311z M298.9,311h12.8l1.8-3l0,0l0,0l-5-8.4h-4.1l-6.2,10.3L298.9,311z
					 M282.3,311h14l0.6-1.1l-6.2-10.5h-1.5L282.3,311z M227.9,311h7l4.7-7.8l-2.2-3.6h-9.6l-3.4,5.6L227.9,311z M210,311h9.5
					l3.4-5.8l-3.4-5.6h-7.3l-4.7,7.6L210,311z M192.2,311H204l2.3-3.9l-4.5-7.6H197l-5.8,9.6L192.2,311z M174.7,311h14l1.1-1.8
					l-5.8-9.6h-2.3L174.7,311z M144,311h11.4l-5.6-9.5L144,311z M138.8,311h4l6.3-10.5l-0.6-1h-12.9l-1.8,3L138.8,311z M113.2,311
					h6.5l-3.3-5.4L113.2,311z M103.3,311h8.8l3.9-6.5l-3-5h-8.1l-4.3,7L103.3,311z M85.4,311h11.1l2.8-4.4l-4.1-7h-5.6l-5.4,9.1
					L85.4,311z M51.9,311H66l0.3-0.4l0,0l0,0l-6.6-11h-0.8L51.9,311z M32,311h3l6.7-11.1l-0.1-0.3H27.9l-1.4,2.2L32,311z M14.4,311
					h5.4l2.2-3.6l3.4-5.6l-1.4-2.2H12.7l-2.5,4.3L14.4,311z M-9.6,311h5l-2.5-4.1L-9.6,311z M-25,311h2.5l-1.2-2.1L-25,311z
					 M274.3,299.4l6.7,11.3l6.9-11.3H274.3z M167.5,299.4l6.3,10.6l6.5-10.6H167.5z M398.8,299.4l6.1,10l6.1-10H398.8z M60.8,299.4
					l5.9,10l6.1-10H60.8z M292,299.4l5.6,9.4l5.6-9.4H292z M185.3,299.4l5.2,8.7l5.2-8.7H185.3z M416.5,299.4l4.8,7.8l4.8-7.8H416.5
					z M78.7,299.4l4.7,7.8l4.7-7.8H78.7z M309.9,299.4l4.3,7.3l4.4-7.3H309.9z M-28.1,299.4l4.4,7.3l4.4-7.3H-28.1z M203.2,299.4
					l4,6.6l4-6.6H203.2z M434.4,299.4l3.6,6.1l3.6-6.1H434.4z M96.3,299.4l3.6,5.9l0,0l0,0l3.6-5.9H96.3z M327.6,299.4l3.2,5.4
					l3.2-5.4H327.6z M-10.3,299.4l3.2,5.2l3.2-5.2H-10.3z M220.9,299.4l2.8,4.5l2.8-4.5H220.9z M114.2,299.4l2.3,4l2.3-4H114.2z
					 M345.4,299.4l2.1,3.3l2.1-3.3H345.4z M7.4,299.4l1.9,3.2l1.9-3.2H7.4z M238.7,299.4l1.7,2.6l1.5-2.6H238.7z M131.9,299.4
					l1.2,1.9l0,0l0,0l1.2-1.9H131.9z M363.3,299.4l0.8,1.2l0.8-1.2H363.3z M25.2,299.4l0.7,1.2l0.7-1.2H25.2z M256.5,299.4l0.4,0.6
					l0.3-0.6H256.5z M443.5,298.5h6.9l-3.4-5.6L443.5,298.5z M433.7,298.5h8.5l4-6.7l-3-4.8h-8.3l-4.1,6.9L433.7,298.5z
					 M428.2,298.5h4.3l-2.2-3.6L428.2,298.5z M416,298.5h11l2.8-4.7l-4.1-6.9h-5.8l-5.4,8.8v0.1v0.1L416,298.5z M412.8,298.5h1.8
					l-1-1.5L412.8,298.5z M398.2,298.5h13.3l1.7-2.6l0,0l0,0l-5.4-8.9h-3.4l-6.6,10.9L398.2,298.5z M380.3,298.5h0.4v-0.1h0.1
					l6.9-11.3h-14l-0.1,0.1L380.3,298.5z M366.7,298.5h12.4l-6.2-10.3L366.7,298.5z M351.3,298.5h9.9l-5-8.3L351.3,298.5z
					 M335.9,298.5h7.6l-3.7-6.2L335.9,298.5z M320.5,298.5h5.2l-2.6-4.3L320.5,298.5z M305.1,298.5h2.8l-1.4-2.2l0,0l0,0
					L305.1,298.5z M274.4,298.5h14.2l0.7-1.2l-6.1-10.3h-1.7v0.1h-0.1L274.4,298.5z M259.1,298.5h13.2l-6.6-11L259.1,298.5z
					 M257.9,298.5L257.9,298.5l6.9-11.4h-14.2l-0.8,1.4l0,0l0,0l6.1,10H257.9z M243.7,298.5h10.9l-5.4-9.1L243.7,298.5z
					 M238.1,298.5h4.5l6.1-10l-1-1.5h-12.4l-2.1,3.4v0.1v0.1L238.1,298.5z M228.5,298.5h8.4l-4.3-6.9L228.5,298.5z M220.4,298.5h6.9
					l4.8-8.1l-2.1-3.4h-9.8l-3.3,5.5L220.4,298.5z M213.1,298.5h5.9l-3-5L213.1,298.5z M202.5,298.5h9.2l3.6-6.1l-3.4-5.5h-7.3
					l-4.5,7.6L202.5,298.5z M197.7,298.5h3.6l-1.8-3L197.7,298.5z M196.3,298.5l2.5-4l-4.4-7.6h-5.1l-0.1,0.1l-5.6,9.4l1.2,2.1
					H196.3z M182.3,298.5h1.1l-0.6-1L182.3,298.5z M167,298.5h14l1.2-2.1l-5.5-9.5l0,0v-0.1h-2.5L167,298.5z M151.4,298.5h14l0,0
					l0,0l-6.9-11.4h-0.1v-0.1h0l-0.1,0.1L151.4,298.5z M136.2,298.5h11.7l-5.8-9.6L136.2,298.5L136.2,298.5z M131.4,298.5h3.6
					l6.5-10.7l-0.4-0.7h-13.2l-1.7,2.6l0,0l-0.1,0.1L131.4,298.5z M120.9,298.5h9.2l-4.5-7.6L120.9,298.5z M105.5,298.5h6.9
					l-3.4-5.6L105.5,298.5z M90.1,298.5h4.4l-2.2-3.7l0,0l0,0L90.1,298.5z M74.7,298.5h2.1l-1-1.7L74.7,298.5z M44,298.5h14l0.4-0.7
					L52,286.9h-1L44,298.5z M42.4,298.5h0.3l7-11.6H35.8l-0.1,0.1L42.4,298.5z M28.6,298.5h12.5L34.9,288l-0.1,0.1l0,0L28.6,298.5
					L28.6,298.5z M24.6,298.5h2.8l7-11.4l-0.1-0.1h-14L19,289L24.6,298.5z M13.3,298.5h9.9l-5-8.3L13.3,298.5z M12,298.5L12,298.5
					l5.6-9.4V289v-0.1l-1.2-2.1H5v0.1H4.7l-2.3,4l4.4,7.4H12V298.5z M5.5,298.5l-3.9-6.3l-3.7,6.3H5.5z M-10.9,298.5h7.6l4.4-7.4
					l-2.3-4h-9.2l-3.6,6.1L-10.9,298.5z M-17.5,298.5h5.2l-2.6-4.3L-17.5,298.5z M-28.7,298.5h10l3.3-5.5l-3.6-5.9h-6.9l-4.8,8.1
					L-28.7,298.5z M-30,298.5L-30,298.5l-1.4-2.3l-1.5,2.3H-30z M382,298.3h14.2l0.3-0.6l-6.5-10.9h-1l-0.1,0.1L382,298.3z
					 M362.6,298.3h2.9l6.9-11.3l-0.1-0.3h-13.6v0.1h-0.1l-1.2,2.1L362.6,298.3z M344.7,298.3h5.4l5.6-9.4l-1.4-2.2h-11.3v0.1h-0.1
					l-2.5,4l0,0v0.1L344.7,298.3z M327.1,298.3h7.6l4.4-7.3l-2.6-4.1h-8.8l-3.7,6.2L327.1,298.3z M309.2,298.3h10l3.2-5.4l-3.7-6.2
					h-6.6l-5,8.3L309.2,298.3z M291.3,298.3h12.5l1.9-3.3l-4.8-8.1h-0.1v-0.1h-4l-6.2,10.2L291.3,298.3z M149.1,298.3h1.1l6.9-11.3
					h-14.2l-0.4,0.7L149.1,298.3z M113.6,298.3h6.1l5.2-8.5l-1.7-2.8h-0.1v-0.1h-10.5l-2.9,4.8L113.6,298.3z M95.9,298.3h8.4l4-6.6
					l-3-4.8h-8.1l-4.1,6.9L95.9,298.3z M78,298.3h10.9l2.9-4.7l-4.1-6.9h-5.8v0.1l0,0l-5.2,8.7L78,298.3z M60.1,298.3h13.2l1.7-2.6
					l-5.2-8.8h-3.3l-6.6,10.9L60.1,298.3z M266.9,287.1l6.6,11l6.7-11H266.9z M160,287.1l6.2,10.3l6.2-10.3H160z M391.2,286.9
					l5.9,9.9l5.9-9.9H391.2z M53.4,287.1l5.8,9.6l5.9-9.6H53.4z M286.4,290.2l3.6,5.9l5.5-9.1h-11L286.4,290.2z M177.9,287.1
					l5.1,8.4l5.1-8.4H177.9z M73.9,291.7l1.8,3l4.7-7.7H71L73.9,291.7z M409.1,286.9l4.7,7.8l4.7-7.8H409.1z M302.3,287.1l4.3,7
					l4.3-7H302.3z M195.6,286.9l3.9,6.5l4-6.5H195.6z M430.3,292.7L430.3,292.7l3.6-5.9h-7L430.3,292.7L430.3,292.7z M90.1,289
					l2.2,3.6l3.4-5.6h-6.9L90.1,289z M322,290.1l1.2,1.9l3-5.1h-6.2L322,290.1z M-17.9,286.9l3,5.1l3-5.1H-17.9z M213.3,286.9
					l2.6,4.5l2.6-4.5H213.3z M106.7,287.1l2.2,3.7l2.2-3.7H106.7z M0,287.1l1.8,3l1.8-3H0z M338,287.1l1.8,2.9l1.8-2.9H338z
					 M231.2,286.9l1.5,2.3l1.5-2.3H231.2z M124.5,287.1l1.1,1.7l1-1.7H124.5z M355.7,287.1l0.7,1l0.6-1H355.7z M17.7,286.9l0.6,1
					l0.6-1H17.7z M248.8,286.9l0.3,0.4l0.3-0.4H248.8z M372.8,286L372.8,286l0.1-0.1h0.1l6.9-11.4h-14L372.8,286z M355,286h2.5
					l7-11.6h-14l-1.2,2.1l0,0l0,0L355,286z M337.3,286h5l5.8-9.6l-1.2-1.9h-11.6l-2.5,4L337.3,286L337.3,286L337.3,286z M319.5,286
					h7.3l4.5-7.7l-2.3-3.9h-9.2l-3.6,6.1L319.5,286z M301.7,286h9.8l3.3-5.5l-3.4-6.1h-6.9l-4.8,8L301.7,286z M283.9,286h12.2
					l2.1-3.4l0,0v-0.1l-4.7-8H289l-6.1,10L283.9,286z M123.8,286h3.3l6.6-10.9l-0.3-0.7h-13.5l-1.5,2.5L123.8,286z M106.1,286h5.8
					l5.4-8.8l0,0l0,0l-1.7-2.6h-11l-2.8,4.5L106.1,286z M88.3,286h8.1l4.1-6.9l-2.8-4.5h-8.5l-4,6.7L88.3,286z M70.6,286H81l2.9-5
					l-4-6.6h-6.1l-5.2,8.7L70.6,286z M52.7,286h12.8l1.8-2.9l-5.1-8.7h-3.7L52.1,285L52.7,286z M435.6,285.8h7l-3.6-5.8L435.6,285.8
					z M426.1,285.8h8.3l4.1-6.7l-2.9-4.7h-8.3l-4,6.7L426.1,285.8z M420.5,285.8h4.4l-2.2-3.7L420.5,285.8z M408.5,285.8h10.6
					l2.9-4.8l-4-6.7h-5.9l-5.2,8.7L408.5,285.8L408.5,285.8z M405,285.8h2.2l-1.1-1.8l0,0l0,0L405,285.8z M390.5,285.8h13.1l1.7-2.8
					l-5.2-8.7h-3.6l-6.5,10.7L390.5,285.8z M374.3,285.8h14l0.4-0.7V285l0,0l-6.3-10.7h-1.1L374.3,285.8z M359,285.8h12.4l-6.2-10.3
					L359,285.8z M343.6,285.8h10l-5.1-8.4L343.6,285.8z M328.2,285.8h7.7l-3.9-6.3L328.2,285.8z M312.8,285.8h5.4l-2.6-4.4
					L312.8,285.8z M297.5,285.8h2.8l-1.4-2.3L297.5,285.8z M280.7,285.8L280.7,285.8l0.8-1.4l-5.9-10h-2.1l-6.9,11.4H280.7z
					 M251.4,285.8h13.3l-6.6-11.1L251.4,285.8z M248.3,285.8h1.8l6.9-11.4h-14.2l-0.7,1.2l0,0l0,0L248.3,285.8z M236,285.8h11
					l-5.5-9.1L236,285.8z M230.5,285.8h4.1l6.2-10.3l-0.8-1.2h-12.5l-1.9,3.2v0.1v0.1L230.5,285.8z M220.6,285.8h8.5l-4.3-7
					L220.6,285.8z M212.7,285.8h6.6l5-8.3l-1.9-3.2h-10l-3.2,5.4L212.7,285.8z M205.4,285.8h6.1l-3-5.1L205.4,285.8z M195,285.8h8.9
					l3.7-6.2l-3.2-5.2H197l-4.4,7.3L195,285.8z M190,285.8h3.7l-1.9-3L190,285.8z M188.6,285.8L188.6,285.8l2.5-4.1l-4.3-7.3h-5.4
					l-5.6,9.2l1.2,2.2L188.6,285.8L188.6,285.8z M174.6,285.8h1.4l-0.7-1.1L174.6,285.8z M173.2,285.8L173.2,285.8l1.2-2.1l-5.5-9.4
					H166l-6.9,11.3l0.1,0.1L173.2,285.8L173.2,285.8z M141.5,285.8h0.7v-0.1h0.4l6.9-11.3h-14.2l-0.3,0.6L141.5,285.8z M128.5,285.8
					h11.8l-5.9-9.9L128.5,285.8z M113.2,285.8h9.2l-4.5-7.7L113.2,285.8z M97.8,285.8h6.9l-3.4-5.8L97.8,285.8z M82.4,285.8h4.5
					l-2.2-3.7L82.4,285.8z M67,285.8h2.2l-1.1-1.8L67,285.8z M36.3,285.8h14.2l0.4-0.7l0,0l0,0l-6.3-10.7h-1.2L36.3,285.8z
					 M20.9,285.8h12.8l-6.3-10.6L20.9,285.8z M19.5,285.8L19.5,285.8l7-11.4h-14l-1.1,1.9l0,0v0.1l5.6,9.5h2.5V285.8z M5.5,285.8
					h10.2l-5.1-8.4L5.5,285.8z M-0.7,285.8h4.8l5.9-9.6l-1.1-1.8H-2.9l-2.3,4L-0.7,285.8z M-9.8,285.8h7.7l-3.9-6.5l0,0l0,0
					L-9.8,285.8z M-18.4,285.8h7.3l4.5-7.6l-2.3-3.9h-9.5l-3.6,5.8L-18.4,285.8z M-25.2,285.8h5.4l-2.6-4.5L-25.2,285.8z M144,285.7
					h14l-6.7-11.3h-0.4L144,285.7z M34.9,285.7h0.3l6.9-11.3h-14L34.9,285.7z M259.1,274.4l6.5,11l6.6-11H259.1z M158.6,284.6
					L158.6,284.6l6.3-10.2h-12.4L158.6,284.6L158.6,284.6z M383.6,274.4l5.8,9.6l5.8-9.6H383.6z M45.8,274.4l5.6,9.5l5.8-9.5H45.8z
					 M277,274.4l5.4,8.9l5.4-8.9H277z M170.2,274.4l5,8.3l0,0l0,0l5-8.3H170.2z M401.5,274.4l4.5,7.7l4.5-7.7H401.5z M63.5,274.4
					l4.5,7.6l4.5-7.6H63.5z M294.8,274.4l4.1,6.9l4.1-6.9H294.8z M188,274.4l3.7,6.3l3.9-6.3H188z M419.3,274.4l3.3,5.5l3.3-5.5
					H419.3z M83.4,277.9l1.2,2.1l3.3-5.5h-6.6L83.4,277.9z M312.5,274.4l2.9,5l2.9-5H312.5z M205.8,274.4l2.6,4.3l2.6-4.3H205.8z
					 M99.9,275.7l1.4,2.3l2.1-3.6H99L99.9,275.7z M330.3,274.4l1.8,3l1.8-3H330.3z M-7.6,274.4l1.7,2.9l1.7-2.9H-7.6z M223.5,274.4
					l1.4,2.2l1.4-2.2H223.5z M117.5,275.5l0.3,0.4l1-1.5h-1.8L117.5,275.5z M348.1,274.4l0.6,1l0.6-1H348.1z M10.2,274.4l0.6,0.8
					l0.6-0.8H10.2z M427.9,273.3h7.3l-3.6-5.9L427.9,273.3z M426.5,273.3L426.5,273.3l4.4-7l-2.8-4.5h-8.7l-4,6.6l3,5H426.5z
					 M412.7,273.3h4.7l-2.3-4L412.7,273.3z M400.8,273.3h10.6l3-5l-4-6.6h-6.3l-5.1,8.5L400.8,273.3z M397.1,273.3h2.3l-1.2-1.9l0,0
					l0,0L397.1,273.3z M383.1,273.3h12.8l1.8-3l-5.1-8.5h-3.9l-6.3,10.5v0.1l0,0L383.1,273.3z M366.4,273.3h14.2l0.6-0.8l-6.5-10.7
					h-1.2L366.4,273.3z M351.2,273.3H364l-6.3-10.6L351.2,273.3z M335.9,273.3h10.3l-5.1-8.5L335.9,273.3z M329.7,273.3h4.8l5.9-9.6
					l-1.2-1.9h-11.8l-2.3,3.9L329.7,273.3z M320.4,273.3h8l-4-6.6L320.4,273.3z M305.1,273.3h5.6v-0.1l0,0l-2.8-4.5L305.1,273.3z
					 M289.7,273.3h3.2l-1.5-2.6L289.7,273.3z M274.3,273.3h0.7l-0.3-0.6L274.3,273.3z M240.9,273.3h1.2v-0.1h0.3l6.9-11.4h-14.2
					l-0.7,1.1l0,0l0,0L240.9,273.3z M228.3,273.3h11.1l-5.6-9.2L228.3,273.3z M223,273.3h4l6.2-10.3l-0.7-1.2h-12.7l-1.8,3v0.1v0.1
					L223,273.3z M212.9,273.3h8.7l-4.4-7.2L212.9,273.3z M205.2,273.3h6.3l5.1-8.5l-1.8-3h-10.3l-3,5.2L205.2,273.3z M197.4,273.3
					h6.3l-3.2-5.4L197.4,273.3z M187.3,273.3h8.8l3.9-6.3l-3.2-5.2H189l-4.4,7.2L187.3,273.3z M182.1,273.3h4L184,270l0,0l0,0
					L182.1,273.3z M166.7,273.3h1.5l-0.8-1.2L166.7,273.3z M136,273.3h14l0.1-0.3l-6.7-11.3h-0.6L136,273.3z M120.6,273.3h12.1
					l-6.1-10l0,0l0,0L120.6,273.3z M105.4,273.3h9.6l-4.7-8L105.4,273.3z M89.8,273.3h7.3l-3.6-6.1L89.8,273.3z M74.6,273.3h4.8
					l-2.3-4L74.6,273.3z M59.3,273.3h2.3l-1.2-2.1L59.3,273.3z M45.3,273.3h12.7l1.8-3l-5.1-8.5h-3.9l-6.3,10.5l0.6,1L45.3,273.3
					L45.3,273.3z M13.2,273.3H26l-6.5-10.6L13.2,273.3z M9.5,273.3h2.3l6.9-11.4l0,0v-0.1h-14l-1.1,1.8L9.5,273.3z M-2.3,273.3H8.1
					l-5.2-8.7l0,0l0,0L-2.3,273.3z M358.3,261.8l6.9,11.6l0,0l0,0l6.9-11.6L358.3,261.8L358.3,261.8z M347.5,273.2h2.5l7-11.4h-14.2
					l-1.1,1.8l0.1,0.1l0,0L347.5,273.2z M311.8,273.2h7.4l4.5-7.7l-2.3-3.7H312l-3.4,5.8L311.8,273.2z M294.1,273.2h9.8l3.3-5.6
					l-3.4-5.8h-7l-4.8,7.8L294.1,273.2z M276.2,273.2h12.1l2.2-3.6l0,0l0,0l-4.7-7.8h-4.7l-5.9,9.8L276.2,273.2z M259,273.2h14
					l1-1.7l-5.8-9.9H266L259,273.2L259,273.2z M243.7,273.2h13.5l-6.7-11.3L243.7,273.2z M169.5,273.2h11.3l2.6-4.4l-4.3-7.2h-5.4
					l-5.6,9.2L169.5,273.2z M151.7,273.2h13.8l1.4-2.3l-5.5-9.1h-3l-6.7,11.1L151.7,273.2z M134,273.2h0.8l6.9-11.4h-14.2l-0.3,0.4
					L134,273.2z M116.1,273.2h3.3l6.6-11l-0.3-0.4h-13.6l-1.4,2.3v0.1v0.1L116.1,273.2z M98.3,273.2h5.6l5.5-8.9l-1.5-2.5H96.8
					l-2.6,4.4L98.3,273.2z M80.6,273.2h8.1l4.1-7l-2.6-4.4h-8.7l-3.9,6.5L80.6,273.2z M62.9,273.2h10.5l3-5.1l-3.9-6.3h-6.3
					l-5.1,8.5L62.9,273.2z M28.5,273.2h14.2l0.6-0.8v-0.1v-0.1L37,261.6h-1.5v0.1h-0.1L28.5,273.2z M-8.3,273.2h4.8l5.9-9.6
					l-1.1-1.8h-12.1l-2.2,3.7L-8.3,273.2z M-17.5,273.2h8l-4-6.6L-17.5,273.2z M20.5,261.9l6.9,11.3l6.9-11.3H20.5z M251.6,261.8
					l6.5,10.7l6.5-10.7H251.6z M144.8,261.8l6.1,10l6.2-10H144.8z M376.2,261.8l5.6,9.5l5.6-9.5H376.2z M38.1,261.8l5.6,9.4l5.6-9.4
					H38.1z M269.3,261.8l5.4,8.8l5.4-8.8H269.3z M165.6,266.7l1.8,3l4.8-8h-9.5L165.6,266.7z M393.8,261.8l4.5,7.6l4.5-7.6H393.8z
					 M56,261.8l4.4,7.4l4.4-7.4H56z M287.1,261.8l4.1,6.7l4.1-6.7H287.1z M180.5,261.8l3.6,6.2l3.7-6.2H180.5z M411.7,261.8l3.3,5.5
					l3.2-5.5H411.7z M73.7,261.8l3.3,5.5l3.3-5.5H73.7z M305,261.8l2.9,4.8l2.9-4.8H305z M198.2,261.8l2.5,4.1l2.5-4.1H198.2z
					 M91.5,261.8l2.1,3.4l2.1-3.4H91.5z M322.7,261.8l1.7,2.8l1.7-2.8H322.7z M216,261.8l1.4,2.1l1.2-2.1H216z M109.4,261.8l0.8,1.4
					l0.8-1.4H109.4z M2.5,261.8l0.4,0.8l0.4-0.8H2.5z M340.6,261.8l0.4,0.7l0.4-0.7H340.6z M420.1,260.7h7.4l-3.7-6.2L420.1,260.7z
					 M418.8,260.7L418.8,260.7l4.4-7.2l-2.6-4.4h-8.8l-3.9,6.3l3,5.2L418.8,260.7L418.8,260.7z M404.8,260.7h5l-2.5-4.1L404.8,260.7
					z M393.3,260.7h10.3l3-5.2l-3.9-6.3h-6.3l-5.1,8.4L393.3,260.7z M389.4,260.7h2.6l-1.2-2.2L389.4,260.7z M388.2,260.7l1.9-3.2
					l0,0l0,0l-5-8.4H381l-6.2,10.5l0,0l0,0l0.7,1.1H388.2z M372.8,260.7L372.8,260.7l0.7-1.2l-6.2-10.3h-1.7l-7,11.6H372.8z
					 M343.5,260.7h12.9l-6.5-10.7L343.5,260.7z M342.1,260.7L342.1,260.7l7.2-11.6h-14.3l-1,1.7l5.9,9.9H342.1z M327.9,260.7h10.6
					l-5.2-8.8L327.9,260.7z M312.7,260.7h8.3l-4.1-6.7L312.7,260.7z M297.2,260.7h5.9l-2.9-4.8L297.2,260.7z M282,260.7h3.3
					l-1.7-2.8L282,260.7z M266.6,260.7h1l-0.4-0.7L266.6,260.7z M235.8,260.7h13.8l-6.9-11.4L235.8,260.7z M233.1,260.7h1.4
					l6.9-11.4h-14.2l-0.4,0.7v0.1v0.1L233.1,260.7z M220.5,260.7h11.4l-5.6-9.5L220.5,260.7z M215.4,260.7h3.7l6.3-10.6l-0.6-1
					h-12.8l-1.8,2.9v0.1v0.1L215.4,260.7z M205.2,260.7h8.9l-4.4-7.4L205.2,260.7z M203.9,260.7l5.1-8.7l-1.8-2.9h-10.6l-3,5l4,6.6
					H203.9z M189.7,260.7h6.6l-3.3-5.5l0,0l0,0L189.7,260.7z M179.9,260.7h8.7l4-6.6l-3-5h-8.1l-4.3,7L179.9,260.7z M174.4,260.7
					h4.3l-2.2-3.6L174.4,260.7z M173,260.7l2.8-4.5l-4.1-7h-5.8l-5.4,8.9l1.5,2.6L173,260.7L173,260.7z M159,260.7h1.8l-0.8-1.4
					L159,260.7z M144.3,260.7h13.3l1.7-2.6l-5.4-8.9h-3.2l-6.7,11L144.3,260.7z M128.2,260.7h14l0.3-0.6l0,0l0,0l-6.6-11h-0.8
					l-0.1,0.1L128.2,260.7z M112.9,260.7h12.4l-6.2-10.2L112.9,260.7z M97.5,260.7h9.9l-5-8.3L97.5,260.7z M96.3,260.7L96.3,260.7
					l5.6-9.2l-1.4-2.2H89.1l-2.5,4.3l4.4,7.2H96.3z M82.1,260.7h7.4l-3.7-6.2L82.1,260.7z M73.2,260.7H81l4.4-7.2l-2.5-4.3H74
					l-3.9,6.2L73.2,260.7z M66.9,260.7h5l-2.5-4.1L66.9,260.7z M55.3,260.7h10.2l3.2-5.2l-3.9-6.2h-6.5l-5,8.3L55.3,260.7z
					 M51.4,260.7h2.6l-1.4-2.2L51.4,260.7z M50.1,260.7L50.1,260.7l2.1-3.2l-5-8.3h-4.1l-6.2,10.2l0.8,1.2L50.1,260.7L50.1,260.7z
					 M34.8,260.7L34.8,260.7l0.7-1.1v-0.1v-0.1l-6.1-10.2h-1.8l-6.9,11.4h14V260.7z M5.4,260.7h13.2l-6.6-11L5.4,260.7z M4.1,260.7
					L4.1,260.7l6.9-11.4H-3.3l-0.8,1.4l6.1,10H4.1z M-10,260.7H0.7l-5.4-8.8L-10,260.7z M322.1,260.7h4.7l5.9-9.8l-1-1.7h-12v0.1
					h-0.1l-2.1,3.4l0,0v0.1L322.1,260.7z M304.4,260.7h7l4.7-7.7l-2.3-3.7h-9.5l-3.4,5.6L304.4,260.7z M286.5,260.7h9.5l3.4-5.8
					l-3.3-5.6h-7.3l-4.7,7.7L286.5,260.7z M268.8,260.7h11.8l2.3-3.7l-4.5-7.6h-0.1v-0.1h-4.7l-5.8,9.6L268.8,260.7z M251.3,260.7
					h13.9l1.1-1.8l-5.8-9.6h-2.2L251.3,260.7z M126.4,260.7h0.6l6.9-11.3h-14l-0.1,0.1L126.4,260.7z M108.7,260.7h3l6.7-11.1
					l-0.1-0.1h-13.9l-1.4,2.1L108.7,260.7z M12.8,249.1l6.9,11.3l6.9-11.3H12.8z M350.8,249.1l6.7,11.3l6.9-11.3H350.8z
					 M244.2,249.2l6.3,10.5l6.3-10.5H244.2z M137.4,249.1l5.9,9.9l6.1-9.9H137.4z M368.5,249.1l5.6,9.4l5.6-9.4H368.5z M30.7,249.1
					l5.5,9.2l5.6-9.2H30.7z M264.9,254.6l1.9,3.3l5.2-8.5h-10.3L264.9,254.6z M155,249.1l4.8,8l4.8-8H155z M386.4,249.1l4.4,7.3
					l4.4-7.3H386.4z M48.4,249.2l4.3,7.2l4.4-7.3L48.4,249.2L48.4,249.2L48.4,249.2z M279.6,249.2l3.9,6.5l4-6.5H279.6z
					 M172.9,249.1l3.6,5.9l3.6-5.9H172.9z M404.1,249.1l3.2,5.4l0,0l0,0l3.2-5.4H404.1z M66.2,249.1l3.2,5.2l3.2-5.2H66.2z
					 M299,252.1l1.1,1.8l2.8-4.5h-5.5L299,252.1z M190.6,249.1l2.3,4l2.3-4H190.6z M83.9,249.1l1.9,3.2l1.9-3.2H83.9z M315.3,249.2
					l1.5,2.3l1.5-2.3H315.3z M208.5,249.1l1.2,1.9l1.1-1.9H208.5z M101.8,249.1l0.7,1.2l0.7-1.2H101.8z M332.9,249.1l0.4,0.7
					l0.4-0.7H332.9z M314.6,248.3h4.3l6.1-10.2l-1-1.4h-12.2l-2.1,3.4L314.6,248.3z M296.8,248.3h6.7l4.8-8.3l-2.1-3.3h-9.9
					l-3.3,5.5L296.8,248.3z M279,248.3h9.1l3.6-6.1l-3.2-5.5H281l-4.5,7.4L279,248.3z M261.2,248.3h11.6l2.5-4l0,0v-0.1l-4.4-7.4
					h-5.1l-5.6,9.5L261.2,248.3z M243.5,248.3h14l1.2-2.1l-5.6-9.5h-2.8L243.5,248.3L243.5,248.3L243.5,248.3L243.5,248.3z
					 M89.7,248.3h10l-5-8.4L89.7,248.3z M74.4,248.3h7.7l-3.9-6.3l0,0l0,0L74.4,248.3z M59,248.3h5.2l-2.6-4.4L59,248.3z
					 M43.6,248.3h2.9v-0.1l0,0l-1.4-2.2L43.6,248.3z M412.4,248.1h7.6l-3.9-6.3L412.4,248.1L412.4,248.1z M403.4,248.1h7.6l4.4-7.3
					l-2.5-4.1H404l-3.7,6.2L403.4,248.1z M397.1,248.1h5l-2.5-4.1L397.1,248.1z M385.7,248.1h10l3.2-5.4l-3.7-6.2h-6.6l-5,8.1
					L385.7,248.1z M381.7,248.1h2.8l-1.4-2.2l0,0l0,0L381.7,248.1z M367.8,248.1h12.5l2.1-3.3l-4.8-8.1h-4.3l-6.2,10.2l0,0l0,0
					L367.8,248.1z M365.1,248.1L365.1,248.1l0.8-1.2l-6.2-10.2h-1.8l-7,11.4L365.1,248.1L365.1,248.1z M335.5,248.1h13.3l-6.6-11
					l0,0l0,0L335.5,248.1z M332.3,248.1h2.1l6.9-11.4h-14.2l-0.8,1.4L332.3,248.1z M330.9,248.1L330.9,248.1l-5.4-8.9l-5.4,8.9
					H330.9z M305,248.1h8.4l-4.1-6.9L305,248.1z M289.4,248.1h6.1l-3-5L289.4,248.1z M274.1,248.1h3.4l-1.7-2.8L274.1,248.1z
					 M258.7,248.1h1.1l-0.6-1L258.7,248.1z M228.1,248.1H242l-6.9-11.4h-0.3L228.1,248.1z M225.6,248.1h1.1l6.9-11.4h-14.2l-0.4,0.7
					L225.6,248.1z M212.7,248.1h11.7l-5.8-9.6L212.7,248.1z M207.7,248.1h3.6l6.5-10.7l-0.4-0.7h-13.2l-1.7,2.6v0.1v0.1L207.7,248.1
					z M197.4,248.1h9.1l-4.5-7.6L197.4,248.1z M190.1,248.1h5.9l5.2-8.7l-1.7-2.8h-10.7l-2.9,4.8L190.1,248.1z M182,248.1h6.7
					l-3.3-5.5L182,248.1z M172.4,248.1h8.3l4.1-6.7l-2.9-4.7h-8.3l-4.1,6.7L172.4,248.1z M166.6,248.1h4.4l-2.2-3.7l0,0l0,0
					L166.6,248.1z M154.5,248.1h10.6l2.9-4.7l-4.1-6.7h-5.9l-5.2,8.7L154.5,248.1z M151.3,248.1h1.8l-0.8-1.5L151.3,248.1z
					 M136.7,248.1h13.2l1.7-2.6l-5.2-8.8h-3.4l-6.6,10.9L136.7,248.1z M119,248.1L119,248.1L119,248.1l0.4-0.1l6.7-11.3h-14
					L119,248.1z M105.2,248.1h12.4l-6.2-10.3L105.2,248.1z M101.1,248.1h2.8l6.9-11.3l-0.1-0.3H96.8v0.3h-0.1l-1.2,1.9L101.1,248.1z
					 M83.4,248.1h5.1l5.8-9.4l-1.1-1.9h-0.3v-0.1H81.4l-2.3,4L83.4,248.1z M65.6,248.1h7.6l4.4-7.4l-2.5-4.1h-9.2l-3.7,6.1
					L65.6,248.1z M47.9,248.1h10l3.3-5.4l-3.7-6.1h-6.7l-4.8,8.1L47.9,248.1z M30,248.1h12.4l1.9-3.3l-4.8-8.1h-4.4l-6.1,10
					L30,248.1z M12.9,248.1h14.2l0.8-1.2l-6.1-10.2h-1.9L12.9,248.1z M-2.5,248.1h13.2l-6.6-11L-2.5,248.1z M120.6,248h14.2l0.3-0.4
					l-6.5-10.9h-1l-0.1,0.1L120.6,248z M5.2,236.7l6.6,11.1v-0.1l0,0l6.7-11.1H5.2V236.7z M343.2,236.7l6.6,11.1l6.7-11.1H343.2z
					 M236.5,236.7l6.2,10.5l0,0l0,0l0.3-0.4v0.1l6.2-10.2L236.5,236.7L236.5,236.7z M129.8,236.7l5.8,9.6l5.9-9.6H129.8z
					 M360.9,236.7l5.5,9.2l5.5-9.2H360.9z M23.1,236.7l5.4,8.9l5.5-8.9H23.1z M254.2,236.7l5.1,8.5l0,0l0,0l5.1-8.4h-10.2V236.7z
					 M147.6,236.7l4.7,7.7l4.7-7.7H147.6z M378.8,236.7l4.3,7.2l4.3-7.2H378.8z M40.9,236.7l4.3,7l4.3-7H40.9z M272.1,236.7l3.9,6.5
					l3.9-6.5H272.1z M165.3,236.7l3.6,5.8l3.6-5.8H165.3z M396.6,236.7l3,5.1l3-5.1H396.6z M58.7,236.7l3,5l3-5H58.7z M289.8,236.7
					l2.6,4.4l0,0l0,0l2.6-4.4H289.8z M183.1,236.7l2.2,3.7l2.2-3.7H183.1z M76.5,236.7l1.8,3l1.8-3H76.5z M307.6,236.7l1.5,2.5
					l1.5-2.5H307.6z M200.8,236.7l1.1,1.7l1-1.7H200.8z M94.4,236.7l0.6,0.8l0.6-0.8H94.4z M404.5,235.6h7.8l-4-6.5L404.5,235.6z
					 M395.9,235.6h7.4l4.5-7.6l-2.5-4h-9.2l-0.1,0.1l-3.6,5.9L395.9,235.6z M389.3,235.6h5.4l-2.6-4.5L389.3,235.6z M378.1,235.6
					h9.9l3.3-5.5l-3.6-5.9l0,0v-0.1H381v0.1l0,0l-4.7,8L378.1,235.6z M373.9,235.6h3l-1.5-2.5L373.9,235.6z M360.4,235.6h12.2
					l2.1-3.4l-4.8-8.1h-4.4v0.1l0,0l-5.9,9.9v0.1l0,0L360.4,235.6z M324.8,235.6h1.8v-0.1h0.1l6.9-11.3h-14.2l-0.7,1.1L324.8,235.6z
					 M323.4,235.6L323.4,235.6l-5.4-9.1l-5.5,9.1H323.4z M297.1,235.6h8.7l-4.4-7.2L297.1,235.6z M281.7,235.6h6.3l-3-5.1
					L281.7,235.6z M271.4,235.6h9.1l3.7-6.2l-3.3-5.4h-7.6l-4.4,7.3L271.4,235.6z M266.3,235.6h3.9l-1.9-3.2L266.3,235.6z
					 M253.6,235.6h11.4l2.5-4.3l-4.4-7.3h-5.4l-5.5,9.2L253.6,235.6z M251,235.6h1.4l-0.7-1.1L251,235.6z M235.8,235.6h13.9l1.2-2.2
					l-5.6-9.4h-2.8l-6.9,11.4L235.8,235.6z M218.2,235.6h0.7v-0.1h0.3l6.9-11.3h-14.2l-0.3,0.6L218.2,235.6z M204.8,235.6h12
					l-5.9-9.9L204.8,235.6z M200.3,235.6h3.4l6.6-10.9l-0.4-0.7h-13.2v0.1l0,0l-1.5,2.5v0.1v0.1L200.3,235.6z M189.7,235.6h9.4
					l-4.7-7.8L189.7,235.6z M188.3,235.6L188.3,235.6l5.4-8.9l-1.5-2.5l0,0v-0.1h-10.7v0.1h-0.1l-2.8,4.5l4.1,6.9H188.3z
					 M174.3,235.6h6.9l-3.4-5.8L174.3,235.6z M164.8,235.6h8.1l4.1-6.9l-2.8-4.7h-8.4l-4,6.7L164.8,235.6z M158.7,235.6h4.7
					l-2.3-3.9l0,0l0,0L158.7,235.6z M146.9,235.6h10.6l3-4.8l-3.9-6.6h-6.2l-5.1,8.5L146.9,235.6z M143.5,235.6h2.2l-1.1-1.8
					L143.5,235.6z M93.7,235.6h2.5l6.9-11.4H88.9l-0.8,1.2l0,0l-0.3,0.6L93.7,235.6L93.7,235.6L93.7,235.6z M75.8,235.6h4.8l5.8-9.5
					l0,0l0.1-0.1l-1.1-1.9H73.6l-2.3,4L75.8,235.6L75.8,235.6L75.8,235.6z M58,235.6h7.3l4.5-7.6l-2.3-4h-9.2l-3.7,6.1L58,235.6
					L58,235.6L58,235.6z M40.3,235.6h9.6l3.4-5.6l-3.6-5.9h-6.9l-4.8,8L40.3,235.6z M22.6,235.6h12.1l2.2-3.6l-4.8-8h-4.5l-6.1,9.9
					l0.8,1.5L22.6,235.6L22.6,235.6z M5.2,235.6h14l1-1.7l0,0l0,0l-5.9-9.9h-2.2L5.2,235.6z M343.2,235.5h14.2l0.8-1.2l-6.1-10H352
					v-0.1h-1.9L343.2,235.5z M327.9,235.5h13.3l-6.6-11.1l0,0l0,0L327.9,235.5z M307,235.5h4.3l6.1-10.2l-0.8-1.4h-12.4l-2.1,3.3
					L307,235.5z M289.3,235.5h6.6l5-8.3l-1.9-3.2l0,0v-0.1h-10l-3.2,5.4L289.3,235.5z M220.4,235.5h14v-0.1l-6.7-11.3h-0.4
					L220.4,235.5z M129,235.5h13.2l1.7-2.8l-5.2-8.7h-3.6l-6.5,10.6L129,235.5z M112.8,235.5h14l0.4-0.7l-0.1-0.1l0,0l-6.3-10.5
					h-1.4L112.8,235.5z M111.4,235.5L111.4,235.5l7-11.4h-13.9L111.4,235.5z M97.4,235.5H110l-6.3-10.5L97.4,235.5z M82,235.5h10
					l-5-8.4L82,235.5z M66.7,235.5h7.7l-3.9-6.5L66.7,235.5z M51.3,235.5h5.4l-2.6-4.5L51.3,235.5z M36,235.5h2.9l-1.5-2.5L36,235.5
					z M20.5,235.5H21l-0.3-0.4L20.5,235.5z M342.2,234.9L342.2,234.9l6.6-10.9h-13.2L342.2,234.9L342.2,234.9z M235.1,234.4
					L235.1,234.4l6.3-10.3H229L235.1,234.4L235.1,234.4z M122.1,224.1l5.6,9.5l5.8-9.5H122.1z M353.5,224.2l5.4,8.8l5.4-8.8H353.5z
					 M15.4,224.1l5.4,8.9l5.4-8.9H15.4z M246.8,224.1l5,8.3l5-8.3H246.8z M140,224.1l4.5,7.6l4.5-7.6H140z M371.3,224.2l4.1,6.9
					l4.1-6.9H371.3z M33.3,224.1l4.1,6.9l4.1-6.9H33.3z M264.5,224.1l3.7,6.3l3.9-6.3H264.5z M157.8,224.1l3.3,5.6l3.4-5.6H157.8z
					 M389,224.2l2.9,5l2.9-5H389z M51,224.1l2.9,4.8l2.9-4.8H51z M282.3,224.2l2.5,4.1l2.5-4.1H282.3z M175.7,224.2l2.1,3.4l2.1-3.4
					H175.7z M68.8,224.1l1.7,2.9l1.7-2.9H68.8z M300.1,224.2l1.4,2.2l1.4-2.2H300.1z M193.4,224.2l1,1.5l0.8-1.5H193.4z M86.7,224.1
					l0.6,0.8l0.6-0.8H86.7z M396.8,223h8l-4-6.6L396.8,223z M395.6,223L395.6,223l4.7-7.7l-2.3-3.7h-9.5l-3.4,5.8l3.3,5.6H395.6z
					 M381.6,223h5.5l-2.8-4.7L381.6,223z M380.2,223L380.2,223l3.4-5.6l-3.4-5.8H373l-4.7,7.8l2.2,3.7h9.6V223z M366.2,223h3
					l-1.5-2.6L366.2,223z M352.8,223h12l2.2-3.7l-4.7-7.8h-4.7l-5.9,9.8L352.8,223L352.8,223z M350.8,223h0.7l-0.3-0.6L350.8,223z
					 M335.5,223h14l1-1.7l-5.9-9.9h-2.1L335.5,223z M320.1,223h13.6l-6.7-11.3L320.1,223z M317.3,223h1.5l6.9-11.4h-14l-0.7,1.1
					L317.3,223L317.3,223z M304.8,223H316l-5.6-9.4L304.8,223z M299.4,223h4.1l6.2-10.3l-0.7-1.1h-12.8l-1.9,3.2L299.4,223z
					 M289.3,223h8.8l-4.4-7.3L289.3,223z M281.6,223h6.3l5.1-8.3l-1.9-3.2h-10.2l-3,5.1L281.6,223z M274,223h6.3l-3.2-5.2L274,223z
					 M264,223h8.8l3.9-6.3l-3-5.1h-7.8l-4.4,7.2L264,223z M258.6,223h4l-2.1-3.3L258.6,223z M257.2,223L257.2,223l2.6-4.4l-4.3-7.2
					h-5.5l-5.5,9.1l1.4,2.5L257.2,223L257.2,223z M243.3,223h1.5l-0.7-1.2L243.3,223z M228.3,223H242l1.4-2.3l-5.4-9.1h-3l-6.7,11.1
					L228.3,223z M212.7,223h13.9l0.1-0.3l-6.7-11.1h-0.6L212.7,223z M210.6,223h0.7l6.9-11.4h-14l-0.3,0.4L210.6,223z M209.1,223
					L209.1,223l-5.9-10l0,0l0,0l-6.1,10H209.1z M192.7,223h3.2l6.6-11l-0.3-0.4h-13.5l-1.5,2.3L192.7,223z M182,223h9.5l-4.7-8
					L182,223z M180.5,223L180.5,223l5.5-9.1l-1.5-2.3h-11.1l-2.6,4.4l4.1,7H180.5z M166.4,223h7.3l-3.6-6.1l0,0l0,0L166.4,223z
					 M157.2,223h8l4.3-7l-2.8-4.5H158l-4,6.5L157.2,223z M151,223h4.8l-2.3-4L151,223z M139.3,223h10.5l3-5.1l-4-6.5h-6.2l-0.1,0.1
					l-5.1,8.4L139.3,223z M135.6,223h2.5l-1.2-2.1l0,0l0,0L135.6,223z M134.4,223L134.4,223l1.9-3l-5.1-8.5h-3.7l-6.3,10.6l0.6,1
					H134.4z M105,223h14.2l0.6-1v-0.1l0,0l-6.2-10.3h-0.1v-0.1h-1.2v0.1H112L105,223z M89.5,223h12.9L96,212.2L89.5,223z M74.1,223
					h10.5l-5.2-8.7L74.1,223z M72.9,223L72.9,223l5.9-9.8l-0.1-0.1l0,0l-1-1.5h-12l-2.2,3.7l4.7,7.7L72.9,223L72.9,223z M58.9,223
					H67l-4-6.7l0,0l0,0L58.9,223z M50.5,223h7.2l4.7-7.7l-2.2-3.7h-9.6l-3.4,5.8L50.5,223z M43.5,223h5.6l-2.8-4.7L43.5,223z
					 M32.7,223h9.5l3.4-5.8l-3.4-5.8h-7.2l-4.7,7.7L32.7,223z M28.2,223h3.2l-1.7-2.6L28.2,223z M14.9,223h12l2.2-3.7l-4.7-7.7h-4.8
					l-5.9,9.6L14.9,223z M12.8,223h0.7l-0.4-0.6L12.8,223z M96.8,211.6l6.9,11.4l6.9-11.4H96.8z M85.8,222.8h2.5l6.9-11.3h-14
					l-1.1,1.7L85.8,222.8z M328.2,211.6l6.5,10.7l0.1-0.1l0,0l6.5-10.6H328.2z M221.5,211.6l6.1,10l6.1-10H221.5z M114.7,211.6
					l5.5,9.2l5.6-9.2H114.7z M345.8,211.6l5.2,8.8v-0.1v0.1l5.2-8.8H345.8z M239.1,211.6l5,8.1l5-8.1H239.1z M132.5,211.6l4.4,7.4
					l4.4-7.4H132.5z M367.7,218.3L367.7,218.3l4.1-6.7h-8.3L367.7,218.3L367.7,218.3z M25.7,211.6l4,6.7l4-6.7H25.7z M256.9,211.6
					l3.6,6.1l3.7-6.1H256.9z M150.2,211.6l3.3,5.4l3.3-5.4H150.2z M381.4,211.6l2.9,4.7l0,0l0,0l2.9-4.7H381.4z M43.5,211.6l2.9,4.7
					l2.9-4.7H43.5z M274.8,211.6l2.3,4l2.3-4H274.8z M168.1,211.6l2.1,3.3l2.1-3.3H168.1z M61.2,211.6l1.7,2.6l1.7-2.6H61.2z
					 M292.4,211.6l1.2,2.1l1.2-2.1H292.4z M185.8,211.6l0.8,1.4l0,0l0,0l0.8-1.4H185.8z M79.1,211.6l0.3,0.6l0.3-0.6H79.1z
					 M389.1,210.5h8.3l-4.1-6.9L389.1,210.5z M373.9,210.5h5.8l-2.9-4.8L373.9,210.5z M358.3,210.5h3.4l-1.7-2.8L358.3,210.5z
					 M343.1,210.5h1l-0.4-0.8L343.1,210.5z M297,210.5h11.4v-0.1l0,0l-5.6-9.5L297,210.5z M281.6,210.5h9.1v-0.1l0,0l-4.5-7.4
					L281.6,210.5z M266.3,210.5h6.5l-3.3-5.5L266.3,210.5z M256.4,210.5h8.5l4-6.6l-3-5h-8l-4.3,7L256.4,210.5z M250.8,210.5h4.3
					l-2.2-3.6L250.8,210.5z M249.5,210.5l2.8-4.5l-4.1-7h-5.8L237,208l1.5,2.5H249.5z M235.4,210.5h1.8l-0.8-1.5L235.4,210.5z
					 M220.6,210.5h13.5l1.5-2.5l-5.4-9.1H227l-6.7,11L220.6,210.5z M204.8,210.5h14l0.3-0.6l0,0l0,0l-6.6-11h-0.8L204.8,210.5z
					 M185.1,210.5h2.9l6.7-11.3l-0.1-0.1h-13.8l-1.4,2.2L185.1,210.5z M167.4,210.5h5.2l5.6-9.4L177,199h-11.3l-2.5,4.3L167.4,210.5
					z M149.7,210.5h7.7l4.4-7.3l-2.5-4.1h-8.9l-3.7,6.2L149.7,210.5z M131.9,210.5h10l3.2-5.2l-3.7-6.2h-6.5l-5,8.3L131.9,210.5z
					 M114.2,210.5h12.4v-0.1h0.1l1.9-3.2l-5-8.3h-4.1l-6.2,10.2L114.2,210.5z M78.4,210.5h1.9v-0.1h0.1l6.9-11.4h-14l-1,1.7l0,0l0,0
					L78.4,210.5z M66.4,210.5h10.7l-5.4-8.9L66.4,210.5z M65.2,210.5L65.2,210.5l6.1-9.9l-1-1.7H58l-2.1,3.6l4.8,8L65.2,210.5
					L65.2,210.5z M51,210.5h8.3l-4.1-6.9l0,0l0,0L51,210.5z M42.9,210.5h6.9l4.8-8l-2.1-3.6h-9.8l-3.4,5.6L42.9,210.5z M35.8,210.5
					h5.9l-2.9-5L35.8,210.5z M34.5,210.5L34.5,210.5l3.6-5.9l-3.4-5.6h-7.3l-4.5,7.6l2.3,4L34.5,210.5L34.5,210.5z M20.4,210.5h3.6
					l-1.8-2.9L20.4,210.5z M380.7,210.3h7l4.8-7.8l-2.2-3.6h-9.6l-3.4,5.6L380.7,210.3z M363,210.3h9.5l3.4-5.8l-3.4-5.6h-7.3
					l-4.7,7.6L363,210.3z M345.3,210.3h12l2.3-3.9l-4.5-7.6h-5l-5.8,9.6L345.3,210.3z M327.6,210.3h14.2l1.1-1.8l-5.8-9.6h-2.3
					L327.6,210.3z M312.4,210.3H326l-6.7-11.3L312.4,210.3z M309.6,210.3h1.4l7-11.4h-14l-0.6,1L309.6,210.3z M291.9,210.3h4
					l6.3-10.5l-0.7-1h-12.9l-1.9,3L291.9,210.3z M274,210.3h6.3l5.1-8.5l-1.8-3H273l-3,5L274,210.3z M203,210.3h0.4l6.9-11.4h-14
					l-0.1,0.1L203,210.3z M189.4,210.3h12.2l-6.2-10.2L189.4,210.3z M174.1,210.3h9.8l-4.8-8.1L174.1,210.3z M158.7,210.3h7.4
					l-3.7-6.2L158.7,210.3z M143.3,210.3h5l-2.5-4.1L143.3,210.3z M127.9,210.3h2.6l-1.2-2.1L127.9,210.3z M111.3,210.3L111.3,210.3
					l0.7-1l0,0l0,0l-6.2-10.3h-1.7l-6.9,11.4h14V210.3z M81.8,210.3h13.1l-6.5-10.9L81.8,210.3z M89.3,198.9l6.9,11.3l6.9-11.3H89.3
					z M320.5,198.9l6.3,10.6l6.3-10.6H320.5z M213.8,198.9l5.9,10l6.1-10H213.8z M107.2,198.9l5.5,9.2l5.6-9.2H107.2z M338.4,198.9
					l5.2,8.7l5.2-8.7H338.4z M231.6,198.9l4.8,8l4.8-8H231.6z M124.9,198.9l4.4,7.3l4.4-7.3H124.9z M356.1,198.9l4,6.6l4-6.6H356.1z
					 M249.4,198.9l3.6,5.9l3.6-5.9H249.4z M142.6,198.9l3.2,5.2l3.2-5.2H142.6z M35.9,198.9l2.8,4.5l2.8-4.5H35.9z M373.9,198.9
					l2.8,4.5l2.8-4.5H373.9z M267.1,198.9l2.3,3.9l2.3-3.9H267.1z M160.5,198.9l1.9,3.2l1.9-3.2H160.5z M53.8,198.9l1.5,2.6l1.5-2.6
					H53.8z M286.1,200.8L286.1,200.8l1.2-1.9H285L286.1,200.8L286.1,200.8z M178.3,198.9l0.7,1.2l0.7-1.2H178.3z M71.5,198.9
					l0.3,0.6l0.3-0.6H71.5z M381.3,197.9h8.5l-4.3-7L381.3,197.9z M373.2,197.9h6.9l4.8-8.1l-2.1-3.4H373l-3.3,5.6L373.2,197.9z
					 M366,197.9h5.9l-3-5L366,197.9z M355.4,197.9h9.2l3.6-6.1l-3.2-5.4l0,0v-0.1h-7.4l-4.5,7.6L355.4,197.9z M350.6,197.9h3.6
					l-1.8-3L350.6,197.9z M337.7,197.9h11.6l2.5-4l-4.5-7.6h-5l-5.8,9.5L337.7,197.9z M335.4,197.9h1l-0.6-0.8L335.4,197.9z
					 M319.8,197.9H334l1.2-2.1l-5.6-9.5h-0.1v-0.1H327L319.8,197.9z M318.6,197.9L318.6,197.9l-6.9-11.4h-0.1v-0.1h-0.1l-7,11.6
					L318.6,197.9L318.6,197.9z M302.1,197.9h1.2l6.9-11.4H296l-0.4,0.7L302.1,197.9z M300.8,197.9L300.8,197.9l-5.8-9.6l-5.8,9.6
					H300.8z M284.3,197.9h3.6l6.5-10.7l-0.6-0.8h-12.9l-1.8,2.8L284.3,197.9z M273.7,197.9h9.2l-4.7-7.6L273.7,197.9L273.7,197.9z
					 M266.6,197.9h5.9l5.4-8.8l-1.7-2.6h-10.7l-2.9,4.7L266.6,197.9z M258.5,197.9h6.7l-3.3-5.5L258.5,197.9z M248.7,197.9h8.4
					l4-6.7l0,0l-2.9-4.8h-8.3l-4.1,6.9L248.7,197.9z M243.1,197.9h4.4l-2.2-3.7L243.1,197.9z M227.6,197.9h1.9l-1-1.7L227.6,197.9z
					 M213.2,197.9h13.3l1.7-2.6l-5.2-8.9h-3.6l-6.6,10.9L213.2,197.9z M197,197.9h14.2l0.4-0.7l-6.5-10.9h-1v0.1h-0.3L197,197.9z
					 M195.5,197.9h0.3l6.9-11.4h-14L195.5,197.9z M181.6,197.9h12.5l-6.2-10.3v0.1v-0.1L181.6,197.9L181.6,197.9z M177.6,197.9h2.8
					l6.9-11.4h-14l-1.2,2.1l0,0l0,0L177.6,197.9z M166.2,197.9h10l-5-8.4L166.2,197.9z M159.8,197.9h5.1l5.8-9.5l-1.2-2.1h-11.7
					l-2.3,4L159.8,197.9z M150.9,197.9h7.7l-3.9-6.3L150.9,197.9z M142,197.9h7.6l4.4-7.4l-2.3-4h-9.2l-3.7,6.2L142,197.9z
					 M135.5,197.9h5.2l-2.6-4.4L135.5,197.9z M124.3,197.9h9.9l3.3-5.4l-3.7-6.1H127l-4.8,8.1L124.3,197.9z M120.2,197.9h2.8
					l-1.4-2.3L120.2,197.9z M106.5,197.9h12.4l2.1-3.4l-4.8-8.1h-4.4l-6.1,10L106.5,197.9L106.5,197.9z M89.4,197.9h14l0.8-1.2v-0.1
					v-0.1l-5.9-10h-2.1L89.4,197.9z M74.1,197.9h13.3l-6.6-11L74.1,197.9z M71,197.9h1.8l7-11.6l-14.2,0.1l-0.8,1.2L71,197.9z
					 M58.7,197.9h11l-5.4-9.1L58.7,197.9z M53.1,197.9h4.4l6.1-10l-0.8-1.4H50.3l-2.1,3.4L53.1,197.9z M43.5,197.9h8.4l-4.3-7
					l-1.5,2.5L43.5,197.9z M42.1,197.9l4.8-8.1l-2.1-3.4h-9.9l-3.3,5.4l3.7,6.2H42.1z M34.1,197.9l-3-5.1l-3,5.1H34.1z M230.9,197.8
					h10.9l2.9-4.7l-4-6.7h-5.9l-5.4,8.8L230.9,197.8z M81.7,186.4l6.6,11.1l6.7-11.1H81.7z M313.1,186.4l6.2,10.5l6.2-10.5H313.1z
					 M212.1,196L212.1,196l5.9-9.8h-11.8L212.1,196L212.1,196z M99.4,186.4l5.4,9.1l5.5-9.1H99.4z M330.8,186.4l5,8.3l5-8.3H330.8z
					 M224.1,186.4l4.7,7.7l4.7-7.7H224.1z M117.3,186.4l4.3,7.2l4.3-7.2H117.3z M348.7,186.4l3.9,6.3l3.7-6.3H348.7z M241.8,186.4
					l3.4,5.8l3.4-5.8H241.8z M135.1,186.4l3,5.1l3-5.1H135.1z M366.4,186.4l2.6,4.3l2.6-4.3H366.4z M259.6,186.4l2.2,3.7l2.3-3.7
					H259.6z M152.8,186.4l1.8,3l1.8-3H152.8z M46.2,186.4l1.4,2.2l1.4-2.2H46.2z M277.4,186.4l1,1.7l1-1.7H277.4z M170.7,186.4
					l0.7,1.1l0.7-1.1H170.7z M373.6,185.3h8.7l-4.3-7.2L373.6,185.3z M372.2,185.3L372.2,185.3l5-8.1l-1.9-3.2h-10.2l-3,5.1l3.7,6.2
					H372.2z M358.2,185.3h6.2l-3-5.2L358.2,185.3z M356.9,185.3L356.9,185.3l3.7-6.2l-3.2-5.4h-7.6l-4.4,7.3l2.5,4.1h8.9V185.3z
					 M342.8,185.3h3.7l-1.9-3.2L342.8,185.3z M341.4,185.3L341.4,185.3l2.6-4.1l-4.4-7.3h-5.2l-5.5,9.2l1.2,2.2H341.4z M327.6,185.3
					h1.2l-0.6-1L327.6,185.3z M326.1,185.3L326.1,185.3l1.2-2.1l-5.6-9.4H319l-6.9,11.3l0.1,0.1H326.1z M296.7,185.3h14v-0.1
					l-6.7-11.3h-0.4L296.7,185.3z M294.5,185.3h1l6.9-11.4h-14l-0.3,0.6L294.5,185.3z M281.4,185.3h11.8l-5.9-9.9L281.4,185.3z
					 M276.8,185.3h3.4l6.6-10.9l-0.3-0.6H273l-1.5,2.5l0,0v0.1L276.8,185.3z M266,185.3h9.4l-4.7-7.7L266,185.3L266,185.3z
					 M258.9,185.3h5.8l5.4-8.8l-1.5-2.6h-10.9l-2.9,4.7L258.9,185.3z M257.6,185.3l-3.4-5.8l0,0l0,0l-3.4,5.8H257.6z M241.3,185.3
					h8.3l4.1-6.9l-2.8-4.7h-8.5l-4,6.7L241.3,185.3z M235.4,185.3h4.5l-2.3-3.7L235.4,185.3z M219.9,185.3h2.2l-1.1-1.8L219.9,185.3
					L219.9,185.3z M205.6,185.3h13.1l1.7-2.9l-5.2-8.5h-3.6l-6.5,10.6L205.6,185.3z M189.3,185.3h14l0.4-0.8v-0.1v-0.1l-6.3-10.5
					H196L189.3,185.3z M187.9,185.3L187.9,185.3l7-11.4H181L187.9,185.3z M173.9,185.3h12.7l-6.3-10.5v0.1l0,0l-0.1,0.3v-0.1
					L173.9,185.3z M170,185.3h2.6l6.9-11.4h-14l-1.1,1.9L170,185.3z M158.5,185.3h10.2l-5.1-8.5L158.5,185.3z M157.2,185.3
					L157.2,185.3l5.8-9.6l-1.1-1.8h-11.8l-2.3,3.9l4.5,7.6H157.2z M143.2,185.3h7.7l-3.9-6.5l0,0l0,0L143.2,185.3L143.2,185.3z
					 M134.5,185.3h7.3l4.5-7.6l-2.3-4h-9.2l-3.6,6.1L134.5,185.3z M127.8,185.3h5.4l-2.6-4.5L127.8,185.3z M126.5,185.3L126.5,185.3
					l3.3-5.5l-3.6-6.1h-6.7l-0.1,0.1l-4.7,7.8l2.1,3.6L126.5,185.3L126.5,185.3z M112.4,185.3h3l-1.5-2.5L112.4,185.3z M98.8,185.3
					H111l2.1-3.6l-4.8-8h-4.4v0.1l-6.1,9.9L98.8,185.3z M81.7,185.3h14l1-1.5v-0.1l0,0l-5.9-9.8h-0.1v-0.1h-1.9L81.7,185.3z
					 M66.3,185.3h13.5L73,174L66.3,185.3z M63.3,185.3h1.8l6.9-11.4h-14l-0.7,1.2L63.3,185.3z M62,185.3L62,185.3l-5.5-9.2l0,0l0,0
					l-5.6,9.2H62z M45.5,185.3h4.1l6.2-10.2l-0.7-1.2H42.5l-1.8,3.2L45.5,185.3z M35.6,185.3h8.7l-4.4-7.3L35.6,185.3z M223.4,185.1
					h10.7l2.9-4.8l-3.9-6.5H227l-5.2,8.5L223.4,185.1z M74.1,173.9l6.6,10.9l6.6-10.9H74.1z M305.5,173.9l6.1,10.2l6.2-10.2H305.5z
					 M198.8,173.9l5.6,9.5l5.8-9.5H198.8z M92,173.9l5.2,8.8l5.4-8.8H92z M323.1,173.9l5,8.3l5-8.3H323.1z M216.4,173.9l4.5,7.6
					l4.5-7.6H216.4z M109.8,173.9l4.1,6.9l4.1-6.9H109.8z M341,173.9l3.7,6.2l3.7-6.2H341z M234.4,173.9l3.3,5.5l3.3-5.5H234.4z
					 M127.5,173.9l2.9,4.8l2.9-4.8H127.5z M358.7,173.9l2.5,4.3l0,0l0,0l2.5-4.3H358.7z M252.1,173.9l2.1,3.6l2.2-3.6H252.1z
					 M145.4,173.9l1.7,2.9l1.7-2.9H145.4z M269.9,173.9l0.8,1.5l0.8-1.5H269.9z M163.1,173.9l0.4,0.8l0.4-0.8H163.1z M365.7,172.8
					h8.9l-4.4-7.3L365.7,172.8z M358.2,172.8h6.3l0.8-1.4l0,0l4.3-7l-1.9-3.2h-10.3l-3,5.2L358.2,172.8z M350.5,172.8h6.3l-3.2-5.4
					L350.5,172.8z M335.1,172.8h4l-2.1-3.3L335.1,172.8z M321.3,172.8L321.3,172.8l-0.8-1.2l-0.8,1.2H321.3z M273.6,172.8h12.1v-0.1
					h0.1l-6.1-10L273.6,172.8z M269.3,172.8h3l6.7-11.1l-0.3-0.4h-13.6l-1.4,2.3v0.1l0,0L269.3,172.8z M251.4,172.8h5.5v-0.1l0,0
					l5.4-8.9l-1.5-2.5h-11l-2.8,4.4L251.4,172.8L251.4,172.8L251.4,172.8z M233.7,172.8h8l4.3-7.2l-2.6-4.4h-8.7l-4,6.6L233.7,172.8
					L233.7,172.8L233.7,172.8z M216,172.8h10.3v-0.1l0,0l3-5.1l-3.9-6.3H219l-5.1,8.5L216,172.8z M214.6,172.8L214.6,172.8l-1.2-2.1
					l-1.2,2.1H214.6z M198.1,172.8h12.8l1.8-3l-5.1-8.5h-4l-6.3,10.5L198.1,172.8z M162.6,172.8h2.2v-0.1l0,0l6.9-11.3h-14l-1.1,1.7
					L162.6,172.8z M144.8,172.8h4.5l5.9-9.8l-1-1.7h-12l-2.2,3.7L144.8,172.8z M127,172.8h7l4.7-7.8l-2.2-3.7h-9.6l-3.4,5.6
					L127,172.8z M109.2,172.8h9.5v-0.1l3.4-5.6l-3.4-5.6h-7.2l-4.7,7.7L109.2,172.8z M91.5,172.8h11.8v-0.1h0.1l2.2-3.7l-4.7-7.7
					h-4.8l-5.8,9.6L91.5,172.8z M74,172.8h14l1.1-1.7l0,0l0,0l-5.8-9.6H81L74,172.8z M55.8,172.8h1.4l7-11.6h-14l-0.7,1.1
					L55.8,172.8L55.8,172.8L55.8,172.8z M340.3,172.6h8.8l3.9-6.3l-3-5.1h-7.8l-4.3,7.2L340.3,172.6z M322.6,172.6h11.3l2.6-4.4
					l-4.4-7.2h-5.5l-5.5,9.1L322.6,172.6z M304.7,172.6h13.8l1.4-2.3l-5.5-9.1h-3l-6.7,11.1L304.7,172.6z M289.1,172.6h14l0.1-0.3
					l-6.7-11.1H296L289.1,172.6z M286.9,172.6h0.8l7-11.4h-14l-0.3,0.4L286.9,172.6z M258.3,172.6h9.5l-4.7-7.8L258.3,172.6z
					 M242.9,172.6h7.2l-3.6-5.9L242.9,172.6z M227.6,172.6h4.7l-2.3-3.9L227.6,172.6z M181.6,172.6h14l0.6-0.8v-0.1l0,0l-6.2-10.5
					h-1.4L181.6,172.6z M166.2,172.6H179l-6.5-10.6L166.2,172.6z M150.8,172.6h10.5l-5.2-8.5L150.8,172.6z M135.4,172.6h8l-4-6.6
					L135.4,172.6z M120.1,172.6h5.6l-2.8-4.5L120.1,172.6z M104.7,172.6h3.2l-1.7-2.6L104.7,172.6z M89.3,172.6h0.6l-0.3-0.6
					L89.3,172.6z M58.6,172.6h13.6l-6.9-11.3L58.6,172.6z M43.2,172.6h11.3l-5.6-9.4L43.2,172.6z M173.5,161.3l6.9,11.3l6.9-11.3
					H173.5z M66.7,161.2l6.5,10.7l6.5-10.7H66.7z M297.8,161.2l6.1,10l6.1-10H297.8z M191.2,161.2l5.6,9.4l5.6-9.4H191.2z
					 M84.5,161.2l5.2,8.7l5.2-8.7H84.5z M315.7,161.2l5,8.1l4.8-8.1H315.7z M208.9,161.2l4.4,7.4l4.4-7.4H208.9z M102.2,161.2l4,6.7
					l4-6.7H102.2z M333.4,161.2l3.7,6.1l3.6-6.1H333.4z M226.7,161.2l3.3,5.4l3.3-5.4H226.7z M119.9,161.2l2.9,4.7l2.9-4.7H119.9z
					 M351.3,161.2l2.5,4.1l2.5-4.1H351.3z M244.4,161.2l2.1,3.4l2.1-3.4H244.4z M137.8,161.2l1.7,2.6l1.7-2.6H137.8z M262.3,161.2
					l0.8,1.4l0.8-1.4H262.3z M155.6,161.2l0.4,0.7l0.4-0.7H155.6z M357.9,160.1h9.1l-4.5-7.6L357.9,160.1z M350.6,160.1h6.1l5.2-8.5
					l-1.8-3h-10.5l-3,5L350.6,160.1z M342.8,160.1h6.5l-3.3-5.5L342.8,160.1z M332.7,160.1h8.7l4-6.6l-3-5h-8.1l-4.1,7L332.7,160.1z
					 M327.2,160.1h4.3l-2.2-3.6L327.2,160.1z M326,160.1L326,160.1l2.9-4.5l-4.3-7H319l-5.4,9.1l1.5,2.5H326z M313.8,160.1
					L313.8,160.1l-0.8-1.5l-0.8,1.5H313.8z M310.6,160.1L310.6,160.1l1.7-2.5l-5.4-8.9h-0.1v-0.1h-3.2l-6.7,11l0.3,0.6L310.6,160.1
					L310.6,160.1z M281.2,160.1h14.2l0.3-0.6l-6.5-10.9h-1L281.2,160.1z M279.4,160.1h0.6l7-11.6h-14.2l-0.1,0.3L279.4,160.1z
					 M265.7,160.1h12.4l-6.2-10.2L265.7,160.1z M261.6,160.1h3l6.7-11.1l-0.1-0.3h-13.8l-1.4,2.2v0.1v0.1L261.6,160.1z M260.4,160.1
					L260.4,160.1l-4.8-8.1l-5,8.1H260.4z M243.9,160.1h5.4l5.6-9.2l0,0l0,0l-1.4-2.2h-11.3l-2.6,4.3L243.9,160.1z M242.5,160.1
					L242.5,160.1l-3.6-6.2l-3.7,6.2H242.5z M226,160.1h7.8l4.4-7.2l-2.5-4.3h-8.9L223,155L226,160.1z M219.7,160.1h5.1l-2.6-4.1
					L219.7,160.1z M208.4,160.1h10.2l3.2-5.2l-3.9-6.2h-6.6l-5,8.3L208.4,160.1z M204.4,160.1h2.5l-1.2-2.1L204.4,160.1z
					 M190.5,160.1h12.7l1.9-3.2l-5-8.3H196l-6.2,10.2L190.5,160.1z M173.7,160.1h14l0.7-1.1v-0.1v-0.1l-6.1-10.2h-1.8L173.7,160.1z
					 M158.3,160.1h13.1l-6.6-10.9L158.3,160.1L158.3,160.1z M154.9,160.1h2.2l6.9-11.4h-14l-0.8,1.5l0,0l0,0L154.9,160.1z
					 M142.9,160.1h10.6l-5.2-8.8L142.9,160.1z M137.1,160.1h4.5l6.1-9.9v-0.1v-0.1l-1-1.5h-12v0.1h-0.3l-2.1,3.4L137.1,160.1z
					 M127.6,160.1h8.3l-4.1-6.9L127.6,160.1z M119.4,160.1h6.9l4.8-8l-2.1-3.4h-9.8l-3.4,5.6L119.4,160.1z M112.2,160.1h5.8
					l-2.9-4.8L112.2,160.1z M101.7,160.1h9.2l3.7-6.1l-3.3-5.4h-7.4l-4.5,7.6L101.7,160.1z M96.8,160.1h3.6l-1.8-2.9L96.8,160.1z
					 M83.8,160.1h12l2.3-4l-4.5-7.6h-5.2l-5.8,9.5v0.1v0.1L83.8,160.1z M81.6,160.1h1l-0.6-0.8L81.6,160.1z M66.2,160.1h14l1.1-1.9
					l-5.6-9.5H73L66.2,160.1z M50.6,160.1h14l-6.9-11.4h-0.3L50.6,160.1z M165.7,148.6l6.7,11.3l6.7-11.3H165.7z M59.1,148.7
					l6.3,10.5l6.3-10.6L59.1,148.7L59.1,148.7L59.1,148.7z M290.2,148.6l5.9,10l5.9-10H290.2z M183.6,148.6l5.5,9.2l5.6-9.2H183.6z
					 M76.9,148.6l5.1,8.5l5.1-8.5H76.9z M308.1,148.7l4.7,7.8l0,0l0,0l4.7-7.8H308.1z M201.4,148.6l4.4,7.2l4.4-7.2H201.4z
					 M94.8,148.7l3.9,6.5l4-6.6L94.8,148.7L94.8,148.7L94.8,148.7z M325.9,148.6l3.6,5.9l3.4-5.9H325.9z M219.1,148.6l3.2,5.2
					l3.2-5.2H219.1z M112.5,148.6l2.8,4.5l2.8-4.5H112.5z M343.7,148.6l2.3,3.9l2.3-3.9H343.7z M236.9,148.6l1.9,3.2l2.1-3.2H236.9z
					 M130.3,148.7l1.5,2.5l1.5-2.5H130.3z M254.7,148.6l0.7,1.2l0.7-1.2H254.7z M148,148.6l0.3,0.4l0.3-0.4H148z M196.6,147.6h2.8
					l-1.4-2.3l0,0l0,0L196.6,147.6L196.6,147.6z M350.2,147.6h9.4l-4.7-7.7L350.2,147.6z M342.9,147.6h5.9l5.2-8.7l-1.7-2.8h-10.7
					l-2.9,4.8L342.9,147.6z M334.9,147.6h6.9l-3.4-5.6l0,0l0,0L334.9,147.6z M325.3,147.6h8.4l4-6.7l-2.9-4.8h-8.3l-4.1,6.7
					L325.3,147.6z M319.5,147.6h4.4l-2.2-3.6L319.5,147.6z M318.2,147.6L318.2,147.6l2.9-4.7l-4.1-6.7H311l-5.1,8.5l1.7,2.8h10.6
					V147.6z M304.3,147.6h1.8l-1-1.5L304.3,147.6z M302.9,147.6L302.9,147.6l1.7-2.8l-5.2-8.8h-3.4l-6.6,10.9l0.4,0.7H302.9z
					 M273.5,147.6h14.2l0.4-0.7v-0.1l0,0l-6.3-10.7h-1.1L273.5,147.6z M272.2,147.6L272.2,147.6l6.9-11.4h-14l6.7,11.4H272.2z
					 M258,147.6h12.5l-6.2-10.3l0,0l-0.1-0.1L258,147.6z M254.1,147.6h2.8l6.9-11.4V136h-13.9l-1.2,2.1L254.1,147.6z M252.8,147.6
					L252.8,147.6l-5-8.4l0,0l0,0l-5.1,8.4H252.8z M236.3,147.6h5.2l5.6-9.4l-1.2-2.1h-11.6l-2.5,4L236.3,147.6z M235.1,147.6
					l-3.9-6.3l0,0l0,0l-3.9,6.3H235.1z M218.6,147.6h7.6l4.4-7.4l-2.5-4.1H219l-3.7,6.1L218.6,147.6z M217.3,147.6L217.3,147.6
					l-2.6-4.3l0,0l0,0l-2.6,4.3H217.3z M200.7,147.6h10l3.3-5.4l-3.7-6.1h-6.9l-4.8,8.1L200.7,147.6z M182.9,147.6h12.4l1.9-3.3
					l-4.8-8.1h-4.3l-6.1,10.2L182.9,147.6z M165.9,147.6h14l0.8-1.2v-0.1l0,0l-5.9-10h-1.9L165.9,147.6z M150.6,147.6h13.2l-6.6-11
					L150.6,147.6z M135.1,147.6h11l-5.4-9.1L135.1,147.6z M133.8,147.6L133.8,147.6l6.2-10l-0.8-1.4h-12.4l-2.1,3.4l4.8,8.1h4.3
					V147.6z M119.8,147.6h8.4l-4.1-7l0,0l0,0L119.8,147.6z M111.8,147.6h6.7l4.8-8.1l-1.9-3.3h-10l-3.3,5.4L111.8,147.6z
					 M104.4,147.6h5.9l-2.9-5L104.4,147.6z M94.1,147.6h9.1l3.7-6.1l-3.3-5.4H96l-4.4,7.4L94.1,147.6z M89.1,147.6h3.6l-1.8-3
					L89.1,147.6z M76.2,147.6h11.7l2.5-4.1l-4.4-7.3h-5.2l-5.8,9.5L76.2,147.6z M73.7,147.6h1.1l-0.6-1L73.7,147.6z M58.5,147.6h14
					l1.2-2.1v-0.1l0,0l-5.5-9.4h-2.9L58.5,147.6L58.5,147.6z M147.3,147.5h2.1l6.9-11.4l-14.2,0.1l-0.8,1.4L147.3,147.5z M158.2,136
					l6.6,11.1l6.7-11.1H158.2z M282.8,136l5.8,9.6l5.8-9.6H282.8z M176.1,136l5.4,8.9l5.4-8.9H176.1z M69.3,136l5,8.3l5-8.3H69.3z
					 M300.6,136l4.7,7.7l4.7-7.7H300.6z M193.8,136l4.3,7l4.1-7H193.8z M87.1,136l3.9,6.3l3.9-6.3H87.1z M318.3,136l3.4,5.8l3.4-5.8
					H318.3z M211.6,136l3,5l3-5H211.6z M105,136l2.6,4.3l2.6-4.3H105z M336,136l2.2,3.7l2.2-3.7H336z M229.4,136l1.8,3l1.8-3H229.4z
					 M122.7,136l1.4,2.3l1.4-2.3H122.7z M247.2,136l0.6,1l0.6-1H247.2z M342.5,135.1h9.6l-4.8-7.8L342.5,135.1z M341.3,135.1
					L341.3,135.1l5.4-8.9l-1.7-2.6h-11l-2.8,4.7l4.1,6.9H341.3z M327.2,135.1h7l-3.6-5.9L327.2,135.1z M317.6,135.1h8.3l4.1-6.9
					l-2.8-4.7h-8.5l-4,6.7L317.6,135.1z M311.7,135.1h4.7l-2.3-3.9L311.7,135.1z M300,135.1h10.6l3-4.8l-4-6.6h-6.2l-5.1,8.5
					L300,135.1z M282.3,135.1H295v-0.1h0.1l1.5-2.6v-0.1V132l-5.1-8.5h-3.7l-6.3,10.6L282.3,135.1L282.3,135.1L282.3,135.1z
					 M246.6,135.1h2.5v-0.1l0,0l6.9-11.4h-14l-1.1,1.9L246.6,135.1z M228.7,135.1h4.8l5.8-9.6l-1.1-1.9h-11.7l-2.5,4L228.7,135.1
					L228.7,135.1L228.7,135.1z M211,135.1h7.3v-0.1l0,0l4.5-7.6l0,0l-2.3-3.9h-9.4l-3.6,5.9L211,135.1z M193.3,135.1h9.6v-0.1h0.1
					l3.3-5.5l-3.6-5.9h-6.9l-4.8,8L193.3,135.1z M175.5,135.1h12v-0.1h0.1l2.1-3.4l-4.8-8h-4.5l-6.1,9.9L175.5,135.1L175.5,135.1
					L175.5,135.1z M158.2,135.1h14v-0.1l0,0l0.8-1.4v-0.1l0,0l-5.9-9.9h-2.1L158.2,135.1z M139.8,135.1h1.7l0.1-0.1l6.9-11.3h-14.2
					l-0.7,1.1L139.8,135.1z M127.4,135.1h11.1l-5.5-9.2l0,0l0,0L127.4,135.1z M126.1,135.1L126.1,135.1l6.2-10.3l-0.7-1.2H119
					l-1.9,3.2l5,8.4L126.1,135.1L126.1,135.1z M104.3,135.1h6.5v-0.1l0,0l5-8.1l-1.9-3.2h-10.2l-3.2,5.2L104.3,135.1z M86.5,135.1
					h8.9l3.9-6.3l-3.2-5.1h-7.8l-4.4,7.2L86.5,135.1z M68.8,135.1h11.1v-0.1h0.1l2.6-4.1l-4.4-7.2h-5.5l-5.5,9.1L68.8,135.1
					L68.8,135.1L68.8,135.1z M264.2,134.9L264.2,134.9L264.2,134.9h0.1h0.1l6.9-11.4h-13.9L264.2,134.9z M296.6,134.9h2.1l-1-1.7
					L296.6,134.9z M265.7,134.9h14l0.6-0.8l-6.3-10.6h-1.2L265.7,134.9z M250.3,134.9H263l-6.3-10.5L250.3,134.9z M235.1,134.9h10
					l-5-8.4L235.1,134.9z M219.7,134.9h7.7l-3.9-6.5l0,0l0,0L219.7,134.9z M204.3,134.9h5.4l-2.8-4.5L204.3,134.9z M188.9,134.9h3
					l-1.5-2.5L188.9,134.9z M142.8,134.9h13.5l-6.7-11.1L142.8,134.9z M112.2,134.9h8.5l-4.3-7.2L112.2,134.9z M96.7,134.9h6.2
					l-3-5.1L96.7,134.9z M81.4,134.9h3.9l-1.9-3.2L81.4,134.9z M66,134.9h1.2l-0.7-1L66,134.9z M150.6,123.5l6.6,11l6.6-11H150.6z
					 M275.2,123.5l5.8,9.5l5.8-9.5H275.2z M168.5,123.5l5.2,8.8l5.4-8.8H168.5z M293,123.5l4.5,7.6l4.5-7.6H293z M186.2,123.5
					l4.1,6.9l4.1-6.9H186.2z M79.5,123.5l3.7,6.2l3.7-6.2H79.5z M310.7,123.5l3.4,5.5l3.3-5.5H310.7z M204,123.5l3,5l0,0l0,0l3-5
					H204z M97.2,123.5l2.6,4.1l2.6-4.1H97.2z M328.5,123.5l2.2,3.6l2.2-3.6H328.5z M222,123.8l1.5,2.6l1.7-2.9h-3.4L222,123.8z
					 M115.1,123.5l1.2,2.2l1.4-2.2H115.1z M239.6,123.5l0.6,0.8l0.6-0.8H239.6z M334.8,122.4h9.6l-4.8-8L334.8,122.4z M327.9,122.4
					h5.5l5.6-9.4l-1.4-2.2h-11.3l-2.8,4.4L327.9,122.4z M319.4,122.4h7.3l-3.6-6.1L319.4,122.4z M318.2,122.4L318.2,122.4l4.3-7
					l-2.8-4.5h-8.5l-3.9,6.6l3,5H318.2z M304,122.4h5l-2.5-4.1L304,122.4L304,122.4z M292.3,122.4h10.5l3-5.1l-3.9-6.3h-6.3
					l-5.1,8.4L292.3,122.4z M288.7,122.4h2.3l-1.1-1.9l0,0l0,0L288.7,122.4z M274.6,122.4h12.8l1.8-3L284,111h-3.9l-6.3,10.5
					L274.6,122.4z M257.9,122.4h14.2l0.6-1l-6.2-10.5h-1.5L257.9,122.4z M255.3,122.4L255.3,122.4l-6.2-10.7l-6.5,10.7H255.3z
					 M239.1,122.4h2.2l6.9-11.4h-14l-1,1.7L239.1,122.4z M227.2,122.4h10.5l-5.2-8.7L227.2,122.4z M221.2,122.4h4.7l5.9-9.8
					l-1.1-1.7h-12l-2.2,3.7L221.2,122.4z M211.8,122.4h8.1l-4-6.7L211.8,122.4z M203.4,122.4h7.2l4.7-7.7l-2.2-3.7h-9.5l-3.6,5.8
					L203.4,122.4z M196.4,122.4h5.6l-2.8-4.7L196.4,122.4z M185.7,122.4h9.5l3.4-5.8l-3.4-5.8H188l-4.7,7.7L185.7,122.4z
					 M181.2,122.4h3.2l-1.7-2.6L181.2,122.4z M168,122.4h12l2.2-3.7l-4.7-7.7h-4.7l-5.9,9.6v0.1v0.1L168,122.4L168,122.4z
					 M165.7,122.4h0.7l-0.3-0.6L165.7,122.4z M150.5,122.4h13.9l1-1.7v-0.1v-0.1l-5.8-9.6h-2.2L150.5,122.4z M135.1,122.4h13.8
					L142,111L135.1,122.4z M132.3,122.4h1.5l6.9-11.4h-14l-0.6,1l0,0l0,0L132.3,122.4z M119.7,122.4h11.3l-5.6-9.4L119.7,122.4z
					 M114.4,122.4h3.9l6.3-10.5l-0.7-1.1h-12.7l-1.9,3L114.4,122.4z M113.2,122.4l-4.4-7.4l-4.4,7.4H113.2z M96.7,122.4h6.3l5-8.4
					l-1.9-3.2H95.9l-3.2,5.1L96.7,122.4z M89,122.4h6.5l-3.2-5.4L89,122.4z M79,122.4h8.7l4-6.5l-3-5.1h-8l-4.3,7.2L79,122.4z
					 M73.6,122.4h4.1l-2.1-3.4L73.6,122.4z M252.3,115l4.4,7.3l6.9-11.3h-13.6L252.3,115z M143.1,111l6.5,10.7L156,111H143.1z
					 M267.7,111l5.6,9.4l5.6-9.4H267.7z M160.9,111l5.1,8.5l5.2-8.5H160.9z M285.4,111l4.4,7.4l4.4-7.4H285.4z M178.7,111l4,6.7
					l4-6.7H178.7z M303.2,111l3.3,5.4l3.2-5.4H303.2z M196.6,111l2.8,4.7l2.8-4.7H196.6z M89.8,111l2.3,4l2.3-4H89.8z M320.9,111
					l2.1,3.4l2.1-3.4H320.9z M214.2,111l1.7,2.6l1.7-2.6H214.2z M107.6,111l1.1,1.9l1.2-1.9H107.6z M232,111l0.4,0.7l0.4-0.7H232z
					 M173.5,109.9h3.4l-1.7-2.9L173.5,109.9z M320.4,109.9h5.2l5.6-9.4l-1.4-2.2h-11.4l-2.6,4.3L320.4,109.9z M267,109.9h12.4v-0.1
					h0.1l1.8-3l-5-8.3h-4.1l-6.2,10.2L267,109.9z M234.8,109.9H248l-6.6-11L234.8,109.9z M231.4,109.9h2.2l7-11.6h-14l-1,1.7l0,0
					l0,0L231.4,109.9z M219.4,109.9h10.7l-5.4-8.9L219.4,109.9z M213.6,109.9h4.5l6.1-9.9l-1-1.7H211l-2.1,3.6L213.6,109.9z
					 M204,109.9h8.3l-4.1-6.9l0,0l0,0L204,109.9z M195.9,109.9h6.9l4.8-8l-2.1-3.6h-9.9l-3.4,5.6L195.9,109.9z M188.7,109.9h5.9
					l-2.9-5L188.7,109.9z M178.1,109.9h9.2l3.6-5.9l-3.4-5.6h-7.3l-4.5,7.6L178.1,109.9z M160.4,109.9h11.7l2.3-4l-4.5-7.6h-5
					l-5.8,9.6L160.4,109.9z M142.6,109.9h14l1.1-1.9l0,0v-0.1l-5.6-9.5h-2.6L142.6,109.9z M107,109.9h3.6l6.5-10.7l-0.4-0.7h-13.1
					l-1.7,2.9L107,109.9z M89.1,109.9h6.1l5.2-8.5l-1.7-2.9H88.2l-2.9,4.8L89.1,109.9L89.1,109.9L89.1,109.9z M327.1,109.8h9.8
					l-4.8-8L327.1,109.8z M311.6,109.8h7.4l-3.7-6.2L311.6,109.8z M302.6,109.8h7.8l4.4-7.2l-2.5-4.3h-8.9l-3.9,6.2L302.6,109.8z
					 M296.3,109.8h5l-2.5-4.1L296.3,109.8z M284.7,109.8h10.2l3.2-5.2l-3.7-6.2h-6.5l-5,8.3L284.7,109.8z M281,109.8h2.5l-1.2-2.1
					L281,109.8z M250.2,109.8h14.2l0.7-1.1l-6.2-10.3h-1.8L250.2,109.8z M158,109.8h0.8l-0.4-0.7L158,109.8z M127.2,109.8h13.9
					l-6.9-11.4h-0.1L127.2,109.8z M124.8,109.8h1.2l6.9-11.4h-14.2l-0.6,0.8l0.1,0.1l0,0L124.8,109.8L124.8,109.8z M112,109.8h11.4
					l-5.6-9.5L112,109.8z M96.6,109.8h9.1l-4.5-7.6L96.6,109.8z M81.2,109.8h6.7l-3.3-5.5L81.2,109.8z M242.4,98.3l6.7,11.3
					l6.9-11.3H242.4z M135.6,98.3l6.5,10.6l6.3-10.6H135.6z M265.6,107.6L265.6,107.6l5.6-9.2h-11.1L265.6,107.6L265.6,107.6z
					 M153.4,98.3l5.1,8.5l5.1-8.5H153.4z M277.9,98.3l4.3,7.2l4.3-7.2H277.9z M171.1,98.3l4,6.6l4-6.6H171.1z M295.6,98.3l3.2,5.2
					l3.2-5.2H295.6z M188.9,98.3l2.8,4.5l2.8-4.5H188.9z M313.3,98.3l1.9,3.2l2.1-3.2H313.3z M206.6,98.3l1.5,2.6l1.5-2.6H206.6z
					 M100,98.3l1.1,1.8l1.1-1.8H100z M224.5,98.3l0.3,0.6l0.3-0.6H224.5z M319.3,97.2h10l-5-8.3L319.3,97.2L319.3,97.2z M312.8,97.2
					h5.1l5.8-9.5l-1.2-2.1h-11.6v0.1l0,0l-2.5,4L312.8,97.2z M303.9,97.2h7.7l-3.9-6.3L303.9,97.2z M295,97.2h7.6L307,90l-2.5-4.3
					h-9.1l-3.7,6.2L295,97.2z M288.4,97.2h5.4l-2.6-4.4L288.4,97.2z M287.2,97.2L287.2,97.2l3.3-5.4l-3.7-6.2h-6.7l-4.8,8.1l2.1,3.4
					H287.2z M273.2,97.2h2.8l-1.4-2.3L273.2,97.2z M259.4,97.2h12.4l2.1-3.4l-4.8-8.1h-4.5l-6.1,9.9L259.4,97.2z M242.4,97.2h14.2
					l0.8-1.4l-0.1-0.1l0,0l-5.9-9.9h-1.9L242.4,97.2z M227,97.2h13.3l-6.6-11.1v0.1l0,0L227,97.2z M223.8,97.2h1.9l7-11.6h-14.2
					l-0.8,1.4L223.8,97.2z M211.7,97.2h11l-5.4-9.1L211.7,97.2z M210.5,97.2L210.5,97.2l6.2-10.2l-0.8-1.4h-12.4l-2.1,3.4l4.8,8.1
					H210.5z M196.3,97.2h8.5l-4.3-7.2l0,0l0,0L196.3,97.2L196.3,97.2z M188.3,97.2h6.7l4.8-8.1l-2.1-3.4h-10l-3.3,5.4L188.3,97.2z
					 M180.9,97.2h6.1l-3-5.1L180.9,97.2z M179.6,97.2L179.6,97.2l3.7-6.2l-3.3-5.4h-7.6l-4.4,7.4l2.5,4.1H179.6z M165.6,97.2h3.7
					l-1.9-3.2L165.6,97.2z M152.7,97.2h11.6l2.5-4.1l-4.4-7.4h-5.1l-5.8,9.5L152.7,97.2z M150.2,97.2h1.4l-0.7-1.1L150.2,97.2z
					 M134.9,97.2h14l1.2-2.1l-5.6-9.5h-2.8L134.9,97.2L134.9,97.2z M119.4,97.2h14.2v-0.1l-6.9-11.4h-0.1v0.1h-0.1L119.4,97.2z
					 M117.1,97.2h1.1l6.9-11.4h-14.2l-0.4,0.7L117.1,97.2z M104.1,97.2H116l-5.8-9.8l0,0l0,0L104.1,97.2z M99.3,97.2h3.6l6.6-10.9
					l-0.4-0.7H95.7l-1.5,2.6L99.3,97.2z M88.7,97.2h9.4l-4.7-7.7L88.7,97.2z M234.8,85.7l6.7,11l6.7-11H234.8z M128.1,85.7l6.3,10.5
					l6.3-10.5H128.1z M252.5,85.7l5.4,9.1l5.5-9.1H252.5z M145.8,85.7l5,8.3l5.1-8.3H145.8z M270.3,85.8l4.1,7l4.1-7.2L270.3,85.8
					L270.3,85.8L270.3,85.8z M163.5,85.7l3.9,6.3l3.9-6.3H163.5z M288,85.7l3,5.1l3-5.1H288z M181.3,85.7l2.6,4.4l0,0l0,0l2.6-4.4
					H181.3z M305.9,85.8l1.8,2.9l1.8-2.9H305.9z M199.2,85.7l1.4,2.3l1.4-2.3H199.2z M311.6,84.7h10.3l-5.1-8.5L311.6,84.7z
					 M305.2,84.7h5l5.8-9.6l-1.1-1.8H303l-2.3,3.9L305.2,84.7z M296.1,84.7h7.8l-3.9-6.6L296.1,84.7z M287.5,84.7h7.4l4.5-7.4
					l-2.3-4h-9.4l-3.6,5.9L287.5,84.7z M280.6,84.7h5.5l-2.8-4.5L280.6,84.7z M279.4,84.7L279.4,84.7l3.4-5.6l-3.6-5.9h-6.9
					l-4.8,8.1l2.2,3.4H279.4z M265.5,84.7h2.9l-1.5-2.5L265.5,84.7z M251.9,84.7h12.2l2.1-3.6l0,0l0,0l-4.7-7.8h-4.5l-6.1,9.9
					L251.9,84.7z M249.9,84.7h0.7l-0.3-0.6l0,0l0,0L249.9,84.7z M219.1,84.7h13.5l-6.7-11.3L219.1,84.7z M204,84.7h11l-5.5-9.2
					L204,84.7z M198.6,84.7h4l6.2-10.3l-0.7-1.2h-12.5l-1.9,3.2L198.6,84.7z M188.6,84.7h8.7l-4.4-7.3l0,0l0,0L188.6,84.7z
					 M180.9,84.7h6.5l5-8.3l-1.9-3.2h-10.2l-3.2,5.2L180.9,84.7z M173.2,84.7h6.2l-3-5.1L173.2,84.7z M163,84.7h8.8l3.9-6.3
					l-3.2-5.1h-7.8l-4.4,7.2L163,84.7z M157.8,84.7h4l-2.1-3.2L157.8,84.7z M145.3,84.7h11.4l2.5-4.3l-4.4-7.2h-5.5l-5.5,9.1
					L145.3,84.7z M142.5,84.7h1.4l-0.7-1.1L142.5,84.7z M141.3,84.7L141.3,84.7l1.4-2.2v-0.1l0,0l-5.5-9.2h-2.9l-6.7,11.3l0.1,0.1
					h13.6V84.7z M111.7,84.7h14.2l0.1-0.1l-6.7-11.3h-0.6L111.7,84.7z M109.6,84.7h0.8l6.9-11.4h-14l-0.3,0.4L109.6,84.7z
					 M96.3,84.7h11.8l-5.9-9.9L96.3,84.7z M234.7,84.6l14,0.1l1-1.5l-5.9-9.9h-2.2L234.7,84.6z M216.2,84.6h1.8l6.9-11.3h-14
					l-0.7,1.1v0.1l0,0L216.2,84.6z M229.4,77l4.3,7l6.6-10.9h-13.1L229.4,77z M120.4,73.2l6.2,10.2l6.2-10.2H120.4z M245,73.2
					l5.2,8.8l5.2-8.8H245z M138.4,73.2l4.8,8.1l5-8.1H138.4z M262.7,73.2l4.1,6.7l4.1-6.7H262.7z M156,73.2l3.7,6.2l3.7-6.2H156z
					 M280.6,73.2l3,5l2.9-5H280.6z M173.9,73.2l2.6,4.1l2.6-4.1H173.9z M298.2,73.2l1.8,2.9l1.8-2.9H298.2z M191.6,73.2l1.2,2.2
					l1.2-2.2H191.6z M303.7,72.2h10.6l-5.2-8.7L303.7,72.2z M288.3,72.2h8.1l-4-6.7L288.3,72.2z M279.9,72.2h7l4.7-7.7l-2.2-3.7
					h-9.6l-3.4,5.6L279.9,72.2z M227,72.2h14v-0.1h0.1l1-1.7l-5.8-9.8H234L227,72.2z M208.8,72.2h1.4l0.1-0.1l6.9-11.4h-14l-0.7,1.1
					l0,0l0,0L208.8,72.2L208.8,72.2z M196.1,72.2h11.4l-5.6-9.5L196.1,72.2z M190.9,72.2h3.9l6.3-10.5l-0.7-1.1h-12.8l-1.8,3
					L190.9,72.2z M180.9,72.2h8.9l-4.4-7.4L180.9,72.2z M173.2,72.2h6.3l5.1-8.5l-1.8-3h-10.5l-3,5.1L173.2,72.2z M165.3,72.2h6.5
					l-3.2-5.4L165.3,72.2z M155.4,72.2h8.7l3.9-6.5l-3-5.1h-8l-4.3,7.2L155.4,72.2z M150.1,72.2h4.1l-2.1-3.4L150.1,72.2z
					 M137.6,72.2h11.1l2.6-4.4l-4.3-7.2h-5.5l-5.5,9.1L137.6,72.2z M134.7,72.2h1.7l-0.8-1.4L134.7,72.2z M119.8,72.2h13.5l1.4-2.3
					v-0.1v-0.1l-5.4-9.1h-3.2l-6.6,11.1L119.8,72.2z M297.7,72.1h4.8l5.9-9.8l-1.1-1.7h-12l-2.3,3.7L297.7,72.1z M272.9,72.1h5.6
					l-2.9-4.7L272.9,72.1z M262,72.1h9.6l3.4-5.8l-3.4-5.8h-7.2l-4.7,7.7L262,72.1z M257.8,72.1h3l-1.5-2.6L257.8,72.1z M244.3,72.1
					h12l2.2-3.7l-4.7-7.7h-4.7l-5.9,9.8L244.3,72.1z M242.2,72.1h0.7l-0.4-0.6L242.2,72.1z M211.6,72.1h13.6l-6.7-11.3L211.6,72.1z
					 M104,72.1h14.2l0.3-0.3l-6.7-11.1h-0.8L104,72.1z M219.7,60.7l6.5,10.7l6.5-10.7H219.7z M112.9,60.7l6.1,10l6.1-10H112.9z
					 M237.4,60.7l5.2,8.7l5.2-8.7H237.4z M130.7,60.7l4.7,8l4.8-8H130.7z M255.2,60.7l4,6.7l4-6.7H255.2z M148.4,60.7l3.6,6.1
					l3.6-6.1H148.4z M273,60.7l2.9,4.7l2.8-4.7H273z M166.3,60.7l2.5,4l2.5-4.1C169.2,60.7,168.1,60.7,166.3,60.7z M290.8,60.7
					l1.7,2.8l1.7-2.8H290.8z M184,60.7l1.2,2.1l1.2-2.1H184z M295.9,59.6h10.7l-5.4-8.9L295.9,59.6z M290.1,59.6h4.5l6.1-9.9
					l-0.8-1.5h-12.4l-2.1,3.4L290.1,59.6z M288.9,59.6l-4.1-6.9l-4.1,6.9H288.9z M272.4,59.6h6.9l4.7-7.8l-2.2-3.7h-9.6l-3.4,5.6
					L272.4,59.6z M265.1,59.6h5.9l-3-5L265.1,59.6z M254.5,59.6h9.4l3.6-5.9L264,48h-7.3l-4.5,7.6L254.5,59.6z M249.8,59.6h3.4
					l-1.7-2.9L249.8,59.6z M248.4,59.6L248.4,59.6l2.5-4l-4.5-7.6h-5.1l-5.8,9.5l1.1,1.9h11.8V59.6z M234.4,59.6h1.1l-0.6-0.8
					L234.4,59.6z M219,59.6h14l1.1-1.9l-5.8-9.6h-2.5v0.1l0,0L219,59.6z M203.7,59.6h13.9l-6.9-11.4h-0.1L203.7,59.6z M188.3,59.6
					h11.6l-5.8-9.6L188.3,59.6z M183.5,59.6h3.6l6.5-10.6l-0.6-0.8h-13.1l-1.7,2.9L183.5,59.6z M173,59.6h9.1l-4.5-7.6L173,59.6z
					 M171.8,59.6L177,51l-1.7-2.9h-10.6l-2.9,4.8l4,6.6C165.9,59.6,171.8,59.6,171.8,59.6z M157.6,59.6h6.7l-3.3-5.6L157.6,59.6z
					 M156.4,59.6L156.4,59.6l4-6.7l-3-4.8h-8.3l-4.1,6.9l2.8,4.7H156.4z M142.2,59.6h4.4l-2.2-3.6L142.2,59.6z M130,59.6h11l2.8-4.7
					l-4.1-6.9h-5.8l-5.4,8.9L130,59.6z M126.8,59.6h1.9l-1-1.7L126.8,59.6z M112.2,59.6h13.3l1.7-2.6l-5.4-8.9h-3.4l-6.6,10.9
					L112.2,59.6z M201.2,59.4c0.6,0,0.7,0,1.2,0.1l6.9-11.4h-14l-0.4,0.7L201.2,59.4z M212.1,48.1l6.2,10.5l6.3-10.5H212.1z
					 M229.8,48l5.1,8.5L240,48H229.8z M123.1,48l4.8,7.8l0,0l0,0l4.8-7.8H123.1z M247.6,48.1l3.9,6.5l0,0l0,0l4-6.6L247.6,48.1
					L247.6,48.1L247.6,48.1z M140.9,48l3.6,5.9L148,48H140.9z M265.5,48.1l2.8,4.5l2.6-4.5H265.5z M158.7,48l2.3,3.9l0,0l0,0
					l2.3-3.9H158.7z M283.2,48.1l1.4,2.3l1.5-2.3H283.2z M176.5,48l1.1,1.8l1.1-1.8H176.5z M288.3,46.9H299l-5.4-8.9L288.3,46.9z
					 M282.5,46.9h4.4l6.2-10.2l-0.8-1.2h-12.4l-2.1,3.3L282.5,46.9z M272.8,46.9h8.4l-4.3-7L272.8,46.9z M264.8,46.9h6.7l4.8-8.1
					l-2.1-3.4h-9.9l-3.2,5.5L264.8,46.9z M257.4,46.9h6.1l-3-5.1L257.4,46.9z M247,46.9h9.1l3.7-6.2l-3.3-5.4H249l-4.5,7.4L247,46.9
					z M242.1,46.9h3.6l-1.8-3L242.1,46.9z M240.7,46.9h0.1l2.3-4l-4.4-7.4h-5.2l-5.6,9.4V45l0,0l1.2,1.9H240.7z M226.8,46.9h1.1
					l-0.6-1L226.8,46.9z M225.3,46.9l1.2-2.1l-5.6-9.4h-2.8l-7,11.4l0,0H225.3z M210,46.9L210,46.9l-6.7-11.4H203l-6.9,11.4H210z
					 M193.7,46.9h1.1l6.9-11.4h-14l-0.4,0.7L193.7,46.9z M180.6,46.9h11.7l-5.8-9.6L180.6,46.9z M175.9,46.9h3.3l6.6-10.7l-0.4-0.7
					h-13.2l-1.5,2.6L175.9,46.9z M165.2,46.9h9.4l-4.7-7.7l0,0l0,0L165.2,46.9z M149.9,46.9h6.9l-3.4-5.8L149.9,46.9z M140.3,46.9
					h8.3l4.1-6.7l-2.9-4.7h-8.4l-4,6.7L140.3,46.9z M134.5,46.9h4.5l-2.3-3.7L134.5,46.9z M122.6,46.9h10.7l2.9-4.8l-4-6.7h-6.1
					l-5.2,8.7L122.6,46.9z M119.1,46.9h2.1l-1-1.7L119.1,46.9z M158.2,46.9h5.9l5.2-8.7l-1.5-2.8h-10.9l-2.9,4.7L158.2,46.9z
					 M204.4,35.5l6.3,10.5l6.3-10.5H204.4z M222.4,35.5l5,8.3l5.1-8.3H222.4z M240,35.5l3.9,6.3l3.9-6.3H240z M133.3,35.5l3.4,5.6
					l3.4-5.6H133.3z M257.9,35.5l2.6,4.3l2.6-4.3H257.9z M151.2,35.5l2.2,3.6l2.2-3.6H151.2z M275.5,35.5l1.4,2.3l1.5-2.3H275.5z
					 M169.1,35.5l1,1.7l1-1.7H169.1z M280.3,34.4h11.1l-5.5-9.2L280.3,34.4z M275,34.4h4.1l6.2-10.3l-0.7-1.2h-12.7L270,26L275,34.4
					z M265.1,34.4h8.7l-4.3-7.2L265.1,34.4z M257.2,34.4h6.5l5-8.3l0,0l-1.9-3.2h-10.2l-3.2,5.1L257.2,34.4z M238.2,34.4l-1.9-3.2
					l-1.9,3.2H238.2z M218.8,34.4h1.5l-0.7-1.2L218.8,34.4z M204,34.4h13.6l1.4-2.2l-5.5-9.2h-3l-6.7,11.1L204,34.4z M186.2,34.4
					h0.7l7-11.6h-14.2l-0.3,0.6l0,0l0,0l6.5,10.9L186.2,34.4L186.2,34.4z M168.4,34.4h3.2l6.7-11l-0.3-0.6h-13.5l-1.5,2.5
					L168.4,34.4L168.4,34.4L168.4,34.4z M150.5,34.4h5.6l5.4-9.1l-1.5-2.5h-11l-2.8,4.5L150.5,34.4z M142.1,34.4h7.2l-3.6-5.9
					L142.1,34.4z M132.7,34.4h8l4.3-7l-2.8-4.5h-8.5l-4,6.6L132.7,34.4z M126.8,34.4h4.7l-2.3-4L126.8,34.4z M249.7,34.4h6.3
					l-3.2-5.2L249.7,34.4z M248.4,34.4L248.4,34.4l3.9-6.2l-3.2-5.2h-7.8l-4.4,7.2l2.5,4.3C239.3,34.4,248.4,34.4,248.4,34.4z
					 M221.6,34.4H233l2.5-4.3l-4.4-7.2h-5.2l-5.6,9.2L221.6,34.4z M188.2,34.4h14.2l0.1-0.3l-6.7-11.3h-0.6L188.2,34.4z M172.8,34.4
					h11.8l-5.9-9.9L172.8,34.4z M157.5,34.4h9.5l-4.7-7.8L157.5,34.4z M197,22.8l6.2,10.2l6.2-10.2H197z M214.7,22.8l5,8.3l5-8.3
					H214.7z M232.6,22.8l3.7,6.2l3.7-6.2H232.6z M250.2,22.8l2.6,4.1l0,0l0,0l2.6-4.1H250.2z M143.5,22.8l2.2,3.6l2.2-3.6H143.5z
					 M268.1,22.8l1.2,2.2l1.4-2.2H268.1z M161.3,22.8l0.8,1.5l0.8-1.5H161.3z M272.6,21.9H284l-5.6-9.5L272.6,21.9z M267.4,21.9h4
					l6.3-10.5l-0.7-1.1h-12.8l-1.9,3L267.4,21.9z M266.2,21.9l-4.4-7.4l-4.4,7.4H266.2z M249.7,21.9h6.3l5.1-8.5l-1.9-3h-10.3
					l-3.2,5.1L249.7,21.9z M241.8,21.9h6.6l-3.3-5.5L241.8,21.9z M231.9,21.9h8.7l3.9-6.5l-3-5.1h-7.8l-4.3,7.2L231.9,21.9z
					 M226.5,21.9h4l-1.9-3.3L226.5,21.9z M225.2,21.9L225.2,21.9l2.8-4.4l-4.1-7h-5.6l-5.5,8.9l1.5,2.5
					C214.2,21.9,225.2,21.9,225.2,21.9z M211.1,21.9h1.7l-0.8-1.4l0,0l0,0L211.1,21.9z M196.3,21.9h13.6l1.5-2.5l-5.4-8.9h-3.3
					l-6.6,11L196.3,21.9z M180.3,21.9h14.2l0.3-0.4l-6.6-11h-0.8L180.3,21.9L180.3,21.9z M165.1,21.9h12.1l-6.1-10L165.1,21.9z
					 M163.8,21.9L163.8,21.9l6.7-11.1l-0.1-0.3h-13.8l-1.4,2.3l5.5,9.1H163.8z M149.8,21.9h9.6l-5-8.1L149.8,21.9z M142.9,21.9h5.5
					l5.5-9.1l-1.4-2.3h-11.3l-2.6,4.4L142.9,21.9z M134.3,21.9h7.3l-3.7-6.1L134.3,21.9z M178.5,21.7h0.7l6.9-11.4h-14l-0.1,0.3
					L178.5,21.7z M189.4,10.3l6.1,10l6.1-10H189.4z M207.3,10.3l4.7,8l4.7-8H207.3z M225,10.3l3.6,6.1l3.7-6.1H225z M242.8,10.3
					l2.3,4l2.3-4H242.8z M260.7,10.3l1.1,1.8l1.1-1.8H260.7z M153.8,10.3l0.8,1.2l0.8-1.2H153.8z M264.9,9.2h11.4l-5.6-9.5
					L264.9,9.2z M259.8,9.2h3.6l6.5-10.6l-0.4-0.7h-13.1l-1.8,2.8L259.8,9.2z M249.5,9.2h9.1l-4.5-7.6L249.5,9.2z M242.1,9.2h6.2
					l5.1-8.5l-1.7-2.9h-10.6l-1.5,2.5l-1.5,2.5L242.1,9.2z M234,9.2h6.7l-3.4-5.6L234,9.2z M224.3,9.2h8.5l4-6.7L234-2.3h-8.3
					l-4.1,6.9L224.3,9.2z M218.8,9.2h4.3l-2.2-3.6L218.8,9.2z M217.5,9.2h0.1l2.8-4.5l-4.1-6.9h-5.9L205,6.7l1.5,2.5H217.5z
					 M203.4,9.2h1.8l-1-1.5L203.4,9.2z M202.2,9.2l1.5-2.5l-5.4-8.9h-3.4l-6.5,10.9l0.3,0.7h13.5V9.2z M172.6,9.2h14.2l0.3-0.6
					l-6.6-10.9h-0.7v0.1h-0.3L172.6,9.2z M171,9.2h0.4l6.9-11.3h-14L171,9.2z M157.4,9.2h12.4L163.5-1L157.4,9.2z M153.2,9.2h2.8
					l6.9-11.3l0,0l0,0l0,0h-14L147.6,0L153.2,9.2z M142,9.2h10L147,1L142,9.2z M181.8-2.2l5.9,9.9l5.9-9.9H181.8z M199.7-2.2
					l4.5,7.7l4.7-7.7H199.7z M217.3-2.2l3.4,5.8l3.4-5.8H217.3z M235.2-2.2l2.3,3.7l1.2-1.9l1.1-1.9h-4.7V-2.2z M253-2.2l1.1,1.8
					l1.1-1.8H253z M257.1-3.3h11.7l-5.8-9.6L257.1-3.3z M252.4-3.3h3.4l6.6-10.9l-0.4-0.7h-13.3l-1.7,2.8L252.4-3.3z M241.8-3.3h9.4
					l-4.7-7.7L241.8-3.3z M234.5-3.3h5.9l5.2-8.8l-1.7-2.8h-10.9l-2.9,4.7L234.5-3.3z M216.8-3.3h8.3v-0.1l0,0l4.1-6.7l-2.9-4.7
					h-8.4l-4,6.7L216.8-3.3z M211-3.3h4.5L213.3-7L211-3.3z M199.2-3.3h10.6l2.9-4.8l-4-6.7h-6.2l-5.2,8.7l1.7,2.8L199.2-3.3
					L199.2-3.3z M181.2-3.3h13.1l1.7-2.6v-0.1v-0.1l-5.1-8.7h-3.6l-6.5,10.7L181.2-3.3z M163.5-3.3L163.5-3.3l7-11.6h-14l6.9,11.4
					L163.5-3.3L163.5-3.3z M226.4-3.4h6.7l-3.3-5.6L226.4-3.4z M195.6-3.4h1.9l-1-1.5L195.6-3.4z M164.9-3.4h14.2l0.4-0.7L173-14.9
					h-1.1L164.9-3.4z M149.5-3.4H162l-6.2-10.5L149.5-3.4z M174.3-14.9l5.8,9.6l5.8-9.6H174.3z M192-14.9l4.5,7.6l4.7-7.6H192z
					 M209.9-14.9l3.4,5.6l3.4-5.6H209.9z M227.5-14.9l2.2,3.7l2.2-3.7H227.5z M245.4-14.9l1,1.7l1-1.7H245.4z M249.2-16h12l-5.9-10
					L249.2-16z M244.7-16h3.3l6.7-11l-0.3-0.6H241l-1.5,2.5L244.7-16z M234-16h9.5l-4.7-7.8L234-16z M227-16h5.6l5.4-8.9l-1.5-2.5
					h-11l-2.8,4.5L227-16z M225.7-16L225.7-16l-3.6-5.9l-3.6,5.9H225.7z M209.2-16h8l4.3-7l-2.8-4.4H210l-3.9,6.5L209.2-16z
					 M203.2-16h4.7l-2.3-3.9l0,0l0,0L203.2-16z M191.5-16h10.6l2.9-5l-3.9-6.5H195l-5.2,8.7L191.5-16z M187.8-16h2.2l-1.1-1.9
					L187.8-16z M173.7-16h12.9l1.8-2.9V-19v-0.1l-5.2-8.3h-3.9L173-16.8L173.7-16z M156.9-16h14.2l0.6-1l-6.3-10.5H164L156.9-16z
					 M166.7-27.4l5.6,9.5l5.6-9.5H166.7z M184.6-27.4l4.4,7.3l4.4-7.3H184.6z M202.3-27.4l3.3,5.4l3.3-5.4H202.3z M220.1-27.4
					l2.1,3.4l2.2-3.4H220.1z M238-27.4l0.8,1.4l0.8-1.4H238z M219.5-28.5h5.5l5.5-9.1l-1.4-2.3H218l-2.8,4.3L219.5-28.5z
					 M201.7-28.5h7.7v-0.1l0,0l4.3-7.2l-2.6-4.4h-8.5l-3.9,6.3L201.7-28.5z M183.9-28.5h10.2v-0.1h0.1l3-5.1l-3.9-6.3h-6.5l-5.1,8.4
					L183.9-28.5z M166-28.5h12.7v-0.1h0.1l1.8-3v-0.1v-0.1l-5.1-8.3h-4.1l-6.2,10.3L166-28.5z M241.5-28.5h12.1l-6.1-10L241.5-28.5z
					 M237.1-28.5h3l6.9-11.3l-0.1-0.3h-13.8l-1.5,2.3l0.1,0.1l0,0L237.1-28.5z M226.4-28.5h9.5l-4.8-7.8L226.4-28.5z M210.9-28.5
					h7.2l-3.6-6.1L210.9-28.5z M195.5-28.5h5l-2.5-4.1L195.5-28.5z M180.2-28.5h2.3l-1.2-1.9L180.2-28.5z M176.9-40l4.4,7.3l4.4-7.3
					H176.9z M194.6-40l3.2,5.4L201-40C201-40,194.6-40,194.6-40z M212.5-40l1.9,3.3l1.9-3.3H212.5z M230.4-40l0.7,1.2l0.7-1.2H230.4
					z M233.8-41h12.4l-6.1-10.2L233.8-41z M229.7-41h2.8l6.9-11.4v-0.1h-13.9l-1.4,2.2L229.7-41z M218.4-41h10l-5-8.3L218.4-41z
					 M211.8-41h5.4l5.5-9.2l-1.2-2.2h-11.6l-2.5,4L211.8-41z M203-41h7.6l-3.7-6.3L203-41z M194.2-41h7.6l4.4-7.3l-2.5-4.1h-9.1
					l-3.7,6.2L194.2-41z M187.8-41h5.1l-2.6-4.3L187.8-41z M176.2-41h10.2l3.2-5.4l-3.7-6.2h-6.7l-5,8.1L176.2-41z M172.2-41h2.8
					l-1.4-2.2L172.2-41z M187.2-52.5l3,5.1l3-5.1H187.2z M205-52.4l1.8,3l1.8-3H205z M222.8-52.5l0.7,1.1l0.7-1.1H222.8z
					 M195.2-53.5h7.8l-3.9-6.5L195.2-53.5z M226-53.6h12.7l-6.3-10.6L226-53.6z M222-53.6h2.8l7-11.6h-14.2l-1.2,2.1L222-53.6z
					 M210.7-53.6h10l-5-8.3L210.7-53.6z M204.3-53.6h5.1l5.6-9.5l-1.2-2.1h-11.6l-2.5,4L204.3-53.6z M186.7-53.6h7.3l4.5-7.4
					l-2.5-4.1h-9.2l-3.6,6.1L186.7-53.6z M179.9-53.6h5.4l-2.6-4.5L179.9-53.6z M197.4-65.1l1.8,2.9l1.8-2.9H197.4z M215.3-65.1
					l0.6,1l0.6-1H215.3z M202.9-66.2h10.5l-5.2-8.7L202.9-66.2z M196.8-66.2h4.8l5.8-9.6l-1.1-1.8h-12l-2.3,3.7L196.8-66.2z
					 M218.3-66.3h12.8l-6.3-10.6L218.3-66.3z M214.6-66.3h2.3l7-11.4h-14.2l-1.1,1.8L214.6-66.3z M187.5-66.3h8l-4-6.5L187.5-66.3z
					 M207.6-77.7l0.4,0.8l0.6-0.8H207.6z M210.5-78.8h13.1l-6.5-10.9L210.5-78.8z M207-78.8h2.2l7-11.4h-14.2l-1,1.7L207-78.8z
					 M195.2-78.8h10.6l-5.4-8.8L195.2-78.8z M202.8-91.3H216l-6.5-11L202.8-91.3z"/>
			</g>
		</g>
	</g>
	
		<linearGradient id="XMLID_4_" gradientUnits="userSpaceOnUse" x1="200" y1="402.9376" x2="200" y2="2.6624" gradientTransform="matrix(1 0 0 -1 0 402.8)">
		<stop  offset="0" style="stop-color:#2F4AE8"/>
		<stop  offset="1.057398e-02" style="stop-color:#3249E9"/>
		<stop  offset="0.1494" style="stop-color:#573BEF"/>
		<stop  offset="0.2946" style="stop-color:#762FF5"/>
		<stop  offset="0.4461" style="stop-color:#8E26F9"/>
		<stop  offset="0.6065" style="stop-color:#9F20FD"/>
		<stop  offset="0.7818" style="stop-color:#A91CFE"/>
		<stop  offset="1" style="stop-color:#AC1BFF"/>
	</linearGradient>
	<path id="XMLID_7056_" class="st2" d="M373.3,299.6c16.9-29.3,26.7-63.4,26.7-99.6c0-36.3-9.8-70.3-26.7-99.7
		c0-0.1-0.1-0.3-0.1-0.4c-0.1-0.1-0.1-0.3-0.3-0.4c-17.5-30-42.5-55-72.5-72.5c-0.1-0.1-0.3-0.3-0.4-0.3c-0.1-0.1-0.3-0.1-0.4-0.1
		C270.3,9.6,236.2-0.1,200-0.1c-36.3,0-70.3,9.8-99.6,26.7c-0.1,0-0.3,0.1-0.4,0.1c-0.1,0.1-0.3,0.1-0.4,0.3
		c-30,17.5-55,42.5-72.5,72.5c-0.1,0.1-0.3,0.3-0.3,0.4c-0.1,0.1-0.1,0.3-0.1,0.4C9.8,129.6,0,163.7,0,200s9.8,70.3,26.7,99.7
		c0,0.1,0.1,0.3,0.1,0.4c0,0.1,0.1,0.1,0.3,0.3c17.5,30,42.5,55.2,72.6,72.6c0.1,0.1,0.3,0.3,0.4,0.3c0.1,0,0.1,0.1,0.3,0.1
		c29.4,16.9,63.4,26.7,99.7,26.7s70.4-9.8,99.7-26.7c0.1,0,0.1,0,0.3-0.1c0.1-0.1,0.3-0.1,0.4-0.3c30-17.5,55.2-42.6,72.6-72.6
		c0.1-0.1,0.1-0.1,0.3-0.3C373.2,299.7,373.3,299.6,373.3,299.6z M299.6,367.1l-13.2-22.8c-0.7-1.2-2.3-1.7-3.6-1
		c-1.2,0.7-1.7,2.3-1,3.6l13.2,22.8c-27.4,15.4-58.9,24.3-92.4,24.8v-26.4c0-1.5-1.2-2.6-2.6-2.6c-1.5,0-2.6,1.2-2.6,2.6v26.4
		c-33.6-0.4-65.1-9.4-92.4-24.8l13.2-22.8c0.7-1.2,0.3-2.9-1-3.6c-1.2-0.7-2.9-0.3-3.6,1l-13.2,22.8c-27.8-16.6-51-39.9-67.7-67.7
		l22.8-13.2c1.2-0.7,1.7-2.3,1-3.6c-0.7-1.2-2.3-1.7-3.6-1l-22.8,13.2C14.7,267.5,5.8,236,5.4,202.5h26.4c1.5,0,2.6-1.2,2.6-2.6
		s-1.2-2.6-2.6-2.6H5.2c0.4-33.6,9.4-65.1,24.8-92.4L52.8,118c0.4,0.3,0.8,0.4,1.4,0.4c1,0,1.8-0.4,2.3-1.4c0.7-1.2,0.3-2.9-1-3.6
		l-22.8-13.2c16.6-27.8,39.9-51,67.7-67.7l13.2,22.8c0.6,0.8,1.4,1.4,2.3,1.4c0.4,0,1-0.1,1.4-0.4c1.2-0.7,1.7-2.3,1-3.6L104.8,30
		c27.4-15.4,58.9-24.3,92.4-24.8v26.4c0,1.5,1.2,2.6,2.6,2.6c1.5,0,2.6-1.2,2.6-2.6V5.1c33.6,0.4,65.1,9.4,92.4,24.8l-13.2,22.8
		c-0.7,1.2-0.3,2.9,1,3.6c0.4,0.3,0.8,0.4,1.4,0.4c1,0,1.8-0.4,2.3-1.4l13.2-22.8c27.8,16.6,51,39.9,67.7,67.7l-22.8,13.2
		c-1.2,0.7-1.7,2.3-1,3.6c0.6,0.8,1.4,1.4,2.3,1.4c0.4,0,1-0.1,1.4-0.4l22.8-13.2c15.4,27.4,24.3,58.9,24.8,92.4h-26.4
		c-1.5,0-2.6,1.2-2.6,2.6c0,1.4,1.2,2.6,2.6,2.6h26.4c-0.4,33.6-9.4,65.1-24.8,92.4l-22.8-13.2c-1.2-0.7-2.9-0.3-3.6,1
		c-0.7,1.2-0.3,2.9,1,3.6l22.8,13.2C350.6,327.2,327.2,350.6,299.6,367.1z"/>
	
		<linearGradient id="XMLID_5_" gradientUnits="userSpaceOnUse" x1="196.63" y1="281.6171" x2="196.63" y2="129.614" gradientTransform="matrix(1 0 0 -1 0 402.8)">
		<stop  offset="0" style="stop-color:#2F4AE8"/>
		<stop  offset="1.057398e-02" style="stop-color:#3249E9"/>
		<stop  offset="0.1494" style="stop-color:#573BEF"/>
		<stop  offset="0.2946" style="stop-color:#762FF5"/>
		<stop  offset="0.4461" style="stop-color:#8E26F9"/>
		<stop  offset="0.6065" style="stop-color:#9F20FD"/>
		<stop  offset="0.7818" style="stop-color:#A91CFE"/>
		<stop  offset="1" style="stop-color:#AC1BFF"/>
	</linearGradient>
	<path id="XMLID_1_" class="st3" d="M93.5,182.5v-46.9l-12.7,6.5V130l14-7.6h10.7v60.1L93.5,182.5L93.5,182.5z M128.9,179.2
		c-8-5.9-12-15.7-12-26.8c0-5.6,1-10.6,2.9-15.3c4-9.4,12.4-16,23-16c7.8,0,14.2,3,18.8,9.2c4.7,6.1,7,13.5,7,22c0,8.5-2.3,16-7,22
		c-4.7,6.1-10.9,9.2-18.8,9.2C137.6,183.6,133,182.3,128.9,179.2z M142.9,172.1c4.1,0,7.4-1.9,9.8-5.6c2.5-3.9,3.7-8.5,3.7-14
		s-1.2-10.2-3.7-13.9c-2.3-3.9-5.6-5.8-9.8-5.8c-4.1,0-7.4,1.9-9.9,5.8c-2.5,3.7-3.7,8.4-3.7,13.9s1.2,10.2,3.7,14
		C135.5,170.2,138.8,172.1,142.9,172.1z M177,147.5c0-4.1,3.3-7.4,7.4-7.4c4.1,0,7.4,3.3,7.4,7.4c0,4.3-3.3,7.6-7.4,7.6
		C180.3,155,177,151.7,177,147.5z M177,175.8c0-4.1,3.3-7.4,7.4-7.4c4.1,0,7.4,3.3,7.4,7.4c0,4.3-3.3,7.6-7.4,7.6
		C180.3,183.4,177,180.1,177,175.8z M212.1,179.2c-8-5.9-12-15.7-12-26.8c0-5.6,1-10.6,2.9-15.3c4-9.4,12.4-16,23-16
		c7.8,0,14.2,3,18.8,9.2c4.7,6.1,7,13.5,7,22c0,8.5-2.3,16-7,22s-10.9,9.2-18.8,9.2C220.8,183.6,216.1,182.3,212.1,179.2z
		 M226,172.1c4.1,0,7.4-1.9,9.8-5.6c2.5-3.9,3.7-8.5,3.7-14s-1.2-10.2-3.7-13.9c-2.3-3.9-5.6-5.8-9.8-5.8c-4.1,0-7.4,1.9-9.9,5.8
		c-2.5,3.7-3.7,8.4-3.7,13.9s1.2,10.2,3.7,14C218.7,170.2,222,172.1,226,172.1z M272.6,179.2c-8-5.9-12-15.7-12-26.8
		c0-5.6,1-10.6,2.9-15.3c4-9.4,12.4-16,23-16c7.8,0,14.2,3,18.8,9.2c4.7,6.1,7,13.5,7,22c0,8.5-2.3,16-7,22
		c-4.7,6.1-10.9,9.2-18.8,9.2C281.3,183.6,276.6,182.3,272.6,179.2z M286.7,172.1c4.1,0,7.4-1.9,9.8-5.6c2.5-3.9,3.7-8.5,3.7-14
		s-1.2-10.2-3.7-13.9c-2.3-3.9-5.6-5.8-9.8-5.8s-7.4,1.9-9.9,5.8c-2.5,3.7-3.7,8.4-3.7,13.9s1.2,10.2,3.7,14
		C279.2,170.2,282.5,172.1,286.7,172.1z M93.5,272.1v-46.9l-12.7,6.5v-12.1l14-7.6h10.7v60.1H93.5z M119.5,272.1l24.6-49h-28.5V212
		H158v9.5l-25.4,50.6H119.5z M165.2,237.1c0-4.1,3.3-7.4,7.4-7.4c4.1,0,7.4,3.3,7.4,7.4c0,4.3-3.3,7.6-7.4,7.6
		C168.5,244.7,165.2,241.3,165.2,237.1z M165.2,265.5c0-4.1,3.3-7.4,7.4-7.4c4.1,0,7.4,3.3,7.4,7.4c0,4.3-3.3,7.6-7.4,7.6
		C168.5,273,165.2,269.6,165.2,265.5z M200.3,268.8c-8-5.9-12-15.7-12-26.8c0-5.6,1-10.6,2.9-15.3c4-9.4,12.4-16,23-16
		c7.8,0,14.2,3,18.8,9.2c4.7,6.1,7,13.5,7,22c0,8.5-2.3,16-7,22c-4.7,6.1-10.9,9.2-18.8,9.2C208.9,273.3,204.3,271.8,200.3,268.8z
		 M214.2,261.6c4.1,0,7.4-1.9,9.8-5.6c2.5-3.9,3.7-8.5,3.7-14s-1.2-10.2-3.7-13.9c-2.3-3.9-5.6-5.8-9.8-5.8c-4.1,0-7.4,1.9-9.9,5.8
		c-2.5,3.7-3.7,8.4-3.7,13.9s1.2,10.2,3.7,14C206.9,259.8,210,261.6,214.2,261.6z M260.8,268.8c-8-5.9-12-15.7-12-26.8
		c0-5.6,1-10.6,2.9-15.3c4-9.4,12.4-16,23-16c7.8,0,14.2,3,18.8,9.2c4.7,6.1,7,13.5,7,22c0,8.5-2.3,16-7,22
		c-4.7,6.1-10.9,9.2-18.8,9.2C269.5,273.3,264.8,271.8,260.8,268.8z M274.7,261.6c4.1,0,7.4-1.9,9.8-5.6c2.5-3.9,3.7-8.5,3.7-14
		s-1.2-10.2-3.7-13.9c-2.3-3.9-5.6-5.8-9.8-5.8s-7.4,1.9-9.9,5.8c-2.5,3.7-3.7,8.4-3.7,13.9s1.2,10.2,3.7,14
		C267.4,259.8,270.7,261.6,274.7,261.6z"/>
</g>
</svg>
