<?xml version="1.0" encoding="utf-8"?>
<!-- Generator: Adobe Illustrator 20.1.0, SVG Export Plug-In . SVG Version: 6.00 Build 0)  -->
<svg version="1.1" id="Layer_1" xmlns="http://www.w3.org/2000/svg" xmlns:xlink="http://www.w3.org/1999/xlink" x="0px" y="0px"
	 viewBox="0 0 400 400" style="enable-background:new 0 0 400 400;" xml:space="preserve">
<style type="text/css">
	.st0{clip-path:url(#SVGID_2_);fill:none;stroke:url(#XMLID_2_);stroke-width:0.7705;stroke-miterlimit:10;}
	.st1{fill:url(#XMLID_3_);}
	.st2{fill:url(#XMLID_4_);}
</style>
<g>
	<g id="XMLID_7043_">
		<g>
			<defs>
				<path id="SVGID_1_" d="M79.3,130.4L79.3,130.4L79.3,130.4L199.9,200l69.6,120.5l0,0c-20.5,11.8-44.3,18.7-69.6,18.7
					C123,339.1,60.8,276.8,60.8,200C60.8,174.6,67.5,150.8,79.3,130.4"/>
			</defs>
			<clipPath id="SVGID_2_">
				<use xlink:href="#SVGID_1_"  style="overflow:visible;"/>
			</clipPath>
			
				<linearGradient id="XMLID_2_" gradientUnits="userSpaceOnUse" x1="126.3247" y1="450.6985" x2="126.3247" y2="-3.5598" gradientTransform="matrix(1 0 0 -1 0 402.8)">
				<stop  offset="0" style="stop-color:#AC1BFF"/>
				<stop  offset="0.142" style="stop-color:#A41EFE"/>
				<stop  offset="0.3638" style="stop-color:#8E26F9"/>
				<stop  offset="0.6376" style="stop-color:#6934F3"/>
				<stop  offset="0.9502" style="stop-color:#3847EA"/>
				<stop  offset="1" style="stop-color:#2F4AE8"/>
			</linearGradient>
			<path id="XMLID_5123_" class="st0" d="M206.9,405.2h-3.4 M-38.8,405.2h-6.7 M167.8,405.2h8.2 M-27.6,405.2h4.3 M185.7,405.2h5.9
				 M333.7,296.8l-2.9-4.7 M338.4,304.6l3,4.8 M84.1,405.2H79 M114.6,405.2l0.1,0.3l0.1-0.3H114.6z M61.2,405.2h7.6 M395.1,398.6
				l-3.7-6.2 M134.6-34.6l0.1,0.3 M-9.9,405.2h1.8 M299,405.2h-6.7 M310.1,405.2h4.4 M329.6,405.2h-1.9 M96.8,405.2h2.6 M163,249.2
				l3.2,5.2h8.9l4.4-7.1l-3.2-5.4h-8.9L163,249.2z M155.3,236.4l3.3,5.4h8.8l4.4-7.4l-3-5.2h-9.1L155.3,236.4z M139.9,211l-3.4,5.8
				h7L139.9,211z M158.5,241.8h-6.6l-5.6,9.3l1.9,3.2h11.4l3.2-5.2L158.5,241.8z M159.9,254.4h6.3l-3.2-5.2L159.9,254.4z
				 M168.8,229.3l-4.5-7.6l-4.5,7.6H168.8z M122.2,240.4l-0.8,1.4h1.6L122.2,240.4z M147.6,223.6l3.4,5.6h8.5l4.5-7.6l-3-4.9h-9.3
				L147.6,223.6z M161.2,216.6l-4.7-7.7l-4.7,7.7H161.2z M151.9,216.6l4.7-7.7l-2.9-4.8h-9.5l-4.1,6.7l3.4,5.8L151.9,216.6
				L151.9,216.6z M145.2,278.6l7.1-11.7h-14L145.2,278.6z M137.5,266l7-11.5h-13.9L137.5,266z M140.9,241.8h-4.1l-6.9,11.3l0.7,1.2
				h13.9l1.9-3.2L140.9,241.8z M114,279.5h14l-7-11.7L114,279.5z M113.3,255.1l-7.1,11.8h14.2L113.3,255.1z M120.4,266.9h-14.2
				l-1.8,3l5.8,9.6h3.8l7-11.7L120.4,266.9z M121.5,266.9l7.6-12.6h-15.4l-0.4,0.7l7.1,11.8L121.5,266.9L121.5,266.9z M129.8,253.2
				l-6.7-11.3h-1.6l-7.6,12.6h15.4L129.8,253.2z M121.5,266.9l-0.5,1l7,11.7h1.4l7.6-12.6H121.5z M131.1,225.7l-2.1,3.6h4.4
				L131.1,225.7z M136.8,266.9l-7.6,12.6h15.4l0.5-0.8l-7-11.7L136.8,266.9L136.8,266.9z M144.3,229.3l3.4-5.6l-4.3-7h-7l-5.4,8.9
				l2.1,3.6h11.1V229.3z M136.8,241.8l2.1-3.4l-5.5-9.1h-4.4l-6.7,11.1l0.8,1.4H136.8L136.8,241.8z M144.5,254.4h4l-1.9-3.2
				L144.5,254.4z M176.4,241.8l-4.4-7.4l-4.4,7.4H176.4z M179.5,247.1l4.4,7.1h6.7l5.6-9.2l-2.1-3.3H183L179.5,247.1z M194.1,241.8
				l-5.8-9.5l-5.8,9.5H194.1z M136.5,216.6l3.4-5.8l-4.1-6.7h-7.1l-5.4,8.8l2.2,3.7H136.5z M171.8,234.4l4.4,7.4h6.5l5.8-9.5
				l-1.9-3.2H175L171.8,234.4z M122.2,240.4l-6.7-11.1h-1.9l-7.6,12.6h15.4L122.2,240.4z M114.6,227.8l-1,1.6h1.9L114.6,227.8z
				 M123.4,213.1l-2.2,3.7h4.5L123.4,213.1z M132.4,198.2l-3.6,5.9h7.1L132.4,198.2z M128.9,229.3l2.1-3.6l-5.4-8.9h-4.5l-6.7,11
				l1,1.6h13.6V229.3z M171.4,204.1l-5.9-9.9l-6,9.9H171.4z M129.1,254.4l-7.6,12.6h15.4l0.7-1.1l-6.9-11.5H129.1z M179,216.6
				l-5.8-9.8l-5.9,9.8H179z M156.6,208.9l4.7,7.7h6l5.9-9.8l-1.6-2.7h-12L156.6,208.9z M164.3,221.7l4.5,7.6h6.2l5.8-9.6l-1.8-3
				h-11.8L164.3,221.7z M151.8,191.6h-5.6l2.7,4.7L151.8,191.6z M144.1,204.1l4.8-8l-2.7-4.7h-9.8l-4,6.7l3.6,5.9H144.1z
				 M153.7,204.1h5.8l6-9.9l-1.6-2.6h-12.2l-2.7,4.7L153.7,204.1z M183,266.9h8.5l-4.3-7.1L183,266.9z M186.5,229.3l-5.8-9.6
				l-5.8,9.6H186.5z M187.2,259.9l4.3,7.1h6.7l5.5-9.1l-2.1-3.4h-11.1L187.2,259.9z M104.5,270l-1.8-3H90.9l-3,4.9l4.5,7.6h6.2
				L104.5,270z M92.4,279.5l3,5.2l3-5.2L92.4,279.5L92.4,279.5z M110.1,279.5H98.6l-3,5.2l4.4,7.4h6.5l5.8-9.5L110.1,279.5z
				 M96.6,257.2l-5.9,9.8h11.8L96.6,257.2z M129.3,279.5l-0.7,1.1l6.9,11.4h1.6l7.6-12.6h-15.4V279.5z M106.3,266.9l7.1-11.8
				l-0.4-0.7H98.6l-1.6,2.7l5.8,9.8H106.3z M183.9,254.4h-8.7l-4.5,7.6l3,5.1h9.2l4.3-7.1L183.9,254.4z M121.6,292.1h13.7l-6.9-11.4
				L121.6,292.1z M128,279.5h-14l-1.9,3.2l5.6,9.5h4l6.9-11.4L128,279.5z M106.3,292.1h11.3l-5.6-9.5L106.3,292.1z M148.3,254.4h-4
				l-7,11.5l0.7,1.1h14l1.8-3L148.3,254.4z M152.2,266.9h3.7l-1.8-3L152.2,266.9z M166.2,254.4h-6.3l-5.8,9.5l1.8,3h11.7l3-5.1
				L166.2,254.4z M167.6,266.9h6.2l-3-5.1L167.6,266.9z M113.7,254.4l7.6-12.6h-15.4l-0.3,0.7l7.1,12H113.7z M201.6,254.4l-5.6-9.2
				l-5.6,9.2H201.6z M105.6,242.5l-7.1,12h14.4L105.6,242.5z M144.6,279.5l-7.6,12.6h15.4l0.4-0.7l-7.1-11.8L144.6,279.5
				L144.6,279.5z M154.1,263.9l5.8-9.5h-11.4L154.1,263.9z M67.1,266.9l4.3,7l4.3-7H67.1z M56.9,279.5l5.5,9.2l5.5-9.2H56.9
				L56.9,279.5z M60.2,292.1h4.1l-2.1-3.4L60.2,292.1z M100.3,204.1l6.5,10.9l6.6-10.9H100.3z M97.7,229.3l0.3,0.4l0.3-0.4H97.7z
				 M87.4,241.8l1.6,2.6l1.6-2.6H87.4z M153.3,292.1l-0.4-0.7l-0.4,0.7H153.3z M53.5,303.5l6.9-11.3H46.7L53.5,303.5z M127.4,308
				l2.1-3.4h-4.3L127.4,308z M143.9,306.1l0.8-1.5H143L143.9,306.1z M110.8,310.1l3.3-5.5h-6.6L110.8,310.1z M83.4,304.6h6.3
				l-3.2-5.2L83.4,304.6z M70,301.4l5.6-9.3H64.3L70,301.4z M94.3,312.2l4.5-7.6h-8.9L94.3,312.2z M131,166.5l2.5,4.3l2.5-4.3H131z
				 M216.8,279.5l-5.4-8.9l-5.4,8.9H216.8z M202.5,285.4l3.4-5.8h-7L202.5,285.4z M227.1,266.9l-6.7-11.1l-6.7,11.1H227.1z
				 M221.4,279.5h-4.7l2.3,3.8L221.4,279.5z M110.5,191.6l5.2,8.7l5.2-8.7H110.5z M186,287.3l4.8-7.8h-9.5L186,287.3z M169.3,289.3
				l5.9-9.9h-11.8L169.3,289.3z M160.7,304.6l-0.3-0.5l-0.3,0.5H160.7z M168.4,317.3l-0.3-0.3l-0.3,0.3H168.4z M120.8,179l4,6.5
				l4-6.5H120.8z M151.5,166.5h-2.7l1.4,2.2L151.5,166.5z M142.5,156l-6.3,10.4h12.6L142.5,156z M166.7,166.7l-7.4,12.2h14.8
				L166.7,166.7z M77.3,254.4l2.9,4.8l2.9-4.8H77.3z M133.7,141.3l1.1,1.9l1.1-1.9H133.7z M123.4,154l2.5,4.1l2.5-4.1H123.4z
				 M206.3,202.9l-0.7,1.2h1.5L206.3,202.9z M220.9,204.1H207l6.9,11.5L220.9,204.1z M222.1,229.3l-0.5-0.8l-0.5,0.8H222.1z
				 M228.6,216.6h-14l7,11.7L228.6,216.6z M113.3,166.5l3.8,6.2l3.8-6.2H113.3z M80,229.3l1.5,2.5l1.5-2.5H80z M242.1,292.1
				l-6.5-10.7l-6.5,10.7H242.1z M129.8,253.2l-0.7,1.2h1.5L129.8,253.2z M90.2,216.6l0.1,0.3l0.3-0.3H90.2z M69.7,241.8l2.7,4.7
				l2.7-4.7H69.7z M92.9,191.6l6.3,10.7l6.5-10.7H92.9z M59.5,254.4l4.1,6.7l4.1-6.7H59.5z M135,321l2.2-3.7h-4.4L135,321z
				 M101.9,324.9l4.7-7.7h-9.2L101.9,324.9z M49.2,266.9l5.4,8.9l5.4-8.9H49.2z M118.4,322.9l3.4-5.8h-6.9L118.4,322.9z M75.9,317.3
				h3.7l-1.8-3L75.9,317.3z M151.5,318.9l1-1.6h-2.1L151.5,318.9z M177,302.1l6-10H171L177,302.1z M85.4,327l5.8-9.6H79.5L85.4,327z
				 M210.2,298.1l3.6-6h-7.1L210.2,298.1z M193.5,300.2l4.8-8.1h-9.6L193.5,300.2z M226.7,296.1l2.5-4h-4.8L226.7,296.1z M61,316.2
				l7-11.5H54.2L61,316.2z M36.8,305.4l0.5-0.7h-1L36.8,305.4z M39,279.5l6.7,11.1l6.7-11.1H39z M103.1,179l5.1,8.5l5.1-8.5H103.1z
				 M183.9,254.4l-4.4-7.1l-4.4,7.1H183.9z M167.1,216.6h-6l3,4.9L167.1,216.6z M148.9,196.2l-4.8,8h9.5L148.9,196.2z M112,282.7
				l1.9-3.2h-3.8L112,282.7z M190.5,254.4h-6.7l3.3,5.5L190.5,254.4z M135.9,204.1l4.1,6.7l4.1-6.7H135.9z M182.8,241.8h-6.5
				l3.2,5.4L182.8,241.8z M159.5,204.1h-5.8l2.9,4.8L159.5,204.1z M184.7,314.9l6.2-10.2h-12.2L184.7,314.9z M125.6,216.6l5.4,8.9
				l5.4-8.9H125.6z M98.6,279.5h11.5l-5.8-9.6L98.6,279.5z M102.5,266.9l1.8,3l1.8-3H102.5z M112.7,254.4l0.4,0.7l0.4-0.7H112.7z
				 M115.5,229.3l6.7,11.1l6.7-11.1H115.5z M175,229.3h-6.2l3,5.2L175,229.3z M159.7,229.3h-8.5l4.4,7.1L159.7,229.3z M146.4,251.1
				l5.6-9.3h-11.3L146.4,251.1z M136.2,293.3l0.7-1.2h-1.6L136.2,293.3z M158.5,241.8l-3.3-5.4l-3.3,5.4H158.5z M152,241.8l3.3-5.4
				l-4.4-7.1h-6.7l-5.5,9.1l2.1,3.4L152,241.8L152,241.8z M138.7,238.4l-2.1,3.4h4.1L138.7,238.4z M133.2,229.3l5.5,9.1l5.5-9.1
				H133.2z M121,267.9l0.5-1h-1.1L121,267.9z M123,241.8l6.7,11.3l6.9-11.3H123z M138.1,266.9l-0.7-1.1l-0.7,1.1H138.1z M170.6,262
				l4.5-7.6h-8.9L170.6,262z M147.6,223.6l-3.4,5.6h6.7L147.6,223.6z M143.5,216.6l4.3,7l4.3-7H143.5z M167.4,241.8h-8.8l4.4,7.3
				L167.4,241.8z M118.2,204.1l5.4,8.8l5.4-8.8H118.2z M95,254.4l1.6,2.7l1.6-2.7H95z M105.3,241.8l0.3,0.7l0.3-0.7H105.3z
				 M107.9,216.6l6.6,11l6.7-11H107.9z M141.3,183.5l-4.8,8.1h9.8L141.3,183.5z M128.4,191.6l4,6.7l4-6.7H128.4z M138.6,179l2.6,4.4
				l2.6-4.4H138.6z M91,292.1h8.9l-4.4-7.4L91,292.1z M103.1,297.5l3.2-5.4h-6.5L103.1,297.5z M84.8,266.9l3,4.9l3-4.9H84.8z
				 M119.7,295.4l2.1-3.3h-4L119.7,295.4z M78.9,286.7l4.4-7.1h-8.5L78.9,286.7z M83.2,279.5h9.1l-4.5-7.6L83.2,279.5z M182.5,216.6
				H179l1.8,3L182.5,216.6z M178.3,274.6l4.7-7.6h-9.2L178.3,274.6z M194.9,272.6l3.4-5.8h-6.7L194.9,272.6z M209.2,266.9l-5.5-9.1
				l-5.5,9.1H209.2z M145.7,279.5l-0.5-0.8l-0.5,0.8H145.7z M205.9,254.4h-4.3l2.1,3.4L205.9,254.4z M161.6,276.7l5.8-9.6h-11.7
				L161.6,276.7z M128.5,280.7l0.7-1.1h-1.4L128.5,280.7z M174.8,204.1h-3.4l1.6,2.7L174.8,204.1z M157.8,181.4l-6.2,10.2h12.2
				L157.8,181.4z M198.1,241.8h-4l2.1,3.3L198.1,241.8z M167.1,191.6H164l1.6,2.6L167.1,191.6z M190.2,229.3h-3.8l1.9,3.2
				L190.2,229.3z M197.4,217.6l-7,11.7h14L197.4,217.6z M129.6,329.8h10.7l-5.4-8.9L129.6,329.8z M224.9,204.1l-1.9-3.3l-1.9,3.3
				H224.9z M207,204.1h13.9l1.9-3.3l-5.6-9.3h-4.1l-6.9,11.3L207,204.1z M213.9,215.7l0.7,1.1h14l1.8-3l-5.8-9.5h-4L213.9,215.7z
				 M182.4,191.6h15.4l0.8-1.4l-6.7-11.1H190L182.4,191.6z M213.2,191.6h-13.6l6.7,11.3L213.2,191.6z M199.5,191.6l-0.8-1.4
				l-0.8,1.4H199.5z M232.3,216.6l-1.8-3l-1.8,3H232.3z M190.2,204.1h15.4l0.7-1.2l-6.7-11.3h-1.6L190.2,204.1z M221.6,228.3
				l0.5,0.8h14.3l1.6-2.9l-5.8-9.6h-3.7L221.6,228.3z M237.3,254.4l-0.3-0.5l-0.3,0.5H237.3z M229.7,241.8l-0.4-0.7l-0.4,0.7H229.7z
				 M221.2,254.4h15.4l0.3-0.5l-7.1-12.1h-0.8L221.2,254.4z M221,229.3l-7.6,12.6h15.4l0.4-0.7l-7.1-11.8L221,229.3L221,229.3z
				 M229.3,241.1l7.1-11.8h-14.3L229.3,241.1z M159,154L159,154L159,154L159,154z M151.3,141.3L151.3,141.3l-7.4-12.6h-0.3
				l-7.6,12.6H151.3z M143.8,154H159l-7.6-12.6l0,0L143.8,154z M151.5,141.3L151.5,141.3L151.5,141.3L151.5,141.3z M135.9,141.3
				l7.6-12.6h-15.4l-1.1,1.6l6.5,10.9L135.9,141.3L135.9,141.3z M128.4,154l6.5-10.7l-1.1-1.9h-13.1l-2.3,4l5.2,8.7H128.4L128.4,154
				z M127.1,130.4l-6.6,10.9h13.1L127.1,130.4z M182.3,166.5l1.1-1.8l-6.5-10.9h-2.3l-7.6,12.6H182.3L182.3,166.5z M184.3,166.5
				l-1.1-1.8l-1.1,1.8H184.3z M174.6,179H190l1-1.6l-6.6-11h-2.1L174.6,179z M191.9,179l-1-1.6l-1,1.6H191.9z M166.6,166.5h0.3
				l7.6-12.6H159v0.1L166.6,166.5z M159.2,154l7.6-12.6h-15.3L159.2,154L159.2,154z M229,266.9h15.4l0.3-0.3l-7.3-12.2h-0.7
				L229,266.9z M242.1,292.1h-12.9l-2.5,4l5.2,8.5h5.1l6.3-10.6L242.1,292.1z M125.2,304.6h-11.1l-3.3,5.5l4.3,7.1h6.9l5.5-9.1
				L125.2,304.6z M228,268.6l6.6,10.9h2.2l7.6-12.6H229L228,268.6z M137.2,317.3h13.3l-6.7-11.1L137.2,317.3z M143.1,304.6h-13.6
				l-2.1,3.4l5.5,9.1h4.4l6.7-11.1L143.1,304.6z M168.1,316.8l7.4-12.2h-14.7L168.1,316.8z M144.7,304.6l-0.8,1.5l6.7,11.1h2.1
				l7.6-12.6H144.7z M160.1,304.6l-7.6,12.6H168l0.3-0.3l-7.3-12.2L160.1,304.6L160.1,304.6z M71.9,304.6l5.8,9.5l5.8-9.5H71.9z
				 M171,292.1h-3.3l-7.3,12.1l0.3,0.5h14.7l1.5-2.5L171,292.1z M106.5,317.3h8.5l-4.3-7.1L106.5,317.3z M86.5,299.4l-4.4-7.3h-6.6
				l-5.6,9.3l1.9,3.2h11.4L86.5,299.4z M89.6,304.6h-6.3l-5.8,9.5l1.8,3H91l3-5.1L89.6,304.6z M91.1,317.3h6.2l-3-5.1L91.1,317.3z
				 M107.5,304.6h-8.7l-4.5,7.6l3,5.1h9.2l4.3-7.1L107.5,304.6z M121.9,317.3h10.9l-5.5-9.1L121.9,317.3z M243.3,294.2l1.1-2.1h-2.5
				L243.3,294.2z M249.6,304.6h2.6l7.6-12.6h-15.4l-1.1,2.1L249.6,304.6z M236.8,304.6h12.6l-6.3-10.6L236.8,304.6z M235.6,281.4
				l1.1-1.8h-2.1L235.6,281.4z M118.2,145.2l-5.2,8.7h10.4L118.2,145.2z M242.1,292.1h2.5l7.6-12.6h-15.4l-1.1,1.8L242.1,292.1z
				 M206.2,304.6h8l-4-6.6L206.2,304.6z M190.8,304.6h5.5l-2.7-4.5L190.8,304.6z M188.9,292.1h-5.8l-6,10l1.5,2.5h12.2l2.7-4.5
				L188.9,292.1z M206.5,292.1h-8.1l-4.8,8.1l2.7,4.5h9.9l4-6.6L206.5,292.1z M175.5,304.6h3l-1.5-2.5L175.5,304.6z M224.3,292.1
				h-10.4l-3.6,6l4,6.6h7.4l5.2-8.5L224.3,292.1z M221.6,304.6h10.3l-5.2-8.5L221.6,304.6z M178.6,304.6h-3l-7.4,12.2l0.3,0.3h15
				l1.4-2.3L178.6,304.6z M201.2,312.9l4.9-8.1h-9.9L201.2,312.9z M114.2,329.8h8.2l-4.1-6.9L114.2,329.8z M132.8,317.3h-10.9
				l-3.4,5.8l4.1,6.9h7.1l5.4-8.9L132.8,317.3z M150.5,317.3h-13.3L135,321l5.4,8.9h4.7l6.6-10.9L150.5,317.3z M152.9,291.4
				l7.1-11.8h-14.3L152.9,291.4z M152.6,317.3l-1,1.6l6.6,10.9h2.2l7.6-12.6h-15.4V317.3z M145,329.8h13.2l-6.6-10.9L145,329.8z
				 M115.1,317.3h-8.5l-4.7,7.7l3,4.8h9.5l4.1-6.9L115.1,317.3z M79.5,317.3h-3.6l-7.1,11.7l0.5,0.8h14.3l1.6-2.9L79.5,317.3z
				 M61.7,317.3l7,11.7l7.1-11.7H61.7z M83.6,329.8H87l-1.6-2.9L83.6,329.8z M175.8,329.6l7.6-12.4h-15L175.8,329.6z M97.2,317.3H91
				l-5.8,9.6l1.6,2.9h11.8l3-4.8L97.2,317.3z M98.8,329.8h5.9l-3-4.8L98.8,329.8z M229.4,317.3h10l-5.1-8.4L229.4,317.3z
				 M77.7,314.1l-5.8-9.5h-4l-7,11.5l0.7,1.1h14L77.7,314.1z M249.6,304.6H237l-2.5,4.1l5.1,8.4h5.4l6.2-10.4L249.6,304.6z
				 M252.2,304.6l-1.2,2.2l6.2,10.4h2.9l7.6-12.4l-0.1-0.3H252.2L252.2,304.6z M244.7,317.3h12.5l-6.2-10.4L244.7,317.3z
				 M267.5,304.9l0.1-0.3h-0.3L267.5,304.9z M68,304.6h4l-1.9-3.2L68,304.6z M267.6,304.6l7.6-12.6h-15.4l7.6,12.6H267.6z
				 M196.3,304.6h-5.5l-6.2,10.2l1.4,2.3h12.5l2.6-4.4L196.3,304.6z M183.4,317.3h2.9l-1.4-2.3L183.4,317.3z M198.6,317.3h5.4
				l-2.6-4.4L198.6,317.3z M231.9,304.6h-10.3l-3.7,6.2l3.8,6.3h7.6l5.1-8.4L231.9,304.6z M214.2,304.6h-8l-4.9,8.1l2.6,4.4h10
				l3.8-6.3L214.2,304.6z M214,317.3h7.7l-3.8-6.3L214,317.3z M109.4,160l-4,6.5h7.7L109.4,160z M82.7,204.3l-7.6,12.5h15
				L82.7,204.3z M90.4,216.6L98,204H82.7l-0.1,0.1l7.6,12.5L90.4,216.6L90.4,216.6z M82.6,204.1L82.6,204.1L82.6,204.1L82.6,204.1z
				 M82.9,229.3l7.4-12.2l-0.1-0.3h-15l-1.4,2.2l6.2,10.3L82.9,229.3L82.9,229.3z M90.3,191.6H75.1l7.6,12.6h0.1L90.3,191.6z
				 M75.3,241.8l6.2-10.2l-1.5-2.5H67.6l-2.6,4.4l4.8,8.1L75.3,241.8L75.3,241.8z M73.7,219l-6.2,10.3H80L73.7,219z M98,204.1
				l1.1-1.9l-6.3-10.7h-2.5l-7.6,12.6H98z M100.5,174.7L98,179h5.2L100.5,174.7z M113.3,179l3.8-6.2l-3.8-6.2h-7.7l-4.9,8.2l2.5,4.3
				h10.2V179z M64.7,233.8l-4.8,8.1h9.8L64.7,233.8z M120.8,166.5l5.1-8.5l-2.5-4.1H113l-3.7,6.2l4,6.5H120.8z M91.5,189.4l-1.2,2.1
				h2.5L91.5,189.4z M105.7,191.6l2.5-4.1l-5.1-8.5h-5.2l-6.3,10.4l1.2,2.1h12.9V191.6z M52.5,279.5l2.1-3.6l-5.4-8.9h-4.5l-6.7,11
				l1,1.6h13.6V279.5z M29.7,317.3h14.2l-7.1-11.8L29.7,317.3z M36.4,304.6H22l-1.6,2.7l5.8,9.8h3.6l7.1-11.8L36.4,304.6z
				 M67.6,254.4l4.8-8l-2.7-4.7h-9.8l-4,6.7l3.6,5.9H67.6z M29.1,292.8l-7.1,12h14.4L29.1,292.8z M54.2,304.6h-1.5l-7.6,12.6h15.4
				l0.7-1.1L54.2,304.6z M37.4,304.6l-0.5,0.7l7.1,11.8h1.1l7.6-12.6L37.4,304.6L37.4,304.6z M37.4,304.6l7.6-12.6H29.7l-0.4,0.7
				l7.1,12H37.4z M60.1,266.9l3.4-5.8l-4.1-6.7h-7.1l-5.4,8.8l2.2,3.7H60.1z M47,263.2l-2.2,3.7h4.5L47,263.2z M55.9,248.5l-3.6,5.9
				h7.1L55.9,248.5z M38.1,277.9l-1,1.6H39L38.1,277.9z M60.5,317.3h1.2l-0.7-1.1L60.5,317.3z M45.8,290.7L39,279.6h-1.9l-7.6,12.6
				h15.4L45.8,290.7z M168,317.3l-7.6,12.6h15.4l0.1-0.3l-7.4-12.4H168L168,317.3z M98.4,254.4l7.1-12l-0.3-0.7H90.7l-1.6,2.6
				l5.9,9.9h3.4V254.4z M98,229.7l-7.3,12.2h14.6L98,229.7z M89.1,244.4l-6,9.9h12L89.1,244.4z M106,241.8l7.6-12.6H98.1l-0.3,0.4
				l7.3,12.2H106z M83.2,279.5l4.5-7.6l-3-4.9h-9.3l-4.3,7l3.4,5.6L83.2,279.5L83.2,279.5z M90.9,266.9l5.9-9.8l-1.6-2.7h-12
				l-2.9,4.8l4.7,7.7H90.9L90.9,266.9z M80.1,259.1l-4.7,7.7h9.3L80.1,259.1z M114.6,227.8l-6.6-11H106l-7.6,12.6h15.4L114.6,227.8z
				 M128.8,204.1l3.6-5.9l-4-6.7H121l-5.2,8.7l2.3,4H128.8L128.8,204.1z M71.2,274l-3.4,5.6h6.7L71.2,274z M124.7,185.4l-3.7,6.2
				h7.4L124.7,185.4z M115.7,200.1l-2.3,4h4.8L115.7,200.1z M106.8,215l-1.1,1.6h2.1L106.8,215z M121.1,216.6l2.2-3.7l-5.4-8.8h-4.8
				l-6.6,10.9l1.1,1.6H121.1L121.1,216.6z M82.2,292.1l4.4,7.3l4.4-7.3H82.2z M129.3,304.6H143l-6.7-11.3L129.3,304.6z M137,292.1
				l-0.7,1.2l6.7,11.3h1.8l7.6-12.6L137,292.1L137,292.1z M114.1,304.6h11.1l-5.5-9.2L114.1,304.6z M135.4,292.1h-13.7l-2.1,3.3
				l5.5,9.2h4.3l6.7-11.3L135.4,292.1z M152.4,292.1l-7.6,12.6h15.4l0.3-0.5l-7.1-12.1L152.4,292.1L152.4,292.1z M74.5,279.5h-6.7
				l-5.5,9.2l2.1,3.4h11.3l3.3-5.4L74.5,279.5z M160.4,304.2l7.3-12.1h-14.6L160.4,304.2z M95.5,284.7l-3-5.2h-9.1l-4.4,7.1l3.3,5.4
				h8.8L95.5,284.7z M117.7,292.1h-11.3l-3.2,5.4l4.4,7.1h6.7l5.6-9.2L117.7,292.1z M136.4,191.6l4.8-8.1l-2.6-4.4h-9.9l-4,6.5
				l3.7,6.2L136.4,191.6L136.4,191.6z M75.6,292.1h6.6l-3.3-5.4L75.6,292.1z M99.9,292.1H91l-4.4,7.3l3.2,5.2h8.9l4.4-7.1
				L99.9,292.1z M98.7,304.6h8.7l-4.4-7.1L98.7,304.6z M181.7,191.6l-7.3-12.2l-7.3,12.2H181.7z M203.7,257.9l5.5,9.1h4.4l6.7-11.1
				l-0.8-1.5h-13.6L203.7,257.9z M219.4,254.4l-6.7-11.3l-6.7,11.3H219.4z M211.4,270.7l2.2-3.7h-4.4L211.4,270.7z M198.2,266.9
				l-3.4,5.8l4.1,6.9h7l5.4-8.9l-2.2-3.7H198.2z M190.2,229.3l-1.9,3.2l5.8,9.5h4l6.9-11.4l-0.7-1.1h-14V229.3z M212,241.8
				l-6.9-11.4l-6.9,11.4H212z M196.2,245.2l5.6,9.2h4.3l6.7-11.3l-0.7-1.2h-13.7L196.2,245.2z M160,279.5h3.4l-1.6-2.9L160,279.5z
				 M205.1,230.4l0.7-1.1h-1.4L205.1,230.4z M155.9,266.9h-3.7l-7.1,11.7l0.5,0.8h14.3l1.6-2.9L155.9,266.9z M133.6,170.7l-4.9,8.2
				h9.9L133.6,170.7z M173.6,266.9h-6.2l-5.8,9.6l1.6,2.9h11.8l3-4.8L173.6,266.9z M191.5,266.9H183l-4.7,7.6l3,4.8h9.5l4.1-6.9
				L191.5,266.9z M175.4,279.5h5.9l-3-4.8L175.4,279.5z M190.8,279.5h8.2l-4.1-6.9L190.8,279.5z M204.4,229.3h1.4l7.6-12.6h-15.4
				l-0.5,1L204.4,229.3z M159.3,179h-3l1.5,2.5L159.3,179z M164,191.6h3.2l7.3-12.2l-0.3-0.4h-14.8l-1.5,2.5L164,191.6z M156.4,179
				l-6.2-10.3l-6.2,10.3H156.4z M163.4,279.5H160l-7.1,11.8l0.4,0.7h14.6l1.6-2.7L163.4,279.5z M143.9,179l6.2-10.3l-1.4-2.2h-12.6
				l-2.5,4.3l4.9,8.2H143.9L143.9,179z M141.3,183.5l4.8,8.1h5.6l6.2-10.2l-1.5-2.5h-12.4L141.3,183.5z M180.8,219.7l5.8,9.6h3.8
				l7-11.7l-0.5-1h-14.2L180.8,219.7z M196.7,216.6l-7.1-11.8l-7.1,11.8H196.7z M197.9,216.6h-1.1l0.5,1L197.9,216.6z M173.2,207
				l5.8,9.8h3.6l7.1-11.8l-0.4-0.7h-14.4L173.2,207z M165.5,194.1l5.9,9.9h3.4l7.1-12l-0.3-0.7h-14.6L165.5,194.1z M189.3,204.1
				l-7.1-12l-7.1,12H189.3z M81.4,231.8l-6.2,10.2h12.2L81.4,231.8z M121.1,191.6l3.7-6.2l-4-6.5h-7.6l-5.1,8.5l2.5,4.1H121.1z
				 M108.2,187.5l-2.5,4.1h4.9L108.2,187.5z M117,172.8l-3.8,6.2h7.6L117,172.8z M106.8,215l-6.5-10.9H98l-7.6,12.6h15.4L106.8,215z
				 M98.3,229.3l7.6-12.6H90.4l-0.3,0.3l7.4,12.2L98.3,229.3L98.3,229.3z M128.5,179l4.9-8.2l-2.5-4.3h-10.2l-3.8,6.2l3.8,6.2h7.7
				V179z M99.2,202.2l-1.1,1.9h2.3L99.2,202.2z M113.4,204.1l2.3-4l-5.2-8.7h-4.9l-6.5,10.7l1.1,1.9H113.4L113.4,204.1z M142.5,156
				l1.2-2.1h-2.5L142.5,156z M148.7,166.5h2.7L159,154v-0.1h-15.3l-1.2,2.1L148.7,166.5z M143.8,154l7.6-12.6h-15.4l-1.1,1.9
				l6.3,10.7H143.8z M166.6,166.5L159,154l-7.6,12.5H166.6z M134.8,143.2l-6.5,10.7h12.8L134.8,143.2z M125.9,158.1l-5.1,8.5H131
				L125.9,158.1z M136.2,166.5l6.3-10.4l-1.2-2.1h-12.8l-2.5,4.1l5.1,8.5h5.1V166.5z M60.2,292.1l2.1-3.4l-5.5-9.2h-4.4l-6.7,11.1
				l0.8,1.4L60.2,292.1L60.2,292.1z M54.6,275.9l-2.1,3.6h4.4L54.6,275.9z M45.8,290.7l-0.8,1.4h1.6L45.8,290.7z M67.9,279.5
				l3.4-5.6l-4.3-7h-6.9l-5.4,8.9l2.1,3.6h11V279.5z M90.3,217l-7.4,12.2h14.8L90.3,217z M52.8,304.6h1.5l-0.7-1.1L52.8,304.6z
				 M46.6,292.1h-1.6l-7.6,12.6h15.4l0.7-1.1L46.6,292.1z M64.3,292.1h-4.1l-6.9,11.3l0.7,1.1h13.9l1.9-3.2L64.3,292.1z M83,254.4
				l6-9.9l-1.6-2.6H75.2l-2.7,4.7l4.8,8H83V254.4z M90.6,241.8l7.3-12.2l-0.3-0.4H82.7l-1.5,2.5l6,10.2H90.6z M72.6,246.5l-4.8,8
				h9.5L72.6,246.5z M63.6,261.2l-3.4,5.8h6.9L63.6,261.2z M75.5,266.9l4.7-7.7l-2.9-4.8h-9.5l-4.1,6.7l3.4,5.8L75.5,266.9
				L75.5,266.9z M212.6,243.2l0.7-1.2h-1.6L212.6,243.2z M228,268.6l1-1.6h-2.1L228,268.6z M213.6,266.9l-2.2,3.7l5.4,8.9h4.7
				l6.6-10.9l-1-1.6h-13.5V266.9z M219.1,283.3l5.4,8.7h4.8l6.5-10.7l-1.1-1.8h-13.1L219.1,283.3z M219.4,254.4h1.8l7.6-12.6h-15.4
				l-0.7,1.2L219.4,254.4z M220.3,255.9l0.8-1.5h-1.8L220.3,255.9z M227.1,266.9h2.1l7.6-12.6h-15.4l-0.8,1.5L227.1,266.9z
				 M234.6,279.5l-6.6-10.9l-6.6,10.9H234.6z M183.1,292.1h5.8l-2.9-4.8L183.1,292.1z M199,279.5h-8.2l-4.8,7.8l2.9,4.8h9.6l4-6.7
				L199,279.5z M181.2,279.5h-5.9l-5.9,9.9l1.6,2.7h12.1l2.9-4.8L181.2,279.5z M198.5,292.1h8.1l-4-6.7L198.5,292.1z M150.1,168.7
				l6.2,10.3h3l7.4-12.2l-0.1-0.3h-15.1L150.1,168.7z M216.8,279.5H206l-3.4,5.8l4,6.7h7.1l5.4-8.7L216.8,279.5z M213.7,292.1h10.4
				l-5.4-8.7L213.7,292.1z M181.7,191.6h0.7L190,179h-15.4l-0.3,0.4L181.7,191.6z M189.3,204.1h1l7.6-12.6h-15.4l-0.3,0.7
				L189.3,204.1z M174.4,179.4l0.3-0.4h-0.5L174.4,179.4z M182,192.3l0.3-0.7h-0.7L182,192.3z M166.9,166.5h-0.3l0.1,0.3
				L166.9,166.5z M174.2,179h0.5l7.6-12.6h-15.4l-0.1,0.3L174.2,179z M214.6,216.6l-0.7-1.1l-0.7,1.1H214.6z M167.7,292.1h3.3
				l-1.6-2.7L167.7,292.1z M205.6,229.3H221l0.5-0.8l-7-11.7h-1.2L205.6,229.3z M205.1,230.4l6.9,11.4h1.6l7.6-12.6h-15.4
				L205.1,230.4z M189.7,204.9l0.4-0.7h-1L189.7,204.9z M213.3,216.6l0.7-1.1l-6.9-11.5h-1.5l-7.6,12.6H213.3z M196.7,216.6h1.1
				l7.6-12.6H190l-0.4,0.7L196.7,216.6z M7.6,404.7l7.3-12.1H0.4L7.6,404.7z M140.1,388.6l5.2-8.5H135L140.1,388.6z M156.7,386.5
				l4-6.6h-7.8L156.7,386.5z M96.8,405.2l-6.3-10.6l-6.3,10.6H96.8z M123.6,390.7l6.3-10.6h-12.6L123.6,390.7z M107.1,392.6
				L107.1,392.6L107.1,392.6L107.1,392.6z M189.8,382.5l1.5-2.5h-3L189.8,382.5z M173.2,384.6l2.7-4.5h-5.5L173.2,384.6z M206,380.1
				l-7.3-12.2l-7.4,12.2H206z M-65.4,342.3l1.6,2.6l1.6-2.6H-65.4z M256.1,374.6l4.3-7.1h-8.5L256.1,374.6z M272.7,372.5l3-5.1h-6
				L272.7,372.5z M223.1,378.6l6.7-11.1h-13.3L223.1,378.6z M239.6,376.5l5.5-9.1h-10.9L239.6,376.5z M25.4,375.1l4.7-7.7h-9.2
				L25.4,375.1z M-31.9,368.5l0.7-1h-1.1L-31.9,368.5z M8.9,377.2l5.8-9.8H3L8.9,377.2z M-48.5,370.4l1.8-3h-3.6L-48.5,370.4z
				 M-7.7,379.1l7.1-11.7h-14.2L-7.7,379.1z M-62.1,367.6h11.8l-5.8-9.8L-62.1,367.6z M-69.8,354.9h12l-5.9-9.9L-69.8,354.9z
				 M74,396.7l2.5-4h-4.8L74,396.7z M305.8,368.5l0.7-1.1h-1.2L305.8,368.5z M90.4,394.6l1.1-2.1h-2.5L90.4,394.6z M61,392.6h10.4
				l-5.4-8.7L61,392.6z M37.8,380.1H46l-4.1-6.9L37.8,380.1z M49.6,386l3.4-5.8h-7.1L49.6,386z M289.2,370.4l1.8-3h-3.7L289.2,370.4
				z M80.8,53.3l0.4,0.7l0.4-0.7H80.8z M67.9,91.1l3.2,5.2l3.2-5.2H67.9z M66.5,78.5c4,0,7.3,0,11.7,0l-5.8-9.6L66.5,78.5z
				 M70.7,65.8l1.6,2.9l1.6-2.9H70.7z M101.3,28.3l5.5,9.1l5.5-9.1C107.6,28.3,105.6,28.3,101.3,28.3z M124.5,7.8l-4.8,7.8h9.5
				L124.5,7.8z M91,40.8l6.7,11.3l6.7-11.3C99,40.8,96.2,40.8,91,40.8z M34.6,154l0.8,1.4l0.8-1.4H34.6z M19,157.3l-5.5,9.1h11
				L19,157.3z M6.6,166.5l3.4,5.6l3.4-5.6H6.6z M47.6,116.2l5.8,9.6l5.8-9.6C55,116.2,51.3,116.2,47.6,116.2z M37.3,128.8l7.1,11.8
				l7.1-11.8H37.3z M57.7,103.6l4.4,7.4l4.4-7.4C66.5,103.6,57.7,103.6,57.7,103.6z M156.4,31.2l-5.8,9.5c5.5,0,5.8,0,11.4,0
				L156.4,31.2z M343.5,342.3l-3.2-5.4l-3.2,5.4H343.5z M344.6,329.8h-8.7l4.4,7.1L344.6,329.8z M338.4,304.6l-4.8-7.8l-4.8,7.8
				H338.4z M336.8,317.3h-8.5l4.3,7.1L336.8,317.3z M135.1,15.7h-5.9l3,4.8L135.1,15.7z M344.7,354.9h-11.5l5.8,9.5L344.7,354.9z
				 M333.2,354.9l-1.9-3.2l-1.9,3.2H333.2z M322.3,366.5l7-11.5h-14L322.3,366.5z M143,28.3c-2.9,0-3.3,0-6.2,0l3,5.1L143,28.3z
				 M188.3,54.7l-6.7,11.1h13.5L188.3,54.7z M173.7,53.3h-4.1l2.1,3.4L173.7,53.3z M166,40.8c-1.9,0-2.1,0-4,0L164,44L166,40.8z
				 M75.5,103.6l3.3,5.4l3.3-5.4C82.1,103.6,75.5,103.6,75.5,103.6z M321.4,292.1h-8.1l4,6.7L321.4,292.1z M313.5,279.5h-7.8l4,6.6
				L313.5,279.5z M320.8,304.6l-3.4-5.8l-3.4,5.8H320.8z M147.5,46l-4.4,7.3h8.8L147.5,46z M321.4,317.3h-10.9l5.4,9.1L321.4,317.3z
				 M329.2,329.8h-11.1l5.5,9.2L329.2,329.8z M325.6,342.3l-2.1-3.3l-2.1,3.3H325.6z M211.3,93.1l-6.5,10.7h12.8L211.3,93.1z
				 M179.4,69.4l-5.4,8.9c5.4,0,5.4,0,10.9,0L179.4,69.4z M158.5,53.3H152l3.3,5.4L158.5,53.3z M166.3,65.8h-6.7l3.4,5.6L166.3,65.8
				z M197.1,91.1h-4.8l2.3,4L197.1,91.1z M189.4,78.5c-2.2,0-2.2,0-4.5,0l2.2,3.7L189.4,78.5z M315.9,266.9l-5.1-8.4l-5.1,8.4H315.9
				z M182.1,369.9l1.4-2.3h-2.9L182.1,369.9z M314.8,353.8l6.9-11.4h-13.7L314.8,353.8z M215.3,365.8l6.6-10.9h-13.2L215.3,365.8z
				 M-55.3,329.8l0.3,0.4l0.3-0.4H-55.3z M132.5,375.9l5.1-8.4h-10L132.5,375.9z M149.1,373.9l3.8-6.3h-7.6L149.1,373.9z
				 M198.6,367.6l-7.4-12.4l-7.6,12.4H198.6z M281.6,357.8l1.6-2.9h-3.4L281.6,357.8z M231.9,363.8l5.4-8.9h-10.7L231.9,363.8z
				 M298.1,355.7l0.5-0.8h-1.1L298.1,355.7z M248.4,361.8l4.1-6.9h-8.2L248.4,361.8z M265,359.7l3-4.8h-5.9L265,359.7z M165.6,371.8
				l2.6-4.4h-5.4L165.6,371.8z M11.5,204.1l4.8,8.1l4.8-8.1H11.5z M-11.5,254.4l1.2,2.1l1.2-2.1H-11.5z M-8.9,229.3l7.6,12.5
				l7.6-12.5H-8.9z M135.4,40.8c-4,0-4.8,0-8.7,0l4.4,7.1L135.4,40.8z M14.2,179l3.4,5.8L21,179H14.2z M13.5,191.6h8.1l-4.1-6.7
				L13.5,191.6z M1.2,216.6l6.2,10.3l6.2-10.3H1.2z M-24.3,254.4h12.8l-6.3-10.6L-24.3,254.4z M-42.3,292.1l5.2,8.7l5.2-8.7H-42.3z
				 M116,377.9l6.2-10.4h-12.5L116,377.9z M-32,279.5l4,6.5l4-6.5H-32L-32,279.5z M-21.9,266.9l2.5,4.3l2.5-4.3H-21.9z M26.5,170
				l-5.4,8.9H32L26.5,170z M98.6,53.3l6.9,11.4l6.9-11.4H98.6z M108.9,40.8l5.5,9.2l5.6-9.2C115.1,40.8,113.5,40.8,108.9,40.8z
				 M88.4,65.8l0.5,0.8l0.5-0.8H88.4z M81.8,78.5c5.4,0,8.2,0,14,0l-7-11.7L81.8,78.5z M119,28.3l4.3,7.1l4.3-7.1
				C123.8,28.3,122.7,28.3,119,28.3z M123.3,35.3l-3.3,5.5c3,0,3.6,0,6.7,0L123.3,35.3z M55,128.8l5.8,9.8l5.9-9.8H55z M42.1,166.5
				l1,1.6l1-1.6H42.1z M44.9,141.3l7.1,12l7.1-12H44.9z M85.8,91.1l1.9,3.3l1.9-3.3H85.8z M-3.6,179l4.7,7.7l4.7-7.7H-3.6z
				 M65.3,116.2l4.5,7.6l4.5-7.6C70.9,116.2,68.6,116.2,65.3,116.2z M-52.5,304.6l6.5,10.9l6.6-10.9H-52.5z M-100.3,380.1h4.4
				l-2.1-3.6L-100.3,380.1z M-103.6,367.6l5.4,8.9l5.4-8.9H-103.6z M-90.6,389.3l5.5-9.2h-11L-90.6,389.3z M-107.1,391.2l6.7-11.3
				h-13.5L-107.1,391.2z M-100.5,354.9h7.1l-3.6-5.9L-100.5,354.9z M-100.9,342.3l4,6.7l4-6.7H-100.9z M-66.4,399.9l4.4-7.3h-8.9
				L-66.4,399.9z M-16.6,394l0.8-1.2h-1.6L-16.6,394z M252.2,304.6h15.1l-7.6-12.6l0,0L252.2,304.6z M-77.3,392.6h6.5l-3.3-5.4
				L-77.3,392.6z M22.7,405.2h3l-1.5-2.5L22.7,405.2z M-100.6,329.8h9.9l-4.9-8.2L-100.6,329.8z M-54.2,405.2h8.7l-4.4-7.1
				L-54.2,405.2z M-27.6,405.2l-5.5-9.2l-5.6,9.2H-27.6z M27.1,141.3l0.7,1.2l0.7-1.2H27.1z M11.3,144.6L5.6,154h11.1L11.3,144.6z
				 M29.7,116.2l7,11.7l7-11.7C39.3,116.2,33.5,116.2,29.7,116.2z M-17.2,191.6h3.4l-1.6-2.7L-17.2,191.6z M39.9,103.6l5.8,9.5
				l5.8-9.5C51.4,103.6,39.9,103.6,39.9,103.6z M50.2,91.1l4.4,7.1l4.4-7.1H50.2z M-55.1,254.4h8l-4-6.7L-55.1,254.4z M-57.5,266.9
				l4.9,8.2l4.9-8.2H-57.5z M-67.6,279.5l6.2,10.4l6.3-10.4H-67.6z M-24.1,204.1l7.3,12.2l7.3-12.2H-24.1z M-33.3,218.3l-6.7,11
				h13.2L-33.3,218.3z M-86.7,306.7l-6.3,10.4h12.6L-86.7,306.7z M321.1,394l0.8-1.4h-1.6L321.1,394z M-123.6,393.3l0.4-0.7h-0.7
				L-123.6,393.3z M-99.5,404l6.9-11.3h-13.6L-99.5,404z M-84.8,405.2h4l-1.9-3.2L-84.8,405.2z M-121.4,367.6l6.6,11l6.7-11H-121.4z
				 M-115.9,354.9h4.8l-2.3-4L-115.9,354.9z M345.3,404.7l7.3-12.1H338L345.3,404.7z M391.5,392.6l-4-6.7l-4,6.7H391.5z M127-47.1
				l-7.6,12.6h15.1L127-47.1z M398.9,405.2l-4-6.5l-4,6.5H398.9z M-146.3,405.2h12l-5.9-9.9L-146.3,405.2z M118.2-32.4L112-22h12.5
				L118.2-32.4z M361.9,402.7l6.2-10h-12.2L361.9,402.7z M378.6,400.7l4.8-8.1h-9.8L378.6,400.7z M288,398.1l3.3-5.4h-6.5L288,398.1
				z M271.5,400l4.4-7.4h-8.9L271.5,400z M51.1,78.5c2.7,0,6.2,0,9.2,0l-4.7-7.6L51.1,78.5z M304.6,396l2.1-3.4h-4.1L304.6,396z
				 M221.2,405.2l-7.1-11.8l-7.1,11.8H221.2z M254.8,402.1l5.8-9.5h-11.3L254.8,402.1z M238.2,404.1l6.9-11.4h-13.7L238.2,404.1z
				 M383.8,380.1l-4.1-6.7l-4.1,6.7H383.8z M142.4-21.7L135-9.5h14.7L142.4-21.7z M337.7,392l7.1-12h-14.4L337.7,392z M127.3-22
				h-2.9l1.4,2.3L127.3-22z M370.7,387.9l4.8-8H366L370.7,387.9z M354.2,390l6-9.9h-12L354.2,390z M147.8,401.2l5.4-8.7h-10.4
				L147.8,401.2z M-69.6,380.1h9.1l-4.5-7.6L-69.6,380.1z M-35.2,392.6l-5.6-9.5l-5.8,9.5H-35.2z M-40.8,383.2l1.9-3.2h-3.8
				L-40.8,383.2z M-57.5,385.2l3-5.2h-6.2L-57.5,385.2z M131.1,403.3l6.5-10.7h-12.9L131.1,403.3z M-77.4,367.6h9.3l-4.8-7.8
				L-77.4,367.6z M-85.2,354.9h9.5l-4.8-8L-85.2,354.9z M40.7,400.7l4.8-8.1h-9.6L40.7,400.7z M53.3,405.2h7.8l-4-6.6L53.3,405.2z
				 M30.2,392.6H36l-2.9-4.7L30.2,392.6z M-24.3,381.2l0.7-1.1H-25L-24.3,381.2z M16.5,389.8l5.9-9.9H10.6L16.5,389.8z M0,391.9
				l7.1-11.8H-7.1L0,391.9z M-81.5,374.6l4.3-7h-8.5L-81.5,374.6z M-37,241.8l2.3,4l2.3-4H-37z M-25.7,231.1l-6.6,10.9h13.1
				L-25.7,231.1z M-39.7,254.4h10.4l-5.2-8.5L-39.7,254.4z M-83.2,342.3l2.7,4.7l2.7-4.7H-83.2z M-6.3,204.1l6,10.2l6.2-10.2H-6.3z
				 M-16.5,216.6l7.4,12.2l7.4-12.2H-16.5z M-39.6,266.9l3.8,6.2l3.8-6.2H-39.6z M-49.8,279.5l5.1,8.5l5.1-8.5H-49.8L-49.8,279.5z
				 M-72.9,329.8l1.5,2.5l1.5-2.5H-72.9z M-85.4,329.8H-73l-6.2-10.3L-85.4,329.8z M-60.1,292.1l6.3,10.7l6.5-10.7H-60.1z
				 M-62.7,317.3l0.3,0.3l0.3-0.3H-62.7z M164.4,399.3l4-6.7h-8.1L164.4,399.3z M142.7,3c-1.4,0-1.9,0-3.3,0l1.6,2.7L142.7,3z
				 M165.4,16.5l-7.1,11.7c6.7,0,7.1,0,14,0L165.4,16.5z M150.5,15.7h-3.4l1.6,2.9L150.5,15.7z M361.1,342.3l-4.4-7.3l-4.4,7.3
				H361.1z M360.1,354.9h-9.1l4.5,7.6L360.1,354.9z M367.8,367.6h-9.3l4.7,7.7L367.8,367.6z M93.7,15.7l5.4,8.9l5.4-8.9
				C104.5,15.7,93.7,15.7,93.7,15.7z M103.9,3l4,6.7l4-6.7C109.3,3,106.5,3,103.9,3z M358.5,367.6l-3-4.9l-3,4.9H358.5z M114.1-9.5
				l2.7,4.5l2.7-4.5H114.1z M133.5-6.9l-6,10c4.7,0,7.1,0,12.1,0L133.5-6.9z M116.8-4.8L112,3.3c3.3,0,6.2,0,9.6,0L116.8-4.8z
				 M296.9,383.4l1.9-3.2h-4L296.9,383.4z M213.6,392.6l-7.1-12.1l-7.3,12.1H213.6z M197.5,395.3l1.6-2.6h-3.3L197.5,395.3z
				 M217.9,310.8l3.7-6.2h-7.4L217.9,310.8z M230.7,391.2l6.7-11.3h-13.6L230.7,391.2z M181,397.3l2.9-4.7h-5.8L181,397.3z
				 M83.6,28.3l6.7,11.1L97,28.3C91.8,28.3,88.1,28.3,83.6,28.3z M330,379.2l7.1-11.8H323L330,379.2z M346.7,377.3l5.9-9.8h-11.8
				L346.7,377.3z M263.8,387.4l4.4-7.1h-8.7L263.8,387.4z M313.5,381.3l0.7-1.1h-1.5L313.5,381.3z M-1.8,191.6H4l-2.9-4.8
				L-1.8,191.6z M280.3,385.3l3.2-5.2h-6.2L280.3,385.3z M247.1,389.3l5.6-9.2h-11.1L247.1,389.3z M77.7,166.5l6.2,10.3l6.2-10.3
				H77.7z M88,154l4.8,8.1l4.8-8.1H88z M67.5,179l7.6,12.5l7.6-12.5H67.5z M98.1,141.3l3.6,5.9l3.6-5.9H98.1z M64.7,204.1l1.2,2.1
				l1.2-2.1H64.7z M108.5,128.8l2.2,3.7l2.2-3.7H108.5z M44.4,229.3l4,6.5l4-6.5H44.4z M21.3,279.5l0.3,0.4l0.3-0.4H21.3z
				 M11.1,292.1l1.6,2.6l1.6-2.6H11.1z M23.9,254.4l6.5,10.9l6.6-10.9H23.9z M118.6,116.2l1,1.6l1-1.6
				C119.7,116.2,119.5,116.2,118.6,116.2z M54.6,216.6l2.5,4.3l2.5-4.3H54.6z M34.2,241.8l5.2,8.7l5.2-8.7H34.2z M205.2,154h-10.6
				l5.4,8.8L205.2,154z M0.8,304.6l2.9,4.8l2.9-4.8H0.8z M121.2,91.1l7.1,12l7.1-12H121.2z M212.9,166.5h-10.9l5.4,8.9L212.9,166.5z
				 M197.4,141.3h-10.4l5.2,8.7L197.4,141.3z M236,179h-8.5l4.4,7.1L236,179z M224.1,173.3l-3.4,5.6h6.7L224.1,173.3z M184.6,137.3
				l-2.5,4.1h4.9L184.6,137.3z M143.5,103.6h-14.6l7.1,12.2L143.5,103.6z M174.3,128.8h-12.6l6.2,10.4L174.3,128.8z M243.8,191.6
				h-8.8l4.4,7.3L243.8,191.6z M166.6,116.2c-6.2,0-6.2,0-12.4,0l6.2,10.3L166.6,116.2z M152.7,113.8l-1.5,2.5c1.5,0,1.5,0,3,0
				L152.7,113.8z M128.4,103.1l-0.3,0.7h0.7L128.4,103.1z M266.3,332.4l1.5-2.5h-3L266.3,332.4z M282.9,330.3l0.3-0.5h-0.7
				L282.9,330.3z M285.2,304.6l-1.1-1.8l-1.1,1.8H285.2z M-9.5,317.3l4.3,7l4.3-7H-9.5z M216.6,338.3l5.2-8.5h-10.3L216.6,338.3z
				 M233.1,336.2l4-6.6h-7.8L233.1,336.2z M275.5,229.3l-4.1-6.9l-4.1,6.9H275.5z M282.6,254.4h-9.9l4.8,8.1L282.6,254.4z
				 M274.9,241.8h-9.6l4.8,8.1L274.9,241.8z M200,340.3l6.3-10.6h-12.6L200,340.3z M280.3,266.9l-2.6-4.4l-2.6,4.4H280.3z
				 M290.6,292.1h-12.9l6.5,10.7L290.6,292.1z M282.7,279.5h-12.6l6.3,10.6L282.7,279.5z M249.8,334.4l2.7-4.5H247L249.8,334.4z
				 M2.5,336.9l4.4-7.1h-8.5L2.5,336.9z M19.1,334.8l3-5.2h-6.2L19.1,334.8z M35.6,332.9l1.9-3.2h-3.8L35.6,332.9z M-14.2,339
				l5.5-9.2h-11L-14.2,339z M52.2,330.9l0.7-1.1h-1.4L52.2,330.9z M-8.7,329.8h6.7l-3.4-5.6L-8.7,329.8z M100.6,352.4l6-10H94.6
				L100.6,352.4z M133.7,348.3l3.6-6H130L133.7,348.3z M150.2,346.4l2.5-4h-4.8L150.2,346.4z M84.1,354.4l7.3-12.1H76.8L84.1,354.4z
				 M117.3,350.4l4.8-8.1h-9.6L117.3,350.4z M166.9,344.3l1.1-2.1h-2.5L166.9,344.3z M258.6,319.6l1.4-2.3H257L258.6,319.6z
				 M105.7,154l3.7,6.2l3.7-6.2H105.7z M189.8,154h-13.1l6.5,10.9L189.8,154z M116,141.3l2.3,4l2.3-4H116z M31.5,266.9l6.6,11
				l6.7-11H31.5z M175.7,152l-1.1,1.9h2.3L175.7,152z M158.9,128.8h-15l7.6,12.5L158.9,128.8z M143.8,128.5l-0.1,0.3h0.3
				L143.8,128.5z M62.1,229.3l2.6,4.4l2.6-4.4H62.1z M52,241.8l4,6.7l4-6.7H52z M41.6,254.4l5.4,8.8l5.4-8.8H41.6z M85.2,179
				l6.2,10.4l6.3-10.4H85.2z M95.5,166.5l4.9,8.2l4.9-8.2H95.5z M72.4,216.6l1.4,2.2l1.4-2.2H72.4z M126.2,128.8l1.1,1.6l1.1-1.6
				H126.2z M244.7,266.9l-0.3-0.3l-0.3,0.3H244.7z M252,254.4h-14.7l7.3,12.2L252,254.4z M244.3,241.8h-14.6l7.1,12.1L244.3,241.8z
				 M239.9,229.3l-1.6-2.9l-1.6,2.9H239.9z M251,306.8l1.2-2.2h-2.6L251,306.8z M234.4,308.9l2.5-4.1h-5.1L234.4,308.9z
				 M197.7,166.5h-13.2l6.6,11L197.7,166.5z M215.3,188.2l-2.1,3.4h4.1L215.3,188.2z M205.4,179h-13.5l6.7,11.1L205.4,179z
				 M236.3,204.1h-11.4l5.8,9.5L236.3,204.1z M244,216.6h-11.7l5.8,9.6L244,216.6z M228.5,191.6h-11.3l5.6,9.3L228.5,191.6z
				 M159.3,331.5l1.1-1.8h-2.2L159.3,331.5z M274.8,216.6H268l3.4,5.6L274.8,216.6z M275.1,317.3l-7.4-12.4l-7.6,12.4H275.1z
				 M267.5,279.5h-15.1l7.6,12.6L267.5,279.5z M28.7,292.1l0.3,0.7l0.4-0.7H28.7z M208.9,325.6l5.1-8.4h-10.2L208.9,325.6z
				 M225.4,323.6l3.8-6.3h-7.6L225.4,323.6z M259.4,216.6h-9.2l4.7,7.6L259.4,216.6z M257.6,229.3l-3-4.8l-3,4.8H257.6z
				 M192.3,327.6l6.2-10.4H186L192.3,327.6z M259.5,241.8h-12.1l6,10L259.5,241.8z M262.5,266.9l-1.4-2.3l-1.4,2.3H262.5z
				 M267.4,254.4h-12.2l6.2,10.2L267.4,254.4z M242.1,321.5l2.6-4.4h-5.2L242.1,321.5z M27.9,320.1l1.8-3h-3.6L27.9,320.1z
				 M44.4,318.2l0.5-1h-1.1L44.4,318.2z M175.9,329.8l-0.1-0.3l-0.1,0.3H175.9z M14.4,317.3h11.8l-5.8-9.8L14.4,317.3z M18.6,304.6
				l1.6,2.7l1.6-2.7H18.6z M76.3,341.7l7.1-11.8H69.1L76.3,341.7z M11.4,322.2l3-4.9h-6L11.4,322.2z M251.7,204.1h-8.9l4.5,7.6
				L251.7,204.1z M142.7,333.6l2.3-3.8h-4.7L142.7,333.6z M126.2,335.7l3.4-5.8h-7.1L126.2,335.7z M92.9,339.7l5.9-9.9H87
				L92.9,339.7z M109.6,337.6l4.8-7.8h-9.5L109.6,337.6z M59.9,166.5l7.4,12.2l7.4-12.2H59.9z M181.7,91.1h-7.1l3.6,5.9L181.7,91.1z
				 M220.3,128.8H215l2.6,4.4L220.3,128.8z M93.3,103.6l2.1,3.4l2.1-3.4H93.3z M170.4,84.3l-4.1,6.7h8.1L170.4,84.3z M202.3,107.8
				l-5.1,8.5c5.1,0,5.2,0,10.2,0L202.3,107.8z M212.6,116.2c-2.5,0-2.6,0-5.2,0l2.5,4.3L212.6,116.2z M189.4,103.6h-7.3l3.7,6.2
				L189.4,103.6z M116.4,53.3l5.6,9.5l5.8-9.5H116.4z M106.3,65.8l7,11.7l7-11.7H106.3z M103.5,91.1l0.7,1.2l0.7-1.2H103.5z
				 M122.1,62.8l-1.9,3.2h3.8L122.1,62.8z M138.6,60.8l-3,5.2h6.2L138.6,60.8z M150.9,65.8h-9.1l4.5,7.6L150.9,65.8z M158.6,78.5
				c-4.5,0-4.8,0-9.3,0l4.7,7.7L158.6,78.5z M306.1,317.3h-13.3l6.7,11.1L306.1,317.3z M228.2,141.3h-5.6l2.7,4.7L228.2,141.3z
				 M298.1,279.5h-10.3l5.1,8.5L298.1,279.5z M306,292.1h-10.4l5.2,8.7L306,292.1z M314,329.8h-13.6l6.7,11.3L314,329.8z
				 M300.3,329.8l-0.8-1.5l-1,1.5H300.3z M303,304.6l-2.3-3.8l-2.3,3.8H303z M293.2,229.3l-5.4-8.9l-5.4,8.9H293.2z M298.1,266.9
				l-3.8-6.3l-3.8,6.3H298.1z M266.9,204.1h-6.6l3.3,5.5L266.9,204.1z M290.3,241.8h-7.1l3.6,6L290.3,241.8z M298,254.4h-7.4
				l3.7,6.2L298,254.4z M34.2,360.4l3.3-5.5h-6.7L34.2,360.4z M-54.4,354.9H-40l-7.1-12L-54.4,354.9z M1.2,364.4l5.8-9.5H-4.4
				L1.2,364.4z M-15.4,366.5l7-11.5h-13.9L-15.4,366.5z M-39.6,355.7l0.5-0.8h-1L-39.6,355.7z M-44.9,317.3l6.6,11l6.7-11H-44.9z
				 M-34.8,304.6l5.4,8.8l5.4-8.8H-34.8z M-47.6,342.3l0.4,0.7l0.4-0.7H-47.6z M83,116.2l3.4,5.6l3.4-5.6
				C86.9,116.2,85.8,116.2,83,116.2z M68.5,380.1h13.2l-6.6-10.9L68.5,380.1z M82.7,381.9l1.1-1.8h-2.2L82.7,381.9z M58.6,371.1
				l2.2-3.7h-4.4L58.6,371.1z M290.4,343.1l0.4-0.7H290L290.4,343.1z M45.4,367.6h10.9l-5.4-9.1L45.4,367.6z M17.7,362.5l4.5-7.6
				h-9.1L17.7,362.5z M52.4,154l7.3,12.2l7.3-12.2H52.4z M28.9,191.6h10.6l-5.4-8.8L28.9,191.6z M39.5,191.6l2.3,4l2.3-4H39.5z
				 M49.8,179l1.1,1.8L52,179H49.8z M62.5,141.3l5.9,9.9l6-9.9H62.5z M72.9,128.8l4.7,7.7l4.7-7.7H72.9z M-14.3,279.5l2.6,4.4
				l2.6-4.4H-14.3L-14.3,279.5z M-24.5,292.1l4,6.7l4-6.7H-24.5z M-4,266.9l1.4,2.2l1.4-2.2H-4z M29.3,204.1l3.7,6.2l3.7-6.2H29.3z
				 M8.9,229.3l6.2,10.4l6.3-10.4H8.9z M19.1,216.6l4.9,8.2l4.9-8.2H19.1z M241.9,143.9l-6,9.9h12L241.9,143.9z M111.1,103.6
				l0.8,1.4l0.8-1.4H111.1z M151.1,91.1h-12l5.9,9.9L151.1,91.1z M113.7,78.5l7.1,11.8l7.1-11.8C121.4,78.5,120,78.5,113.7,78.5z
				 M90.6,128.8l3.4,5.8l3.4-5.8H90.6z M129.8,75.5l-1.8,3c1.6,0,1.9,0,3.6,0L129.8,75.5z M143.2,78.5c-5.6,0-6.2,0-11.8,0l5.8,9.8
				L143.2,78.5z M100.8,116.2l2.1,3.6l2.1-3.6C103.2,116.2,102.7,116.2,100.8,116.2z M57.3,191.6l1.1,1.9l1.1-1.9H57.3z M47,204.1
				l2.5,4.1l2.5-4.1H47z M80.4,141.3l4.8,8l4.8-8H80.4z M36.8,216.6l3.8,6.2l3.8-6.2H36.8z M70.2,154l6,10.2l6.2-10.2H70.2z
				 M99.4,380.1l-0.1-0.3l-0.1,0.3H99.4z M233,158.6l-4.7,7.7h9.3L233,158.6z M243.7,166.5h-6l3,4.9L243.7,166.5z M26.5,229.3
				l5.1,8.5l5.1-8.5H26.5z M251.4,179h-6.2l3,5.2L251.4,179z M220.6,154h-8.2l4.1,6.7L220.6,154z M264.9,182.1l-5.8,9.5h11.4
				L264.9,182.1z M161.6,99l-2.7,4.7h5.6L161.6,99z M259.1,191.6h-6.3l3.2,5.4L259.1,191.6z M174.2,103.6h-9.8l4.8,8.1L174.2,103.6z
				 M182,116.2c-4.9,0-4.9,0-9.9,0l4.9,8.2L182,116.2z M212.8,141.3h-8l4,6.7L212.8,141.3z M193.5,122.5l-3.8,6.2h7.6L193.5,122.5z
				 M205.1,128.8h-7.7l4,6.5L205.1,128.8z M92,367.6l-0.3-0.3l-0.3,0.3H92z M124.8,363l4.9-8.1h-9.9L124.8,363z M53.1,354.9h13.6
				l-6.7-11.3L53.1,354.9z M108.2,365.1l6.2-10.2h-12.2L108.2,365.1z M67.5,356.4l0.8-1.5h-1.8L67.5,356.4z M274,345l1.6-2.6h-3.3
				L274,345z M157.9,359.2l2.5-4.3h-5.1L157.9,359.2z M141.3,361.1l3.7-6.2h-7.4L141.3,361.1z M257.3,347.1l2.9-4.7h-5.8
				L257.3,347.1z M240.8,349.1l4-6.7h-8.1L240.8,349.1z M207.7,353.1l6.5-10.7h-12.9L207.7,353.1z M174.6,357.1l1.2-2.2h-2.6
				L174.6,357.1z M224.2,351.1l5.4-8.7h-10.4L224.2,351.1z M-37.4,329.8l6.7,11.3l6.7-11.3H-37.4z M16.4,241.8l6.3,10.7l6.5-10.7
				H16.4z M-16.9,304.6l4.1,6.7l4.1-6.7H-16.9z M-27.1,317.3l5.4,8.9l5.4-8.9H-27.1z M-6.7,292.1l2.7,4.7l2.7-4.7H-6.7z M3.4,279.5
				l1.5,2.5l1.5-2.5H3.4z M13.7,266.9l0.3,0.3l0.3-0.3H13.7z M-31.5,342.3h1.6l-0.8-1.4L-31.5,342.3z M26.7,347.8l3.2-5.4h-6.5
				L26.7,347.8z M43.3,345.7l2.1-3.3h-4L43.3,345.7z M10.2,349.7l4.4-7.3H5.8L10.2,349.7z M-23,353.8l6.9-11.3h-13.6L-23,353.8z
				 M-6.5,351.8l5.6-9.3h-11.3L-6.5,351.8z M111.5,15.7l4.1,6.9l4.1-6.9C119.7,15.7,111.5,15.7,111.5,15.7z M-31.3,367.6l-0.7,1
				l7,11.5h1.4l7.6-12.6L-31.3,367.6L-31.3,367.6z M-38.9,380.1h14l-7-11.5L-38.9,380.1z M-14.7,367.6h-1.2l-7.6,12.6h15.4l0.5-0.8
				L-14.7,367.6z M3,367.6h-3.7l-7.1,11.7l0.5,0.8H7l1.6-2.9L3,367.6z M259.9,292.1L259.9,292.1L259.9,292.1L259.9,292.1z
				 M-32.6,367.6h-14.2l-1.8,3l5.8,9.6h3.8l7-11.5L-32.6,367.6z M-68,367.6l3,4.9l3-4.9H-68z M-75.6,354.9l2.9,4.8l2.9-4.8H-75.6z
				 M-54.3,380.1h11.5l-5.8-9.6L-54.3,380.1z M-63.8,345l-1.6-2.6h-12.1l-2.7,4.7l4.8,8h5.8L-63.8,345z M-56.2,357.7l-1.6-2.7h-12
				l-2.9,4.8l4.7,7.7h6L-56.2,357.7z M7.1,380.1h3.4l-1.6-2.9L7.1,380.1z M-71.5,332.2l-6.2,10h12.2L-71.5,332.2z M-50.3,367.6
				h-11.8l-3,4.9l4.5,7.6h6.2l5.8-9.6L-50.3,367.6z M90.4,394.6l-1.1-2.1H76.4l-2.5,4l5.2,8.5h5.1L90.4,394.6z M68.7,405.2H79
				l-5.2-8.5L68.7,405.2z M71.5,392.6H61l-3.6,6l4,6.6H69l5.2-8.5L71.5,392.6z M53.6,392.6l3.6,6l3.6-6H53.6L53.6,392.6z
				 M107.1,392.6H91.7l-1.1,2.1l6.3,10.6h2.6L107.1,392.6L107.1,392.6z M20.9,367.6h-6.2l-5.8,9.8l1.6,2.9h11.8l3-4.8L20.9,367.6z
				 M99.4,405.2h15.1l-7.6-12.6L99.4,405.2z M42.1,373.2l-3.4-5.8h-8.5l-4.7,7.7l3,4.8h9.5L42.1,373.2z M28.3,380.1l4.8,7.8l4.8-7.8
				H28.3z M22.4,380.1h5.9l-3-4.8L22.4,380.1z M45.6,392.6h8.1l-4-6.7L45.6,392.6z M66.1,383.9l-2.3-3.8H53.1l-3.4,5.8l4,6.7h7.3
				L66.1,383.9z M46.2,380.1h-8.2l-4.8,7.8l2.9,4.7h9.6l4-6.7L46.2,380.1z M8.8,199.6L6,204.3h5.6L8.8,199.6z M6.2,229.3l1.4-2.2
				l-6.2-10.3h-3L-9.1,229l0.1,0.3L6.2,229.3L6.2,229.3z M-9.1,229l-0.1,0.3h0.3L-9.1,229z M-0.3,214.3l-1.5,2.5h3L-0.3,214.3z
				 M13.7,216.6l2.6-4.4l-4.8-8.1H5.9l-6.2,10.2l1.5,2.5L13.7,216.6L13.7,216.6z M-11.5,254.4h2.5l7.6-12.6h-15.3l-1.1,1.9
				L-11.5,254.4z M-62.1,342.3l7.3-12.1l-0.3-0.4H-70l-1.5,2.5l6,10H-62.1z M9.9,172l-4.3,7H14L9.9,172z M107.1,392.6l7.6,12.6h0.3
				l7.6-12.6H107.1L107.1,392.6z M17.7,184.9l-3.4-5.8H5.8l-4.7,7.7l2.9,4.8h9.5L17.7,184.9z M21.2,179l5.4-8.9l-2.1-3.6h-11
				l-3.4,5.6l4.3,7h6.9V179z M-16.9,241.8h-2.3l1.1,1.9L-16.9,241.8z M21.3,204.1l4-6.7l-3.6-5.9h-8.1l-4.8,8l2.7,4.7H21.3z
				 M4,191.6l4.8,8l4.8-8H4z M-1.4,241.8l-7.6-12.5h-0.3l-7.6,12.6L-1.4,241.8L-1.4,241.8z M-53.6,302.7l-1.1,1.9h2.3L-53.6,302.7z
				 M-39.5,304.6l2.3-4l-5.2-8.7h-4.8l-6.5,10.7l1.1,1.9H-39.5L-39.5,304.6z M104.6,40.8l2.1-3.4l-5.5-9.1c-1.6,0-2.7,0-4.4,0
				L90,39.5l1,1.4C96.2,40.8,99,40.8,104.6,40.8z M-44.7,288l-2.5,4.1h4.9L-44.7,288z M-54.7,329.8l7.6-12.6h-15.3l-0.3,0.3
				l7.4,12.2h0.5V329.8z M-62.5,317.5l-7.4,12.2h14.8L-62.5,317.5z M-24.3,279.5l4.9-8.2l-2.5-4.3H-32l-3.8,6.2l3.8,6.2h7.7V279.5z
				 M-26.9,258.6l-5.1,8.5h10.2L-26.9,258.6z M-16.6,266.9l6.3-10.4l-1.2-2.1h-12.8l-2.5,4.1l5.1,8.5h5.1V266.9z M-29.4,254.4
				l2.5,4.1l2.5-4.1H-29.4z M-31.9,292.1l3.7-6.2l-4-6.5h-7.4l-5.1,8.5l2.5,4.1H-31.9z M-35.9,273.3l-3.8,6.2h7.6L-35.9,273.3z
				 M-18,243.8l-1.1-1.9h-13.1l-2.3,4l5.2,8.5h4.9L-18,243.8z M234.1,367.6h-4.4l-6.7,11.1l0.8,1.5h13.6l2.1-3.4L234.1,367.6z
				 M353.7,329.8l-4.5-7.6l-4.5,7.6H353.7z M332.5,324.3l3.3,5.5h8.7l4.5-7.6l-3-5.1h-9.3L332.5,324.3z M346.1,317.3l-4.7-7.7
				l-4.7,7.7H346.1z M171.8,56.8l5.5,9.2h4.4l6.7-11.1l-0.8-1.4H174L171.8,56.8z M187.5,53.3l-6.7-11.3l-6.9,11.3H187.5z
				 M338.8,364.5l1.8,3h11.8l3-4.9l-4.5-7.6h-6.2L338.8,364.5z M164.1,44.1l5.6,9.3h4.1l6.9-11.3l-0.7-1.2c-6.9,0-7.1,0-13.9,0
				L164.1,44.1z M333.2,354.9h-3.8l-7,11.5l0.7,1h14.2l1.8-3L333.2,354.9z M350.9,354.9l-3-5.2l-3,5.2H350.9z M340.2,337l3.2,5.4
				h8.9l4.4-7.3l-3.2-5.2h-9.1L340.2,337z M337,342.3l-5.8,9.5l1.9,3.2h11.5l3-5.2l-4.4-7.4H337z M347.9,349.7l4.4-7.4h-8.9
				L347.9,349.7z M337,367.6h3.6l-1.8-3L337,367.6z M179.9,40.8l-6.9-11.5l-7,11.5C172.9,40.8,173.1,40.8,179.9,40.8z M127.4,3
				c-2.2,0-3.6,0-5.8,0l2.9,4.7L127.4,3z M108,9.9l-3.4,5.8h7.1L108,9.9z M99.1,24.6l-2.2,3.7c1.6,0,2.6,0,4.4,0L99.1,24.6z
				 M129.3,15.7h5.9l5.9-9.9L139.5,3c-4.9,0-7.4,0-12.1,0l-2.9,4.7L129.3,15.7z M112.3,28.3l3.4-5.8l-4.1-6.9h-7.1l-5.4,8.9l2.2,3.7
				C105.6,28.3,107.6,28.3,112.3,28.3z M119.7,15.7l4.8-7.8l-2.9-4.7c-3.6,0-6.3,0-9.6,0l-4,6.7l3.4,5.8H119.7L119.7,15.7z
				 M158.4,28.3c-1.8,0-1.9,0-3.7,0l1.8,3L158.4,28.3z M139.9,33.3l4.5,7.6c3,0,3.3,0,6.3,0l5.8-9.5l-1.8-3c-5.6,0-6.2,0-11.7,0
				L139.9,33.3z M147.1,15.7l-5.9-9.9l-5.9,9.9H147.1z M162.1,40.8c1.9,0,2.1,0,4,0l7-11.5l-0.7-1.1c-7,0-7.3,0-14,0l-1.8,3
				L162.1,40.8z M132.2,20.6l4.7,7.7c2.7,0,3.3,0,6.2,0l5.8-9.6l-1.6-2.9h-11.8L132.2,20.6z M154.6,28.3l-5.8-9.6l-5.8,9.6
				C148.3,28.3,149,28.3,154.6,28.3z M268.2,380.1h8.9l-4.5-7.6L268.2,380.1z M191.3,380.1l-1.5,2.5l6,10h3.3l7.3-12.1l-0.3-0.5
				h-14.8V380.1z M183.8,392.6h12.1l-6-10L183.8,392.6z M168.4,392.6h9.6l-4.8-8.1L168.4,392.6z M188.3,380.1h-12.2l-2.7,4.5
				l4.8,8.1h5.8l6-10L188.3,380.1z M206.5,380.5l0.3-0.5H206L206.5,380.5z M199,367.6l-0.3,0.3l7.3,12.2h0.7l7.6-12.6L199,367.6
				L199,367.6z M122.5,392.6h2.5l-1.1-2.1L122.5,392.6z M135,380.1h-5.1l-6.3,10.6l1.1,2.1h12.9l2.5-4L135,380.1z M170.6,380.1h-9.9
				l-4,6.6l3.6,6h8.1l4.8-8.1L170.6,380.1z M137.7,392.6h4.8l-2.5-4L137.7,392.6z M216.4,367.6h-2.1l-7.6,12.6h15.4l1-1.5
				L216.4,367.6z M153,392.6h7.3l-3.6-6L153,392.6z M152.9,380.1h-7.6l-5.2,8.5l2.5,4H153l3.6-6L152.9,380.1z M28.7,166.5h-4.4
				l2.1,3.6L28.7,166.5z M287.4,367.6h-11.7l-3,5.1l4.5,7.6h6.2l5.8-9.5L287.4,367.6z M305.2,367.6h-14l-1.8,3l5.8,9.5h4l7-11.5
				L305.2,367.6z M283.4,380.1h11.4l-5.8-9.5L283.4,380.1z M298.8,380.1h13.9l-6.9-11.5L298.8,380.1z M315.3,354.9H314l-7.6,12.6
				h15.4l0.7-1L315.3,354.9z M305.8,368.5l6.9,11.5h1.5l7.6-12.6h-15.4L305.8,368.5z M237.4,380.1h4.3l-2.1-3.4L237.4,380.1z
				 M222.1,380.1h1.8l-0.8-1.5L222.1,380.1z M321.8,367.6h1.1l-0.7-1L321.8,367.6z M251.8,367.6h-6.9l-5.5,9.1l2.1,3.4h11.1l3.3-5.5
				L251.8,367.6z M269.7,367.6h-9.2l-4.3,7.1l3.3,5.5h8.7l4.5-7.6L269.7,367.6z M252.8,380.1h6.7l-3.3-5.5L252.8,380.1z
				 M117.3,380.1h-2.6l-7.6,12.6h15.4l1.1-2.1L117.3,380.1z M-46,315.5l-6.5-10.9h-2.3l-7.6,12.6H-47L-46,315.5z M180.8,367.6h-12.5
				l-2.6,4.4l4.9,8.1h5.5l6.2-10.2L180.8,367.6z M160.7,380.1h9.9l-4.9-8.1L160.7,380.1z M175.9,380.1h12.2l-6.2-10.2L175.9,380.1z
				 M163,367.6h-10.2l-3.8,6.3l3.7,6.2h7.8l4.9-8.1L163,367.6z M198.8,367.8l0.3-0.3h-0.4L198.8,367.8z M183.6,367.6l-1.4,2.3
				l6.2,10.2h3l7.4-12.2l-0.3-0.3H183.6L183.6,367.6z M129.9,380.1h5.1l-2.5-4.3L129.9,380.1z M114.6,380.1h2.6l-1.2-2.2
				L114.6,380.1z M127.6,367.6h-5.4L116,378l1.2,2.2h12.6l2.5-4.3L127.6,367.6z M107.1,392.6L107.1,392.6l7.6-12.6H99.5L107.1,392.6
				z M109.7,367.6h-2.9l-7.6,12.4l0.1,0.3h15.1l1.2-2.2L109.7,367.6z M145.2,367.6h-7.6l-5.1,8.4l2.5,4.3h10.3l3.7-6.2L145.2,367.6z
				 M191.2,354.9l-0.1,0.3l7.4,12.4h0.4l7.6-12.6H191.2L191.2,354.9z M145.3,380.1h7.6l-3.7-6.2L145.3,380.1z M208.8,354.9h-2.3
				l-7.6,12.6h15.4l1-1.6L208.8,354.9z M297.6,354.9h-14.3l-1.6,2.9l5.8,9.8h3.7l7.1-11.7L297.6,354.9z M279.9,354.9H268l-3,4.8
				l4.7,7.7h6l5.8-9.8L279.9,354.9z M260.5,367.6h9.2l-4.7-7.7L260.5,367.6z M298.1,355.7l7,11.7h1.2l7.6-12.6h-15.4L298.1,355.7z
				 M291.1,367.6h14l-7-11.7L291.1,367.6z M275.7,367.6h11.7l-5.8-9.8L275.7,367.6z M226.5,354.9h-4.7l-6.6,10.9l1,1.6h13.3l2.2-3.7
				L226.5,354.9z M307.9,342.3h-1.6l-7.6,12.6h15.4l0.7-1.1L307.9,342.3z M214.3,367.6h2.1l-1-1.6L214.3,367.6z M244.3,354.9h-7.1
				l-5.4,8.9l2.2,3.7h10.9l3.4-5.8L244.3,354.9z M262.1,354.9h-9.5l-4.1,6.9l3.4,5.8h8.5l4.7-7.7L262.1,354.9z M245.1,367.6h6.9
				l-3.4-5.8L245.1,367.6z M229.7,367.6h4.4l-2.2-3.7L229.7,367.6z M-40,354.9h-14.4l-1.6,2.7l5.8,9.8h3.6l7.1-11.8L-40,354.9z
				 M-0.7,367.6H3l-1.8-3L-0.7,367.6z M-22.3,354.9h-1.5l-7.6,12.6h15.4l0.7-1.1L-22.3,354.9z M-39,354.9l-0.5,0.8l7.1,11.8h1.1
				l7.6-12.6H-39z M-16.1,367.6h1.2l-0.7-1.1L-16.1,367.6z M-4.5,354.9h-4l-7,11.5l0.7,1.1h14l1.8-3L-4.5,354.9z M-46.7,367.6h14.2
				l-7.1-11.8L-46.7,367.6z M99.2,380.1l-7.6,12.6h15.4l-7.6-12.6H99.2z M-46,315.5l-1.1,1.6h2.1L-46,315.5z M-46.9,342.3l7.6-12.6
				h-15.3l-0.3,0.4l7.3,12.1L-46.9,342.3L-46.9,342.3z M-54.8,330.2l-7.3,12.1h14.6L-54.8,330.2z M-47.3,343l-0.4-0.7h-14.6
				l-1.6,2.6l5.9,9.9h3.4L-47.3,343z M-57.9,354.9l1.6,2.7l1.6-2.7H-57.9z M-38.4,328.2l-6.6-11H-47l-7.6,12.6h15.4L-38.4,328.2z
				 M53.2,380.1h10.7l-5.4-8.9L53.2,380.1z M81.6,380.1H68.5l-2.3,3.8l5.4,8.7h4.8l6.5-10.7L81.6,380.1z M75.2,369.1l-1-1.6H60.9
				l-2.2,3.7l5.4,8.9h4.7L75.2,369.1z M63.9,380.1l2.3,3.8l2.3-3.8H63.9z M76.3,392.6h12.9l-6.5-10.7L76.3,392.6z M83.8,380.1
				l-1.1,1.8l6.5,10.7h2.5l7.6-12.6L83.8,380.1L83.8,380.1z M13.2,354.9H6.9l-5.8,9.5l1.8,3h11.7l3-5.1L13.2,354.9z M31.1,354.9
				h-8.8l-4.5,7.6l3,5.1H30l4.3-7.1L31.1,354.9z M14.7,367.6h6.2l-3-5.1L14.7,367.6z M30.1,367.6h8.5l-4.3-7.1L30.1,367.6z
				 M50.9,358.4l-2.1-3.4H37.7l-3.3,5.5l4.3,7.1h6.9L50.9,358.4z M38.6,367.6l3.4,5.8l3.4-5.8H38.6z M56.4,367.6H45.5l-3.4,5.8
				l4.1,6.9h7.1l5.4-8.9L56.4,367.6z M44,166.5l7.6-12.6H36.3l-0.8,1.4l6.7,11.1L44,166.5L44,166.5z M78.1,78.5l1.8,3l1.8-3
				C80.4,78.5,79.5,78.5,78.1,78.5z M104.9,65.8l0.7-1.1l-6.9-11.4H97L89.5,66L104.9,65.8L104.9,65.8z M112.3,53.3l2.1-3.3l-5.5-9.2
				c-1.8,0-2.5,0-4.3,0l-6.7,11.3l0.7,1.2H112.3z M97.9,52.1l-0.7,1.2h1.6L97.9,52.1z M81.2,54l-7.1,11.8h14.4L81.2,54z M88.9,66.8
				L88.4,66H74.1l-1.6,2.9l5.8,9.6c1.4,0,2.2,0,3.7,0L88.9,66.8z M89.5,65.8L97,53.2H81.6l-0.4,0.7l7.1,11.8h1.1V65.8z M136.8,28.3
				l-4.7-7.7l-4.7,7.7C131.7,28.3,132.6,28.3,136.8,28.3z M123.3,35.3l3.3,5.5c4,0,4.7,0,8.7,0l4.5-7.6l-3-5.1c-4.3,0-5.2,0-9.2,0
				L123.3,35.3z M-31.8,317.3l2.2-3.7l-5.4-8.8h-4.7l-6.6,10.9l1.1,1.6H-31.8L-31.8,317.3z M115.6,22.5l-3.4,5.8c2.9,0,4,0,6.9,0
				L115.6,22.5z M314,354.9h1.4l-0.7-1.1L314,354.9z M106.8,37.3l-2.1,3.4c1.6,0,2.5,0,4.3,0L106.8,37.3z M62.1,111.1l-3,5.2
				c2.2,0,4,0,6.2,0L62.1,111.1z M52,153.3l-7.1-12H44L36.4,154h15.4L52,153.3z M44.4,140.5l-0.4,0.7h1L44.4,140.5z M59.2,141.3
				l1.6-2.7l-5.8-9.8h-3.6l-7.1,11.8l0.4,0.7H59.2z M53.2,125.8l-1.8,3H55L53.2,125.8z M35.5,155.3l-6.7,11.1h13.5L35.5,155.3z
				 M32,179h4.5l6.7-11l-1-1.6H28.9l-2.1,3.6L32,179z M89.6,91.1l7-11.5l-0.7-1.1c-5.8,0-8.7,0-14,0l-1.8,3l5.8,9.5h3.7V91.1z
				 M82.1,103.6l5.6-9.3L85.8,91H74.4l-3.2,5.2l4.4,7.3L82.1,103.6L82.1,103.6z M71.2,96.2l-4.4,7.3h8.8L71.2,96.2z M80,81.5
				L74.2,91h11.4L80,81.5z M66.8,128.8l3-4.9l-4.5-7.6c-2.2,0-4,0-6.2,0l-5.8,9.6l1.8,3L66.8,128.8L66.8,128.8z M144.3,40.8
				l-4.5-7.6l-4.5,7.6C139.5,40.8,140.1,40.8,144.3,40.8z M74.4,116.2l4.4-7.1l-3.3-5.4h-8.8l-4.4,7.4l3,5.2
				C68.6,116.2,70.9,116.2,74.4,116.2z M120,40.8l3.3-5.5l-4.3-7.1c-2.9,0-4,0-6.9,0l-5.5,9.1l2.1,3.4
				C113.5,40.8,115.1,40.8,120,40.8z M331,292.1l-4.9-8l-4.8,8.1h9.8V292.1z M317.3,298.8l3.4,5.8h8.2l4.8-7.8l-2.9-4.7h-9.6
				L317.3,298.8z M324.9,311.5l4.1-6.9h-8.2L324.9,311.5z M305.7,266.9l-3.8,6.3l3.7,6.2h7.8l4.9-8.2l-2.6-4.4h-10V266.9z
				 M323.4,279.5l-4.9-8.2l-4.9,8.2H323.4z M309.6,286l3.6,6h8.1l4.8-8.1l-2.7-4.5h-9.9L309.6,286z M313.7,304.6l-5.4,8.9l2.2,3.7
				h10.9l3.4-5.8l-4.1-6.9H313.7z M331.3,351.8l5.8-9.5h-11.3L331.3,351.8z M323.7,339l2.1,3.3H337l3.2-5.4l-4.4-7.1h-6.7L323.7,339
				z M321.6,342.3l-6.9,11.4l0.7,1.1h14l1.9-3.2l-5.6-9.5h-4.1V342.3z M328.2,317.3l-3.4-5.8l-3.4,5.8H328.2z M316,326.3l2.1,3.4
				h11.1l3.3-5.5l-4.3-7.1h-6.9L316,326.3z M335.8,329.8l-3.3-5.5l-3.3,5.5H335.8z M131,48.1l3.2,5.4h8.9l4.4-7.3l-3.2-5.2
				c-4.3,0-4.8,0-8.9,0L131,48.1z M169.8,53.3l-5.6-9.3l-5.6,9.3H169.8z M155.2,58.8l4.4,7.1h6.7l5.5-9.2l-2.1-3.4h-11.3L155.2,58.8
				z M194.8,95l5.2,8.7h4.9l6.5-10.7l-1.1-1.9h-13.1L194.8,95z M162.9,71.5l4.3,7c3.4,0,3.4,0,7,0l5.4-8.9l-2.1-3.6h-11L162.9,71.5z
				 M152,53.3h6.6l5.6-9.3l-1.9-3.2c-5.6,0-5.9,0-11.4,0l-3.2,5.2L152,53.3z M150.7,40.8c-3,0-3.3,0-6.3,0l3.2,5.2L150.7,40.8z
				 M177.3,65.8l-5.5-9.2l-5.5,9.2H177.3z M181.6,65.8h-4.4l2.1,3.6L181.6,65.8z M210.2,91.1l-6.5-10.9l-6.6,10.9H210.2z
				 M187.1,82.3l5.4,8.8h4.8l6.6-10.9l-1.1-1.6c-6.6,0-6.7,0-13.2,0L187.1,82.3z M184.7,78.5c2.2,0,2.2,0,4.5,0l6.7-11l-1-1.6h-13.5
				l-2.1,3.6L184.7,78.5z M202.6,78.5l-6.6-11l-6.7,11C195.9,78.5,196,78.5,202.6,78.5z M127.6,28.3l4.7-7.7l-3-4.8h-9.3l-4.1,6.9
				l3.4,5.8C122.7,28.3,123.8,28.3,127.6,28.3z M-47.4,266.9l4-6.5l-3.7-6.2h-8l-4.8,8.1l2.6,4.4L-47.4,266.9L-47.4,266.9z
				 M-26.7,229.3h2.1l7.6-12.6h-15.3l-1,1.6L-26.7,229.3z M-60.1,262.5l-2.6,4.4h5.4L-60.1,262.5z M-55,279.5l2.5-4.3l-4.9-8.2h-5.4
				l-6.2,10.3l1.4,2.2H-55L-55,279.5z M-16.8,216.2l-7.3-12.2h-0.7l-7.6,12.6h15.4L-16.8,216.2z M-69,277.3l-1.4,2.2h2.7L-69,277.3z
				 M28.6,141.3l7.6-12.6H20.9l-0.7,1.1l6.9,11.5H28.6z M-77.8,292.1h15.3l1.2-2.1l-6.2-10.4h-2.7L-77.8,292.1L-77.8,292.1z
				 M20.1,129.9l-7,11.5h13.9L20.1,129.9z M36.7,127.8l-7-11.7c-0.3,0-1,0-1.4,0l-7.6,12.6h15.4L36.7,127.8z M16.8,154h4.1l6.9-11.3
				l-0.7-1.2H13.2l-1.9,3.3L16.8,154z M-24.3,203.6l-0.3,0.7h0.7L-24.3,203.6z M-9.5,204.1l1.6-2.6l-5.9-9.9h-3.4l-7.1,12l0.3,0.7
				h14.6V204.1z M-105.8,363.7l-2.2,3.7h4.5L-105.8,363.7z M-100.3,380.1l2.1-3.6l-5.4-8.9h-4.5l-6.7,11l1,1.6h13.6V380.1z
				 M29.1,115.1l0.7,1.1c3.8,0,9.6,0,14,0l1.9-3.2l-5.8-9.5h-4l-7.6,12.6c0.3,0,1,0,1.4,0L29.1,115.1z M-77.8,292L-77.8,292
				L-77.8,292L-77.8,292z M-107.9,392.6h1.6l-0.8-1.4L-107.9,392.6z M-92.8,367.6l3.4-5.8l-4.1-6.7h-7.1l-5.4,8.8l2.2,3.7H-92.8z
				 M-113.8,380.1h-1.9l-7.6,12.6h15.4l0.8-1.4L-113.8,380.1z M-114.8,378.6l-1,1.6h1.9L-114.8,378.6z M-111.1,354.9l5.4,8.8
				l5.4-8.8H-111.1z M-77.8,292.1L-77.8,292.1l-7.8,12.6h15.3L-77.8,292.1z M-92.9,342.3l4.8-8.1l-2.6-4.4h-9.9l-4,6.5l3.7,6.2
				L-92.9,342.3L-92.9,342.3z M90.2,39.3l-0.8,1.5c0.7,0,1.1,0,1.8,0L90.2,39.3z M-96.9,349l-4-6.7h-7.4l-5.2,8.7l2.3,4h10.6
				L-96.9,349z M-104.6,336.2l-3.7,6.2h7.3L-104.6,336.2z M164.8,15.7l-7.1-11.8l-7.1,11.8C150.5,15.7,164.8,15.7,164.8,15.7z
				 M141.2,5.8l5.9,9.9h3.4l7.1-11.8l-0.4-0.7c-6.5,0-8.4,0-14.6,0L141.2,5.8z M157.3,3l-7.1-12.1L142.8,3C148.9,3,150.8,3,157.3,3z
				 M-96.1,380.1h-4.4l-6.7,11.3l0.8,1.4h13.6l2.1-3.4L-96.1,380.1z M135-9.5h-3l1.5,2.5L135-9.5z M139.5,3c1.4,0,1.9,0,3.3,0
				l7.3-12.1l-0.3-0.5H135l-1.5,2.5L139.5,3z M148.7,18.6l5.8,9.6c1.8,0,1.9,0,3.7,0l7.1-11.7l-0.5-0.8h-14.3L148.7,18.6z
				 M116.8-4.8l4.8,8.1c2.1,0,3.4,0,5.8,0l6-10L132-9.2h-12.2L116.8-4.8z M376.2,367.6l-4.3-7l-4.3,7H376.2z M363.2,375.3l2.9,4.8
				h9.5l4.1-6.7l-3.4-5.8h-8.5L363.2,375.3z M360.3,380.1h5.8l-2.9-4.8L360.3,380.1z M37.9,100.3l-2.1,3.3h4L37.9,100.3z
				 M368.8,354.9l-4.4-7.1l-4.4,7.1H368.8z M355.5,362.5l3,4.9h9.3l4.3-7l-3.4-5.6H360L355.5,362.5z M352.3,342.3l-4.4,7.4l3,5.2
				h9.1l4.4-7.1l-3.3-5.4h-8.8V342.3z M89.2,40.8l0.8-1.5l-6.7-11.1c-0.7,0-1.2,0-2.1,0l-7.6,12.6C79,40.8,83.4,40.8,89.2,40.8z
				 M96.9,28.3l2.2-3.7l-5.4-8.9h-4.7l-6.6,10.9l1,1.6C88.1,28.3,91.8,28.3,96.9,28.3z M82.5,26.5l-1,1.6c0.7,0,1.2,0,2.1,0
				L82.5,26.5z M132-9.5l-6.2-10.2l-6.2,10.2H132z M51.4,103.6l3.2-5.4l-4.4-7.1h-6.7l-5.6,9.2l2.1,3.3H51.4z M46.9,85.6l-3.3,5.5
				h6.7L46.9,85.6z M58.8,91.1l4.5-7.6l-3-5.1c-3,0-6.5,0-9.2,0l-4.3,7.1l3.3,5.5H58.8L58.8,91.1z M112,3l4.8-8.1l-2.7-4.5h-9.9
				l-4,6.6l3.6,6C106.5,3,109.3,3,112,3z M109.3-17.7l-4.9,8.1h9.9L109.3-17.7z M119.7-9.5l6.2-10.2l-1.4-2.3H112l-2.6,4.4l4.9,8.1
				H119.7z M91.4,11.8l-2.3,3.8h4.7L91.4,11.8z M104.5,15.7l3.4-5.8l-4-6.7c-2.2,0-5.2,0-7.3,0l-5.4,8.7l2.3,3.8
				C93.6,15.7,104.5,15.7,104.5,15.7z M100.3-3l-3.6,6c2.1,0,4.9,0,7.3,0L100.3-3z M320.3,392.6h-13.6l-2.1,3.4l5.5,9.2h4.4
				l6.7-11.3L320.3,392.6z M-131.4,380.5l-7.3,12.1h14.6L-131.4,380.5z M-108.2,367.6l2.2-3.7l-5.4-8.8h-4.8l-6.6,10.9l1.1,1.6
				H-108.2L-108.2,367.6z M124.4-22h2.9l7.6-12.4l-0.1-0.3h-15.1l-1.2,2.2L124.4-22z M-123.3,392.6l7.6-12.6h-15.4l-0.3,0.4
				l7.3,12.1L-123.3,392.6L-123.3,392.6z M142.3-22l-7.4-12.4L127.3-22H142.3z M-114.8,378.6l-6.6-11h-2.1l-7.6,12.6h15.4
				L-114.8,378.6z M-122.5,365.8l-1.1,1.6h2.1L-122.5,365.8z M352.7,392.6h3.2l-1.6-2.6L352.7,392.6z M348.3,380.1h-3.4l-7.1,12
				l0.4,0.7h14.6l1.6-2.6L348.3,380.1z M127.3-22l-1.4,2.3l6.2,10.2h3 M366,380.1h-5.8l-6,9.9l1.6,2.6h12.2l2.7-4.7L366,380.1z
				 M375.7,380.1l-4.8,8l2.7,4.7h9.8l4-6.7l-3.6-5.9H375.7z M368,392.6h5.6l-2.7-4.7L368,392.6z M355.9,392.6h-3.2l-7.3,12.1
				l0.3,0.4h14.8l1.5-2.5L355.9,392.6z M360.4,405.2h3l-1.5-2.5L360.4,405.2z M373.6,392.6H368l-6.2,10l1.5,2.5h12.4l2.6-4.4
				L373.6,392.6z M345,405.2h0.5l-0.3-0.4L345,405.2z M337.3,392.6h0.7l-0.4-0.7L337.3,392.6z M395.1,398.6l-3.7-6.2h-8.1l-4.8,8.1
				l2.6,4.4h9.9L395.1,398.6z M375.8,405.2h5.4l-2.6-4.4L375.8,405.2z M-100.2,405.2h1.5l-0.7-1.1L-100.2,405.2z M338,392.6h-0.7
				l-7.6,12.6h15.4l0.3-0.4L338,392.6z M-107.9,392.6h-15.4l-0.4,0.7l7.1,12h1L-107.9,392.6z M-131,405.2h14.4l-7.1-12L-131,405.2z
				 M-106.3,392.6h-1.6l-7.6,12.6h15.4l0.7-1.1L-106.3,392.6z M-124,392.6h-14.6l-1.6,2.6l5.9,9.9h3.4l7.1-12L-124,392.6z
				 M-82.9,401.9l-5.6-9.3h-4.1l-6.9,11.3l0.8,1.2h13.9L-82.9,401.9z M358.5,367.6h-6l-5.9,9.8l1.6,2.7h12l2.9-4.8L358.5,367.6z
				 M7.3,405.2H8l-0.3-0.5L7.3,405.2z M0.4,392.6h-0.8L-8,405.2H7.4l0.3-0.5L0.4,392.6z M-15.8,392.6l-0.8,1.2l6.7,11.3h1.8
				l7.6-12.6L-15.8,392.6L-15.8,392.6z M24.2,402.7l-6-10h-3.3l-7.3,12.1l0.3,0.5h14.7L24.2,402.7z M-23.4,405.2h13.6l-6.7-11.3
				L-23.4,405.2z M214.4,392.6l-0.4,0.7l7.1,11.8h1.1l7.6-12.6h-15.4V392.6z M-70.8,392.6h-6.5l-5.6,9.3l1.9,3.2h11.4l3.2-5.2
				L-70.8,392.6z M-88.5,392.6l5.6,9.3l5.6-9.3H-88.5L-88.5,392.6z M231.3,392.6h-1.5l-7.6,12.6h15.4l0.7-1.1L231.3,392.6z
				 M330.6,380.1h-1l-7.6,12.6h15.4l0.4-0.7L330.6,380.1z M-17.5,392.6h-13.7l-2.1,3.3l5.5,9.2h4.3l6.7-11.3L-17.5,392.6z
				 M-69.6,405.2h6.2l-3.2-5.2L-69.6,405.2z M-49.8,397.9l-3.2-5.4h-8.9l-4.4,7.3l3.2,5.2h8.9L-49.8,397.9z M-74,387.2l-4.4-7.1
				h-6.6l-5.5,9.2l2.1,3.4h11.3L-74,387.2z M299,405.2h11l-5.5-9.2L299,405.2z M-92.6,392.6h4.1l-2.1-3.4L-92.6,392.6z M302.5,392.6
				h-11.3l-3.3,5.4l4.4,7.1h6.7l5.5-9.2L302.5,392.6z M237.7,405.2h1.4l-0.7-1.1L237.7,405.2z M321.1,394l6.7,11.3h1.9l7.6-12.6
				h-15.4L321.1,394z M283.7,405.2h8.7l-4.4-7.1L283.7,405.2z M314.4,405.2h13.5l-6.7-11.3L314.4,405.2z M249.2,392.6h-4l-6.9,11.4
				l0.7,1.1h14l1.9-3.2L249.2,392.6z M284.8,392.6h-8.9l-4.4,7.4l3,5.2h9.1l4.4-7.1L284.8,392.6z M253.1,405.2h3.8l-1.9-3.2
				L253.1,405.2z M268.3,405.2h6.2l-3-5.2L268.3,405.2z M266.9,392.6h-6.5l-5.8,9.5l1.9,3.2h11.5l3-5.2L266.9,392.6z M-80.5,317.3
				h2.7l7.6-12.5l-0.1-0.1h-15.3l-1.2,2.1L-80.5,317.3z M-47.1,254.4l3.7,6.2l3.7-6.2H-47.1z M-34.5,245.8l-2.3-4h-10.6l-3.6,5.9
				l4,6.7h7.4L-34.5,245.8z M-32,266.9l5.1-8.5l-2.5-4.1h-10.4l-3.7,6.2l4,6.5H-32z M-42.2,233l-5.4,8.8h10.7L-42.2,233z
				 M-39.6,279.5l3.8-6.2l-3.8-6.2h-7.7l-4.9,8.2l2.5,4.3h10.2V279.5z M-43.4,260.5l-4,6.5h7.8L-43.4,260.5z M-9.1,229l-7.4-12.2
				H-17l-7.6,12.6h15.3L-9.1,229z M-16.8,216.2l-0.3,0.4h0.5L-16.8,216.2z M-52.4,275.3l-2.5,4.3h5.2L-52.4,275.3z M-1.6,216.6
				l1.5-2.5l-6-10.2h-3.2l-7.3,12.2l0.3,0.4H-1.6z M-24.6,229.3h-2.1l1.1,1.8L-24.6,229.3z M-7.8,201.5l-1.6,2.6h3.2L-7.8,201.5z
				 M-32.2,241.8l6.6-10.9l-1.1-1.8h-13.2l-2.2,3.8l5.4,8.8H-32.2L-32.2,241.8z M-19.2,241.8h2.3l7.6-12.6h-15.3l-1.1,1.8
				L-19.2,241.8z M-79.2,319.6l-1.4-2.3h-12.6l-2.5,4.3l4.9,8.2h5.4L-79.2,319.6z M-77.8,317.3h-2.7l1.4,2.3L-77.8,317.3z
				 M-72.9,329.8h3l7.4-12.2l-0.3-0.3h-15.1l-1.4,2.3L-72.9,329.8z M-47.1,292.1l2.5-4.1l-5.1-8.5H-55l-6.3,10.4l1.2,2.1h12.9V292.1
				z M-88,334.3l-4.8,8.1h9.8L-88,334.3z M-77.5,342.3l6.2-10l-1.5-2.5h-12.4l-2.6,4.4l4.8,8.1L-77.5,342.3L-77.5,342.3z
				 M-90.7,329.8l2.6,4.4l2.6-4.4H-90.7z M-54.8,304.6l1.1-1.9l-6.3-10.7h-2.5l-7.6,12.6L-54.8,304.6L-54.8,304.6z M-61.3,290
				l-1.2,2.1h2.5L-61.3,290z M-70.2,304.6L-70.2,304.6L-70.2,304.6L-70.2,304.6z M-70.2,304.7l-7.6,12.5h15L-70.2,304.7z
				 M-62.4,317.3l7.6-12.6h-15.3l-0.1,0.1l7.6,12.5H-62.4z M60.3,78.5l3,5.1l3-5.1C64.3,78.5,62.4,78.5,60.3,78.5z M63.4,83.6
				l-4.5,7.6h8.9L63.4,83.6z M-80.4,346.9l-2.7-4.7h-9.8l-4,6.7l3.6,5.9h8.2L-80.4,346.9z M74.2,91.1l5.8-9.5l-1.8-3
				c-4.4,0-7.6,0-11.7,0l-3,5.1l4.5,7.6L74.2,91.1L74.2,91.1z M5.9,204.1l2.7-4.7l-4.8-8h-5.8l-6,9.9l1.6,2.6H5.9V204.1z
				 M59.1,116.2l3-5.2l-4.4-7.4h-6.3l-5.8,9.5l1.9,3.2C51.3,116.2,55,116.2,59.1,116.2z M54.6,98.3l-3.2,5.4h6.5L54.6,98.3z
				 M66.7,103.6l4.4-7.3l-3.2-5.2H59l-4.4,7.1l3.2,5.4L66.7,103.6L66.7,103.6z M72.3,68.9L70.7,66H58.8l-3,4.8l4.7,7.6
				c2.1,0,4,0,6.2,0L72.3,68.9z M97,53.3l0.7-1.2L91,40.8c-0.7,0-1.1,0-1.8,0l-7.6,12.6L97,53.3L97,53.3z M73.5,41.4l-7.3,12.1h14.6
				L73.5,41.4z M81.6,53.3l7.6-12.6c-5.8,0-10.2,0-15.4,0l-0.3,0.5l7.1,12.1C80.7,53.3,81.6,53.3,81.6,53.3z M64.7,56.1L58.8,66
				h11.8L64.7,56.1z M74.1,65.8L81.2,54l-0.4-0.7H66.3l-1.6,2.7l5.9,9.9L74.1,65.8L74.1,65.8z M45.6,113l-1.9,3.2c1.1,0,2.5,0,3.8,0
				L45.6,113z M5.8,179l4.3-7l-3.4-5.6h-8.5l-4.5,7.6l3,4.9L5.8,179L5.8,179z M2.3,159.3l-4.4,7.1h8.5L2.3,159.3z M13.3,166.5
				l5.5-9.1l-2.1-3.4H5.5l-3.3,5.4l4.4,7.1L13.3,166.5L13.3,166.5z M-6.6,174l-3,4.9h6L-6.6,174z M1.1,186.8l-4.7-7.7h-6l-5.9,9.8
				l1.6,2.7h12L1.1,186.8z M-13.7,191.6l5.9,9.9l6-9.9H-13.7z M24.5,166.5h4.4l6.7-11.1l-0.8-1.4H21.2l-2.1,3.4L24.5,166.5z
				 M36.3,154l7.6-12.6H28.6l-0.8,1.2l6.7,11.3L36.3,154L36.3,154z M44.4,140.5l-7.1-11.8h-1.1l-7.6,12.6H44L44.4,140.5z
				 M36.7,127.8l-0.5,1h1.2L36.7,127.8z M20.9,154h-4.1l2.1,3.4L20.9,154z M51.4,128.8l1.8-3l-5.8-9.6c-1.1,0-2.6,0-3.8,0l-7,11.7
				l0.5,1H51.4z M27.8,142.5l-6.9,11.3h13.7L27.8,142.5z M214,393.3l0.4-0.7h-0.8L214,393.3z M344.9,380.1h3.4l-1.6-2.7L344.9,380.1
				z M142.5,392.6h-4.8l-6.5,10.7l1.1,1.8h13.2l2.3-3.8L142.5,392.6z M206.7,380.1l-0.3,0.5l7.1,12.1h0.8l7.6-12.6L206.7,380.1
				L206.7,380.1z M191.6,405.2h11.8l-5.9-9.9L191.6,405.2z M229.8,392.6h1.6l-0.7-1.2L229.8,392.6z M223.9,380.1h-1.8l-7.6,12.6
				h15.3l0.8-1.2L223.9,380.1z M160.8,405.2h7.1l-3.4-5.8L160.8,405.2z M160.3,392.6H153l-5.4,8.7l2.3,3.8h10.7l3.4-5.8L160.3,392.6
				z M195.9,392.6h-12.2l-2.9,4.7l4.8,7.8h5.9l5.9-9.9L195.9,392.6z M145.6,405.2h4.7l-2.3-3.8L145.6,405.2z M241.6,380.1h-4.3
				l-6.7,11.3l0.7,1.2h13.7l2.1-3.3L241.6,380.1z M178.1,392.6h-9.6l-4,6.7l3.4,5.8h8.2l4.8-7.8L178.1,392.6z M176.2,405.2h9.5
				l-4.8-7.8L176.2,405.2z M199,392.6l-1.6,2.6l5.9,9.9h3.4l7.1-11.8l-0.4-0.7H199L199,392.6z M312.7,380.1h-13.9l-1.9,3.2l5.6,9.3
				h4.1l6.9-11.3L312.7,380.1z M313.5,381.3l6.7,11.3h1.6l7.6-12.6h-15.4L313.5,381.3z M306.5,392.6h13.6l-6.7-11.3L306.5,392.6z
				 M323,367.6h-1.1l-7.6,12.6h15.4l0.5-0.8L323,367.6z M340.8,367.6H337l-7.1,11.8l0.5,0.8h14.4l1.6-2.7L340.8,367.6z M329.6,380.1
				h1l-0.5-0.8L329.6,380.1z M260.5,392.6h6.5l-3.2-5.4L260.5,392.6z M277.1,380.1h-8.9l-4.4,7.1l3.2,5.4h8.9l4.4-7.3L277.1,380.1z
				 M245.2,392.6h4l-2.1-3.3L245.2,392.6z M291.3,392.6h11.3l-5.6-9.3L291.3,392.6z M259.5,380.1h-6.7l-5.6,9.2l2.1,3.3h11.3
				l3.2-5.4L259.5,380.1z M275.9,392.6h8.9l-4.4-7.3L275.9,392.6z M295,380.1h-11.5l-3.2,5.2l4.4,7.3h6.5l5.6-9.3L295,380.1z
				 M-85.8,367.6h-6.9l-5.4,8.9l2.1,3.6h11l3.4-5.6L-85.8,367.6z M-52.9,392.6l3.2,5.4l3.2-5.4H-52.9L-52.9,392.6z M-40.8,383.2
				l-1.9-3.2h-11.5l-3,5.2l4.4,7.4h6.5L-40.8,383.2z M-60.5,380.1h-9.1l-4.4,7.1l3.3,5.4h8.9l4.4-7.4L-60.5,380.1z M-61.9,392.6h8.9
				l-4.4-7.4L-61.9,392.6z M-46.5,392.6l-3.2,5.4l4.4,7.1h6.7l5.6-9.2l-2.1-3.3H-46.5z M-33.1,395.9l2.1-3.3h-4L-33.1,395.9z
				 M-78.4,380.1l4.4,7.1l4.4-7.1H-78.4z M-89.3,361.6l-3.4,5.8h6.9L-89.3,361.6z M-24.9,380.1h-14l-1.9,3.2l5.6,9.5h4l6.9-11.4
				L-24.9,380.1z M-93.3,354.9l4.1,6.7l4.1-6.7H-93.3z M-77.4,367.6l4.7-7.7l-2.9-4.8h-9.6l-4.1,6.7l3.4,5.8H-77.4z M-65,372.5
				l-3-4.9h-9.3l-4.3,7l3.4,5.6h8.7L-65,372.5z M-84.9,380.1h6.7l-3.4-5.6L-84.9,380.1z M35.9,392.6h-5.8l-6,10l1.5,2.5h12.2
				l2.7-4.5L35.9,392.6z M130.2,405.2h2.2l-1.1-1.8L130.2,405.2z M-31.2,392.6h13.7l-6.9-11.4L-31.2,392.6z M37.9,405.2h5.5
				l-2.7-4.5L37.9,405.2z M18.1,392.6l6,10l6-10H18.1L18.1,392.6z M57.3,398.6l-3.6-6h-8.1l-4.8,8.1l2.7,4.5h9.9L57.3,398.6z
				 M124.7,392.6h-2.5l-7.6,12.6H130l1.1-1.8L124.7,392.6z M33.1,387.9l-4.8-7.8h-5.9l-5.9,9.9l1.6,2.6h12.1L33.1,387.9z
				 M-7.3,380.1h-1.1l-7.6,12.6h15.4l0.4-0.7L-7.3,380.1z M-23.5,380.1l-0.7,1.1l6.9,11.4h1.6l7.6-12.6h-15.4V380.1z M-0.4,392.6
				h0.8L0,391.9L-0.4,392.6z M10.6,380.1H7.1L0,391.9l0.4,0.7H15l1.6-2.6L10.6,380.1z M14.8,392.6h3.3l-1.6-2.6L14.8,392.6z
				 M-8.2,380.1h1.1l-0.5-0.8L-8.2,380.1z M120.5,116.2l7.6-12.6h-15.4l-0.8,1.4l6.7,11.1C119.5,116.2,119.7,116.2,120.5,116.2z
				 M128.4,103.1l-7.1-12h-1l-7.6,12.6h15.4L128.4,103.1z M111.9,105l-6.7,11.1c5.9,0,7.1,0,13.5,0L111.9,105z M103.1,119.7
				l-5.4,8.9h10.9L103.1,119.7z M120.8,90.3l-0.4,0.7h1L120.8,90.3z M112.9,128.8l6.7-11l-1-1.6c-6.2,0-7.6,0-13.5,0l-2.1,3.6
				l5.4,8.9h4.4V128.8z M136.1,115.7l0.3,0.4c7.1,0,7.6,0,14.8,0l1.5-2.5l-6-10.2h-3.2L136.1,115.7z M146.5,103.6l-1.6-2.6l-1.6,2.6
				H146.5z M105.3,141.3l5.4-8.8l-2.2-3.7H97.6l-3.4,5.8l4.1,6.7H105.3z M158.9,103.6h-12.2l6,10.2L158.9,103.6z M128.4,103.1
				l0.3,0.7h14.7l1.6-2.6l-5.9-9.9h-3.4L128.4,103.1z M135.7,91.1l1.6-2.7l-5.8-9.8c-1.6,0-1.9,0-3.6,0l-7.1,11.8l0.4,0.7H135.7z
				 M139.1,91.1l-1.6-2.7l-1.6,2.7H139.1z M67.4,204.1l7.6-12.6H59.5l-1.1,1.9l6.3,10.6L67.4,204.1L67.4,204.1z M59.7,216.6
				l6.3-10.4l-1.2-2.1H52l-2.5,4.1l5.1,8.5h5.1V216.6z M94,134.6l-4.1,6.7H98L94,134.6z M154.2,116.2c6.2,0,6.2,0,12.4,0l2.6-4.4
				l-4.8-8.1h-5.6l-6.2,10.2L154.2,116.2z M58.4,193.5L52,204.1h12.8L58.4,193.5z M52.2,229.3l4.9-8.2l-2.5-4.3H44.5l-3.8,6.2
				l3.8,6.2h7.7V229.3z M49.5,208.2l-5.1,8.5h10.2L49.5,208.2z M74.9,191.5L67.4,179h-0.3l-7.6,12.6L74.9,191.5L74.9,191.5z
				 M85.1,149.3l-2.7,4.7H88L85.1,149.3z M90.2,166.5l2.6-4.4L88,154h-5.6l-6.2,10.2l1.5,2.5L90.2,166.5L90.2,166.5z M97.7,154
				l4-6.7l-3.6-5.9H90l-4.8,8L88,154H97.7z M76.3,164l-1.5,2.5h3L76.3,164z M82.6,179l1.4-2.2l-6.2-10.3h-3l-7.4,12.2l0.1,0.3
				L82.6,179L82.6,179z M67.4,178.8l-0.1,0.3h0.3L67.4,178.8z M254.7,224.3l3,4.8h9.5l4.1-6.9l-3.4-5.6h-8.5L254.7,224.3z
				 M260.3,204.1l-4.4-7.1l-4.4,7.1H260.3z M267.9,216.6l-4.3-7.1l-4.3,7.1H267.9z M247,211.7l3,5.1h9.2l4.3-7.1l-3.3-5.5h-8.8
				L247,211.7z M239.5,198.9l3.2,5.2h8.9l4.4-7.1l-3.2-5.4h-8.9L239.5,198.9z M252.8,191.6l-4.4-7.4l-4.4,7.4H252.8z M231.8,186.3
				l3.3,5.4h8.8l4.4-7.4l-3-5.2h-9.1L231.8,186.3z M262.4,237.1l4.8-7.8h-9.5L262.4,237.1z M253.5,251.8l1.5,2.5h12.2l2.7-4.5
				l-4.8-8.1h-5.8L253.5,251.8z M272.9,254.4l-2.7-4.5l-2.7,4.5H272.9z M265.2,241.8l-2.9-4.8l-2.9,4.8H265.2z M40.7,223l-3.8,6.2
				h7.6L40.7,223z M245.2,179l-4.5-7.6l-4.5,7.6H245.2z M251.7,229.3l-5.9,9.9l1.6,2.7h12.1l2.9-4.8l-4.8-7.8H251.7z M204.8,141.3
				l-3.7-6.2l-3.7,6.2H204.8z M171.8,116.2l-2.6-4.4l-2.6,4.4C169.2,116.2,169.2,116.2,171.8,116.2z M187.1,141.3h10.4l3.7-6.2
				l-4-6.5h-7.6l-5.1,8.5L187.1,141.3z M168,139.1l1.2,2.1H182l2.5-4.1l-5.1-8.5h-5.2L168,139.1z M189.7,128.8h-10.2l5.1,8.5
				L189.7,128.8z M160.3,126.5l1.4,2.2h12.6l2.5-4.3l-4.9-8.2c-2.6,0-2.6,0-5.4,0L160.3,126.5z M179.5,128.8l-2.5-4.3l-2.5,4.3
				H179.5z M207.6,175.4l2.1,3.6h11l3.4-5.6l-4.3-7h-7L207.6,175.4z M261.2,264.6l1.4,2.3h12.5l2.6-4.4l-4.8-8.1h-5.5L261.2,264.6z
				 M228.3,166.5h-8.4l4.3,7L228.3,166.5z M192.2,150l2.3,4h10.6l3.6-5.9l-4-6.7h-7.4L192.2,150z M219.9,166.5l-3.4-5.8l-3.4,5.8
				H219.9z M199.9,162.7l2.2,3.7h10.9l3.4-5.8l-4-6.7h-7.3L199.9,162.7z M212.4,154l-3.6-5.9l-3.6,5.9H212.4z M129.8,354.9h7.8
				l-4-6.6L129.8,354.9z M130.2,342.3h-8.1l-4.8,8.1l2.7,4.5h9.9l4-6.6L130.2,342.3z M114.5,354.9h5.5l-2.7-4.5L114.5,354.9z
				 M145.2,354.9h10.3l-5.2-8.5L145.2,354.9z M147.9,342.3h-10.4l-3.6,6l4,6.6h7.4l5.2-8.5L147.9,342.3z M112.3,342.3h-5.8l-6,10
				l1.5,2.5h12.2l2.7-4.5L112.3,342.3z M99.1,354.9h3l-1.5-2.5L99.1,354.9z M165.6,342.3h-12.9l-2.5,4l5.2,8.5h5.1l6.3-10.6
				L165.6,342.3z M84.1,354.4l-0.3,0.5h0.7L84.1,354.4z M76.7,342.3h-0.8l-7.6,12.6h15.4l0.3-0.5L76.7,342.3z M83.7,354.9l-7.6,12.6
				h15.4l0.3-0.3l-7.3-12.2L83.7,354.9L83.7,354.9z M91.7,367.1l7.4-12.2H84.4L91.7,367.1z M94.6,342.3h-3.3L84,354.4l0.3,0.5H99
				l1.5-2.5L94.6,342.3z M229.6,342.3h7.3l-3.6-6L229.6,342.3z M60.6,342.3l-0.7,1.2l6.7,11.3h1.8l7.6-12.6L60.6,342.3L60.6,342.3z
				 M229.1,329.8h-7.6l-5.2,8.5l2.5,4h10.4l3.6-6L229.1,329.8z M247,329.8h-9.9l-4,6.6l3.6,6h8.1l4.8-8.1L247,329.8z M44.5,241.8
				l3.7-6.2l-4-6.5h-7.6l-5.1,8.5l2.5,4.1H44.5z M244.8,342.3h9.6l-4.8-8.1L244.8,342.3z M264.7,329.8h-12.2l-2.7,4.5l4.8,8.1h5.8
				l6-10L264.7,329.8z M160.5,354.9h12.6l-6.3-10.6L160.5,354.9z M211.5,329.8h-5.1l-6.3,10.6l1.1,2.1h12.9l2.5-4L211.5,329.8z
				 M175.9,354.9h15.1l-7.6-12.6l0,0L175.9,354.9z M168.1,342.3l-1.1,2.1l6.3,10.6h2.6l7.6-12.6H168.1z M183.4,342.3L183.4,342.3
				L183.4,342.3L183.4,342.3z M198.8,342.3h2.5l-1.1-2.1L198.8,342.3z M193.7,329.8h-2.6l-7.6,12.6l0,0h15.4l1.1-2.1L193.7,329.8z
				 M214.2,342.3h4.8l-2.5-4L214.2,342.3z M6.6,304.6l6-9.9l-1.6-2.6H-1.1l-2.7,4.7l4.8,8h5.6V304.6z M4.9,281.9l-6.2,10.2H11
				L4.9,281.9z M-4,296.8l-4.8,8h9.5L-4,296.8z M-1,317.3l4.7-7.7l-2.9-4.8h-9.5l-4.1,6.7l3.4,5.8H-1z M-12.8,311.5l-3.4,5.8h6.9
				L-12.8,311.5z M14.2,292.1l7.3-12.1l-0.3-0.4H6.3l-1.5,2.5l6,10.2L14.2,292.1L14.2,292.1z M-8.7,329.8l3.4-5.6l-4.3-7h-6.9
				l-5.4,8.9l2.1,3.6h11V329.8z M13.9,267.2l-7.4,12.2h14.8L13.9,267.2z M37,254.4l2.3-4l-5.2-8.7h-4.9l-6.5,10.7l1.1,1.9H37
				L37,254.4z M31.6,237.8l-2.5,4.1h4.9L31.6,237.8z M22.7,252.5l-1.1,1.9h2.3L22.7,252.5z M21.9,279.5l7.6-12.6H14l-0.3,0.3
				l7.4,12.2h0.7V279.5z M30.5,265.2l-6.5-10.9h-2.3l-7.6,12.6h15.4L30.5,265.2z M-1.8,329.8h-6.7L-14,339l2.1,3.4h11.3l3.3-5.4
				L-1.8,329.8z M30,342.3h11.3l-5.6-9.5L30,342.3z M51.4,329.8H37.5l-1.9,3.2l5.6,9.5h4l6.9-11.4L51.4,329.8z M33.7,329.8H22.1
				l-3,5.2l4.4,7.4H30l5.8-9.5L33.7,329.8z M14.6,342.3h8.9l-4.4-7.4L14.6,342.3z M45.4,342.3h13.7l-6.9-11.4L45.4,342.3z
				 M68.2,329.8H52.8l-0.7,1.1l6.9,11.4h1.6L68.2,329.8z M15.9,329.8H6.9l-4.4,7.1l3.3,5.4h8.8l4.4-7.4L15.9,329.8z M260.2,342.3
				h12.1l-6-10L260.2,342.3z M-21.7,326.2l-2.1,3.6h4.4L-21.7,326.2z M-16.1,342.3h4.1l-2.1-3.4L-16.1,342.3z M-0.8,342.3h6.5
				l-3.3-5.4L-0.8,342.3z M59.1,342.3l0.7,1.2l0.7-1.2H59.1z M-19.7,329.8h-4.4l-6.7,11.3l0.8,1.4h13.7l2.1-3.4L-19.7,329.8z
				 M119.6,117.8l-6.7,11H126L119.6,117.8z M52.2,254.4l3.6-5.9l-4-6.7h-7.3l-5.2,8.7l2.3,4H52.2L52.2,254.4z M136.1,115.7
				l-7.3-12.2h-0.7l-7.6,12.6c7.1,0,8,0,15.4,0L136.1,115.7z M128.2,128.8l7.6-12.6c-7.4,0-8.2,0-15.4,0l-1,1.6l6.6,11H128.2z
				 M113.1,154l5.2-8.7l-2.3-4h-10.6l-3.6,5.9l4,6.7H113.1L113.1,154z M110.7,132.5l-5.4,8.8h10.6L110.7,132.5z M143.9,128.8h15
				l1.4-2.2l-6.2-10.3c-1.5,0-1.5,0-3,0l-7.4,12.2L143.9,128.8z M101.7,147.2l-4,6.7h8L101.7,147.2z M161.6,128.8l-1.4-2.2l-1.4,2.2
				H161.6z M151.5,141.2L151.5,141.2l15.3,0.1l1.2-2.1l-6.2-10.4H159L151.5,141.2z M151.2,116.2c-7.3,0-7.7,0-14.8,0l7.4,12.2
				L151.2,116.2z M128.2,128.8h15.4l0.1-0.3l-7.4-12.2c-0.3,0-0.3,0-0.5,0L128.2,128.8z M136.4,116.2l-0.3-0.4l-0.3,0.4
				C136.1,116.2,136.1,116.2,136.4,116.2z M59.9,241.8l4.8-8.1l-2.6-4.5h-9.9l-4,6.5l3.7,6.2H59.9L59.9,241.8z M105.4,166.5l4-6.5
				l-3.7-6.2h-8l-4.8,8.1l2.6,4.4L105.4,166.5L105.4,166.5z M66.1,206.2l-6.3,10.4h12.6L66.1,206.2z M57.2,220.9l-4.9,8.2h9.9
				L57.2,220.9z M169.2,141.3l-1.2-2.1l-1.2,2.1H169.2z M48.2,235.7l-3.7,6.2h7.3L48.2,235.7z M268.7,277.4l6.2-10.4h-12.5
				L268.7,277.4z M67.5,229.3l6.2-10.3l-1.4-2.2H59.7l-2.5,4.3l4.9,8.2H67.5L67.5,229.3z M75.1,191.6L75.1,191.6l-7.7,12.6h15.3
				L75.1,191.6z M92.9,162.1l-2.6,4.4h5.4L92.9,162.1z M83.8,176.8l-1.4,2.2h2.7L83.8,176.8z M97.9,179l2.5-4.3l-4.9-8.2H90
				l-6.2,10.3l1.4,2.2H97.9L97.9,179z M90.3,191.6l1.2-2.1l-6.2-10.4h-2.7l-7.6,12.5v0.1h15.3V191.6z M74.9,191.5L74.9,191.5
				L74.9,191.5L74.9,191.5z M120.7,141.3l6.6-10.9l-1.1-1.6H113l-2.2,3.7l5.4,8.8H120.7L120.7,141.3z M236.4,229.3l-7.1,11.8
				l0.4,0.7h14.6l1.6-2.7l-5.9-9.9L236.4,229.3L236.4,229.3z M247.6,241.8l-1.6-2.7l-1.6,2.7H247.6z M230.5,213.6l1.8,3H244l3-5.1
				l-4.5-7.6h-6.3L230.5,213.6z M250.2,216.6l-3-5.1l-3,5.1H250.2z M159.2,154h15.4l1.1-1.9l-6.3-10.6h-2.5L159.2,154z M238.2,226.4
				l1.6,2.9h11.8l3-4.8l-4.7-7.6h-6.2L238.2,226.4z M245.8,239.2l5.9-9.9h-11.8L245.8,239.2z M-37.1,300.8l-2.3,4h4.8L-37.1,300.8z
				 M244.5,292.1h15.4l0,0l-7.6-12.6h-0.3L244.5,292.1z M255,254.4l-1.5-2.5l-1.5,2.5H255z M244.3,266.9l-7.6,12.6h15.4l0.1-0.3
				l-7.4-12.4H244.3L244.3,266.9z M244.5,266.5l0.3,0.3h15l1.4-2.3l-6.2-10.2h-3.2L244.5,266.5z M252.2,279.5l7.6-12.4h-15
				L252.2,279.5z M236.8,253.9l0.3,0.5h14.7l1.5-2.5l-6-10H244L236.8,253.9z M194.5,154l-2.3-4l-2.3,4H194.5z M190.9,177.5l1,1.6
				h13.5l2.1-3.6l-5.4-8.9h-4.5L190.9,177.5z M202.2,166.5l-2.2-3.7l-2.2,3.7H202.2z M183.4,164.7l1.1,1.8h13.2l2.2-3.7l-5.4-8.8
				h-4.8L183.4,164.7z M176.9,154H190l2.3-4l-5.2-8.7h-4.9l-6.5,10.6L176.9,154z M182,141.3h-12.8l6.3,10.6L182,141.3z M220.8,179
				h-11l5.5,9.1L220.8,179z M235.1,191.6l-3.3-5.4l-3.3,5.4H235.1z M222.8,201l1.9,3.3h11.4l3.2-5.2l-4.4-7.3h-6.6L222.8,201z
				 M217.2,191.6h11.3l3.3-5.4l-4.4-7.1h-6.7l-5.5,9.1L217.2,191.6z M242.5,204.1l-3.2-5.2l-3.2,5.2H242.5z M198.6,190.2l0.8,1.4
				h13.6l2.1-3.4l-5.5-9.1h-4.4L198.6,190.2z M209.6,179l-2.1-3.6l-2.1,3.6H209.6z M75.1,216.6l7.6-12.5l-0.1-0.1H67.2L66,206
				l6.2,10.4h2.9V216.6z M206.5,329.8h5.1l-2.5-4.3L206.5,329.8z M39.3,250.4l-2.3,4h4.8L39.3,250.4z M191.1,329.8h2.6l-1.2-2.2
				L191.1,329.8z M221.7,317.3H214l-5.1,8.4l2.5,4.3h10.3l3.7-6.2L221.7,317.3z M221.7,329.8h7.6l-3.7-6.2L221.7,329.8z
				 M186.1,317.3h-2.9l-7.6,12.4l0.1,0.3h15.1l1.2-2.2L186.1,317.3z M152.7,342.3h12.9l-6.5-10.7L152.7,342.3z M239.5,317.3h-10
				l-3.8,6.3l3.7,6.2h7.8l4.9-8.2L239.5,317.3z M158.1,329.8h-13.2l-2.3,3.8l5.4,8.7h4.8l6.5-10.7L158.1,329.8z M140.3,329.8h-10.7
				l-3.4,5.8l4,6.7h7.3l5.4-8.7L140.3,329.8z M183.4,342.3l7.6-12.6h-15.1L183.4,342.3z M160.3,329.8l-1.1,1.8l6.5,10.7h2.5
				l7.6-12.6L160.3,329.8L160.3,329.8z M175.7,329.8l-7.6,12.6h15.4l0,0l-7.6-12.6H175.7z M137.3,342.3h10.4l-5.4-8.7L137.3,342.3z
				 M267.5,304.9l7.4,12.4h0.4l7.6-12.6h-15.4L267.5,304.9z M277.7,292.1l-1.1-2.1l-1.2,2.1H277.7z M267.6,304.6H283l1.1-1.8
				l-6.5-10.7h-2.5L267.6,304.6z M259.9,292.1L259.9,292.1h15.3l1.2-2.1l-6.3-10.6h-2.6L259.9,292.1z M259.7,266.9l-7.6,12.4
				l0.1,0.3h15.1l1.2-2.2l-6.2-10.4L259.7,266.9L259.7,266.9z M270.1,279.5l-1.2-2.2l-1.2,2.2H270.1z M257.2,317.3h-12.5l-2.6,4.4
				l4.9,8.2h5.5l6.2-10.2L257.2,317.3z M275.2,317.5l0.3-0.3h-0.4L275.2,317.5z M275.1,317.3h-15l-1.4,2.3l6.2,10.2h3l7.4-12.2
				L275.1,317.3z M237.1,329.8h9.9l-4.9-8.2L237.1,329.8z M252.5,329.8h12.2l-6.2-10.2L252.5,329.8z M267.8,329.8h14.7l-7.3-12.2
				L267.8,329.8z M282.6,329.8h0.7l7.6-12.6h-15.4l-0.3,0.3L282.6,329.8z M203.8,317.3h-5.4l-6.2,10.4l1.2,2.2h12.6l2.5-4.3
				L203.8,317.3z M3.7,309.4l-4.7,7.7h9.3L3.7,309.4z M8.4,317.3H-1l-4.3,7l3.4,5.6h8.5l4.5-7.6L8.4,317.3z M14.4,317.3l5.9-9.8
				l-1.6-2.7h-12l-2.9,4.8l4.7,7.7H14.4L14.4,317.3z M12.6,294.7l-6,9.9h12L12.6,294.7z M26.1,317.3H14.3l-3,4.9l4.5,7.6h6.5
				l5.8-9.6L26.1,317.3z M6.7,329.8h9.1l-4.5-7.6L6.7,329.8z M22.1,329.8h11.5l-5.8-9.6L22.1,329.8z M38.1,277.9l-6.6-11h-2.1
				l-7.6,12.6h15.4L38.1,277.9z M30.5,265.2l-1.1,1.6h2.1L30.5,265.2z M44.8,266.9l2.2-3.7l-5.4-8.8h-4.8l-6.6,10.9l1.1,1.6H44.8
				L44.8,266.9z M22,304.6l7.1-12l-0.3-0.7H14.3l-1.6,2.6l5.9,9.9H22V304.6z M121.9,342.3h8.1l-4-6.7L121.9,342.3z M29.6,292.1
				l7.6-12.6H21.9l-0.3,0.4l7.3,12.1L29.6,292.1L29.6,292.1z M21.6,279.9L14.3,292h14.6L21.6,279.9z M44,317.3H29.7l-1.8,3l5.8,9.6
				h3.8l7-11.7L44,317.3z M75.9,342.3h0.8l-0.4-0.7L75.9,342.3z M87,329.8h-3.4l-7.1,11.8l0.4,0.7h14.6l1.6-2.7L87,329.8z
				 M104.9,329.8H99l-5.9,9.9l1.6,2.7h12.1l2.9-4.7L104.9,329.8z M106.7,342.3h5.8l-2.9-4.7L106.7,342.3z M122.6,329.8h-8.2
				l-4.8,7.8l2.9,4.7h9.6l4-6.7L122.6,329.8z M91.3,342.3h3.3l-1.6-2.7L91.3,342.3z M37.5,329.8h14l-7-11.7L37.5,329.8z M45.1,317.3
				l-0.5,1l7,11.7h1.4l7.6-12.6H45.1z M68.7,328.9l-0.5,0.8h1.1L68.7,328.9z M69.3,329.8h-1.1l-7.6,12.6h15.3l0.4-0.7L69.3,329.8z
				 M61.7,317.3h-1.2l-7.6,12.6h15.4l0.5-0.8L61.7,317.3z M252.4,279.5l-0.1-0.3l-0.1,0.3H252.4z M300.6,300.8l2.3,3.8h10.7l3.4-5.8
				l-4-6.7h-7.3L300.6,300.8z M313.1,292.1l-3.6-6l-3.6,6H313.1z M305.7,279.5l-3.7-6.2l-3.7,6.2H305.7z M294.3,260.5l3.8,6.3h7.6
				l5.1-8.4l-2.5-4.1H298L294.3,260.5z M302,273.4l3.8-6.3h-7.6L302,273.4z M290.4,266.9l-5.1,8.4l2.5,4.3h10.3l3.7-6.2l-3.8-6.3
				h-7.6V266.9z M293.1,288.1l2.5,4H306l3.6-6l-4-6.6H298L293.1,288.1z M308.3,313.5l5.4-8.9H303L308.3,313.5z M318.1,329.8
				l-2.1-3.4l-2.1,3.4H318.1z M307.1,341l0.7,1.2h13.7l2.1-3.3l-5.5-9.2h-4.3L307.1,341z M306.3,342.3h1.6l-0.7-1.2L306.3,342.3z
				 M298.3,304.6l-6.6,10.9l1,1.6H306l2.2-3.7l-5.4-8.9h-4.5V304.6z M310.5,317.3l-2.2-3.7l-2.2,3.7H310.5z M299.4,328.4l0.8,1.5
				h13.6l2.1-3.4l-5.4-9.1h-4.4L299.4,328.4z M225.3,116.2l-6.2-10.4l-6.3,10.4C218.8,116.2,219.2,116.2,225.3,116.2z M232.7,128.8
				l-6.2-10.3l-6.2,10.3H232.7z M99.4,379.9l7.6-12.4H92L99.4,379.9z M207.4,116.2c2.5,0,2.6,0,5.2,0l6.3-10.4l-1.2-2.1h-12.8
				l-2.5,4.1L207.4,116.2z M204.8,103.6h-4.9l2.5,4.1L204.8,103.6z M185.8,109.7l4,6.5c3.8,0,3.8,0,7.6,0l5.1-8.5l-2.5-4.1h-10.4
				L185.8,109.7z M286.6,247.8l4,6.6h7.4l5.2-8.5l-2.5-4h-10.4L286.6,247.8z M300.8,241.8l-5.4-8.7l-5.4,8.7H300.8z M308.3,254.4
				l-5.2-8.5l-5.2,8.5H308.3z M282.5,229.3l-3.4,5.8l4,6.7h7.1l5.4-8.7l-2.3-3.8L282.5,229.3L282.5,229.3z M240.4,141.3l-6-10.2
				l-6.2,10.2H240.4z M225.3,146l4.8,8h5.8l6-9.9l-1.6-2.6H228L225.3,146z M217.7,133.2l4.8,8.1h5.6l6.2-10.2l-1.5-2.5h-12.4
				L217.7,133.2z M200,103.6l-5.2-8.7l-5.2,8.7H200z M173.2,354.9h-12.6l-2.5,4.3l5.1,8.4h5.4l6.2-10.4L173.2,354.9z M155.5,354.9
				h-10.3l-3.7,6.2l3.8,6.3h7.6l5.1-8.4L155.5,354.9z M152.9,367.6h10l-5.1-8.4L152.9,367.6z M168.2,367.6h12.5l-6.2-10.4
				L168.2,367.6z M175.9,354.9l-1.2,2.2l6.2,10.4h2.9l7.4-12.4l-0.1-0.3H175.9z M191.2,355.2l0.1-0.3h-0.3L191.2,355.2z
				 M106.8,367.6h2.9l-1.4-2.3L106.8,367.6z M137.6,367.6h7.6l-3.8-6.3L137.6,367.6z M119.9,354.9h-5.5l-6.2,10.2l1.4,2.3h12.5
				l2.6-4.4L119.9,354.9z M102.1,354.9h-3l-7.4,12.2l0.3,0.3h15l1.4-2.3L102.1,354.9z M183.4,342.3l7.6,12.6h0.3l7.6-12.6H183.4z
				 M137.6,354.9h-7.8l-4.9,8.1l2.6,4.4h10l3.8-6.3L137.6,354.9z M122.2,367.6h5.4l-2.6-4.4L122.2,367.6z M252.5,354.9h9.5l-4.8-7.8
				L252.5,354.9z M267.9,354.9h11.8l-5.9-9.9L267.9,354.9z M272.3,342.3h-12.1l-2.9,4.7l4.8,7.8h5.9l5.9-9.9L272.3,342.3z
				 M290,342.3h-14.6l-1.6,2.6l5.9,9.9h3.4l7.1-11.8L290,342.3z M201.2,342.3h-2.5l-7.6,12.6h15.3l1.1-1.8L201.2,342.3z
				 M283.3,354.9h14.3l-7.1-11.8L283.3,354.9z M290.4,343.1l7.1,11.8h1.1l7.6-12.6h-15.4L290.4,343.1z M300.3,329.8h-1.8l-7.6,12.6
				h15.4l0.8-1.2L300.3,329.8z M219,342.3h-4.8l-6.5,10.7l1.1,1.8H222l2.3-3.8L219,342.3z M206.5,354.9h2.2l-1.1-1.8L206.5,354.9z
				 M221.9,354.9h4.7l-2.3-3.8L221.9,354.9z M237.3,354.9h7.1l-3.4-5.8L237.3,354.9z M236.8,342.3h-7.3l-5.4,8.7l2.3,3.8h10.7
				l3.4-5.8L236.8,342.3z M254.6,342.3h-9.6l-4,6.7l3.4,5.8h8.2l4.8-7.8L254.6,342.3z M210,120.4l4.9,8.2h5.4l6.2-10.3l-1.4-2.2
				c-6,0-6.5,0-12.6,0L210,120.4z M21.7,191.6l3.6,5.9l3.6-5.9H21.7z M34.2,182.8l-2.2-3.7H21.2l-3.4,5.8l4.1,6.7H29L34.2,182.8z
				 M36.6,179H32l2.2,3.7L36.6,179z M39.5,191.6h4.8l6.6-10.9l-1.1-1.8H36.6l-2.2,3.7L39.5,191.6z M25.3,197.5l-4,6.7h7.8
				L25.3,197.5z M36.6,204.1l5.2-8.7l-2.3-4H28.9l-3.6,5.9l4,6.7H36.6L36.6,204.1z M51.8,179l7.6-12.6H44.1l-1,1.6l6.6,11H51.8z
				 M67.1,154l1.6-2.6l-5.9-9.9h-3.4l-7.1,12l0.3,0.7h14.6V154z M52,153.3l-0.3,0.7h0.7L52,153.3z M43,168l-6.7,11h13.2L43,168z
				 M61,138.6l-1.6,2.7h3.4L61,138.6z M59.7,165.9l-7.3-12.1h-0.7l-7.6,12.6h15.3L59.7,165.9z M29.1,216.6l4-6.5l-3.7-6.2h-8
				l-4.8,8.1l2.6,4.4L29.1,216.6L29.1,216.6z M7.6,226.9l-1.4,2.2h2.7L7.6,226.9z M-19.2,271.2l-4.9,8.2h9.9L-19.2,271.2z M178.1,97
				l4,6.7h7.3l5.2-8.7l-2.3-4h-10.6L178.1,97z M-8.9,279.5l6.2-10.3l-1.4-2.2h-12.6l-2.5,4.3l4.9,8.2H-8.9L-8.9,279.5z M-28.2,285.9
				l-3.7,6.2h7.3L-28.2,285.9z M-24.1,304.6l3.6-5.9l-4-6.7h-7.3l-5.2,8.7l2.3,4H-24.1L-24.1,304.6z M-10.3,256.5l-6.3,10.4H-4
				L-10.3,256.5z M13.9,241.8l1.2-2.1l-6.2-10.4H6.2l-7.6,12.5v0.1h15.3V241.8z M16.4,212.2l-2.6,4.4h5.4L16.4,212.2z M-1.2,266.9
				l7.6-12.5l-0.1-0.1H-8.9l-1.2,2.1l6.2,10.4h2.7V266.9z M21.4,229.3l2.5-4.3l-4.9-8.2h-5.4l-6.2,10.3l1.4,2.2H21.4L21.4,229.3z
				 M74.6,141.3l2.9-4.8l-4.7-7.7h-6l-5.9,9.8l1.6,2.7H74.6L74.6,141.3z M-1.4,241.8L-1.4,241.8L-1.4,241.8L-1.4,241.8z M-1.4,241.8
				L-1.4,241.8l-7.7,12.6H6.2L-1.4,241.8z M-16.5,292.1l4.8-8.1l-2.6-4.4h-9.9l-4,6.5l3.7,6.2h8V292.1z M143.1,53.3h-8.9l4.4,7.4
				L143.1,53.3z M159.5,65.8l-4.4-7.1l-4.4,7.1H159.5z M122.1,62.8L124,66h11.5l3-5.2l-4.4-7.4h-6.5L122.1,62.8z M69.8,123.8l-3,4.9
				h6L69.8,123.8z M134.2,53.3L131,48l-3.2,5.4H134.2z M127.7,53.3l3.2-5.4l-4.4-7.1c-3,0-3.7,0-6.7,0l-5.6,9.2l2.1,3.3H127.7z
				 M114.4,50l-2.1,3.3h4L114.4,50z M174.6,91.1h7.1l5.4-8.8l-2.2-3.7c-5.4,0-5.4,0-10.9,0l-3.4,5.8L174.6,91.1z M174,78.5
				c-3.4,0-3.4,0-7,0l3.4,5.8L174,78.5z M192.4,91.1l-5.4-8.8l-5.4,8.8H192.4z M146.3,73.5l3,4.9c4.5,0,4.8,0,9.3,0l4.3-7l-3.4-5.6
				h-8.5L146.3,73.5z M167,78.5l-4.3-7l-4.3,7C162.7,78.5,162.9,78.5,167,78.5z M154,86.2l2.9,4.8h9.5l4.1-6.7l-3.4-5.8
				c-4.1,0-4.3,0-8.4,0L154,86.2z M141.7,65.8h9.1l4.4-7.1l-3.3-5.4h-8.8l-4.4,7.4L141.7,65.8z M89.8,116.2l5.5-9.1l-2.1-3.4H81.9
				l-3.3,5.4l4.4,7.1C85.8,116.2,86.9,116.2,89.8,116.2z M87.7,94.3l-5.6,9.3h11.3L87.7,94.3z M97.5,103.6l6.9-11.3l-0.7-1.2h-14
				l-1.9,3.3l5.6,9.3L97.5,103.6L97.5,103.6z M78.8,109l-4.4,7.1c3.4,0,5.1,0,8.5,0L78.8,109z M96.6,79.6l-7,11.5h13.9L96.6,79.6z
				 M82.2,128.8l4.3-7l-3.4-5.6c-3.4,0-5.4,0-8.5,0l-4.5,7.6l3,4.9h9.2V128.8z M112.6,78.5l0.5-1l-7-11.7h-1.4l-7.6,12.6
				C103.5,78.5,105.8,78.5,112.6,78.5z M105.4,64.9l-0.7,1.1h1.4L105.4,64.9z M95.9,78.5l0.7,1.1l0.7-1.1
				C96.6,78.5,96.5,78.5,95.9,78.5z M104.9,65.8H89.5l-0.5,0.8l7,11.7c0.5,0,0.7,0,1.2,0L104.9,65.8z M120.1,65.8l1.9-3.2l-5.6-9.5
				h-4l-6.9,11.4l0.7,1.1L120.1,65.8L120.1,65.8z M248.4,184.2l4.4,7.4h6.3l5.8-9.5L263,179h-11.5L248.4,184.2z M197.3,116.2
				c-3.7,0-3.8,0-7.6,0l3.8,6.2L197.3,116.2z M197.3,128.8h7.7l4.9-8.2l-2.5-4.3c-4.9,0-5.2,0-10.2,0l-3.8,6.2L197.3,128.8z
				 M176.9,124.4l2.5,4.3h10.2l3.8-6.2l-3.8-6.2c-4,0-4,0-7.8,0L176.9,124.4z M169.2,111.8l2.6,4.4c4.9,0,4.9,0,9.9,0l4-6.5
				l-3.7-6.2h-8L169.2,111.8z M189.7,116.2l-4-6.5l-4,6.5C185.8,116.2,185.8,116.2,189.7,116.2z M182.1,103.6l-4-6.7l-4,6.7H182.1z
				 M215,128.8l-4.9-8.2l-4.9,8.2H215z M230.1,154l-4.8-8l-4.8,8H230.1z M216.5,160.7l3.4,5.8h8.4l4.7-7.7l-2.9-4.8h-9.5
				L216.5,160.7z M236,154h-5.8l2.9,4.8L236,154z M222.5,141.3l-4.8-8.1l-4.8,8.1H222.5z M208.8,147.9l3.6,5.9h8.1l4.8-8l-2.7-4.7
				h-9.8L208.8,147.9z M156.8,91.1l-2.9-4.8l-2.9,4.8H156.8z M113.1,77.5l-0.5,1c0.5,0,0.7,0,1.1,0L113.1,77.5z M164.4,103.6h9.8
				l4-6.7l-3.6-5.9h-8.1l-4.8,8L164.4,103.6z M120.8,90.3l-7.1-11.8c-0.5,0-0.7,0-1.1,0L105,91.1h15.4L120.8,90.3z M112.7,103.6
				l7.6-12.6h-15.4l-0.7,1.2l6.7,11.3h1.8V103.6z M135.5,65.8H124l5.8,9.6L135.5,65.8z M104.2,92.2l-6.9,11.3h13.6L104.2,92.2z
				 M128,78.5l1.8-3l-5.8-9.6h-3.8l-7,11.7l0.5,1C120,78.5,121.4,78.5,128,78.5z M237.7,166.5h6l5.9-9.8L248,154h-12l-2.9,4.8
				L237.7,166.5z M105.2,116.2l6.7-11.1l-0.8-1.4H97.5l-2.1,3.4l5.5,9.1C102.7,116.2,103.2,116.2,105.2,116.2z M131.5,78.5
				c5.5,0,6.2,0,11.8,0l3-4.9l-4.5-7.6h-6.2l-5.8,9.6L131.5,78.5z M137.3,88.2L139,91h12l2.9-4.8l-4.7-7.7c-3,0-3,0-6,0L137.3,88.2z
				 M149.3,78.5l-3-4.9l-3,4.9C146.1,78.5,146.4,78.5,149.3,78.5z M166.3,91.1h-9.5l4.8,8L166.3,91.1z M276.4,290l1.1,2.1h12.9
				l2.5-4l-5.1-8.5h-5.1L276.4,290z M295.5,292.1l-2.5-4l-2.5,4H295.5z M287.8,279.5l-2.5-4.3l-2.5,4.3H287.8z M275.1,266.9
				l-6.2,10.4l1.2,2.2h12.6l2.5-4.3l-4.9-8.4H275.1z M284.1,302.8l1.1,1.8h13.2l2.3-3.8l-5.2-8.7h-4.8L284.1,302.8z M285.4,275.3
				l5.1-8.4h-10L285.4,275.3z M283,304.6l-7.6,12.6h15.4l1.1-1.6l-6.6-10.9H283V304.6z M282.9,330.3l7.1,12.1h0.8l7.6-12.6H283
				L282.9,330.3z M283.2,329.8h15.4l1-1.5l-6.7-11.1h-2.1L283.2,329.8z M291.8,315.5l6.6-10.9h-13.2L291.8,315.5z M275.6,342.3h14.6
				l-7.1-12.1L275.6,342.3z M292.8,317.3l-1-1.6l-1.1,1.6H292.8z M277.7,262.5l2.6,4.4h10l3.8-6.3l-3.7-6.2h-8L277.7,262.5z
				 M240.7,171.4l4.5,7.6h6.2l5.8-9.6l-1.8-3h-11.8L240.7,171.4z M282.6,329.8h-14.7l-1.5,2.5l6,10h3.3l7.3-12.1L282.6,329.8z
				 M259.1,191.6l-3.2,5.4l4.4,7.1h6.6l5.6-9.2l-2.1-3.3H259.1L259.1,191.6z M263.6,209.6l4.3,7.1h6.7l5.5-9.1l-2.1-3.4h-11.1
				L263.6,209.6z M278.1,204.1l-5.6-9.2l-5.6,9.2H278.1z M263,179l-5.8-9.6l-5.8,9.6H263z M255.4,166.5l-5.9-9.8l-5.9,9.8H255.4z
				 M271.3,222.4l4.1,6.9h7l5.4-8.9l-2.2-3.7h-10.9L271.3,222.4z M285.6,216.6l-5.5-9.1l-5.5,9.1H285.6z M283,241.8l-4-6.7l-4,6.7
				H283z M270.1,249.9l2.7,4.5h9.9l4-6.6l-3.6-6h-8.1L270.1,249.9z M267.1,229.3l-4.8,7.8l2.9,4.8h9.6l4-6.7l-3.4-5.8h-8.2V229.3z
				 M290.4,254.4l-4-6.6l-4,6.6H290.4z M278.9,235.2l3.4-5.8h-7L278.9,235.2z M41.8,195.5l-5.2,8.7H47L41.8,195.5z M-38.4,328.2
				l-1,1.6h1.9L-38.4,328.2z M-30.7,340.9l-6.7-11.3h-1.9l-7.6,12.6h15.4L-30.7,340.9z M-29.8,342.3h-1.6l-7.6,12.6h15.4l0.7-1.1
				L-29.8,342.3z M-46.9,342.3l-0.4,0.7l7.1,12h1l7.6-12.6H-46.9z M-12.1,342.3h-4.1l-6.9,11.3l0.7,1.1h13.9l1.9-3.2L-12.1,342.3z
				 M-23.8,354.9h1.5l-0.7-1.1L-23.8,354.9z M-8.7,304.6l4.8-8l-2.7-4.7h-9.8l-4,6.7l3.6,5.9H-8.7z M-20.5,298.8l-3.6,5.9h7.1
				L-20.5,298.8z M-1.2,292.1l6.2-10.2l-1.5-2.5H-8.9l-2.6,4.4l4.8,8.1L-1.2,292.1L-1.2,292.1z M-11.5,284l-4.8,8.1h9.8L-11.5,284z
				 M-8.4,354.9h4l-1.9-3.2L-8.4,354.9z M-16.4,317.3l3.4-5.8l-4.1-6.7h-7.1l-5.4,8.8l2.2,3.7H-16.4z M-29.4,313.5l-2.2,3.7h4.5
				L-29.4,313.5z M-23.9,329.8l2.1-3.6l-5.4-8.9h-4.5l-6.7,11l1,1.6h13.6V329.8z M60.8,367.6h13.3l-6.7-11.1L60.8,367.6z
				 M66.5,354.9H52.9l-2.1,3.4l5.4,9.1h4.4l6.7-11.1L66.5,354.9z M83.7,354.9H68.3l-0.8,1.5l6.7,11.1h2.1L83.7,354.9z M76.2,367.6
				l-1,1.6l6.6,10.9H84l7.6-12.6H76.2V367.6z M48.8,354.9l2.1,3.4l2.1-3.4H48.8z M74.1,367.6l1,1.6l1-1.6H74.1z M59.8,343.6
				l-0.7-1.2H45.4l-2.1,3.3l5.5,9.2h4.3L59.8,343.6z M23.5,342.3h-8.9l-4.4,7.3l3.2,5.2h8.9l4.4-7.1L23.5,342.3z M7,354.9h6.3
				l-3.2-5.2L7,354.9z M22.3,354.9h8.7l-4.4-7.1L22.3,354.9z M5.6,342.3h-6.5l-5.6,9.3l1.9,3.2H6.9l3.2-5.2L5.6,342.3z M41.2,342.3
				H30l-3.2,5.4l4.4,7.1h6.7l5.6-9.2L41.2,342.3z M95.3,107.1l-5.5,9.1c4.7,0,6.2,0,11,0L95.3,107.1z M37.7,354.9h11.1l-5.5-9.2
				L37.7,354.9z M67.4,178.8l-7.4-12.2h-0.5l-7.6,12.6h15.4L67.4,178.8z M59.7,165.9l-0.3,0.4h0.5L59.7,165.9z M59.7,191.6l7.6-12.6
				H51.8l-1.1,1.8l6.5,10.9H59.7L59.7,191.6z M74.8,166.5l1.5-2.5l-6-10.2h-3.2L59.8,166l0.3,0.4H74.8z M50.9,180.8l-6.6,10.9h13.1
				L50.9,180.8z M91.5,367.6L84,380.2h15.3l0.1-0.3L92,367.6H91.5L91.5,367.6z M52,204.1l6.5-10.6l-1.1-1.9H44.3l-2.3,4l5.2,8.7
				L52,204.1L52,204.1z M90,141.3l4.1-6.7l-3.4-5.8h-8.4l-4.7,7.7l2.9,4.8L90,141.3L90,141.3z M68.6,151.2l-1.6,2.6h3.2L68.6,151.2z
				 M97.5,128.8l5.4-8.9l-2.1-3.6c-4.8,0-6.5,0-11,0l-3.4,5.6l4.3,7h6.9V128.8z M86.5,121.8l-4.3,7h8.4L86.5,121.8z M77.5,136.5
				l-2.9,4.8h5.8L77.5,136.5z M82.3,154l2.7-4.7l-4.8-8h-5.8l-6,9.9l1.6,2.6h12.2V154z M-2.6,269.3l-6.2,10.3H3.6L-2.6,269.3z
				 M21.6,254.4l1.1-1.9l-6.3-10.7h-2.5l-7.6,12.6H21.6z M13.9,241.8H-1.4l7.6,12.6h0.1L13.9,241.8z M14,266.9l7.6-12.6H6.3
				l-0.1,0.1l7.6,12.5L14,266.9L14,266.9z M6.2,254.4L6.2,254.4L6.2,254.4L6.2,254.4z M6.5,279.5l7.4-12.2l-0.3-0.3h-15l-1.4,2.2
				l6.2,10.3H6.5L6.5,279.5z M6.2,254.6l-7.6,12.5h15L6.2,254.6z M32.9,210.2l-4,6.5h7.7L32.9,210.2z M15.1,239.7l-1.2,2.1h2.5
				L15.1,239.7z M36.8,229.3l3.8-6.2l-3.8-6.2h-7.7l-4.9,8.2l2.5,4.3h10.2V229.3z M44.4,216.6l5.1-8.5L47,204H36.6l-3.7,6.2l4,6.5
				H44.4z M24.1,225l-2.5,4.3h5.2L24.1,225z M29.1,241.8l2.5-4.1l-5.1-8.5h-5.2L15,239.6l1.2,2.1h12.9V241.8z"/>
		</g>
	</g>
	
		<linearGradient id="XMLID_3_" gradientUnits="userSpaceOnUse" x1="200" y1="2.8" x2="200" y2="402.8" gradientTransform="matrix(1 0 0 -1 0 402.8)">
		<stop  offset="0" style="stop-color:#2F4AE8"/>
		<stop  offset="1.057398e-02" style="stop-color:#3249E9"/>
		<stop  offset="0.1494" style="stop-color:#573BEF"/>
		<stop  offset="0.2946" style="stop-color:#762FF5"/>
		<stop  offset="0.4461" style="stop-color:#8E26F9"/>
		<stop  offset="0.6065" style="stop-color:#9F20FD"/>
		<stop  offset="0.7818" style="stop-color:#A91CFE"/>
		<stop  offset="1" style="stop-color:#AC1BFF"/>
	</linearGradient>
	<path id="XMLID_7040_" class="st1" d="M373.2,100.3c0-0.1-0.1-0.3-0.1-0.4c-0.1-0.1-0.1-0.3-0.3-0.4c-17.6-29.8-42.6-55-72.6-72.4
		c-0.1-0.1-0.3-0.3-0.4-0.3c-0.1-0.1-0.3-0.1-0.4-0.1C270.1,9.8,236,0,199.9,0c-36.3,0-70.2,9.8-99.5,26.7c-0.1,0-0.3,0.1-0.4,0.1
		c-0.1,0.1-0.3,0.1-0.4,0.3c-30,17.5-55,42.5-72.4,72.4c-0.1,0.1-0.3,0.3-0.3,0.4c-0.1,0.1-0.1,0.3-0.1,0.4C9.8,129.6,0,163.7,0,200
		s9.8,70.2,26.7,99.7c0,0.1,0.1,0.3,0.1,0.4c0,0.1,0.1,0.1,0.3,0.3c17.5,30,42.5,55.1,72.6,72.6c0.1,0.1,0.3,0.3,0.4,0.3
		s0.1,0.1,0.3,0.1c29.4,16.9,63.4,26.7,99.7,26.7s70.4-9.8,99.7-26.7c0.1,0,0.1,0,0.3-0.1c0.1-0.1,0.3-0.1,0.4-0.3
		c30-17.5,55.1-42.6,72.6-72.6c0.1-0.1,0.1-0.1,0.3-0.3c0.1-0.1,0.1-0.3,0.1-0.4c16.9-29.3,26.7-63.4,26.7-99.5
		C399.7,163.7,390.1,129.8,373.2,100.3z M369.6,295l-22.8-13.2c-1.2-0.7-2.9-0.3-3.6,1c-0.7,1.2-0.3,2.9,1,3.6l22.8,13.2
		c-16.6,27.8-39.9,51-67.6,67.6l-13.2-22.8c-0.7-1.2-2.3-1.6-3.6-1c-1.2,0.7-1.6,2.3-1,3.6l13.2,22.8
		c-27.4,15.4-58.8,24.3-92.4,24.7v-26.4c0-1.5-1.2-2.6-2.6-2.6c-1.5,0-2.6,1.2-2.6,2.6v26.4c-33.5-0.4-65-9.3-92.4-24.7l13.2-22.8
		c0.7-1.2,0.3-2.9-1-3.6s-2.9-0.3-3.6,1l-13.2,22.8c-27.8-16.6-51-39.9-67.6-67.6l22.8-13.2c1.2-0.7,1.6-2.3,1-3.6
		c-0.7-1.2-2.3-1.6-3.6-1L30.1,295c-15.4-27.4-24.3-58.8-24.7-92.4h26.4c1.5,0,2.6-1.2,2.6-2.6c0-1.5-1.2-2.6-2.6-2.6H5.2
		c0.4-33.5,9.3-65,24.7-92.4l22.8,13.2c0.4,0.3,0.8,0.4,1.4,0.4c1,0,1.8-0.4,2.3-1.4c0.7-1.2,0.3-2.9-1-3.6l-22.8-13.2
		c16.6-27.8,39.9-51,67.6-67.6l13.2,22.8c0.5,0.8,1.4,1.4,2.3,1.4c0.4,0,1-0.1,1.4-0.4c1.2-0.7,1.6-2.3,1-3.6L105,30.2
		c27.4-15.4,58.8-24.3,92.4-24.7v26.4c0,1.5,1.2,2.6,2.6,2.6c1.5,0,2.6-1.2,2.6-2.6V5.4c33.5,0.4,65,9.3,92.4,24.7l-13.2,22.8
		c-0.7,1.2-0.3,2.9,1,3.6c0.4,0.3,0.8,0.4,1.4,0.4c1,0,1.8-0.4,2.3-1.4l13.2-22.8c27.8,16.6,51,39.9,67.6,67.6l-22.8,13.2
		c-1.2,0.7-1.6,2.3-1,3.6c0.5,0.8,1.4,1.4,2.3,1.4c0.4,0,1-0.1,1.4-0.4l22.8-13.2c15.4,27.4,24.3,58.8,24.7,92.4h-26.4
		c-1.5,0-2.6,1.2-2.6,2.6c0,1.5,1.2,2.6,2.6,2.6h26.4C394,236.2,385,267.6,369.6,295z"/>
	
		<linearGradient id="XMLID_4_" gradientUnits="userSpaceOnUse" x1="205.6357" y1="128.4271" x2="205.6357" y2="288.1608" gradientTransform="matrix(1 0 0 -1 0 402.8)">
		<stop  offset="0" style="stop-color:#2F4AE8"/>
		<stop  offset="1.057398e-02" style="stop-color:#3249E9"/>
		<stop  offset="0.1494" style="stop-color:#573BEF"/>
		<stop  offset="0.2946" style="stop-color:#762FF5"/>
		<stop  offset="0.4461" style="stop-color:#8E26F9"/>
		<stop  offset="0.6065" style="stop-color:#9F20FD"/>
		<stop  offset="0.7818" style="stop-color:#A91CFE"/>
		<stop  offset="1" style="stop-color:#AC1BFF"/>
	</linearGradient>
	<path id="XMLID_6985_" class="st2" d="M88.7,273.3v-9.1l17.7-16.1c4-3.7,6.7-6.6,8.4-8.9c1.6-2.3,2.3-4.7,2.3-7.3
		c0-5.1-4.1-8.4-10.3-8.4c-5.6,0-11.1,2.3-16.2,6.9v-12.6c4.9-3.8,10.7-5.8,17.5-5.8c5.8,0,10.7,1.6,15,5.1
		c4.3,3.3,6.3,7.8,6.3,13.3c0,4.3-1,8-2.9,11.3c-1.8,3.3-5.1,7-9.9,11.4l-10.3,9.5h25v10.9H88.7V273.3z M138.1,273.3v-9.1l17.7-16.1
		c4-3.7,6.7-6.6,8.4-8.9c1.6-2.3,2.3-4.7,2.3-7.3c0-5.1-4.1-8.4-10.3-8.4c-5.6,0-11.1,2.3-16.2,6.9v-12.6c4.9-3.8,10.7-5.8,17.5-5.8
		c5.8,0,10.7,1.6,15,5.1c4.3,3.3,6.3,7.8,6.3,13.3c0,4.3-1,8-2.9,11.3c-1.8,3.3-5.1,7-9.9,11.4l-10.3,9.5h25v10.9h-42.6V273.3z
		 M188.7,238.4c0-4.1,3.3-7.4,7.4-7.4c4.1,0,7.4,3.3,7.4,7.4c0,4.3-3.3,7.6-7.4,7.6C191.9,245.9,188.7,242.6,188.7,238.4z
		 M188.7,266.7c0-4.1,3.3-7.4,7.4-7.4c4.1,0,7.4,3.3,7.4,7.4c0,4.3-3.3,7.6-7.4,7.6C191.9,274.2,188.7,270.9,188.7,266.7z
		 M223.6,270c-8-5.9-12-15.7-12-26.8c0-5.6,1-10.6,2.9-15.3c4-9.3,12.4-15.9,23-15.9c7.8,0,14.2,3,18.8,9.2c4.7,6,7,13.5,7,22
		c0,8.5-2.3,15.9-7,22c-4.7,6-10.9,9.2-18.8,9.2C232.3,274.5,227.8,273,223.6,270z M237.7,263c4.1,0,7.4-1.9,9.8-5.6
		c2.5-3.8,3.7-8.5,3.7-14s-1.2-10.2-3.7-13.9c-2.3-3.8-5.6-5.8-9.8-5.8c-4.1,0-7.4,1.9-9.9,5.8c-2.5,3.7-3.7,8.4-3.7,13.9
		s1.2,10.2,3.7,14C230.2,261,233.5,263,237.7,263z M284.1,270c-8-5.9-12-15.7-12-26.8c0-5.6,1-10.6,2.9-15.3
		c4-9.3,12.4-15.9,23-15.9c7.8,0,14.2,3,18.8,9.2c4.7,6,7,13.5,7,22c0,8.5-2.3,15.9-7,22c-4.7,6-10.9,9.2-18.8,9.2
		C292.8,274.5,288.2,273,284.1,270z M298.1,263c4.1,0,7.4-1.9,9.8-5.6c2.5-3.8,3.7-8.5,3.7-14s-1.2-10.2-3.7-13.9
		c-2.3-3.8-5.6-5.8-9.8-5.8s-7.4,1.9-9.9,5.8c-2.5,3.7-3.7,8.4-3.7,13.9s1.2,10.2,3.7,14C290.7,261,294,263,298.1,263z M100.1,175.9
		v-46.9l-12.6,6.5v-12.1l14-7.6h10.7v60.1H100.1z M125.9,175.9l24.6-48.9h-28.5v-11.1h42.3v9.5l-25.3,50.6H125.9z M171.5,141
		c0-4.1,3.3-7.4,7.4-7.4c4.1,0,7.4,3.3,7.4,7.4c0,4.3-3.3,7.6-7.4,7.6C174.8,148.5,171.5,145.2,171.5,141z M171.5,169.3
		c0-4.1,3.3-7.4,7.4-7.4c4.1,0,7.4,3.3,7.4,7.4c0,4.3-3.3,7.6-7.4,7.6C174.8,176.8,171.5,173.5,171.5,169.3z M206.6,172.6
		c-8-5.9-12-15.7-12-26.8c0-5.6,1-10.6,2.9-15.3c4-9.3,12.4-15.9,23-15.9c7.8,0,14.2,3,18.8,9.2c4.7,6,7,13.5,7,22
		c0,8.5-2.3,15.9-7,22c-4.7,6-10.9,9.2-18.8,9.2C215.3,177,210.6,175.7,206.6,172.6z M220.6,165.5c4.1,0,7.4-1.9,9.8-5.6
		c2.5-3.8,3.7-8.5,3.7-14c0-5.5-1.2-10.2-3.7-13.9c-2.3-3.8-5.6-5.8-9.8-5.8c-4.1,0-7.4,1.9-9.9,5.8c-2.5,3.7-3.7,8.4-3.7,13.9
		c0,5.5,1.2,10.2,3.7,14C213.2,163.6,216.5,165.5,220.6,165.5z M267.1,172.6c-8-5.9-12-15.7-12-26.8c0-5.6,1-10.6,2.9-15.3
		c4-9.3,12.4-15.9,23-15.9c7.8,0,14.2,3,18.8,9.2c4.7,6,7,13.5,7,22c0,8.5-2.3,15.9-7,22c-4.7,6-10.9,9.2-18.8,9.2
		C275.7,177,271.2,175.7,267.1,172.6z M281.1,165.5c4.1,0,7.4-1.9,9.8-5.6c2.5-3.8,3.7-8.5,3.7-14c0-5.5-1.2-10.2-3.7-13.9
		c-2.3-3.8-5.6-5.8-9.8-5.8s-7.4,1.9-9.9,5.8c-2.5,3.7-3.7,8.4-3.7,13.9c0,5.5,1.2,10.2,3.7,14C273.7,163.6,277,165.5,281.1,165.5z"
		/>
</g>
</svg>
