<?xml version="1.0" encoding="utf-8"?>
<!-- Generator: Adobe Illustrator 20.1.0, SVG Export Plug-In . SVG Version: 6.00 Build 0)  -->
<svg version="1.1" id="Layer_1" xmlns="http://www.w3.org/2000/svg" xmlns:xlink="http://www.w3.org/1999/xlink" x="0px" y="0px"
	 viewBox="0 0 400 400" style="enable-background:new 0 0 400 400;" xml:space="preserve">
<style type="text/css">
	.st0{clip-path:url(#SVGID_2_);fill:none;stroke:url(#XMLID_3_);stroke-width:0.7705;stroke-miterlimit:10;}
	.st1{fill:url(#XMLID_4_);}
	.st2{fill:url(#XMLID_5_);}
</style>
<g>
	<g id="XMLID_7014_">
		<g>
			<g>
				<defs>
					<path id="SVGID_1_" d="M79.8,132.3c-52.7,91,12.3,207.9,120,207.9s172.6-117,120-207.9l-120,69.3L79.8,132.3"/>
				</defs>
				<clipPath id="SVGID_2_">
					<use xlink:href="#SVGID_1_"  style="overflow:visible;"/>
				</clipPath>
				
					<linearGradient id="XMLID_3_" gradientUnits="userSpaceOnUse" x1="199.7947" y1="63.4029" x2="199.7947" y2="518.0627" gradientTransform="matrix(1 0 0 1 0 -157.2)">
					<stop  offset="0" style="stop-color:#AC1BFF"/>
					<stop  offset="0.142" style="stop-color:#A41EFE"/>
					<stop  offset="0.3638" style="stop-color:#8E26F9"/>
					<stop  offset="0.6376" style="stop-color:#6934F3"/>
					<stop  offset="0.9502" style="stop-color:#3847EA"/>
					<stop  offset="1" style="stop-color:#2F4AE8"/>
				</linearGradient>
				<path id="XMLID_21_" class="st0" d="M280.4,359.3h-3.5 M34.6,359.3h-6.7 M241.2,359.3h8.3 M45.8,359.3h4.3 M259.1,359.3h6
					 M407.3,250.8l-2.9-4.7 M411.9,258.7l3,4.8 M157.6,359.3h-5.1 M188.1,359.3l0.1,0.3l0.1-0.3H188.1z M134.6,359.3h7.5
					 M468.5,352.7l-3.7-6.2 M207.9-80.5l0.1,0.3 M63.5,359.3h1.8 M372.4,359.3h-6.7 M383.5,359.3h4.4 M403.1,359.3h-1.9
					 M170.2,359.3h2.6 M236.4,203.3l3.1,5.2h8.9l4.4-7.1l-3.1-5.3h-8.9L236.4,203.3z M228.8,190.5l3.3,5.3h8.8l4.4-7.4l-3-5.2h-9.1
					L228.8,190.5z M213.5,165.1l-3.5,5.8h7L213.5,165.1z M231.9,195.9h-6.6l-5.6,9.3l1.9,3.1h11.4l3.1-5.2L231.9,195.9z
					 M233.2,208.6h6.3l-3.1-5.2L233.2,208.6z M242.2,183.4l-4.5-7.5l-4.5,7.5H242.2z M195.6,194.5l-0.8,1.4h1.7L195.6,194.5z
					 M221,177.7l3.5,5.6h8.6l4.5-7.5l-3-4.9h-9.3L221,177.7z M234.8,170.7l-4.7-7.7l-4.7,7.7H234.8z M225.3,170.7l4.7-7.7l-2.9-4.8
					h-9.5l-4.1,6.7l3.5,5.8L225.3,170.7L225.3,170.7z M218.5,232.7l7.1-11.7h-14L218.5,232.7z M210.9,220.1l7-11.5H204L210.9,220.1z
					 M214.3,195.9h-4.1l-6.9,11.3l0.7,1.3H218l1.9-3.1L214.3,195.9z M187.3,233.6h14l-7-11.7L187.3,233.6z M186.6,209.2l-7.1,11.8
					h14.2L186.6,209.2z M193.8,221h-14.1l-1.8,3l5.8,9.6h3.9l7-11.7L193.8,221z M195.1,221l7.5-12.7h-15.4l-0.4,0.7l7.1,11.8
					L195.1,221L195.1,221z M203.3,207.1l-6.7-11.3H195l-7.5,12.7h15.4L203.3,207.1z M195.1,221l-0.5,0.9l7,11.7h1.4l7.5-12.7
					L195.1,221L195.1,221z M204.5,179.8l-2.1,3.6h4.4L204.5,179.8z M210.4,221l-7.5,12.7h15.4l0.5-0.8l-7-11.7L210.4,221L210.4,221z
					 M217.8,183.4l3.5-5.6l-4.3-7h-7l-5.3,8.9l2.1,3.6h11.1V183.4z M210.1,195.9l2.1-3.5l-5.5-9.1h-4.4l-6.7,11.1l0.8,1.4h13.7
					V195.9z M217.9,208.6h4l-1.9-3.1L217.9,208.6z M249.8,195.9l-4.4-7.4l-4.4,7.4H249.8z M252.9,201.3l4.4,7.1h6.7l5.6-9.2
					l-2.1-3.3h-11.3L252.9,201.3z M267.5,195.9l-5.9-9.5l-5.8,9.5H267.5z M209.9,170.7l3.5-5.8l-4.1-6.7h-7.2l-5.3,8.8l2.2,3.7
					H209.9z M245.4,188.5l4.4,7.4h6.5l5.8-9.5l-1.9-3.1h-11.5L245.4,188.5z M195.6,194.5l-6.7-11.1H187l-7.5,12.7h15.3L195.6,194.5z
					 M188.1,181.8l-0.9,1.7h1.9L188.1,181.8z M196.9,167l-2.2,3.7h4.5L196.9,167z M205.8,152.3l-3.6,6h7.1L205.8,152.3z
					 M202.3,183.4l2.1-3.6l-5.3-8.9h-4.5l-6.7,11l0.9,1.7h13.6v-0.2H202.3z M244.9,158.2l-6-9.9l-6.1,9.9H244.9z M202.5,208.6
					l-7.5,12.7h15.4l0.7-1.2l-6.9-11.5H202.5z M252.4,170.7l-5.8-9.7l-6,9.7H252.4z M230.1,163l4.7,7.7h6.1l6-9.7l-1.7-2.7h-11.9
					L230.1,163z M237.6,175.8l4.5,7.5h6.2l5.8-9.6l-1.8-3h-11.8L237.6,175.8z M225.2,145.7h-5.6l2.7,4.7L225.2,145.7z M217.6,158.2
					l4.8-7.9l-2.7-4.7h-9.7l-4,6.7l3.6,6L217.6,158.2L217.6,158.2z M227.1,158.2h5.8l6.1-9.9l-1.7-2.6h-12.1l-2.7,4.7L227.1,158.2z
					 M256.4,221h8.6l-4.3-7.1L256.4,221z M260.1,183.4l-5.8-9.6l-5.8,9.6H260.1z M260.6,214l4.3,7.1h6.7l5.5-9.1l-2.1-3.5H264
					L260.6,214z M177.8,224l-1.8-3h-11.8l-3,4.9l4.5,7.5h6.2L177.8,224z M165.8,233.6l3,5.2l3-5.2H165.8z M183.5,233.6H172l-3,5.2
					l4.4,7.4h6.5l5.8-9.5L183.5,233.6z M170,211.3l-6,9.7H176L170,211.3z M202.7,233.6l-0.7,1.2l6.9,11.4h1.7l7.5-12.7h-15.4
					L202.7,233.6L202.7,233.6z M179.6,221l7.1-11.8l-0.4-0.7h-14.4l-1.7,2.7l5.8,9.7h3.7V221z M257.3,208.6h-8.7l-4.5,7.5l3,5.1h9.2
					l4.3-7.1L257.3,208.6z M195.1,246.2h13.7l-6.9-11.4L195.1,246.2z M201.4,233.6h-14l-1.9,3.1l5.6,9.5h4l6.9-11.4L201.4,233.6z
					 M179.8,246.2h11.3l-5.6-9.5L179.8,246.2z M221.9,208.6h-4l-7,11.5l0.7,1.2h14l1.8-3L221.9,208.6z M225.6,221h3.7l-1.8-3
					L225.6,221z M239.6,208.6h-6.3l-5.8,9.5l1.8,3h11.7l3-5.1L239.6,208.6z M241,221h6.2l-3-5.1L241,221z M187.2,208.6l7.5-12.7
					h-15.4l-0.3,0.7l7.1,11.9L187.2,208.6L187.2,208.6z M275.1,208.6l-5.6-9.2l-5.6,9.2H275.1z M179,196.5l-7.1,11.9h14.4L179,196.5
					z M218.2,233.6l-7.5,12.7H226l0.4-0.7l-7.1-11.8L218.2,233.6L218.2,233.6z M227.5,218l5.8-9.5h-11.4L227.5,218z M140.5,221
					l4.3,7l4.3-7H140.5z M130.3,233.6l5.5,9.2l5.5-9.2H130.3z M133.6,246.2h4.1l-2.1-3.5L133.6,246.2z M173.8,158.2l6.5,10.9
					l6.6-10.9H173.8z M171.1,183.4l0.3,0.4l0.3-0.4H171.1z M160.8,195.9l1.7,2.6l1.7-2.6H160.8z M226.7,246.2l-0.4-0.7l-0.4,0.7
					H226.7z M126.9,257.5l6.9-11.3h-13.6L126.9,257.5z M200.8,262.1l2.1-3.5h-4.3L200.8,262.1z M217.4,260.2l0.8-1.5h-1.8
					L217.4,260.2z M184.2,264.2l3.3-5.5H181L184.2,264.2z M156.8,258.7h6.3l-3.1-5.2L156.8,258.7z M143.3,255.5l5.6-9.3h-11.3
					L143.3,255.5z M167.7,266.3l4.5-7.5h-8.9L167.7,266.3z M204.4,120.5l2.5,4.3l2.5-4.3C209.4,120.5,204.4,120.5,204.4,120.5z
					 M290.1,233.6l-5.3-8.9l-5.3,8.9H290.1z M275.9,239.4l3.5-5.8h-7L275.9,239.4z M300.5,221l-6.7-11.1l-6.7,11.1H300.5z
					 M294.8,233.6h-4.7l2.3,3.9L294.8,233.6z M183.9,145.7l5.2,8.7l5.2-8.7H183.9z M259.4,241.4l4.8-7.8h-9.5L259.4,241.4z
					 M242.8,243.4l6-9.9h-11.8L242.8,243.4z M234.2,258.7l-0.3-0.5l-0.3,0.5H234.2z M241.8,271.3l-0.3-0.3l-0.3,0.3H241.8z
					 M194.2,133.1l4,6.5l4-6.5H194.2z M225,120.5h-2.7l1.4,2.2L225,120.5z M216,110.1l-6.3,10.5h12.7L216,110.1z M240.3,120.9
					l-7.4,12.2h14.8L240.3,120.9z M150.7,208.6l2.9,4.8l2.9-4.8H150.7z M207.1,95.3l1.2,1.9l1.2-1.9
					C209.3,95.3,207.1,95.3,207.1,95.3z M196.9,107.9l2.5,4.1l2.5-4.1H196.9z M279.8,156.9l-0.7,1.3h1.5L279.8,156.9z M294.3,158.2
					h-13.9l6.9,11.5L294.3,158.2z M295.6,183.4l-0.5-0.8l-0.5,0.8H295.6z M302.1,170.7h-14l7,11.7L302.1,170.7z M186.6,120.5
					l3.9,6.2l3.9-6.2C194.4,120.5,186.6,120.5,186.6,120.5z M153.4,183.4l1.5,2.5l1.5-2.5H153.4z M315.4,246.2l-6.5-10.8l-6.5,10.8
					H315.4z M203.3,207.1l-0.7,1.3h1.5L203.3,207.1z M163.6,170.7l0.1,0.3l0.3-0.3H163.6z M143.1,195.9l2.7,4.7l2.7-4.7H143.1z
					 M166.3,145.7l6.3,10.8l6.5-10.8H166.3z M132.9,208.6l4.1,6.7l4.1-6.7H132.9z M208.4,275.1l2.2-3.7h-4.4L208.4,275.1z
					 M175.2,279l4.7-7.7h-9.2L175.2,279z M122.6,221l5.3,8.9l5.3-8.9H122.6z M191.7,276.9l3.5-5.8h-6.9L191.7,276.9z M149.3,271.3
					h3.7l-1.8-3L149.3,271.3z M225,273l0.9-1.7h-2.1L225,273z M250.5,256.2l6.1-10h-12.1L250.5,256.2z M158.8,280.9l5.8-9.6h-11.7
					L158.8,280.9z M283.5,252.3l3.6-6.1H280L283.5,252.3z M267.1,254.3l4.8-8.2h-9.6L267.1,254.3z M300.2,250.2l2.5-4h-4.8
					L300.2,250.2z M134.6,270.3l7-11.5h-13.9L134.6,270.3z M110.2,259.5l0.5-0.7h-0.9L110.2,259.5z M112.4,233.6l6.7,11.1l6.7-11.1
					H112.4z M176.5,133.1l5.1,8.6l5.1-8.6H176.5z M257.3,208.6l-4.4-7.1l-4.4,7.1H257.3z M240.7,170.7h-6.1l3,4.9L240.7,170.7z
					 M222.3,150.2l-4.8,7.9h9.5L222.3,150.2z M185.5,236.7l1.9-3.1h-3.9L185.5,236.7z M263.9,208.6h-6.7l3.3,5.5L263.9,208.6z
					 M209.3,158.2l4.1,6.7l4.1-6.7H209.3z M256.2,195.9h-6.5l3.1,5.3L256.2,195.9z M232.8,158.2h-5.8l2.9,4.8L232.8,158.2z
					 M258.1,269l6.2-10.1h-12.2L258.1,269z M199.2,170.7l5.3,8.9l5.3-8.9H199.2z M172,233.6h11.5l-5.8-9.6L172,233.6z M176.1,221
					l1.8,3l1.8-3H176.1z M186.3,208.6l0.4,0.7l0.4-0.7H186.3z M189,183.4l6.7,11.1l6.7-11.1H189z M248.5,183.4h-6.2l3,5.2
					L248.5,183.4z M233.1,183.4h-8.6l4.4,7.1L233.1,183.4z M220,205.2l5.6-9.3h-11.3L220,205.2z M209.7,247.5l0.7-1.3h-1.7
					L209.7,247.5z M231.9,195.9l-3.3-5.3l-3.3,5.3H231.9z M225.4,195.9l3.3-5.3l-4.4-7.1h-6.7l-5.5,9.1l2.1,3.5L225.4,195.9
					L225.4,195.9z M212.1,192.5l-2.1,3.5h4.1L212.1,192.5z M206.6,183.4l5.5,9.1l5.5-9.1H206.6z M194.4,222l0.5-0.9h-1.2L194.4,222z
					 M196.4,195.9l6.7,11.3l6.9-11.3H196.4z M211.5,221l-0.7-1.2L210,221H211.5z M244,216l4.5-7.5h-8.9L244,216z M221,177.7
					l-3.5,5.6h6.7L221,177.7z M216.9,170.7l4.3,7l4.3-7H216.9z M240.8,195.9H232l4.4,7.3L240.8,195.9z M191.6,158.2l5.3,8.8l5.3-8.8
					H191.6z M168.4,208.6l1.7,2.7l1.7-2.7H168.4z M178.7,195.9l0.3,0.7l0.3-0.7H178.7z M181.3,170.7l6.6,11l6.7-11H181.3z
					 M214.7,137.5l-4.8,8.2h9.7L214.7,137.5z M201.8,145.7l4,6.7l4-6.7H201.8z M212.1,133.1l2.6,4.4l2.6-4.4H212.1z M164.3,246.2
					h8.9l-4.4-7.4L164.3,246.2z M176.5,251.5l3.1-5.3h-6.5L176.5,251.5z M158.2,221l3,4.9l3-4.9H158.2z M193.1,249.5l2.1-3.3h-4
					L193.1,249.5z M152.3,240.8l4.4-7.1h-8.6L152.3,240.8z M156.7,233.6h9.1l-4.5-7.5L156.7,233.6z M255.9,170.7h-3.6l1.8,3
					L255.9,170.7z M251.9,228.8l4.7-7.5h-9.3L251.9,228.8z M268.3,226.7l3.5-5.8H265L268.3,226.7z M282.7,221l-5.5-9.1l-5.5,9.1
					H282.7z M219.1,233.6l-0.5-0.8l-0.5,0.8H219.1z M279.4,208.6h-4.3l2.1,3.5L279.4,208.6z M235.2,230.6l5.8-9.6h-11.7L235.2,230.6
					z M201.9,234.8l0.7-1.2h-1.4L201.9,234.8z M248.2,158.2h-3.5l1.7,2.7L248.2,158.2z M231.2,135.5l-6.2,10.1h12.2L231.2,135.5z
					 M271.6,195.9h-4l2.1,3.3L271.6,195.9z M240.6,145.7h-3.1l1.7,2.6L240.6,145.7z M263.8,183.4h-3.9l1.9,3.1L263.8,183.4z
					 M270.8,171.7l-7,11.7h14L270.8,171.7z M203,283.8h10.8l-5.3-8.9L203,283.8z M298.3,158.2l-1.9-3.3l-1.9,3.3H298.3z
					 M280.4,158.2h13.9l1.9-3.3l-5.6-9.3h-4.1l-6.9,11.3L280.4,158.2z M287.3,169.8l0.7,1.2h14.1l1.8-3l-5.8-9.5h-4L287.3,169.8z
					 M255.9,145.7h15.4l0.8-1.4l-6.7-11.1h-1.9L255.9,145.7z M286.6,145.7H273l6.7,11.3L286.6,145.7z M272.9,145.7l-0.8-1.4
					l-0.8,1.4H272.9z M305.8,170.7l-1.8-3l-1.9,3H305.8z M263.7,158.2H279l0.7-1.3l-6.7-11.3h-1.7L263.7,158.2z M295,182.4l0.5,0.8
					h14.3l1.7-2.9l-5.8-9.6h-3.7L295,182.4z M310.6,208.6l-0.3-0.5l-0.3,0.5H310.6z M303.1,195.9l-0.4-0.7l-0.4,0.7H303.1z
					 M294.7,208.6h15.4l0.3-0.5l-7.1-12.1h-0.8L294.7,208.6z M294.4,183.4l-7.5,12.7h15.3l0.4-0.7l-7.1-11.8L294.4,183.4
					L294.4,183.4z M302.7,195.2l7.1-11.8h-14.3L302.7,195.2z M232.4,108L232.4,108L232.4,108L232.4,108z M224.8,95.3L224.8,95.3
					l-7.4-12.7H217l-7.5,12.7H224.8z M217.1,107.9h15.3l-7.5-12.7h-0.1L217.1,107.9z M224.9,95.3L224.9,95.3L224.9,95.3L224.9,95.3z
					 M209.3,95.3l7.5-12.7h-15.4l-1.2,1.7l6.5,10.9L209.3,95.3L209.3,95.3z M201.9,107.9l6.5-10.8l-1.2-1.9h-13.1l-2.3,4l5.2,8.7
					H201.9L201.9,107.9z M200.5,84.6l-6.6,10.9H207L200.5,84.6z M255.6,120.5l1.2-1.8l-6.5-10.9H248l-7.5,12.7H255.6L255.6,120.5z
					 M257.7,120.5l-1.2-1.8l-1.2,1.8H257.7z M248.1,133.1h15.4l0.9-1.7l-6.6-11h-2.1L248.1,133.1z M265.3,133.1l-0.9-1.7l-0.9,1.7
					H265.3z M240,120.5h0.3l7.5-12.7h-15.5v0.1L240,120.5z M232.6,107.9l7.5-12.7h-15.3L232.6,107.9L232.6,107.9z M302.5,221h15.4
					l0.3-0.3l-7.3-12.2h-0.7L302.5,221z M315.4,246.2h-13l-2.5,4l5.2,8.6h5.1l6.3-10.6L315.4,246.2z M198.7,258.7h-11.1l-3.3,5.5
					l4.3,7.1h6.9l5.5-9.1L198.7,258.7z M301.4,222.7l6.6,10.9h2.2l7.5-12.7h-15.3L301.4,222.7z M210.8,271.3H224l-6.7-11.1
					L210.8,271.3z M216.5,258.7h-13.6l-2.1,3.5l5.5,9.1h4.4l6.7-11.1L216.5,258.7z M241.6,270.9l7.4-12.2h-14.7L241.6,270.9z
					 M218.2,258.7l-0.8,1.5l6.7,11.1h2.1l7.5-12.7L218.2,258.7L218.2,258.7z M233.6,258.7l-7.5,12.7h15.4l0.3-0.3l-7.3-12.2
					L233.6,258.7L233.6,258.7z M145.3,258.7l5.8,9.5l5.8-9.5H145.3z M244.4,246.2h-3.3l-7.3,12.1l0.3,0.5h14.7l1.5-2.5L244.4,246.2z
					 M179.9,271.3h8.6l-4.3-7.1L179.9,271.3z M160,253.4l-4.4-7.3H149l-5.6,9.3l1.9,3.1h11.4L160,253.4z M163.2,258.7h-6.3l-5.8,9.5
					l1.8,3h11.7l3-5.1L163.2,258.7z M164.6,271.3h6.2l-3-5.1L164.6,271.3z M180.9,258.7h-8.7l-4.5,7.5l3,5.1h9.2l4.3-7.1
					L180.9,258.7z M195.3,271.3h10.9l-5.5-9.1L195.3,271.3z M316.7,248.2l1.2-2.1h-2.5L316.7,248.2z M323.1,258.7h2.6l7.5-12.7
					h-15.4l-1.2,2.1L323.1,258.7z M310.4,258.7h12.7l-6.3-10.6L310.4,258.7z M309,235.3l1.2-1.8h-2.1L309,235.3z M191.7,99.2
					l-5.2,8.7H197L191.7,99.2z M315.4,246.2h2.5l7.5-12.7h-15.4l-1.2,1.8L315.4,246.2z M279.6,258.7h7.9l-4-6.6L279.6,258.7z
					 M264.2,258.7h5.5l-2.7-4.5L264.2,258.7z M262.3,246.2h-5.9l-6.1,10l1.5,2.5h12.2l2.7-4.5L262.3,246.2z M280,246.2h-8.2
					l-4.8,8.2l2.7,4.5h9.9l4-6.6L280,246.2z M248.9,258.7h3l-1.5-2.5L248.9,258.7z M297.8,246.2h-10.5l-3.6,6.1l4,6.6h7.4l5.2-8.6
					L297.8,246.2z M295,258.7h10.4l-5.2-8.6L295,258.7z M252,258.7h-3l-7.4,12.2l0.3,0.3h15l1.4-2.3L252,258.7z M274.6,266.9
					l4.9-8.2h-9.9L274.6,266.9z M187.7,283.8h8.3l-4.1-6.9L187.7,283.8z M206.2,271.3h-10.9l-3.5,5.8l4.1,6.9h7.1l5.3-8.9
					L206.2,271.3z M224,271.3h-13.4l-2.2,3.7l5.3,8.9h4.7l6.6-10.9L224,271.3z M226.2,245.5l7.1-11.8H219L226.2,245.5z M225.9,271.3
					L225,273l6.6,10.9h2.2l7.5-12.7h-15.4L225.9,271.3L225.9,271.3z M218.4,283.8h13.2L225,273L218.4,283.8z M188.5,271.3h-8.6
					l-4.7,7.7l3,4.8h9.5l4.1-6.9L188.5,271.3z M153,271.3h-3.7l-7.1,11.7l0.5,0.8H157l1.7-2.9L153,271.3z M135.1,271.3l7,11.7
					l7.1-11.7H135.1L135.1,271.3z M156.9,283.8h3.5l-1.7-2.9L156.9,283.8z M249.2,283.7l7.5-12.3h-15L249.2,283.7z M170.6,271.3
					h-6.2l-5.8,9.6l1.7,2.9h11.8l3-4.8L170.6,271.3z M172.4,283.8h6l-3-4.8L172.4,283.8z M302.8,271.3h10l-5.1-8.4L302.8,271.3z
					 M151.1,268.2l-5.8-9.5h-4l-7,11.5l0.7,1.2h14L151.1,268.2z M323.1,258.7h-12.7l-2.5,4.1l5.1,8.4h5.3l6.2-10.5L323.1,258.7z
					 M325.7,258.7l-1.3,2.2l6.2,10.5h2.9L341,259l-0.1-0.3L325.7,258.7L325.7,258.7z M318,271.3h12.5l-6.2-10.5L318,271.3z
					 M340.9,258.9l0.1-0.3h-0.3L340.9,258.9z M141.5,258.7h4l-1.9-3.1L141.5,258.7z M341,258.7l7.5-12.7h-15.4l7.5,12.7H341z
					 M269.8,258.7h-5.5l-6.2,10.1l1.4,2.3H272l2.6-4.4L269.8,258.7z M256.8,271.3h2.9l-1.4-2.3L256.8,271.3z M272,271.3h5.3
					l-2.6-4.4L272,271.3z M305.3,258.7h-10.4l-3.7,6.2l3.9,6.3h7.5l5.1-8.4L305.3,258.7z M287.6,258.7h-7.9l-4.9,8.2l2.6,4.4h10
					l3.9-6.3L287.6,258.7z M287.4,271.3h7.7l-3.9-6.3L287.4,271.3z M182.9,114.1l-4,6.5h7.7L182.9,114.1z M156.2,158.2l-7.5,12.5h15
					L156.2,158.2z M163.8,170.7l7.5-12.7H156l-0.1,0.1l7.5,12.5H163.8L163.8,170.7z M156,158.2L156,158.2L156,158.2L156,158.2z
					 M156.3,183.4l7.4-12.2l-0.1-0.3h-15l-1.4,2.2l6.2,10.4H156.3L156.3,183.4z M163.7,145.7h-15.3l7.5,12.7h0.1L163.7,145.7z
					 M148.8,195.9l6.2-10.1l-1.5-2.5h-12.3l-2.6,4.4l4.8,8.2L148.8,195.9L148.8,195.9z M147.1,173l-6.2,10.4h12.5L147.1,173z
					 M171.6,158.2l1.2-1.9l-6.3-10.8h-2.5l-7.5,12.7H171.6z M173.9,128.8l-2.5,4.3h5.2L173.9,128.8z M186.6,133.1l3.9-6.2l-3.9-6.2
					h-7.7L174,129l2.5,4.3h10.1V133.1z M138.3,187.8l-4.8,8.2h9.7L138.3,187.8z M194.2,120.5l5.1-8.6l-2.5-4.1h-10.5l-3.7,6.2l4,6.5
					H194.2z M165.1,143.5l-1.3,2.1h2.5L165.1,143.5z M179.1,145.7l2.5-4.1l-5.1-8.6h-5.2l-6.3,10.5l1.3,2.1h12.9V145.7z
					 M125.9,233.6l2.1-3.6l-5.3-8.9h-4.5l-6.7,11l0.9,1.7H126v-0.2H125.9z M103.2,271.3h14.2l-7.1-11.8L103.2,271.3z M109.9,258.7
					H95.3l-1.7,2.7l5.8,9.7h3.6l7.1-11.8L109.9,258.7z M141,208.6l4.8-7.9l-2.7-4.7h-9.7l-4,6.7l3.6,6L141,208.6L141,208.6z
					 M102.7,246.8l-7.1,11.9H110L102.7,246.8z M127.5,258.7h-1.5l-7.5,12.7h15.4l0.7-1.2L127.5,258.7z M110.8,258.7l-0.5,0.7
					l7.1,11.8h1.2l7.5-12.7L110.8,258.7L110.8,258.7z M110.8,258.7l7.5-12.7H103l-0.4,0.7l7.1,11.9H110.8z M133.6,221l3.5-5.8
					l-4.1-6.7h-7.2l-5.3,8.8l2.2,3.7H133.6z M120.4,217.4l-2.2,3.7h4.5L120.4,217.4z M129.3,202.6l-3.6,6h7.1L129.3,202.6z
					 M111.4,232l-0.9,1.7h1.9L111.4,232z M133.9,271.3h1.3l-0.7-1.2L133.9,271.3z M119.2,244.9l-6.7-11.1h-1.9l-7.5,12.7h15.4
					L119.2,244.9z M241.4,271.3l-7.5,12.7h15.4l0.1-0.3l-7.4-12.3L241.4,271.3L241.4,271.3z M171.8,208.6l7.1-11.9l-0.3-0.7H164
					l-1.7,2.6l6,9.9h3.5V208.6z M171.5,183.8l-7.3,12.2h14.5L171.5,183.8z M162.5,198.5l-6.1,9.9h11.9L162.5,198.5z M179.4,195.9
					l7.5-12.7h-15.4l-0.3,0.4l7.3,12.2L179.4,195.9L179.4,195.9z M156.7,233.6l4.5-7.5l-3-4.9h-9.3l-4.3,7l3.5,5.6L156.7,233.6
					L156.7,233.6z M164.2,221l6-9.7l-1.7-2.7h-11.9l-2.9,4.8l4.7,7.7h5.9V221z M153.6,213.2l-4.7,7.7h9.3L153.6,213.2z M188.1,181.8
					l-6.6-11h-2.1l-7.5,12.7h15.4L188.1,181.8z M202.2,158.2l3.6-6l-4-6.7h-7.4l-5.2,8.7l2.3,4L202.2,158.2L202.2,158.2z M144.7,228
					l-3.5,5.6h6.7L144.7,228z M198.2,139.5l-3.7,6.2h7.4L198.2,139.5z M189.1,154.2l-2.3,4h4.8L189.1,154.2z M180.2,169.1l-1.2,1.7
					h2.1L180.2,169.1z M194.5,170.7l2.2-3.7l-5.3-8.8h-4.7l-6.6,10.9l1.2,1.7h13.3V170.7z M155.6,246.2l4.4,7.3l4.4-7.3H155.6z
					 M202.9,258.7h13.6l-6.7-11.3L202.9,258.7z M210.5,246.2l-0.7,1.3l6.7,11.3h1.8l7.5-12.7L210.5,246.2L210.5,246.2z M187.5,258.7
					h11.1l-5.5-9.2L187.5,258.7z M208.8,246.2h-13.7l-2.1,3.3l5.5,9.2h4.3l6.7-11.3L208.8,246.2z M225.8,246.2l-7.5,12.7h15.4
					l0.3-0.5l-7.1-12.1L225.8,246.2L225.8,246.2z M147.9,233.6h-6.7l-5.5,9.2l2.1,3.5h11.3l3.3-5.3L147.9,233.6z M233.8,258.2
					l7.3-12.1h-14.5L233.8,258.2z M168.9,238.8l-3-5.2h-9.1l-4.4,7.1l3.3,5.3h8.8L168.9,238.8z M191.1,246.2h-11.3l-3.1,5.3l4.4,7.1
					h6.7l5.6-9.2L191.1,246.2z M209.7,145.7l4.8-8.2l-2.6-4.4h-9.8l-4,6.5l3.7,6.2L209.7,145.7L209.7,145.7z M149,246.2h6.6
					l-3.3-5.3L149,246.2z M173.3,246.2h-8.9l-4.4,7.3l3.1,5.2h8.9l4.4-7.1L173.3,246.2z M172.1,258.7h8.7l-4.4-7.1L172.1,258.7z
					 M255.1,145.7l-7.3-12.2l-7.3,12.2H255.1z M277.2,211.9l5.5,9.1h4.4l6.7-11.1l-0.8-1.5h-13.6L277.2,211.9z M292.9,208.6
					l-6.7-11.3l-6.7,11.3H292.9z M284.8,224.8l2.2-3.7h-4.4L284.8,224.8z M271.6,221l-3.5,5.8l4.1,6.9h7l5.3-8.9l-2.2-3.7h-10.8V221
					z M263.8,183.4l-1.9,3.1l5.8,9.5h4l6.9-11.4l-0.7-1.2h-14V183.4z M285.3,195.9l-6.9-11.4l-6.9,11.4H285.3z M269.5,199.3l5.6,9.2
					h4.3l6.7-11.3l-0.7-1.3h-13.7L269.5,199.3z M233.4,233.6h3.5l-1.7-2.9L233.4,233.6z M278.5,184.4l0.7-1.2h-1.4L278.5,184.4z
					 M229.3,221h-3.7l-7.1,11.7l0.5,0.8h14.3l1.7-2.9L229.3,221z M207,124.8l-4.9,8.3h9.9L207,124.8z M247.2,221H241l-5.8,9.6
					l1.7,2.9h11.8l3-4.8L247.2,221z M264.9,221h-8.6l-4.7,7.5l3,4.8h9.5l4.1-6.9L264.9,221z M248.8,233.6h6l-3-4.8L248.8,233.6z
					 M264.2,233.6h8.3l-4.1-6.9L264.2,233.6z M277.8,183.4h1.4l7.6-12.7h-15.4l-0.5,0.9L277.8,183.4z M232.7,133.1h-3l1.5,2.5
					L232.7,133.1z M237.4,145.7h3.1l7.3-12.2l-0.3-0.4h-14.8l-1.5,2.5L237.4,145.7z M229.8,133.1l-6.2-10.4l-6.2,10.4H229.8z
					 M237,233.6h-3.6l-7.1,11.8l0.4,0.7h14.5l1.7-2.7L237,233.6z M217.4,133.1l6.2-10.4l-1.4-2.2h-12.7l-2.5,4.3l4.9,8.3H217.4
					L217.4,133.1z M214.7,137.5l4.8,8.2h5.6l6.2-10.1l-1.5-2.5h-12.3L214.7,137.5z M254.2,173.8l5.8,9.6h3.9l7-11.7l-0.5-0.9h-14.1
					L254.2,173.8z M270.3,170.7l-7.1-11.8l-7.1,11.8H270.3z M271.3,170.7h-1.2l0.5,0.9L271.3,170.7z M246.6,161.1l5.8,9.7h3.6
					L263,159l-0.4-0.7h-14.4L246.6,161.1z M238.9,148.1l6,9.9h3.5l7.1-11.9l-0.3-0.7h-14.5L238.9,148.1z M262.7,158.2l-7.1-11.9
					l-7.1,11.9H262.7z M154.9,185.9l-6.2,10.1H161L154.9,185.9z M194.5,145.7l3.7-6.2l-4-6.5h-7.5l-5.1,8.6l2.5,4.1H194.5z
					 M181.6,141.6l-2.5,4.1h4.9L181.6,141.6z M190.4,126.9l-3.9,6.2h7.5L190.4,126.9z M180.2,169.1l-6.5-10.9h-2.2l-7.5,12.7h15.4
					L180.2,169.1z M171.7,183.4l7.5-12.7h-15.4l-0.3,0.3l7.4,12.2L171.7,183.4L171.7,183.4z M201.9,133.1l4.9-8.3l-2.5-4.3h-10.1
					l-3.9,6.2l3.9,6.2h7.7V133.1z M172.6,156.3l-1.2,1.9h2.3L172.6,156.3z M186.8,158.2l2.3-4l-5.2-8.7H179l-6.5,10.8l1.2,1.9H186.8
					L186.8,158.2z M216,110.1l1.3-2.1h-2.5L216,110.1z M222.3,120.5h2.7l7.5-12.5v-0.1h-15.3L216,110L222.3,120.5z M217.1,107.9
					l7.5-12.7h-15.4l-1.2,1.9l6.3,10.8C214.4,107.9,217.1,107.9,217.1,107.9z M240,120.5l-7.5-12.5l-7.5,12.5H240z M208.4,97.3
					l-6.5,10.8h12.8L208.4,97.3z M199.3,112.2l-5.1,8.6h10.1L199.3,112.2z M209.6,120.5l6.3-10.5l-1.3-2.1h-12.8l-2.5,4.1l5.1,8.6
					h5.1V120.5z M133.6,246.2l2.1-3.5l-5.5-9.2h-4.4l-6.7,11.1l0.8,1.4L133.6,246.2L133.6,246.2z M128.1,230l-2.1,3.6h4.4L128.1,230
					z M119.2,244.9l-0.8,1.4h1.7L119.2,244.9z M141.3,233.6l3.5-5.6l-4.3-7h-6.9l-5.3,8.9l2.1,3.6h11L141.3,233.6L141.3,233.6z
					 M163.7,171.1l-7.4,12.2h14.8L163.7,171.1z M126.2,258.7h1.5l-0.7-1.2L126.2,258.7z M120,246.2h-1.7l-7.5,12.7h15.4l0.7-1.2
					L120,246.2z M137.7,246.2h-4.1l-6.9,11.3l0.7,1.2h13.9l1.9-3.1L137.7,246.2z M156.4,208.6l6.1-9.9l-1.7-2.6h-12.2l-2.7,4.7
					l4.8,7.9h5.8V208.6z M164.1,195.9l7.3-12.2l-0.3-0.4h-14.8l-1.5,2.5l6.1,10.1H164.1z M145.9,200.5l-4.8,7.9h9.5L145.9,200.5z
					 M137.1,215.3l-3.5,5.8h6.9L137.1,215.3z M148.9,221l4.7-7.7l-2.9-4.8h-9.5l-4.1,6.7l3.5,5.8L148.9,221L148.9,221z M286,197.3
					l0.7-1.3h-1.7L286,197.3z M301.4,222.7l0.9-1.7h-2.1L301.4,222.7z M287,221l-2.2,3.7l5.3,8.9h4.7l6.6-10.9l-0.9-1.7H287L287,221
					z M292.5,237.4l5.3,8.7h4.8l6.5-10.8l-1.2-1.8h-13.2L292.5,237.4z M292.9,208.6h1.8l7.5-12.7h-15.4l-0.7,1.3L292.9,208.6z
					 M293.8,209.9l0.8-1.5h-1.8L293.8,209.9z M300.5,221h2.1l7.5-12.7h-15.4l-0.8,1.5L300.5,221z M308,233.6l-6.6-10.9l-6.6,10.9
					H308z M256.5,246.2h5.8l-2.9-4.8L256.5,246.2z M272.5,233.6h-8.3l-4.8,7.8l2.9,4.8h9.6l4-6.7L272.5,233.6z M254.6,233.6h-6
					l-6,9.9l1.7,2.7h12.1l2.9-4.8L254.6,233.6z M271.9,246.2h8.2l-4-6.7L271.9,246.2z M223.6,122.7l6.2,10.4h3l7.4-12.2l-0.1-0.3
					h-15L223.6,122.7z M290.1,233.6h-10.7l-3.5,6l4,6.7h7.1l5.3-8.7L290.1,233.6z M287.3,246.2h10.5l-5.3-8.7L287.3,246.2z
					 M255.1,145.7h0.7l7.5-12.7H248l-0.3,0.4L255.1,145.7z M262.7,158.2h0.9l7.5-12.7h-15.4l-0.3,0.7L262.7,158.2z M247.9,133.5
					l0.3-0.4h-0.5L247.9,133.5z M255.5,146.3l0.3-0.7h-0.7L255.5,146.3z M240.3,120.5h-0.3l0.1,0.3L240.3,120.5z M247.6,133.1h0.5
					l7.5-12.7h-15.4l-0.1,0.3L247.6,133.1z M287.9,170.7l-0.7-1.2l-0.7,1.2H287.9z M241.2,246.2h3.3l-1.7-2.7L241.2,246.2z
					 M279,183.4h15.4l0.5-0.8l-7-11.7h-1.2L279,183.4z M278.5,184.4l6.9,11.4h1.7l7.5-12.7h-15.4L278.5,184.4z M263,159l0.4-0.7
					h-0.9L263,159z M286.8,170.7l0.7-1.2l-6.9-11.5h-1.5l-7.5,12.7H286.8z M270.3,170.7h1.2l7.5-12.7h-15.3l-0.4,0.7L270.3,170.7z
					 M80.9,358.8l7.3-12.1H73.7L80.9,358.8z M213.5,342.7l5.2-8.6h-10.4L213.5,342.7z M230.1,340.6l4-6.6h-7.8L230.1,340.6z
					 M170.2,359.3l-6.3-10.6l-6.3,10.6H170.2z M197,344.7l6.3-10.6h-12.7L197,344.7z M180.4,346.7L180.4,346.7L180.4,346.7
					L180.4,346.7z M263.4,336.6l1.5-2.5h-3L263.4,336.6z M246.7,338.7l2.7-4.5h-5.5L246.7,338.7z M279.5,334.1l-7.3-12.2l-7.4,12.2
					H279.5z M8.2,296.4l1.7,2.6l1.7-2.6H8.2z M329.5,328.5l4.3-7.1h-8.6L329.5,328.5z M346.2,326.6l3-5.1h-6.1L346.2,326.6z
					 M296.5,332.7l6.7-11.1h-13.5L296.5,332.7z M313,330.6l5.5-9.1h-10.9L313,330.6z M98.8,329.2l4.7-7.7h-9.2L98.8,329.2z
					 M41.5,322.6l0.7-0.9H41L41.5,322.6z M82.4,331.3l5.8-9.7H76.4L82.4,331.3z M24.9,324.5l1.8-3h-3.6L24.9,324.5z M65.7,333.2
					l7.1-11.7H58.9L65.7,333.2z M11.3,321.7h11.8l-5.8-9.7L11.3,321.7z M3.6,309h11.9l-6-9.9L3.6,309z M147.3,350.7l2.5-4H145
					L147.3,350.7z M379.2,322.6l0.7-1.2h-1.3L379.2,322.6z M163.8,348.8l1.2-2.1h-2.5L163.8,348.8z M134.4,346.7h10.5l-5.3-8.7
					L134.4,346.7z M111.2,334.1h8.3l-4.1-6.9L111.2,334.1z M123.1,340.1l3.5-5.8h-7.1L123.1,340.1z M362.6,324.5l1.8-3h-3.7
					L362.6,324.5z M154.3,7.4l0.4,0.7l0.4-0.7H154.3z M141.5,45.3l3.1,5.2l3.1-5.2H141.5z M139.9,32.6c4,0,7.3,0,11.7,0l-5.8-9.6
					L139.9,32.6z M144.1,20l1.7,2.9l1.7-2.9H144.1z M174.7-17.6l5.5,9.1l5.5-9.1C181.2-17.6,179-17.6,174.7-17.6z M197.9-38.1
					l-4.8,7.8h9.5L197.9-38.1z M164.6-5.1l6.7,11.3L178-5.1C172.4-5.1,169.6-5.1,164.6-5.1z M108,107.9l0.8,1.4l0.8-1.4H108z
					 M92.4,111.3l-5.5,9.1h11L92.4,111.3z M80.2,120.5l3.5,5.6l3.5-5.6C87.1,120.5,80.2,120.5,80.2,120.5z M121,70.3l5.8,9.6
					l5.8-9.6C128.5,70.3,124.7,70.3,121,70.3z M110.6,82.9l7.1,11.8l7.1-11.8H110.6z M131.1,57.6l4.4,7.4l4.4-7.4
					C139.9,57.6,131.1,57.6,131.1,57.6z M229.8-14.7L224-5.2c5.5,0,5.8,0,11.4,0L229.8-14.7z M416.9,296.4l-3.1-5.3l-3.1,5.3H416.9z
					 M418,283.8h-8.7l4.4,7.1L418,283.8z M411.9,258.7l-4.8-7.8l-4.8,7.8H411.9z M410.1,271.3h-8.6l4.3,7.1L410.1,271.3z
					 M208.6-30.2h-6l3,4.8L208.6-30.2z M418.2,309h-11.5l5.8,9.5L418.2,309z M406.6,309l-1.9-3.1l-1.9,3.1H406.6z M395.7,320.5
					l7-11.5h-14L395.7,320.5z M216.3-17.6c-2.9,0-3.3,0-6.2,0l3,5.1L216.3-17.6z M261.7,8.8L255,19.9h13.5L261.7,8.8z M247.2,7.4
					h-4.1l2.1,3.5L247.2,7.4z M239.4-5.1c-1.9,0-2.1,0-4,0l1.9,3.1L239.4-5.1z M148.9,57.6l3.3,5.3l3.3-5.3
					C155.6,57.6,148.9,57.6,148.9,57.6z M394.8,246.2h-8.2l4,6.7L394.8,246.2z M386.9,233.6h-7.8l4,6.6L386.9,233.6z M394.2,258.7
					l-3.5-5.8l-3.5,5.8H394.2z M220.9,0.1l-4.4,7.3h8.8L220.9,0.1z M394.9,271.3H384l5.3,9.1L394.9,271.3z M402.7,283.8h-11.1
					l5.5,9.2L402.7,283.8z M399.1,296.4L397,293l-2.1,3.3H399.1z M284.7,47l-6.5,10.8H291L284.7,47z M252.8,23.5l-5.3,8.9
					c5.3,0,5.3,0,10.9,0L252.8,23.5z M231.9,7.4h-6.5l3.3,5.3L231.9,7.4z M239.7,20H233l3.5,5.6L239.7,20z M270.5,45.3h-4.8l2.3,4
					L270.5,45.3z M262.8,32.6c-2.2,0-2.2,0-4.5,0l2.2,3.7L262.8,32.6z M389.2,221l-5.1-8.4L379,221H389.2z M255.5,324l1.4-2.3h-2.9
					L255.5,324z M388.2,307.8l6.9-11.4h-13.7L388.2,307.8z M288.7,319.8l6.6-10.9h-13.2L288.7,319.8z M18.3,283.8l0.3,0.4l0.3-0.4
					H18.3z M206,329.8l5.1-8.4h-10L206,329.8z M222.6,328l3.9-6.3h-7.6L222.6,328z M272,321.7l-7.4-12.3l-7.5,12.3H272z M355,311.9
					l1.7-2.9h-3.5L355,311.9z M305.3,317.9l5.3-8.9h-10.8L305.3,317.9z M371.6,309.9l0.5-0.8h-1.2L371.6,309.9z M321.9,315.8
					l4.1-6.9h-8.3L321.9,315.8z M338.5,313.9l3-4.8h-6L338.5,313.9z M239,325.9l2.6-4.4h-5.3L239,325.9z M85,158.2l4.8,8.2l4.8-8.2
					H85z M61.9,208.6l1.3,2.1l1.3-2.1H61.9z M64.5,183.4l7.5,12.5l7.5-12.5H64.5z M208.8-5.1c-4,0-4.8,0-8.7,0l4.4,7.1L208.8-5.1z
					 M87.6,133.1l3.5,5.8l3.3-5.8H87.6z M87,145.7h8.2l-4.1-6.7L87,145.7z M74.6,170.7l6.2,10.4l6.2-10.4H74.6z M49,208.6h12.8
					L55.5,198L49,208.6z M31.2,246.2l5.2,8.7l5.2-8.7H31.2z M189.4,331.9l6.2-10.5h-12.5L189.4,331.9z M41.4,233.6l4,6.5l4-6.5H41.4
					z M51.5,221l2.5,4.3l2.5-4.3H51.5z M99.9,124.1l-5.3,8.9h10.9L99.9,124.1z M172,7.4l6.9,11.4l6.9-11.4
					C185.8,7.4,172,7.4,172,7.4z M182.2-5.1l5.5,9.2l5.6-9.2C188.6-5.1,186.9-5.1,182.2-5.1z M161.7,20l0.5,0.8l0.5-0.8H161.7z
					 M155.4,32.6c5.3,0,8.3,0,14,0l-7-11.7L155.4,32.6z M192.5-17.6l4.3,7.1l4.3-7.1C197.3-17.6,196.1-17.6,192.5-17.6z M196.7-10.6
					L193.3-5c3,0,3.6,0,6.7,0L196.7-10.6z M128.5,82.9l5.8,9.7l6-9.7H128.5z M115.6,120.5l0.9,1.7l0.9-1.7H115.6z M118.3,95.3
					l7.1,11.9l7.1-11.9H118.3z M159.2,45.3l1.9,3.3l1.9-3.3H159.2z M69.8,133.1l4.7,7.7l4.7-7.7H69.8z M138.7,70.3l4.5,7.5l4.5-7.5
					C144.4,70.3,142,70.3,138.7,70.3z M21,258.7l6.5,10.9l6.6-10.9H21z M-27,334.1h4.4l-2.1-3.6L-27,334.1z M-30.2,321.7l5.3,8.9
					l5.3-8.9H-30.2z M-17.1,343.3l5.5-9.2h-11.1L-17.1,343.3z M-33.7,345.3L-27,334h-13.6L-33.7,345.3z M-27.1,309h7.1l-3.6-6
					L-27.1,309z M-27.5,296.4l4,6.7l4-6.7H-27.5z M7.1,354l4.4-7.3H2.6L7.1,354z M56.8,347.9l0.8-1.3h-1.5L56.8,347.9z M325.7,258.7
					h15.2l-7.5-12.7l0,0L325.7,258.7z M-3.9,346.7h6.5l-3.3-5.3L-3.9,346.7z M96.1,359.3h3l-1.6-2.5L96.1,359.3z M-27.2,283.8h9.9
					l-4.9-8.3L-27.2,283.8z M19.2,359.3h8.7l-4.4-7.1L19.2,359.3z M45.8,359.3l-5.5-9.2l-5.6,9.2H45.8z M100.5,95.3l0.7,1.3l0.7-1.3
					C101.8,95.3,100.5,95.3,100.5,95.3z M84.7,98.7L79,108h11.3L84.7,98.7z M103.2,70.3l7,11.7l7-11.7
					C112.8,70.3,107,70.3,103.2,70.3z M56.2,145.7h3.5L58,143L56.2,145.7z M113.2,57.6l5.8,9.5l5.8-9.5
					C124.7,57.6,113.2,57.6,113.2,57.6z M123.6,45.3l4.4,7.1l4.4-7.1H123.6z M18.3,208.6h7.9l-4-6.7L18.3,208.6z M16,221l4.9,8.3
					l4.9-8.3H16z M5.8,233.6l6.2,10.5l6.3-10.5H5.8z M49.3,158.2l7.3,12.2l7.3-12.2H49.3z M40.1,172.4l-6.7,11h13.2L40.1,172.4z
					 M-13.4,260.7l-6.3,10.5h12.5L-13.4,260.7z M394.5,348l0.8-1.4h-1.7L394.5,348z M-50.2,347.3l0.4-0.7h-0.7L-50.2,347.3z
					 M-25.9,358.1l6.9-11.3h-13.6L-25.9,358.1z M-11.4,359.3h4l-1.9-3.1L-11.4,359.3z M-48,321.7l6.6,11l6.7-11H-48z M-42.4,309h4.8
					l-2.3-4L-42.4,309z M418.8,358.8l7.3-12.1h-14.5L418.8,358.8z M464.9,346.7l-4-6.7l-4,6.7H464.9z M200.5-93L193-80.4h15.2
					L200.5-93z M472.5,359.3l-4-6.5l-4,6.5H472.5z M-72.9,359.3H-61l-6-9.9L-72.9,359.3z M191.6-78.3l-6.3,10.5h12.5L191.6-78.3z
					 M435.3,356.7l6.2-10h-12.2L435.3,356.7z M452,354.7l4.8-8.2H447L452,354.7z M361.4,352.1l3.3-5.3h-6.5L361.4,352.1z
					 M344.9,354.1l4.4-7.4h-8.9L344.9,354.1z M124.5,32.6c2.7,0,6.2,0,9.2,0l-4.7-7.5L124.5,32.6z M378,350.1l2.1-3.5h-4.1
					L378,350.1z M294.7,359.3l-7.1-11.8l-7.1,11.8H294.7z M328.4,356.2l5.8-9.5h-11.4L328.4,356.2z M311.8,358.1l6.9-11.4H305
					L311.8,358.1z M457.2,334.1l-4.1-6.7l-4.1,6.7H457.2z M215.8-67.6l-7.4,12.2h14.7L215.8-67.6z M411.1,346.2l7.1-11.9h-14.3
					L411.1,346.2z M200.7-67.9h-2.9l1.4,2.3L200.7-67.9z M444.2,342l4.8-7.9h-9.5L444.2,342z M427.6,344.1l6.1-9.9h-11.9
					L427.6,344.1z M221.3,355.4l5.3-8.7h-10.5L221.3,355.4z M3.9,334.1H13l-4.5-7.5L3.9,334.1z M38.3,346.7l-5.6-9.5l-5.8,9.5H38.3z
					 M32.6,337.3l1.9-3.1h-3.9L32.6,337.3z M16,339.3l3-5.2h-6.2L16,339.3z M204.7,357.3l6.5-10.8h-13L204.7,357.3z M-4,321.7h9.3
					L0.7,314L-4,321.7z M-11.7,309h9.5L-7,301L-11.7,309z M114.3,354.7l4.8-8.2h-9.6L114.3,354.7z M126.7,359.3h7.8l-4-6.6
					L126.7,359.3z M103.6,346.7h5.8l-2.9-4.7L103.6,346.7z M49.2,335.3l0.7-1.2h-1.4L49.2,335.3z M89.9,344l6-9.9H84L89.9,344z
					 M73.4,345.9l7.1-11.8H66.3L73.4,345.9z M-8.2,328.5l4.3-7h-8.6L-8.2,328.5z M36.4,195.9l2.3,4l2.3-4H36.4z M47.9,185l-6.6,10.9
					h13.1L47.9,185z M33.7,208.6h10.5l-5.2-8.6L33.7,208.6z M-9.7,296.4l2.7,4.7l2.7-4.7H-9.7z M67.2,158.2l6.1,10.1l6.2-10.1H67.2z
					 M57.1,170.7l7.4,12.2l7.4-12.2H57.1z M33.8,221l3.9,6.2l3.9-6.2H33.8z M23.6,233.6l5.1,8.6l5.1-8.6H23.6z M0.5,283.8l1.5,2.5
					l1.5-2.5H0.5z M-11.9,283.8H0.4l-6.2-10.4L-11.9,283.8z M13.4,246.2l6.3,10.8l6.5-10.8H13.4z M10.8,271.3l0.3,0.3l0.3-0.3H10.8z
					 M237.8,353.4l4-6.7h-8.2L237.8,353.4z M216.2-42.9c-1.4,0-1.9,0-3.3,0l1.7,2.7L216.2-42.9z M238.8-29.4l-7.1,11.7
					c6.7,0,7.1,0,14,0L238.8-29.4z M223.9-30.2h-3.5l1.7,2.9L223.9-30.2z M434.5,296.4l-4.4-7.3l-4.4,7.3H434.5z M433.6,309h-9.1
					l4.5,7.5L433.6,309z M441.2,321.7h-9.3l4.7,7.7L441.2,321.7z M167.2-30.2l5.3,8.9l5.3-8.9H167.2z M177.4-42.9l4,6.7l4-6.7
					C182.6-42.9,179.9-42.9,177.4-42.9z M431.9,321.7l-3-4.9l-3,4.9H431.9z M187.7-55.4l2.7,4.5l2.7-4.5H187.7z M206.9-52.8l-6.1,10
					c4.7,0,7.1,0,12.1,0L206.9-52.8z M190.4-50.8l-4.8,8.2c3.3,0,6.2,0,9.6,0L190.4-50.8z M370.4,337.3l1.9-3.1h-4L370.4,337.3z
					 M287,346.7l-7.1-12.1l-7.3,12.1H287z M270.9,349.3l1.7-2.6h-3.3L270.9,349.3z M291.3,264.9l3.7-6.2h-7.4L291.3,264.9z
					 M304,345.3l6.7-11.3h-13.6L304,345.3z M254.5,351.4l2.9-4.7h-5.8L254.5,351.4z M156.9-17.6l6.7,11.1l6.7-11.1
					C165.2-17.6,161.5-17.6,156.9-17.6z M403.5,333.3l7.1-11.8h-14.1L403.5,333.3z M420.1,331.3l6-9.7h-11.8L420.1,331.3z
					 M337.2,341.5l4.4-7.1h-8.7L337.2,341.5z M386.9,335.4l0.7-1.2h-1.6L386.9,335.4z M71.6,145.7h5.8l-2.9-4.8L71.6,145.7z
					 M353.8,339.4l3.1-5.2h-6.2L353.8,339.4z M320.5,343.3l5.6-9.2H315L320.5,343.3z M151.2,120.5l6.2,10.4l6.2-10.4
					C163.5,120.5,151.2,120.5,151.2,120.5z M161.4,107.9l4.8,8.2l4.8-8.2H161.4z M140.9,133.1l7.5,12.5l7.5-12.5H140.9z M171.6,95.3
					l3.6,6l3.6-6H171.6z M138.3,158.2l1.3,2.1l1.3-2.1H138.3z M181.8,82.9l2.2,3.7l2.2-3.7H181.8z M117.8,183.4l4,6.5l4-6.5H117.8z
					 M94.7,233.6L95,234l0.3-0.4H94.7z M84.6,246.2l1.7,2.6l1.7-2.6H84.6z M97.3,208.6l6.5,10.9l6.6-10.9H97.3z M192.1,70.3l0.9,1.7
					l0.9-1.7C193.1,70.3,192.9,70.3,192.1,70.3z M128.1,170.7l2.5,4.3l2.5-4.3H128.1z M107.6,195.9l5.2,8.7l5.2-8.7H107.6z
					 M278.6,107.9h-10.6l5.3,8.8L278.6,107.9z M74.2,258.7l2.9,4.8l2.9-4.8H74.2z M194.7,45.3l7.1,11.9l7.1-11.9H194.7z
					 M286.5,120.5h-10.9l5.3,8.9L286.5,120.5z M270.8,95.3h-10.5l5.2,8.7L270.8,95.3z M309.5,133.1h-8.6l4.4,7.1L309.5,133.1z
					 M297.4,127.4l-3.5,5.6h6.7L297.4,127.4z M258,91.4l-2.5,4.1h4.9L258,91.4z M216.9,57.6h-14.5l7.1,12.2L216.9,57.6z M247.7,82.9
					H235l6.2,10.5L247.7,82.9z M317.3,145.7h-8.8l4.4,7.3L317.3,145.7z M240,70.3c-6.2,0-6.2,0-12.3,0l6.2,10.4L240,70.3z
					 M226.1,67.7l-1.5,2.5c1.5,0,1.5,0,3,0L226.1,67.7z M201.9,57.2l-0.3,0.7h0.7L201.9,57.2z M339.7,286.5l1.5-2.5h-3L339.7,286.5z
					 M356.3,284.4l0.3-0.5h-0.7L356.3,284.4z M358.6,258.7l-1.2-1.8l-1.2,1.8H358.6z M63.9,271.3l4.3,7l4.3-7H63.9L63.9,271.3z
					 M290,292.4l5.2-8.6h-10.4L290,292.4z M306.5,290.3l4-6.6h-7.8L306.5,290.3z M348.9,183.4l-4.1-6.9l-4.1,6.9H348.9z
					 M356.2,208.6h-9.9l4.8,8.2L356.2,208.6z M348.4,195.9h-9.6l4.8,8.2L348.4,195.9z M273.5,294.4l6.3-10.6h-12.7L273.5,294.4z
					 M353.8,221l-2.6-4.4l-2.6,4.4H353.8z M364,246.2h-13l6.5,10.8L364,246.2z M356.2,233.6h-12.7l6.3,10.6L356.2,233.6z
					 M323.2,288.3l2.7-4.5h-5.5L323.2,288.3z M75.9,291l4.4-7.1h-8.6L75.9,291z M92.5,289l3-5.2h-6.2L92.5,289z M109,287l1.9-3.1
					h-3.9L109,287z M59.4,293l5.5-9.2H53.8L59.4,293z M125.7,285l0.7-1.2H125L125.7,285z M64.9,283.8h6.7l-3.5-5.6L64.9,283.8z
					 M174.1,306.4l6.1-10H168L174.1,306.4z M207.1,302.5l3.6-6.1h-7.3L207.1,302.5z M223.6,300.4l2.5-4h-4.8L223.6,300.4z
					 M157.6,308.4l7.3-12.1h-14.5L157.6,308.4z M190.7,304.4l4.8-8.2h-9.6L190.7,304.4z M240.3,298.4l1.2-2.1h-2.5L240.3,298.4z
					 M332.1,273.7l1.4-2.3h-2.9L332.1,273.7z M179.1,107.9l3.7,6.2l3.7-6.2H179.1z M263.4,107.9h-13.1l6.5,10.9L263.4,107.9z
					 M189.4,95.3l2.3,4l2.3-4C194,95.3,189.4,95.3,189.4,95.3z M105,221l6.6,11l6.7-11H105z M249,106.1l-1.2,1.9h2.3L249,106.1z
					 M232.4,82.9h-15l7.5,12.5L232.4,82.9z M217.1,82.6l-0.1,0.3h0.3L217.1,82.6z M135.5,183.4l2.6,4.4l2.6-4.4H135.5z M125.4,195.9
					l4,6.7l4-6.7H125.4z M115.2,208.6l5.3,8.8l5.3-8.8H115.2z M158.6,133.1l6.2,10.5l6.3-10.5H158.6z M168.9,120.5l4.9,8.3l4.9-8.3
					C178.8,120.5,168.9,120.5,168.9,120.5z M145.8,170.7l1.4,2.2l1.4-2.2H145.8z M199.6,82.9l1.2,1.7l1.2-1.7H199.6z M318.2,221
					l-0.3-0.3l-0.3,0.3H318.2z M325.4,208.6h-14.7l7.3,12.2L325.4,208.6z M317.6,195.9h-14.5l7.1,12.1L317.6,195.9z M313.2,183.4
					l-1.7-2.9l-1.7,2.9H313.2z M324.4,260.8l1.3-2.2h-2.6L324.4,260.8z M307.8,262.9l2.5-4.1h-5.1L307.8,262.9z M271.1,120.5h-13.2
					l6.6,11L271.1,120.5z M288.7,142.3l-2.1,3.5h4.1L288.7,142.3z M278.7,133.1h-13.5l6.7,11.1L278.7,133.1z M309.7,158.2h-11.4
					l5.8,9.5L309.7,158.2z M317.4,170.7h-11.7l5.8,9.6L317.4,170.7z M301.8,145.7h-11.3l5.6,9.3L301.8,145.7z M232.7,285.6l1.2-1.8
					h-2.2L232.7,285.6z M348.1,170.7h-6.7l3.5,5.6L348.1,170.7z M348.5,271.3L341,259l-7.5,12.3H348.5z M340.9,233.6h-15.2l7.5,12.7
					L340.9,233.6z M102.2,246.2l0.3,0.7l0.4-0.7H102.2z M282.4,279.6l5.1-8.4h-10.1L282.4,279.6z M298.8,277.7l3.9-6.3h-7.5
					L298.8,277.7z M332.8,170.7h-9.2l4.7,7.5L332.8,170.7z M331.1,183.4l-3-4.8l-3,4.8H331.1z M265.7,281.7l6.2-10.5h-12.3
					L265.7,281.7z M333.1,195.9H321l6.1,10L333.1,195.9z M335.9,221l-1.4-2.3l-1.4,2.3H335.9z M340.7,208.6h-12.2l6.2,10.1
					L340.7,208.6z M315.4,275.6l2.6-4.4h-5.3L315.4,275.6z M101.3,274.2l1.8-3h-3.6L101.3,274.2z M117.9,272.3l0.5-0.9h-1
					L117.9,272.3z M249.3,283.8l-0.1-0.3l-0.1,0.3H249.3z M87.8,271.3h11.8l-5.8-9.7L87.8,271.3z M92.1,258.7l1.7,2.7l1.7-2.7H92.1z
					 M149.8,295.8l7.1-11.8h-14.3L149.8,295.8z M84.8,276.3l3-4.9h-6.1L84.8,276.3z M325,158.2h-8.9l4.5,7.5L325,158.2z
					 M216.1,287.7l2.3-3.9h-4.7L216.1,287.7z M199.6,289.8l3.5-5.8h-7.1L199.6,289.8z M166.4,293.8l6-9.9h-11.8L166.4,293.8z
					 M183,291.7l4.8-7.8h-9.5L183,291.7z M133.3,120.5l7.4,12.2l7.4-12.2H133.3z M255.1,45.3H248l3.6,6L255.1,45.3z M293.8,82.9
					h-5.3l2.6,4.4L293.8,82.9z M166.8,57.6l2.1,3.5l2.1-3.5H166.8z M244,38.3l-4.1,6.7h8.2L244,38.3z M275.7,61.9l-5.1,8.6
					c5.1,0,5.2,0,10.1,0L275.7,61.9z M286,70.3c-2.5,0-2.6,0-5.2,0l2.5,4.3L286,70.3z M262.8,57.6h-7.3l3.7,6.2L262.8,57.6z
					 M189.9,7.4l5.6,9.5l5.8-9.5C201.3,7.4,189.9,7.4,189.9,7.4z M179.6,20l7,11.7l7-11.7H179.6z M176.9,45.3l0.7,1.3l0.7-1.3H176.9
					z M195.5,16.9l-1.9,3.1h3.9L195.5,16.9z M212.1,14.8l-3,5.2h6.2L212.1,14.8z M224.4,20h-9.1l4.5,7.5L224.4,20z M232,32.6
					c-4.5,0-4.8,0-9.3,0l4.7,7.7L232,32.6z M379.5,271.3h-13.3l6.7,11.1L379.5,271.3z M301.6,95.3H296l2.7,4.7L301.6,95.3z
					 M371.6,233.6h-10.4l5.1,8.6L371.6,233.6z M379.4,246.2h-10.5l5.2,8.7L379.4,246.2z M387.3,283.8h-13.6l6.7,11.3L387.3,283.8z
					 M373.8,283.8l-0.8-1.5l-0.9,1.5H373.8z M376.4,258.7l-2.3-3.9l-2.3,3.9H376.4z M366.8,183.4l-5.3-8.9l-5.3,8.9H366.8z
					 M371.6,221l-3.9-6.3l-3.9,6.3H371.6z M340.3,158.2h-6.6l3.3,5.5L340.3,158.2z M363.7,195.9h-7.1l3.6,6.1L363.7,195.9z
					 M371.5,208.6H364l3.7,6.2L371.5,208.6z M107.8,314.5l3.3-5.5h-6.7L107.8,314.5z M18.9,309h14.4l-7.1-11.9L18.9,309z
					 M74.6,318.5l5.8-9.5H69L74.6,318.5z M58,320.5l7-11.5H51.1L58,320.5z M33.8,309.9l0.5-0.8h-0.9L33.8,309.9z M28.4,271.3l6.6,11
					l6.7-11H28.4L28.4,271.3z M38.6,258.7l5.3,8.8l5.3-8.8H38.6z M25.8,296.4l0.4,0.7l0.4-0.7H25.8z M156.4,70.3l3.5,5.6l3.5-5.6
					C160.4,70.3,159.2,70.3,156.4,70.3z M142,334.1h13.2l-6.6-10.9L142,334.1z M156.3,335.9l1.2-1.8H155L156.3,335.9z M131.9,325.2
					l2.2-3.7h-4.4L131.9,325.2z M364,297.2l0.4-0.7h-0.8L364,297.2z M118.9,321.7h10.9l-5.3-9.1L118.9,321.7z M91.2,316.6l4.5-7.5
					h-9.1L91.2,316.6z M125.8,107.9l7.3,12.2l7.3-12.2H125.8z M102.2,145.7h10.6l-5.3-8.8L102.2,145.7z M112.8,145.7l2.3,4l2.3-4
					H112.8z M123.2,133.1l1.2,1.8l1.2-1.8H123.2z M135.9,95.3l6,9.9l6.1-9.9H135.9z M146.3,82.9l4.7,7.7l4.7-7.7H146.3z M59.1,233.6
					l2.6,4.4l2.6-4.4H59.1z M48.9,246.2l4,6.7l4-6.7H48.9z M69.4,221l1.4,2.2l1.4-2.2H69.4z M102.7,158.2l3.7,6.2l3.7-6.2H102.7z
					 M82.4,183.4l6.2,10.5l6.3-10.5H82.4z M92.5,170.7l4.9,8.3l4.9-8.3H92.5z M315.3,98l-6.1,9.9h12L315.3,98z M184.4,57.6l0.8,1.4
					l0.8-1.4H184.4z M224.5,45.3h-11.9l6,9.9L224.5,45.3z M187.2,32.6l7.1,11.8l7.1-11.8C194.8,32.6,193.4,32.6,187.2,32.6z
					 M164.1,82.9l3.5,5.8l3.5-5.8H164.1z M203.1,29.6l-1.8,3c1.7,0,1.9,0,3.6,0L203.1,29.6z M216.7,32.6c-5.6,0-6.2,0-11.8,0
					l5.8,9.7L216.7,32.6z M174.3,70.3l2.1,3.6l2.1-3.6C176.6,70.3,176.1,70.3,174.3,70.3z M130.7,145.7l1.2,1.9l1.2-1.9H130.7z
					 M120.4,158.2l2.5,4.1l2.5-4.1H120.4z M153.8,95.3l4.8,7.9l4.8-7.9H153.8z M110.2,170.7l3.9,6.2l3.9-6.2H110.2z M143.6,107.9
					l6.1,10.1l6.2-10.1H143.6z M172.9,334.1l-0.1-0.3l-0.1,0.3H172.9z M306.4,112.7l-4.7,7.7h9.3L306.4,112.7z M317.1,120.5H311
					l3,4.9L317.1,120.5z M99.9,183.4l5.1,8.6l5.1-8.6H99.9z M324.8,133.1h-6.2l3,5.2L324.8,133.1z M294,107.9h-8.3l4.1,6.7
					L294,107.9z M338.3,136.2l-5.8,9.5H344L338.3,136.2z M235,53.1l-2.7,4.7h5.6L235,53.1z M332.5,145.7h-6.3l3.1,5.3L332.5,145.7z
					 M247.6,57.6h-9.7l4.8,8.2L247.6,57.6z M255.4,70.3c-4.9,0-4.9,0-9.9,0l4.9,8.3L255.4,70.3z M286.1,95.3h-7.9l4,6.7L286.1,95.3z
					 M266.9,76.5l-3.9,6.2h7.5L266.9,76.5z M278.5,82.9h-7.7l4,6.5L278.5,82.9z M165.4,321.7l-0.3-0.3l-0.3,0.3H165.4z M198.2,317.1
					l4.9-8.2h-9.9L198.2,317.1z M126.5,309h13.6l-6.7-11.3L126.5,309z M181.6,319.2l6.2-10.1h-12.2L181.6,319.2z M140.9,310.5
					l0.8-1.5H140L140.9,310.5z M347.3,299.1l1.7-2.6h-3.3L347.3,299.1z M231.5,313.2l2.5-4.3h-5.1L231.5,313.2z M214.8,315.2
					l3.7-6.2h-7.4L214.8,315.2z M330.7,301.2l2.9-4.7h-5.8L330.7,301.2z M314.3,303.2l4-6.7h-8.2L314.3,303.2z M281.1,307.3
					l6.5-10.8h-13L281.1,307.3z M248,311.2l1.3-2.2h-2.6L248,311.2z M297.5,305.2l5.3-8.7h-10.5L297.5,305.2z M36,283.8l6.7,11.3
					l6.7-11.3H36z M89.8,195.9l6.3,10.8l6.5-10.8H89.8z M56.5,258.7l4.1,6.7l4.1-6.7H56.5z M46.3,271.3l5.3,8.9l5.3-8.9H46.3
					L46.3,271.3z M66.7,246.2l2.7,4.7l2.7-4.7H66.7z M76.8,233.6l1.5,2.5l1.5-2.5H76.8z M87.2,221l0.3,0.3l0.3-0.3H87.2z
					 M41.9,296.4h1.7l-0.8-1.4L41.9,296.4z M100.1,301.8l3.1-5.3h-6.5L100.1,301.8z M116.7,299.8l2.1-3.3h-4L116.7,299.8z
					 M83.5,303.8l4.4-7.3h-8.8L83.5,303.8z M50.5,307.8l6.9-11.3H43.8L50.5,307.8z M66.9,305.8l5.6-9.3H61.3L66.9,305.8z
					 M184.8-30.2l4.1,6.9l4.1-6.9H184.8z M42,321.7l-0.7,0.9l7,11.5h1.4l7.5-12.7L42,321.7L42,321.7z M34.5,334.1h14l-7-11.5
					L34.5,334.1z M58.7,321.7h-1.3l-7.5,12.7h15.4l0.5-0.8L58.7,321.7z M76.4,321.7h-3.7l-7.1,11.7l0.5,0.8h14.3l1.7-2.9L76.4,321.7
					z M333.3,246.2L333.3,246.2L333.3,246.2L333.3,246.2z M40.8,321.7H26.7l-1.8,3l5.8,9.6h3.9l7-11.5L40.8,321.7z M5.3,321.7l3,4.9
					l3-4.9H5.3z M-2.2,309l2.9,4.8l2.9-4.8H-2.2z M19.2,334.1h11.5l-5.8-9.6L19.2,334.1z M9.6,299l-1.7-2.6H-4.3L-7,301l4.8,7.9h5.8
					L9.6,299z M17.4,311.8l-1.7-2.7h-12l-2.9,4.8l4.7,7.7h6.1L17.4,311.8z M80.5,334.1H84l-1.7-2.9L80.5,334.1z M1.9,286.4l-6.2,10
					H7.9L1.9,286.4z M23.1,321.7H11.3l-3,4.9l4.5,7.5h6.2l5.8-9.6L23.1,321.7z M163.8,348.8l-1.2-2.1h-12.9l-2.5,4l5.2,8.6h5.1
					L163.8,348.8z M142.1,359.3h10.4l-5.2-8.6L142.1,359.3z M144.9,346.7h-10.5l-3.6,6.1l4,6.6h7.5l5.2-8.6L144.9,346.7z
					 M127.1,346.7l3.6,6.1l3.6-6.1H127.1L127.1,346.7z M180.4,346.7h-15.4l-1.2,2.1l6.3,10.6h2.6L180.4,346.7L180.4,346.7z
					 M94.3,321.7h-6.2l-5.8,9.7l1.7,2.9h11.8l3-4.8L94.3,321.7z M172.9,359.3h15.2l-7.5-12.7L172.9,359.3z M115.4,327.1l-3.5-5.8
					h-8.6l-4.7,7.7l3,4.8h9.5L115.4,327.1z M101.8,334.1l4.8,7.8l4.8-7.8H101.8z M95.8,334.1h6l-3-4.8L95.8,334.1z M119.1,346.7h8.2
					l-4-6.7L119.1,346.7z M139.7,338l-2.3-3.9h-10.8l-3.5,5.8l4,6.7h7.3L139.7,338z M119.6,334.1h-8.3l-4.8,7.8l2.9,4.7h9.6l4-6.7
					L119.6,334.1z M82.2,153.7l-2.7,4.7h5.6L82.2,153.7z M79.6,183.4l1.4-2.2l-6.2-10.4h-3l-7.4,12.2l0.1,0.3H79.6L79.6,183.4z
					 M64.3,183.1l-0.1,0.3h0.3L64.3,183.1z M73.1,168.4l-1.5,2.5h3L73.1,168.4z M87.2,170.7l2.6-4.4l-4.8-8.2h-5.6l-6.2,10.1
					l1.5,2.5L87.2,170.7L87.2,170.7z M61.9,208.6h2.5l7.5-12.7H56.5l-1.2,1.9L61.9,208.6z M11.3,296.4l7.3-12.1l-0.3-0.4H3.5
					L2,286.4l6.1,10H11.3z M83.3,126.1l-4.3,7h8.4L83.3,126.1z M180.4,346.7l7.5,12.7h0.3l7.5-12.7H180.4L180.4,346.7z M91.2,138.8
					l-3.5-5.8h-8.4l-4.7,7.7l2.9,4.8h9.5L91.2,138.8z M94.6,133.1l5.3-8.9l-2.1-3.6h-11l-3.5,5.6l4.3,7h6.9V133.1z M56.7,195.9h-2.3
					l1.2,1.9L56.7,195.9z M94.7,158.2l4-6.7l-3.6-6H87l-4.8,7.9l2.8,4.7H94.7z M77.4,145.7l4.8,7.9l4.8-7.9H77.4z M72,195.9
					l-7.5-12.5h-0.3L56.7,196L72,195.9L72,195.9z M19.8,256.8l-1.2,1.9h2.3L19.8,256.8z M34,258.7l2.3-4l-5.2-8.7h-4.8l-6.5,10.8
					l1.2,1.9H34L34,258.7z M178-5.1l2.1-3.5l-5.5-9.1c-1.7,0-2.7,0-4.4,0l-6.8,11.2l0.8,1.5C169.6-5.1,172.4-5.1,178-5.1z M28.8,242
					l-2.5,4.1h4.9L28.8,242z M18.7,283.8l7.5-12.7H11l-0.3,0.3l7.4,12.2h0.5v0.1H18.7z M10.9,271.6l-7.4,12.2h14.8L10.9,271.6z
					 M49.2,233.6l4.9-8.3l-2.5-4.3H41.5l-3.9,6.2l3.9,6.2h7.7V233.6z M46.4,212.7l-5.1,8.6h10.2L46.4,212.7z M56.8,221l6.3-10.5
					l-1.3-2.1H49l-2.5,4.1l5.1,8.6h5.1V221z M44.1,208.6l2.5,4.1l2.5-4.1H44.1z M41.5,246.2l3.7-6.2l-4-6.5h-7.5l-5.1,8.6l2.5,4.1
					H41.5z M37.6,227.4l-3.9,6.2h7.5L37.6,227.4z M55.4,197.9l-1.2-1.9H41.2l-2.3,4l5.2,8.6H49L55.4,197.9z M307.5,321.7h-4.4
					l-6.7,11.1l0.8,1.5h13.6l2.1-3.5L307.5,321.7z M427.1,283.8l-4.5-7.5l-4.5,7.5H427.1z M406,278.3l3.3,5.5h8.7l4.5-7.5l-3-5.1
					h-9.3L406,278.3z M419.6,271.3l-4.7-7.7l-4.7,7.7H419.6z M245.3,10.9l5.5,9.2h4.4L261.9,9l-0.8-1.4h-13.6L245.3,10.9z
					 M260.8,7.4l-6.7-11.3l-6.9,11.3H260.8z M412.3,318.7l1.8,3h11.8l3-4.9l-4.5-7.5h-6.2L412.3,318.7z M237.5-1.9l5.6,9.3h4.1
					l6.9-11.3l-0.7-1.3c-6.9,0-7.1,0-13.9,0L237.5-1.9z M406.6,309h-3.9l-7,11.5l0.7,0.9h14.1l1.8-3L406.6,309z M424.4,309l-3-5.2
					l-3,5.2H424.4z M413.6,291.2l3.1,5.3h8.9l4.4-7.3l-3.1-5.2h-9.1L413.6,291.2z M410.5,296.4l-5.8,9.5l1.9,3.1h11.5l3-5.2
					l-4.4-7.4H410.5z M421.3,303.8l4.4-7.4h-8.9L421.3,303.8z M410.6,321.7h3.6l-1.8-3L410.6,321.7z M253.3-5.1l-6.9-11.5l-7,11.5
					C246.3-5.1,246.4-5.1,253.3-5.1z M200.8-42.9c-2.2,0-3.6,0-5.8,0l2.9,4.7L200.8-42.9z M181.5-36l-3.5,5.8h7.1L181.5-36z
					 M172.5-21.3l-2.2,3.7c1.7,0,2.6,0,4.4,0L172.5-21.3z M202.7-30.2h6l6-9.9l-1.7-2.7c-4.9,0-7.4,0-12.1,0l-2.9,4.7L202.7-30.2z
					 M185.7-17.6l3.5-5.8l-4.1-6.9h-7.1l-5.3,8.9l2.2,3.7C179-17.6,181.2-17.6,185.7-17.6z M193.1-30.2l4.8-7.8l-2.9-4.7
					c-3.6,0-6.3,0-9.6,0l-4,6.7l3.5,5.8h8.3V-30.2z M231.8-17.6c-1.8,0-1.9,0-3.7,0l1.8,3L231.8-17.6z M213.4-12.7l4.5,7.5
					c3,0,3.3,0,6.3,0l5.8-9.5l-1.7-2.9c-5.6,0-6.2,0-11.7,0L213.4-12.7z M220.5-30.2l-6-9.9l-6,9.9H220.5z M235.7-5.1
					c1.9,0,2.1,0,4,0l7-11.5l-0.7-1.2c-7,0-7.3,0-14,0l-1.8,3L235.7-5.1z M205.6-25.4l4.7,7.7c2.7,0,3.3,0,6.2,0l5.8-9.6l-1.7-2.9
					h-11.8L205.6-25.4z M228-17.6l-5.8-9.6l-5.8,9.6C221.9-17.6,222.4-17.6,228-17.6z M341.6,334.1h8.9l-4.5-7.5L341.6,334.1z
					 M264.7,334.1l-1.5,2.5l6.1,10h3.3l7.3-12.1l-0.3-0.5h-14.8v0.1H264.7z M257.2,346.7h12.1l-6.1-10L257.2,346.7z M241.8,346.7
					h9.6l-4.8-8.2L241.8,346.7z M261.7,334.1h-12.2l-2.7,4.5l4.8,8.2h5.8l6.1-10L261.7,334.1z M279.9,334.6l0.3-0.5h-0.7
					L279.9,334.6z M272.5,321.7l-0.3,0.3l7.3,12.2h0.7l7.5-12.7L272.5,321.7L272.5,321.7z M195.9,346.7h2.5l-1.2-2.1L195.9,346.7z
					 M208.4,334.1h-5.1l-6.3,10.6l1.2,2.1h13l2.5-4L208.4,334.1z M244,334.1h-9.9l-4,6.6l3.6,6.1h8.2l4.8-8.2L244,334.1z
					 M211.1,346.7h4.8l-2.5-4L211.1,346.7z M289.8,321.7h-2.1l-7.5,12.7h15.4l0.9-1.5L289.8,321.7z M226.3,346.7h7.3l-3.6-6.1
					L226.3,346.7z M226.2,334.1h-7.5l-5.2,8.6l2.5,4h10.5l3.6-6.1L226.2,334.1z M102.1,120.5h-4.4l2.1,3.6L102.1,120.5z
					 M360.8,321.7h-11.7l-3,5.1l4.5,7.5h6.2l5.8-9.5L360.8,321.7z M378.7,321.7h-14l-1.8,3l5.8,9.5h4l7-11.5L378.7,321.7z
					 M356.9,334.1h11.4l-5.8-9.5L356.9,334.1z M372.2,334.1h13.9l-6.9-11.5L372.2,334.1z M388.9,309h-1.4l-7.5,12.7h15.4l0.7-0.9
					L388.9,309z M379.2,322.6l6.9,11.5h1.5l7.5-12.7h-15.3L379.2,322.6z M310.9,334.1h4.3l-2.1-3.5L310.9,334.1z M295.6,334.1h1.8
					l-0.8-1.5L295.6,334.1z M395.3,321.7h1.2l-0.7-0.9L395.3,321.7z M325.2,321.7h-6.9l-5.5,9.1l2.1,3.5H326l3.3-5.5L325.2,321.7z
					 M343.1,321.7h-9.2l-4.3,7.1l3.3,5.5h8.7l4.5-7.5L343.1,321.7z M326.2,334.1h6.7l-3.3-5.5L326.2,334.1z M190.7,334.1h-2.6
					l-7.5,12.7h15.4l1.2-2.1L190.7,334.1z M27.5,269.5L21,258.7h-2.3l-7.5,12.7h15.4L27.5,269.5z M254.2,321.7h-12.5l-2.6,4.4
					l4.9,8.2h5.5l6.2-10.1L254.2,321.7z M234.1,334.1h9.9l-4.9-8.2L234.1,334.1z M249.5,334.1h12.2l-6.2-10.1L249.5,334.1z
					 M236.4,321.7h-10l-3.9,6.3l3.7,6.2h7.8l4.9-8.2L236.4,321.7z M272.1,321.9l0.3-0.3H272L272.1,321.9z M257.1,321.7l-1.4,2.3
					l6.2,10.1h3l7.4-12.2l-0.3-0.3h-15V321.7z M203.3,334.1h5.1l-2.5-4.3L203.3,334.1z M188.1,334.1h2.6l-1.3-2.2L188.1,334.1z
					 M200.9,321.7h-5.3l-6.2,10.5l1.3,2.2h12.7l2.5-4.3L200.9,321.7z M180.4,346.7L180.4,346.7L188,334h-15.2L180.4,346.7z
					 M183.1,321.7h-2.9l-7.5,12.3l0.1,0.3h15.2l1.3-2.2L183.1,321.7z M218.5,321.7H211l-5.1,8.4l2.5,4.3h10.4l3.7-6.2L218.5,321.7z
					 M264.7,309l-0.1,0.3l7.4,12.3h0.4L280,309L264.7,309L264.7,309z M218.7,334.1h7.5l-3.7-6.2L218.7,334.1z M282.2,309H280
					l-7.5,12.7h15.4l0.9-1.7L282.2,309z M371,309h-14.3L355,312l5.8,9.7h3.7l7.1-11.7L371,309z M353.3,309h-11.8l-3,4.8l4.7,7.7h6.1
					l5.8-9.7L353.3,309z M333.9,321.7h9.2l-4.7-7.7L333.9,321.7z M371.6,309.9l7,11.7h1.3l7.5-12.7H372L371.6,309.9z M364.6,321.7
					h14l-7-11.7L364.6,321.7z M349.2,321.7h11.7l-5.8-9.7L349.2,321.7z M299.9,309h-4.7l-6.6,10.9l0.9,1.7H303l2.2-3.7L299.9,309z
					 M381.3,296.4h-1.7l-7.5,12.7h15.4l0.7-1.2L381.3,296.4z M287.8,321.7h2.1L289,320L287.8,321.7z M317.8,309h-7.1l-5.3,8.9
					l2.2,3.7h10.9l3.5-5.8L317.8,309z M335.5,309H326l-4.1,6.9l3.5,5.8h8.6l4.7-7.7L335.5,309z M318.5,321.7h6.9l-3.5-5.8
					L318.5,321.7z M303.1,321.7h4.4l-2.2-3.7L303.1,321.7z M33.4,309H18.9l-1.7,2.7l5.8,9.7h3.6l7.1-11.8L33.4,309z M72.8,321.7h3.7
					l-1.8-3L72.8,321.7z M51.1,309h-1.5l-7.5,12.7h15.4l0.7-1.2L51.1,309z M34.4,309l-0.5,0.8l7.1,11.8h1.2l7.5-12.7L34.4,309
					L34.4,309z M57.5,321.7h1.3l-0.7-1.2L57.5,321.7z M69,309h-4l-7,11.5l0.7,1.2h14l1.8-3L69,309z M26.7,321.7h14.1l-7.1-11.8
					L26.7,321.7z M172.6,334.1l-7.5,12.7h15.4l-7.5-12.7H172.6z M27.5,269.5l-1.2,1.7h2.1L27.5,269.5z M26.6,296.4l7.5-12.7H18.8
					l-0.3,0.4l7.3,12.1L26.6,296.4L26.6,296.4z M18.5,284.3l-7.3,12.1h14.5L18.5,284.3z M26.1,297l-0.4-0.7H11.1l-1.7,2.6l6,9.9h3.5
					L26.1,297z M15.6,309l1.7,2.7l1.7-2.7H15.6z M35,282.4l-6.6-11h-2.1l-7.5,12.7h15.3L35,282.4z M126.6,334.1h10.7l-5.3-8.9
					L126.6,334.1z M155,334.1h-13.2l-2.3,3.9l5.3,8.7h4.8l6.5-10.8L155,334.1z M148.6,323.2l-0.9-1.7h-13.4l-2.2,3.7l5.3,8.9h4.7
					L148.6,323.2z M137.3,334.1l2.3,3.9l2.3-3.9H137.3z M149.8,346.7h13l-6.5-10.8L149.8,346.7z M157.2,334.1l-1.2,1.8l6.5,10.8h2.5
					l7.5-12.7L157.2,334.1L157.2,334.1z M86.6,309h-6.3l-5.8,9.5l1.8,3H88l3-5.1L86.6,309z M104.4,309h-8.7l-4.5,7.5l3,5.1h9.2
					l4.3-7.1L104.4,309z M88.1,321.7h6.2l-3-5.1L88.1,321.7z M103.5,321.7h8.6l-4.3-7.1L103.5,321.7z M124.4,312.4l-2.1-3.5H111
					l-3.3,5.5l4.3,7.1h6.9L124.4,312.4z M112.1,321.7l3.5,5.8l3.5-5.8H112.1z M129.7,321.7h-10.9l-3.5,5.8l4.1,6.9h7.1l5.3-8.9
					L129.7,321.7z M117.5,120.5l7.5-12.7h-15.4l-0.8,1.4l6.7,11.1L117.5,120.5L117.5,120.5z M151.6,32.6l1.8,3l1.8-3
					C154,32.6,153,32.6,151.6,32.6z M178.3,20l0.7-1.2l-6.9-11.4h-1.7l-7.5,12.7L178.3,20L178.3,20z M185.9,7.4l2.1-3.3l-5.5-9.2
					c-1.8,0-2.5,0-4.3,0l-6.7,11.3l0.7,1.3H185.9z M171.2,6.2l-0.7,1.3h1.7L171.2,6.2z M154.6,8.2L147.5,20h14.4L154.6,8.2z
					 M162.4,20.9l-0.5-0.8h-14.3l-1.7,2.9l5.8,9.6c1.4,0,2.2,0,3.7,0L162.4,20.9z M162.9,20l7.5-12.7H155l-0.4,0.7l7.1,11.8h1.2
					L162.9,20L162.9,20z M210.4-17.6l-4.7-7.7l-4.7,7.7C205.1-17.6,206.1-17.6,210.4-17.6z M196.7-10.6L200-5c4,0,4.7,0,8.7,0
					l4.5-7.5l-3-5.1c-4.3,0-5.2,0-9.2,0L196.7-10.6z M41.8,271.3l2.2-3.7l-5.3-8.8h-4.9l-6.6,10.9l1.2,1.7h13.5V271.3z M189-23.4
					l-3.5,5.8c2.9,0,4,0,6.9,0L189-23.4z M387.5,309h1.4l-0.7-1.2L387.5,309z M180.2-8.7l-2.1,3.5c1.7,0,2.5,0,4.3,0L180.2-8.7z
					 M135.5,65l-3,5.2c2.2,0,4,0,6.2,0L135.5,65z M125.4,107.4l-7.1-11.9h-0.8l-7.5,12.7h15.4L125.4,107.4z M117.8,94.6l-0.4,0.7
					h0.9L117.8,94.6z M132.8,95.3l1.7-2.7l-5.8-9.7h-3.6L118,94.7l0.4,0.7h14.3V95.3z M126.7,79.9l-1.8,3h3.6L126.7,79.9z
					 M108.8,109.3l-6.7,11.1h13.5L108.8,109.3z M105.4,133.1h4.5l6.7-11l-0.9-1.7h-13.5l-2.1,3.6L105.4,133.1z M163,45.3l7-11.5
					l-0.7-1.2c-5.8,0-8.7,0-14,0l-1.8,3l5.8,9.5h3.7v0.1H163z M155.5,57.6l5.6-9.3l-1.9-3.3h-11.5l-3.1,5.2l4.4,7.3L155.5,57.6
					L155.5,57.6z M144.6,50.3l-4.4,7.3h8.8L144.6,50.3z M153.6,35.7l-5.8,9.5h11.4L153.6,35.7z M140.2,82.9l3-4.9l-4.5-7.5
					c-2.2,0-4,0-6.2,0l-5.8,9.6l1.8,3L140.2,82.9L140.2,82.9z M217.8-5.1l-4.5-7.5l-4.5,7.5C213.1-5.1,213.5-5.1,217.8-5.1z
					 M147.9,70.3l4.4-7.1l-3.3-5.3h-8.8l-4.4,7.4l3,5.2C142,70.3,144.4,70.3,147.9,70.3z M193.4-5.1l3.3-5.5l-4.3-7.1
					c-2.9,0-4,0-6.9,0L180-8.7l2.1,3.5C186.9-5.1,188.6-5.1,193.4-5.1z M404.4,246.2l-4.8-8.2l-4.8,8.2H404.4z M390.7,252.9l3.5,5.8
					h8.3l4.8-7.8l-2.9-4.7h-9.6L390.7,252.9z M398.3,265.6l4.1-6.9h-8.3L398.3,265.6z M379.1,221l-3.9,6.3l3.7,6.2h7.8l4.9-8.3
					l-2.6-4.4h-10v0.2H379.1z M396.9,233.6l-4.9-8.3l-4.9,8.3H396.9z M383,240.1l3.6,6.1h8.2l4.8-8.2l-2.7-4.5h-9.9L383,240.1z
					 M387,258.7l-5.3,8.9l2.2,3.7h10.9l3.5-5.8l-4.1-6.9H387V258.7z M404.7,305.8l5.8-9.5h-11.3L404.7,305.8z M397.1,293l2.1,3.3
					h11.3l3.1-5.3l-4.4-7.1h-6.7L397.1,293z M395.1,296.4l-6.9,11.4l0.7,1.2h14l1.9-3.1l-5.6-9.5h-4.1V296.4z M401.8,271.3l-3.5-5.8
					l-3.5,5.8H401.8z M389.4,280.4l2.1,3.5h11.1l3.3-5.5l-4.3-7.1h-6.9L389.4,280.4z M409.2,283.8l-3.3-5.5l-3.3,5.5H409.2z
					 M204.4,2.2l3.1,5.3h8.9l4.4-7.3L217.7-5c-4.3,0-4.8,0-8.9,0L204.4,2.2z M243.2,7.4l-5.6-9.3l-5.6,9.3H243.2z M228.5,13l4.4,7.1
					h6.7l5.5-9.2l-2.1-3.5h-11.3L228.5,13z M268.2,49l5.2,8.7h4.9l6.5-10.8l-1.2-1.9h-13.1L268.2,49z M236.3,25.6l4.3,7
					c3.5,0,3.5,0,7,0l5.3-8.9l-2.1-3.6h-11L236.3,25.6z M225.4,7.4h6.6l5.6-9.3L235.8-5c-5.6,0-6,0-11.4,0l-3.1,5.2L225.4,7.4z
					 M224-5.1c-3,0-3.3,0-6.3,0l3.1,5.2L224-5.1z M250.7,20l-5.5-9.2l-5.5,9.2H250.7z M255,20h-4.4l2.1,3.6L255,20z M283.5,45.3
					l-6.5-10.9l-6.6,10.9H283.5z M260.5,36.4l5.3,8.9h4.8l6.6-10.9l-1.2-1.7c-6.6,0-6.7,0-13.2,0L260.5,36.4z M258.2,32.6
					c2.2,0,2.2,0,4.5,0l6.7-11l-0.9-1.7H255l-2.1,3.6L258.2,32.6z M276,32.6l-6.6-11l-6.7,11C269.3,32.6,269.4,32.6,276,32.6z
					 M200.9-17.6l4.7-7.7l-3-4.8h-9.5l-4.1,6.9l3.5,5.8C196.1-17.6,197.3-17.6,200.9-17.6z M26.1,221l4-6.5l-3.7-6.2h-7.9l-4.8,8.2
					l2.6,4.4L26.1,221L26.1,221z M46.7,183.4h2.1l7.5-12.7H41l-0.9,1.7L46.7,183.4z M13.4,216.6l-2.6,4.4h5.3L13.4,216.6z
					 M18.4,233.6l2.5-4.3L16,221h-5.3l-6.2,10.4l1.4,2.2H18.4L18.4,233.6z M56.7,170.3l-7.3-12.2h-0.7L41,170.7h15.4L56.7,170.3z
					 M4.4,231.4L3,233.6h2.7L4.4,231.4z M102,95.3l7.5-12.7H94.2l-0.7,1.2l6.9,11.5C100.4,95.3,102,95.3,102,95.3z M-4.4,246.2h15.3
					l1.3-2.1L6,233.7H3.2L-4.4,246.2L-4.4,246.2z M93.5,84l-7,11.5h13.9L93.5,84z M110.1,82l-7-11.7c-0.3,0-0.9,0-1.4,0l-7.5,12.7
					h15.4L110.1,82z M90.3,107.9h4.1l6.9-11.3l-0.7-1.3H86.8l-1.9,3.3L90.3,107.9z M49,157.7l-0.3,0.7h0.7L49,157.7z M63.9,158.2
					l1.7-2.6l-6-9.9h-3.5L49,157.6l0.3,0.7h14.5V158.2z M-32.4,317.8l-2.2,3.7h4.5L-32.4,317.8z M-27,334.1l2.1-3.6l-5.3-8.9h-4.5
					l-6.7,11l0.9,1.7h13.6v-0.2H-27z M102.6,69.1l0.7,1.2c3.9,0,9.6,0,14,0l1.9-3.1l-5.8-9.5h-4l-7.5,12.7c0.3,0,0.9,0,1.4,0
					L102.6,69.1z M-4.4,246L-4.4,246L-4.4,246L-4.4,246z M-34.5,346.7h1.7l-0.8-1.4L-34.5,346.7z M-19.3,321.7l3.5-5.8l-4.1-6.7
					h-7.1l-5.3,8.8l2.2,3.7H-19.3z M-40.5,334.1h-1.9l-7.5,12.7h15.3l0.8-1.4L-40.5,334.1z M-41.2,332.7l-0.9,1.7h1.9L-41.2,332.7z
					 M-37.6,309l5.3,8.8l5.3-8.8H-37.6z M-4.4,246.2L-4.4,246.2l-7.7,12.7H3.1L-4.4,246.2z M-19.6,296.4l4.8-8.2l-2.6-4.4h-9.9
					l-4,6.5l3.7,6.2h7.9v-0.1H-19.6z M163.6-6.6l-0.8,1.5c0.7,0,1.2,0,1.8,0L163.6-6.6z M-23.5,303.1l-4-6.7h-7.3l-5.2,8.7l2.3,4
					h10.6L-23.5,303.1z M-31.1,290.3l-3.7,6.2h7.3L-31.1,290.3z M238.3-30.2L231.2-42L224-30.2H238.3z M214.5-40.1l6,9.9h3.5
					l7.1-11.8l-0.4-0.7c-6.5,0-8.4,0-14.5,0L214.5-40.1z M230.6-42.9L223.5-55l-7.3,12.1C222.3-42.9,224.2-42.9,230.6-42.9z
					 M-22.7,334.1h-4.4l-6.7,11.3l0.8,1.4h13.6l2.1-3.5L-22.7,334.1z M208.4-55.4h-3l1.5,2.5L208.4-55.4z M213-42.9
					c1.4,0,1.9,0,3.3,0l7.3-12.1l-0.3-0.5h-14.7l-1.5,2.5L213-42.9z M222.3-27.4l5.8,9.6c1.8,0,1.9,0,3.7,0l7.1-11.7l-0.5-0.8H224
					L222.3-27.4z M190.4-50.8l4.8,8.2c2.1,0,3.5,0,5.8,0l6.1-10l-1.5-2.5h-12.2L190.4-50.8z M449.8,321.7l-4.3-7l-4.3,7H449.8z
					 M436.6,329.3l2.9,4.8h9.5l4.1-6.7l-3.5-5.8h-8.6L436.6,329.3z M433.7,334.1h5.8l-2.9-4.8L433.7,334.1z M111.4,54.5l-2.1,3.3h4
					L111.4,54.5z M442.2,309l-4.4-7.1l-4.4,7.1H442.2z M429,316.6l3,4.9h9.3l4.3-7l-3.5-5.6h-8.7L429,316.6z M425.8,296.4l-4.4,7.4
					l3,5.2h9.1l4.4-7.1l-3.3-5.3h-8.8V296.4z M162.8-5.1l0.8-1.5l-6.7-11.1c-0.7,0-1.3,0-2.1,0L147.3-5
					C152.5-5.1,156.8-5.1,162.8-5.1z M170.3-17.6l2.2-3.7l-5.3-8.9h-4.7l-6.6,10.9l0.9,1.7C161.5-17.6,165.2-17.6,170.3-17.6z
					 M155.9-19.3l-0.9,1.7c0.7,0,1.3,0,2.1,0L155.9-19.3z M205.3-55.4l-6.2-10.1L193-55.4H205.3z M124.8,57.6l3.1-5.3l-4.4-7.1h-6.7
					l-5.6,9.2l2.1,3.3h11.5V57.6z M120.2,39.6l-3.3,5.5h6.7L120.2,39.6z M132.3,45.3l4.5-7.5l-3-5.1c-3,0-6.5,0-9.2,0l-4.3,7.1
					l3.3,5.5L132.3,45.3L132.3,45.3z M185.5-42.9l4.8-8.2l-2.7-4.5h-9.9l-4,6.6l3.6,6.1C179.9-42.9,182.6-42.9,185.5-42.9z
					 M182.6-63.7l-4.9,8.2h9.9L182.6-63.7z M193.1-55.4l6.2-10.1l-1.4-2.3h-12.7l-2.6,4.4l4.9,8.2h5.5V-55.4z M164.8-34.1l-2.3,3.9
					h4.7L164.8-34.1z M178-30.2l3.5-5.8l-4-6.7c-2.2,0-5.2,0-7.3,0l-5.3,8.7l2.3,3.9H178V-30.2z M173.8-48.9l-3.6,6.1
					c2.1,0,4.9,0,7.3,0L173.8-48.9z M393.7,346.7h-13.6l-2.1,3.5l5.5,9.2h4.4l6.7-11.3L393.7,346.7z M-57.9,334.6l-7.3,12.1h14.5
					L-57.9,334.6z M-34.8,321.7l2.2-3.7l-5.3-8.8h-4.8l-6.6,10.9l1.2,1.7h13.4V321.7z M197.8-67.9h2.9l7.5-12.3l-0.1-0.3H193
					l-1.3,2.2L197.8-67.9z M-49.9,346.7l7.5-12.7h-15.3l-0.3,0.4l7.3,12.1L-49.9,346.7L-49.9,346.7z M215.7-67.9l-7.4-12.3
					l-7.5,12.3H215.7z M-41.2,332.7l-6.6-11h-2.1l-7.5,12.7H-42L-41.2,332.7z M-49,319.7l-1.2,1.7h2.1L-49,319.7z M426.1,346.7h3.1
					l-1.7-2.6L426.1,346.7z M421.7,334.1h-3.5l-7.1,11.9l0.4,0.7h14.5l1.7-2.6L421.7,334.1z M200.7-67.9l-1.4,2.3l6.2,10.1h3
					 M439.6,334.1h-5.8l-6.1,9.9l1.7,2.6h12.2l2.7-4.7L439.6,334.1z M449,334.1l-4.8,7.9l2.7,4.7h9.7l4-6.7l-3.6-6H449z
					 M441.5,346.7h5.6l-2.7-4.7L441.5,346.7z M429.3,346.7h-3.1l-7.3,12.1l0.3,0.4H434l1.5-2.5L429.3,346.7z M433.8,359.3h3
					l-1.5-2.5L433.8,359.3z M447,346.7h-5.6l-6.2,10l1.5,2.5H449l2.6-4.4L447,346.7z M418.4,359.3h0.5l-0.3-0.4L418.4,359.3z
					 M410.8,346.7h0.7l-0.4-0.7L410.8,346.7z M468.5,352.7l-3.7-6.2h-8.2l-4.8,8.2l2.6,4.4h9.9L468.5,352.7z M449.2,359.3h5.3
					l-2.6-4.4L449.2,359.3z M-26.8,359.3h1.5l-0.7-1.2L-26.8,359.3z M411.4,346.7h-0.7l-7.5,12.7h15.4l0.3-0.4L411.4,346.7z
					 M-34.5,346.7h-15.4l-0.4,0.7l7.1,11.9h0.9L-34.5,346.7z M-57.5,359.3h14.4l-7.1-11.9L-57.5,359.3z M-32.8,346.7h-1.7l-7.5,12.7
					h15.4l0.7-1.2L-32.8,346.7z M-50.6,346.7h-14.7l-1.7,2.6l6,9.9h3.5l7.1-11.9L-50.6,346.7z M-9.5,356l-5.6-9.3h-4.1l-6.9,11.3
					l0.7,1.2h13.9L-9.5,356z M431.9,321.7h-6.1l-6,9.7l1.7,2.7h11.9l2.9-4.8L431.9,321.7z M80.7,359.3h0.7l-0.3-0.5L80.7,359.3z
					 M73.8,346.7H73l-7.5,12.7h15.4l0.3-0.5L73.8,346.7z M57.6,346.7l-0.8,1.3l6.7,11.3h1.8l7.5-12.7L57.6,346.7L57.6,346.7z
					 M97.5,356.7l-6.1-10h-3.3l-7.3,12.1l0.3,0.5h14.7L97.5,356.7z M50.1,359.3h13.6L57,348L50.1,359.3z M287.8,346.7l-0.4,0.7
					l7.1,11.8h1.2l7.5-12.7h-15.4V346.7z M2.6,346.7h-6.5l-5.6,9.3l1.9,3.1H3.8l3.1-5.2L2.6,346.7z M-15,346.7l5.6,9.3l5.6-9.3H-15
					L-15,346.7z M304.9,346.7h-1.7l-7.5,12.7H311l0.7-1.2L304.9,346.7z M404,334.1H403l-7.5,12.7h15.3l0.4-0.7L404,334.1z M56,346.7
					H42.3l-2.1,3.3l5.5,9.2h4.3l6.7-11.3L56,346.7z M4,359.3h6.2L7,354.1L4,359.3z M23.7,352l-3.1-5.3h-8.9L7.3,354l3.1,5.2h8.9
					L23.7,352z M-0.5,341.3l-4.4-7.2h-6.7l-5.5,9.2l2.1,3.5h11.2L-0.5,341.3z M372.4,359.3h11l-5.5-9.2L372.4,359.3z M-19.1,346.7
					h4.1l-2.1-3.5L-19.1,346.7z M376,346.7h-11.3l-3.3,5.3l4.4,7.1h6.7l5.5-9.2L376,346.7z M311,359.3h1.4l-0.7-1.2L311,359.3z
					 M394.5,348l6.7,11.3h1.9l7.5-12.7h-15.4L394.5,348z M357.1,359.3h8.7l-4.4-7.1L357.1,359.3z M387.8,359.3h13.5l-6.7-11.3
					L387.8,359.3z M322.6,346.7h-4l-6.9,11.4l0.7,1.2h14l1.9-3.1L322.6,346.7z M358.2,346.7h-8.9l-4.4,7.4l3,5.2h9.1l4.4-7.1
					L358.2,346.7z M326.5,359.3h3.9l-1.9-3.1L326.5,359.3z M341.8,359.3h6.2l-3-5.2L341.8,359.3z M340.3,346.7h-6.5l-5.8,9.5
					l1.9,3.1h11.5l3-5.2L340.3,346.7z M-7.1,271.3h2.7l7.5-12.5L3,258.7h-15.3l-1.3,2.1L-7.1,271.3z M26.2,208.6l3.7,6.2l3.7-6.2
					H26.2z M38.9,199.9l-2.3-4H25.9l-3.6,6l4,6.7h7.4L38.9,199.9z M41.4,221l5.1-8.6l-2.5-4.1H33.6l-3.7,6.2l4,6.5H41.4z M31.2,187
					l-5.3,8.8h10.6L31.2,187z M33.8,233.6l3.9-6.2l-3.9-6.2H26l-4.9,8.3l2.5,4.3h10.1V233.6z M30,214.5l-4,6.5h7.7L30,214.5z
					 M64.3,183.1l-7.4-12.2h-0.5l-7.5,12.7h15.4L64.3,183.1z M56.7,170.3l-0.3,0.4h0.5L56.7,170.3z M21,229.3l-2.5,4.3h5.2L21,229.3
					z M71.7,170.7l1.5-2.5l-6.1-10.1H64l-7.3,12.2l0.3,0.4H71.7z M48.8,183.4h-2.1l1.2,1.8L48.8,183.4z M65.6,155.6l-1.7,2.6H67
					L65.6,155.6z M41.2,195.9l6.6-10.9l-1.2-1.8H33.6l-2.2,3.9l5.3,8.8H41.2L41.2,195.9z M54.3,195.9h2.3l7.5-12.7H48.8l-1.2,1.8
					L54.3,195.9z M-5.8,273.7l-1.4-2.3h-12.7l-2.5,4.3l4.9,8.3h5.3L-5.8,273.7z M-4.4,271.3h-2.7l1.4,2.3L-4.4,271.3z M0.5,283.8h3
					l7.4-12.2l-0.3-0.3H-4.4l-1.4,2.3L0.5,283.8z M26.2,246.2l2.5-4.1l-5.1-8.6h-5.2L12.1,244l1.3,2.1h13v0.1H26.2z M-14.5,288.3
					l-4.8,8.2h9.7L-14.5,288.3z M-4.1,296.4l6.2-10l-1.5-2.5h-12.4l-2.6,4.4l4.8,8.2H-4.1L-4.1,296.4z M-17.4,283.8l2.6,4.4l2.6-4.4
					H-17.4z M18.7,258.7l1.2-1.9L13.6,246h-2.5l-7.6,12.7H18.7z M12.1,244.1l-1.3,2.1h2.5L12.1,244.1z M3.1,258.7L3.1,258.7
					L3.1,258.7L3.1,258.7z M3.1,258.9l-7.5,12.5h15.2L3.1,258.9z M11,271.3l7.5-12.7H3.3l-0.1,0.1l7.5,12.5H11L11,271.3z
					 M133.7,32.6l3,5.1l3-5.1C137.7,32.6,135.8,32.6,133.7,32.6z M137,37.6l-4.5,7.5h8.9L137,37.6z M-7,301l-2.7-4.7h-9.8l-4,6.7
					l3.6,6h8.3L-7,301z M147.6,45.3l5.8-9.5l-1.8-3c-4.4,0-7.5,0-11.7,0l-3,5.1l4.5,7.5L147.6,45.3L147.6,45.3z M79.4,158.2l2.7-4.7
					l-4.8-7.9h-5.8l-6.1,9.9l1.7,2.6h12.2C79.4,158.1,79.4,158.2,79.4,158.2z M132.5,70.3l3-5.2l-4.4-7.4h-6.3l-5.8,9.5l1.9,3.1
					C124.7,70.3,128.5,70.3,132.5,70.3z M128,52.4l-3.1,5.3h6.5L128,52.4z M140.1,57.6l4.4-7.3l-3.1-5.2h-8.9l-4.4,7.1l3.1,5.3
					L140.1,57.6L140.1,57.6z M145.7,23l-1.7-2.9h-11.8l-3,4.8l4.7,7.5c2.1,0,4,0,6.2,0L145.7,23z M170.4,7.4l0.7-1.3l-6.7-11.3
					c-0.7,0-1.2,0-1.8,0L155,7.5L170.4,7.4L170.4,7.4z M147.1-4.7l-7.3,12.1h14.5L147.1-4.7z M155,7.4l7.5-12.7
					c-5.8,0-10.1,0-15.4,0l-0.3,0.5L154,7.4H155z M138.1,10.1l-6,9.9H144L138.1,10.1z M147.5,20l7.1-11.8l-0.4-0.7h-14.5l-1.7,2.7
					l6,9.9L147.5,20L147.5,20z M119.1,67.1l-1.9,3.1c1.2,0,2.5,0,3.9,0L119.1,67.1z M79.1,133.1l4.3-7l-3.5-5.6h-8.6l-4.5,7.5l3,4.9
					L79.1,133.1L79.1,133.1z M75.7,113.4l-4.4,7.1h8.6L75.7,113.4z M86.8,120.5l5.5-9.1l-2.1-3.5H78.9l-3.3,5.3l4.4,7.1L86.8,120.5
					L86.8,120.5z M66.8,128.1l-3,4.9h6.1L66.8,128.1z M74.5,140.9l-4.7-7.7h-6.1l-6,9.7l1.7,2.7h11.9L74.5,140.9z M59.7,145.7l6,9.9
					l6.1-9.9H59.7z M97.9,120.5h4.4l6.7-11.1l-0.8-1.4H94.5l-2.1,3.5L97.9,120.5z M109.7,107.9l7.5-12.7h-15.4l-0.7,1.3l6.7,11.3
					L109.7,107.9L109.7,107.9z M117.8,94.6l-7.1-11.8h-1.2L102,95.5h15.4L117.8,94.6z M110.1,82l-0.5,0.9h1.2L110.1,82z M94.4,107.9
					h-4.1l2.1,3.5L94.4,107.9z M124.8,82.9l1.8-3l-5.8-9.6c-1.2,0-2.6,0-3.9,0L110,82l0.5,0.9H124.8z M101.3,96.6l-6.9,11.3H108
					L101.3,96.6z M287.4,347.3l0.4-0.7H287L287.4,347.3z M418.4,334.1h3.5l-1.7-2.7L418.4,334.1z M216,346.7h-4.8l-6.5,10.8l1.2,1.8
					H219l2.3-3.9L216,346.7z M280.2,334.1l-0.3,0.5l7.1,12.1h0.8l7.5-12.7H280.2L280.2,334.1z M265,359.3h11.8l-6-9.9L265,359.3z
					 M303.2,346.7h1.7l-0.7-1.3L303.2,346.7z M297.3,334.1h-1.8l-7.5,12.7h15.4l0.8-1.3L297.3,334.1z M234.2,359.3h7.1l-3.5-5.8
					L234.2,359.3z M233.8,346.7h-7.3l-5.3,8.7l2.3,3.9h10.8l3.5-5.8L233.8,346.7z M269.3,346.7h-12.2l-2.9,4.7l4.8,7.8h6l6-9.9
					L269.3,346.7z M218.9,359.3h4.7l-2.3-3.9L218.9,359.3z M315,334.1h-4.2l-6.7,11.3l0.7,1.3h13.7l2.1-3.3L315,334.1z M251.5,346.7
					h-9.6l-4,6.7l3.5,5.8h8.3l4.8-7.8L251.5,346.7z M249.7,359.3h9.5l-4.8-7.8L249.7,359.3z M272.6,346.7l-1.7,2.6l6,9.9h3.5
					l7.1-11.8l-0.4-0.7H272.6L272.6,346.7z M386.1,334.1h-13.9l-1.9,3.1l5.6,9.3h4.1l6.9-11.3L386.1,334.1z M386.9,335.4l6.7,11.3
					h1.7l7.5-12.7h-15.4L386.9,335.4z M380,346.7h13.6l-6.7-11.3L380,346.7z M396.4,321.7h-1.2l-7.5,12.7h15.4l0.5-0.8L396.4,321.7z
					 M414.1,321.7h-3.6l-7.1,11.8l0.5,0.8h14.4l1.7-2.7L414.1,321.7z M403,334.1h0.9l-0.5-0.8L403,334.1z M333.9,346.7h6.5l-3.1-5.3
					L333.9,346.7z M350.5,334.1h-8.9l-4.4,7.1l3.1,5.3h8.9l4.4-7.3L350.5,334.1z M318.7,346.7h4l-2.1-3.3L318.7,346.7z M364.7,346.7
					H376l-5.6-9.3L364.7,346.7z M332.9,334.1h-6.7l-5.6,9.2l2.1,3.3h11.3l3.1-5.3L332.9,334.1z M349.3,346.7h8.9l-4.4-7.3
					L349.3,346.7z M368.4,334.1H357l-3.1,5.2l4.4,7.3h6.5l5.6-9.3L368.4,334.1z M-12.3,321.7h-6.9l-5.3,8.9l2.1,3.6h11l3.5-5.6
					L-12.3,321.7z M20.5,346.7l3.1,5.3l3.1-5.3H20.5L20.5,346.7z M32.6,337.3l-1.9-3.1H19.1l-3,5.2l4.4,7.4H27L32.6,337.3z
					 M13,334.1H3.9l-4.4,7.1l3.3,5.3h8.9l4.4-7.4L13,334.1z M11.5,346.7h8.9l-4.4-7.4L11.5,346.7z M27,346.7l-3.1,5.3l4.4,7.1h6.7
					l5.6-9.2l-2.1-3.3H27V346.7z M40.3,349.9l2.1-3.3h-4.1L40.3,349.9z M-4.8,334.1l4.4,7.1l4.4-7.1H-4.8z M-16,315.7l-3.5,5.8h6.9
					L-16,315.7z M48.5,334.1h-14l-1.9,3.1l5.6,9.5h4l6.9-11.4L48.5,334.1z M-20,309l4.1,6.7l4.1-6.7H-20z M-4,321.7l4.7-7.7
					l-2.9-4.8h-9.5l-4.1,6.7l3.5,5.8H-4V321.7z M8.4,326.6l-3-4.9H-4l-4.3,7l3.5,5.6h8.7L8.4,326.6z M-11.5,334.1h6.7l-3.5-5.6
					L-11.5,334.1z M109.3,346.7h-5.8l-6.1,10l1.5,2.5h12.2l2.7-4.5L109.3,346.7z M203.6,359.3h2.2l-1.2-1.8L203.6,359.3z
					 M42.2,346.7h13.7L49,335.3L42.2,346.7z M111.4,359.3h5.5l-2.7-4.6L111.4,359.3z M91.7,346.7l6.1,10l6.1-10H91.7L91.7,346.7z
					 M130.7,352.7l-3.6-6.1H119l-4.7,8.1l2.7,4.5h9.9L130.7,352.7z M198.2,346.7h-2.5l-7.5,12.7h15.4l1.2-1.8L198.2,346.7z
					 M106.5,342l-4.8-7.8h-6l-6,9.9l1.7,2.6h12.1L106.5,342z M66.3,334.1h-1.2l-7.7,12.5h15.4l0.4-0.7L66.3,334.1z M49.9,334.1
					l-0.7,1.2l6.9,11.4h1.7l7.5-12.7H49.9V334.1z M73,346.7h0.8l-0.4-0.7L73,346.7z M84,334.1h-3.5l-7.1,11.8l0.4,0.7h14.5l1.7-2.6
					L84,334.1z M88.3,346.7h3.3l-1.7-2.6L88.3,346.7z M65.3,334.1h1.2l-0.5-0.8L65.3,334.1z M193.9,70.3l7.5-12.7h-15.4l-0.8,1.4
					l6.7,11.1C192.9,70.3,193.1,70.3,193.9,70.3z M201.9,57.2l-7.1-11.9h-0.9l-7.5,12.7h15.4L201.9,57.2z M185.3,59.1l-6.7,11.1
					c6,0,7.1,0,13.5,0L185.3,59.1z M176.5,73.8l-5.3,8.9H182L176.5,73.8z M194.2,44.2l-0.4,0.7h0.9L194.2,44.2z M186.3,82.9l6.7-11
					l-0.9-1.7c-6.2,0-7.5,0-13.5,0l-2.1,3.6l5.3,8.9h4.4v0.2H186.3z M209.5,69.8l0.3,0.4c7.1,0,7.5,0,14.8,0l1.5-2.5l-6.1-10.1h-3.1
					L209.5,69.8z M220,57.6l-1.7-2.6l-1.7,2.6H220z M178.9,95.3l5.3-8.8l-2.2-3.7h-10.9l-3.5,5.8l4.1,6.7H178.9z M232.3,57.6h-12.2
					l6.1,10.1L232.3,57.6z M201.9,57.2l0.3,0.7h14.7l1.7-2.6l-6-9.9h-3.5L201.9,57.2z M209.1,45.3l1.7-2.7l-5.8-9.7
					c-1.7,0-1.9,0-3.6,0l-7.1,11.8l0.4,0.7h14.3V45.3z M212.5,45.3l-1.7-2.7l-1.7,2.7H212.5z M140.7,158.2l7.5-12.7h-15.2l-1.2,1.9
					l6.3,10.6L140.7,158.2L140.7,158.2z M133.2,170.7l6.3-10.5l-1.3-2.1h-12.8l-2.5,4.1l5.1,8.6h5.1V170.7z M167.4,88.6l-4.1,6.7
					h8.2L167.4,88.6z M227.6,70.3c6.2,0,6.2,0,12.3,0l2.6-4.4l-4.8-8.2h-5.6l-6.2,10.1L227.6,70.3z M131.8,147.6l-6.5,10.6h12.8
					L131.8,147.6z M125.7,183.4l4.9-8.3l-2.5-4.3h-10.1l-3.9,6.2l3.9,6.2h7.7V183.4z M123.1,162.4l-5.1,8.4h10.1L123.1,162.4z
					 M148.5,145.5l-7.5-12.5h-0.3l-7.5,12.7L148.5,145.5L148.5,145.5z M158.6,103.4l-2.7,4.7h5.6L158.6,103.4z M163.6,120.5l2.6-4.4
					l-4.8-8.2h-5.6l-6.2,10.1l1.5,2.5L163.6,120.5L163.6,120.5z M171.1,107.9l4-6.7l-3.6-6h-8.2l-4.8,7.9l2.7,4.7H171.1z M149.7,118
					l-1.5,2.5h3L149.7,118z M156,133.1l1.4-2.2l-6.2-10.4h-3l-7.4,12.2l0.1,0.3H156L156,133.1z M140.7,132.9l-0.1,0.3h0.3
					L140.7,132.9z M328.1,178.5l3,4.8h9.5l4.1-6.9l-3.5-5.6h-8.5L328.1,178.5z M333.7,158.2l-4.4-7.1l-4.4,7.1H333.7z M341.3,170.7
					l-4.3-7.1l-4.3,7.1H341.3z M320.5,165.6l3,5.1h9.2l4.3-7.1l-3.3-5.5h-8.8L320.5,165.6z M312.8,153l3.1,5.2h8.9l4.4-7.1l-3.1-5.3
					h-8.9L312.8,153z M326.2,145.7l-4.4-7.4l-4.4,7.4H326.2z M305.2,140.2l3.3,5.3h8.8l4.4-7.4l-3-5.2h-9.1L305.2,140.2z
					 M335.8,191.2l4.8-7.8h-9.5L335.8,191.2z M326.9,206l1.5,2.5h12.2l2.7-4.5l-4.8-8.2h-5.8L326.9,206z M346.3,208.6l-2.7-4.5
					l-2.7,4.5H346.3z M338.5,195.9l-2.9-4.8l-2.9,4.8H338.5z M114.1,177l-3.9,6.2h7.5L114.1,177z M318.8,133.1l-4.5-7.5l-4.5,7.5
					H318.8z M325.2,183.4l-6,9.9l1.7,2.7h12.1l2.9-4.8l-4.8-7.8H325.2z M278.2,95.3l-3.7-6.2l-3.7,6.2H278.2z M245.4,70.3l-2.6-4.4
					l-2.6,4.4C242.7,70.3,242.7,70.3,245.4,70.3z M260.5,95.3H271l3.7-6.2l-4-6.5h-7.5l-5.1,8.6L260.5,95.3z M241.4,93.2l1.3,2.1
					h12.8l2.5-4.1l-5.1-8.6h-5.2L241.4,93.2z M263,82.9h-10.1l5.1,8.6L263,82.9z M233.8,80.5l1.4,2.2h12.7l2.5-4.3l-4.9-8.3
					c-2.6,0-2.6,0-5.3,0L233.8,80.5z M252.9,82.9l-2.5-4.3l-2.5,4.3H252.9z M280.9,129.5l2.1,3.6h11l3.5-5.6l-4.3-7h-7L280.9,129.5z
					 M334.6,218.7l1.4,2.3h12.5l2.6-4.4l-4.8-8.2h-5.5L334.6,218.7z M301.7,120.5h-8.4l4.3,7L301.7,120.5z M265.6,104l2.3,4h10.6
					l3.6-6l-4-6.7h-7.4L265.6,104z M293.4,120.5l-3.5-5.8l-3.5,5.8H293.4z M273.3,116.7l2.2,3.7h10.9l3.5-5.8l-4-6.7h-7.1
					L273.3,116.7z M285.7,107.9l-3.6-6l-3.6,6H285.7z M203.3,309h7.8l-4-6.6L203.3,309z M203.6,296.4h-8.2l-4.8,8.2l2.7,4.5h9.9
					l4-6.6L203.6,296.4z M187.9,309h5.5l-2.7-4.5L187.9,309z M218.5,309h10.4l-5.2-8.6L218.5,309z M221.3,296.4h-10.5l-3.6,6.1
					l4,6.6h7.4l5.2-8.6L221.3,296.4z M185.9,296.4h-5.8l-6.1,10l1.5,2.5h12.2l2.7-4.5L185.9,296.4z M172.5,309h3l-1.5-2.5L172.5,309
					z M239,296.4h-12.9l-2.5,4l5.2,8.6h5.1l6.3-10.6L239,296.4z M157.6,308.4l-0.3,0.5h0.7L157.6,308.4z M150.2,296.4h-0.8
					l-7.5,12.7h15.4l0.3-0.5L150.2,296.4z M157.1,309l-7.5,12.7H165l0.3-0.3l-7.3-12.2L157.1,309L157.1,309z M165.1,321.3l7.4-12.2
					h-14.7L165.1,321.3z M168,296.4h-3.3l-7.3,12.1l0.3,0.5h14.7l1.5-2.5L168,296.4z M303,296.4h7.3l-3.6-6.1L303,296.4z M134,296.4
					l-0.7,1.3l6.7,11.3h1.8l7.5-12.7L134,296.4L134,296.4z M302.6,283.8H295l-5.2,8.6l2.5,4h10.5l3.6-6.1L302.6,283.8z M320.4,283.8
					h-9.9l-4,6.6l3.6,6.1h8.2l4.8-8.2L320.4,283.8z M117.9,195.9l3.7-6.2l-4-6.5h-7.5l-5.1,8.6l2.5,4.1H117.9z M318.2,296.4h9.6
					l-4.8-8.2L318.2,296.4z M338.1,283.8h-12.2l-2.7,4.5l4.8,8.2h5.8l6.1-10L338.1,283.8z M234,309h12.7l-6.3-10.6L234,309z
					 M285,283.8h-5.1l-6.3,10.6l1.2,2.1h13l2.5-4L285,283.8z M249.3,309h15.2l-7.5-12.7l0,0L249.3,309z M241.5,296.4l-1.2,2.1
					l6.3,10.6h2.6l7.5-12.7H241.5z M256.9,296.4L256.9,296.4L256.9,296.4L256.9,296.4z M272.1,296.4h2.5l-1.2-2.1L272.1,296.4z
					 M267.1,283.8h-2.6l-7.5,12.7l0,0h15.4l1.2-2.1L267.1,283.8z M287.6,296.4h4.8l-2.5-4L287.6,296.4z M80.2,258.7l6.1-9.9
					l-1.7-2.6H72.3l-2.7,4.7l4.8,7.9h5.8V258.7z M78.3,236l-6.2,10.1h12.2L78.3,236z M69.5,250.8l-4.8,7.9h9.5L69.5,250.8z
					 M72.5,271.3l4.7-7.7l-2.9-4.8h-9.5l-4.1,6.7l3.5,5.8L72.5,271.3L72.5,271.3z M60.6,265.6l-3.5,5.8h6.9L60.6,265.6z M87.6,246.2
					l7.3-12.1l-0.3-0.4H79.8l-1.5,2.5l6.1,10.1L87.6,246.2L87.6,246.2z M64.9,283.8l3.5-5.6l-4.3-7h-6.9l-5.3,8.9l2.1,3.6h11
					C64.9,283.6,64.9,283.8,64.9,283.8z M87.3,221.3l-7.4,12.2h14.8L87.3,221.3z M110.4,208.6l2.3-4l-5.2-8.7h-4.9l-6.5,10.8
					l1.2,1.9H110.4L110.4,208.6z M105,191.8l-2.5,4.1h4.9L105,191.8z M96.2,206.6l-1.2,1.9h2.3L96.2,206.6z M95.2,233.6l7.5-12.7
					H87.4l-0.3,0.3l7.4,12.2h0.7C95.2,233.5,95.2,233.6,95.2,233.6z M103.9,219.2l-6.5-10.9h-2.3L87.6,221h15.2L103.9,219.2z
					 M71.6,283.8h-6.7l-5.5,9.2l2.1,3.5h11.3l3.3-5.3L71.6,283.8z M103.4,296.4h11.3l-5.6-9.5L103.4,296.4z M124.8,283.8h-14
					l-1.9,3.1l5.6,9.5h4l6.9-11.4L124.8,283.8z M107.1,283.8H95.6l-3,5.2l4.4,7.4h6.5l5.8-9.5L107.1,283.8z M87.9,296.4h8.9
					l-4.4-7.4L87.9,296.4z M118.8,296.4h13.7l-6.9-11.4L118.8,296.4z M141.6,283.8h-15.4l-0.7,1.2l6.9,11.4h1.7L141.6,283.8z
					 M89.4,283.8h-9.1l-4.4,7.1l3.3,5.3H88l4.4-7.4L89.4,283.8z M333.6,296.4h12.1l-6.1-10L333.6,296.4z M51.6,280.3l-2.1,3.6h4.4
					L51.6,280.3z M57.3,296.4h4.1l-2.1-3.5L57.3,296.4z M72.8,296.4h6.5l-3.3-5.3L72.8,296.4z M132.5,296.4l0.7,1.3l0.7-1.3H132.5z
					 M53.7,283.8h-4.4l-6.7,11.3l0.8,1.4h13.6l2.1-3.5L53.7,283.8z M193,71.9l-6.7,11h13.2L193,71.9z M125.8,208.6l3.6-6l-4-6.7
					h-7.4l-5.2,8.7l2.3,4L125.8,208.6L125.8,208.6z M209.5,69.8l-7.3-12.2h-0.7l-7.5,12.7c7.1,0,7.9,0,15.4,0L209.5,69.8z
					 M201.7,82.9l7.5-12.7c-7.4,0-8.3,0-15.4,0l-0.9,1.7l6.6,11H201.7z M186.5,107.9l5.2-8.7l-2.3-4h-10.6l-3.6,6l4,6.7L186.5,107.9
					L186.5,107.9z M184,86.6l-5.3,8.8h10.6L184,86.6z M217.4,82.9h15l1.4-2.2l-6.2-10.4c-1.5,0-1.5,0-3,0L217,82.6L217.4,82.9z
					 M175.1,101.3l-4,6.7h7.9L175.1,101.3z M235.2,82.9l-1.4-2.2l-1.5,2.2H235.2z M224.9,95.2L224.9,95.2l15.3,0.1l1.3-2.1
					l-6.2-10.5h-2.8L224.9,95.2z M224.6,70.3c-7.3,0-7.7,0-14.8,0l7.4,12.2L224.6,70.3z M201.7,82.9H217l0.1-0.3l-7.4-12.2
					c-0.3,0-0.3,0-0.5,0L201.7,82.9z M209.7,70.3l-0.3-0.4l-0.3,0.4C209.5,70.3,209.5,70.3,209.7,70.3z M133.3,195.9l4.8-8.2
					l-2.6-4.4h-9.9l-4,6.5l3.7,6.2L133.3,195.9L133.3,195.9z M178.9,120.5l4-6.5l-3.7-6.2h-7.9l-4.8,8.2l2.6,4.4L178.9,120.5
					L178.9,120.5z M139.5,160.3l-6.3,10.5h12.7L139.5,160.3z M130.6,175l-4.9,8.3h9.9L130.6,175z M242.7,95.3l-1.3-2.1l-1.3,2.1
					H242.7z M121.7,189.9L118,196h7.3L121.7,189.9z M342.3,231.5l6.2-10.5h-12.5L342.3,231.5z M141,183.4l6.2-10.4l-1.4-2.2h-12.7
					l-2.5,4.3l4.9,8.3H141L141,183.4z M148.5,145.7L148.5,145.7l-7.7,12.7H156L148.5,145.7z M166.3,116.2l-2.6,4.4h5.3L166.3,116.2z
					 M157.2,130.9l-1.4,2.2h2.7L157.2,130.9z M171.2,133.1l2.5-4.3l-4.9-8.3h-5.4l-6.2,10.4l1.4,2.2H171.2L171.2,133.1z
					 M163.7,145.7l1.3-2.1l-6.2-10.5h-2.7l-7.5,12.5v0.1h15.3v-0.1H163.7z M148.5,145.5L148.5,145.5L148.5,145.5L148.5,145.5z
					 M194,95.3l6.6-10.9l-1.2-1.7h-13.1l-2.2,3.7l5.3,8.8h4.5V95.3z M309.9,183.4l-7.1,11.8l0.4,0.7h14.5l1.7-2.7l-6-9.9
					L309.9,183.4L309.9,183.4z M321,195.9l-1.7-2.7l-1.7,2.7H321z M303.9,167.7l1.8,3h11.7l3-5.1l-4.5-7.5h-6.3L303.9,167.7z
					 M323.6,170.7l-3-5.1l-3,5.1H323.6z M232.6,107.9H248l1.2-1.9l-6.3-10.6h-2.5L232.6,107.9z M311.7,180.4l1.7,2.9h11.8l3-4.8
					l-4.7-7.5h-6.2L311.7,180.4z M319.2,193.3l6-9.9h-11.8L319.2,193.3z M36.3,254.9l-2.3,4h4.8L36.3,254.9z M317.9,246.2h15.4l0,0
					l-7.5-12.7h-0.3L317.9,246.2z M328.4,208.6l-1.5-2.5l-1.5,2.5H328.4z M317.8,221l-7.5,12.7h15.2l0.1-0.3l-7.4-12.3H317.8
					L317.8,221z M317.9,220.6l0.3,0.3h15l1.4-2.3l-6.2-10.1h-3L317.9,220.6z M325.7,233.6l7.5-12.3h-15L325.7,233.6z M310.4,207.9
					l0.3,0.5h14.7l1.5-2.5l-6.1-10h-3.3L310.4,207.9z M267.9,107.9l-2.3-4l-2.3,4H267.9z M264.3,131.5l0.9,1.7h13.5l2.1-3.6
					l-5.3-8.9H271L264.3,131.5z M275.6,120.5l-2.2-3.7l-2.2,3.7H275.6z M256.8,118.8l1.2,1.8h13.2l2.2-3.7l-5.3-8.8h-4.8
					L256.8,118.8z M250.3,107.9h13.1l2.3-4l-5.2-8.7h-4.9l-6.5,10.6L250.3,107.9z M255.5,95.3h-12.8l6.3,10.6L255.5,95.3z
					 M294.2,133.1h-11l5.5,9.1L294.2,133.1z M308.4,145.7l-3.3-5.3l-3.3,5.3H308.4z M296.2,155l1.9,3.3h11.4l3.1-5.2l-4.4-7.3h-6.6
					L296.2,155z M290.5,145.7h11.3l3.3-5.3l-4.4-7.1h-6.7l-5.5,9.1L290.5,145.7z M315.8,158.2l-3.1-5.2l-3.1,5.2H315.8z M272,144.4
					l0.8,1.4h13.6l2.1-3.5l-5.5-9.1h-4.3L272,144.4z M283.1,133.1l-2.1-3.6l-2.1,3.6H283.1z M148.5,170.7l7.5-12.5l-0.1-0.1h-15.3
					l-1.3,2.1l6.2,10.5h2.9L148.5,170.7L148.5,170.7z M279.9,283.8h5.1l-2.5-4.3L279.9,283.8z M112.8,204.5l-2.3,4h4.8L112.8,204.5z
					 M264.5,283.8h2.6l-1.3-2.2L264.5,283.8z M295.1,271.3h-7.7l-5.1,8.4l2.5,4.3h10.4l3.7-6.2L295.1,271.3z M295.1,283.8h7.5
					l-3.7-6.2L295.1,283.8z M259.5,271.3h-2.9l-7.5,12.3l0.1,0.3h15.2l1.3-2.2L259.5,271.3z M226.1,296.4h13l-6.5-10.8L226.1,296.4z
					 M312.8,271.3h-10l-3.9,6.3l3.7,6.2h7.8l4.9-8.3L312.8,271.3z M231.5,283.8h-13.2l-2.3,3.9l5.3,8.7h4.8l6.5-10.8L231.5,283.8z
					 M213.7,283.8h-10.8l-3.5,5.8l4,6.7h7.3l5.3-8.7L213.7,283.8z M256.9,296.4l7.5-12.7h-15.2L256.9,296.4z M233.8,283.8l-1.2,1.8
					l6.5,10.8h2.5l7.5-12.7L233.8,283.8L233.8,283.8z M249,283.8l-7.5,12.7h15.4l0,0l-7.5-12.7H249z M210.8,296.4h10.5l-5.3-8.7
					L210.8,296.4z M340.9,258.9l7.4,12.3h0.4l7.5-12.7h-15.4V258.9z M351.1,246.2l-1.2-2.1l-1.3,2.1H351.1z M341,258.7h15.4l1.2-1.8
					l-6.5-10.8h-2.5L341,258.7z M333.3,246.2L333.3,246.2h15.4l1.3-2.1l-6.3-10.6H341L333.3,246.2z M333.1,221l-7.5,12.3l0.1,0.3
					h15.2l1.3-2.2l-6.2-10.5H333.1L333.1,221z M343.5,233.6l-1.3-2.2l-1.3,2.2H343.5z M330.7,271.3h-12.5l-2.6,4.4l4.9,8.3h5.5
					l6.2-10.1L330.7,271.3z M348.6,271.6l0.3-0.3h-0.4L348.6,271.6z M348.5,271.3h-15l-1.4,2.3l6.2,10.1h3l7.4-12.2L348.5,271.3z
					 M310.5,283.8h9.9l-4.9-8.3L310.5,283.8z M325.9,283.8h12.2l-6.2-10.1L325.9,283.8z M341.3,283.8h14.7l-7.3-12.2L341.3,283.8z
					 M356,283.8h0.7l7.5-12.7h-15.4l-0.3,0.3L356,283.8z M277.3,271.3h-5.3l-6.2,10.5l1.3,2.2h12.7l2.5-4.3L277.3,271.3z
					 M77.2,263.5l-4.7,7.7h9.3L77.2,263.5z M81.8,271.3h-9.3l-4.3,7l3.5,5.6h8.6l4.5-7.5L81.8,271.3z M87.8,271.3l6-9.7l-1.7-2.7
					H80.2l-2.9,4.8l4.7,7.7h5.9V271.3z M86,248.8l-6.1,9.9h11.9L86,248.8z M99.5,271.3H87.7l-3,4.9l4.5,7.5h6.2l5.8-9.6L99.5,271.3z
					 M80.2,283.8h9l-4.5-7.5L80.2,283.8z M95.6,283.8h11.5l-5.8-9.6L95.6,283.8z M111.4,232l-6.6-11h-2.1l-7.5,12.7h15.4L111.4,232z
					 M103.9,219.2l-1.2,1.7h2.1L103.9,219.2z M118.2,221l2.2-3.7l-5.3-8.8h-4.8l-6.6,10.9l1.2,1.7h13.4V221z M95.3,258.7l7.1-11.9
					l-0.3-0.7H87.7l-1.7,2.6l6,9.9h3.5v0.1H95.3z M195.5,296.4h8.2l-4-6.7L195.5,296.4z M103,246.2l7.5-12.7H95.1l-0.3,0.4l7.3,12.1
					L103,246.2L103,246.2z M95,234l-7.3,12.1h14.5L95,234z M117.4,271.3h-14.1l-1.8,3l5.8,9.6h3.9l7-11.7L117.4,271.3z M149.3,296.4
					h0.8l-0.4-0.7L149.3,296.4z M160.4,283.8h-3.5l-7.1,11.8l0.4,0.7h14.4l1.7-2.7L160.4,283.8z M178.3,283.8h-6l-6,9.9l1.7,2.7
					h12.1l2.9-4.7L178.3,283.8z M180,296.4h5.8l-2.9-4.7L180,296.4z M196,283.8h-8.3l-4.8,7.8l2.9,4.7h9.6l4-6.7L196,283.8z
					 M164.7,296.4h3.3l-1.7-2.7L164.7,296.4z M110.9,283.8h13.9l-7-11.7L110.9,283.8z M118.5,271.3l-0.5,0.9l7,11.7h1.4l7.5-12.7
					H118.5z M142.1,283l-0.5,0.8h1.2L142.1,283z M142.7,283.8h-1.2l-7.5,12.7h15.4l0.4-0.7L142.7,283.8z M135.1,271.3h-1.3
					l-7.5,12.7h15.4l0.5-0.8L135.1,271.3z M325.8,233.6l-0.1-0.3l-0.1,0.3H325.8z M374.1,254.9l2.3,3.9h10.8l3.5-5.8l-4-6.7h-7.3
					L374.1,254.9z M386.5,246.2l-3.6-6.1l-3.6,6.1H386.5z M379.1,233.6l-3.7-6.2l-3.7,6.2H379.1z M367.7,214.5l3.9,6.3h7.5l5.1-8.4
					l-2.5-4.1h-10.2L367.7,214.5z M375.4,227.5l3.9-6.3h-7.5L375.4,227.5z M363.8,221l-5.1,8.4l2.5,4.3h10.4l3.7-6.2l-3.9-6.3h-7.5
					L363.8,221L363.8,221z M366.4,242.2l2.5,4h10.5l3.6-6.1l-4-6.6h-7.5L366.4,242.2z M381.7,267.6l5.3-8.9h-10.8L381.7,267.6z
					 M391.4,283.8l-2.1-3.5l-2.1,3.5H391.4z M380.4,295.1l0.7,1.3h13.7l2.1-3.3l-5.5-9.2h-4.3L380.4,295.1z M379.6,296.4h1.7
					l-0.7-1.3L379.6,296.4z M371.8,258.7l-6.6,10.9l0.9,1.7h13.4l2.2-3.7l-5.3-8.8h-4.6V258.7z M383.9,271.3l-2.2-3.7l-2.2,3.7
					H383.9z M372.8,282.5l0.8,1.5h13.6l2.1-3.5l-5.3-9.1h-4.4L372.8,282.5z M298.7,70.3l-6.2-10.5l-6.3,10.5
					C292.2,70.3,292.6,70.3,298.7,70.3z M306.2,82.9l-6.2-10.4l-6.2,10.4H306.2z M172.8,334l7.5-12.3h-15L172.8,334z M280.8,70.3
					c2.5,0,2.6,0,5.2,0l6.3-10.5l-1.3-2.1h-12.8l-2.5,4.1L280.8,70.3z M278.2,57.6h-4.9l2.5,4.1L278.2,57.6z M259.3,63.8l4,6.5
					c3.9,0,3.9,0,7.5,0l5.1-8.6l-2.5-4.1h-10.5L259.3,63.8z M360,201.9l4,6.6h7.4l5.2-8.6l-2.5-4h-10.5L360,201.9z M374.2,195.9
					l-5.3-8.7l-5.3,8.7H374.2z M381.7,208.6l-5.2-8.6l-5.2,8.6H381.7z M355.9,183.4l-3.5,5.8l4,6.7h7.1l5.3-8.7l-2.3-3.9
					L355.9,183.4L355.9,183.4z M313.9,95.3l-6.1-10.1l-6.2,10.1H313.9z M298.8,100.1l4.8,7.9h5.8l6.1-9.9l-1.7-2.6h-12.2
					L298.8,100.1z M291.2,87.3l4.8,8.2h5.6l6.2-10.1l-1.5-2.5H294L291.2,87.3z M273.4,57.6l-5.2-8.7l-5.2,8.7H273.4z M246.7,309
					h-12.7l-2.5,4.3l5.1,8.4h5.3l6.2-10.5L246.7,309z M228.9,309h-10.4l-3.7,6.2l3.9,6.3h7.5l5.1-8.4L228.9,309z M226.3,321.7h10
					l-5.1-8.4L226.3,321.7z M241.6,321.7h12.5l-6.2-10.5L241.6,321.7z M249.3,309l-1.3,2.2l6.2,10.5h2.9l7.4-12.3l-0.1-0.3
					L249.3,309L249.3,309z M264.6,309.1l0.1-0.3h-0.3L264.6,309.1z M180.2,321.7h2.9l-1.4-2.3L180.2,321.7z M211,321.7h7.5l-3.9-6.3
					L211,321.7z M193.3,309h-5.5l-6.2,10.1l1.4,2.3h12.5l2.6-4.4L193.3,309z M175.5,309h-3l-7.4,12.2l0.3,0.3h15l1.4-2.3L175.5,309z
					 M256.9,296.4l7.5,12.7h0.3l7.5-12.7H256.9z M211.1,309h-7.8l-4.9,8.2l2.6,4.4h10l3.9-6.3L211.1,309z M195.6,321.7h5.3l-2.6-4.4
					L195.6,321.7z M326.1,309h9.5l-4.8-7.8L326.1,309z M341.3,309h11.8l-6-9.9L341.3,309z M345.7,296.4h-12.1l-2.9,4.7l4.8,7.8h6
					l6-9.9L345.7,296.4z M363.4,296.4h-14.5l-1.7,2.6l6,9.9h3.5l7.1-11.8L363.4,296.4z M274.6,296.4h-2.5l-7.5,12.7H280l1.2-1.8
					L274.6,296.4z M356.7,309H371l-7-11.8L356.7,309z M364,297.2l7.1,11.8h1.2l7.5-12.7h-15.4L364,297.2z M373.8,283.8H372
					l-7.5,12.7h15.4l0.8-1.3L373.8,283.8z M292.4,296.4h-4.8l-6.5,10.8l1.2,1.8h13.2l2.3-3.9L292.4,296.4z M280,309h2.2l-1.2-1.8
					L280,309z M295.2,309h4.7l-2.3-3.9L295.2,309z M310.6,309h7.1l-3.5-5.8L310.6,309z M310.2,296.4h-7.3l-5.3,8.7l2.3,3.9h10.8
					l3.5-5.8L310.2,296.4z M328,296.4h-9.6l-4,6.7l3.5,5.8h8.3l4.8-7.8L328,296.4z M283.4,74.5l4.9,8.3h5.3l6.2-10.4l-1.4-2.2
					c-6.1,0-6.5,0-12.7,0L283.4,74.5z M95.1,145.7l3.6,6l3.6-6H95.1z M107.6,137l-2.2-3.7H94.6l-3.5,5.8l4.1,6.7h7.1L107.6,137z
					 M110,133.1h-4.5l2.2,3.7L110,133.1z M112.8,145.7h4.8l6.6-10.9l-1.2-1.8h-13.2l-2.2,3.7L112.8,145.7z M98.7,151.6l-4,6.7h7.9
					L98.7,151.6z M110.1,158.2l5.2-8.7l-2.3-4h-10.6l-3.7,6l4,6.7L110.1,158.2L110.1,158.2z M125.4,133.1l7.5-12.7h-15.4l-0.9,1.7
					l6.6,11H125.4z M140.5,107.9l1.7-2.6l-6-9.9h-3.5l-7.1,11.9l0.3,0.7h14.5V107.9z M125.4,107.4l-0.3,0.7h0.7L125.4,107.4z
					 M116.6,122.1l-6.7,11h13.2L116.6,122.1z M134.4,92.6l-1.7,2.7h3.5L134.4,92.6z M133.2,120l-7.3-12.1h-0.7l-7.5,12.7h15.5
					L133.2,120z M102.6,170.7l4-6.5l-3.7-6.2h-7.9l-4.8,8.2l2.6,4.4L102.6,170.7L102.6,170.7z M80.9,181.1l-1.4,2.2h2.7L80.9,181.1z
					 M54.2,225.3l-4.9,8.3h9.9L54.2,225.3z M251.5,51.1l4,6.7h7.3l5.2-8.7l-2.3-4h-10.6L251.5,51.1z M64.5,233.6l6.2-10.4l-1.4-2.2
					H56.7l-2.5,4.3l4.9,8.3H64.5L64.5,233.6z M45.3,240l-3.7,6.2h7.3L45.3,240z M49.3,258.7l3.6-6l-4-6.7h-7.3l-5.2,8.7l2.3,4H49.3
					L49.3,258.7z M63,210.6L56.8,221h12.7L63,210.6z M87.3,195.9l1.3-2.1l-6.2-10.5h-2.7l-7.5,12.5v0.1h15.3v-0.1H87.3z M89.8,166.3
					l-2.6,4.4h5.3L89.8,166.3z M72.1,221l7.5-12.5l-0.1-0.1H64.5l-1.3,2.1l6.2,10.5h2.7C72.1,220.9,72.1,221,72.1,221z M94.8,183.4
					l2.5-4.3l-4.9-8.3h-5.3l-6.3,10.4l1.4,2.2H94.8L94.8,183.4z M148,95.3l2.9-4.8l-4.7-7.7h-6.1l-6,9.7l1.7,2.7H148V95.3z
					 M72,195.9L72,195.9L72,195.9L72,195.9z M72,195.9L72,195.9l-7.7,12.7h15.3L72,195.9z M56.9,246.2l4.8-8.2l-2.6-4.4h-9.9l-4,6.5
					l3.7,6.2L56.9,246.2L56.9,246.2z M216.5,7.4h-8.9l4.4,7.4L216.5,7.4z M232.8,20l-4.4-7.1L224,20H232.8z M195.5,16.9l1.9,3.1
					h11.5l3-5.2l-4.4-7.4H201L195.5,16.9z M143.3,77.9l-3,4.9h6.1L143.3,77.9z M207.5,7.4l-3.1-5.3l-3.1,5.3
					C201.3,7.4,207.5,7.4,207.5,7.4z M201.2,7.4l3.1-5.3L199.9-5c-3,0-3.7,0-6.7,0l-5.6,9.2l2.1,3.3h11.5V7.4z M187.8,4.1l-2.1,3.3
					h4L187.8,4.1z M248.1,45.3h7.1l5.3-8.8l-2.2-3.7c-5.3,0-5.3,0-10.9,0l-3.5,5.8L248.1,45.3z M247.5,32.6c-3.5,0-3.5,0-7,0
					l3.5,5.8L247.5,32.6z M265.9,45.3l-5.3-8.8l-5.3,8.8H265.9z M219.7,27.6l3,4.9c4.5,0,4.8,0,9.3,0l4.3-7l-3.5-5.6h-8.6
					L219.7,27.6z M240.5,32.6l-4.3-7l-4.3,7C236.2,32.6,236.3,32.6,240.5,32.6z M227.4,40.3l2.9,4.8h9.5l4.1-6.7l-3.5-5.8
					c-4.1,0-4.3,0-8.4,0L227.4,40.3z M215.2,20h9.1l4.4-7.1l-3.3-5.3h-8.8l-4.4,7.4L215.2,20z M163.2,70.3l5.5-9.1l-2.1-3.5h-11.3
					L152,63l4.4,7.1C159.2,70.3,160.4,70.3,163.2,70.3z M161.1,48.4l-5.6,9.3h11.3L161.1,48.4z M170.8,57.6l6.9-11.3l-0.7-1.3h-13.9
					l-1.9,3.3l5.6,9.3L170.8,57.6L170.8,57.6z M152.1,63l-4.4,7.1c3.5,0,5.1,0,8.6,0L152.1,63z M170,33.7l-7,11.5h13.9L170,33.7z
					 M155.6,82.9l4.3-7l-3.5-5.6c-3.5,0-5.3,0-8.6,0l-4.5,7.5l3,4.9h9.2V82.9z M186,32.6l0.5-0.9l-7-11.7h-1.4l-7.5,12.7
					C177,32.6,179.2,32.6,186,32.6z M178.9,18.8l-0.7,1.2h1.4L178.9,18.8z M169.4,32.6l0.7,1.2l0.7-1.2
					C170,32.6,169.9,32.6,169.4,32.6z M178.3,20h-15.4l-0.5,0.8l7,11.7c0.5,0,0.7,0,1.3,0L178.3,20z M193.7,20l1.9-3.1L190,7.3h-4
					l-6.9,11.4l0.7,1.2L193.7,20L193.7,20z M321.8,138.3l4.4,7.4h6.3l5.8-9.5l-1.9-3.1h-11.5L321.8,138.3z M270.7,70.3
					c-3.7,0-3.9,0-7.5,0l3.9,6.2L270.7,70.3z M270.7,82.9h7.7l4.9-8.3l-2.5-4.3c-4.9,0-5.2,0-10.1,0l-3.9,6.2L270.7,82.9z
					 M250.5,78.5l2.5,4.3h10.1l3.9-6.2l-3.9-6.2c-4,0-4,0-7.8,0L250.5,78.5z M242.7,65.9l2.6,4.4c4.9,0,4.9,0,9.9,0l4-6.5l-3.7-6.2
					h-7.9L242.7,65.9z M263,70.3l-4-6.5l-4,6.5C259.3,70.3,259.3,70.3,263,70.3z M255.5,57.6l-4-6.7l-4,6.7H255.5z M288.3,82.9
					l-4.9-8.3l-4.9,8.3H288.3z M303.5,107.9l-4.8-7.9l-4.8,7.9H303.5z M289.9,114.8l3.5,5.8h8.4l4.7-7.7l-2.9-4.8H294L289.9,114.8z
					 M309.5,107.9h-6l2.9,4.8L309.5,107.9z M296.1,95.3l-4.8-8.2l-4.8,8.2H296.1z M282.2,102l3.6,6h8.2l4.8-7.9l-2.7-4.7h-9.7
					L282.2,102z M230.2,45.3l-2.9-4.8l-2.9,4.8H230.2z M186.5,31.6l-0.5,0.9c0.5,0,0.7,0,1.2,0L186.5,31.6z M237.8,57.6h9.7l4-6.7
					l-3.6-6h-8.2l-4.8,7.9L237.8,57.6z M194.2,44.2l-7.1-11.8c-0.5,0-0.7,0-1.2,0l-7.5,12.7h15.4L194.2,44.2z M186.3,57.6l7.5-12.7
					h-15.4l-0.7,1.3l6.7,11.3h1.8v0.1H186.3z M208.9,20h-11.5l5.8,9.6L208.9,20z M177.6,46.3l-6.9,11.3h13.6L177.6,46.3z
					 M201.4,32.6l1.8-3l-5.8-9.6h-3.9l-7,11.7l0.5,0.9C193.4,32.6,194.8,32.6,201.4,32.6z M311,120.5h6.1l6-9.7l-1.7-2.7h-11.9
					l-2.9,4.8L311,120.5z M178.6,70.3l6.7-11.1l-0.8-1.4h-13.6l-2.1,3.5l5.5,9.1C176.1,70.3,176.6,70.3,178.6,70.3z M204.9,32.6
					c5.5,0,6.2,0,11.8,0l3-4.9l-4.5-7.5h-6.2l-5.8,9.6L204.9,32.6z M210.8,42.3l1.7,2.7h11.9l2.9-4.8l-4.7-7.7c-3,0-3,0-6.1,0
					L210.8,42.3z M222.7,32.6l-3-4.9l-3,4.9C219.6,32.6,219.8,32.6,222.7,32.6z M239.7,45.3h-9.5l4.8,7.9L239.7,45.3z M349.8,244.1
					l1.2,2.1h13l2.5-4l-5.1-8.6h-5.1L349.8,244.1z M368.9,246.2l-2.5-4l-2.5,4H368.9z M361.2,233.6l-2.5-4.3l-2.5,4.3H361.2z
					 M348.5,221l-6.2,10.5l1.3,2.2h12.7l2.5-4.3l-4.9-8.4H348.5z M357.6,256.9l1.2,1.8h13.2l2.3-3.9l-5.2-8.7H364L357.6,256.9z
					 M358.8,229.4l5.1-8.4h-10L358.8,229.4z M356.4,258.7l-7.5,12.7h15.4l1.2-1.7l-6.6-10.9h-2.3v-0.1H356.4z M356.3,284.4l7.1,12.1
					h0.8l7.5-12.7h-15.4L356.3,284.4z M356.6,283.8H372l0.9-1.5l-6.7-11.1h-2.1L356.6,283.8z M365.2,269.5l6.6-10.9h-13.2
					L365.2,269.5z M349,296.4h14.5l-7.1-12.1L349,296.4z M366.2,271.3l-0.9-1.7l-1.2,1.7H366.2z M351.1,216.6l2.6,4.4h10l3.9-6.3
					l-3.7-6.2H356L351.1,216.6z M314.1,125.5l4.5,7.5h6.2l5.8-9.6l-1.8-3h-11.5L314.1,125.5z M356,283.8h-14.7l-1.5,2.5l6.1,10h3.3
					l7.3-12.1L356,283.8z M332.5,145.7l-3.1,5.3l4.4,7.1h6.6l5.6-9.2l-2.1-3.3h-11.4V145.7z M337.1,163.7l4.3,7.1h6.7l5.5-9.1
					l-2.1-3.5h-11.1L337.1,163.7z M351.5,158.2l-5.6-9.2l-5.6,9.2H351.5z M336.3,133.1l-5.8-9.6l-5.8,9.6H336.3z M328.8,120.5
					l-6-9.7l-6,9.7H328.8z M344.7,176.5l4.1,6.9h7l5.3-8.9l-2.2-3.7H348L344.7,176.5z M359,170.7l-5.5-9.1l-5.5,9.1H359z
					 M356.4,195.9l-4-6.7l-4,6.7H356.4z M343.5,204l2.7,4.5h9.9l4-6.6l-3.6-6.1h-8.2L343.5,204z M340.5,183.4l-4.8,7.8l2.9,4.8h9.6
					l4-6.7l-3.5-5.8h-8.3V183.4z M364,208.6l-4-6.6l-4,6.6H364z M352.4,189.1l3.5-5.8h-7L352.4,189.1z M115.2,149.5l-5.2,8.7h10.5
					L115.2,149.5z M35,282.4l-0.9,1.7H36L35,282.4z M42.8,295l-6.7-11.3h-1.9l-7.5,12.7H42L42.8,295z M43.6,296.4h-1.7L34.4,309
					h15.4l0.7-1.2L43.6,296.4z M26.6,296.4l-0.4,0.7l7.1,11.9h0.9l7.5-12.7H26.6z M61.3,296.4h-4.1l-6.9,11.3l0.7,1.2h13.9l1.9-3.1
					L61.3,296.4z M49.7,309h1.5l-0.7-1.2L49.7,309z M64.7,258.7l4.8-7.9l-2.7-4.7h-9.7l-4,6.7l3.6,6H64.7z M52.9,252.9l-3.6,6h7.1
					L52.9,252.9z M72.3,246.2l6.2-10.1l-1.5-2.5H64.6L62,238l4.8,8.2L72.3,246.2L72.3,246.2z M61.9,238.1l-4.8,8.2h9.7L61.9,238.1z
					 M65,309h4l-1.9-3.1L65,309z M57.1,271.3l3.5-5.8l-4.1-6.7h-7.1l-5.3,8.8l2.2,3.7H57.1z M44,267.6l-2.2,3.7h4.5L44,267.6z
					 M49.5,283.8l2.1-3.6l-5.3-8.9h-4.5l-6.7,11l0.9,1.7h13.6v-0.2H49.5z M134.1,321.7h13.4l-6.7-11.1L134.1,321.7z M140.1,309
					h-13.6l-2.1,3.5l5.3,9.1h4.4l6.7-11.1L140.1,309z M157.1,309h-15.4l-0.8,1.5l6.7,11.1h2.1L157.1,309z M149.5,321.7l-0.9,1.7
					l6.6,10.9h2.2l7.5-12.7h-15.4L149.5,321.7L149.5,321.7z M122.2,309l2.1,3.5l2.1-3.5H122.2z M147.5,321.7l0.9,1.7l0.9-1.7H147.5z
					 M133.2,297.8l-0.7-1.3h-13.7l-2.1,3.3l5.5,9.2h4.3L133.2,297.8z M96.9,296.4H88l-4.4,7.3l3.1,5.2h8.9l4.4-7.1L96.9,296.4z
					 M80.4,309h6.3l-3.1-5.2L80.4,309z M95.8,309h8.7l-4.4-7.1L95.8,309z M79.1,296.4h-6.5l-5.6,9.3l1.9,3.1h11.4l3.1-5.2
					L79.1,296.4z M114.8,296.4h-11.3l-3.1,5.3l4.4,7.1h6.7l5.6-9.2L114.8,296.4z M168.6,61.2l-5.5,9.1c4.7,0,6.2,0,11,0L168.6,61.2z
					 M111,309h11.1l-5.5-9.2L111,309z M140.7,132.9l-7.4-12.2h-0.5l-7.5,12.7h15.4L140.7,132.9z M133.2,120l-0.3,0.4h0.5L133.2,120z
					 M133.1,145.7l7.5-12.7h-15.4l-1.2,1.8l6.5,10.9L133.1,145.7L133.1,145.7z M148.1,120.5l1.5-2.5l-6.1-10.1h-3.1l-7.3,12.2
					l0.3,0.4H148.1z M124.3,134.9l-6.6,10.9h13.1L124.3,134.9z M165,321.7l-7.5,12.7h15.4l0.1-0.3l-7.4-12.3L165,321.7L165,321.7z
					 M125.4,158.2l6.5-10.6l-1.2-1.9h-13.1l-2.3,4l5.2,8.7L125.4,158.2L125.4,158.2z M163.4,95.3l4.1-6.7l-3.5-5.8h-8.4l-4.7,7.7
					l2.9,4.8h9.5V95.3z M142,105.3l-1.7,2.6h3.1L142,105.3z M171,82.9l5.3-8.9l-2.1-3.6c-4.8,0-6.5,0-11,0l-3.5,5.6l4.3,7h6.9
					L171,82.9L171,82.9z M159.9,75.9l-4.3,7h8.4L159.9,75.9z M151,90.5l-2.9,4.8h5.8L151,90.5z M155.8,107.9l2.7-4.7l-4.8-7.9h-5.8
					l-6.1,9.9l1.7,2.6h12.2V107.9z M70.8,223.4l-6.2,10.4h12.3L70.8,223.4z M95,208.6l1.2-1.9l-6.3-10.8h-2.5l-7.6,12.7H95z
					 M87.3,195.9H72l7.5,12.7h0.2L87.3,195.9z M87.4,221l7.5-12.7H79.6l-0.1,0.1L87,221H87.4L87.4,221z M79.6,208.6L79.6,208.6
					L79.6,208.6L79.6,208.6z M79.9,233.6l7.4-12.2L87,221H72l-1.4,2.2l6.2,10.4H79.9L79.9,233.6z M79.6,208.6L72,221.1h15
					L79.6,208.6z M106.4,164.2l-4,6.5h7.7L106.4,164.2z M88.6,193.8l-1.3,2.1h2.5L88.6,193.8z M110.2,183.4l3.9-6.2l-3.9-6.2h-7.7
					l-4.9,8.3l2.5,4.3h10.1V183.4z M117.8,170.7l5.1-8.6l-2.5-4.1H110l-3.7,6.2l4,6.5H117.8z M97.4,179l-2.5,4.3h5.2L97.4,179z
					 M102.7,195.9l2.5-4.1l-5.1-8.6h-5.2l-6.3,10.5l1.3,2.1h13v0.1H102.7z"/>
			</g>
		</g>
	</g>
	
		<linearGradient id="XMLID_4_" gradientUnits="userSpaceOnUse" x1="200" y1="557.2" x2="200" y2="157.2" gradientTransform="matrix(1 0 0 1 0 -157.2)">
		<stop  offset="0" style="stop-color:#2F4AE8"/>
		<stop  offset="1.057398e-02" style="stop-color:#3249E9"/>
		<stop  offset="0.1494" style="stop-color:#573BEF"/>
		<stop  offset="0.2946" style="stop-color:#762FF5"/>
		<stop  offset="0.4461" style="stop-color:#8E26F9"/>
		<stop  offset="0.6065" style="stop-color:#9F20FD"/>
		<stop  offset="0.7818" style="stop-color:#A91CFE"/>
		<stop  offset="1" style="stop-color:#AC1BFF"/>
	</linearGradient>
	<path id="XMLID_7011_" class="st1" d="M373,100.4c0-0.1-0.1-0.3-0.1-0.4c-0.1-0.1-0.1-0.3-0.3-0.4c-17.5-30-42.4-55-72.5-72.5
		c-0.1-0.1-0.3-0.3-0.4-0.3c-0.1-0.1-0.3-0.1-0.4-0.1C270,9.7,236,0,199.8,0c-36.3,0-70.3,9.7-99.5,26.7c-0.1,0-0.3,0.1-0.4,0.1
		c-0.1,0.1-0.3,0.1-0.4,0.3c-30,17.5-55,42.4-72.5,72.5c-0.1,0.1-0.3,0.3-0.3,0.4c-0.1,0.1-0.1,0.3-0.1,0.4C9.7,129.6,0,163.7,0,200
		s9.7,70.3,26.7,99.6c0,0.1,0.1,0.3,0.1,0.4s0.1,0.1,0.3,0.3c17.5,30,42.4,55.1,72.6,72.6c0.1,0.1,0.3,0.3,0.4,0.3s0.1,0.1,0.3,0.1
		c29.4,16.9,63.4,26.7,99.6,26.7s70.4-9.7,99.6-26.7c0.1,0,0.1,0,0.3-0.1c0.1-0.1,0.3-0.1,0.4-0.3c30-17.5,55.1-42.7,72.6-72.6
		c0.1-0.1,0.1-0.1,0.3-0.3c0.1-0.1,0.1-0.3,0.1-0.4c16.9-29.3,26.7-63.4,26.7-99.5C399.7,163.6,390,129.6,373,100.4z M369.6,294.8
		l-22.8-13.2c-1.3-0.7-2.9-0.3-3.6,0.9c-0.7,1.3-0.3,2.9,0.9,3.6l22.8,13.2c-16.6,27.8-39.8,51-67.6,67.6l-13.2-22.8
		c-0.7-1.3-2.3-1.7-3.6-0.9s-1.7,2.3-0.9,3.6l13.2,22.8c-27.4,15.4-58.9,24.4-92.4,24.8V368c0-1.5-1.3-2.6-2.6-2.6s-2.6,1.3-2.6,2.6
		v26.3c-33.6-0.4-65-9.3-92.4-24.8l13.2-22.8c0.7-1.3,0.3-2.9-0.9-3.6c-1.3-0.7-2.9-0.3-3.6,0.9L100.3,367
		c-27.8-16.6-51-39.8-67.6-67.6l22.8-13.2c1.3-0.7,1.7-2.3,0.9-3.6s-2.3-1.7-3.6-0.9l-23,13.2C14.4,267.4,5.4,236,5,202.4h26.3
		c1.5,0,2.6-1.3,2.6-2.6c0-1.5-1.3-2.6-2.6-2.6H5.2c0.4-33.6,9.3-65,24.8-92.4l22.8,13.2c0.4,0.3,0.8,0.4,1.4,0.4
		c0.9,0,1.8-0.4,2.3-1.4c0.7-1.3,0.3-2.9-0.9-3.6l-22.8-13.1c16.6-27.8,39.8-51,67.6-67.6l13.2,22.8c0.5,0.8,1.4,1.4,2.3,1.4
		c0.4,0,0.9-0.1,1.4-0.4c1.3-0.7,1.7-2.3,0.9-3.6L105,30.1c27.4-15.4,58.9-24.4,92.4-24.8v26.3c0,1.5,1.3,2.6,2.6,2.6
		s2.6-1.3,2.6-2.6V5.2c33.6,0.4,65,9.3,92.4,24.8l-13.2,22.8c-0.7,1.3-0.3,2.9,0.9,3.6c0.4,0.3,0.8,0.4,1.4,0.4
		c0.9,0,1.8-0.4,2.3-1.4l13.2-22.8c27.8,16.6,51,39.8,67.6,67.6l-22.8,13.2c-1.3,0.7-1.7,2.3-0.9,3.6c0.5,0.8,1.4,1.4,2.3,1.4
		c0.4,0,0.9-0.1,1.4-0.4l22.8-13.2c15.4,27.4,24.4,58.9,24.8,92.4h-26.3c-1.5,0-2.6,1.3-2.6,2.6c0,1.5,1.3,2.6,2.6,2.6h26.3
		C393.9,236,385,267.5,369.6,294.8z"/>
	
		<linearGradient id="XMLID_5_" gradientUnits="userSpaceOnUse" x1="198.4318" y1="435.735" x2="198.4318" y2="279.521" gradientTransform="matrix(1 0 0 1 0 -157.2)">
		<stop  offset="0" style="stop-color:#2F4AE8"/>
		<stop  offset="1.057398e-02" style="stop-color:#3249E9"/>
		<stop  offset="0.1494" style="stop-color:#573BEF"/>
		<stop  offset="0.2946" style="stop-color:#762FF5"/>
		<stop  offset="0.4461" style="stop-color:#8E26F9"/>
		<stop  offset="0.6065" style="stop-color:#9F20FD"/>
		<stop  offset="0.7818" style="stop-color:#A91CFE"/>
		<stop  offset="1" style="stop-color:#AC1BFF"/>
	</linearGradient>
	<path id="XMLID_1_" class="st2" d="M82.7,277.6v-9.1l17.8-16.1c4-3.7,6.7-6.6,8.4-8.9c1.7-2.3,2.3-4.7,2.3-7.3
		c0-5.1-4.1-8.4-10.4-8.4c-5.6,0-11.1,2.3-16.2,6.9V222c4.9-3.9,10.8-5.8,17.5-5.8c5.8,0,10.8,1.7,15,5.1c4.3,3.3,6.3,7.8,6.3,13.4
		c0,4.3-0.9,7.9-2.9,11.3c-1.8,3.3-5.1,7-9.9,11.4l-10.4,9.5h25v10.9H82.7V277.6z M132.4,277.6v-9.1l17.8-16.1
		c4-3.7,6.7-6.6,8.4-8.9c1.7-2.3,2.3-4.7,2.3-7.3c0-5.1-4.1-8.4-10.4-8.4c-5.6,0-11.1,2.3-16.2,6.9V222c4.9-3.9,10.8-5.8,17.5-5.8
		c5.8,0,10.8,1.7,15,5.1c4.3,3.3,6.3,7.8,6.3,13.4c0,4.3-0.9,7.9-2.9,11.3c-1.8,3.3-5.1,7-9.9,11.4l-10.4,9.5h25v10.9H132v-0.2
		H132.4z M182.9,242.7c0-4.1,3.3-7.4,7.4-7.4c4.1,0,7.4,3.3,7.4,7.4c0,4.3-3.3,7.5-7.4,7.5C186.1,250.2,182.9,246.7,182.9,242.7z
		 M182.9,270.9c0-4.1,3.3-7.4,7.4-7.4c4.1,0,7.4,3.3,7.4,7.4c0,4.3-3.3,7.5-7.4,7.5C186.1,278.5,182.9,275.1,182.9,270.9z
		 M217.9,274.2c-7.9-6-11.9-15.7-11.9-26.8c0-5.6,0.9-10.6,2.9-15.3c4-9.3,12.3-16,23-16c7.8,0,14.1,3,18.8,9.2c4.7,6.1,7,13.5,7,22
		s-2.3,16-7,22c-4.7,6.1-10.9,9.2-18.8,9.2C226.6,278.7,221.9,277.3,217.9,274.2z M231.9,267.1c4.1,0,7.4-1.9,9.7-5.6
		c2.5-3.9,3.7-8.6,3.7-14c0-5.4-1.3-10.1-3.7-13.9c-2.3-3.9-5.6-5.8-9.7-5.8c-4.1,0-7.4,1.9-9.9,5.8c-2.5,3.7-3.7,8.4-3.7,13.9
		c0,5.5,1.3,10.1,3.7,14C224.5,265.3,227.8,267.1,231.9,267.1z M278.3,274.2c-7.9-6-11.9-15.7-11.9-26.8c0-5.6,0.9-10.6,2.9-15.3
		c4-9.3,12.3-16,23-16c7.8,0,14.1,3,18.8,9.2c4.7,6.1,7,13.5,7,22s-2.3,16-7,22c-4.7,6.1-10.9,9.2-18.8,9.2
		C287,278.7,282.4,277.3,278.3,274.2z M292.4,267.1c4.1,0,7.4-1.9,9.7-5.6c2.5-3.9,3.7-8.6,3.7-14c0-5.4-1.3-10.1-3.7-13.9
		c-2.3-3.9-5.6-5.8-9.7-5.8c-4.1,0-7.4,1.9-9.9,5.8c-2.5,3.7-3.7,8.4-3.7,13.9c0,5.5,1.3,10.1,3.7,14
		C285,265.3,288.2,267.1,292.4,267.1z M91.4,183.7v-46.8l-12.7,6.4v-12.1l14-7.5h10.8v60.1H91.4L91.4,183.7z M142.5,183.7v-15.1
		h-30.1v-8.9l30-36.2h12.2v35h8.8v9.9h-8.8v15h-12.1V183.7z M126.1,158.6h16.4V139L126.1,158.6z M169.4,148.8c0-4.1,3.3-7.4,7.4-7.4
		s7.4,3.3,7.4,7.4c0,4.3-3.3,7.5-7.4,7.5C172.5,156.3,169.4,152.8,169.4,148.8z M169.4,177c0-4.1,3.3-7.4,7.4-7.4s7.4,3.3,7.4,7.4
		c0,4.3-3.3,7.5-7.4,7.5C172.5,184.6,169.4,181.3,169.4,177z M204.3,180.3c-7.9-6-11.9-15.7-11.9-26.8c0-5.6,0.9-10.6,2.9-15.3
		c4-9.3,12.3-16,23-16c7.8,0,14.1,3,18.8,9.2c4.7,6.1,7,13.5,7,22c0,8.5-2.3,16-7,22c-4.7,6.1-10.9,9.2-18.8,9.2
		C213,184.8,208.4,183.4,204.3,180.3z M218.3,173.2c4.1,0,7.4-1.9,9.7-5.6c2.5-3.9,3.7-8.6,3.7-14c0-5.5-1.3-10.1-3.7-13.9
		c-2.3-3.9-5.6-5.8-9.7-5.8c-4.1,0-7.4,1.9-9.9,5.8c-2.5,3.7-3.7,8.4-3.7,13.9c0,5.5,1.3,10.1,3.7,14
		C210.8,171.5,214.1,173.2,218.3,173.2z M264.9,180.3c-7.9-6-11.9-15.7-11.9-26.8c0-5.6,0.9-10.6,2.9-15.3c4-9.3,12.3-16,23-16
		c7.8,0,14.1,3,18.8,9.2c4.7,6.1,7,13.5,7,22c0,8.5-2.3,16-7,22c-4.7,6.1-10.9,9.2-18.8,9.2C273.5,184.8,268.9,183.4,264.9,180.3z
		 M278.7,173.2c4.1,0,7.4-1.9,9.7-5.6c2.5-3.9,3.7-8.6,3.7-14c0-5.5-1.3-10.1-3.7-13.9c-2.3-3.9-5.6-5.8-9.7-5.8
		c-4.1,0-7.4,1.9-9.9,5.8c-2.5,3.7-3.7,8.4-3.7,13.9c0,5.5,1.3,10.1,3.7,14C271.5,171.5,274.6,173.2,278.7,173.2z"/>
</g>
</svg>
