<svg id="Слой_1" data-name="Слой 1" xmlns="http://www.w3.org/2000/svg" xmlns:xlink="http://www.w3.org/1999/xlink" viewBox="0 0 918.4 673"><defs><style>.cls-1{fill:none;}.cls-2{clip-path:url(#clip-path);}.cls-3{fill:#3eb5f1;}.cls-4{fill:#5e97d3;}.cls-5{fill:#3c4047;}</style><clipPath id="clip-path" transform="translate(324.8 127.4)"><path class="cls-1" d="M184.3,57.8A126.4,126.4,0,0,0,74.7,121h0l109.6,63.2,63.2,109.6h0A126.5,126.5,0,0,0,184.3,57.8Z"/></clipPath></defs><title>time</title><g class="cls-2"><rect class="cls-3" x="-194.3" y="92.6" width="514.1" height="1.07" transform="matrix(0.52, -0.86, 0.86, 0.52, 275.4, 226.17)"/><rect class="cls-3" x="-183.2" y="99.1" width="514.1" height="1.07" transform="matrix(0.52, -0.86, 0.86, 0.52, 275.21, 238.74)"/><rect class="cls-3" x="-172.2" y="105.5" width="514.1" height="1.07" transform="matrix(0.52, -0.86, 0.86, 0.52, 275.03, 251.31)"/><rect class="cls-3" x="-161.1" y="112" width="514.1" height="1.07" transform="matrix(0.52, -0.86, 0.86, 0.52, 274.84, 263.88)"/><rect class="cls-3" x="-150.1" y="118.4" width="514.1" height="1.07" transform="matrix(0.52, -0.86, 0.86, 0.52, 274.66, 276.45)"/><rect class="cls-3" x="-139.1" y="124.9" width="514.1" height="1.07" transform="matrix(0.52, -0.86, 0.86, 0.52, 274.47, 289.02)"/><rect class="cls-3" x="-128" y="131.3" width="514.1" height="1.07" transform="matrix(0.52, -0.86, 0.86, 0.52, 274.28, 301.59)"/><rect class="cls-3" x="-117" y="137.8" width="514.1" height="1.07" transform="matrix(0.52, -0.86, 0.86, 0.52, 274.1, 314.16)"/><rect class="cls-3" x="-105.9" y="144.2" width="514.1" height="1.07" transform="matrix(0.52, -0.86, 0.86, 0.52, 273.91, 326.73)"/><rect class="cls-3" x="-94.9" y="150.7" width="514.1" height="1.07" transform="matrix(0.52, -0.86, 0.86, 0.52, 273.73, 339.3)"/><rect class="cls-3" x="-83.9" y="157.1" width="514.1" height="1.07" transform="matrix(0.52, -0.86, 0.86, 0.52, 273.54, 351.87)"/><rect class="cls-3" x="-72.8" y="163.6" width="514.1" height="1.07" transform="matrix(0.52, -0.86, 0.86, 0.52, 273.35, 364.44)"/><rect class="cls-3" x="-61.8" y="170" width="514.1" height="1.07" transform="matrix(0.52, -0.86, 0.86, 0.52, 273.17, 377.01)"/><rect class="cls-3" x="-50.7" y="176.5" width="514.1" height="1.07" transform="matrix(0.52, -0.86, 0.86, 0.52, 272.98, 389.57)"/><rect class="cls-3" x="-39.7" y="182.9" width="514.1" height="1.07" transform="matrix(0.52, -0.86, 0.86, 0.52, 272.8, 402.14)"/><rect class="cls-3" x="-28.7" y="189.4" width="514.1" height="1.07" transform="matrix(0.52, -0.86, 0.86, 0.52, 272.61, 414.71)"/><rect class="cls-3" x="-17.6" y="195.8" width="514.1" height="1.07" transform="matrix(0.52, -0.86, 0.86, 0.52, 272.43, 427.28)"/><rect class="cls-3" x="-6.6" y="202.3" width="514.1" height="1.07" transform="matrix(0.52, -0.86, 0.86, 0.52, 272.24, 439.85)"/><rect class="cls-3" x="4.5" y="208.7" width="514.1" height="1.07" transform="matrix(0.52, -0.86, 0.86, 0.52, 272.05, 452.42)"/><rect class="cls-3" x="15.5" y="215.2" width="514.1" height="1.07" transform="matrix(0.52, -0.86, 0.86, 0.52, 271.87, 464.99)"/><rect class="cls-3" x="26.5" y="221.6" width="514.1" height="1.07" transform="matrix(0.52, -0.86, 0.86, 0.52, 271.68, 477.56)"/><rect class="cls-3" x="37.6" y="228.1" width="514.1" height="1.07" transform="matrix(0.52, -0.86, 0.86, 0.52, 271.5, 490.13)"/><rect class="cls-3" x="48.6" y="234.5" width="514.1" height="1.07" transform="matrix(0.52, -0.86, 0.86, 0.52, 271.31, 502.7)"/><rect class="cls-3" x="59.7" y="241" width="514.1" height="1.07" transform="matrix(0.52, -0.86, 0.86, 0.52, 271.13, 515.27)"/><rect class="cls-3" x="70.7" y="247.4" width="514.1" height="1.07" transform="matrix(0.52, -0.86, 0.86, 0.52, 270.94, 527.84)"/><rect class="cls-3" x="81.7" y="253.9" width="514.1" height="1.07" transform="matrix(0.52, -0.86, 0.86, 0.52, 270.75, 540.41)"/><rect class="cls-3" x="92.8" y="260.3" width="514.1" height="1.07" transform="matrix(0.52, -0.86, 0.86, 0.52, 270.57, 552.97)"/><rect class="cls-3" x="103.8" y="266.8" width="514.1" height="1.07" transform="matrix(0.52, -0.86, 0.86, 0.52, 270.38, 565.54)"/><rect class="cls-3" x="114.8" y="273.2" width="514.1" height="1.07" transform="matrix(0.52, -0.86, 0.86, 0.52, 270.2, 578.11)"/><rect class="cls-3" x="125.9" y="279.7" width="514.1" height="1.07" transform="matrix(0.52, -0.86, 0.86, 0.52, 270.01, 590.68)"/><rect class="cls-3" x="136.9" y="286.1" width="514.1" height="1.07" transform="matrix(0.52, -0.86, 0.86, 0.52, 269.82, 603.25)"/><rect class="cls-3" x="148" y="292.6" width="514.1" height="1.07" transform="matrix(0.52, -0.86, 0.86, 0.52, 269.64, 615.82)"/><rect class="cls-3" x="159" y="299" width="514.1" height="1.07" transform="matrix(0.52, -0.86, 0.86, 0.52, 269.45, 628.39)"/><rect class="cls-3" x="170" y="305.5" width="514.1" height="1.07" transform="matrix(0.52, -0.86, 0.86, 0.52, 269.27, 640.96)"/><rect class="cls-3" x="181.1" y="311.9" width="514.1" height="1.07" transform="matrix(0.52, -0.86, 0.86, 0.52, 269.08, 653.53)"/><rect class="cls-3" x="192.1" y="318.4" width="514.1" height="1.07" transform="matrix(0.52, -0.86, 0.86, 0.52, 268.9, 666.1)"/><rect class="cls-3" x="203.2" y="324.8" width="514.1" height="1.07" transform="matrix(0.52, -0.86, 0.86, 0.52, 268.71, 678.67)"/><rect class="cls-3" x="254.7" y="440" width="530.4" height="1.07"/><rect class="cls-3" x="254.7" y="427.8" width="530.4" height="1.07"/><rect class="cls-3" x="254.7" y="415.6" width="530.4" height="1.07"/><rect class="cls-3" x="254.7" y="403.4" width="530.4" height="1.07"/><rect class="cls-3" x="254.7" y="391.1" width="530.4" height="1.07"/><rect class="cls-3" x="254.7" y="378.9" width="530.4" height="1.07"/><rect class="cls-3" x="254.7" y="366.7" width="530.4" height="1.07"/><rect class="cls-3" x="254.7" y="354.5" width="530.4" height="1.07"/><rect class="cls-3" x="254.7" y="342.2" width="530.4" height="1.07"/><rect class="cls-3" x="254.7" y="330" width="530.4" height="1.07"/><rect class="cls-3" x="254.7" y="317.8" width="530.4" height="1.07"/><rect class="cls-3" x="254.7" y="305.6" width="530.4" height="1.07"/><rect class="cls-3" x="254.7" y="293.3" width="530.4" height="1.07"/><rect class="cls-3" x="254.7" y="281.1" width="530.4" height="1.07"/><rect class="cls-3" x="254.7" y="268.9" width="530.4" height="1.07"/><rect class="cls-3" x="254.7" y="256.7" width="530.4" height="1.07"/><rect class="cls-3" x="254.7" y="244.5" width="530.4" height="1.07"/><rect class="cls-3" x="254.7" y="232.2" width="530.4" height="1.07"/><rect class="cls-3" x="254.7" y="220" width="530.4" height="1.07"/><rect class="cls-3" x="254.7" y="207.8" width="530.4" height="1.07"/><rect class="cls-3" x="254.7" y="195.6" width="530.4" height="1.07"/><rect class="cls-3" x="254.7" y="183.3" width="530.4" height="1.07"/><rect class="cls-3" x="254.7" y="171.1" width="530.4" height="1.07"/><rect class="cls-3" x="254.7" y="158.9" width="530.4" height="1.07"/><rect class="cls-3" x="254.7" y="146.7" width="530.4" height="1.07"/><rect class="cls-3" x="254.7" y="134.5" width="530.4" height="1.07"/><rect class="cls-3" x="254.7" y="122.2" width="530.4" height="1.07"/><rect class="cls-3" x="254.7" y="110" width="530.4" height="1.07"/><rect class="cls-3" x="254.7" y="97.8" width="530.4" height="1.07"/><rect class="cls-3" x="254.7" y="85.6" width="530.4" height="1.07"/><rect class="cls-3" x="254.7" y="73.3" width="530.4" height="1.07"/><rect class="cls-3" x="254.7" y="61.1" width="530.4" height="1.07"/><rect class="cls-3" x="254.7" y="48.9" width="530.4" height="1.07"/><rect class="cls-3" x="254.7" y="36.7" width="530.4" height="1.07"/><rect class="cls-3" x="254.7" y="24.4" width="530.4" height="1.07"/><rect class="cls-3" x="254.7" y="12.2" width="530.4" height="1.07"/><rect class="cls-3" x="254.7" width="530.4" height="1.07"/><rect class="cls-3" x="327.4" y="-163.5" width="1.1" height="513.39" transform="translate(323.7 309.6) rotate(-31)"/><rect class="cls-3" x="313" y="-158.8" width="1.1" height="513.39" transform="translate(319.2 302.9) rotate(-31)"/><rect class="cls-3" x="298.5" y="-154.1" width="1.1" height="513.39" transform="translate(314.7 296.1) rotate(-31)"/><rect class="cls-3" x="284.1" y="-149.3" width="1.1" height="513.39" transform="translate(310.2 289.3) rotate(-31)"/><rect class="cls-3" x="269.7" y="-144.6" width="1.1" height="513.39" transform="matrix(0.86, -0.52, 0.52, 0.86, 305.69, 282.58)"/><rect class="cls-3" x="255.2" y="-139.9" width="1.1" height="513.39" transform="translate(301.2 275.8) rotate(-31)"/><rect class="cls-3" x="240.8" y="-135.1" width="1.1" height="513.39" transform="translate(296.7 269) rotate(-31)"/><rect class="cls-3" x="226.3" y="-130.4" width="1.1" height="513.39" transform="translate(292.2 262.3) rotate(-31)"/><rect class="cls-3" x="211.9" y="-125.7" width="1.1" height="513.39" transform="translate(287.7 255.5) rotate(-31)"/><rect class="cls-3" x="197.4" y="-120.9" width="1.1" height="513.39" transform="translate(283.2 248.7) rotate(-31)"/><rect class="cls-3" x="183" y="-116.2" width="1.1" height="513.39" transform="matrix(0.86, -0.52, 0.52, 0.86, 278.68, 241.97)"/><rect class="cls-3" x="168.5" y="-111.5" width="1.1" height="513.39" transform="translate(274.2 235.2) rotate(-31)"/><rect class="cls-3" x="154.1" y="-106.8" width="1.1" height="513.39" transform="matrix(0.86, -0.52, 0.52, 0.86, 269.68, 228.44)"/><rect class="cls-3" x="139.6" y="-102" width="1.1" height="513.39" transform="translate(265.2 221.7) rotate(-31)"/><rect class="cls-3" x="125.2" y="-97.3" width="1.1" height="513.39" transform="translate(260.7 214.9) rotate(-31)"/><rect class="cls-3" x="110.7" y="-92.6" width="1.1" height="513.39" transform="translate(256.2 208.1) rotate(-31)"/><rect class="cls-3" x="96.3" y="-87.8" width="1.1" height="513.39" transform="translate(251.7 201.4) rotate(-31)"/><rect class="cls-3" x="81.8" y="-83.1" width="1.1" height="513.39" transform="translate(247.2 194.6) rotate(-31)"/><rect class="cls-3" x="67.4" y="-78.4" width="1.1" height="513.39" transform="matrix(0.86, -0.52, 0.52, 0.86, 242.67, 187.84)"/><rect class="cls-3" x="52.9" y="-73.6" width="1.1" height="513.39" transform="matrix(0.86, -0.52, 0.52, 0.86, 238.17, 181.07)"/><rect class="cls-3" x="38.5" y="-68.9" width="1.1" height="513.39" transform="translate(233.7 174.3) rotate(-31)"/><rect class="cls-3" x="24" y="-64.2" width="1.1" height="513.39" transform="matrix(0.86, -0.52, 0.52, 0.86, 229.17, 167.54)"/><rect class="cls-3" x="9.6" y="-59.5" width="1.1" height="513.39" transform="translate(224.7 160.8) rotate(-31)"/><rect class="cls-3" x="-4.8" y="-54.7" width="1.1" height="513.39" transform="translate(220.2 154) rotate(-31)"/><rect class="cls-3" x="-19.3" y="-50" width="1.1" height="513.39" transform="matrix(0.86, -0.52, 0.52, 0.86, 215.66, 147.24)"/><rect class="cls-3" x="-33.7" y="-45.3" width="1.1" height="513.39" transform="translate(211.2 140.5) rotate(-31)"/><rect class="cls-3" x="-48.2" y="-40.5" width="1.1" height="513.39" transform="translate(206.7 133.7) rotate(-31)"/><rect class="cls-3" x="-62.6" y="-35.8" width="1.1" height="513.39" transform="matrix(0.86, -0.52, 0.52, 0.86, 202.16, 126.94)"/><rect class="cls-3" x="-77.1" y="-31.1" width="1.1" height="513.39" transform="translate(197.7 120.2) rotate(-31)"/><rect class="cls-3" x="-91.5" y="-26.3" width="1.1" height="513.39" transform="matrix(0.86, -0.52, 0.52, 0.86, 193.15, 113.41)"/><rect class="cls-3" x="-106" y="-21.6" width="1.1" height="513.39" transform="matrix(0.86, -0.52, 0.52, 0.86, 188.65, 106.64)"/><rect class="cls-3" x="-120.4" y="-16.9" width="1.1" height="513.39" transform="translate(184.2 99.9) rotate(-31)"/><rect class="cls-3" x="-134.9" y="-12.2" width="1.1" height="513.39" transform="matrix(0.86, -0.52, 0.52, 0.86, 179.65, 93.1)"/><rect class="cls-3" x="-149.3" y="-7.4" width="1.1" height="513.39" transform="matrix(0.86, -0.52, 0.52, 0.86, 175.15, 86.34)"/><rect class="cls-3" x="-163.8" y="-2.7" width="1.1" height="513.39" transform="translate(170.6 79.6) rotate(-31)"/><rect class="cls-3" x="-178.2" y="2" width="1.1" height="513.39" transform="matrix(0.86, -0.52, 0.52, 0.86, 166.15, 72.8)"/><rect class="cls-3" x="-192.7" y="6.8" width="1.1" height="513.39" transform="translate(161.6 66) rotate(-31)"/></g><path class="cls-1" d="M213.4,123.3c-3.7,0-6.7,1.7-9,5.2a22.5,22.5,0,0,0-3.4,12.6,22.9,22.9,0,0,0,3.4,12.7c2.3,3.4,5.2,5.1,9,5.1s6.7-1.7,8.9-5.1a22.9,22.9,0,0,0,3.4-12.7,22.5,22.5,0,0,0-3.4-12.6C220.1,125,217.1,123.3,213.4,123.3Z" transform="translate(324.8 127.4)"/><path class="cls-1" d="M137.9,123.3c-3.7,0-6.7,1.7-9,5.2a22.5,22.5,0,0,0-3.4,12.6,22.9,22.9,0,0,0,3.4,12.7c2.3,3.4,5.2,5.1,9,5.1s6.7-1.7,8.9-5.1a22.9,22.9,0,0,0,3.4-12.7,22.5,22.5,0,0,0-3.4-12.6C144.6,125,141.6,123.3,137.9,123.3Z" transform="translate(324.8 127.4)"/><path class="cls-1" d="M202.6,204.7c-3.7,0-6.7,1.7-9,5.2a22.5,22.5,0,0,0-3.4,12.6,22.9,22.9,0,0,0,3.4,12.7c2.3,3.4,5.2,5.1,9,5.1s6.7-1.7,8.9-5.1a22.9,22.9,0,0,0,3.4-12.7,22.5,22.5,0,0,0-3.4-12.6C209.3,206.4,206.4,204.7,202.6,204.7Z" transform="translate(324.8 127.4)"/><path class="cls-1" d="M257.6,204.7c-3.7,0-6.7,1.7-9,5.2a22.5,22.5,0,0,0-3.4,12.6,22.9,22.9,0,0,0,3.4,12.7c2.3,3.4,5.2,5.1,9,5.1s6.7-1.7,8.9-5.1a22.9,22.9,0,0,0,3.4-12.7,22.5,22.5,0,0,0-3.4-12.6C264.3,206.4,261.4,204.7,257.6,204.7Z" transform="translate(324.8 127.4)"/><path class="cls-1" d="M334.7,184.3a2.5,2.5,0,0,1,2.5-2.5H361A175.7,175.7,0,0,0,338.6,98l-20.6,11.9a2.5,2.5,0,1,1-2.5-4.3l20.6-11.9a178.2,178.2,0,0,0-61.3-61.3L262.9,53.1a2.5,2.5,0,0,1-4.3-2.5l11.9-20.6A175.7,175.7,0,0,0,186.8,7.5V31.3a2.5,2.5,0,0,1-5,0V7.5A175.7,175.7,0,0,0,98,29.9l11.9,20.6a2.5,2.5,0,1,1-4.3,2.5L93.7,32.4A178.2,178.2,0,0,0,32.4,93.7l20.6,11.9a2.5,2.5,0,1,1-2.5,4.3L29.9,98A175.7,175.7,0,0,0,7.5,181.8H31.3a2.5,2.5,0,0,1,0,5H7.5a175.7,175.7,0,0,0,22.5,83.7l20.6-11.9a2.5,2.5,0,0,1,2.5,4.3L32.4,274.8a178.2,178.2,0,0,0,61.3,61.3l11.9-20.6a2.5,2.5,0,0,1,4.3,2.5L98,338.6A175.7,175.7,0,0,0,181.8,361V337.2a2.5,2.5,0,0,1,5,0V361a175.7,175.7,0,0,0,83.7-22.5l-11.9-20.6a2.5,2.5,0,0,1,4.3-2.5l11.9,20.6a178.2,178.2,0,0,0,61.3-61.3l-20.6-11.9a2.5,2.5,0,0,1,2.5-4.3l20.6,11.9A175.7,175.7,0,0,0,361,186.8H337.2A2.5,2.5,0,0,1,334.7,184.3ZM104,249.8H93V207.2l-11.5,5.9v-11l12.8-6.9H104Zm0-81.4H93V125.9l-11.5,5.9v-11l12.8-6.9H104ZM175.6,130a6.7,6.7,0,0,1,6.8,6.7,6.8,6.8,0,1,1-13.6,0A6.7,6.7,0,0,1,175.6,130Zm-24,73.9-23.1,45.9H116.6l22.3-44.5H113.1V195.2h38.5Zm-13.7-34.3a20.6,20.6,0,0,1-12.7-4.1c-7.3-5.4-10.8-14.3-10.8-24.3a35,35,0,0,1,2.7-13.9c3.7-8.5,11.2-14.5,20.9-14.5a20.4,20.4,0,0,1,17.1,8.3c4.3,5.5,6.4,12.2,6.4,20s-2.1,14.5-6.4,20A20.4,20.4,0,0,1,137.9,169.5Zm27,81.2a6.8,6.8,0,0,1-6.8-6.9,6.8,6.8,0,0,1,13.6,0A6.8,6.8,0,0,1,164.9,250.7Zm0-25.7a6.8,6.8,0,0,1-6.8-6.9,6.8,6.8,0,0,1,13.6,0A6.8,6.8,0,0,1,164.9,225Zm4-62.5a6.8,6.8,0,0,1,13.6,0,6.8,6.8,0,1,1-13.6,0Zm50.9,80.1a20.4,20.4,0,0,1-17.1,8.3,20.6,20.6,0,0,1-12.7-4.1c-7.3-5.4-10.8-14.3-10.8-24.3a35,35,0,0,1,2.7-13.9c3.7-8.5,11.2-14.5,20.9-14.5a20.4,20.4,0,0,1,17.1,8.3c4.3,5.5,6.4,12.2,6.4,20S224,237,219.7,242.6Zm-6.3-73a20.6,20.6,0,0,1-12.7-4.1c-7.3-5.4-10.8-14.3-10.8-24.3a35,35,0,0,1,2.7-13.9c3.7-8.5,11.2-14.5,20.9-14.5a20.4,20.4,0,0,1,17.1,8.3c4.3,5.5,6.4,12.2,6.4,20s-2.1,14.5-6.4,20A20.4,20.4,0,0,1,213.4,169.5Zm61.3,73a20.4,20.4,0,0,1-17.1,8.3,20.6,20.6,0,0,1-12.7-4.1c-7.3-5.4-10.8-14.3-10.8-24.3a35,35,0,0,1,2.7-13.9c3.7-8.5,11.2-14.5,20.9-14.5a20.4,20.4,0,0,1,17.1,8.3c4.3,5.5,6.4,12.2,6.4,20S279,237,274.7,242.6Zm10.8-81.4a20.4,20.4,0,0,1-17.1,8.3,20.6,20.6,0,0,1-12.7-4.1c-7.3-5.4-10.8-14.3-10.8-24.3a35,35,0,0,1,2.7-13.9c3.7-8.5,11.2-14.5,20.9-14.5a20.4,20.4,0,0,1,17.1,8.3c4.3,5.5,6.4,12.2,6.4,20S289.8,155.7,285.5,161.2Z" transform="translate(324.8 127.4)"/><path class="cls-1" d="M268.4,123.3c-3.7,0-6.7,1.7-9,5.2a22.5,22.5,0,0,0-3.4,12.6,22.9,22.9,0,0,0,3.4,12.7c2.3,3.4,5.2,5.1,9,5.1s6.7-1.7,8.9-5.1a22.9,22.9,0,0,0,3.4-12.7,22.5,22.5,0,0,0-3.4-12.6C275.1,125,272.1,123.3,268.4,123.3Z" transform="translate(324.8 127.4)"/><path class="cls-4" d="M341.9,93.7l-.2-.3-.3-.4a183.2,183.2,0,0,0-65.9-65.9l-.4-.3-.3-.2a181.5,181.5,0,0,0-181.1,0l-.3.2-.4.3A183.2,183.2,0,0,0,27.1,93l-.3.4-.2.3a181.5,181.5,0,0,0,0,181.1l.2.3.2.3a183.2,183.2,0,0,0,66,66l.4.3h.3a181.5,181.5,0,0,0,181.3,0h.3l.4-.3a183.2,183.2,0,0,0,66-66l.2-.3.2-.3a181.5,181.5,0,0,0,0-181.1Zm-3.3,176.8-20.6-11.9a2.5,2.5,0,0,0-2.5,4.3l20.6,11.9a178.2,178.2,0,0,1-61.3,61.3l-11.9-20.6a2.5,2.5,0,0,0-4.3,2.5l11.9,20.6A175.7,175.7,0,0,1,186.8,361V337.2a2.5,2.5,0,0,0-5,0V361A175.7,175.7,0,0,1,98,338.6l11.9-20.6a2.5,2.5,0,0,0-4.3-2.5L93.7,336.1a178.2,178.2,0,0,1-61.3-61.3l20.6-11.9a2.5,2.5,0,0,0-2.5-4.3L29.9,270.5A175.7,175.7,0,0,1,7.5,186.8H31.3a2.5,2.5,0,0,0,0-5H7.5A175.7,175.7,0,0,1,29.9,98l20.6,11.9a2.5,2.5,0,1,0,2.5-4.3L32.4,93.7A178.2,178.2,0,0,1,93.7,32.4l11.9,20.6a2.5,2.5,0,1,0,4.3-2.5L98,29.9A175.7,175.7,0,0,1,181.8,7.5V31.3a2.5,2.5,0,0,0,5,0V7.5a175.7,175.7,0,0,1,83.7,22.5L258.6,50.6a2.5,2.5,0,1,0,4.3,2.5l11.9-20.6a178.2,178.2,0,0,1,61.3,61.3l-20.6,11.9a2.5,2.5,0,1,0,2.5,4.3L338.6,98A175.7,175.7,0,0,1,361,181.8H337.2a2.5,2.5,0,0,0,0,5H361A175.7,175.7,0,0,1,338.6,270.5Z" transform="translate(324.8 127.4)"/><polygon class="cls-5" points="406.3 248.1 406.3 259.1 417.9 253.2 417.9 295.8 428.9 295.8 428.9 241.2 419.1 241.2 406.3 248.1"/><path class="cls-5" d="M155,121.1a20.4,20.4,0,0,0-17.1-8.3c-9.7,0-17.2,6-20.9,14.5a35,35,0,0,0-2.7,13.9c0,10.1,3.6,19,10.8,24.3a20.6,20.6,0,0,0,12.7,4.1,20.4,20.4,0,0,0,17.1-8.3c4.3-5.5,6.4-12.2,6.4-20S159.3,126.6,155,121.1Zm-8.2,32.8q-3.3,5.1-8.9,5.1c-3.7,0-6.7-1.7-9-5.1a22.9,22.9,0,0,1-3.4-12.7,22.5,22.5,0,0,1,3.4-12.6c2.3-3.5,5.2-5.2,9-5.2s6.7,1.7,8.9,5.2a22.5,22.5,0,0,1,3.4,12.6A22.9,22.9,0,0,1,146.8,153.9Z" transform="translate(324.8 127.4)"/><path class="cls-5" d="M175.6,143.6a6.8,6.8,0,0,0,6.8-6.9,6.8,6.8,0,1,0-6.8,6.9Z" transform="translate(324.8 127.4)"/><path class="cls-5" d="M182.4,162.4a6.8,6.8,0,1,0-6.8,6.9A6.8,6.8,0,0,0,182.4,162.4Z" transform="translate(324.8 127.4)"/><path class="cls-5" d="M230.5,121.1a20.4,20.4,0,0,0-17.1-8.3c-9.7,0-17.2,6-20.9,14.5a35,35,0,0,0-2.7,13.9c0,10.1,3.6,19,10.8,24.3a20.6,20.6,0,0,0,12.7,4.1,20.4,20.4,0,0,0,17.1-8.3c4.3-5.5,6.4-12.2,6.4-20S234.8,126.6,230.5,121.1Zm-8.2,32.8q-3.3,5.1-8.9,5.1c-3.7,0-6.7-1.7-9-5.1a22.9,22.9,0,0,1-3.4-12.7,22.5,22.5,0,0,1,3.4-12.6c2.3-3.5,5.2-5.2,9-5.2s6.7,1.7,8.9,5.2a22.5,22.5,0,0,1,3.4,12.6A22.9,22.9,0,0,1,222.3,153.9Z" transform="translate(324.8 127.4)"/><path class="cls-5" d="M268.4,112.8c-9.7,0-17.2,6-20.9,14.5a35,35,0,0,0-2.7,13.9c0,10.1,3.6,19,10.8,24.3a20.6,20.6,0,0,0,12.7,4.1,20.4,20.4,0,0,0,17.1-8.3c4.3-5.5,6.4-12.2,6.4-20s-2.1-14.5-6.4-20A20.4,20.4,0,0,0,268.4,112.8Zm8.9,41.1q-3.3,5.1-8.9,5.1c-3.7,0-6.7-1.7-9-5.1a22.9,22.9,0,0,1-3.4-12.7,22.5,22.5,0,0,1,3.4-12.6c2.3-3.5,5.2-5.2,9-5.2s6.7,1.7,8.9,5.2a22.5,22.5,0,0,1,3.4,12.6A22.9,22.9,0,0,1,277.3,153.9Z" transform="translate(324.8 127.4)"/><polygon class="cls-5" points="406.3 329.5 406.3 340.5 417.9 334.6 417.9 377.2 428.9 377.2 428.9 322.6 419.1 322.6 406.3 329.5"/><polygon class="cls-5" points="437.9 332.7 463.7 332.7 441.4 377.2 453.4 377.2 476.4 331.3 476.4 322.6 437.9 322.6 437.9 332.7"/><path class="cls-5" d="M164.9,237.1a6.7,6.7,0,0,0-6.8,6.7,6.8,6.8,0,1,0,6.8-6.7Z" transform="translate(324.8 127.4)"/><path class="cls-5" d="M164.9,211.4a6.7,6.7,0,0,0-6.8,6.7,6.8,6.8,0,1,0,6.8-6.7Z" transform="translate(324.8 127.4)"/><path class="cls-5" d="M202.6,194.1c-9.7,0-17.2,6-20.9,14.5a35,35,0,0,0-2.7,13.9c0,10.1,3.6,19,10.8,24.3a20.6,20.6,0,0,0,12.7,4.1,20.4,20.4,0,0,0,17.1-8.3c4.3-5.5,6.4-12.2,6.4-20s-2.1-14.5-6.4-20A20.4,20.4,0,0,0,202.6,194.1Zm8.9,41.1q-3.3,5.1-8.9,5.1c-3.7,0-6.7-1.7-9-5.1a22.9,22.9,0,0,1-3.4-12.7,22.5,22.5,0,0,1,3.4-12.6c2.3-3.5,5.2-5.2,9-5.2s6.7,1.7,8.9,5.2a22.5,22.5,0,0,1,3.4,12.6A22.9,22.9,0,0,1,211.5,235.2Z" transform="translate(324.8 127.4)"/><path class="cls-5" d="M257.6,194.1c-9.7,0-17.2,6-20.9,14.5a35,35,0,0,0-2.7,13.9c0,10.1,3.6,19,10.8,24.3a20.6,20.6,0,0,0,12.7,4.1,20.4,20.4,0,0,0,17.1-8.3c4.3-5.5,6.4-12.2,6.4-20s-2.1-14.5-6.4-20A20.4,20.4,0,0,0,257.6,194.1Zm8.9,41.1q-3.3,5.1-8.9,5.1c-3.7,0-6.7-1.7-9-5.1a22.9,22.9,0,0,1-3.4-12.7,22.5,22.5,0,0,1,3.4-12.6c2.3-3.5,5.2-5.2,9-5.2s6.7,1.7,8.9,5.2a22.5,22.5,0,0,1,3.4,12.6A22.9,22.9,0,0,1,266.5,235.2Z" transform="translate(324.8 127.4)"/></svg>