<?xml version="1.0" encoding="utf-8"?>
<!-- Generator: Adobe Illustrator 20.1.0, SVG Export Plug-In . SVG Version: 6.00 Build 0)  -->
<svg version="1.1" id="Слой_1" xmlns="http://www.w3.org/2000/svg" xmlns:xlink="http://www.w3.org/1999/xlink" x="0px" y="0px"
	 viewBox="0 0 368.5 368.5" style="enable-background:new 0 0 368.5 368.5;" xml:space="preserve">
<style type="text/css">
	.st0{clip-path:url(#SVGID_2_);}
	.st1{fill:#3EB5F1;}
	.st2{fill:none;}
	.st3{fill:#5E97D3;}
	.st4{fill:#3C4047;}
</style>
<g>
	<g>
		<defs>
			<path id="SVGID_1_" d="M184.3,57.8c-46.8,0-87.7,25.4-109.6,63.2l0,0l109.6,63.2l63.2,109.6l0,0c37.8-21.9,63.2-62.7,63.2-109.6
				C310.8,114.4,254.1,57.8,184.3,57.8z"/>
		</defs>
		<clipPath id="SVGID_2_">
			<use xlink:href="#SVGID_1_"  style="overflow:visible;"/>
		</clipPath>
		<g class="st0">
			<g>
				<g>
					
						<rect x="-194.3" y="92.6" transform="matrix(0.5166 -0.8562 0.8562 0.5166 -49.4293 98.8097)" class="st1" width="514.1" height="1.1"/>
				</g>
				<g>
					
						<rect x="-183.2" y="99.1" transform="matrix(0.5166 -0.8562 0.8562 0.5166 -49.6148 111.3795)" class="st1" width="514.1" height="1.1"/>
				</g>
				<g>
					
						<rect x="-172.2" y="105.5" transform="matrix(0.5166 -0.8562 0.8562 0.5166 -49.8009 123.9485)" class="st1" width="514.1" height="1.1"/>
				</g>
				<g>
					
						<rect x="-161.1" y="112" transform="matrix(0.5166 -0.8562 0.8562 0.5166 -49.9866 136.5178)" class="st1" width="514.1" height="1.1"/>
				</g>
				<g>
					
						<rect x="-150.1" y="118.4" transform="matrix(0.5166 -0.8562 0.8562 0.5166 -50.1724 149.0872)" class="st1" width="514.1" height="1.1"/>
				</g>
				<g>
					
						<rect x="-139.1" y="124.9" transform="matrix(0.5166 -0.8562 0.8562 0.5166 -50.3584 161.6561)" class="st1" width="514.1" height="1.1"/>
				</g>
				<g>
					
						<rect x="-128" y="131.3" transform="matrix(0.5166 -0.8562 0.8562 0.5166 -50.544 174.2259)" class="st1" width="514.1" height="1.1"/>
				</g>
				<g>
					
						<rect x="-117" y="137.8" transform="matrix(0.5166 -0.8562 0.8562 0.5166 -50.73 186.7948)" class="st1" width="514.1" height="1.1"/>
				</g>
				<g>
					
						<rect x="-105.9" y="144.2" transform="matrix(0.5166 -0.8562 0.8562 0.5166 -50.916 199.3638)" class="st1" width="514.1" height="1.1"/>
				</g>
				<g>
					
						<rect x="-94.9" y="150.7" transform="matrix(0.5166 -0.8562 0.8562 0.5166 -51.1015 211.9336)" class="st1" width="514.1" height="1.1"/>
				</g>
				<g>
					
						<rect x="-83.9" y="157.1" transform="matrix(0.5166 -0.8562 0.8562 0.5166 -51.2875 224.5025)" class="st1" width="514.1" height="1.1"/>
				</g>
				<g>
					
						<rect x="-72.8" y="163.6" transform="matrix(0.5166 -0.8562 0.8562 0.5166 -51.4733 237.0719)" class="st1" width="514.1" height="1.1"/>
				</g>
				<g>
					
						<rect x="-61.8" y="170" transform="matrix(0.5166 -0.8562 0.8562 0.5166 -51.6591 249.6413)" class="st1" width="514.1" height="1.1"/>
				</g>
				<g>
					
						<rect x="-50.7" y="176.5" transform="matrix(0.5166 -0.8562 0.8562 0.5166 -51.8451 262.2102)" class="st1" width="514.1" height="1.1"/>
				</g>
				<g>
					
						<rect x="-39.7" y="182.9" transform="matrix(0.5166 -0.8562 0.8562 0.5166 -52.0304 274.7798)" class="st1" width="514.1" height="1.1"/>
				</g>
				<g>
					
						<rect x="-28.7" y="189.4" transform="matrix(0.5166 -0.8562 0.8562 0.5166 -52.2164 287.3488)" class="st1" width="514.1" height="1.1"/>
				</g>
				<g>
					
						<rect x="-17.6" y="195.8" transform="matrix(0.5166 -0.8562 0.8562 0.5166 -52.4024 299.9178)" class="st1" width="514.1" height="1.1"/>
				</g>
				<g>
					
						<rect x="-6.6" y="202.3" transform="matrix(0.5166 -0.8562 0.8562 0.5166 -52.588 312.4875)" class="st1" width="514.1" height="1.1"/>
				</g>
				<g>
					
						<rect x="4.5" y="208.7" transform="matrix(0.5166 -0.8562 0.8562 0.5166 -52.774 325.0565)" class="st1" width="514.1" height="1.1"/>
				</g>
				<g>
					
						<rect x="15.5" y="215.2" transform="matrix(0.5166 -0.8562 0.8562 0.5166 -52.9598 337.6258)" class="st1" width="514.1" height="1.1"/>
				</g>
				<g>
					
						<rect x="26.5" y="221.6" transform="matrix(0.5166 -0.8562 0.8562 0.5166 -53.1451 350.1949)" class="st1" width="514.1" height="1.1"/>
				</g>
				<g>
					
						<rect x="37.6" y="228.1" transform="matrix(0.5166 -0.8562 0.8562 0.5166 -53.3311 362.7639)" class="st1" width="514.1" height="1.1"/>
				</g>
				<g>
					
						<rect x="48.6" y="234.5" transform="matrix(0.5166 -0.8562 0.8562 0.5166 -53.5167 375.3337)" class="st1" width="514.1" height="1.1"/>
				</g>
				<g>
					
						<rect x="59.7" y="241" transform="matrix(0.5166 -0.8562 0.8562 0.5166 -53.7027 387.9026)" class="st1" width="514.1" height="1.1"/>
				</g>
				<g>
					
						<rect x="70.7" y="247.4" transform="matrix(0.5166 -0.8562 0.8562 0.5166 -53.8885 400.472)" class="st1" width="514.1" height="1.1"/>
				</g>
				<g>
					
						<rect x="81.7" y="253.9" transform="matrix(0.5166 -0.8562 0.8562 0.5166 -54.0742 413.0414)" class="st1" width="514.1" height="1.1"/>
				</g>
				<g>
					
						<rect x="92.8" y="260.3" transform="matrix(0.5166 -0.8562 0.8562 0.5166 -54.2603 425.6103)" class="st1" width="514.1" height="1.1"/>
				</g>
				<g>
					
						<rect x="103.8" y="266.8" transform="matrix(0.5166 -0.8562 0.8562 0.5166 -54.446 438.1797)" class="st1" width="514.1" height="1.1"/>
				</g>
				<g>
					
						<rect x="114.8" y="273.2" transform="matrix(0.5166 -0.8562 0.8562 0.5166 -54.6316 450.7489)" class="st1" width="514.1" height="1.1"/>
				</g>
				<g>
					
						<rect x="125.9" y="279.7" transform="matrix(0.5166 -0.8562 0.8562 0.5166 -54.8176 463.3179)" class="st1" width="514.1" height="1.1"/>
				</g>
				<g>
					
						<rect x="136.9" y="286.1" transform="matrix(0.5166 -0.8562 0.8562 0.5166 -55.0031 475.8876)" class="st1" width="514.1" height="1.1"/>
				</g>
				<g>
					
						<rect x="148" y="292.6" transform="matrix(0.5166 -0.8562 0.8562 0.5166 -55.1892 488.4566)" class="st1" width="514.1" height="1.1"/>
				</g>
				<g>
					
						<rect x="159" y="299" transform="matrix(0.5166 -0.8562 0.8562 0.5166 -55.3749 501.0259)" class="st1" width="514.1" height="1.1"/>
				</g>
				<g>
					
						<rect x="170" y="305.5" transform="matrix(0.5166 -0.8562 0.8562 0.5166 -55.5607 513.5953)" class="st1" width="514.1" height="1.1"/>
				</g>
				<g>
					
						<rect x="181.1" y="311.9" transform="matrix(0.5166 -0.8562 0.8562 0.5166 -55.7467 526.1642)" class="st1" width="514.1" height="1.1"/>
				</g>
				<g>
					
						<rect x="192.1" y="318.4" transform="matrix(0.5166 -0.8562 0.8562 0.5166 -55.9325 538.7336)" class="st1" width="514.1" height="1.1"/>
				</g>
				<g>
					
						<rect x="203.2" y="324.8" transform="matrix(0.5166 -0.8562 0.8562 0.5166 -56.1183 551.303)" class="st1" width="514.1" height="1.1"/>
				</g>
			</g>
			<g>
				<g>
					<rect x="-70.1" y="312.7" class="st1" width="530.4" height="1.1"/>
				</g>
				<g>
					<rect x="-70.1" y="300.4" class="st1" width="530.4" height="1.1"/>
				</g>
				<g>
					<rect x="-70.1" y="288.2" class="st1" width="530.4" height="1.1"/>
				</g>
				<g>
					<rect x="-70.1" y="276" class="st1" width="530.4" height="1.1"/>
				</g>
				<g>
					<rect x="-70.1" y="263.8" class="st1" width="530.4" height="1.1"/>
				</g>
				<g>
					<rect x="-70.1" y="251.5" class="st1" width="530.4" height="1.1"/>
				</g>
				<g>
					<rect x="-70.1" y="239.3" class="st1" width="530.4" height="1.1"/>
				</g>
				<g>
					<rect x="-70.1" y="227.1" class="st1" width="530.4" height="1.1"/>
				</g>
				<g>
					<rect x="-70.1" y="214.9" class="st1" width="530.4" height="1.1"/>
				</g>
				<g>
					<rect x="-70.1" y="202.7" class="st1" width="530.4" height="1.1"/>
				</g>
				<g>
					<rect x="-70.1" y="190.4" class="st1" width="530.4" height="1.1"/>
				</g>
				<g>
					<rect x="-70.1" y="178.2" class="st1" width="530.4" height="1.1"/>
				</g>
				<g>
					<rect x="-70.1" y="166" class="st1" width="530.4" height="1.1"/>
				</g>
				<g>
					<rect x="-70.1" y="153.8" class="st1" width="530.4" height="1.1"/>
				</g>
				<g>
					<rect x="-70.1" y="141.5" class="st1" width="530.4" height="1.1"/>
				</g>
				<g>
					<rect x="-70.1" y="129.3" class="st1" width="530.4" height="1.1"/>
				</g>
				<g>
					<rect x="-70.1" y="117.1" class="st1" width="530.4" height="1.1"/>
				</g>
				<g>
					<rect x="-70.1" y="104.9" class="st1" width="530.4" height="1.1"/>
				</g>
				<g>
					<rect x="-70.1" y="92.6" class="st1" width="530.4" height="1.1"/>
				</g>
				<g>
					<rect x="-70.1" y="80.4" class="st1" width="530.4" height="1.1"/>
				</g>
				<g>
					<rect x="-70.1" y="68.2" class="st1" width="530.4" height="1.1"/>
				</g>
				<g>
					<rect x="-70.1" y="56" class="st1" width="530.4" height="1.1"/>
				</g>
				<g>
					<rect x="-70.1" y="43.8" class="st1" width="530.4" height="1.1"/>
				</g>
				<g>
					<rect x="-70.1" y="31.5" class="st1" width="530.4" height="1.1"/>
				</g>
				<g>
					<rect x="-70.1" y="19.3" class="st1" width="530.4" height="1.1"/>
				</g>
				<g>
					<rect x="-70.1" y="7.1" class="st1" width="530.4" height="1.1"/>
				</g>
				<g>
					<rect x="-70.1" y="-5.1" class="st1" width="530.4" height="1.1"/>
				</g>
				<g>
					<rect x="-70.1" y="-17.4" class="st1" width="530.4" height="1.1"/>
				</g>
				<g>
					<rect x="-70.1" y="-29.6" class="st1" width="530.4" height="1.1"/>
				</g>
				<g>
					<rect x="-70.1" y="-41.8" class="st1" width="530.4" height="1.1"/>
				</g>
				<g>
					<rect x="-70.1" y="-54" class="st1" width="530.4" height="1.1"/>
				</g>
				<g>
					<rect x="-70.1" y="-66.2" class="st1" width="530.4" height="1.1"/>
				</g>
				<g>
					<rect x="-70.1" y="-78.5" class="st1" width="530.4" height="1.1"/>
				</g>
				<g>
					<rect x="-70.1" y="-90.7" class="st1" width="530.4" height="1.1"/>
				</g>
				<g>
					<rect x="-70.1" y="-102.9" class="st1" width="530.4" height="1.1"/>
				</g>
				<g>
					<rect x="-70.1" y="-115.1" class="st1" width="530.4" height="1.1"/>
				</g>
				<g>
					<rect x="-70.1" y="-127.4" class="st1" width="530.4" height="1.1"/>
				</g>
			</g>
			<g>
				<g>
					
						<rect x="327.4" y="-163.5" transform="matrix(0.8571 -0.5152 0.5152 0.8571 -1.1338 182.2796)" class="st1" width="1.1" height="513.4"/>
				</g>
				<g>
					
						<rect x="313" y="-158.8" transform="matrix(0.8571 -0.5152 0.5152 0.8571 -5.6354 175.5127)" class="st1" width="1.1" height="513.4"/>
				</g>
				<g>
					
						<rect x="298.5" y="-154.1" transform="matrix(0.8571 -0.5152 0.5152 0.8571 -10.1366 168.746)" class="st1" width="1.1" height="513.4"/>
				</g>
				<g>
					
						<rect x="284.1" y="-149.3" transform="matrix(0.8571 -0.5152 0.5152 0.8571 -14.6382 161.9784)" class="st1" width="1.1" height="513.4"/>
				</g>
				<g>
					
						<rect x="269.7" y="-144.6" transform="matrix(0.8571 -0.5152 0.5152 0.8571 -19.1394 155.2118)" class="st1" width="1.1" height="513.4"/>
				</g>
				<g>
					
						<rect x="255.2" y="-139.9" transform="matrix(0.8571 -0.5152 0.5152 0.8571 -23.6409 148.4449)" class="st1" width="1.1" height="513.4"/>
				</g>
				<g>
					
						<rect x="240.8" y="-135.1" transform="matrix(0.8571 -0.5152 0.5152 0.8571 -28.1421 141.6785)" class="st1" width="1.1" height="513.4"/>
				</g>
				<g>
					
						<rect x="226.3" y="-130.4" transform="matrix(0.8571 -0.5152 0.5152 0.8571 -32.6436 134.9116)" class="st1" width="1.1" height="513.4"/>
				</g>
				<g>
					
						<rect x="211.9" y="-125.7" transform="matrix(0.8571 -0.5152 0.5152 0.8571 -37.1448 128.145)" class="st1" width="1.1" height="513.4"/>
				</g>
				<g>
					
						<rect x="197.4" y="-120.9" transform="matrix(0.8571 -0.5152 0.5152 0.8571 -41.6463 121.3781)" class="st1" width="1.1" height="513.4"/>
				</g>
				<g>
					
						<rect x="183" y="-116.2" transform="matrix(0.8571 -0.5152 0.5152 0.8571 -46.1476 114.6108)" class="st1" width="1.1" height="513.4"/>
				</g>
				<g>
					
						<rect x="168.5" y="-111.5" transform="matrix(0.8571 -0.5152 0.5152 0.8571 -50.649 107.844)" class="st1" width="1.1" height="513.4"/>
				</g>
				<g>
					
						<rect x="154.1" y="-106.8" transform="matrix(0.8571 -0.5152 0.5152 0.8571 -55.1503 101.0773)" class="st1" width="1.1" height="513.4"/>
				</g>
				<g>
					
						<rect x="139.6" y="-102" transform="matrix(0.8571 -0.5152 0.5152 0.8571 -59.6519 94.3106)" class="st1" width="1.1" height="513.4"/>
				</g>
				<g>
					
						<rect x="125.2" y="-97.3" transform="matrix(0.8571 -0.5152 0.5152 0.8571 -64.1531 87.5439)" class="st1" width="1.1" height="513.4"/>
				</g>
				<g>
					
						<rect x="110.7" y="-92.6" transform="matrix(0.8571 -0.5152 0.5152 0.8571 -68.6546 80.777)" class="st1" width="1.1" height="513.4"/>
				</g>
				<g>
					
						<rect x="96.3" y="-87.8" transform="matrix(0.8571 -0.5152 0.5152 0.8571 -73.1559 74.0103)" class="st1" width="1.1" height="513.4"/>
				</g>
				<g>
					
						<rect x="81.8" y="-83.1" transform="matrix(0.8571 -0.5152 0.5152 0.8571 -77.6572 67.243)" class="st1" width="1.1" height="513.4"/>
				</g>
				<g>
					
						<rect x="67.4" y="-78.4" transform="matrix(0.8571 -0.5152 0.5152 0.8571 -82.1584 60.4763)" class="st1" width="1.1" height="513.4"/>
				</g>
				<g>
					
						<rect x="52.9" y="-73.6" transform="matrix(0.8571 -0.5152 0.5152 0.8571 -86.66 53.7096)" class="st1" width="1.1" height="513.4"/>
				</g>
				<g>
					
						<rect x="38.5" y="-68.9" transform="matrix(0.8571 -0.5152 0.5152 0.8571 -91.1614 46.9428)" class="st1" width="1.1" height="513.4"/>
				</g>
				<g>
					
						<rect x="24" y="-64.2" transform="matrix(0.8571 -0.5152 0.5152 0.8571 -95.6627 40.176)" class="st1" width="1.1" height="513.4"/>
				</g>
				<g>
					
						<rect x="9.6" y="-59.5" transform="matrix(0.8571 -0.5152 0.5152 0.8571 -100.1641 33.4093)" class="st1" width="1.1" height="513.4"/>
				</g>
				<g>
					
						<rect x="-4.8" y="-54.7" transform="matrix(0.8571 -0.5152 0.5152 0.8571 -104.6652 26.6421)" class="st1" width="1.1" height="513.4"/>
				</g>
				<g>
					
						<rect x="-19.3" y="-50" transform="matrix(0.8571 -0.5152 0.5152 0.8571 -109.1666 19.8753)" class="st1" width="1.1" height="513.4"/>
				</g>
				<g>
					
						<rect x="-33.7" y="-45.3" transform="matrix(0.8571 -0.5152 0.5152 0.8571 -113.6679 13.1086)" class="st1" width="1.1" height="513.4"/>
				</g>
				<g>
					
						<rect x="-48.2" y="-40.5" transform="matrix(0.8571 -0.5152 0.5152 0.8571 -118.1697 6.3417)" class="st1" width="1.1" height="513.4"/>
				</g>
				<g>
					
						<rect x="-62.6" y="-35.8" transform="matrix(0.8571 -0.5152 0.5152 0.8571 -122.6711 -0.4251)" class="st1" width="1.1" height="513.4"/>
				</g>
				<g>
					
						<rect x="-77.1" y="-31.1" transform="matrix(0.8571 -0.5152 0.5152 0.8571 -127.1724 -7.1918)" class="st1" width="1.1" height="513.4"/>
				</g>
				<g>
					
						<rect x="-91.5" y="-26.3" transform="matrix(0.8571 -0.5152 0.5152 0.8571 -131.6738 -13.9586)" class="st1" width="1.1" height="513.4"/>
				</g>
				<g>
					
						<rect x="-106" y="-21.6" transform="matrix(0.8571 -0.5152 0.5152 0.8571 -136.1748 -20.7257)" class="st1" width="1.1" height="513.4"/>
				</g>
				<g>
					
						<rect x="-120.4" y="-16.9" transform="matrix(0.8571 -0.5152 0.5152 0.8571 -140.6761 -27.4924)" class="st1" width="1.1" height="513.4"/>
				</g>
				<g>
					
						<rect x="-134.9" y="-12.2" transform="matrix(0.8571 -0.5152 0.5152 0.8571 -145.1775 -34.2592)" class="st1" width="1.1" height="513.4"/>
				</g>
				<g>
					
						<rect x="-149.3" y="-7.4" transform="matrix(0.8571 -0.5152 0.5152 0.8571 -149.6794 -41.0262)" class="st1" width="1.1" height="513.4"/>
				</g>
				<g>
					
						<rect x="-163.8" y="-2.7" transform="matrix(0.8571 -0.5152 0.5152 0.8571 -154.1807 -47.7929)" class="st1" width="1.1" height="513.4"/>
				</g>
				<g>
					
						<rect x="-178.2" y="2" transform="matrix(0.8571 -0.5152 0.5152 0.8571 -158.6821 -54.5597)" class="st1" width="1.1" height="513.4"/>
				</g>
				<g>
					
						<rect x="-192.7" y="6.8" transform="matrix(0.8571 -0.5152 0.5152 0.8571 -163.1834 -61.3265)" class="st1" width="1.1" height="513.4"/>
				</g>
			</g>
		</g>
	</g>
	<g>
		<path class="st2" d="M213.4,123.3c-3.7,0-6.7,1.7-9,5.2c-2.3,3.4-3.4,7.6-3.4,12.6s1.1,9.2,3.4,12.7c2.3,3.4,5.2,5.1,9,5.1
			s6.7-1.7,8.9-5.1c2.3-3.5,3.4-7.7,3.4-12.7s-1.1-9.2-3.4-12.6C220.1,125,217.1,123.3,213.4,123.3z"/>
		<path class="st2" d="M137.9,123.3c-3.7,0-6.7,1.7-9,5.2c-2.3,3.4-3.4,7.6-3.4,12.6s1.1,9.2,3.4,12.7c2.3,3.4,5.2,5.1,9,5.1
			s6.7-1.7,8.9-5.1c2.3-3.5,3.4-7.7,3.4-12.7s-1.1-9.2-3.4-12.6C144.6,125,141.6,123.3,137.9,123.3z"/>
		<path class="st2" d="M202.6,204.7c-3.7,0-6.7,1.7-9,5.2c-2.3,3.4-3.4,7.6-3.4,12.6s1.1,9.2,3.4,12.7c2.3,3.4,5.2,5.1,9,5.1
			s6.7-1.7,8.9-5.1c2.3-3.5,3.4-7.7,3.4-12.7s-1.1-9.2-3.4-12.6C209.3,206.4,206.4,204.7,202.6,204.7z"/>
		<path class="st2" d="M257.6,204.7c-3.7,0-6.7,1.7-9,5.2c-2.3,3.4-3.4,7.6-3.4,12.6s1.1,9.2,3.4,12.7c2.3,3.4,5.2,5.1,9,5.1
			c3.7,0,6.7-1.7,8.9-5.1c2.3-3.5,3.4-7.7,3.4-12.7s-1.1-9.2-3.4-12.6C264.3,206.4,261.4,204.7,257.6,204.7z"/>
		<path class="st2" d="M334.7,184.3c0-1.4,1.1-2.5,2.5-2.5H361c-0.4-30.4-8.5-58.9-22.5-83.7l-20.6,11.9c-0.4,0.2-0.8,0.3-1.2,0.3
			c-0.9,0-1.7-0.4-2.2-1.3c-0.7-1.2-0.3-2.7,0.9-3.4l20.6-11.9c-15-25.1-36.1-46.2-61.3-61.3l-11.9,20.6c-0.5,0.8-1.3,1.3-2.2,1.3
			c-0.4,0-0.9-0.1-1.2-0.3c-1.2-0.7-1.6-2.2-0.9-3.4l11.9-20.6c-24.8-13.9-53.4-22-83.7-22.5v23.9c0,1.4-1.1,2.5-2.5,2.5
			s-2.5-1.1-2.5-2.5V7.5C151.4,7.9,122.9,16,98,29.9l11.9,20.6c0.7,1.2,0.3,2.7-0.9,3.4c-0.4,0.2-0.8,0.3-1.2,0.3
			c-0.9,0-1.7-0.4-2.2-1.3L93.7,32.4c-25.1,15-46.2,36.1-61.3,61.3l20.6,11.9c1.2,0.7,1.6,2.2,0.9,3.4c-0.5,0.8-1.3,1.3-2.2,1.3
			c-0.4,0-0.9-0.1-1.2-0.3L29.9,98c-13.9,24.8-22,53.4-22.5,83.7h23.9c1.4,0,2.5,1.1,2.5,2.5s-1.1,2.5-2.5,2.5H7.5
			c0.4,30.4,8.5,58.9,22.5,83.7l20.6-11.9c1.2-0.7,2.7-0.3,3.4,0.9c0.7,1.2,0.3,2.7-0.9,3.4l-20.6,11.9c15,25.1,36.1,46.2,61.3,61.3
			l11.9-20.6c0.7-1.2,2.2-1.6,3.4-0.9c1.2,0.7,1.6,2.2,0.9,3.4L98,338.6c24.8,13.9,53.4,22,83.7,22.5v-23.9c0-1.4,1.1-2.5,2.5-2.5
			s2.5,1.1,2.5,2.5V361c30.4-0.4,58.9-8.5,83.7-22.5l-11.9-20.6c-0.7-1.2-0.3-2.7,0.9-3.4c1.2-0.7,2.7-0.3,3.4,0.9l11.9,20.6
			c25.1-15,46.2-36.1,61.3-61.3l-20.6-11.9c-1.2-0.7-1.6-2.2-0.9-3.4c0.7-1.2,2.2-1.6,3.4-0.9l20.6,11.9
			c13.9-24.8,22-53.4,22.5-83.7h-23.9C335.8,186.8,334.7,185.6,334.7,184.3z M104,249.8H93v-42.6l-11.5,5.9v-11l12.8-6.9h9.8V249.8z
			 M104,168.5H93v-42.6l-11.5,5.9v-11l12.8-6.9h9.8V168.5z M175.6,130c3.7,0,6.8,3,6.8,6.7c0,3.8-3,6.9-6.8,6.9
			c-3.8,0-6.8-3-6.8-6.9C168.9,133,171.8,130,175.6,130z M151.6,203.9l-23.1,45.9h-11.9l22.3-44.5h-25.8v-10.1h38.5V203.9z
			 M137.9,169.5c-4.8,0-9-1.3-12.7-4.1c-7.3-5.4-10.8-14.3-10.8-24.3c0-5.1,0.9-9.7,2.7-13.9c3.7-8.5,11.2-14.5,20.9-14.5
			c7.2,0,12.9,2.8,17.1,8.3c4.3,5.5,6.4,12.2,6.4,20c0,7.8-2.1,14.5-6.4,20C150.8,166.7,145.1,169.5,137.9,169.5z M164.9,250.7
			c-3.8,0-6.8-3-6.8-6.9c0-3.7,3-6.7,6.8-6.7c3.7,0,6.8,3,6.8,6.7C171.7,247.7,168.6,250.7,164.9,250.7z M164.9,225
			c-3.8,0-6.8-3-6.8-6.9c0-3.7,3-6.7,6.8-6.7c3.7,0,6.8,3,6.8,6.7C171.7,221.9,168.6,225,164.9,225z M168.9,162.4
			c0-3.7,3-6.7,6.8-6.7c3.7,0,6.8,3,6.8,6.7c0,3.8-3,6.9-6.8,6.9C171.8,169.3,168.9,166.3,168.9,162.4z M219.7,242.6
			c-4.2,5.5-9.9,8.3-17.1,8.3c-4.8,0-9-1.3-12.7-4.1c-7.3-5.4-10.8-14.3-10.8-24.3c0-5.1,0.9-9.7,2.7-13.9
			c3.7-8.5,11.2-14.5,20.9-14.5c7.2,0,12.9,2.8,17.1,8.3c4.3,5.5,6.4,12.2,6.4,20C226.1,230.3,224,237,219.7,242.6z M213.4,169.5
			c-4.8,0-9-1.3-12.7-4.1c-7.3-5.4-10.8-14.3-10.8-24.3c0-5.1,0.9-9.7,2.7-13.9c3.7-8.5,11.2-14.5,20.9-14.5
			c7.2,0,12.9,2.8,17.1,8.3c4.3,5.5,6.4,12.2,6.4,20c0,7.8-2.1,14.5-6.4,20C226.3,166.7,220.6,169.5,213.4,169.5z M274.7,242.6
			c-4.2,5.5-9.9,8.3-17.1,8.3c-4.8,0-9-1.3-12.7-4.1c-7.3-5.4-10.8-14.3-10.8-24.3c0-5.1,0.9-9.7,2.7-13.9
			c3.7-8.5,11.2-14.5,20.9-14.5c7.2,0,12.9,2.8,17.1,8.3c4.3,5.5,6.4,12.2,6.4,20C281.1,230.3,279,237,274.7,242.6z M285.5,161.2
			c-4.2,5.5-9.9,8.3-17.1,8.3c-4.8,0-9-1.3-12.7-4.1c-7.3-5.4-10.8-14.3-10.8-24.3c0-5.1,0.9-9.7,2.7-13.9
			c3.7-8.5,11.2-14.5,20.9-14.5c7.2,0,12.9,2.8,17.1,8.3c4.3,5.5,6.4,12.2,6.4,20C291.9,149,289.8,155.7,285.5,161.2z"/>
		<path class="st2" d="M268.4,123.3c-3.7,0-6.7,1.7-9,5.2c-2.3,3.4-3.4,7.6-3.4,12.6s1.1,9.2,3.4,12.7c2.3,3.4,5.2,5.1,9,5.1
			s6.7-1.7,8.9-5.1c2.3-3.5,3.4-7.7,3.4-12.7s-1.1-9.2-3.4-12.6C275.1,125,272.1,123.3,268.4,123.3z"/>
		<path class="st3" d="M341.9,93.7c0-0.1-0.1-0.2-0.2-0.3c-0.1-0.1-0.2-0.3-0.3-0.4c-15.9-27.3-38.7-50-65.9-65.9
			c-0.1-0.1-0.2-0.2-0.4-0.3c-0.1-0.1-0.2-0.1-0.3-0.2c-26.7-15.4-57.6-24.2-90.6-24.2c-33,0-63.9,8.8-90.6,24.2
			c-0.1,0-0.2,0.1-0.3,0.2c-0.1,0.1-0.3,0.2-0.4,0.3C65.7,42.9,42.9,65.7,27.1,93c-0.1,0.1-0.2,0.2-0.3,0.4
			c-0.1,0.1-0.1,0.2-0.2,0.3c-15.4,26.7-24.2,57.6-24.2,90.6c0,33,8.8,63.9,24.2,90.6c0,0.1,0.1,0.2,0.2,0.3
			c0.1,0.1,0.1,0.2,0.2,0.3c15.9,27.3,38.7,50.1,66,66c0.1,0.1,0.2,0.2,0.4,0.3c0.1,0.1,0.2,0.1,0.3,0.1
			c26.7,15.4,57.7,24.2,90.6,24.2c33,0,63.9-8.8,90.6-24.2c0.1,0,0.2-0.1,0.3-0.1c0.1-0.1,0.3-0.2,0.4-0.3
			c27.3-15.9,50.1-38.7,66-66c0.1-0.1,0.1-0.2,0.2-0.3c0.1-0.1,0.1-0.2,0.2-0.3c15.4-26.7,24.2-57.6,24.2-90.6
			C366.1,151.3,357.3,120.4,341.9,93.7z M338.6,270.5l-20.6-11.9c-1.2-0.7-2.7-0.3-3.4,0.9c-0.7,1.2-0.3,2.7,0.9,3.4l20.6,11.9
			c-15,25.1-36.1,46.2-61.3,61.3l-11.9-20.6c-0.7-1.2-2.2-1.6-3.4-0.9c-1.2,0.7-1.6,2.2-0.9,3.4l11.9,20.6
			c-24.8,13.9-53.4,22-83.7,22.5v-23.9c0-1.4-1.1-2.5-2.5-2.5s-2.5,1.1-2.5,2.5V361c-30.4-0.4-58.9-8.5-83.7-22.5l11.9-20.6
			c0.7-1.2,0.3-2.7-0.9-3.4c-1.2-0.7-2.7-0.3-3.4,0.9l-11.9,20.6c-25.1-15-46.2-36.1-61.3-61.3l20.6-11.9c1.2-0.7,1.6-2.2,0.9-3.4
			c-0.7-1.2-2.2-1.6-3.4-0.9l-20.6,11.9c-13.9-24.8-22-53.4-22.5-83.7h23.9c1.4,0,2.5-1.1,2.5-2.5s-1.1-2.5-2.5-2.5H7.5
			C7.9,151.4,16,122.9,29.9,98l20.6,11.9c0.4,0.2,0.8,0.3,1.2,0.3c0.9,0,1.7-0.4,2.2-1.3c0.7-1.2,0.3-2.7-0.9-3.4L32.4,93.7
			c15-25.1,36.1-46.2,61.3-61.3l11.9,20.6c0.5,0.8,1.3,1.3,2.2,1.3c0.4,0,0.9-0.1,1.2-0.3c1.2-0.7,1.6-2.2,0.9-3.4L98,29.9
			c24.8-13.9,53.4-22,83.7-22.5v23.9c0,1.4,1.1,2.5,2.5,2.5s2.5-1.1,2.5-2.5V7.5c30.4,0.4,58.9,8.5,83.7,22.5l-11.9,20.6
			c-0.7,1.2-0.3,2.7,0.9,3.4c0.4,0.2,0.8,0.3,1.2,0.3c0.9,0,1.7-0.4,2.2-1.3l11.9-20.6c25.1,15,46.2,36.1,61.3,61.3l-20.6,11.9
			c-1.2,0.7-1.6,2.2-0.9,3.4c0.5,0.8,1.3,1.3,2.2,1.3c0.4,0,0.9-0.1,1.2-0.3L338.6,98c13.9,24.8,22,53.4,22.5,83.7h-23.9
			c-1.4,0-2.5,1.1-2.5,2.5s1.1,2.5,2.5,2.5H361C360.6,217.1,352.5,245.6,338.6,270.5z"/>
		<polygon class="st4" points="81.5,120.7 81.5,131.7 93,125.9 93,168.5 104,168.5 104,113.8 94.3,113.8 		"/>
		<path class="st4" d="M155,121.1c-4.2-5.5-9.9-8.3-17.1-8.3c-9.7,0-17.2,6-20.9,14.5c-1.8,4.2-2.7,8.8-2.7,13.9
			c0,10.1,3.6,19,10.8,24.3c3.7,2.7,7.9,4.1,12.7,4.1c7.2,0,12.9-2.8,17.1-8.3c4.3-5.5,6.4-12.2,6.4-20
			C161.4,133.3,159.3,126.6,155,121.1z M146.8,153.9c-2.2,3.4-5.1,5.1-8.9,5.1s-6.7-1.7-9-5.1c-2.3-3.5-3.4-7.7-3.4-12.7
			s1.1-9.2,3.4-12.6c2.3-3.5,5.2-5.2,9-5.2s6.7,1.7,8.9,5.2c2.3,3.4,3.4,7.6,3.4,12.6S149,150.4,146.8,153.9z"/>
		<path class="st4" d="M175.6,143.6c3.7,0,6.8-3,6.8-6.9c0-3.7-3-6.7-6.8-6.7c-3.8,0-6.8,3-6.8,6.7
			C168.9,140.5,171.8,143.6,175.6,143.6z"/>
		<path class="st4" d="M182.4,162.4c0-3.7-3-6.7-6.8-6.7c-3.8,0-6.8,3-6.8,6.7c0,3.8,3,6.9,6.8,6.9
			C179.4,169.3,182.4,166.3,182.4,162.4z"/>
		<path class="st4" d="M230.5,121.1c-4.2-5.5-9.9-8.3-17.1-8.3c-9.7,0-17.2,6-20.9,14.5c-1.8,4.2-2.7,8.8-2.7,13.9
			c0,10.1,3.6,19,10.8,24.3c3.7,2.7,7.9,4.1,12.7,4.1c7.2,0,12.9-2.8,17.1-8.3c4.3-5.5,6.4-12.2,6.4-20
			C236.9,133.3,234.8,126.6,230.5,121.1z M222.3,153.9c-2.2,3.4-5.1,5.1-8.9,5.1s-6.7-1.7-9-5.1c-2.3-3.5-3.4-7.7-3.4-12.7
			s1.1-9.2,3.4-12.6c2.3-3.5,5.2-5.2,9-5.2s6.7,1.7,8.9,5.2c2.3,3.4,3.4,7.6,3.4,12.6S224.6,150.4,222.3,153.9z"/>
		<path class="st4" d="M268.4,112.8c-9.7,0-17.2,6-20.9,14.5c-1.8,4.2-2.7,8.8-2.7,13.9c0,10.1,3.6,19,10.8,24.3
			c3.7,2.7,7.9,4.1,12.7,4.1c7.2,0,12.9-2.8,17.1-8.3c4.3-5.5,6.4-12.2,6.4-20c0-7.8-2.1-14.5-6.4-20
			C281.3,115.6,275.6,112.8,268.4,112.8z M277.3,153.9c-2.2,3.4-5.1,5.1-8.9,5.1s-6.7-1.7-9-5.1c-2.3-3.5-3.4-7.7-3.4-12.7
			s1.1-9.2,3.4-12.6c2.3-3.5,5.2-5.2,9-5.2s6.7,1.7,8.9,5.2c2.3,3.4,3.4,7.6,3.4,12.6S279.5,150.4,277.3,153.9z"/>
		<polygon class="st4" points="81.5,202.1 81.5,213.1 93,207.2 93,249.8 104,249.8 104,195.2 94.3,195.2 		"/>
		<polygon class="st4" points="113.1,205.3 138.9,205.3 116.6,249.8 128.5,249.8 151.6,203.9 151.6,195.2 113.1,195.2 		"/>
		<path class="st4" d="M164.9,237.1c-3.8,0-6.8,3-6.8,6.7c0,3.8,3,6.9,6.8,6.9c3.7,0,6.8-3,6.8-6.9
			C171.7,240.1,168.6,237.1,164.9,237.1z"/>
		<path class="st4" d="M164.9,211.4c-3.8,0-6.8,3-6.8,6.7c0,3.8,3,6.9,6.8,6.9c3.7,0,6.8-3,6.8-6.9
			C171.7,214.3,168.6,211.4,164.9,211.4z"/>
		<path class="st4" d="M202.6,194.1c-9.7,0-17.2,6-20.9,14.5c-1.8,4.2-2.7,8.8-2.7,13.9c0,10.1,3.6,19,10.8,24.3
			c3.7,2.7,7.9,4.1,12.7,4.1c7.2,0,12.9-2.8,17.1-8.3c4.3-5.5,6.4-12.2,6.4-20c0-7.8-2.1-14.5-6.4-20
			C215.5,196.9,209.8,194.1,202.6,194.1z M211.5,235.2c-2.2,3.4-5.1,5.1-8.9,5.1s-6.7-1.7-9-5.1c-2.3-3.5-3.4-7.7-3.4-12.7
			s1.1-9.2,3.4-12.6c2.3-3.5,5.2-5.2,9-5.2s6.7,1.7,8.9,5.2c2.3,3.4,3.4,7.6,3.4,12.6S213.8,231.7,211.5,235.2z"/>
		<path class="st4" d="M257.6,194.1c-9.7,0-17.2,6-20.9,14.5c-1.8,4.2-2.7,8.8-2.7,13.9c0,10.1,3.6,19,10.8,24.3
			c3.7,2.7,7.9,4.1,12.7,4.1c7.2,0,12.9-2.8,17.1-8.3c4.3-5.5,6.4-12.2,6.4-20c0-7.8-2.1-14.5-6.4-20
			C270.5,196.9,264.8,194.1,257.6,194.1z M266.5,235.2c-2.2,3.4-5.1,5.1-8.9,5.1c-3.7,0-6.7-1.7-9-5.1c-2.3-3.5-3.4-7.7-3.4-12.7
			s1.1-9.2,3.4-12.6c2.3-3.5,5.2-5.2,9-5.2c3.7,0,6.7,1.7,8.9,5.2c2.3,3.4,3.4,7.6,3.4,12.6S268.8,231.7,266.5,235.2z"/>
	</g>
</g>
</svg>
