<?xml version="1.0" encoding="utf-8"?>
<!-- Generator: Adobe Illustrator 19.0.0, SVG Export Plug-In . SVG Version: 6.00 Build 0)  -->
<svg version="1.1" id="Layer_1" xmlns="http://www.w3.org/2000/svg" xmlns:xlink="http://www.w3.org/1999/xlink" x="0px" y="0px"
	 viewBox="0 0 685.6 617.6" style="enable-background:new 0 0 685.6 617.6;" xml:space="preserve">
<metadata><?xpacket begin="﻿" id="W5M0MpCehiHzreSzNTczkc9d"?>
<x:xmpmeta xmlns:x="adobe:ns:meta/" x:xmptk="Adobe XMP Core 5.6-c067 79.157747, 2015/03/30-23:40:42        ">
   <rdf:RDF xmlns:rdf="http://www.w3.org/1999/02/22-rdf-syntax-ns#">
      <rdf:Description rdf:about=""/>
   </rdf:RDF>
</x:xmpmeta>
                                                                                                    
                                                                                                    
                                                                                                    
                                                                                                    
                                                                                                    
                                                                                                    
                                                                                                    
                                                                                                    
                                                                                                    
                                                                                                    
                                                                                                    
                                                                                                    
                                                                                                    
                                                                                                    
                                                                                                    
                                                                                                    
                                                                                                    
                                                                                                    
                                                                                                    
                                                                                                    
                           
<?xpacket end="w"?></metadata>
<style type="text/css">
	.st0{fill:none;stroke:#FFFFFF;stroke-miterlimit:10;}
</style>
<path class="st0" d="M418.9,522.3h-3.3 M186.9,522.3h-6.3 M382,522.3h7.8 M197.4,522.3h4 M398.8,522.3h5.6 M538.7,419.9l-2.7-4.4
	 M543.1,427.3l2.8,4.6 M302.9,522.3h-4.8 M331.7,522.3l0.1,0.2l0.1-0.2H331.7z M281.3,522.3h7.1 M596.5,516.1l-3.5-5.8 M350.6,107
	l0.1,0.2 M214.2,522.3h1.7 M505.8,522.3h-6.3 M516.3,522.3h4.1 M534.8,522.3h-1.8 M314.9,522.3h2.5 M377.4,375l3,4.9h8.5l4.1-6.8
	l-3-5h-8.4L377.4,375z M370.2,362.9l3.1,5.1h8.3l4.2-7l-2.9-4.9h-8.6L370.2,362.9z M355.7,338.9l-3.3,5.4h6.6L355.7,338.9z
	 M373.2,368h-6.2l-5.3,8.8l1.8,3h10.8l3-4.9L373.2,368z M374.4,379.9h6l-3-4.9L374.4,379.9z M382.9,356.2l-4.3-7.2l-4.3,7.2H382.9z
	 M338.9,366.7l-0.8,1.3h1.6L338.9,366.7z M362.9,350.9l3.2,5.3h8.1l4.3-7.2l-2.8-4.7h-8.8L362.9,350.9z M375.8,344.3l-4.4-7.3
	l-4.4,7.3H375.8z M366.9,344.3l4.4-7.3l-2.7-4.5h-9l-3.9,6.4l3.3,5.4H366.9z M360.6,402.8l6.7-11h-13.3L360.6,402.8z M353.3,390.8
	l6.6-10.9h-13.1L353.3,390.8z M356.5,368h-3.9l-6.5,10.7l0.7,1.2h13.1l1.8-3L356.5,368z M331.1,403.6h13.2l-6.6-11L331.1,403.6z
	 M330.5,380.6l-6.7,11.1h13.4L330.5,380.6z M337.2,391.8h-13.4l-1.7,2.8l5.4,9.1h3.6l6.6-11L337.2,391.8z M338.3,391.8l7.2-11.9
	h-14.5l-0.4,0.7l6.7,11.1H338.3z M346.1,378.7l-6.4-10.7h-1.6l-7.2,11.9h14.5L346.1,378.7z M338.3,391.8l-0.5,0.9l6.6,11h1.3
	l7.2-11.9H338.3z M347.3,352.8l-2,3.4h4.1L347.3,352.8z M352.7,391.8l-7.2,11.9h14.5l0.5-0.8l-6.6-11H352.7z M359.8,356.2l3.2-5.3
	l-4-6.6h-6.6l-5.1,8.5l2,3.4H359.8z M352.6,368l1.9-3.2l-5.2-8.6h-4.1l-6.4,10.5l0.8,1.3H352.6z M359.9,379.9h3.7l-1.8-3
	L359.9,379.9z M390,368l-4.2-7l-4.2,7H390z M393,373.1l4.1,6.8h6.3l5.3-8.7l-1.9-3.1h-10.7L393,373.1z M406.8,368l-5.4-8.9l-5.4,8.9
	H406.8z M352.4,344.3l3.3-5.4l-3.9-6.4h-6.8l-5,8.3l2.1,3.5H352.4z M385.8,361l4.2,7h6.1l5.4-8.9l-1.8-3h-10.9L385.8,361z
	 M338.9,366.7l-6.3-10.5h-1.8l-7.2,11.9h14.5L338.9,366.7z M331.7,354.7l-0.9,1.5h1.8L331.7,354.7z M340.1,340.8l-2.1,3.5h4.3
	L340.1,340.8z M348.5,326.8l-3.4,5.6h6.8L348.5,326.8z M345.3,356.2l2-3.4l-5.1-8.5h-4.3l-6.3,10.4l0.9,1.5H345.3z M385.4,332.4
	l-5.6-9.4l-5.7,9.4H385.4z M345.4,379.9l-7.2,11.9h14.5l0.6-1l-6.5-10.9H345.4z M392.5,344.3l-5.5-9.2l-5.6,9.2H392.5z M371.4,337
	l4.4,7.3h5.7l5.6-9.2l-1.6-2.6h-11.3L371.4,337z M378.6,349l4.3,7.2h5.9l5.5-9.1l-1.7-2.8h-11.1L378.6,349z M366.8,320.6h-5.3
	l2.6,4.4L366.8,320.6z M359.6,332.4l4.5-7.5l-2.6-4.4h-9.2l-3.8,6.3l3.4,5.6H359.6z M368.6,332.4h5.5l5.7-9.4l-1.5-2.5h-11.5
	l-2.6,4.4L368.6,332.4z M396.2,391.8h8l-4-6.7L396.2,391.8z M399.7,356.2l-5.4-9.1l-5.5,9.1H399.7z M400.3,385.1l4,6.7h6.4l5.2-8.6
	l-2-3.3h-10.5L400.3,385.1z M322.1,394.6l-1.7-2.8h-11.1l-2.8,4.7l4.3,7.2h5.9L322.1,394.6z M310.7,403.6l2.9,4.9l2.9-4.9H310.7z
	 M327.5,403.6h-10.9l-2.9,4.9l4.2,7h6.1l5.4-8.9L327.5,403.6z M314.8,382.5l-5.6,9.2h11.1L314.8,382.5z M345.6,403.6l-0.6,1.1
	l6.5,10.8h1.5l7.2-11.9H345.6z M323.8,391.8l6.7-11.1l-0.4-0.7h-13.6l-1.6,2.6l5.5,9.2H323.8z M397.2,379.9h-8.2l-4.3,7.1l2.9,4.8
	h8.7l4-6.7L397.2,379.9z M338.4,415.5h13l-6.5-10.8L338.4,415.5z M344.3,403.6h-13.2l-1.8,3l5.3,8.9h3.8l6.5-10.8L344.3,403.6z
	 M323.9,415.5h10.7l-5.3-8.9L323.9,415.5z M363.6,379.9h-3.7l-6.6,10.9l0.6,1h13.3l1.7-2.9L363.6,379.9z M367.2,391.8h3.5l-1.7-2.9
	L367.2,391.8z M380.4,379.9h-6l-5.4,9l1.7,2.9h11l2.9-4.8L380.4,379.9z M381.7,391.8h5.8l-2.9-4.8L381.7,391.8z M330.9,379.9
	l7.2-11.9h-14.5l-0.3,0.6l6.8,11.3H330.9z M413.9,379.9l-5.3-8.7l-5.3,8.7H413.9z M323.2,368.6l-6.8,11.3H330L323.2,368.6z
	 M360.1,403.6l-7.2,11.9h14.5l0.4-0.7l-6.7-11.2H360.1z M369,388.9l5.4-9h-10.8L369,388.9z M286.8,391.8l4,6.6l4-6.6H286.8z
	 M277.2,403.6l5.2,8.7l5.2-8.7H277.2z M280.4,415.5h3.9l-1.9-3.2L280.4,415.5z M318.3,332.4l6.1,10.2l6.2-10.2H318.3z M315.8,356.2
	l0.2,0.4l0.2-0.4H315.8z M306.1,368l1.5,2.5l1.5-2.5H306.1z M368.2,415.5l-0.4-0.7l-0.4,0.7H368.2z M274,426.2l6.5-10.7h-12.9
	L274,426.2z M343.8,430.6l2-3.3h-4L343.8,430.6z M359.4,428.7l0.8-1.4h-1.7L359.4,428.7z M328.1,432.5l3.1-5.2H325L328.1,432.5z
	 M302.3,427.3h6l-3-4.9L302.3,427.3z M289.6,424.3l5.3-8.8h-10.6L289.6,424.3z M312.5,434.4l4.3-7.1h-8.5L312.5,434.4z M347.2,296.9
	l2.4,4l2.4-4H347.2z M428.2,403.6l-5.1-8.4l-5.1,8.4H428.2z M414.7,409.1l3.3-5.5h-6.6L414.7,409.1z M437.9,391.8l-6.3-10.5
	l-6.3,10.5H437.9z M432.6,403.6h-4.4l2.2,3.6L432.6,403.6z M327.9,320.6l4.9,8.2l4.9-8.2H327.9z M399.1,411l4.5-7.4h-8.9L399.1,411z
	 M383.4,412.9l5.6-9.3h-11.2L383.4,412.9z M375.3,427.3l-0.3-0.5l-0.3,0.5H375.3z M382.5,439.2l-0.2-0.3l-0.2,0.3H382.5z
	 M337.6,308.7l3.7,6.1l3.7-6.1H337.6z M366.6,296.9H364l1.3,2.1L366.6,296.9z M358.1,287l-6,9.9H364L358.1,287z M381,297.1l-7,11.6
	h14L381,297.1z M296.5,379.9l2.7,4.5l2.7-4.5H296.5z M349.8,273.1l1.1,1.8l1.1-1.8H349.8z M340.1,285l2.3,3.9l2.3-3.9H340.1z
	 M418.3,331.3l-0.7,1.2h1.4L418.3,331.3z M432.1,332.4H419l6.5,10.9L432.1,332.4z M433.2,356.2l-0.5-0.8l-0.5,0.8H433.2z
	 M439.4,344.3h-13.3l6.6,11L439.4,344.3z M330.5,296.9l3.6,5.9l3.6-5.9H330.5z M299,356.2l1.4,2.3l1.4-2.3H299z M452.1,415.5
	l-6.1-10.1l-6.1,10.1H452.1z M346.1,378.7l-0.7,1.2h1.4L346.1,378.7z M308.6,344.3l0.1,0.2l0.2-0.2H308.6z M289.3,368l2.6,4.4
	l2.6-4.4H289.3z M311.2,320.6l6,10.1l6.1-10.1H311.2z M279.7,379.9l3.9,6.4l3.9-6.4H279.7z M351,442.7l2.1-3.5h-4.2L351,442.7z
	 M319.7,446.5l4.4-7.3h-8.7L319.7,446.5z M270,391.8l5.1,8.5l5.1-8.5H270z M335.3,444.6l3.2-5.4h-6.5L335.3,444.6z M295.1,439.2h3.5
	l-1.7-2.9L295.1,439.2z M366.6,440.8l0.9-1.6h-1.9L366.6,440.8z M390.7,425l5.7-9.5H385L390.7,425z M304.1,448.4l5.5-9.1h-11
	L304.1,448.4z M422,421.2l3.4-5.7h-6.8L422,421.2z M406.3,423.1l4.6-7.6h-9.1L406.3,423.1z M437.6,419.3l2.3-3.8h-4.6L437.6,419.3z
	 M281.2,438.2l6.6-10.9h-13.1L281.2,438.2z M258.3,428.1l0.5-0.7h-0.9L258.3,428.1z M260.4,403.6l6.3,10.5l6.4-10.5H260.4z
	 M320.8,308.7l4.8,8l4.8-8H320.8z M397.2,379.9l-4.1-6.8l-4.1,6.8H397.2z M381.4,344.3h-5.7l2.8,4.7L381.4,344.3z M364.1,324.9
	l-4.5,7.5h9L364.1,324.9z M329.3,406.6l1.8-3h-3.6L329.3,406.6z M403.4,379.9h-6.3l3.1,5.2L403.4,379.9z M351.9,332.4l3.9,6.4
	l3.9-6.4H351.9z M396.1,368H390l3,5L396.1,368z M374.1,332.4h-5.5l2.7,4.5L374.1,332.4z M397.9,437l5.8-9.6h-11.6L397.9,437z
	 M342.2,344.3l5.1,8.5l5.1-8.5H342.2z M316.6,403.6h10.9l-5.4-9.1L316.6,403.6z M320.4,391.8l1.7,2.8l1.7-2.8H320.4z M330,379.9
	l0.4,0.7l0.4-0.7H330z M332.6,356.2l6.3,10.5l6.4-10.5H332.6z M388.8,356.2h-5.9l2.9,4.9L388.8,356.2z M374.3,356.2h-8.1l4.1,6.8
	L374.3,356.2z M361.8,376.8l5.3-8.8h-10.6L361.8,376.8z M352.2,416.7l0.7-1.2h-1.5L352.2,416.7z M373.2,368l-3.1-5.1l-3.1,5.1H373.2
	z M367.1,368l3.1-5.1l-4.1-6.8h-6.4l-5.2,8.6l1.9,3.2H367.1z M354.5,364.8l-1.9,3.2h3.9L354.5,364.8z M349.3,356.2l5.2,8.6l5.2-8.6
	H349.3z M337.7,392.7l0.5-0.9h-1.1L337.7,392.7z M339.7,368l6.4,10.7l6.5-10.7H339.7z M353.9,391.8l-0.6-1l-0.6,1H353.9z M384.6,387
	l4.3-7.1h-8.5L384.6,387z M362.9,350.9l-3.2,5.3h6.4L362.9,350.9z M359,344.3l4,6.6l4-6.6H359z M381.6,368h-8.3l4.2,6.9L381.6,368z
	 M335.1,332.4l5,8.3l5-8.3H335.1z M313.2,379.9l1.6,2.6l1.6-2.6H313.2z M322.9,368l0.3,0.6l0.3-0.6H322.9z M325.4,344.3l6.2,10.4
	l6.3-10.4H325.4z M356.9,312.9l-4.6,7.7h9.2L356.9,312.9z M344.7,320.6l3.8,6.3l3.8-6.3H344.7z M354.4,308.7l2.5,4.2l2.5-4.2H354.4z
	 M309.4,415.5h8.4l-4.2-7L309.4,415.5z M320.9,420.5l3-5h-6.1L320.9,420.5z M303.6,391.8l2.8,4.7l2.8-4.7H303.6z M336.5,418.6
	l1.9-3.1h-3.8L336.5,418.6z M298,410.4l4.1-6.8h-8.1L298,410.4z M302.1,403.6h8.6l-4.3-7.2L302.1,403.6z M395.9,344.3h-3.4l1.7,2.8
	L395.9,344.3z M391.9,399l4.4-7.2h-8.7L391.9,399z M407.5,397.1l3.2-5.4h-6.4L407.5,397.1z M421.1,391.8l-5.2-8.6l-5.2,8.6H421.1z
	 M361.1,403.6l-0.5-0.8l-0.5,0.8H361.1z M417.9,379.9h-4l2,3.3L417.9,379.9z M376.2,400.9l5.5-9.1h-11L376.2,400.9z M344.9,404.7
	l0.6-1.1h-1.3L344.9,404.7z M388.6,332.4h-3.2l1.6,2.6L388.6,332.4z M372.5,311l-5.8,9.6h11.5L372.5,311z M410.6,368h-3.8l1.9,3.1
	L410.6,368z M381.3,320.6h-3l1.5,2.5L381.3,320.6z M403.2,356.2h-3.6l1.8,3L403.2,356.2z M409.9,345.2l-6.6,11h13.2L409.9,345.2z
	 M345.9,451.1H356l-5.1-8.4L345.9,451.1z M435.8,332.4l-1.8-3.1l-1.8,3.1H435.8z M419,332.4h13.1l1.8-3.1l-5.3-8.8h-3.9l-6.5,10.7
	L419,332.4z M425.5,343.3l0.6,1h13.3l1.7-2.9l-5.4-9h-3.7L425.5,343.3z M395.8,320.6h14.5l0.8-1.3l-6.3-10.5h-1.8L395.8,320.6z
	 M424.8,320.6h-12.9l6.4,10.7L424.8,320.6z M411.8,320.6l-0.8-1.3l-0.8,1.3H411.8z M442.9,344.3l-1.7-2.9l-1.7,2.9H442.9z
	 M403.1,332.4h14.5l0.7-1.2l-6.4-10.7h-1.6L403.1,332.4z M432.7,355.3l0.5,0.8h13.5l1.6-2.7l-5.5-9.1h-3.5L432.7,355.3z
	 M447.5,379.9l-0.3-0.5l-0.3,0.5H447.5z M440.4,368l-0.4-0.7l-0.4,0.7H440.4z M432.4,379.9h14.5l0.3-0.5l-6.8-11.4h-0.8L432.4,379.9
	z M432.2,356.2l-7.2,11.9h14.5l0.4-0.7l-6.7-11.2H432.2z M440,367.4l6.8-11.2h-13.5L440,367.4z M373.7,285.1L373.7,285.1
	L373.7,285.1L373.7,285.1z M366.4,273.1L366.4,273.1l-7-11.9h-0.3l-7.2,11.9H366.4z M359.3,285h14.4l-7.1-11.9h-0.1L359.3,285z
	 M366.5,273.1L366.5,273.1h-0.1H366.5z M351.9,273.1l7.2-11.9h-14.5l-1,1.6l6.1,10.2H351.9z M344.8,285l6.1-10.1l-1.1-1.8h-12.3
	l-2.2,3.7l4.9,8.2H344.8z M343.6,262.9l-6.2,10.2h12.3L343.6,262.9z M395.6,296.9l1-1.7l-6.1-10.2h-2.2l-7.2,11.9H395.6z
	 M397.6,296.9l-1-1.7l-1,1.7H397.6z M388.4,308.7h14.5l0.9-1.5l-6.2-10.4h-2L388.4,308.7z M404.7,308.7l-0.9-1.5l-0.9,1.5H404.7z
	 M380.8,296.9h0.3l7.2-11.9h-14.5l0,0.1L380.8,296.9z M373.8,285l7.2-11.9h-14.4L373.8,285L373.8,285z M439.7,391.8h14.5l0.2-0.3
	l-6.9-11.5h-0.6L439.7,391.8z M452.1,415.5h-12.2l-2.3,3.8l4.9,8.1h4.8l6-10L452.1,415.5z M341.8,427.3h-10.5l-3.1,5.2l4,6.7h6.5
	l5.2-8.6L341.8,427.3z M438.8,393.3l6.2,10.3h2.1l7.2-11.9h-14.5L438.8,393.3z M353.1,439.2h12.6l-6.3-10.5L353.1,439.2z
	 M358.6,427.3h-12.8l-2,3.3l5.2,8.6h4.2l6.3-10.5L358.6,427.3z M382.3,438.9l7-11.5h-13.9L382.3,438.9z M360.2,427.3l-0.8,1.4
	l6.3,10.5h1.9l7.2-11.9H360.2z M374.7,427.3l-7.2,11.9h14.5l0.2-0.3l-6.9-11.5H374.7z M291.4,427.3l5.4,9l5.4-9H291.4z M385,415.5
	h-3.1l-6.9,11.4l0.3,0.5h13.9l1.4-2.4L385,415.5z M324.1,439.2h8l-4-6.7L324.1,439.2z M305.2,422.4l-4.2-6.9h-6.2l-5.3,8.8l1.8,3
	h10.8L305.2,422.4z M308.2,427.3h-6l-5.4,9l1.7,2.9h11l2.9-4.8L308.2,427.3z M309.6,439.2h5.8l-2.9-4.8L309.6,439.2z M325,427.3
	h-8.2l-4.3,7.1l2.9,4.8h8.7l4-6.7L325,427.3z M338.6,439.2h10.3l-5.2-8.6L338.6,439.2z M453.2,417.4l1.1-1.9h-2.3L453.2,417.4z
	 M459.2,427.3h2.5l7.2-11.9h-14.5l-1.1,1.9L459.2,427.3z M447.2,427.3h12l-6-10L447.2,427.3z M446,405.3l1-1.7H445L446,405.3z
	 M335.2,276.8l-4.9,8.2h9.8L335.2,276.8z M452.1,415.5h2.3l7.2-11.9h-14.5l-1,1.7L452.1,415.5z M418.2,427.3h7.5l-3.7-6.2
	L418.2,427.3z M403.7,427.3h5.2l-2.6-4.3L403.7,427.3z M401.8,415.5h-5.4l-5.7,9.5l1.4,2.4h11.6l2.6-4.3L401.8,415.5z M418.5,415.5
	h-7.7l-4.6,7.6l2.6,4.3h9.3l3.7-6.2L418.5,415.5z M389.2,427.3h2.9l-1.4-2.4L389.2,427.3z M435.3,415.5h-9.9l-3.4,5.7l3.7,6.2h7
	l4.9-8.1L435.3,415.5z M432.7,427.3h9.7l-4.9-8.1L432.7,427.3z M392.1,427.3h-2.9l-7,11.5l0.2,0.3h14.1l1.3-2.2L392.1,427.3z
	 M413.5,435.1l4.7-7.7h-9.3L413.5,435.1z M331.4,451.1h7.8l-3.9-6.5L331.4,451.1z M348.9,439.2h-10.3l-3.2,5.4l3.9,6.5h6.7l5.1-8.4
	L348.9,439.2z M365.7,439.2h-12.6l-2.1,3.5l5.1,8.4h4.4l6.2-10.3L365.7,439.2z M367.8,414.8l6.8-11.2h-13.5L367.8,414.8z
	 M367.6,439.2l-0.9,1.6l6.2,10.3h2.1l7.2-11.9H367.6z M360.4,451.1h12.4l-6.2-10.3L360.4,451.1z M332.1,439.2h-8l-4.4,7.3l2.8,4.6
	h8.9l3.9-6.5L332.1,439.2z M298.6,439.2h-3.5l-6.7,11l0.5,0.8h13.5l1.6-2.7L298.6,439.2z M281.8,439.2l6.6,11l6.7-11H281.8z
	 M302.4,451.1h3.3l-1.6-2.7L302.4,451.1z M389.5,450.9l7.1-11.7h-14.1L389.5,450.9z M315.3,439.2h-5.8l-5.5,9.1l1.6,2.7h11.2
	l2.8-4.6L315.3,439.2z M316.9,451.1h5.6l-2.8-4.6L316.9,451.1z M440.1,439.2h9.5l-4.8-7.9L440.1,439.2z M296.8,436.3l-5.4-9h-3.7
	l-6.6,10.9l0.6,1h13.3L296.8,436.3z M459.2,427.3h-12l-2.4,3.9l4.8,7.9h5l5.9-9.8L459.2,427.3z M461.7,427.3l-1.2,2.1l5.9,9.8h2.7
	l7.1-11.7l-0.1-0.2H461.7z M454.5,439.2h11.8l-5.9-9.8L454.5,439.2z M476.1,427.5l0.1-0.2H476L476.1,427.5z M287.8,427.3h3.7l-1.8-3
	L287.8,427.3z M476.2,427.3l7.2-11.9h-14.5l7.1,11.9H476.2z M408.9,427.3h-5.2l-5.8,9.6l1.3,2.2h11.8l2.5-4.1L408.9,427.3z
	 M396.6,439.2h2.7l-1.3-2.2L396.6,439.2z M411.1,439.2h5l-2.5-4.1L411.1,439.2z M442.5,427.3h-9.7l-3.5,5.8l3.6,6h7.2l4.8-7.9
	L442.5,427.3z M425.7,427.3h-7.5l-4.7,7.7l2.5,4.1h9.5l3.6-6L425.7,427.3z M425.6,439.2h7.3l-3.6-6L425.6,439.2z M326.8,290.8
	l-3.7,6.1h7.3L326.8,290.8z M301.6,332.5l-7.1,11.8h14.2L301.6,332.5z M308.9,344.3l7.2-11.9h-14.5l-0.1,0.1l7.1,11.8H308.9z
	 M301.5,332.4L301.5,332.4h0.1H301.5z M301.8,356.2l7-11.6l-0.1-0.2h-14.2l-1.3,2.1l5.8,9.7H301.8z M308.8,320.6h-14.4l7.1,11.9h0.1
	L308.8,320.6z M294.6,368l5.8-9.6l-1.4-2.3h-11.7l-2.5,4.2l4.6,7.7H294.6z M293.1,346.5l-5.9,9.7H299L293.1,346.5z M316.1,332.4
	l1.1-1.8l-6-10.1h-2.4l-7.2,11.9H316.1z M318.4,304.7l-2.4,4h4.9L318.4,304.7z M330.4,308.7l3.6-5.9l-3.6-5.9h-7.3l-4.7,7.8l2.4,4
	H330.4z M284.7,360.4l-4.6,7.7h9.2L284.7,360.4z M337.6,296.9l4.8-8l-2.3-3.9h-9.8l-3.5,5.8l3.7,6.1H337.6z M310,318.6l-1.2,2h2.4
	L310,318.6z M323.3,320.6l2.3-3.9l-4.8-8h-4.9l-6,9.9l1.2,2H323.3z M273.1,403.6l2-3.4l-5.1-8.5h-4.3l-6.3,10.4l0.9,1.5H273.1z
	 M251.6,439.2H265l-6.7-11.1L251.6,439.2z M257.9,427.3h-13.6l-1.6,2.6l5.5,9.2h3.4l6.7-11.1L257.9,427.3z M287.4,379.9l4.5-7.5
	l-2.6-4.4h-9.2l-3.8,6.3l3.4,5.6H287.4z M251.1,416.1l-6.8,11.3h13.6L251.1,416.1z M274.6,427.3h-1.4l-7.2,11.9h14.5l0.6-1
	L274.6,427.3z M258.8,427.3l-0.5,0.7l6.7,11.1h1.1l7.2-11.9H258.8z M258.8,427.3l7.2-11.9h-14.5l-0.4,0.6l6.8,11.3H258.8z
	 M280.3,391.8l3.3-5.4l-3.9-6.4h-6.7l-5,8.3l2.1,3.5H280.3z M267.9,388.2l-2.1,3.5h4.3L267.9,388.2z M276.3,374.3l-3.4,5.6h6.7
	L276.3,374.3z M259.5,402.1l-0.9,1.5h1.8L259.5,402.1z M280.6,439.2h1.2l-0.6-1L280.6,439.2z M266.7,414.2l-6.3-10.5h-1.8l-7.2,11.9
	h14.5L266.7,414.2z M382.1,439.2l-7.2,11.9h14.5l0.1-0.2l-7-11.7H382.1z M316.4,379.9l6.8-11.3l-0.3-0.6h-13.8l-1.5,2.5l5.6,9.4
	H316.4z M316,356.6l-6.9,11.5h13.8L316,356.6z M307.6,370.5l-5.7,9.4h11.3L307.6,370.5z M323.6,368l7.2-11.9h-14.5l-0.2,0.4
	l6.9,11.5H323.6z M302.1,403.6l4.3-7.2l-2.8-4.7h-8.8l-4,6.6l3.2,5.3H302.1z M309.3,391.8l5.6-9.2l-1.6-2.6h-11.3l-2.7,4.5l4.4,7.3
	H309.3z M299.2,384.4l-4.4,7.3h8.8L299.2,384.4z M331.7,354.7l-6.2-10.4h-2l-7.2,11.9h14.5L331.7,354.7z M345.1,332.4l3.4-5.6
	l-3.8-6.3h-7l-4.9,8.2l2.2,3.7H345.1z M290.8,398.4l-3.2,5.3h6.4L290.8,398.4z M341.3,314.8l-3.5,5.8h7L341.3,314.8z M332.8,328.7
	l-2.2,3.7h4.5L332.8,328.7z M324.4,342.7l-1,1.6h2L324.4,342.7z M337.9,344.3l2.1-3.5l-5-8.3h-4.5l-6.2,10.2l1,1.6H337.9z
	 M301.1,415.5l4.2,6.9l4.2-6.9H301.1z M345.7,427.3h12.8l-6.4-10.6L345.7,427.3z M352.9,415.5l-0.7,1.2l6.4,10.6h1.7l7.2-11.9H352.9
	z M331.2,427.3h10.5l-5.2-8.7L331.2,427.3z M351.4,415.5h-13l-1.9,3.1l5.2,8.7h4l6.4-10.6L351.4,415.5z M367.4,415.5l-7.2,11.9h14.5
	l0.3-0.5l-6.8-11.4H367.4z M293.9,403.6h-6.4l-5.2,8.7l1.9,3.2h10.6l3.1-5.1L293.9,403.6z M375,426.9l6.9-11.4h-13.7L375,426.9z
	 M313.7,408.5l-2.9-4.9h-8.6l-4.1,6.8l3.1,5.1h8.3L313.7,408.5z M334.6,415.5h-10.7l-3,5l4.1,6.8h6.3l5.3-8.7L334.6,415.5z
	 M352.3,320.6l4.6-7.7l-2.5-4.2h-9.4l-3.7,6.1l3.5,5.8H352.3z M294.9,415.5h6.2l-3.1-5.1L294.9,415.5z M317.9,415.5h-8.4l-4.2,6.9
	l3,4.9h8.5l4.1-6.8L317.9,415.5z M316.7,427.3h8.2l-4.1-6.8L316.7,427.3z M395.1,320.6l-6.9-11.5l-6.9,11.5H395.1z M415.9,383.2
	l5.2,8.6h4.2l6.3-10.5l-0.8-1.4h-12.8L415.9,383.2z M430.7,379.9l-6.4-10.6l-6.4,10.6H430.7z M423.1,395.2l2.1-3.5h-4.2L423.1,395.2
	z M410.7,391.8l-3.2,5.4l3.9,6.5h6.6l5.1-8.4l-2.1-3.5H410.7z M403.2,356.2l-1.8,3l5.4,8.9h3.8l6.5-10.8l-0.6-1.1H403.2z M423.6,368
	l-6.5-10.8l-6.5,10.8H423.6z M408.7,371.2l5.3,8.7h4l6.4-10.6l-0.7-1.2h-13L408.7,371.2z M374.6,403.6h3.3l-1.6-2.7L374.6,403.6z
	 M417.1,357.2l0.6-1.1h-1.3L417.1,357.2z M370.7,391.8h-3.5l-6.7,11l0.5,0.8h13.5l1.6-2.7L370.7,391.8z M349.7,300.9l-4.7,7.8h9.4
	L349.7,300.9z M387.5,391.8h-5.8l-5.5,9.1l1.6,2.7h11.2l2.8-4.6L387.5,391.8z M404.3,391.8h-8l-4.4,7.2l2.8,4.6h8.9l3.9-6.5
	L404.3,391.8z M389.1,403.6h5.6l-2.8-4.6L389.1,403.6z M403.6,403.6h7.8l-3.9-6.5L403.6,403.6z M416.5,356.2h1.3l7.2-11.9h-14.5
	l-0.5,0.9L416.5,356.2z M373.9,308.7h-2.8l1.4,2.3L373.9,308.7z M378.3,320.6h3l6.9-11.5l-0.2-0.4h-14l-1.4,2.3L378.3,320.6z
	 M371.2,308.7l-5.8-9.7l-5.9,9.7H371.2z M377.9,403.6h-3.3l-6.8,11.2l0.4,0.7h13.7l1.5-2.6L377.9,403.6z M359.4,308.7l5.9-9.7
	l-1.3-2.1h-11.9l-2.4,4l4.7,7.8H359.4z M356.9,312.9l4.6,7.7h5.3l5.8-9.6l-1.4-2.3h-11.7L356.9,312.9z M394.2,347.1l5.4,9.1h3.6
	l6.6-11l-0.5-0.9h-13.4L394.2,347.1z M409.3,344.3l-6.7-11.1l-6.7,11.1H409.3z M410.4,344.3h-1.1l0.5,0.9L410.4,344.3z M387,335.1
	l5.5,9.2h3.4l6.7-11.1l-0.4-0.7h-13.6L387,335.1z M379.8,323l5.6,9.4h3.2l6.8-11.3l-0.3-0.6h-13.8L379.8,323z M402.2,332.4
	l-6.8-11.3l-6.8,11.3H402.2z M300.4,358.5l-5.8,9.6h11.5L300.4,358.5z M337.8,320.6l3.5-5.8l-3.7-6.1h-7.1l-4.8,8l2.3,3.9H337.8z
	 M325.6,316.7l-2.3,3.9h4.7L325.6,316.7z M334,302.8l-3.6,5.9h7.1L334,302.8z M324.4,342.7l-6.1-10.2h-2.2l-7.2,11.9h14.5
	L324.4,342.7z M316.3,356.2l7.2-11.9h-14.5l-0.2,0.2l7,11.6H316.3z M344.9,308.7l4.7-7.8l-2.4-4h-9.6l-3.6,5.9l3.6,5.9H344.9z
	 M317.2,330.6l-1.1,1.8h2.2L317.2,330.6z M330.6,332.4l2.2-3.7l-4.9-8.2h-4.7l-6.1,10.1l1.1,1.8H330.6z M358.1,287l1.2-2h-2.4
	L358.1,287z M364,296.9h2.6l7.1-11.8l0-0.1h-14.4l-1.2,2L364,296.9z M359.3,285l7.2-11.9h-14.5l-1.1,1.8l6,10.1H359.3z M380.8,296.9
	l-7.1-11.8l-7.1,11.8H380.8z M350.9,274.9l-6.1,10.1h12.1L350.9,274.9z M342.4,288.9l-4.8,8h9.6L342.4,288.9z M352.1,296.9l6-9.9
	l-1.2-2h-12.1l-2.3,3.9l4.8,8H352.1z M280.4,415.5l1.9-3.2l-5.2-8.7h-4.1l-6.4,10.5l0.8,1.3H280.4z M275.1,400.2l-2,3.4h4.1
	L275.1,400.2z M266.7,414.2l-0.8,1.3h1.6L266.7,414.2z M287.6,403.6l3.2-5.3l-4-6.6h-6.5l-5.1,8.5l2,3.4H287.6z M308.8,344.6
	l-7,11.6h14L308.8,344.6z M273.3,427.3h1.4l-0.7-1.1L273.3,427.3z M267.5,415.5h-1.6l-7.2,11.9h14.5l0.7-1.1L267.5,415.5z
	 M284.3,415.5h-3.9l-6.5,10.7l0.7,1.1h13.1l1.8-3L284.3,415.5z M301.9,379.9l5.7-9.4l-1.5-2.5h-11.5l-2.6,4.4l4.5,7.5H301.9z
	 M309.1,368l6.9-11.5l-0.2-0.4h-14l-1.4,2.3l5.7,9.6H309.1z M292,372.4l-4.5,7.5h9L292,372.4z M283.6,386.3l-3.3,5.4h6.5
	L283.6,386.3z M294.8,391.8l4.4-7.3l-2.7-4.5h-9l-3.9,6.4l3.3,5.4H294.8z M424.3,369.3l0.7-1.2h-1.5L424.3,369.3z M438.8,393.3
	l0.9-1.6h-1.9L438.8,393.3z M425.2,391.8l-2.1,3.5l5.1,8.4h4.4l6.2-10.3l-0.9-1.6H425.2z M430.4,407.2l5,8.2h4.6l6.1-10.1l-1-1.7
	h-12.4L430.4,407.2z M430.7,379.9h1.7l7.2-11.9h-14.5l-0.7,1.2L430.7,379.9z M431.6,381.3l0.8-1.4h-1.7L431.6,381.3z M437.9,391.8
	h1.9l7.2-11.9h-14.5l-0.8,1.4L437.9,391.8z M445,403.6l-6.2-10.3l-6.2,10.3H445z M396.4,415.5h5.4l-2.7-4.5L396.4,415.5z
	 M411.4,403.6h-7.8l-4.5,7.4l2.7,4.5h9.1l3.8-6.3L411.4,403.6z M394.6,403.6h-5.6l-5.6,9.3l1.5,2.6h11.4l2.7-4.5L394.6,403.6z
	 M410.9,415.5h7.7l-3.8-6.3L410.9,415.5z M365.3,299l5.8,9.7h2.8l7-11.6l-0.1-0.2h-14.2L365.3,299z M428.2,403.6h-10.1l-3.3,5.5
	l3.8,6.3h6.8l5-8.2L428.2,403.6z M425.4,415.5h9.9l-5-8.2L425.4,415.5z M395.1,320.6h0.7l7.2-11.9h-14.5l-0.2,0.4L395.1,320.6z
	 M402.2,332.4h0.9l7.2-11.9h-14.5l-0.3,0.6L402.2,332.4z M388.2,309.1l0.2-0.4h-0.5L388.2,309.1z M395.4,321.2l0.3-0.6h-0.7
	L395.4,321.2z M381.1,296.9h-0.3l0.1,0.2L381.1,296.9z M387.9,308.7h0.5l7.2-11.9h-14.5l-0.1,0.2L387.9,308.7z M426.1,344.3l-0.6-1
	l-0.6,1H426.1z M381.9,415.5h3.1l-1.5-2.6L381.9,415.5z M417.7,356.2h14.5l0.5-0.8l-6.6-11h-1.2L417.7,356.2z M417.1,357.2l6.5,10.8
	h1.5l7.2-11.9h-14.5L417.1,357.2z M402.6,333.2l0.4-0.7h-0.9L402.6,333.2z M424.9,344.3l0.6-1l-6.5-10.9h-1.4l-7.2,11.9H424.9z
	 M409.3,344.3h1.1l7.2-11.9h-14.5l-0.4,0.7L409.3,344.3z M230.7,521.8l6.9-11.4h-13.7L230.7,521.8z M355.8,506.6l4.9-8.1H351
	L355.8,506.6z M371.5,504.7l3.7-6.2h-7.4L371.5,504.7z M314.9,522.3l-6-10l-6,10H314.9z M340.2,508.5l6-10h-12L340.2,508.5z
	 M324.6,510.4L324.6,510.4L324.6,510.4L324.6,510.4z M402.8,500.9l1.4-2.4h-2.9L402.8,500.9z M387.1,502.8l2.6-4.3h-5.2L387.1,502.8
	z M418.1,498.5l-6.9-11.5l-7,11.5H418.1z M161.8,462.9l1.5,2.5l1.5-2.5H161.8z M465.3,493.3l4-6.7h-8L465.3,493.3z M481,491.4
	l2.9-4.8h-5.7L481,491.4z M434.1,497.1l6.3-10.5h-12.6L434.1,497.1z M449.7,495.2l5.2-8.6h-10.3L449.7,495.2z M247.5,493.9l4.4-7.3
	h-8.7L247.5,493.9z M193.4,487.6l0.6-0.9h-1.1L193.4,487.6z M231.9,495.8l5.5-9.2h-11L231.9,495.8z M177.7,489.5l1.7-2.8H176
	L177.7,489.5z M216.2,497.7l6.7-11h-13.3L216.2,497.7z M164.9,486.7H176l-5.5-9.2L164.9,486.7z M157.6,474.8h11.3l-5.6-9.4
	L157.6,474.8z M293.3,514.2l2.3-3.8H291L293.3,514.2z M512.3,487.6l0.6-1h-1.2L512.3,487.6z M308.9,512.3l1.1-1.9h-2.3L308.9,512.3z
	 M281.1,510.4h9.9l-5-8.2L281.1,510.4z M259.2,498.5h7.8l-3.9-6.5L259.2,498.5z M270.4,504.1l3.3-5.5h-6.7L270.4,504.1z
	 M496.6,489.5l1.7-2.9h-3.5L496.6,489.5z M299.9,190.1l0.4,0.7l0.4-0.7H299.9z M287.7,225.7l3,4.9l3-4.9H287.7z M286.3,213.8
	c3.8,0,6.9,0,11,0l-5.5-9.1L286.3,213.8z M290.2,201.9l1.6,2.7l1.6-2.7H290.2z M319.2,166.4l5.2,8.6l5.2-8.6
	C325.2,166.4,323.2,166.4,319.2,166.4z M341.1,147.1l-4.5,7.4h8.9L341.1,147.1z M309.5,178.2l6.4,10.6l6.4-10.6
	C317,178.2,314.4,178.2,309.5,178.2z M256.2,285l0.8,1.3l0.8-1.3H256.2z M241.4,288.2l-5.2,8.6h10.4L241.4,288.2z M229.8,296.9
	l3.2,5.3l3.2-5.3H229.8z M268.4,249.4l5.4,9.1l5.5-9.1C275.5,249.4,271.9,249.4,268.4,249.4z M258.7,261.3l6.7,11.1l6.7-11.1H258.7z
	 M278,237.5l4.2,7l4.2-7H278z M371.2,169.2l-5.4,9c5.2,0,5.5,0,10.8,0L371.2,169.2z M547.8,462.9l-3-5l-3,5H547.8z M548.9,451.1
	h-8.2l4.1,6.8L548.9,451.1z M543.1,427.3l-4.5-7.4l-4.5,7.4H543.1z M541.5,439.2h-8l4,6.7L541.5,439.2z M351.1,154.5h-5.6l2.8,4.6
	L351.1,154.5z M549,474.8h-10.9l5.4,9L549,474.8z M538.1,474.8l-1.8-3l-1.8,3H538.1z M527.9,485.7l6.6-10.9h-13.2L527.9,485.7z
	 M358.5,166.4c-2.7,0-3.1,0-5.8,0l2.9,4.8L358.5,166.4z M401.3,191.4l-6.4,10.5h12.7L401.3,191.4z M387.6,190.1h-3.9l1.9,3.2
	L387.6,190.1z M380.3,178.2c-1.8,0-1.9,0-3.7,0l1.8,3L380.3,178.2z M294.8,237.5l3.1,5.1l3.1-5.1H294.8z M526.9,415.5h-7.6l3.8,6.3
	L526.9,415.5z M519.5,403.6h-7.4l3.7,6.2L519.5,403.6z M526.4,427.3l-3.3-5.5l-3.3,5.5H526.4z M362.8,183.2l-4.2,6.9h8.3
	L362.8,183.2z M527,439.2h-10.3l5.1,8.6L527,439.2z M534.4,451.1h-10.5l5.2,8.7L534.4,451.1z M531,462.9l-1.9-3.1l-1.9,3.1H531z
	 M423,227.5l-6.1,10.1h12.1L423,227.5z M392.9,205.3l-5.1,8.5c5.1,0,5.1,0,10.2,0L392.9,205.3z M373.1,190.1H367l3.1,5.1
	L373.1,190.1z M380.5,201.9h-6.4l3.2,5.3L380.5,201.9z M409.6,225.7h-4.5l2.2,3.7L409.6,225.7z M402.3,213.8c-2.1,0-2.1,0-4.3,0
	l2.1,3.5L402.3,213.8z M521.8,391.8l-4.8-7.9l-4.8,7.9H521.8z M395.5,488.9l1.3-2.2h-2.7L395.5,488.9z M520.7,473.7l6.5-10.8h-13
	L520.7,473.7z M426.8,485.1l6.2-10.3h-12.4L426.8,485.1z M171.4,451.1l0.3,0.4l0.3-0.4H171.4z M348.6,494.6l4.8-7.9h-9.5
	L348.6,494.6z M364.3,492.7l3.6-6h-7.2L364.3,492.7z M411,486.7l-7-11.7l-7.1,11.7H411z M489.4,477.5l1.6-2.7h-3.3L489.4,477.5z
	 M442.5,483.2l5.1-8.4h-10.1L442.5,483.2z M505,475.6l0.5-0.8h-1L505,475.6z M458.1,481.3l3.9-6.5h-7.8L458.1,481.3z M473.8,479.4
	l2.8-4.6H471L473.8,479.4z M379.9,490.8l2.5-4.1h-5L379.9,490.8z M234.4,332.4l4.6,7.7l4.6-7.7H234.4z M212.6,379.9l1.2,2l1.2-2
	H212.6z M215.1,356.2l7.1,11.8l7.1-11.8H215.1z M351.3,178.2c-3.8,0-4.5,0-8.2,0l4.1,6.8L351.3,178.2z M236.9,308.7l3.3,5.4l3.3-5.4
	H236.9z M236.3,320.6h7.7l-3.9-6.4L236.3,320.6z M224.7,344.3l5.8,9.7l5.9-9.7H224.7z M200.5,379.9h12.1l-6-10L200.5,379.9z
	 M183.6,415.5l4.9,8.2l4.9-8.2H183.6z M333,496.5l5.9-9.8h-11.8L333,496.5z M193.3,403.6l3.7,6.1l3.7-6.1H193.3z M202.9,391.8l2.4,4
	l2.4-4H202.9z M248.6,300.2l-5.1,8.5h10.2L248.6,300.2z M316.6,190.1l6.5,10.8l6.5-10.8H316.6z M326.3,178.2l5.2,8.7l5.3-8.7
	C332.2,178.2,330.7,178.2,326.3,178.2z M307,201.9l0.5,0.8l0.5-0.8H307z M300.8,213.8c5.1,0,7.8,0,13.3,0l-6.6-11L300.8,213.8z
	 M335.9,166.4l4,6.7l4-6.7C340.4,166.4,339.4,166.4,335.9,166.4z M339.9,173l-3.1,5.2c2.8,0,3.4,0,6.3,0L339.9,173z M275.5,261.3
	l5.5,9.2l5.6-9.2H275.5z M263.3,296.9l0.9,1.5l0.9-1.5H263.3z M265.9,273.1l6.8,11.3l6.8-11.3H265.9z M304.5,225.7l1.8,3.1l1.8-3.1
	H304.5z M220.1,308.7l4.4,7.3l4.4-7.3H220.1z M285.2,249.4l4.3,7.2l4.3-7.2C290.5,249.4,288.3,249.4,285.2,249.4z M174,427.3
	l6.1,10.2l6.2-10.2H174z M128.8,498.5h4.1l-2-3.4L128.8,498.5z M125.7,486.7l5.1,8.5l5.1-8.5H125.7z M138,507.2l5.2-8.7h-10.4
	L138,507.2z M122.4,509.1l6.4-10.6H116L122.4,509.1z M128.6,474.8h6.7l-3.4-5.6L128.6,474.8z M128.2,462.9l3.8,6.3l3.8-6.3H128.2z
	 M160.9,517.3l4.2-6.9h-8.4L160.9,517.3z M207.8,511.6l0.8-1.2h-1.5L207.8,511.6z M461.7,427.3H476l-7.1-11.9h0L461.7,427.3z
	 M150.6,510.4h6.1l-3.1-5.1L150.6,510.4z M244.9,522.3h2.9l-1.4-2.4L244.9,522.3z M128.5,451.1h9.4l-4.7-7.8L128.5,451.1z
	 M172.4,522.3h8.2l-4.1-6.8L172.4,522.3z M197.4,522.3l-5.2-8.7l-5.3,8.7H197.4z M249.1,273.1l0.7,1.2l0.7-1.2H249.1z M234.1,276.2
	l-5.3,8.8h10.6L234.1,276.2z M251.6,249.4l6.6,11l6.6-11C260.7,249.4,255.2,249.4,251.6,249.4z M207.3,320.6h3.2l-1.6-2.6
	L207.3,320.6z M261.2,237.5l5.4,8.9l5.4-8.9H261.2z M270.9,225.7l4.1,6.8l4.1-6.8H270.9z M171.5,379.9h7.5l-3.8-6.3L171.5,379.9z
	 M169.3,391.8l4.7,7.8l4.7-7.8H169.3z M159.7,403.6l5.9,9.9l6-9.9H159.7z M200.8,332.4l6.9,11.5l6.9-11.5H200.8z M192.1,345.8
	l-6.3,10.4h12.5L192.1,345.8z M141.6,429.3l-6,9.9h11.9L141.6,429.3z M526.7,511.7l0.8-1.3h-1.6L526.7,511.7z M106.8,511l0.4-0.6
	h-0.7L106.8,511z M129.6,521.1l6.5-10.7h-12.9L129.6,521.1z M143.4,522.3h3.7l-1.8-3L143.4,522.3z M108.9,486.7l6.2,10.4l6.3-10.4
	H108.9z M114.1,474.8h4.5l-2.2-3.7L114.1,474.8z M549.6,521.8l6.9-11.4h-13.8L549.6,521.8z M593.1,510.4l-3.8-6.3l-3.8,6.3H593.1z
	 M343.5,95.2l-7.2,11.9h14.3L343.5,95.2z M600.2,522.3l-3.7-6.1l-3.7,6.1H600.2z M85.4,522.3h11.3l-5.6-9.4L85.4,522.3z
	 M335.1,109.1l-5.9,9.8H341L335.1,109.1z M565.2,519.9l5.8-9.5h-11.5L565.2,519.9z M580.9,518l4.6-7.6h-9.2L580.9,518z M495.4,515.5
	l3.1-5.1h-6.1L495.4,515.5z M479.8,517.4l4.2-7h-8.4L479.8,517.4z M271.8,213.8c2.6,0,5.9,0,8.7,0l-4.4-7.2L271.8,213.8z
	 M511.1,513.6l1.9-3.2h-3.9L511.1,513.6z M432.4,522.3l-6.7-11.2l-6.8,11.2H432.4z M464.2,519.3l5.4-8.9h-10.7L464.2,519.3z
	 M448.5,521.2l6.5-10.8h-13L448.5,521.2z M585.9,498.5l-3.9-6.4l-3.9,6.4H585.9z M358,119.2l-7,11.5h13.9L358,119.2z M542.4,509.8
	l6.8-11.3h-13.6L542.4,509.8z M343.7,118.9H341l1.3,2.2L343.7,118.9z M573.6,506l4.5-7.5h-9L573.6,506z M558,507.9l5.7-9.4h-11.3
	L558,507.9z M363.1,518.6l5-8.2h-9.9L363.1,518.6z M157.8,498.5h8.6l-4.3-7.2L157.8,498.5z M190.3,510.4l-5.3-8.9l-5.4,8.9H190.3z
	 M185,501.5l1.8-3h-3.6L185,501.5z M169.3,503.4l2.9-4.9h-5.9L169.3,503.4z M347.4,520.5l6.1-10.1h-12.2L347.4,520.5z M150.4,486.7
	h8.8l-4.4-7.3L150.4,486.7z M143.1,474.8h9l-4.5-7.5L143.1,474.8z M262,518l4.6-7.6h-9.1L262,518z M273.9,522.3h7.4l-3.7-6.2
	L273.9,522.3z M252.1,510.4h5.4l-2.7-4.4L252.1,510.4z M200.6,499.6l0.7-1.1H200L200.6,499.6z M239.1,507.8l5.6-9.3h-11.2
	L239.1,507.8z M223.5,509.7l6.8-11.2h-13.5L223.5,509.7z M146.5,493.3l4-6.6h-8L146.5,493.3z M188.6,368l2.2,3.7l2.2-3.7H188.6z
	 M199.3,357.8l-6.2,10.2h12.3L199.3,357.8z M186,379.9h9.8l-4.9-8.1L186,379.9z M145,462.9l2.6,4.4l2.6-4.4H145z M217.6,332.4
	l5.7,9.6l5.8-9.6H217.6z M208,344.3l7,11.6l7-11.6H208z M186.1,391.8l3.6,5.9l3.6-5.9H186.1z M176.5,403.6l4.8,8l4.8-8H176.5z
	 M154.7,451.1l1.4,2.3l1.4-2.3H154.7z M142.9,451.1h11.7l-5.8-9.7L142.9,451.1z M166.8,415.5l6,10.1l6.1-10.1H166.8z M164.3,439.2
	l0.2,0.3l0.2-0.3H164.3z M378.7,516.7l3.8-6.3h-7.6L378.7,516.7z M358.3,142.6c-1.3,0-1.8,0-3.1,0l1.5,2.6L358.3,142.6z
	 M379.6,155.3l-6.7,11c6.4,0,6.8,0,13.3,0L379.6,155.3z M365.6,154.5h-3.3l1.6,2.7L365.6,154.5z M564.5,462.9l-4.2-6.9l-4.2,6.9
	H564.5z M563.5,474.8h-8.6l4.3,7.2L563.5,474.8z M570.8,486.7H562l4.4,7.3L570.8,486.7z M312,154.5l5.1,8.4l5.1-8.4H312z
	 M321.7,142.6l3.8,6.3l3.8-6.3C326.7,142.6,324.1,142.6,321.7,142.6z M562,486.7l-2.8-4.7l-2.8,4.7H562z M331.3,130.8l2.6,4.3
	l2.6-4.3H331.3z M349.5,133.2l-5.7,9.5c4.4,0,6.7,0,11.4,0L349.5,133.2z M333.9,135.1l-4.6,7.6c3.1,0,5.8,0,9.1,0L333.9,135.1z
	 M503.9,501.6l1.8-3H502L503.9,501.6z M425.2,510.4l-6.8-11.4l-6.9,11.4H425.2z M410,512.9l1.5-2.5h-3.1L410,512.9z M429.2,433.2
	l3.5-5.8h-7L429.2,433.2z M441.3,509.1l6.4-10.6h-12.8L441.3,509.1z M394.4,514.8l2.7-4.4h-5.4L394.4,514.8z M302.4,166.4l6.3,10.5
	l6.3-10.5C310.2,166.4,306.7,166.4,302.4,166.4z M535.1,497.8l6.7-11.1h-13.4L535.1,497.8z M550.8,495.9l5.6-9.2h-11.1L550.8,495.9z
	 M472.6,505.4l4.1-6.8h-8.2L472.6,505.4z M519.5,499.7l0.7-1.1h-1.4L519.5,499.7z M221.8,320.6h5.5l-2.7-4.5L221.8,320.6z
	 M488.2,503.5l3-4.9h-5.9L488.2,503.5z M456.9,507.3l5.3-8.7h-10.5L456.9,507.3z M296.9,296.9l5.8,9.7l5.9-9.7H296.9z M306.6,285
	l4.6,7.7l4.6-7.7H306.6z M287.2,308.7l7.1,11.8l7.1-11.8H287.2z M316.2,273.1l3.4,5.6l3.4-5.6H316.2z M284.7,332.4l1.2,2l1.2-2
	H284.7z M325.9,261.3l2.1,3.5l2.1-3.5H325.9z M265.4,356.2l3.7,6.1l3.7-6.1H265.4z M243.6,403.6l0.3,0.4l0.3-0.4H243.6z M234,415.5
	l1.5,2.5l1.5-2.5H234z M246.1,379.9l6.1,10.2l6.2-10.2H246.1z M335.5,249.4l0.9,1.5l0.9-1.5C336.5,249.4,336.3,249.4,335.5,249.4z
	 M275.1,344.3l2.4,4l2.4-4H275.1z M255.8,368l4.9,8.2l4.9-8.2H255.8z M417.3,285h-10l5,8.3L417.3,285z M224.3,427.3l2.7,4.5l2.7-4.5
	H224.3z M338,225.7l6.8,11.3l6.8-11.3H338z M424.6,296.9h-10.2l5.1,8.5L424.6,296.9z M409.9,273.1h-9.8l4.9,8.2L409.9,273.1z
	 M446.4,308.7h-8.1l4.1,6.7L446.4,308.7z M435.1,303.4l-3.2,5.3h6.4L435.1,303.4z M397.8,269.3l-2.3,3.9h4.7L397.8,269.3z
	 M359,237.5h-13.8L352,249L359,237.5z M388.1,261.3h-11.9l5.9,9.9L388.1,261.3z M453.7,320.6h-8.3l4.2,6.9L453.7,320.6z
	 M380.8,249.4c-5.8,0-5.9,0-11.7,0l5.8,9.7L380.8,249.4z M367.7,247.1l-1.4,2.3c1.4,0,1.4,0,2.8,0L367.7,247.1z M344.8,237l-0.3,0.6
	h0.7L344.8,237z M474.9,453.5l1.4-2.4h-2.9L474.9,453.5z M490.6,451.6l0.3-0.5h-0.6L490.6,451.6z M492.8,427.3l-1-1.7l-1.1,1.7
	H492.8z M214.6,439.2l4,6.6l4-6.6H214.6z M428,459.1l4.9-8.1h-9.7L428,459.1z M443.6,457.2l3.7-6.2h-7.4L443.6,457.2z M483.6,356.2
	l-3.9-6.5l-3.9,6.5H483.6z M490.4,379.9h-9.3l4.6,7.7L490.4,379.9z M483.1,368h-9.1l4.6,7.6L483.1,368z M412.4,461l6-10h-12
	L412.4,461z M488.2,391.8l-2.5-4.1l-2.5,4.1H488.2z M497.9,415.5h-12.2l6.1,10.1L497.9,415.5z M490.5,403.6h-12l6,10L490.5,403.6z
	 M459.3,455.4l2.6-4.3h-5.2L459.3,455.4z M225.8,457.8l4.1-6.8h-8.1L225.8,457.8z M241.5,455.9l2.9-4.9h-5.9L241.5,455.9z
	 M257.1,454l1.8-3h-3.6L257.1,454z M210.2,459.7l5.2-8.7H205L210.2,459.7z M272.8,452.1l0.6-1.1h-1.3L272.8,452.1z M215.4,451.1h6.3
	l-3.2-5.3L215.4,451.1z M318.5,472.4l5.7-9.5h-11.4L318.5,472.4z M349.8,468.6l3.4-5.7h-6.9L349.8,468.6z M365.4,466.7l2.3-3.8h-4.6
	L365.4,466.7z M302.9,474.3l6.9-11.4H296L302.9,474.3z M334.2,470.5l4.6-7.6h-9.1L334.2,470.5z M381.1,464.8l1.1-1.9h-2.3
	L381.1,464.8z M467.7,441.4l1.3-2.2h-2.7L467.7,441.4z M323.3,285l3.5,5.8l3.5-5.8H323.3z M402.8,285h-12.3l6.1,10.2L402.8,285z
	 M333,273.1l2.2,3.7l2.2-3.7H333z M253.3,391.8l6.2,10.4l6.3-10.4H253.3z M389.4,283.2l-1.1,1.8h2.2L389.4,283.2z M373.6,261.3
	h-14.2l7.1,11.8L373.6,261.3z M359.3,261l-0.1,0.2h0.3L359.3,261z M282.2,356.2l2.5,4.2l2.5-4.2H282.2z M272.6,368l3.8,6.3l3.8-6.3
	H272.6z M262.9,379.9l5,8.3l5-8.3H262.9z M304,308.7l5.9,9.9l6-9.9H304z M313.7,296.9l4.7,7.8l4.7-7.8H313.7z M291.9,344.3l1.3,2.1
	l1.3-2.1H291.9z M342.6,261.3l1,1.6l1-1.6H342.6z M454.6,391.8l-0.2-0.3l-0.2,0.3H454.6z M461.4,379.9h-13.9l6.9,11.5L461.4,379.9z
	 M454.1,368h-13.7l6.8,11.4L454.1,368z M450,356.2l-1.6-2.7l-1.6,2.7H450z M460.5,429.4l1.2-2.1h-2.5L460.5,429.4z M444.8,431.3
	l2.4-3.9h-4.8L444.8,431.3z M410.1,296.9h-12.5l6.2,10.4L410.1,296.9z M426.7,317.4l-1.9,3.2h3.9L426.7,317.4z M417.4,308.7h-12.7
	l6.3,10.5L417.4,308.7z M446.6,332.4h-10.8l5.4,9L446.6,332.4z M453.9,344.3h-11l5.5,9.1L453.9,344.3z M439.2,320.6h-10.6l5.3,8.8
	L439.2,320.6z M373.9,452.8l1-1.7h-2.1L373.9,452.8z M482.9,344.3h-6.4l3.2,5.3L482.9,344.3z M483.2,439.2l-7-11.7l-7.1,11.7H483.2z
	 M476.1,403.6h-14.3l7.1,11.9L476.1,403.6z M250.7,415.5l0.3,0.6l0.4-0.6H250.7z M420.8,447.1l4.8-7.9H416L420.8,447.1z
	 M436.4,445.2l3.6-6h-7.2L436.4,445.2z M468.4,344.3h-8.7l4.4,7.2L468.4,344.3z M466.8,356.2l-2.8-4.6l-2.8,4.6H466.8z M405.1,449
	l5.9-9.8h-11.8L405.1,449z M468.6,368h-11.4l5.7,9.5L468.6,368z M471.4,391.8l-1.3-2.2l-1.3,2.2H471.4z M475.9,379.9h-11.6l5.8,9.6
	L475.9,379.9z M452.1,443.3l2.5-4.1h-5L452.1,443.3z M249.9,442l1.7-2.8h-3.4L249.9,442z M265.5,440.1l0.5-0.9H265L265.5,440.1z
	 M389.6,451.1l-0.1-0.2l-0.1,0.2H389.6z M237.1,439.2h11.1l-5.5-9.2L237.1,439.2z M241.1,427.3l1.6,2.6l1.6-2.6H241.1z M295.6,462.3
	l6.8-11.2h-13.5L295.6,462.3z M234.3,443.9l2.8-4.7h-5.7L234.3,443.9z M461.1,332.4h-8.5l4.3,7.1L461.1,332.4z M358.2,454.7l2.2-3.6
	H356L358.2,454.7z M342.6,456.6l3.3-5.5h-6.7L342.6,456.6z M311.3,460.4l5.6-9.3h-11.2L311.3,460.4z M326.9,458.5l4.5-7.4h-8.9
	L326.9,458.5z M280.1,296.9l7,11.6l7-11.6H280.1z M395.1,225.7h-6.7l3.4,5.6L395.1,225.7z M431.6,261.3h-5.1l2.5,4.2L431.6,261.3z
	 M311.6,237.5l1.9,3.2l1.9-3.2H311.6z M384.5,219.2l-3.9,6.4h7.7L384.5,219.2z M414.6,241.4l-4.8,8c4.8,0,4.9,0,9.6,0L414.6,241.4z
	 M424.3,249.4c-2.4,0-2.5,0-4.9,0l2.4,4L424.3,249.4z M402.4,237.5h-6.9l3.5,5.8L402.4,237.5z M333.4,190.1l5.3,8.9l5.4-8.9H333.4z
	 M323.8,201.9l6.6,11l6.6-11H323.8z M321.2,225.7l0.7,1.2l0.7-1.2H321.2z M338.8,199l-1.8,3h3.6L338.8,199z M354.4,197.1l-2.9,4.9
	h5.9L354.4,197.1z M366,201.9h-8.6l4.3,7.2L366,201.9z M373.3,213.8c-4.3,0-4.5,0-8.8,0l4.4,7.3L373.3,213.8z M512.5,439.2h-12.6
	l6.3,10.5L512.5,439.2z M438.9,273.1h-5.3l2.6,4.4L438.9,273.1z M505,403.6h-9.7l4.8,8.1L505,403.6z M512.4,415.5h-9.9l4.9,8.2
	L512.4,415.5z M519.9,451.1h-12.8l6.4,10.6L519.9,451.1z M507.1,451.1l-0.8-1.4l-0.9,1.4H507.1z M509.6,427.3l-2.2-3.6l-2.2,3.6
	H509.6z M500.4,356.2l-5.1-8.4l-5.1,8.4H500.4z M505,391.8l-3.6-6l-3.6,6H505z M475.6,332.4h-6.2l3.1,5.2L475.6,332.4z M497.6,368
	h-6.8l3.4,5.7L497.6,368z M504.9,379.9h-7l3.5,5.8L504.9,379.9z M255.9,480l3.1-5.2h-6.3L255.9,480z M172.1,474.8h13.6l-6.8-11.3
	L172.1,474.8z M224.7,483.8l5.4-9h-10.8L224.7,483.8z M209,485.7l6.6-10.9h-13.1L209,485.7z M186.1,475.6l0.5-0.8h-0.9L186.1,475.6z
	 M181.1,439.2l6.2,10.4l6.3-10.4H181.1z M190.7,427.3l5,8.3l5-8.3H190.7z M178.6,462.9l0.4,0.6l0.4-0.6H178.6z M301.9,249.4l3.2,5.3
	l3.2-5.3C305.6,249.4,304.5,249.4,301.9,249.4z M288.2,498.5h12.4l-6.2-10.3L288.2,498.5z M301.7,500.3l1-1.7h-2.1L301.7,500.3z
	 M278.8,490.1l2.1-3.5h-4.2L278.8,490.1z M497.8,463.6l0.4-0.6h-0.8L497.8,463.6z M266.4,486.7h10.3l-5.1-8.6L266.4,486.7z
	 M240.3,481.9l4.3-7.1H236L240.3,481.9z M273,285l6.9,11.5l6.9-11.5H273z M250.8,320.6h10l-5-8.3L250.8,320.6z M260.8,320.6l2.2,3.7
	l2.2-3.7H260.8z M270.5,308.7l1,1.7l1-1.7H270.5z M282.6,273.1l5.6,9.4l5.7-9.4H282.6z M292.3,261.3l4.4,7.3l4.4-7.3H292.3z
	 M210,403.6l2.5,4.2l2.5-4.2H210z M200.4,415.5l3.8,6.3l3.8-6.3H200.4z M219.7,391.8l1.3,2.1l1.3-2.1H219.7z M251.2,332.4l3.5,5.8
	l3.5-5.8H251.2z M231.9,356.2l5.9,9.9l6-9.9H231.9z M241.5,344.3l4.7,7.8l4.7-7.8H241.5z M451.9,275.6l-5.7,9.4h11.3L451.9,275.6z
	 M328.4,237.5l0.8,1.3l0.8-1.3H328.4z M366.1,225.7h-11.3l5.6,9.4L366.1,225.7z M330.9,213.8l6.7,11.1l6.7-11.1
	C338.1,213.8,336.8,213.8,330.9,213.8z M309.1,261.3l3.3,5.4l3.3-5.4H309.1z M346,211l-1.7,2.8c1.6,0,1.8,0,3.4,0L346,211z
	 M358.8,213.8c-5.3,0-5.9,0-11.1,0l5.5,9.2L358.8,213.8z M318.7,249.4l2,3.4l2-3.4C321,249.4,320.5,249.4,318.7,249.4z M277.6,320.6
	l1.1,1.8l1.1-1.8H277.6z M267.9,332.4l2.3,3.9l2.3-3.9H267.9z M299.4,273.1l4.5,7.5l4.5-7.5H299.4z M258.3,344.3l3.6,5.9l3.6-5.9
	H258.3z M289.8,285l5.7,9.6l5.8-9.6H289.8z M317.4,498.5l-0.1-0.2l-0.1,0.2H317.4z M443.5,289.5l-4.4,7.3h8.8L443.5,289.5z
	 M453.6,296.9h-5.7l2.8,4.7L453.6,296.9z M248.6,356.2l4.8,8l4.8-8H248.6z M460.9,308.7h-5.9l2.9,4.9L460.9,308.7z M431.8,285H424
	l3.9,6.4L431.8,285z M473.6,311.7l-5.4,8.9H479L473.6,311.7z M376.1,233.2l-2.6,4.4h5.3L376.1,233.2z M468.2,320.6h-6l3,5
	L468.2,320.6z M387.9,237.5h-9.2l4.6,7.7L387.9,237.5z M395.3,249.4c-4.7,0-4.7,0-9.4,0l4.7,7.8L395.3,249.4z M424.4,273.1h-7.5
	l3.8,6.3L424.4,273.1z M406.2,255.3l-3.6,5.9h7.2L406.2,255.3z M417.1,261.3h-7.3l3.7,6.1L417.1,261.3z M310.3,486.7l-0.2-0.3
	l-0.2,0.3H310.3z M341.4,482.5l4.7-7.7h-9.3L341.4,482.5z M273.6,474.8h12.8l-6.4-10.6L273.6,474.8z M325.7,484.4l5.8-9.6h-11.6
	L325.7,484.4z M287.2,476.2l0.8-1.4h-1.7L287.2,476.2z M482.2,465.5l1.5-2.5h-3.1L482.2,465.5z M372.7,478.8l2.4-4h-4.8L372.7,478.8
	z M357,480.6l3.5-5.8h-7L357,480.6z M466.5,467.4l2.7-4.4h-5.4L466.5,467.4z M450.9,469.3l3.8-6.3h-7.6L450.9,469.3z M419.6,473.1
	l6.1-10.1h-12.2L419.6,473.1z M388.3,476.9l1.2-2.1h-2.5L388.3,476.9z M435.2,471.2l5-8.2h-9.9L435.2,471.2z M188.2,451.1l6.3,10.6
	l6.4-10.6H188.2z M239,368l6,10.1l6.1-10.1H239z M207.5,427.3l3.9,6.4l3.9-6.4H207.5z M197.9,439.2l5.1,8.5l5.1-8.5H197.9z
	 M217.2,415.5l2.6,4.4l2.6-4.4H217.2z M226.8,403.6l1.4,2.3l1.4-2.3H226.8z M236.5,391.8l0.2,0.3l0.2-0.3H236.5z M193.8,462.9h1.6
	l-0.8-1.3L193.8,462.9z M248.7,468l3-5h-6.1L248.7,468z M264.4,466.1l1.9-3.1h-3.8L264.4,466.1z M233.1,469.9l4.2-6.9h-8.3
	L233.1,469.9z M201.8,473.7l6.5-10.7h-12.9L201.8,473.7z M217.4,471.8l5.3-8.8h-10.6L217.4,471.8z M328.8,154.5l3.9,6.5l3.9-6.5
	H328.8z M193.9,486.7l-0.6,0.9l6.6,10.9h1.3l7.2-11.9H193.9z M186.8,498.5H200l-6.6-10.9L186.8,498.5z M209.6,486.7h-1.2l-7.2,11.9
	h14.5l0.5-0.8L209.6,486.7z M226.4,486.7h-3.5l-6.7,11l0.5,0.8h13.5l1.6-2.7L226.4,486.7z M468.9,415.5L468.9,415.5L468.9,415.5
	L468.9,415.5z M192.8,486.7h-13.4l-1.7,2.8l5.4,9.1h3.6l6.6-10.9L192.8,486.7z M159.3,486.7l2.8,4.7l2.8-4.7H159.3z M152.1,474.8
	l2.7,4.5l2.7-4.5H152.1z M172.3,498.5h10.9l-5.4-9.1L172.3,498.5z M163.3,465.4l-1.5-2.5h-11.5l-2.6,4.4l4.5,7.5h5.5L163.3,465.4z
	 M170.5,477.4l-1.6-2.6h-11.3l-2.7,4.5l4.4,7.3h5.7L170.5,477.4z M230.3,498.5h3.3l-1.6-2.7L230.3,498.5z M156,453.4l-5.8,9.5h11.5
	L156,453.4z M176,486.7h-11.1l-2.8,4.7l4.3,7.2h5.9l5.5-9.1L176,486.7z M308.9,512.3l-1.1-1.9h-12.2l-2.3,3.8l4.9,8.1h4.8
	L308.9,512.3z M288.4,522.3h9.7l-4.9-8.1L288.4,522.3z M291,510.4h-9.9l-3.4,5.7l3.7,6.2h7.1l4.9-8.1L291,510.4z M274.2,510.4
	l3.4,5.7l3.4-5.7H274.2z M324.6,510.4h-14.5l-1.1,1.9l6,10h2.5L324.6,510.4L324.6,510.4z M243.2,486.7h-5.8l-5.5,9.2l1.6,2.7h11.2
	l2.8-4.6L243.2,486.7z M317.4,522.3h14.3l-7.1-11.9L317.4,522.3z M263.2,492l-3.2-5.4h-8l-4.4,7.3l2.8,4.6h8.9L263.2,492z
	 M250.3,498.5l4.5,7.4l4.5-7.4H250.3z M244.7,498.5h5.6l-2.8-4.6L244.7,498.5z M266.6,510.4h7.6l-3.8-6.3L266.6,510.4z M286,502.2
	l-2.2-3.6h-10.1l-3.3,5.5l3.8,6.3h6.9L286,502.2z M267.1,498.5h-7.8l-4.5,7.4l2.7,4.4h9.1l3.8-6.3L267.1,498.5z M231.8,328.1
	l-2.6,4.4h5.3L231.8,328.1z M229.3,356.2l1.3-2.1l-5.8-9.7H222l-7,11.6l0.1,0.2H229.3z M214.9,355.9l-0.1,0.2h0.3L214.9,355.9z
	 M223.3,342l-1.4,2.3h2.8L223.3,342z M236.5,344.3l2.5-4.2l-4.6-7.7h-5.3l-5.8,9.6l1.4,2.3H236.5z M212.6,379.9h2.4l7.2-11.9h-14.5
	l-1.1,1.8L212.6,379.9z M164.8,462.9l6.9-11.4l-0.3-0.4h-14l-1.4,2.3l5.7,9.5H164.8z M232.9,302.1l-4,6.6h7.9L232.9,302.1z
	 M324.6,510.4l7.1,11.9h0.2l7.2-11.9L324.6,510.4L324.6,510.4z M240.2,314.2l-3.3-5.4H229l-4.4,7.3l2.7,4.5h9L240.2,314.2z
	 M243.5,308.7l5.1-8.5l-2-3.4h-10.4l-3.2,5.3l4,6.6H243.5z M207.6,368h-2.2l1.1,1.8L207.6,368z M243.6,332.4l3.8-6.3l-3.4-5.6h-7.7
	l-4.5,7.5l2.6,4.4H243.6z M227.3,320.6l4.5,7.5l4.5-7.5H227.3z M222.2,368l-7.1-11.8h-0.3l-7.2,11.9L222.2,368L222.2,368z
	 M172.9,425.5l-1.1,1.8h2.2L172.9,425.5z M186.3,427.3l2.2-3.7l-4.9-8.2H179l-6.1,10.1l1.1,1.8H186.3z M322.3,178.2l2-3.3l-5.2-8.6
	c-1.6,0-2.6,0-4.2,0l-6.3,10.5l0.8,1.4C314.4,178.2,317,178.2,322.3,178.2z M181.3,411.6l-2.3,3.9h4.7L181.3,411.6z M171.9,451.1
	l7.2-11.9h-14.5l-0.2,0.3l7,11.6H171.9z M164.5,439.5l-7,11.6h14L164.5,439.5z M200.6,403.6l4.7-7.8l-2.4-4h-9.6l-3.6,5.9l3.6,5.9
	H200.6z M198.1,383.8l-4.8,8h9.6L198.1,383.8z M207.8,391.8l6-9.9l-1.2-2h-12.1l-2.3,3.9l4.8,8H207.8z M195.8,379.9l2.3,3.9l2.3-3.9
	H195.8z M193.4,415.5l3.5-5.8l-3.7-6.1h-7.1l-4.8,8l2.3,3.9H193.4z M189.7,397.7l-3.6,5.9h7.1L189.7,397.7z M206.5,369.9l-1.1-1.8
	h-12.3l-2.2,3.7l4.9,8.1h4.7L206.5,369.9z M444.5,486.7h-4.2l-6.3,10.5l0.8,1.4h12.8l2-3.3L444.5,486.7z M557.4,451.1l-4.3-7.1
	l-4.3,7.1H557.4z M537.5,445.9l3.1,5.2h8.2l4.3-7.1l-2.9-4.8h-8.8L537.5,445.9z M550.3,439.2l-4.4-7.3l-4.4,7.3H550.3z M385.7,193.3
	l5.2,8.7h4.1l6.4-10.5l-0.8-1.3h-12.9L385.7,193.3z M400.5,190.1l-6.4-10.7l-6.5,10.7H400.5z M543.5,483.9l1.7,2.8h11.1l2.8-4.7
	l-4.3-7.2H549L543.5,483.9z M378.5,181.3l5.3,8.8h3.9l6.5-10.7l-0.7-1.2c-6.5,0-6.7,0-13.1,0L378.5,181.3z M538.1,474.8h-3.6
	l-6.6,10.9l0.6,0.9h13.4l1.7-2.8L538.1,474.8z M554.9,474.8l-2.9-4.9l-2.9,4.9H554.9z M544.7,457.9l3,5h8.4l4.2-6.9l-3-4.9h-8.6
	L544.7,457.9z M541.7,462.9l-5.4,8.9l1.8,3H549l2.9-4.9l-4.2-7H541.7z M552,469.9l4.2-7h-8.4L552,469.9z M541.8,486.7h3.4l-1.7-2.8
	L541.8,486.7z M393.4,178.2l-6.5-10.9l-6.6,10.9C386.8,178.2,386.9,178.2,393.4,178.2z M343.8,142.6c-2.1,0-3.4,0-5.4,0l2.7,4.4
	L343.8,142.6z M325.5,149l-3.3,5.5h6.7L325.5,149z M317.1,162.9l-2.1,3.5c1.6,0,2.5,0,4.2,0L317.1,162.9z M345.6,154.5h5.6l5.6-9.3
	l-1.5-2.6c-4.7,0-7,0-11.4,0l-2.7,4.4L345.6,154.5z M329.5,166.4l3.2-5.4l-3.9-6.5h-6.7l-5.1,8.4l2.1,3.5
	C323.2,166.4,325.2,166.4,329.5,166.4z M336.6,154.5l4.5-7.4l-2.7-4.4c-3.4,0-6,0-9.1,0l-3.8,6.3l3.3,5.5H336.6z M373,166.4
	c-1.7,0-1.8,0-3.5,0l1.7,2.9L373,166.4z M355.6,171.1l4.3,7.1c2.8,0,3.1,0,6,0l5.4-9l-1.7-2.9c-5.3,0-5.9,0-11,0L355.6,171.1z
	 M362.4,154.5l-5.6-9.3l-5.6,9.3H362.4z M376.6,178.2c1.8,0,1.9,0,3.7,0l6.6-10.9l-0.6-1c-6.6,0-6.9,0-13.3,0l-1.7,2.9L376.6,178.2z
	 M348.4,159.1l4.4,7.3c2.6,0,3.1,0,5.8,0l5.5-9.1l-1.6-2.7h-11.2L348.4,159.1z M369.5,166.4l-5.5-9.1l-5.5,9.1
	C363.6,166.4,364.2,166.4,369.5,166.4z M476.7,498.5h8.5l-4.3-7.1L476.7,498.5z M404.2,498.5l-1.4,2.4l5.7,9.5h3.1l6.9-11.4
	l-0.3-0.5H404.2z M397,510.4h11.4l-5.7-9.5L397,510.4z M382.5,510.4h9.1l-4.6-7.6L382.5,510.4z M401.3,498.5h-11.6l-2.6,4.3l4.6,7.6
	h5.4l5.7-9.5L401.3,498.5z M418.4,499l0.3-0.5h-0.6L418.4,499z M411.4,486.7l-0.2,0.3l6.9,11.5h0.6l7.2-11.9H411.4z M339.1,510.4
	h2.3l-1.1-1.9L339.1,510.4z M351,498.5h-4.8l-6,10l1.1,1.9h12.2l2.3-3.8L351,498.5z M384.6,498.5h-9.3l-3.7,6.2l3.4,5.7h7.6l4.6-7.6
	L384.6,498.5z M353.6,510.4h4.6l-2.3-3.8L353.6,510.4z M427.8,486.7h-1.9l-7.2,11.9h14.5l0.9-1.4L427.8,486.7z M368,510.4h6.9
	l-3.4-5.7L368,510.4z M367.8,498.5h-7.1l-4.9,8.1l2.3,3.8h9.9l3.4-5.7L367.8,498.5z M250.6,296.9h-4.1l2,3.4L250.6,296.9z
	 M494.9,486.7h-11l-2.9,4.8l4.3,7.1h5.9l5.4-9L494.9,486.7z M511.7,486.7h-13.3l-1.7,2.9l5.4,9h3.7l6.6-10.9L511.7,486.7z
	 M491.2,498.5H502l-5.4-9L491.2,498.5z M505.7,498.5h13.1l-6.5-10.9L505.7,498.5z M521.3,474.8H520l-7.2,11.9h14.5l0.6-0.9
	L521.3,474.8z M512.3,487.6l6.5,10.9h1.4l7.2-11.9h-14.5L512.3,487.6z M447.7,498.5h4l-2-3.3L447.7,498.5z M433.2,498.5h1.7
	l-0.8-1.4L433.2,498.5z M527.4,486.7h1.1l-0.6-0.9L527.4,486.7z M461.3,486.7h-6.5l-5.2,8.6l2,3.3h10.5l3.1-5.2L461.3,486.7z
	 M478.1,486.7h-8.7l-4,6.7l3.1,5.2h8.2l4.3-7.1L478.1,486.7z M462.2,498.5h6.3l-3.1-5.2L462.2,498.5z M334.2,498.5h-2.5l-7.2,11.9
	h14.5l1.1-1.9L334.2,498.5z M180.1,437.6l-6.1-10.2h-2.2l-7.2,11.9h14.5L180.1,437.6z M394.2,486.7h-11.8l-2.5,4.1l4.7,7.7h5.2
	l5.8-9.6L394.2,486.7z M375.2,498.5h9.3l-4.7-7.7L375.2,498.5z M389.7,498.5h11.6l-5.8-9.6L389.7,498.5z M377.4,486.7h-9.5l-3.6,6
	l3.5,5.9h7.4l4.7-7.7L377.4,486.7z M411.2,487l0.2-0.3H411L411.2,487z M396.9,486.7l-1.3,2.2l5.8,9.6h2.9l7-11.5l-0.2-0.3H396.9z
	 M346.2,498.5h4.8l-2.4-4L346.2,498.5z M331.7,498.5h2.5l-1.2-2.1L331.7,498.5z M343.9,486.7h-5l-5.9,9.8l1.2,2.1h12l2.4-4
	L343.9,486.7z M324.6,510.4L324.6,510.4l7.2-11.9h-14.3L324.6,510.4z M327.1,486.7h-2.7l-7.1,11.7l0.1,0.2h14.3l1.2-2.1L327.1,486.7
	z M360.6,486.7h-7.2l-4.8,7.9l2.4,4h9.7l3.5-5.9L360.6,486.7z M404.1,474.8L404,475l7,11.7h0.4l7.2-11.9H404.1z M360.7,498.5h7.1
	l-3.5-5.9L360.7,498.5z M420.6,474.8h-2.1l-7.2,11.9h14.5l0.9-1.6L420.6,474.8z M504.5,474.8H491l-1.6,2.7l5.5,9.2h3.5l6.7-11
	L504.5,474.8z M487.8,474.8h-11.2l-2.8,4.6l4.4,7.3h5.7l5.5-9.2L487.8,474.8z M469.4,486.7h8.7l-4.4-7.3L469.4,486.7z M505,475.6
	l6.6,11h1.2l7.2-11.9h-14.5L505,475.6z M498.4,486.7h13.3l-6.6-11L498.4,486.7z M483.9,486.7h11l-5.5-9.2L483.9,486.7z M437.4,474.8
	H433l-6.2,10.3l0.9,1.6h12.6l2.1-3.5L437.4,474.8z M514.2,462.9h-1.5l-7.2,11.9H520l0.7-1.1L514.2,462.9z M425.9,486.7h1.9l-0.9-1.6
	L425.9,486.7z M454.2,474.8h-6.7l-5.1,8.4l2.1,3.5h10.3l3.2-5.4L454.2,474.8z M471,474.8H462l-3.9,6.5l3.2,5.4h8l4.4-7.3L471,474.8z
	 M454.9,486.7h6.5l-3.2-5.4L454.9,486.7z M440.4,486.7h4.2l-2.1-3.5L440.4,486.7z M185.7,474.8h-13.6l-1.6,2.6l5.5,9.2h3.4l6.7-11.1
	L185.7,474.8z M222.9,486.7h3.5l-1.7-2.9L222.9,486.7z M202.5,474.8h-1.4l-7.2,11.9h14.5l0.6-1L202.5,474.8z M186.6,474.8l-0.5,0.8
	l6.7,11.1h1.1l7.2-11.9H186.6z M208.4,486.7h1.2l-0.6-1L208.4,486.7z M219.3,474.8h-3.7l-6.6,10.9l0.6,1h13.3l1.7-2.9L219.3,474.8z
	 M179.4,486.7h13.4l-6.7-11.1L179.4,486.7z M317.2,498.5l-7.2,11.9h14.5l-7.1-11.9H317.2z M180.1,437.6l-1,1.6h2L180.1,437.6z
	 M179.3,462.9l7.2-11.9h-14.5l-0.3,0.4l6.9,11.4H179.3z M171.7,451.5l-6.9,11.4h13.8L171.7,451.5z M178.9,463.5l-0.4-0.6h-13.8
	l-1.5,2.5l5.6,9.4h3.2L178.9,463.5z M168.9,474.8l1.6,2.6l1.6-2.6H168.9z M187.3,449.6l-6.2-10.4h-2l-7.2,11.9h14.5L187.3,449.6z
	 M273.7,498.5h10.1l-5-8.4L273.7,498.5z M300.6,498.5h-12.4l-2.2,3.6l5,8.2h4.6l6.1-10.1L300.6,498.5z M294.5,488.2l-0.9-1.6h-12.6
	l-2.1,3.5l5,8.4h4.4L294.5,488.2z M283.9,498.5l2.2,3.6l2.2-3.6H283.9z M295.6,510.4h12.2l-6.1-10.1L295.6,510.4z M302.7,498.5
	l-1,1.7l6.1,10.1h2.3l7.2-11.9H302.7z M236,474.8h-6l-5.4,9l1.7,2.9h11l2.9-4.8L236,474.8z M252.8,474.8h-8.2l-4.3,7.1l2.9,4.8h8.7
	l4-6.7L252.8,474.8z M237.4,486.7h5.8l-2.9-4.8L237.4,486.7z M251.9,486.7h8l-4-6.7L251.9,486.7z M271.6,478.1l-2-3.3h-10.5
	l-3.1,5.2l4,6.7h6.5L271.6,478.1z M260,486.7l3.2,5.4l3.2-5.4H260z M276.7,486.7h-10.3l-3.2,5.4l3.9,6.5h6.7l5.1-8.4L276.7,486.7z
	 M265.1,296.9l7.2-11.9h-14.5l-0.8,1.3l6.3,10.5H265.1z M297.3,213.8l1.7,2.9l1.7-2.9C299.5,213.8,298.6,213.8,297.3,213.8z
	 M322.5,201.9l0.6-1.1l-6.5-10.8h-1.5l-7.2,11.9H322.5z M329.6,190.1l1.9-3.1l-5.2-8.7c-1.7,0-2.3,0-4,0l-6.4,10.6l0.7,1.2H329.6z
	 M315.9,188.9l-0.7,1.2h1.5L315.9,188.9z M300.2,190.7l-6.8,11.2H307L300.2,190.7z M307.5,202.8l-0.5-0.8h-13.5l-1.6,2.7l5.5,9.1
	c1.3,0,2.1,0,3.5,0L307.5,202.8z M308,201.9l7.2-11.9h-14.5l-0.4,0.7l6.7,11.2H308z M352.7,166.4l-4.4-7.3l-4.4,7.3
	C347.8,166.4,348.7,166.4,352.7,166.4z M339.9,173l3.1,5.2c3.7,0,4.4,0,8.2,0l4.3-7.1l-2.9-4.8c-4,0-4.9,0-8.7,0L339.9,173z
	 M193.6,439.2l2.1-3.5l-5-8.3h-4.5l-6.2,10.2l1,1.6H193.6z M332.7,161l-3.2,5.4c2.7,0,3.7,0,6.5,0L332.7,161z M520,474.8h1.3
	l-0.7-1.1L520,474.8z M324.3,174.9l-2,3.3c1.6,0,2.3,0,4,0L324.3,174.9z M282.2,244.5l-2.9,4.9c2.1,0,3.7,0,5.9,0L282.2,244.5z
	 M272.6,284.4l-6.8-11.3H265l-7.2,11.9h14.5L272.6,284.4z M265.4,272.4l-0.4,0.7h0.9L265.4,272.4z M279.5,273.1l1.6-2.6l-5.5-9.2
	h-3.4l-6.7,11.1l0.4,0.7H279.5z M273.8,258.5l-1.7,2.8h3.4L273.8,258.5z M257,286.3l-6.4,10.5h12.7L257,286.3z M253.7,308.7h4.3
	l6.3-10.4l-0.9-1.5h-12.7l-2,3.4L253.7,308.7z M308.1,225.7l6.6-10.9l-0.6-1c-5.5,0-8.2,0-13.3,0l-1.7,2.9l5.4,9H308.1z M301,237.5
	l5.3-8.8l-1.8-3.1h-10.8l-3,4.9l4.2,6.9H301z M290.7,230.6l-4.2,6.9h8.3L290.7,230.6z M299.1,216.7l-5.4,9h10.8L299.1,216.7z
	 M286.6,261.3l2.8-4.7l-4.3-7.2c-2.1,0-3.8,0-5.9,0l-5.5,9.1l1.7,2.8H286.6z M359.8,178.2l-4.3-7.1l-4.3,7.1
	C355.3,178.2,355.8,178.2,359.8,178.2z M293.8,249.4l4.1-6.8l-3.1-5.1h-8.3l-4.2,7l2.9,4.9C288.3,249.4,290.5,249.4,293.8,249.4z
	 M336.8,178.2l3.1-5.2l-4-6.7c-2.7,0-3.8,0-6.5,0l-5.2,8.6l2,3.3C330.7,178.2,332.2,178.2,336.8,178.2z M536,415.5l-4.6-7.6
	l-4.6,7.6H536z M523,421.8l3.3,5.5h7.8l4.5-7.4l-2.7-4.4h-9.1L523,421.8z M530.3,433.8l3.9-6.5h-7.8L530.3,433.8z M512.2,391.8
	l-3.6,6l3.5,5.9h7.4l4.7-7.8l-2.5-4.1H512.2z M528.9,403.6l-4.7-7.8l-4.7,7.8H528.9z M515.8,409.8l3.4,5.7h7.6l4.6-7.6l-2.6-4.3
	h-9.3L515.8,409.8z M519.7,427.3l-5.1,8.4l2.1,3.5H527l3.2-5.4l-3.9-6.5H519.7z M536.3,471.8l5.4-8.9H531L536.3,471.8z M529.1,459.8
	l1.9,3.1h10.7l3-5l-4.1-6.8h-6.3L529.1,459.8z M527.2,462.9l-6.5,10.8l0.7,1.1h13.2l1.8-3l-5.3-8.9H527.2z M533.5,439.2l-3.2-5.4
	l-3.2,5.4H533.5z M521.9,447.8l2,3.3h10.5l3.1-5.2l-4-6.7H527L521.9,447.8z M540.6,451.1l-3.1-5.2l-3.1,5.2H540.6z M347.2,185.1l3,5
	h8.4l4.2-6.9l-3-4.9c-4,0-4.6,0-8.5,0L347.2,185.1z M383.8,190.1l-5.3-8.8l-5.3,8.8H383.8z M370,195.2l4.1,6.8h6.4l5.2-8.7l-1.9-3.2
	h-10.6L370,195.2z M407.4,229.4l4.9,8.2h4.7l6.1-10.1l-1.1-1.8h-12.3L407.4,229.4z M377.3,207.2l4,6.6c3.3,0,3.3,0,6.6,0l5.1-8.5
	l-2-3.4h-10.4L377.3,207.2z M367,190.1h6.2l5.3-8.8l-1.8-3c-5.3,0-5.6,0-10.8,0l-3,4.9L367,190.1z M365.8,178.2c-2.9,0-3.1,0-6,0
	l3,4.9L365.8,178.2z M390.9,201.9l-5.2-8.7l-5.2,8.7H390.9z M395,201.9h-4.1l2,3.4L395,201.9z M421.9,225.7l-6.1-10.2l-6.2,10.2
	H421.9z M400.1,217.4l5,8.3h4.5l6.2-10.2l-1-1.6c-6.2,0-6.3,0-12.5,0L400.1,217.4z M398,213.8c2.1,0,2.1,0,4.3,0l6.3-10.4l-0.9-1.5
	H395l-2,3.4L398,213.8z M414.8,213.8l-6.2-10.4l-6.3,10.4C408.5,213.8,408.6,213.8,414.8,213.8z M344,166.4l4.4-7.3l-2.8-4.6h-8.9
	l-3.9,6.5l3.2,5.4C339.4,166.4,340.4,166.4,344,166.4z M178.8,391.8l3.7-6.1l-3.5-5.8h-7.5l-4.6,7.7l2.5,4.2H178.8z M198.3,356.2h2
	l7.2-11.9H193l-0.9,1.5L198.3,356.2z M166.8,387.6l-2.5,4.2h5.1L166.8,387.6z M171.6,403.6l2.4-4l-4.7-7.8h-5.1l-5.9,9.7l1.3,2.1
	H171.6z M207.7,343.9l-6.9-11.5h-0.7l-7.2,11.9h14.5L207.7,343.9z M158.4,401.5l-1.3,2.1h2.6L158.4,401.5z M250.5,273.1l7.2-11.9
	h-14.5l-0.6,1l6.5,10.9H250.5z M150,415.5h14.4l1.2-2l-5.9-9.9h-2.6L150,415.5L150,415.5z M242.5,262.3l-6.6,10.9h13.1L242.5,262.3z
	 M258.2,260.4l-6.6-11c-0.3,0-0.9,0-1.3,0l-7.2,11.9h14.5L258.2,260.4z M239.4,285h3.9l6.5-10.7l-0.7-1.2H236l-1.8,3.1L239.4,285z
	 M200.5,331.9l-0.3,0.6h0.7L200.5,331.9z M214.6,332.4l1.5-2.5l-5.6-9.4h-3.2l-6.8,11.3l0.3,0.6H214.6z M123.6,483.1l-2.1,3.5h4.3
	L123.6,483.1z M128.8,498.5l2-3.4l-5.1-8.5h-4.3l-6.3,10.4l0.9,1.5H128.8z M251,248.3l0.6,1.1c3.6,0,9.1,0,13.2,0l1.8-3l-5.4-8.9
	h-3.8l-7.2,11.9c0.3,0,0.9,0,1.3,0L251,248.3z M150,415.4L150,415.4L150,415.4L150,415.4z M121.6,510.4h1.6l-0.8-1.3L121.6,510.4z
	 M135.9,486.7l3.3-5.4l-3.9-6.4h-6.7l-5,8.3l2.1,3.5H135.9z M116,498.5h-1.8l-7.2,11.9h14.5l0.8-1.3L116,498.5z M115.2,497.1
	l-0.9,1.5h1.8L115.2,497.1z M118.6,474.8l5,8.3l5-8.3H118.6z M150,415.5L150,415.5l-7.3,11.9h14.4L150,415.5z M135.8,462.9l4.6-7.7
	l-2.5-4.2h-9.4l-3.7,6.1l3.5,5.8H135.8z M308.7,176.8l-0.8,1.4c0.6,0,1,0,1.7,0L308.7,176.8z M132,469.2l-3.8-6.3h-6.9l-4.9,8.2
	l2.2,3.7h10L132,469.2z M124.8,457.2l-3.5,5.8h6.9L124.8,457.2z M379.1,154.5l-6.7-11.2l-6.8,11.2H379.1z M356.8,145.2l5.6,9.3h3.3
	l6.8-11.2l-0.4-0.7c-6.1,0-7.9,0-13.7,0L356.8,145.2z M372,142.6l-6.8-11.4l-6.9,11.4C364.1,142.6,365.9,142.6,372,142.6z
	 M132.8,498.5h-4.1l-6.4,10.6l0.8,1.3h12.9l1.9-3.2L132.8,498.5z M351,130.8h-2.9l1.4,2.4L351,130.8z M355.2,142.6
	c1.3,0,1.8,0,3.1,0l6.9-11.4l-0.3-0.5H351l-1.4,2.4L355.2,142.6z M364,157.2l5.5,9.1c1.7,0,1.8,0,3.5,0l6.7-11l-0.5-0.8h-13.5
	L364,157.2z M333.9,135.1l4.6,7.6c2,0,3.3,0,5.4,0l5.7-9.5l-1.4-2.4h-11.6L333.9,135.1z M578.8,486.7l-4-6.6l-4,6.6H578.8z
	 M566.4,494l2.7,4.5h9l3.9-6.4l-3.3-5.4h-8L566.4,494z M563.7,498.5h5.5l-2.7-4.5L563.7,498.5z M259.4,234.4l-1.9,3.1h3.8
	L259.4,234.4z M571.7,474.8l-4.1-6.8l-4.1,6.8H571.7z M559.2,482l2.8,4.7h8.8l4-6.6l-3.2-5.3h-8.2L559.2,482z M556.2,462.9l-4.2,7
	l2.9,4.9h8.6l4.1-6.8l-3.1-5.1H556.2z M307.8,178.2l0.8-1.4l-6.3-10.5c-0.6,0-1.2,0-1.9,0l-7.2,11.9
	C298.2,178.2,302.3,178.2,307.8,178.2z M315,166.4l2.1-3.5l-5.1-8.4h-4.4l-6.2,10.3l0.9,1.6C306.7,166.4,310.2,166.4,315,166.4z
	 M301.4,164.8l-0.9,1.6c0.6,0,1.2,0,1.9,0L301.4,164.8z M348.1,130.8l-5.8-9.6l-5.8,9.6H348.1z M272,237.5l3-5l-4.1-6.8h-6.3
	l-5.3,8.7l1.9,3.1H272z M267.8,220.5l-3.1,5.2h6.3L267.8,220.5z M279.1,225.7l4.3-7.1l-2.9-4.8c-2.9,0-6.1,0-8.7,0l-4,6.7l3.1,5.2
	H279.1z M329.3,142.6l4.6-7.6l-2.6-4.3H322l-3.7,6.2l3.4,5.7C324.1,142.6,326.7,142.6,329.3,142.6z M326.7,123l-4.7,7.7h9.3
	L326.7,123z M336.5,130.8l5.8-9.6l-1.3-2.2h-11.8l-2.5,4.1l4.7,7.7H336.5z M309.8,150.9l-2.2,3.6h4.4L309.8,150.9z M322.2,154.5
	l3.3-5.5l-3.8-6.3c-2.1,0-4.9,0-6.9,0l-5,8.2l2.2,3.6H322.2z M318.3,136.9l-3.4,5.7c2,0,4.7,0,6.9,0L318.3,136.9z M525.9,510.4H513
	l-1.9,3.2l5.2,8.7h4.1l6.4-10.6L525.9,510.4z M99.5,499l-6.9,11.4h13.8L99.5,499z M121.4,486.7l2.1-3.5l-5-8.3h-4.5l-6.2,10.2l1,1.6
	H121.4z M341,118.9h2.7l7.1-11.7l-0.1-0.2h-14.3l-1.2,2.1L341,118.9z M107.1,510.4l7.2-11.9H99.8l-0.3,0.4l6.9,11.4H107.1z
	 M357.8,118.9l-7-11.7l-7.1,11.7H357.8z M115.2,497.1l-6.2-10.4h-2l-7.2,11.9h14.5L115.2,497.1z M107.9,485l-1,1.6h2L107.9,485z
	 M556.5,510.4h3l-1.5-2.5L556.5,510.4z M552.4,498.5h-3.2l-6.8,11.3l0.4,0.6h13.8l1.5-2.5L552.4,498.5z M343.7,118.9l-1.3,2.2
	l5.8,9.6h2.9 M569.2,498.5h-5.5l-5.7,9.4l1.5,2.5H571l2.6-4.4L569.2,498.5z M578.2,498.5l-4.5,7.5l2.6,4.4h9.2l3.8-6.3l-3.4-5.6
	H578.2z M571,510.4h5.3l-2.6-4.4L571,510.4z M559.5,510.4h-3l-6.9,11.4l0.3,0.4h14l1.4-2.3L559.5,510.4z M563.8,522.3h2.8l-1.4-2.3
	L563.8,522.3z M576.3,510.4H571l-5.8,9.5l1.4,2.3h11.7l2.5-4.2L576.3,510.4z M549.3,522.3h0.5l-0.3-0.4L549.3,522.3z M542,510.4h0.7
	l-0.4-0.6L542,510.4z M596.5,516.1l-3.5-5.8h-7.6l-4.6,7.6l2.5,4.2h9.4L596.5,516.1z M578.3,522.3h5.1l-2.5-4.2L578.3,522.3z
	 M128.9,522.3h1.4l-0.7-1.1L128.9,522.3z M542.7,510.4H542l-7.2,11.9h14.5l0.3-0.4L542.7,510.4z M121.6,510.4h-14.5l-0.4,0.6
	l6.8,11.3h0.9L121.6,510.4z M99.9,522.3h13.6l-6.8-11.3L99.9,522.3z M123.2,510.4h-1.6l-7.2,11.9h14.5l0.7-1.1L123.2,510.4z
	 M106.4,510.4H92.6l-1.5,2.5l5.6,9.4h3.2l6.8-11.3L106.4,510.4z M145.3,519.2l-5.3-8.8h-3.9l-6.5,10.7l0.7,1.1h13.1L145.3,519.2z
	 M562,486.7h-5.7l-5.6,9.2l1.6,2.6h11.3l2.7-4.5L562,486.7z M230.4,522.3h0.6l-0.3-0.5L230.4,522.3z M223.9,510.4h-0.8l-7.2,11.9
	h14.5l0.3-0.5L223.9,510.4z M208.6,510.4l-0.8,1.2l6.4,10.6h1.7l7.2-11.9H208.6z M246.3,519.9l-5.7-9.5h-3.1l-6.9,11.4l0.3,0.5h13.9
	L246.3,519.9z M201.4,522.3h12.8l-6.4-10.6L201.4,522.3z M426,510.4l-0.4,0.7l6.7,11.2h1l7.2-11.9H426z M156.7,510.4h-6.1l-5.3,8.8
	l1.8,3h10.8l3-4.9L156.7,510.4z M140,510.4l5.3,8.8l5.3-8.8H140z M442,510.4h-1.5l-7.2,11.9h14.5l0.7-1.1L442,510.4z M535.6,498.5
	h-0.9l-7.2,11.9H542l0.4-0.6L535.6,498.5z M207.1,510.4h-13l-1.9,3.1l5.2,8.7h4l6.4-10.6L207.1,510.4z M157.9,522.3h5.9l-3-4.9
	L157.9,522.3z M176.6,515.4l-3-5h-8.4l-4.2,6.9l3,4.9h8.5L176.6,515.4z M153.7,505.3l-4.1-6.8h-6.3l-5.2,8.7l1.9,3.2h10.6
	L153.7,505.3z M505.8,522.3h10.4l-5.2-8.7L505.8,522.3z M136.1,510.4h3.9l-1.9-3.2L136.1,510.4z M509.2,510.4h-10.6l-3.1,5.1
	l4.1,6.8h6.3l5.2-8.7L509.2,510.4z M447.9,522.3h1.3l-0.6-1.1L447.9,522.3z M526.7,511.7l6.3,10.6h1.8l7.2-11.9h-14.5L526.7,511.7z
	 M491.4,522.3h8.2l-4.1-6.8L491.4,522.3z M520.3,522.3h12.7l-6.3-10.6L520.3,522.3z M458.8,510.4H455l-6.5,10.8l0.6,1.1h13.2l1.8-3
	L458.8,510.4z M492.4,510.4H484l-4.2,7l2.9,4.9h8.6l4.1-6.8L492.4,510.4z M462.4,522.3h3.6l-1.8-3L462.4,522.3z M476.9,522.3h5.9
	l-2.9-4.9L476.9,522.3z M475.6,510.4h-6.1l-5.4,8.9l1.8,3h10.9l2.9-4.9L475.6,510.4z M147.5,439.2h2.6l7.1-11.8l-0.1-0.1h-14.4
	l-1.2,2L147.5,439.2z M179,379.9l3.5,5.8l3.5-5.8H179z M190.9,371.7l-2.2-3.7h-10l-3.4,5.6l3.8,6.3h7L190.9,371.7z M193.3,391.8
	l4.8-8l-2.3-3.9H186l-3.5,5.8l3.7,6.1H193.3z M183.7,359.7l-5,8.3h10L183.7,359.7z M186.1,403.6l3.6-5.9l-3.6-5.9h-7.3l-4.7,7.8
	l2.4,4H186.1z M182.5,385.7l-3.7,6.1h7.3L182.5,385.7z M214.9,355.9l-7-11.6h-0.5l-7.2,11.9h14.5L214.9,355.9z M207.7,343.9
	l-0.2,0.4h0.5L207.7,343.9z M174.1,399.6l-2.4,4h4.9L174.1,399.6z M222,344.3l1.4-2.3l-5.7-9.6h-3l-6.9,11.5l0.2,0.4H222z
	 M200.3,356.2h-2l1,1.7L200.3,356.2z M216.1,330l-1.5,2.5h3L216.1,330z M193.1,368l6.2-10.2l-1-1.7h-12.5l-2.1,3.6l5,8.3H193.1z
	 M205.4,368h2.2l7.2-11.9h-14.5l-1,1.7L205.4,368z M148.8,441.4l-1.3-2.2h-11.9l-2.4,4l4.7,7.8h5.1L148.8,441.4z M150.1,439.2h-2.6
	l1.3,2.2L150.1,439.2z M154.7,451.1h2.8l7-11.6l-0.2-0.3h-14.2l-1.3,2.2L154.7,451.1z M179,415.5l2.3-3.9l-4.8-8h-4.9l-6,9.9l1.2,2
	H179z M140.4,455.3l-4.6,7.7h9.2L140.4,455.3z M150.3,462.9l5.8-9.5l-1.4-2.3h-11.7l-2.5,4.2l4.6,7.7H150.3z M137.9,451.1l2.5,4.2
	l2.5-4.2H137.9z M171.8,427.3l1.1-1.8l-6-10.1h-2.4l-7.2,11.9H171.8z M165.6,413.5l-1.2,2h2.4L165.6,413.5z M157.2,427.3
	L157.2,427.3h0.1H157.2z M157.2,427.4l-7.1,11.8h14.2L157.2,427.4z M164.6,439.2l7.2-11.9h-14.5l-0.1,0.1l7.1,11.8H164.6z
	 M280.5,213.8l2.9,4.8l2.9-4.8C284.3,213.8,282.4,213.8,280.5,213.8z M283.4,218.6l-4.3,7.1h8.5L283.4,218.6z M147.6,467.3l-2.6-4.4
	h-9.2l-3.8,6.3l3.4,5.6h7.8L147.6,467.3z M293.6,225.7l5.4-9l-1.7-2.9c-4.1,0-7.2,0-11,0l-2.9,4.8l4.3,7.1H293.6z M229.1,332.4
	l2.6-4.4l-4.5-7.5h-5.5l-5.7,9.4l1.5,2.5H229.1z M279.3,249.4l2.9-4.9l-4.2-7H272l-5.4,8.9l1.8,3
	C271.9,249.4,275.5,249.4,279.3,249.4z M275,232.5l-3,5h6.1L275,232.5z M286.5,237.5l4.2-6.9l-3-4.9h-8.5l-4.1,6.8l3,5H286.5z
	 M291.8,204.7l-1.6-2.7H279l-2.8,4.6l4.4,7.2c1.9,0,3.8,0,5.8,0L291.8,204.7z M315.1,190.1l0.7-1.2l-6.4-10.6c-0.6,0-1,0-1.7,0
	l-7.2,11.9H315.1z M293,178.7l-6.9,11.4h13.7L293,178.7z M300.6,190.1l7.2-11.9c-5.5,0-9.6,0-14.5,0l-0.3,0.5l6.8,11.4H300.6z
	 M284.6,192.6l-5.6,9.3h11.2L284.6,192.6z M293.5,201.9l6.8-11.2l-0.4-0.7h-13.7l-1.5,2.6l5.6,9.3H293.5z M266.6,246.4l-1.8,3
	c1.1,0,2.4,0,3.6,0L266.6,246.4z M229,308.7l4-6.6l-3.2-5.3h-8.1l-4.3,7.2l2.8,4.7H229z M225.7,290.1l-4.1,6.7h8.1L225.7,290.1z
	 M236.1,296.9l5.2-8.6l-1.9-3.2h-10.6l-3.1,5.1l4.1,6.7H236.1z M217.3,304l-2.8,4.7h5.7L217.3,304z M224.5,316.1l-4.4-7.3h-5.7
	l-5.6,9.2l1.6,2.6h11.3L224.5,316.1z M210.5,320.6l5.6,9.4l5.7-9.4H210.5z M246.6,296.9h4.1l6.4-10.5l-0.8-1.3h-12.9l-1.9,3.2
	L246.6,296.9z M257.8,285l7.2-11.9h-14.5l-0.7,1.2l6.4,10.7H257.8z M265.4,272.4l-6.7-11.1h-1.1l-7.2,11.9H265L265.4,272.4z
	 M258.2,260.4l-0.5,0.9h1.1L258.2,260.4z M243.3,285h-3.9l1.9,3.2L243.3,285z M272.1,261.3l1.7-2.8l-5.4-9.1c-1.1,0-2.5,0-3.6,0
	l-6.6,11l0.5,0.9H272.1z M249.8,274.3l-6.5,10.7h12.9L249.8,274.3z M425.6,511l0.4-0.7h-0.8L425.6,511z M549.2,498.5h3.2l-1.6-2.6
	L549.2,498.5z M358.1,510.4h-4.6l-6.1,10.1l1,1.7h12.4l2.2-3.6L358.1,510.4z M418.7,498.5l-0.3,0.5l6.8,11.4h0.8l7.2-11.9H418.7z
	 M404.4,522.3h11.2l-5.6-9.3L404.4,522.3z M440.5,510.4h1.5l-0.7-1.2L440.5,510.4z M434.9,498.5h-1.7l-7.2,11.9h14.5l0.8-1.2
	L434.9,498.5z M375.4,522.3h6.7l-3.3-5.5L375.4,522.3z M374.9,510.4H368l-5,8.2l2.2,3.6h10.1l3.3-5.5L374.9,510.4z M408.5,510.4H397
	l-2.7,4.4l4.5,7.4h5.6l5.6-9.3L408.5,510.4z M360.9,522.3h4.4l-2.2-3.6L360.9,522.3z M451.7,498.5h-4l-6.4,10.6l0.7,1.2h13l1.9-3.1
	L451.7,498.5z M391.7,510.4h-9.1l-3.8,6.3l3.3,5.5h7.8l4.5-7.4L391.7,510.4z M389.9,522.3h8.9l-4.5-7.4L389.9,522.3z M411.5,510.4
	l-1.5,2.5l5.6,9.3h3.3l6.8-11.2l-0.4-0.7H411.5z M518.8,498.5h-13.1l-1.8,3l5.3,8.8h3.9l6.5-10.7L518.8,498.5z M519.5,499.7
	l6.4,10.7h1.6l7.2-11.9h-14.5L519.5,499.7z M513,510.4h12.9l-6.4-10.7L513,510.4z M528.5,486.7h-1.1l-7.2,11.9h14.5l0.5-0.8
	L528.5,486.7z M545.2,486.7h-3.4l-6.7,11.1l0.5,0.8h13.6l1.6-2.6L545.2,486.7z M534.7,498.5h0.9l-0.5-0.8L534.7,498.5z M469.5,510.4
	h6.1l-3-5L469.5,510.4z M485.2,498.5h-8.5l-4.1,6.8l3,5h8.4l4.2-6.9L485.2,498.5z M455,510.4h3.8l-1.9-3.1L455,510.4z M498.5,510.4
	h10.6l-5.3-8.8L498.5,510.4z M468.5,498.5h-6.3l-5.3,8.7l1.9,3.1h10.7l3-5L468.5,498.5z M484,510.4h8.4l-4.2-6.9L484,510.4z
	 M502,498.5h-10.8l-3,4.9l4.2,6.9h6.1l5.3-8.8L502,498.5z M142.5,486.7h-6.5l-5.1,8.5l2,3.4h10.4l3.2-5.3L142.5,486.7z M173.5,510.4
	l3,5l3-5H173.5z M185,501.5l-1.8-3h-10.9l-2.9,4.9l4.2,7h6.1L185,501.5z M166.4,498.5h-8.6l-4.1,6.8l3.1,5.1h8.4l4.2-7L166.4,498.5z
	 M165.1,510.4h8.4l-4.2-7L165.1,510.4z M179.6,510.4l-3,5l4.1,6.8h6.3l5.3-8.7l-1.9-3.1H179.6z M192.2,513.5l1.9-3.1h-3.8
	L192.2,513.5z M149.6,498.5l4.1,6.8l4.1-6.8H149.6z M139.2,481.2l-3.3,5.4h6.5L139.2,481.2z M200,498.5h-13.2l-1.8,3l5.3,8.9h3.8
	l6.5-10.8L200,498.5z M135.4,474.8l3.9,6.4l3.9-6.4H135.4z M150.4,486.7l4.4-7.3l-2.7-4.5h-9l-3.9,6.4l3.3,5.4H150.4z M162.1,491.4
	l-2.8-4.7h-8.8l-4,6.6l3.2,5.3h8.2L162.1,491.4z M143.3,498.5h6.3l-3.2-5.3L143.3,498.5z M257.4,510.4h-5.4l-5.7,9.5l1.4,2.4h11.6
	l2.6-4.3L257.4,510.4z M346.4,522.3h2.1l-1-1.7L346.4,522.3z M194.1,510.4h13l-6.5-10.8L194.1,510.4z M259.4,522.3h5.2L262,518
	L259.4,522.3z M240.7,510.4l5.7,9.5l5.7-9.5H240.7z M277.6,516.1l-3.4-5.7h-7.6L262,518l2.6,4.3h9.3L277.6,516.1z M341.3,510.4h-2.3
	l-7.2,11.9h14.5l1-1.7L341.3,510.4z M254.8,505.9l-4.5-7.4h-5.6l-5.6,9.3l1.5,2.5h11.4L254.8,505.9z M216.7,498.5h-1l-7.2,11.9h14.5
	l0.4-0.7L216.7,498.5z M201.3,498.5l-0.7,1.1l6.5,10.8h1.5l7.2-11.9H201.3z M223.1,510.4h0.8l-0.4-0.7L223.1,510.4z M233.5,498.5
	h-3.3l-6.8,11.2l0.4,0.7h13.7l1.5-2.5L233.5,498.5z M237.6,510.4h3.1l-1.5-2.5L237.6,510.4z M215.8,498.5h1l-0.5-0.8L215.8,498.5z
	 M337.3,249.4l7.2-11.9H330l-0.8,1.3l6.3,10.5C336.3,249.4,336.5,249.4,337.3,249.4z M344.8,237l-6.8-11.3h-0.9l-7.2,11.9h14.5
	L344.8,237z M329.2,238.9l-6.4,10.5c5.6,0,6.8,0,12.7,0L329.2,238.9z M320.8,252.8l-5.1,8.5h10.2L320.8,252.8z M337.6,224.9
	l-0.4,0.7h0.9L337.6,224.9z M330.1,261.3l6.3-10.4l-0.9-1.5c-5.9,0-7.1,0-12.7,0l-2,3.4l5.1,8.5H330.1z M352,249l0.2,0.4
	c6.7,0,7.1,0,14,0l1.4-2.3l-5.7-9.6h-3L352,249z M361.9,237.5l-1.5-2.5l-1.5,2.5H361.9z M323,273.1l5-8.3l-2.1-3.5h-10.2l-3.3,5.4
	l3.9,6.4H323z M373.5,237.5h-11.5l5.7,9.6L373.5,237.5z M344.8,237l0.3,0.6H359l1.5-2.5l-5.6-9.4h-3.2L344.8,237z M351.6,225.7
	l1.6-2.6l-5.5-9.2c-1.6,0-1.8,0-3.4,0l-6.7,11.1l0.4,0.7H351.6z M354.8,225.7l-1.6-2.6l-1.6,2.6H354.8z M287.1,332.4l7.2-11.9h-14.5
	l-1.1,1.8l6,10H287.1z M279.9,344.3l6-9.9l-1.2-2h-12.1l-2.3,3.9l4.8,8H279.9z M312.3,266.7l-3.9,6.4h7.7L312.3,266.7z M369.1,249.4
	c5.8,0,5.9,0,11.7,0l2.5-4.2l-4.6-7.7h-5.3l-5.8,9.6L369.1,249.4z M278.7,322.4l-6.1,10h12.1L278.7,322.4z M272.8,356.2l4.7-7.8
	l-2.4-4h-9.6l-3.6,5.9l3.6,5.9H272.8z M270.3,336.3l-4.8,8h9.6L270.3,336.3z M294.3,320.5l-7.1-11.8H287l-7.2,11.9L294.3,320.5
	L294.3,320.5z M303.9,280.6l-2.6,4.4h5.3L303.9,280.6z M308.6,296.9l2.5-4.2l-4.6-7.7h-5.3l-5.8,9.6l1.4,2.3H308.6z M315.8,285
	l3.8-6.3l-3.4-5.6h-7.7l-4.5,7.5l2.6,4.4H315.8z M295.5,294.5l-1.4,2.3h2.8L295.5,294.5z M301.5,308.7l1.3-2.1l-5.8-9.7h-2.8
	l-7,11.6l0.1,0.2H301.5z M287.1,308.5l-0.1,0.2h0.3L287.1,308.5z M464,351.5l2.8,4.6h8.9l3.9-6.5l-3.2-5.3h-8.1L464,351.5z
	 M469.3,332.4l-4.1-6.8l-4.1,6.8H469.3z M476.5,344.3l-4-6.7l-4,6.7H476.5z M456.8,339.5l2.9,4.8h8.7l4-6.7l-3.1-5.2h-8.3
	L456.8,339.5z M449.6,327.5l3,4.9h8.5l4.1-6.8l-3-5h-8.4L449.6,327.5z M462.2,320.6l-4.2-7l-4.2,7H462.2z M442.3,315.5l3.1,5.1h8.3
	l4.2-7l-2.9-4.9h-8.6L442.3,315.5z M471.3,363.6l4.5-7.4h-8.9L471.3,363.6z M462.8,377.5l1.4,2.4h11.6l2.6-4.3l-4.6-7.6h-5.4
	L462.8,377.5z M481.1,379.9l-2.6-4.3l-2.6,4.3H481.1z M473.9,368l-2.7-4.5l-2.7,4.5H473.9z M261.9,350.2l-3.6,5.9h7.1L261.9,350.2z
	 M455.1,308.7l-4.3-7.2l-4.3,7.2H455.1z M461.2,356.2l-5.6,9.3l1.5,2.6h11.4l2.7-4.5l-4.5-7.4H461.2z M416.9,273.1l-3.5-5.8
	l-3.5,5.8H416.9z M385.8,249.4l-2.5-4.2l-2.5,4.2C383.3,249.4,383.3,249.4,385.8,249.4z M400.1,273.1h9.8l3.5-5.8l-3.7-6.1h-7.2
	l-4.8,8L400.1,273.1z M382.1,271.1l1.2,2h12.1l2.3-3.9l-4.8-8h-4.9L382.1,271.1z M402.6,261.3H393l4.8,8L402.6,261.3z M374.9,259.1
	l1.3,2.1h11.9l2.4-4l-4.7-7.8c-2.5,0-2.5,0-5.1,0L374.9,259.1z M393,261.3l-2.4-4l-2.4,4H393z M419.5,305.3l2,3.4h10.4l3.2-5.3
	l-4-6.6h-6.6L419.5,305.3z M470.1,389.5l1.3,2.2h11.8l2.5-4.1l-4.6-7.7h-5.2L470.1,389.5z M439.1,296.9h-7.9l4,6.6L439.1,296.9z
	 M405,281.3l2.2,3.7h10l3.4-5.6l-3.8-6.3h-7L405,281.3z M431.2,296.9l-3.3-5.4l-3.3,5.4H431.2z M412.2,293.3l2.1,3.5h10.2l3.3-5.4
	L424,285h-6.8L412.2,293.3z M424,285l-3.4-5.6l-3.4,5.6H424z M346.1,474.8h7.4l-3.7-6.2L346.1,474.8z M346.4,462.9h-7.6l-4.6,7.6
	l2.6,4.3h9.3l3.7-6.2L346.4,462.9z M331.6,474.8h5.2l-2.6-4.3L331.6,474.8z M360.6,474.8h9.7l-4.9-8.1L360.6,474.8z M363.2,462.9
	h-9.9l-3.4,5.7l3.7,6.2h7l4.9-8.1L363.2,462.9z M329.6,462.9h-5.4l-5.7,9.5l1.4,2.4h11.6l2.6-4.3L329.6,462.9z M317.1,474.8h2.9
	l-1.4-2.4L317.1,474.8z M379.9,462.9h-12.2l-2.3,3.8l4.9,8.1h4.8l6-10L379.9,462.9z M302.9,474.3l-0.3,0.5h0.6L302.9,474.3z
	 M296,462.9h-0.8l-7.2,11.9h14.5l0.3-0.5L296,462.9z M302.6,474.8l-7.2,11.9h14.5l0.2-0.3l-6.9-11.5H302.6z M310.1,486.3l7-11.5
	h-13.9L310.1,486.3z M312.8,462.9h-3.1l-6.9,11.4l0.3,0.5h13.9l1.4-2.4L312.8,462.9z M440.2,462.9h6.9l-3.4-5.7L440.2,462.9z
	 M280.7,462.9l-0.7,1.2l6.4,10.6h1.7l7.2-11.9H280.7z M439.9,451.1h-7.1l-4.9,8.1l2.3,3.8h9.9l3.4-5.7L439.9,451.1z M456.7,451.1
	h-9.3l-3.7,6.2l3.4,5.7h7.6l4.6-7.6L456.7,451.1z M265.6,368l3.5-5.8l-3.7-6.1h-7.1l-4.8,8l2.3,3.9H265.6z M454.7,462.9h9.1
	l-4.6-7.6L454.7,462.9z M473.5,451.1h-11.6l-2.6,4.3l4.6,7.6h5.4l5.7-9.5L473.5,451.1z M375.1,474.8h12l-6-10L375.1,474.8z
	 M423.2,451.1h-4.8l-6,10l1.1,1.9h12.2l2.3-3.8L423.2,451.1z M389.6,474.8h14.3l-7.1-11.9h0L389.6,474.8z M382.2,462.9l-1.1,1.9
	l6,10h2.5l7.2-11.9H382.2z M396.7,462.9L396.7,462.9L396.7,462.9L396.7,462.9z M411.2,462.9h2.3l-1.1-1.9L411.2,462.9z M406.4,451.1
	h-2.5l-7.2,11.9l0,0h14.5l1.1-1.9L406.4,451.1z M425.7,462.9h4.6l-2.3-3.8L425.7,462.9z M229.8,427.3l5.7-9.4l-1.5-2.5h-11.5
	l-2.6,4.4l4.5,7.5H229.8z M228.2,405.9l-5.8,9.6H234L228.2,405.9z M219.8,419.9l-4.5,7.5h9L219.8,419.9z M222.6,439.2l4.4-7.3
	l-2.7-4.5h-9l-3.9,6.4l3.3,5.4H222.6z M211.4,433.8l-3.3,5.4h6.5L211.4,433.8z M236.9,415.5l6.9-11.4l-0.3-0.4h-14l-1.4,2.3l5.7,9.6
	H236.9z M215.4,451.1l3.2-5.3l-4-6.6h-6.5l-5.1,8.5l2,3.4H215.4z M236.6,392l-7,11.6h14L236.6,392z M258.4,379.9l2.2-3.7l-4.9-8.2
	h-4.7l-6.1,10.1l1.1,1.8H258.4z M253.4,364.2l-2.3,3.9h4.7L253.4,364.2z M245,378.1l-1.1,1.8h2.2L245,378.1z M244.1,403.6l7.2-11.9
	h-14.5l-0.2,0.3l7,11.6H244.1z M252.3,390.1l-6.1-10.2h-2.2l-7.2,11.9h14.5L252.3,390.1z M221.8,451.1h-6.3l-5.2,8.7l1.9,3.2h10.6
	l3.1-5.1L221.8,451.1z M251.8,462.9h10.7l-5.3-8.9L251.8,462.9z M272.1,451.1h-13.2l-1.8,3l5.3,8.9h3.8l6.5-10.8L272.1,451.1z
	 M255.3,451.1h-10.9l-2.9,4.9l4.2,7h6.1l5.4-8.9L255.3,451.1z M237.3,462.9h8.4l-4.2-7L237.3,462.9z M266.3,462.9h13l-6.5-10.8
	L266.3,462.9z M287.9,451.1h-14.5l-0.6,1.1l6.5,10.8h1.5L287.9,451.1z M238.6,451.1h-8.6l-4.1,6.8l3.1,5.1h8.3l4.2-7L238.6,451.1z
	 M469.2,462.9h11.4l-5.7-9.5L469.2,462.9z M203,447.7l-2,3.4h4.1L203,447.7z M208.3,462.9h3.9l-1.9-3.2L208.3,462.9z M222.8,462.9
	h6.1l-3.1-5.1L222.8,462.9z M279.3,462.9l0.7,1.2l0.7-1.2H279.3z M205,451.1h-4.1l-6.4,10.6l0.8,1.3h12.9l1.9-3.2L205,451.1z
	 M336.4,250.9l-6.3,10.4h12.5L336.4,250.9z M272.9,379.9l3.4-5.6l-3.8-6.3h-6.9l-4.9,8.2l2.2,3.7H272.9z M352,249l-6.9-11.5h-0.7
	l-7.2,11.9c6.7,0,7.5,0,14.5,0L352,249z M344.6,261.3l7.2-11.9c-7,0-7.8,0-14.5,0l-0.9,1.5l6.2,10.4H344.6z M330.3,285l4.9-8.2
	l-2.2-3.7h-10l-3.4,5.6l3.8,6.3H330.3z M328,264.8l-5,8.3h10L328,264.8z M359.4,261.3h14.2l1.3-2.1l-5.8-9.7c-1.4,0-1.4,0-2.8,0
	l-7,11.6L359.4,261.3z M319.6,278.7l-3.8,6.3h7.5L319.6,278.7z M376.2,261.3l-1.3-2.1l-1.3,2.1H376.2z M366.5,273L366.5,273
	l14.4,0.1l1.2-2l-5.9-9.9h-2.6L366.5,273z M366.3,249.4c-6.9,0-7.3,0-14,0l7,11.6L366.3,249.4z M344.6,261.3h14.5l0.1-0.2l-7-11.6
	c-0.2,0-0.3,0-0.5,0L344.6,261.3z M352.3,249.4L352,249l-0.2,0.4C352,249.4,352,249.4,352.3,249.4z M280.1,368l4.6-7.7l-2.5-4.2
	h-9.4l-3.7,6.1l3.5,5.8H280.1z M323.1,296.9l3.7-6.1l-3.5-5.8h-7.5l-4.6,7.7l2.5,4.2H323.1z M285.9,334.4l-6,9.9h11.9L285.9,334.4z
	 M277.5,348.3l-4.7,7.8h9.4L277.5,348.3z M383.3,273.1l-1.2-2l-1.2,2H383.3z M269.1,362.3l-3.5,5.8h6.9L269.1,362.3z M477.3,401.6
	l5.9-9.8h-11.8L477.3,401.6z M287.3,356.2l5.9-9.7l-1.3-2.1h-11.9l-2.4,4l4.7,7.8H287.3z M294.4,320.6L294.4,320.6l-7.3,11.9h14.4
	L294.4,320.6z M311.2,292.7l-2.5,4.2h5.1L311.2,292.7z M302.7,306.6l-1.3,2.1h2.6L302.7,306.6z M315.9,308.7l2.4-4l-4.7-7.8h-5.1
	l-5.9,9.7l1.3,2.1H315.9z M308.8,320.6l1.2-2l-5.9-9.9h-2.6l-7.1,11.8l0,0.1H308.8z M294.3,320.5L294.3,320.5L294.3,320.5
	L294.3,320.5z M337.5,273.1l6.2-10.2l-1-1.6h-12.5l-2.1,3.5l5,8.3H337.5z M446.7,356.2l-6.8,11.2l0.4,0.7h13.7l1.5-2.6l-5.6-9.3
	H446.7z M457.2,368l-1.5-2.6l-1.5,2.6H457.2z M441.2,341.4l1.7,2.9h11l2.9-4.8l-4.3-7.1h-6L441.2,341.4z M459.7,344.3l-2.9-4.8
	l-2.9,4.8H459.7z M373.8,285h14.5l1.1-1.8l-6-10h-2.4L373.8,285z M448.4,353.4l1.6,2.7h11.2l2.8-4.6l-4.4-7.2h-5.8L448.4,353.4z
	 M455.6,365.5l5.6-9.3H450L455.6,365.5z M188.5,423.7l-2.2,3.7h4.5L188.5,423.7z M454.4,415.5h14.5l0,0l-7.1-11.9h-0.2L454.4,415.5z
	 M464.3,379.9l-1.4-2.4l-1.4,2.4H464.3z M454.2,391.8l-7.2,11.9h14.5l0.1-0.2l-7-11.7H454.2z M454.4,391.4l0.2,0.3h14.1l1.3-2.2
	l-5.8-9.6h-2.9L454.4,391.4z M461.7,403.5l7.1-11.7h-14.1L461.7,403.5z M447.2,379.4l0.3,0.5h13.9l1.4-2.4l-5.7-9.5h-3.1
	L447.2,379.4z M407.2,285l-2.2-3.7l-2.2,3.7H407.2z M403.8,307.2l0.9,1.5h12.7l2-3.4l-5.1-8.5h-4.3L403.8,307.2z M414.4,296.9
	l-2.1-3.5l-2.1,3.5H414.4z M396.6,295.2l1,1.7h12.5l2.1-3.5l-5-8.3h-4.5L396.6,295.2z M390.5,285h12.3l2.2-3.7l-4.9-8.2h-4.7
	l-6.1,10L390.5,285z M395.4,273.1h-12.1l6,10L395.4,273.1z M431.9,308.7h-10.4l5.2,8.6L431.9,308.7z M445.4,320.6l-3.1-5.1l-3.1,5.1
	H445.4z M433.9,329.4l1.8,3.1h10.8l3-4.9l-4.2-6.9h-6.2L433.9,329.4z M428.6,320.6h10.6l3.1-5.1l-4.1-6.7h-6.4l-5.2,8.6L428.6,320.6
	z M452.5,332.4l-3-4.9l-3,4.9H452.5z M411.1,319.3l0.8,1.3h12.9l1.9-3.2l-5.2-8.6h-4.1L411.1,319.3z M421.5,308.7l-2-3.4l-2,3.4
	H421.5z M294.4,344.3l7.1-11.8l-0.1-0.1h-14.4l-1.2,2l5.9,9.9H294.4z M418.4,451.1h4.8l-2.4-4L418.4,451.1z M260.7,376.2l-2.2,3.7
	h4.5L260.7,376.2z M403.9,451.1h2.5l-1.2-2.1L403.9,451.1z M432.8,439.2h-7.3l-4.8,7.9l2.4,4h9.7l3.5-5.9L432.8,439.2z M432.9,451.1
	h7.1l-3.5-5.9L432.9,451.1z M399.2,439.2h-2.7l-7.1,11.7l0.1,0.2h14.3l1.2-2.1L399.2,439.2z M367.7,462.9h12.2l-6.1-10.1
	L367.7,462.9z M449.6,439.2h-9.5l-3.6,6l3.5,5.9h7.4l4.7-7.8L449.6,439.2z M372.8,451.1h-12.4l-2.2,3.6l5,8.2h4.6l6.1-10.1
	L372.8,451.1z M356,451.1h-10.1l-3.3,5.5l3.8,6.3h6.9l5-8.2L356,451.1z M396.7,462.9l7.2-11.9h-14.3L396.7,462.9z M374.9,451.1
	l-1,1.7l6.1,10.1h2.3l7.2-11.9H374.9z M389.4,451.1l-7.2,11.9h14.5l0,0l-7.1-11.9H389.4z M353.2,462.9h9.9l-5-8.2L353.2,462.9z
	 M476.1,427.5l7,11.7h0.4l7.2-11.9h-14.5L476.1,427.5z M485.7,415.5l-1.1-1.9l-1.2,1.9H485.7z M476.2,427.3h14.5l1.1-1.7l-6.1-10.1
	h-2.3L476.2,427.3z M468.9,415.5L468.9,415.5l14.5,0l1.2-1.9l-6-10h-2.5L468.9,415.5z M468.7,391.8l-7.1,11.7l0.1,0.2h14.3l1.2-2.1
	l-5.9-9.8H468.7z M478.5,403.6l-1.2-2.1l-1.2,2.1H478.5z M466.4,439.2h-11.8l-2.5,4.1l4.7,7.8h5.2l5.8-9.6L466.4,439.2z
	 M483.3,439.5l0.2-0.3h-0.4L483.3,439.5z M483.2,439.2H469l-1.3,2.2l5.8,9.6h2.9l7-11.5L483.2,439.2z M447.4,451.1h9.3l-4.7-7.8
	L447.4,451.1z M461.9,451.1h11.6l-5.8-9.6L461.9,451.1z M476.4,451.1h13.9l-6.9-11.5L476.4,451.1z M490.3,451.1h0.6l7.2-11.9h-14.5
	l-0.2,0.3L490.3,451.1z M416,439.2h-5l-5.9,9.8l1.2,2.1h12l2.4-4L416,439.2z M227,431.9l-4.4,7.3h8.8L227,431.9z M231.4,439.2h-8.8
	l-4,6.6l3.2,5.3h8.1l4.3-7.2L231.4,439.2z M237.1,439.2l5.6-9.2l-1.6-2.6h-11.3l-2.7,4.5l4.4,7.3H237.1z M235.4,418l-5.7,9.4h11.3
	L235.4,418z M248.2,439.2h-11.1l-2.8,4.7l4.3,7.2h5.9l5.5-9.1L248.2,439.2z M229.9,451.1h8.6l-4.3-7.2L229.9,451.1z M244.4,451.1
	h10.9l-5.4-9.1L244.4,451.1z M259.5,402.1l-6.2-10.4h-2l-7.2,11.9h14.5L259.5,402.1z M252.3,390.1l-1,1.6h2L252.3,390.1z
	 M265.8,391.8l2.1-3.5l-5-8.3h-4.5l-6.2,10.2l1,1.6H265.8z M244.3,427.3l6.8-11.3l-0.3-0.6h-13.8l-1.5,2.5l5.6,9.4H244.3z
	 M338.7,462.9h7.6l-3.8-6.3L338.7,462.9z M251.4,415.5l7.2-11.9h-14.5l-0.3,0.4l6.9,11.4H251.4z M243.9,404l-6.9,11.4h13.8
	L243.9,404z M265,439.2h-13.4l-1.7,2.8l5.4,9.1h3.6l6.6-11L265,439.2z M295.2,462.9h0.8l-0.4-0.7L295.2,462.9z M305.7,451.1h-3.3
	l-6.8,11.2l0.4,0.7h13.7l1.5-2.6L305.7,451.1z M322.5,451.1h-5.6l-5.6,9.3l1.5,2.6h11.4l2.7-4.4L322.5,451.1z M324.2,462.9h5.4
	l-2.7-4.4L324.2,462.9z M339.3,451.1h-7.8l-4.5,7.4l2.7,4.4h9.1l3.8-6.3L339.3,451.1z M309.7,462.9h3.1l-1.5-2.6L309.7,462.9z
	 M258.9,451.1h13.2l-6.6-11L258.9,451.1z M266.1,439.2l-0.5,0.9l6.6,11h1.3l7.2-11.9H266.1z M288.4,450.3l-0.5,0.8h1L288.4,450.3z
	 M288.9,451.1h-1l-7.2,11.9h14.5l0.4-0.7L288.9,451.1z M281.8,439.2h-1.2l-7.2,11.9h14.5l0.5-0.8L281.8,439.2z M461.8,403.6
	l-0.1-0.2l-0.1,0.2H461.8z M507.4,423.7l2.2,3.6h10.1l3.3-5.5l-3.8-6.3h-6.9L507.4,423.7z M519.2,415.5l-3.4-5.7l-3.4,5.7H519.2z
	 M512.1,403.6l-3.5-5.9l-3.5,5.9H512.1z M501.4,385.7l3.6,6h7.2l4.8-7.9l-2.4-3.9h-9.7L501.4,385.7z M508.6,397.8l3.6-6H505
	L508.6,397.8z M497.7,391.8l-4.8,7.9l2.4,4h9.7l3.5-5.9l-3.6-6H497.7z M500.2,411.7l2.3,3.8h9.9l3.4-5.7l-3.7-6.2H505L500.2,411.7z
	 M514.6,435.7l5.1-8.4h-10.1L514.6,435.7z M523.8,451.1l-2-3.3l-2,3.3H523.8z M513.4,461.7l0.7,1.2h13l1.9-3.1l-5.2-8.7h-4
	L513.4,461.7z M512.7,462.9h1.5l-0.7-1.2L512.7,462.9z M505.2,427.3l-6.2,10.3l0.9,1.6h12.6l2.1-3.5l-5-8.4H505.2z M516.7,439.2
	l-2.1-3.5l-2.1,3.5H516.7z M506.2,449.7l0.8,1.4h12.8l2-3.3l-5.1-8.6h-4.2L506.2,449.7z M436.2,249.4l-5.9-9.9l-6,9.9
	C430.1,249.4,430.5,249.4,436.2,249.4z M443.3,261.3l-5.8-9.7l-5.9,9.7H443.3z M317.3,498.4l7.1-11.7h-14.1L317.3,498.4z
	 M419.4,249.4c2.4,0,2.5,0,4.9,0l6-9.9l-1.2-2h-12.1l-2.3,3.9L419.4,249.4z M416.9,237.5h-4.7l2.3,3.9L416.9,237.5z M399,243.3
	l3.7,6.1c3.6,0,3.6,0,7.1,0l4.8-8l-2.3-3.9h-9.8L399,243.3z M494.1,373.7l3.7,6.2h7l4.9-8.1l-2.3-3.8h-9.9L494.1,373.7z M507.5,368
	l-5-8.2l-5,8.2H507.5z M514.6,379.9l-4.9-8.1l-4.9,8.1H514.6z M490.2,356.2l-3.3,5.5l3.8,6.4h6.8l5-8.2l-2.2-3.6H490.2z
	 M450.5,273.1l-5.7-9.6l-5.8,9.6H450.5z M436.3,277.5l4.5,7.5h5.5l5.7-9.4l-1.5-2.5h-11.5L436.3,277.5z M429.1,265.5l4.6,7.7h5.3
	l5.8-9.6l-1.4-2.3h-11.7L429.1,265.5z M412.3,237.5l-4.9-8.2l-4.9,8.2H412.3z M387.1,474.8h-12l-2.4,4l4.8,7.9h5l5.9-9.8
	L387.1,474.8z M370.3,474.8h-9.7l-3.5,5.8l3.6,6h7.2l4.8-7.9L370.3,474.8z M367.9,486.7h9.5l-4.8-7.9L367.9,486.7z M382.4,486.7
	h11.8l-5.9-9.8L382.4,486.7z M389.6,474.8l-1.2,2.1l5.9,9.8h2.7L404,475l-0.1-0.2H389.6z M404,475l0.1-0.2h-0.2L404,475z
	 M324.4,486.7h2.7l-1.3-2.2L324.4,486.7z M353.4,486.7h7.2l-3.6-6L353.4,486.7z M336.7,474.8h-5.2l-5.8,9.6l1.3,2.2h11.8l2.5-4.1
	L336.7,474.8z M319.9,474.8h-2.9l-7,11.5l0.2,0.3h14.1l1.3-2.2L319.9,474.8z M396.7,462.9l7.1,11.9h0.2l7.2-11.9H396.7z
	 M353.5,474.8h-7.4l-4.7,7.7l2.5,4.1h9.5l3.6-6L353.5,474.8z M338.9,486.7h5l-2.5-4.1L338.9,486.7z M462,474.8h8.9l-4.5-7.4
	L462,474.8z M476.5,474.8h11.2l-5.6-9.3L476.5,474.8z M480.6,462.9h-11.4l-2.7,4.4l4.5,7.4h5.6l5.6-9.3L480.6,462.9z M497.4,462.9
	h-13.7l-1.5,2.5l5.6,9.3h3.3l6.8-11.2L497.4,462.9z M413.5,462.9h-2.3l-7.2,11.9h14.5l1-1.7L413.5,462.9z M491,474.8h13.5l-6.7-11.2
	L491,474.8z M497.8,463.6l6.7,11.2h1l7.2-11.9h-14.5L497.8,463.6z M507.1,451.1h-1.7l-7.2,11.9h14.5l0.8-1.2L507.1,451.1z
	 M430.3,462.9h-4.6l-6.1,10.1l1,1.7H433l2.2-3.6L430.3,462.9z M418.5,474.8h2.1l-1-1.7L418.5,474.8z M433,474.8h4.4l-2.2-3.6
	L433,474.8z M447.5,474.8h6.7l-3.3-5.5L447.5,474.8z M447.1,462.9h-6.9l-5,8.2l2.2,3.6h10.1l3.3-5.5L447.1,462.9z M463.9,462.9h-9.1
	l-3.8,6.3l3.3,5.5h7.8l4.5-7.4L463.9,462.9z M421.8,253.4l4.7,7.8h5.1l5.9-9.7l-1.3-2.1c-5.7,0-6.1,0-11.9,0L421.8,253.4z
	 M244,320.6l3.4,5.6l3.4-5.6H244z M255.8,312.3l-2.1-3.5h-10.2l-3.3,5.4l3.9,6.4h6.8L255.8,312.3z M258,308.7h-4.3l2.1,3.5
	L258,308.7z M260.8,320.6h4.5l6.2-10.2l-1-1.7H258l-2.1,3.5L260.8,320.6z M247.4,326.2l-3.8,6.3h7.5L247.4,326.2z M258.1,332.4
	l4.9-8.2l-2.2-3.7h-10l-3.4,5.6l3.8,6.3H258.1z M272.5,308.7l7.2-11.9h-14.5l-0.9,1.5l6.2,10.4H272.5z M286.8,285l1.5-2.5l-5.6-9.4
	h-3.2l-6.8,11.3l0.3,0.6H286.8z M272.6,284.4l-0.3,0.6h0.7L272.6,284.4z M264.2,298.3l-6.3,10.4h12.5L264.2,298.3z M281.1,270.5
	l-1.6,2.6h3.2L281.1,270.5z M279.9,296.4L273,285h-0.7l-7.2,11.9h14.5L279.9,296.4z M251,344.3l3.7-6.1l-3.5-5.8h-7.5l-4.6,7.7
	l2.5,4.2H251z M230.6,354l-1.3,2.1h2.6L230.6,354z M205.3,395.8l-4.7,7.8h9.4L205.3,395.8z M391.7,231.3l3.8,6.3h6.9l4.9-8.2
	l-2.2-3.7h-10L391.7,231.3z M215.1,403.6l5.9-9.7l-1.3-2.1h-11.9l-2.4,4l4.7,7.8H215.1z M196.9,409.7l-3.5,5.8h6.9L196.9,409.7z
	 M200.8,427.3l3.4-5.6l-3.8-6.3h-6.9l-4.9,8.2l2.2,3.7H200.8z M213.8,381.9l-6,9.9h11.9L213.8,381.9z M236.6,368l1.2-2l-5.9-9.9
	h-2.6l-7.1,11.8l0,0.1H236.6z M239,340.1l-2.5,4.2h5.1L239,340.1z M222.3,391.8l7.1-11.8l-0.1-0.1H215l-1.2,2l5.9,9.9H222.3z
	 M243.8,356.2l2.4-4l-4.7-7.8h-5.1l-5.9,9.7l1.3,2.1H243.8z M294,273.1l2.7-4.5l-4.4-7.3h-5.7l-5.6,9.2l1.6,2.6H294z M222.2,368
	L222.2,368L222.2,368L222.2,368z M222.2,368L222.2,368l-7.3,11.9h14.4L222.2,368z M207.9,415.5l4.6-7.7l-2.5-4.2h-9.4l-3.7,6.1
	l3.5,5.8H207.9z M358.6,190.1h-8.4l4.2,7L358.6,190.1z M374.1,201.9l-4.1-6.8l-4.1,6.8H374.1z M338.8,199l1.8,3h10.9l2.9-4.9l-4.2-7
	h-6.1L338.8,199z M289.5,256.6l-2.8,4.7h5.7L289.5,256.6z M350.2,190.1l-3-5l-3,5H350.2z M344.1,190.1l3-5l-4.1-6.8
	c-2.8,0-3.5,0-6.3,0l-5.3,8.7l1.9,3.1H344.1z M331.5,187l-1.9,3.1h3.8L331.5,187z M388.4,225.7h6.7l5-8.3l-2.1-3.5
	c-5.1,0-5.1,0-10.2,0l-3.3,5.4L388.4,225.7z M387.8,213.8c-3.3,0-3.3,0-6.6,0l3.3,5.4L387.8,213.8z M405.2,225.7l-5-8.3l-5,8.3
	H405.2z M361.6,209.1l2.8,4.7c4.3,0,4.5,0,8.8,0l4-6.6l-3.2-5.3H366L361.6,209.1z M381.2,213.8l-4-6.6l-4,6.6
	C377.2,213.8,377.3,213.8,381.2,213.8z M368.9,221.1l2.7,4.5h9l3.9-6.4l-3.3-5.4c-3.9,0-4,0-7.9,0L368.9,221.1z M357.3,201.9h8.6
	l4.1-6.8l-3.1-5.1h-8.3l-4.2,7L357.3,201.9z M308.3,249.4l5.2-8.6l-1.9-3.2H301l-3.1,5.1l4.1,6.8
	C304.5,249.4,305.6,249.4,308.3,249.4z M306.3,228.7l-5.3,8.8h10.6L306.3,228.7z M315.5,237.5l6.5-10.7l-0.7-1.2h-13.1l-1.8,3.1
	l5.3,8.8H315.5z M297.9,242.6l-4.1,6.8c3.2,0,4.8,0,8.1,0L297.9,242.6z M314.7,214.8l-6.6,10.9h13.1L314.7,214.8z M301.1,261.3
	l4-6.6l-3.2-5.3c-3.3,0-5,0-8.1,0l-4.3,7.2l2.8,4.7H301.1z M329.8,213.8l0.5-0.9l-6.6-11h-1.3l-7.2,11.9
	C321.3,213.8,323.4,213.8,329.8,213.8z M323.1,200.9l-0.6,1.1h1.3L323.1,200.9z M314.1,213.8l0.6,1l0.6-1
	C314.8,213.8,314.6,213.8,314.1,213.8z M322.5,201.9H308l-0.5,0.8l6.6,11c0.5,0,0.7,0,1.2,0L322.5,201.9z M337,201.9l1.8-3l-5.3-8.9
	h-3.8l-6.5,10.8l0.6,1.1H337z M458,313.6l4.2,7h6l5.4-8.9l-1.8-3h-10.9L458,313.6z M409.8,249.4c-3.5,0-3.6,0-7.1,0l3.6,5.9
	L409.8,249.4z M409.8,261.3h7.3l4.7-7.8l-2.4-4c-4.7,0-4.9,0-9.6,0l-3.6,5.9L409.8,261.3z M390.6,257.2l2.4,4h9.6l3.6-5.9l-3.6-5.9
	c-3.7,0-3.7,0-7.4,0L390.6,257.2z M383.3,245.2l2.5,4.2c4.7,0,4.7,0,9.4,0l3.7-6.1l-3.5-5.8h-7.5L383.3,245.2z M402.6,249.4
	l-3.7-6.1l-3.7,6.1C399,249.4,399,249.4,402.6,249.4z M395.5,237.5l-3.8-6.3l-3.8,6.3H395.5z M426.5,261.3l-4.7-7.8l-4.7,7.8H426.5z
	 M440.8,285l-4.5-7.5l-4.5,7.5H440.8z M427.9,291.4l3.3,5.4h7.9l4.4-7.3l-2.7-4.5h-9L427.9,291.4z M446.3,285h-5.5l2.7,4.5
	L446.3,285z M433.7,273.1l-4.6-7.7l-4.6,7.7H433.7z M420.7,279.4l3.4,5.6h7.7l4.5-7.5l-2.6-4.4h-9.2L420.7,279.4z M371.6,225.7
	l-2.7-4.5l-2.7,4.5H371.6z M330.3,212.9l-0.5,0.9c0.5,0,0.6,0,1.1,0L330.3,212.9z M378.7,237.5h9.2l3.8-6.3l-3.4-5.6h-7.7l-4.5,7.5
	L378.7,237.5z M337.6,224.9l-6.7-11.1c-0.5,0-0.6,0-1.1,0l-7.2,11.9h14.5L337.6,224.9z M330,237.5l7.2-11.9h-14.5l-0.7,1.2l6.4,10.7
	H330z M351.5,201.9h-10.9l5.4,9.1L351.5,201.9z M321.9,226.8l-6.5,10.7h12.9L321.9,226.8z M344.3,213.8l1.7-2.8l-5.4-9.1H337
	l-6.6,11l0.5,0.9C336.8,213.8,338.1,213.8,344.3,213.8z M447.9,296.9h5.7l5.6-9.2l-1.6-2.6h-11.3l-2.7,4.5L447.9,296.9z
	 M322.8,249.4l6.4-10.5l-0.8-1.3h-12.9l-1.9,3.2l5.2,8.6C320.5,249.4,321,249.4,322.8,249.4z M347.7,213.8c5.2,0,5.8,0,11.1,0
	l2.8-4.7l-4.3-7.2h-5.9L346,211L347.7,213.8z M353.2,223l1.6,2.6h11.3l2.7-4.5l-4.4-7.3c-2.8,0-2.9,0-5.7,0L353.2,223z M364.5,213.8
	l-2.8-4.7l-2.8,4.7C361.5,213.8,361.7,213.8,364.5,213.8z M380.6,225.7h-9l4.5,7.5L380.6,225.7z M484.5,413.6l1.1,1.9h12.2l2.3-3.8
	l-4.8-8.1h-4.8L484.5,413.6z M502.5,415.5l-2.3-3.8l-2.3,3.8H502.5z M495.3,403.6l-2.4-4l-2.4,4H495.3z M483.2,391.8l-5.9,9.8
	l1.2,2.1h12l2.4-4l-4.7-7.9H483.2z M491.8,425.6l1,1.7h12.4l2.2-3.6l-4.9-8.2h-4.6L491.8,425.6z M492.9,399.7l4.8-7.9h-9.5
	L492.9,399.7z M490.7,427.3l-7.2,11.9H498l1-1.6l-6.2-10.3H490.7z M490.6,451.6l6.8,11.4h0.8l7.2-11.9h-14.5L490.6,451.6z
	 M490.9,451.1h14.5l0.9-1.4l-6.3-10.5H498L490.9,451.1z M499,437.6l6.2-10.3h-12.4L499,437.6z M483.7,462.9h13.7l-6.8-11.4
	L483.7,462.9z M499.9,439.2l-0.9-1.6l-1,1.6H499.9z M485.7,387.6l2.5,4.1h9.5l3.6-6l-3.5-5.8h-7.5L485.7,387.6z M450.8,301.5
	l4.3,7.2h5.9l5.5-9.1l-1.7-2.8h-11.1L450.8,301.5z M490.3,451.1h-13.9l-1.4,2.4l5.7,9.5h3.1l6.9-11.4L490.3,451.1z M468.2,320.6
	l-3,5l4.1,6.8h6.2l5.3-8.7l-1.9-3.1H468.2z M472.4,337.6l4,6.7h6.4l5.2-8.6l-2-3.3h-10.5L472.4,337.6z M486.1,332.4l-5.3-8.7
	l-5.3,8.7H486.1z M471.8,308.7l-5.5-9.1l-5.5,9.1H471.8z M464.7,296.9l-5.6-9.2l-5.6,9.2H464.7z M479.7,349.7l3.9,6.5h6.6l5.1-8.4
	l-2.1-3.5h-10.3L479.7,349.7z M493.2,344.3l-5.2-8.6l-5.2,8.6H493.2z M490.7,368l-3.8-6.4l-3.8,6.4H490.7z M478.5,375.6l2.6,4.3h9.3
	l3.7-6.2l-3.4-5.7h-7.7L478.5,375.6z M475.7,356.2l-4.5,7.4l2.7,4.5h9.1l3.8-6.4l-3.3-5.5H475.7z M497.8,379.9l-3.7-6.2l-3.7,6.2
	H497.8z M486.9,361.7l3.3-5.5h-6.6L486.9,361.7z M263,324.3l-4.9,8.2h9.8L263,324.3z M187.3,449.6l-0.9,1.5h1.8L187.3,449.6z
	 M194.6,461.6l-6.3-10.6h-1.8l-7.2,11.9h14.5L194.6,461.6z M195.3,462.9h-1.6l-7.2,11.9h14.5l0.7-1.1L195.3,462.9z M179.3,462.9
	l-0.4,0.6l6.8,11.3h0.9l7.2-11.9H179.3z M212.1,462.9h-3.9l-6.5,10.7l0.7,1.1h13.1l1.8-3L212.1,462.9z M201.1,474.8h1.4l-0.7-1.1
	L201.1,474.8z M215.3,427.3l4.5-7.5l-2.6-4.4h-9.2l-3.8,6.3l3.4,5.6H215.3z M204.2,421.8l-3.4,5.6h6.7L204.2,421.8z M222.4,415.5
	l5.8-9.6l-1.4-2.3h-11.7l-2.5,4.2l4.6,7.7H222.4z M212.6,407.8l-4.6,7.7h9.2L212.6,407.8z M215.6,474.8h3.7l-1.8-3L215.6,474.8z
	 M208.1,439.2l3.3-5.4l-3.9-6.4h-6.7l-5,8.3l2.1,3.5H208.1z M195.7,435.7l-2.1,3.5h4.3L195.7,435.7z M200.9,451.1l2-3.4l-5.1-8.5
	h-4.3l-6.3,10.4l0.9,1.5H200.9z M280.9,486.7h12.6l-6.3-10.5L280.9,486.7z M286.4,474.8h-12.8l-2,3.3l5.1,8.6h4.2l6.3-10.5
	L286.4,474.8z M302.6,474.8h-14.5l-0.8,1.4l6.3,10.5h1.9L302.6,474.8z M295.4,486.7l-0.9,1.6l6.2,10.3h2.1l7.2-11.9H295.4z
	 M269.6,474.8l2,3.3l2-3.3H269.6z M293.5,486.7l0.9,1.6l0.9-1.6H293.5z M280,464.2l-0.7-1.2h-13l-1.9,3.1l5.2,8.7h4L280,464.2z
	 M245.7,462.9h-8.4l-4.2,6.9l3,4.9h8.5l4.1-6.8L245.7,462.9z M230.1,474.8h6l-3-4.9L230.1,474.8z M244.6,474.8h8.2l-4.1-6.8
	L244.6,474.8z M228.9,462.9h-6.1l-5.3,8.8l1.8,3h10.8l3-4.9L228.9,462.9z M262.5,462.9h-10.7l-3,5l4.1,6.8h6.3l5.3-8.7L262.5,462.9z
	 M313.5,240.8l-5.2,8.6c4.4,0,5.9,0,10.4,0L313.5,240.8z M259.1,474.8h10.5l-5.2-8.7L259.1,474.8z M287.1,308.5l-7-11.6h-0.5
	l-7.2,11.9H287L287.1,308.5z M279.9,296.4l-0.2,0.4h0.5L279.9,296.4z M279.8,320.6l7.2-11.9h-14.5l-1,1.7l6.1,10.2H279.8z
	 M294.1,296.9l1.4-2.3l-5.7-9.6h-3l-6.9,11.5l0.2,0.4H294.1z M271.5,310.4l-6.2,10.2h12.3L271.5,310.4z M309.9,486.7l-7.2,11.9h14.5
	l0.1-0.2l-7-11.7H309.9z M272.6,332.4l6.1-10l-1.1-1.8h-12.3l-2.2,3.7l4.9,8.2H272.6z M308.5,273.1l3.9-6.4l-3.3-5.4h-7.9l-4.4,7.3
	l2.7,4.5H308.5z M288.3,282.5l-1.5,2.5h3L288.3,282.5z M315.6,261.3l5.1-8.5l-2-3.4c-4.6,0-6.1,0-10.4,0l-3.2,5.3l4,6.6H315.6z
	 M305.1,254.7l-4,6.6h7.9L305.1,254.7z M296.7,268.6l-2.7,4.5h5.5L296.7,268.6z M301.3,285l2.6-4.4l-4.5-7.5H294l-5.7,9.4l1.5,2.5
	H301.3z M221,393.9l-5.9,9.7h11.7L221,393.9z M243.9,379.9l1.1-1.8l-6-10.1h-2.4l-7.2,11.9H243.9z M236.6,368h-14.4l7.1,11.9h0.1
	L236.6,368z M236.8,391.8l7.2-11.9h-14.5l-0.1,0.1l7.1,11.8H236.8z M229.3,379.9L229.3,379.9h0.1H229.3z M229.6,403.6l7-11.6
	l-0.2-0.3h-14.2l-1.3,2.1l5.8,9.7H229.6z M229.4,380l-7.1,11.8h14.2L229.4,380z M254.6,338.2l-3.7,6.1h7.3L254.6,338.2z
	 M237.8,366.1l-1.2,2h2.4L237.8,366.1z M258.3,356.2l3.6-5.9l-3.6-5.9H251l-4.7,7.8l2.4,4H258.3z M265.4,344.3l4.8-8l-2.3-3.9h-9.8
	l-3.5,5.8l3.7,6.1H265.4z M246.2,352.1l-2.4,4h4.9L246.2,352.1z M251.1,368l2.3-3.9l-4.8-8h-4.9l-6,9.9l1.2,2H251.1z"/>
</svg>
