<svg id="Logo" xmlns="http://www.w3.org/2000/svg" viewBox="0 0 136.1 136.5"><defs><style>.cls-1{fill:#fff;}</style></defs><title>Vodafone_logo</title><path class="cls-1" d="M68.1.6a67.7,67.7,0,1,0,67.6,67.7A67.7,67.7,0,0,0,68.1.6ZM99.9,87.2a34.8,34.8,0,0,1-9.5,11.6,35.9,35.9,0,0,1-22.6,7.7l-3.8-.3a36,36,0,0,1-5.7-1.2A38,38,0,0,1,37.1,89.1a40.5,40.5,0,0,1-4.8-10.7l-.2-.9A44.1,44.1,0,0,1,30.8,71a46.4,46.4,0,0,1-.2-6.9v-.7a52.2,52.2,0,0,1,1.4-9.6A57.6,57.6,0,0,1,50.8,24.1,62.5,62.5,0,0,1,69,13.4l5.4-1.8,3.4-.9a67.1,67.1,0,0,1,8.4-1.5A44,44,0,0,1,92,8.8c1,0,2,.2,2.1.5h0c0,.2-.5.5-1.5.9A27.3,27.3,0,0,0,74.4,36c0,.3,0,.6,0,.8a43.6,43.6,0,0,1,14,5.5,31.8,31.8,0,0,1,9.2,8.5l.5.8a31.6,31.6,0,0,1,4,8.5,37.8,37.8,0,0,1,1.5,9.6q0,.6,0,1.3A35.6,35.6,0,0,1,99.9,87.2Z"/></svg>