<?xml version="1.0" encoding="utf-8"?>
<!-- Generator: Adobe Illustrator 20.1.0, SVG Export Plug-In . SVG Version: 6.00 Build 0)  -->
<svg version="1.1" id="Layer_1" xmlns="http://www.w3.org/2000/svg" xmlns:xlink="http://www.w3.org/1999/xlink" x="0px" y="0px"
	 width="16px" height="16px" viewBox="0 0 16 16" style="enable-background:new 0 0 16 16;" xml:space="preserve">
<style type="text/css">
	.st0{fill:#FFFFFF;}
</style>
<path id="XMLID_2221_" class="st0" d="M9.2,0.6L9.2,0.6C8.8,0.5,8.4,0.5,8,0.5C3.9,0.5,0.5,3.9,0.5,8s3.4,7.5,7.5,7.5
	s7.5-3.4,7.5-7.5C15.5,4.3,12.8,1.2,9.2,0.6z M8,6.8c0.7,0,1.2,0.5,1.2,1.2S8.7,9.2,8,9.2S6.8,8.7,6.8,8S7.3,6.8,8,6.8z M8,13.6
	c-3.1,0-5.6-2.5-5.6-5.6c0-2.9,2.3-5.3,5.1-5.6L5.1,6.9C5,7,5,7.2,5,7.3C5,7.5,4.9,7.7,4.9,8c0,1.7,1.4,3.1,3.1,3.1s3.1-1.4,3.1-3.1
	c0-1.6-1.2-2.9-2.8-3.1l1.3-2.3c2.3,0.7,4,2.8,4,5.4C13.6,11.1,11.1,13.6,8,13.6z"/>
</svg>
