<svg id="Слой_1" data-name="Слой 1" xmlns="http://www.w3.org/2000/svg" viewBox="0 0 25 25"><defs><style>.cls-1{fill:#5a9edf;}</style></defs><title>icon</title><g id="kievstar"><path class="cls-1" d="M14.1,2.2a1.6,1.6,0,1,0-3.3,0V8.3a1.6,1.6,0,1,0,3.3,0Z"/><path class="cls-1" d="M9,12.5A1.6,1.6,0,0,0,8,10.4L2.2,8.5a1.6,1.6,0,0,0-1,3.1L7,13.5A1.6,1.6,0,0,0,9,12.5Z"/><path class="cls-1" d="M10.4,16.5a1.6,1.6,0,0,0-2.3.4L4.5,21.9a1.6,1.6,0,1,0,2.7,1.9l3.6-4.9A1.6,1.6,0,0,0,10.4,16.5Z"/><path class="cls-1" d="M16.9,16.9a1.6,1.6,0,0,0-2.7,1.9l3.6,4.9a1.6,1.6,0,1,0,2.7-1.9Z"/><path class="cls-1" d="M24.9,9.6a1.6,1.6,0,0,0-2.1-1.1L17,10.4a1.6,1.6,0,1,0,1,3.1l5.8-1.9A1.6,1.6,0,0,0,24.9,9.6Z"/></g></svg>