<?xml version="1.0" encoding="utf-8"?>
<!-- Generator: Adobe Illustrator 19.0.0, SVG Export Plug-In . SVG Version: 6.00 Build 0)  -->
<svg version="1.1" id="Layer_1" xmlns="http://www.w3.org/2000/svg" xmlns:xlink="http://www.w3.org/1999/xlink" x="0px" y="0px"
	 viewBox="0 0 206.9 248.5" style="enable-background:new 0 0 206.9 248.5;" xml:space="preserve">
<metadata><?xpacket begin="﻿" id="W5M0MpCehiHzreSzNTczkc9d"?>
<x:xmpmeta xmlns:x="adobe:ns:meta/" x:xmptk="Adobe XMP Core 5.6-c067 79.157747, 2015/03/30-23:40:42        ">
   <rdf:RDF xmlns:rdf="http://www.w3.org/1999/02/22-rdf-syntax-ns#">
      <rdf:Description rdf:about=""/>
   </rdf:RDF>
</x:xmpmeta>
                                                                                                    
                                                                                                    
                                                                                                    
                                                                                                    
                                                                                                    
                                                                                                    
                                                                                                    
                                                                                                    
                                                                                                    
                                                                                                    
                                                                                                    
                                                                                                    
                                                                                                    
                                                                                                    
                                                                                                    
                                                                                                    
                                                                                                    
                                                                                                    
                                                                                                    
                                                                                                    
                           
<?xpacket end="w"?></metadata>
<style type="text/css">
	.st0{fill:none;stroke:#24408F;stroke-width:2;stroke-miterlimit:10;}
	.st1{fill:#24408F;}
	.st2{fill:none;stroke:#24408F;stroke-width:3;stroke-linecap:round;stroke-miterlimit:10;}
</style>
<g>
	<path class="st0" d="M182.8,87.1v136c0,8.8-6.8,16-15.3,16H45.4c-8.4,0-15.3-7.2-15.3-16v-48c0-1.1-0.4-2.1-1.1-2.8L17,159.8
		c-1.4-1.5-2.2-3.5-2.2-5.7v-35c0-8.8,6.8-16,15.3-16h0.7v-16c0-8.8,7.2-16,16-16h120C175.6,71.1,182.8,78.3,182.8,87.1L182.8,87.1z
		 M182.8,87.1"/>
	<path class="st0" d="M46.8,71.1h120c8.8,0,16,7.2,16,16v16h-152v-16C30.8,78.3,38,71.1,46.8,71.1L46.8,71.1z M46.8,71.1"/>
	<path class="st0" d="M142.8,207.1h-72c-4.4,0-8-3.6-8-8v-56c0-4.4,3.6-8,8-8h72c4.4,0,8,3.6,8,8v56
		C150.8,203.5,147.2,207.1,142.8,207.1L142.8,207.1z M142.8,207.1"/>
	<path class="st0" d="M142.8,171.1v24c0,2.2-1.8,4-4,4h-64c-2.2,0-4-1.8-4-4v-24c0-2.2,1.8-4,4-4h64
		C141,167.1,142.8,168.9,142.8,171.1L142.8,171.1z M142.8,171.1"/>
	<path class="st0" d="M142.8,147.1c0,2.2-1.8,4-4,4h-32c-2.2,0-4-1.8-4-4c0-2.2,1.8-4,4-4h32C141,143.1,142.8,144.9,142.8,147.1
		L142.8,147.1z M142.8,147.1"/>
	<path class="st1" d="M86.8,151.1c0,4.4-3.6,8-8,8s-8-3.6-8-8s3.6-8,8-8S86.8,146.7,86.8,151.1L86.8,151.1z M86.8,151.1"/>
	<g>
		<path class="st0" d="M115.6,31.7c0,6.5-5.3,11.8-11.8,11.8s-11.8-5.3-11.8-11.8c0-8,11.8-23.3,11.8-23.3S115.6,23.8,115.6,31.7z"
			/>
		<path class="st2" d="M102.7,38.7c-1.6,0-3.1-0.7-4.2-1.7s-1.7-2.5-1.7-4.2"/>
		<g>
			<path class="st0" d="M89.1,49.3c0,6.5-5.3,11.8-11.8,11.8c-6.5,0-11.8-5.3-11.8-11.8c0-8,11.8-23.3,11.8-23.3
				S89.1,41.3,89.1,49.3z"/>
			<path class="st2" d="M76.2,56.3c-1.6,0-3.1-0.7-4.2-1.7s-1.7-2.5-1.7-4.2"/>
		</g>
		<path class="st0" d="M144.4,49.3c0,6.5-5.3,11.8-11.8,11.8c-6.5,0-11.8-5.3-11.8-11.8c0-8,11.8-23.3,11.8-23.3
			S144.4,41.3,144.4,49.3z"/>
		<path class="st2" d="M131.6,56.3c-1.6,0-3.1-0.7-4.2-1.7s-1.7-2.5-1.7-4.2"/>
	</g>
</g>
</svg>
