<svg xmlns="http://www.w3.org/2000/svg" width="1440" height="900"><path d="M817,338L610,344L617,560Z" fill="#f4f1f4" stroke="#f4f1f4" stroke-width="1.51"/><path d="M617,560L820,559L817,338Z" fill="#f2f6f1" stroke="#f2f6f1" stroke-width="1.51"/><path d="M610,344L406,556L617,560Z" fill="#eee8ed" stroke="#eee8ed" stroke-width="1.51"/><path d="M610,344L402,335L406,556Z" fill="#ebdeec" stroke="#ebdeec" stroke-width="1.51"/><path d="M600,127L402,335L610,344Z" fill="#e8d5e9" stroke="#e8d5e9" stroke-width="1.51"/><path d="M820,559L1038,348L817,338Z" fill="#eaf1e7" stroke="#eaf1e7" stroke-width="1.51"/><path d="M617,560L614,773L820,559Z" fill="#e6f0e2" stroke="#e6f0e2" stroke-width="1.51"/><path d="M820,559L1039,560L1038,348Z" fill="#e1f1dd" stroke="#e1f1dd" stroke-width="1.51"/><path d="M406,556L614,773L617,560Z" fill="#e1e5de" stroke="#e1e5de" stroke-width="1.51"/><path d="M832,772L1039,560L820,559Z" fill="#dbf0d5" stroke="#dbf0d5" stroke-width="1.51"/><path d="M824,121L600,127L817,338Z" fill="#e5dae7" stroke="#e5dae7" stroke-width="1.51"/><path d="M817,338L600,127L610,344Z" fill="#ede1ee" stroke="#ede1ee" stroke-width="1.51"/><path d="M614,773L832,772L820,559Z" fill="#daefd6" stroke="#daefd6" stroke-width="1.51"/><path d="M1039,124L824,121L817,338Z" fill="#dbd8db" stroke="#dbd8db" stroke-width="1.51"/><path d="M834,994L1045,784L832,772Z" fill="#b7dfb2" stroke="#b7dfb2" stroke-width="1.51"/><path d="M406,556L404,774L614,773Z" fill="#d3dbd1" stroke="#d3dbd1" stroke-width="1.51"/><path d="M187,780L404,774L406,556Z" fill="#c8cbc8" stroke="#c8cbc8" stroke-width="1.51"/><path d="M1038,348L1039,124L817,338Z" fill="#dde0da" stroke="#dde0da" stroke-width="1.51"/><path d="M1270,335L1039,124L1038,348Z" fill="#cbd9c8" stroke="#cbd9c8" stroke-width="1.51"/><path d="M600,127L402,116L402,335Z" fill="#dbc4e0" stroke="#dbc4e0" stroke-width="1.51"/><path d="M401,-102L402,116L600,127Z" fill="#cbb0d3" stroke="#cbb0d3" stroke-width="1.51"/><path d="M1039,560L1266,563L1038,348Z" fill="#d0eacc" stroke="#d0eacc" stroke-width="1.51"/><path d="M832,772L1045,784L1039,560Z" fill="#c9eac3" stroke="#c9eac3" stroke-width="1.51"/><path d="M834,994L832,772L614,773Z" fill="#c2e2be" stroke="#c2e2be" stroke-width="1.51"/><path d="M402,335L173,551L406,556Z" fill="#ded2e3" stroke="#ded2e3" stroke-width="1.51"/><path d="M173,341L173,551L402,335Z" fill="#d7c5de" stroke="#d7c5de" stroke-width="1.51"/><path d="M183,115L173,341L402,335Z" fill="#d0b6d7" stroke="#d0b6d7" stroke-width="1.51"/><path d="M824,121L621,-101L600,127Z" fill="#d5c2dc" stroke="#d5c2dc" stroke-width="1.51"/><path d="M1033,-83L835,-95L824,121Z" fill="#c3b7c8" stroke="#c3b7c8" stroke-width="1.51"/><path d="M618,999L834,994L614,773Z" fill="#b4d7b2" stroke="#b4d7b2" stroke-width="1.51"/><path d="M402,116L183,115L402,335Z" fill="#cfb5d8" stroke="#cfb5d8" stroke-width="1.51"/><path d="M835,-95L621,-101L824,121Z" fill="#cbb9d2" stroke="#cbb9d2" stroke-width="1.51"/><path d="M386,981L618,999L614,773Z" fill="#b1ccaf" stroke="#b1ccaf" stroke-width="1.51"/><path d="M386,981L614,773L404,774Z" fill="#bcceb9" stroke="#bcceb9" stroke-width="1.51"/><path d="M1264,764L1266,563L1039,560Z" fill="#b9e1b3" stroke="#b9e1b3" stroke-width="1.51"/><path d="M1266,563L1270,335L1038,348Z" fill="#c7e2c4" stroke="#c7e2c4" stroke-width="1.51"/><path d="M1039,124L1033,-83L824,121Z" fill="#c5c1c9" stroke="#c5c1c9" stroke-width="1.51"/><path d="M1264,123L1033,-83L1039,124Z" fill="#b6bbb8" stroke="#b6bbb8" stroke-width="1.51"/><path d="M173,551L187,780L406,556Z" fill="#cbc6ce" stroke="#cbc6ce" stroke-width="1.51"/><path d="M187,780L386,981L404,774Z" fill="#b0bfb2" stroke="#b0bfb2" stroke-width="1.51"/><path d="M1045,784L1264,764L1039,560Z" fill="#b9e3b2" stroke="#b9e3b2" stroke-width="1.51"/><path d="M834,994L1040,988L1045,784Z" fill="#a1d49d" stroke="#a1d49d" stroke-width="1.51"/><path d="M182,-86L183,115L402,116Z" fill="#b898c7" stroke="#b898c7" stroke-width="1.51"/><path d="M1270,991L1264,764L1045,784Z" fill="#95d091" stroke="#95d091" stroke-width="1.51"/><path d="M1266,563L1481,346L1270,335Z" fill="#afd3ae" stroke="#afd3ae" stroke-width="1.51"/><path d="M621,-101L401,-102L600,127Z" fill="#c7abcf" stroke="#c7abcf" stroke-width="1.51"/><path d="M1270,335L1264,123L1039,124Z" fill="#bac9b9" stroke="#bac9b9" stroke-width="1.51"/><path d="M-43,344L-31,554L173,341Z" fill="#c4a8cc" stroke="#c4a8cc" stroke-width="1.51"/><path d="M173,341L-31,554L173,551Z" fill="#c9b6d0" stroke="#c9b6d0" stroke-width="1.51"/><path d="M173,551L-32,765L187,780Z" fill="#b4b0b8" stroke="#b4b0b8" stroke-width="1.51"/><path d="M401,-102L182,-86L402,116Z" fill="#b696c4" stroke="#b696c4" stroke-width="1.51"/><path d="M-31,118L-43,344L173,341Z" fill="#bc9ac5" stroke="#bc9ac5" stroke-width="1.51"/><path d="M834,994L831,1197L1040,988Z" fill="#8fc190" stroke="#8fc190" stroke-width="1.51"/><path d="M618,999L831,1197L834,994Z" fill="#98c39a" stroke="#98c39a" stroke-width="1.51"/><path d="M602,1200L831,1197L618,999Z" fill="#8fb693" stroke="#8fb693" stroke-width="1.51"/><path d="M386,981L602,1200L618,999Z" fill="#97b698" stroke="#97b698" stroke-width="1.51"/><path d="M392,1219L602,1200L386,981Z" fill="#87a48b" stroke="#87a48b" stroke-width="1.51"/><path d="M-31,118L173,341L183,115Z" fill="#ba9bc6" stroke="#ba9bc6" stroke-width="1.51"/><path d="M-32,765L172,990L187,780Z" fill="#9da4a1" stroke="#9da4a1" stroke-width="1.51"/><path d="M187,780L172,990L386,981Z" fill="#9cae9f" stroke="#9cae9f" stroke-width="1.51"/><path d="M823,-319L621,-101L835,-95Z" fill="#bd9ec2" stroke="#bd9ec2" stroke-width="1.51"/><path d="M823,-319L606,-313L621,-101Z" fill="#b68dbb" stroke="#b68dbb" stroke-width="1.51"/><path d="M621,-101L606,-313L401,-102Z" fill="#b890be" stroke="#b890be" stroke-width="1.51"/><path d="M401,-102L172,-307L182,-86Z" fill="#a173af" stroke="#a173af" stroke-width="1.51"/><path d="M1270,335L1485,126L1264,123Z" fill="#a2bba3" stroke="#a2bba3" stroke-width="1.51"/><path d="M1488,553L1481,346L1266,563Z" fill="#a2cda2" stroke="#a2cda2" stroke-width="1.51"/><path d="M1054,-317L823,-319L835,-95Z" fill="#ad8eae" stroke="#ad8eae" stroke-width="1.51"/><path d="M1264,123L1272,-89L1033,-83Z" fill="#a4aaa7" stroke="#a4aaa7" stroke-width="1.51"/><path d="M1485,126L1272,-89L1264,123Z" fill="#94a798" stroke="#94a798" stroke-width="1.51"/><path d="M1489,767L1488,553L1266,563Z" fill="#95c994" stroke="#95c994" stroke-width="1.51"/><path d="M1040,988L1270,991L1045,784Z" fill="#8fcc8d" stroke="#8fcc8d" stroke-width="1.51"/><path d="M1257,1205L1270,991L1040,988Z" fill="#6cb270" stroke="#6cb270" stroke-width="1.51"/><path d="M1054,-317L835,-95L1033,-83Z" fill="#ae9bb0" stroke="#ae9bb0" stroke-width="1.51"/><path d="M1489,767L1266,563L1264,764Z" fill="#95ce93" stroke="#95ce93" stroke-width="1.51"/><path d="M-31,554L-32,765L173,551Z" fill="#b8aabd" stroke="#b8aabd" stroke-width="1.51"/><path d="M-259,560L-32,765L-31,554Z" fill="#ae93af" stroke="#ae93af" stroke-width="1.51"/><path d="M182,-86L-31,118L183,115Z" fill="#ab87bb" stroke="#ab87bb" stroke-width="1.51"/><path d="M182,-86L-50,-81L-31,118Z" fill="#9d72ad" stroke="#9d72ad" stroke-width="1.51"/><path d="M606,-313L406,-310L401,-102Z" fill="#ac7cb3" stroke="#ac7cb3" stroke-width="1.51"/><path d="M-30,-320L406,-310L606,-313Z" fill="#94649f" stroke="#94649f" stroke-width="1.51"/><path d="M1695,351L1485,126L1481,346Z" fill="#8daa90" stroke="#8daa90" stroke-width="1.51"/><path d="M1481,346L1485,126L1270,335Z" fill="#9ebc9f" stroke="#9ebc9f" stroke-width="1.51"/><path d="M1471,987L1489,767L1264,764Z" fill="#73ba74" stroke="#73ba74" stroke-width="1.51"/><path d="M831,1197L1055,1213L1040,988Z" fill="#7cb37f" stroke="#7cb37f" stroke-width="1.51"/><path d="M1270,991L1471,987L1264,764Z" fill="#6eb970" stroke="#6eb970" stroke-width="1.51"/><path d="M602,1200L1055,1213L831,1197Z" fill="#81ab84" stroke="#81ab84" stroke-width="1.51"/><path d="M602,1200L392,1219L1055,1213Z" fill="#87a98b" stroke="#87a98b" stroke-width="1.51"/><path d="M172,990L392,1219L386,981Z" fill="#88a08d" stroke="#88a08d" stroke-width="1.51"/><path d="M1263,-300L1033,-83L1272,-89Z" fill="#979298" stroke="#979298" stroke-width="1.51"/><path d="M1263,-300L1054,-317L1033,-83Z" fill="#9a8999" stroke="#9a8999" stroke-width="1.51"/><path d="M1474,1201L1471,987L1270,991Z" fill="#479b52" stroke="#479b52" stroke-width="1.51"/><path d="M1484,-101L1263,-300L1272,-89Z" fill="#808382" stroke="#808382" stroke-width="1.51"/><path d="M1055,1213L1257,1205L1040,988Z" fill="#6bac6f" stroke="#6bac6f" stroke-width="1.51"/><path d="M406,-310L172,-307L401,-102Z" fill="#a16eab" stroke="#a16eab" stroke-width="1.51"/><path d="M-30,-320L172,-307L406,-310Z" fill="#875494" stroke="#875494" stroke-width="1.51"/><path d="M-247,133L-248,346L-43,344Z" fill="#ab7bb0" stroke="#ab7bb0" stroke-width="1.51"/><path d="M172,-307L-50,-81L182,-86Z" fill="#9463a3" stroke="#9463a3" stroke-width="1.51"/><path d="M-32,765L-47,992L172,990Z" fill="#8a928e" stroke="#8a928e" stroke-width="1.51"/><path d="M172,990L166,1217L392,1219Z" fill="#768c7e" stroke="#768c7e" stroke-width="1.51"/><path d="M-257,784L-47,992L-32,765Z" fill="#8e858d" stroke="#8e858d" stroke-width="1.51"/><path d="M-248,346L-31,554L-43,344Z" fill="#ba93be" stroke="#ba93be" stroke-width="1.51"/><path d="M1485,126L1484,-101L1272,-89Z" fill="#829388" stroke="#829388" stroke-width="1.51"/><path d="M1707,-103L1484,-101L1485,126Z" fill="#6f8178" stroke="#6f8178" stroke-width="1.51"/><path d="M-41,1199L166,1217L172,990Z" fill="#6b7c75" stroke="#6b7c75" stroke-width="1.51"/><path d="M-247,133L-43,344L-31,118Z" fill="#aa7bb3" stroke="#aa7bb3" stroke-width="1.51"/><path d="M-248,346L-259,560L-31,554Z" fill="#b18cb4" stroke="#b18cb4" stroke-width="1.51"/><path d="M1488,553L1695,351L1481,346Z" fill="#92b895" stroke="#92b895" stroke-width="1.51"/><path d="M1697,549L1695,351L1488,553Z" fill="#88b18c" stroke="#88b18c" stroke-width="1.51"/><path d="M1697,549L1488,553L1489,767Z" fill="#83b785" stroke="#83b785" stroke-width="1.51"/><path d="M1705,781L1697,549L1489,767Z" fill="#71a974" stroke="#71a974" stroke-width="1.51"/><path d="M-248,346L-264,-90L-259,560Z" fill="#a073a5" stroke="#a073a5" stroke-width="1.51"/><path d="M-50,-81L-247,133L-31,118Z" fill="#9a67a7" stroke="#9a67a7" stroke-width="1.51"/><path d="M-259,560L-257,784L-32,765Z" fill="#9c869c" stroke="#9c869c" stroke-width="1.51"/><path d="M-47,992L-41,1199L172,990Z" fill="#727e78" stroke="#727e78" stroke-width="1.51"/><path d="M1697,549L1707,129L1695,351Z" fill="#829d86" stroke="#829d86" stroke-width="1.51"/><path d="M1695,351L1707,129L1485,126Z" fill="#7e9884" stroke="#7e9884" stroke-width="1.51"/><path d="M1695,997L1705,781L1489,767Z" fill="#569c5d" stroke="#569c5d" stroke-width="1.51"/><path d="M1697,549L1705,781L1707,129Z" fill="#82a786" stroke="#82a786" stroke-width="1.51"/><path d="M1695,997L1489,767L1471,987Z" fill="#4e9e58" stroke="#4e9e58" stroke-width="1.51"/><path d="M-253,1000L-41,1199L-47,992Z" fill="#69696c" stroke="#69696c" stroke-width="1.51"/><path d="M1257,1205L1474,1201L1270,991Z" fill="#469852" stroke="#469852" stroke-width="1.51"/><path d="M1055,1213L1474,1201L1257,1205Z" fill="#4c9355" stroke="#4c9355" stroke-width="1.51"/><path d="M172,-307L-30,-320L-50,-81Z" fill="#864a94" stroke="#864a94" stroke-width="1.51"/><path d="M-50,-81L-264,-90L-247,133Z" fill="#8a5397" stroke="#8a5397" stroke-width="1.51"/><path d="M823,-319L-30,-320L606,-313Z" fill="#a072a6" stroke="#a072a6" stroke-width="1.51"/><path d="M1701,-299L1479,-308L1484,-101Z" fill="#605e63" stroke="#605e63" stroke-width="1.51"/><path d="M1484,-101L1479,-308L1263,-300Z" fill="#716e72" stroke="#716e72" stroke-width="1.51"/><path d="M1263,-300L1479,-308L1054,-317Z" fill="#7a7379" stroke="#7a7379" stroke-width="1.51"/><path d="M-257,784L-253,1000L-47,992Z" fill="#797378" stroke="#797378" stroke-width="1.51"/><path d="M-248,-310L-264,-90L-50,-81Z" fill="#7a3887" stroke="#7a3887" stroke-width="1.51"/><path d="M-247,133L-264,-90L-248,346Z" fill="#92629c" stroke="#92629c" stroke-width="1.51"/><path d="M1474,1201L1695,997L1471,987Z" fill="#328944" stroke="#328944" stroke-width="1.51"/><path d="M1707,129L1707,-103L1485,126Z" fill="#708379" stroke="#708379" stroke-width="1.51"/><path d="M-30,-320L-248,-310L-50,-81Z" fill="#7a3287" stroke="#7a3287" stroke-width="1.51"/><path d="M-253,1000L-247,1215L-41,1199Z" fill="#58575b" stroke="#58575b" stroke-width="1.51"/><path d="M-41,1199L-247,1215L166,1217Z" fill="#5b5d62" stroke="#5b5d62" stroke-width="1.51"/><path d="M166,1217L-247,1215L392,1219Z" fill="#636f6d" stroke="#636f6d" stroke-width="1.51"/><path d="M1474,1201L1699,1197L1695,997Z" fill="#1b7536" stroke="#1b7536" stroke-width="1.51"/><path d="M1695,997L1699,1197L1705,781Z" fill="#328141" stroke="#328141" stroke-width="1.51"/><path d="M1055,1213L1699,1197L1474,1201Z" fill="#338442" stroke="#338442" stroke-width="1.51"/><path d="M1707,-103L1701,-299L1484,-101Z" fill="#5d6163" stroke="#5d6163" stroke-width="1.51"/></svg>