<?xml version="1.0" encoding="utf-8"?>
<!-- Generator: Adobe Illustrator 20.1.0, SVG Export Plug-In . SVG Version: 6.00 Build 0)  -->
<svg version="1.1" id="Layer_1" xmlns="http://www.w3.org/2000/svg" xmlns:xlink="http://www.w3.org/1999/xlink" x="0px" y="0px"
	 viewBox="0 0 12.3 21.5" style="enable-background:new 0 0 12.3 21.5;" xml:space="preserve">
<style type="text/css">
	.st0{display:none;}
	.st1{display:inline;fill:#231F20;}
	.st2{display:inline;fill:#EB2027;}
	.st3{display:inline;}
	.st4{fill:#EB2027;}
	.st5{fill:#00ACED;}
	.st6{fill:none;}
</style>
<g class="st0">
	
		<rect id="XMLID_89_" x="6.2" y="6.2" transform="matrix(4.553672e-11 1 -1 4.553672e-11 15.3819 9.689687e-04)" class="st1" width="3.1" height="3.1"/>
	
		<rect id="XMLID_88_" x="3.1" y="3.1" transform="matrix(4.553672e-11 1 -1 4.553672e-11 9.2293 1.972826e-08)" class="st1" width="3.1" height="3.1"/>
	
		<rect id="XMLID_87_" x="0" y="0" transform="matrix(4.553672e-11 1 -1 4.553672e-11 3.0758 2.014076e-08)" class="st1" width="3.1" height="3.1"/>
	
		<rect id="XMLID_85_" x="9.2" y="9.2" transform="matrix(4.198845e-11 1 -1 4.198845e-11 21.5345 -7.283578e-10)" class="st1" width="3.1" height="3.1"/>
	
		<rect id="XMLID_84_" x="6.2" y="12.3" transform="matrix(4.553672e-11 1 -1 4.553672e-11 21.5354 6.1526)" class="st1" width="3.1" height="3.1"/>
	
		<rect id="XMLID_80_" x="0" y="9.2" transform="matrix(4.553672e-11 1 -1 4.553672e-11 12.3051 9.2313)" class="st2" width="3.1" height="3.1"/>
	<g id="XMLID_73_" class="st3">
		
			<rect id="XMLID_78_" x="6.2" y="9.2" transform="matrix(4.553672e-11 1 -1 4.553672e-11 18.4596 3.0768)" class="st4" width="3.1" height="3.1"/>
		
			<rect id="XMLID_77_" x="3.1" y="12.3" transform="matrix(4.257998e-11 1 -1 4.257998e-11 18.4587 9.2293)" class="st4" width="3.1" height="3.1"/>
		
			<rect id="XMLID_76_" x="0" y="15.4" transform="matrix(4.494520e-11 1 -1 4.494520e-11 18.4587 15.3829)" class="st4" width="3.1" height="3.1"/>
		
			<rect id="XMLID_75_" x="3.1" y="6.2" transform="matrix(-4.553685e-11 -1 1 -4.553685e-11 -3.0777 12.3071)" class="st4" width="3.1" height="3.1"/>
		
			<rect id="XMLID_74_" x="0" y="3.1" transform="matrix(-4.553685e-11 -1 1 -4.553685e-11 -3.0777 6.1535)" class="st4" width="3.1" height="3.1"/>
	</g>
	
		<rect id="XMLID_65_" x="3.1" y="15.4" transform="matrix(4.553672e-11 1 -1 4.553672e-11 21.5354 12.3061)" class="st1" width="3.1" height="3.1"/>
	
		<rect id="XMLID_64_" x="0" y="18.5" transform="matrix(4.612825e-11 1 -1 4.612825e-11 21.5354 18.4596)" class="st1" width="3.1" height="3.1"/>
	
		<rect id="XMLID_63_" x="0" y="12.3" transform="matrix(4.553672e-11 1 -1 4.553672e-11 15.3829 12.3071)" class="st1" width="3.1" height="3.1"/>
	
		<rect id="XMLID_62_" x="0" y="6.2" transform="matrix(4.257998e-11 1 -1 4.257998e-11 9.2293 6.1535)" class="st1" width="3.1" height="3.1"/>
	
		<rect id="XMLID_55_" x="3.1" y="9.2" transform="matrix(4.553672e-11 1 -1 4.553672e-11 15.3819 6.1545)" class="st1" width="3.1" height="3.1"/>
</g>
<g>
	
		<rect id="XMLID_17_" x="6.2" y="6.2" transform="matrix(4.553672e-11 1 -1 4.553672e-11 15.3819 9.689687e-04)" class="st5" width="3.1" height="3.1"/>
	
		<rect id="XMLID_16_" x="3.1" y="3.1" transform="matrix(4.553672e-11 1 -1 4.553672e-11 9.2293 1.972826e-08)" class="st5" width="3.1" height="3.1"/>
	
		<rect id="XMLID_15_" x="0" y="0" transform="matrix(4.553672e-11 1 -1 4.553672e-11 3.0758 2.014076e-08)" class="st5" width="3.1" height="3.1"/>
	
		<rect id="XMLID_14_" x="9.2" y="9.2" transform="matrix(4.198845e-11 1 -1 4.198845e-11 21.5345 -7.283578e-10)" class="st5" width="3.1" height="3.1"/>
	
		<rect id="XMLID_13_" x="6.2" y="12.3" transform="matrix(4.553672e-11 1 -1 4.553672e-11 21.5354 6.1526)" class="st5" width="3.1" height="3.1"/>
	
		<rect id="XMLID_12_" x="0" y="9.2" transform="matrix(4.553672e-11 1 -1 4.553672e-11 12.3051 9.2313)" class="st6" width="3.1" height="3.1"/>
	<g id="XMLID_6_">
		
			<rect id="XMLID_11_" x="6.2" y="9.2" transform="matrix(4.553672e-11 1 -1 4.553672e-11 18.4596 3.0768)" class="st6" width="3.1" height="3.1"/>
		
			<rect id="XMLID_10_" x="3.1" y="12.3" transform="matrix(4.257998e-11 1 -1 4.257998e-11 18.4587 9.2293)" class="st6" width="3.1" height="3.1"/>
		
			<rect id="XMLID_9_" x="0" y="15.4" transform="matrix(4.494520e-11 1 -1 4.494520e-11 18.4587 15.3829)" class="st6" width="3.1" height="3.1"/>
		
			<rect id="XMLID_8_" x="3.1" y="6.2" transform="matrix(-4.553685e-11 -1 1 -4.553685e-11 -3.0777 12.3071)" class="st6" width="3.1" height="3.1"/>
		
			<rect id="XMLID_7_" x="0" y="3.1" transform="matrix(-4.553685e-11 -1 1 -4.553685e-11 -3.0777 6.1535)" class="st6" width="3.1" height="3.1"/>
	</g>
	
		<rect id="XMLID_5_" x="3.1" y="15.4" transform="matrix(4.553672e-11 1 -1 4.553672e-11 21.5354 12.3061)" class="st5" width="3.1" height="3.1"/>
	
		<rect id="XMLID_4_" x="0" y="18.5" transform="matrix(4.612825e-11 1 -1 4.612825e-11 21.5354 18.4596)" class="st5" width="3.1" height="3.1"/>
	
		<rect id="XMLID_3_" x="0" y="12.3" transform="matrix(4.553672e-11 1 -1 4.553672e-11 15.3829 12.3071)" class="st5" width="3.1" height="3.1"/>
	
		<rect id="XMLID_2_" x="0" y="6.2" transform="matrix(4.257998e-11 1 -1 4.257998e-11 9.2293 6.1535)" class="st5" width="3.1" height="3.1"/>
	
		<rect id="XMLID_1_" x="3.1" y="9.2" transform="matrix(4.553672e-11 1 -1 4.553672e-11 15.3819 6.1545)" class="st5" width="3.1" height="3.1"/>
</g>
</svg>
