<?xml version="1.0" encoding="utf-8"?>
<!-- Generator: Adobe Illustrator 20.1.0, SVG Export Plug-In . SVG Version: 6.00 Build 0)  -->
<svg version="1.1" id="Layer_2" xmlns="http://www.w3.org/2000/svg" xmlns:xlink="http://www.w3.org/1999/xlink" x="0px" y="0px"
	 viewBox="0 0 257.9 46.5" style="enable-background:new 0 0 257.9 46.5;" xml:space="preserve">
<style type="text/css">
	.st0{fill:#00ADEE;}
	.st1{fill:#FFF100;}
	.st2{fill:#FFFFFF;}
	.st3{enable-background:new    ;}
	.st4{fill:none;stroke:#00ADEE;stroke-miterlimit:10;}
</style>
<g id="XMLID_5458_">
	<path id="XMLID_5456_" class="st0" d="M8.6,8.6h13.8h8.5v21.2C30.9,41.5,25,47,15.1,47C5.6,47.1,0,41.8,0,29.7V8.6H8.6z"/>
	<path id="XMLID_5454_" class="st1" d="M41.5,46.5h-8.9L44.2,8.6h11.2l11.7,37.8H58L41.5,46.5L41.5,46.5z"/>
	<g id="XMLID_5441_">
		<path id="XMLID_5452_" class="st2" d="M83.2,46.5c-3.5,0-7-0.8-9.1-1.9l2-5c1.7,0.9,4.4,1.8,6.9,1.8c4.1,0,6.8-2.1,6.8-5.5
			c0-3.1-2.8-4.7-5.9-6c-4.4-2-9.4-4.6-9.4-10.8c0-6.3,4.6-10.3,11.6-10.3c3.5,0,6.5,0.9,8.3,1.9l-1.8,4.7c-1.4-0.8-3.9-1.7-6.2-1.7
			c-3.6,0-6.1,1.9-6.1,5.1c0,3.1,3.1,4.8,6.2,6.2c4.2,1.9,9.2,4.5,9.2,10.7C95.7,42.2,90.8,46.5,83.2,46.5z"/>
		<path id="XMLID_5449_" class="st2" d="M115.9,31.4c-1.4,0-2.9-0.2-3.9-0.3v14.8h-5.6V10.6c2.6-1.2,6.2-1.9,10.1-1.9
			c8.8,0,13.6,4.5,13.6,11.5C130.1,26.6,125.2,31.4,115.9,31.4z M116.6,13.1c-1.8,0-3.5,0.4-4.6,0.8v12.9c0.9,0.2,2.3,0.3,3.7,0.3
			c5.7,0,8.8-2.6,8.8-6.9C124.5,15.4,121.7,13.1,116.6,13.1z"/>
		<path id="XMLID_5446_" class="st2" d="M160.4,45.9l-3.2-9.7h-13.6l-3.2,9.7h-6L147,9.2h6.7l12.7,36.7H160.4z M151.4,18.3
			c-0.7-2-1.1-4.4-1.1-4.4h-0.1c0,0-0.4,2.3-1.1,4.4L144.7,32H156L151.4,18.3z"/>
		<path id="XMLID_5444_" class="st2" d="M188.7,46.5c-7.9,0-14.5-6.1-14.5-18.9s6.6-18.9,14.5-18.9c3.2,0,6.2,0.8,7.9,1.9l-1.9,4.6
			c-1.1-0.8-3.1-1.5-5.4-1.5c-5.2,0-9.2,4.5-9.2,13.8s4,13.8,9.2,13.8c2.3,0,4.3-0.7,5.4-1.5l1.9,4.7
			C194.9,45.7,192,46.5,188.7,46.5z"/>
		<path id="XMLID_5442_" class="st2" d="M206.8,45.9V9.2h19.3V14h-13.6v10.8h12.4v4.7h-12.4v11.6h13.6v4.8
			C226.1,45.9,206.8,45.9,206.8,45.9z"/>
	</g>
	<g id="XMLID_5438_">
		<g id="XMLID_5440_" class="st3">
			<path class="st0" d="M235.4,8.7V6.3c0-0.2,0-0.4,0.1-0.6c0.1-0.2,0.2-0.4,0.4-0.5c0.2-0.1,0.4-0.2,0.7-0.3s0.6-0.1,1-0.1h2.9
				c0.6,0,0.9-0.2,0.9-0.6V3.8c0-0.4-0.3-0.6-0.9-0.6h-4.8V2.2h4.8c0.4,0,0.8,0,1,0.1c0.3,0.1,0.5,0.2,0.7,0.3
				c0.2,0.1,0.3,0.3,0.4,0.5c0.1,0.2,0.1,0.4,0.1,0.6v0.4c0,0.2,0,0.4-0.1,0.6c-0.1,0.2-0.2,0.4-0.4,0.5c-0.2,0.1-0.4,0.2-0.7,0.3
				c-0.3,0.1-0.6,0.1-1,0.1h-2.9c-0.6,0-0.9,0.2-0.9,0.6v1.4h6v0.9H235.4z"/>
			<path class="st0" d="M244,8.7V7.5h1.6v1.2H244z"/>
			<path class="st0" d="M249.1,8.7c-0.4,0-0.8,0-1-0.1c-0.3-0.1-0.5-0.2-0.7-0.3c-0.2-0.1-0.3-0.3-0.4-0.5c-0.1-0.2-0.1-0.4-0.1-0.6
				V3.8c0-0.2,0-0.4,0.1-0.6c0.1-0.2,0.2-0.4,0.4-0.5c0.2-0.1,0.4-0.2,0.7-0.3c0.3-0.1,0.6-0.1,1-0.1h3.4c0.4,0,0.8,0,1,0.1
				s0.5,0.2,0.7,0.3c0.2,0.1,0.3,0.3,0.4,0.5c0.1,0.2,0.1,0.4,0.1,0.6v3.3c0,0.2,0,0.4-0.1,0.6c-0.1,0.2-0.2,0.4-0.4,0.5
				c-0.2,0.1-0.4,0.2-0.7,0.3c-0.3,0.1-0.6,0.1-1,0.1H249.1z M253.3,3.8c0-0.4-0.3-0.6-0.9-0.6h-3.4c-0.6,0-0.9,0.2-0.9,0.6v3.3
				c0,0.4,0.3,0.6,0.9,0.6h3.4c0.6,0,0.9-0.2,0.9-0.6V3.8z"/>
		</g>
		<rect id="XMLID_5439_" x="232.4" y="0.5" class="st4" width="25" height="10"/>
	</g>
</g>
</svg>
