<?xml version="1.0" encoding="utf-8"?>
<!-- Generator: Adobe Illustrator 20.1.0, SVG Export Plug-In . SVG Version: 6.00 Build 0)  -->
<svg version="1.1" id="Layer_2" xmlns="http://www.w3.org/2000/svg" xmlns:xlink="http://www.w3.org/1999/xlink" x="0px" y="0px"
	 viewBox="0 0 595.3 595.3" style="enable-background:new 0 0 595.3 595.3;" xml:space="preserve">
<style type="text/css">
	.st0{fill:#00ADEE;}
	.st1{fill:#FFF100;}
	.st2{fill:#FFFFFF;}
	.st3{font-family:'PirulenRg-Regular';}
	.st4{font-size:10.1456px;}
	.st5{fill:none;stroke:#00ADEE;stroke-miterlimit:10;}
</style>
<g id="XMLID_5458_">
	<path id="XMLID_5456_" class="st0" d="M221.5,210.5h13.8h8.5v21.2c0,11.7-5.9,17.2-15.8,17.2c-9.5,0-15.2-5.3-15.2-17.3v-21.1
		H221.5z"/>
	<path id="XMLID_5454_" class="st1" d="M254.5,248.3h-8.9l11.6-37.8h11.2l11.7,37.8h-9.2H254.5z"/>
	<g id="XMLID_5441_">
		<path id="XMLID_5452_" class="st2" d="M296.2,248.3c-3.5,0-7-0.8-9.1-1.9l2-5c1.7,0.9,4.4,1.8,6.9,1.8c4.1,0,6.8-2.1,6.8-5.5
			c0-3.1-2.8-4.7-5.9-6c-4.4-2-9.4-4.6-9.4-10.8c0-6.3,4.6-10.3,11.6-10.3c3.5,0,6.5,0.9,8.3,1.9l-1.8,4.7c-1.4-0.8-3.9-1.7-6.2-1.7
			c-3.6,0-6.1,1.9-6.1,5.1c0,3.1,3.1,4.8,6.2,6.2c4.2,1.9,9.2,4.5,9.2,10.7C308.6,244,303.8,248.3,296.2,248.3z"/>
		<path id="XMLID_5449_" class="st2" d="M328.8,233.2c-1.4,0-2.9-0.2-3.9-0.3v14.8h-5.6v-35.3c2.6-1.2,6.2-1.9,10.1-1.9
			c8.8,0,13.6,4.5,13.6,11.5C343.1,228.5,338.1,233.2,328.8,233.2z M329.5,214.9c-1.8,0-3.5,0.4-4.6,0.8v12.9
			c0.9,0.2,2.3,0.3,3.7,0.3c5.7,0,8.8-2.6,8.8-6.9C337.5,217.3,334.7,214.9,329.5,214.9z"/>
		<path id="XMLID_5446_" class="st2" d="M373.3,247.7l-3.2-9.7h-13.6l-3.2,9.7h-6l12.7-36.7h6.7l12.7,36.7H373.3z M364.4,220.1
			c-0.7-2-1.1-4.4-1.1-4.4h-0.1c0,0-0.4,2.3-1.1,4.4l-4.5,13.7h11.3L364.4,220.1z"/>
		<path id="XMLID_5444_" class="st2" d="M401.6,248.3c-7.9,0-14.5-6.1-14.5-18.9c0-12.8,6.6-18.9,14.5-18.9c3.2,0,6.2,0.8,7.9,1.9
			l-1.9,4.6c-1.1-0.8-3.1-1.5-5.4-1.5c-5.2,0-9.2,4.5-9.2,13.8c0,9.3,4,13.8,9.2,13.8c2.3,0,4.3-0.7,5.4-1.5l1.9,4.7
			C407.8,247.5,405,248.3,401.6,248.3z"/>
		<path id="XMLID_5442_" class="st2" d="M419.8,247.7V211h19.3v4.8h-13.6v10.8h12.4v4.7h-12.4v11.6h13.6v4.8H419.8z"/>
	</g>
	<g id="XMLID_5438_">
		<text id="XMLID_5440_" transform="matrix(1 0 0 0.9 447.7939 210.5114)" class="st0 st3 st4">2.0</text>
		<rect id="XMLID_5439_" x="445.3" y="202.4" class="st5" width="25" height="10"/>
	</g>
</g>
</svg>
