<?xml version="1.0" encoding="utf-8"?>
<!-- Generator: Adobe Illustrator 20.1.0, SVG Export Plug-In . SVG Version: 6.00 Build 0)  -->
<svg version="1.1" id="sprite" xmlns="http://www.w3.org/2000/svg" xmlns:xlink="http://www.w3.org/1999/xlink" x="0px" y="0px"
	 viewBox="0 0 192.7 192.6" style="enable-background:new 0 0 192.7 192.6;" xml:space="preserve">
<style type="text/css">
	g{display: none;}
    g:target{display:inline;}
	.st0{fill:#00BFA5;}
	.st1{fill:#00897B;}
	.st2{fill:#B1CF33;}
	.st3{fill:#FFFFFF;}
	.st4{fill:#74B78C;}
	.st5{fill:#527090;}
	.st6{fill:#879CB2;}
	.st7{fill:#B5306F;}
	.st8{fill:#D43882;}
	.st9{fill:#E63039;}
	.st10{fill:#BA272D;}
	.st11{display:none;}
	.st12{display:inline;fill:#00897B;}
	.st13{display:inline;fill:#00BFA5;}
	.st14{fill:#8E4F9D;}
	.st15{fill:#C06BD4;}
	.st16{fill:#ED5B22;}
	.st17{fill:#FF7B47;}
	.st18{fill:#3C3744;}
</style>
<g id="ICONS_GREEN_N">
	<path class="st0" d="M117.2,188.3h59.5L163,171.1l-35.8-44.5l1.7-1.3c6-4.6,11.2-10.1,15.4-16.3c1.4-2.1,2.7-4.3,3.9-6.5
		c1.7-3.2,3-6.5,4.1-10c1.9-5.6,2.8-11.5,2.8-17.4c0.2-15.2-4.1-30.1-12.4-42.8C77.5,60.2,30.2,118.5,16.2,188.1h41.7V139h19.3
		l39.7,49.3H117.2z"/>
	<path class="st1" d="M180.2,185.7l-13.7-17.2l-33.2-41l3.7-3.3c11.4-10.4,19-24.3,21.7-39.5l0,0l0.4-2.8v-3.3c0-1.1,0-2.2,0-3.3
		c0.2-16-4.4-31.8-13.2-45.2l-2-3l0,0l-1.5-1.7c-4.9-5.9-10.8-11-17.4-15C113.9,3.4,100.9-0.3,87.7,0H6.9v192.4h55.4v-49.1h12.6
		l38.7,47.8l1.3,1.5h71L180.2,185.7z M57.9,139v49.3H16.2c14-69.6,61.3-127.8,126.6-155.7c8.3,12.7,12.6,27.6,12.4,42.8
		c0,5.9-1,11.8-2.8,17.4c-1.1,3.4-2.5,6.6-4.1,9.8c-1.1,2.2-2.3,4.3-3.7,6.3c-4.2,6.2-9.4,11.7-15.4,16.3l-1.7,1.3l35.6,44.7
		l13.7,17.2H117L77.2,139H57.9z M11.2,171.8V4.6h77.1c18.6-0.3,36.5,7.3,49.1,21.1C75.4,52.7,29,106.5,11.2,171.8z"/>
	<path class="st0" d="M88.3,4.6H11.2v167.2C29,106.5,75.4,52.7,137.4,25.6C124.8,11.9,106.9,4.2,88.3,4.6z"/>
</g>
<g id="ICONS_N">
	<path class="st2" d="M117.2,187.9h59.5L163,170.8l-35.8-44.5l1.7-1.3c6-4.6,11.2-10.1,15.4-16.3c1.4-2.1,2.7-4.3,3.9-6.5
		c1.7-3.2,3-6.5,4.1-10c1.9-5.6,2.8-11.5,2.8-17.4c0.2-15.2-4.1-30.1-12.4-42.8C77.5,59.9,30.2,118.1,16.2,187.7h41.7v-49.1h19.3
		l39.7,49.3H117.2z"/>
	<path class="st3" d="M180.2,185.3l-13.7-17.2l-33.2-41l3.7-3.3c11.4-10.4,19-24.3,21.7-39.5l0,0l0.4-2.8v-3.3c0-1.1,0-2.2,0-3.3
		c0.2-16-4.4-31.8-13.2-45.2l-1.7-2.8l0,0l-1.5-1.7h-0.2l-3.5-3.9c-5.1-5.4-11-10-17.6-13.5c-7.8-4.3-16.5-7-25.4-7.8h-89v192.4
		h55.4V143h12.6l38.7,47.8l1.3,1.5h71L180.2,185.3z M57.9,138.6v49.3H16.2c14-69.6,61.3-127.8,126.6-155.7
		c8.3,12.7,12.6,27.6,12.4,42.8c0,5.9-1,11.8-2.8,17.4c-1.1,3.4-2.5,6.6-4.1,9.8c-1.1,2.2-2.3,4.3-3.7,6.3
		c-4.2,6.2-9.4,11.7-15.4,16.3l-1.7,1.3l35.6,44.7l13.7,17.2H117l-39.7-49.3H57.9z M11.2,171.4V4.2h77.1
		c18.6-0.3,36.5,7.3,49.1,21.1C75.4,52.4,29,106.1,11.2,171.4z"/>
	<path class="st4" d="M88.3,4.2H11.2v167.2C29,106.1,75.4,52.4,137.4,25.3C124.8,11.6,106.9,3.9,88.3,4.2z"/>
</g>
<g id="ICONS_GREEN_WEB">
	<path class="st0" d="M3.7,104.2h185V23.9c0.1-8.9-7-16.1-15.8-16.2c-0.1,0-0.2,0-0.4,0H19.9C11,7.6,3.8,14.7,3.7,23.5
		c0,0.1,0,0.2,0,0.4V104.2z"/>
	<path class="st1" d="M172.4,4H19.9C8.9,4,0,12.9,0,23.9l0,0v94.7c0,11,8.9,19.9,19.9,19.9h0h45.5v2.2l-2.8,44v3.9h67.3v-3.9
		l-2.8-44v-2.2h45.7c11,0,19.9-8.9,19.9-19.9c0,0,0,0,0,0V23.9C192.5,12.8,183.5,4,172.4,4z M66.3,184.9l2.6-46.2h54.5l2.6,46.2
		H66.3z M19.9,134.8c-8.9,0.1-16.1-7-16.2-15.8c0-0.1,0-0.2,0-0.4v-9.2h185v9.2c0.1,8.9-7,16.1-15.8,16.2c-0.1,0-0.2,0-0.4,0H19.9z
		 M19.9,7.7h152.6c8.9-0.1,16.1,7,16.2,15.8c0,0.1,0,0.2,0,0.4v80.3H3.7V23.9C3.6,15,10.7,7.8,19.5,7.7C19.6,7.7,19.8,7.7,19.9,7.7z
		"/>
	<path class="st0" d="M188.7,118.6v-9.2H3.7v9.2c-0.1,8.9,7,16.1,15.8,16.2c0.1,0,0.2,0,0.4,0h152.6c8.9,0.1,16.1-7,16.2-15.8
		C188.7,118.8,188.7,118.7,188.7,118.6z"/>
	<polygon class="st0" points="68.9,138.7 66.3,184.9 126,184.9 123.4,138.7 	"/>
</g>
<g id="ICONS_WEB">
	<path class="st5" d="M3.7,104.2h185V23.9c0.1-8.9-7-16.1-15.8-16.2c-0.1,0-0.2,0-0.4,0H19.9C11,7.6,3.8,14.7,3.7,23.5
		c0,0.1,0,0.2,0,0.4V104.2z"/>
	<path class="st3" d="M172.4,4H19.9C8.9,4,0,12.9,0,23.9l0,0v94.7c0,11,8.9,19.9,19.9,19.9h0h45.5v2.2l-2.8,44v3.9h67.3v-3.9
		l-2.8-44v-2.2h45.7c11,0,19.9-8.9,19.9-19.9c0,0,0,0,0,0V23.9C192.5,12.8,183.5,4,172.4,4z M66.3,184.9l2.6-46.2h54.5l2.6,46.2
		H66.3z M19.9,134.8c-8.9,0.1-16.1-7-16.2-15.8c0-0.1,0-0.2,0-0.4v-9.2h185v9.2c0.1,8.9-7,16.1-15.8,16.2c-0.1,0-0.2,0-0.4,0H19.9z
		 M19.9,7.7h152.6c8.9-0.1,16.1,7,16.2,15.8c0,0.1,0,0.2,0,0.4v80.3H3.7V23.9C3.6,15,10.7,7.8,19.5,7.7C19.6,7.7,19.8,7.7,19.9,7.7z
		"/>
	<path class="st6" d="M188.7,118.6v-9.2H3.7v9.2c-0.1,8.9,7,16.1,15.8,16.2c0.1,0,0.2,0,0.4,0h152.6c8.9,0.1,16.1-7,16.2-15.8
		C188.7,118.8,188.7,118.7,188.7,118.6z"/>
	<polygon class="st5" points="68.9,138.7 66.3,184.9 126,184.9 123.4,138.7 	"/>
</g>
<g id="ICONS__GREEN_ILLUST">
	<path class="st0" d="M115.2,83h57v94.8H45.1V83h41.4v-9.3H5.6V189H187V73.7h-71.8V83z M25,147.6c-8.9,0-16.1-7.2-16.1-16.1
		s7.2-16.1,16.1-16.1s16.1,7.2,16.1,16.1C41,140.3,33.9,147.5,25,147.6z"/>
	<path class="st1" d="M25,123.5c-4.4,0-7.9,3.5-7.9,7.9c-0.1,4.3,3.3,7.8,7.6,7.9c0.1,0,0.2,0,0.3,0c4.4,0,7.9-3.5,7.9-7.9
		C32.9,127.1,29.3,123.5,25,123.5z"/>
	<path class="st0" d="M25,118.7c-7,0-12.7,5.7-12.7,12.7S18,144.1,25,144.1s12.7-5.7,12.7-12.7S32,118.7,25,118.7L25,118.7z
		 M25,139.3c-4.3,0.1-7.8-3.3-7.9-7.6c0-0.1,0-0.2,0-0.3c0-4.4,3.5-7.9,7.9-7.9s7.9,3.5,7.9,7.9C32.9,135.8,29.3,139.3,25,139.3
		C25,139.3,25,139.3,25,139.3z"/>
	<path class="st0" d="M91.6,96.4c0,1.4,0,2.8-0.2,4.1l-2.4,13.6h24l-2.4-13.6c-0.1-1.4-0.2-2.7-0.2-4.1V19.6c0-0.4-0.1-0.8-0.3-1.2
		l-0.9-1.4c-1-1.5-2.5-2.7-4.1-3.4l0,0c-2.7-1.4-5.9-1.4-8.6,0l0,0c-1.6,0.7-2.9,1.9-3.8,3.4c-0.3,0.4-0.6,0.9-0.9,1.4
		c-0.2,0.4-0.3,0.8-0.3,1.2V96.4z M104.3,102.4h-6.9V91.2h6.9V102.4z M104.3,90.2h-6.9V69.8h6.9V90.2z"/>
	<rect x="97.5" y="69.8" class="st1" width="6.9" height="20.4"/>
	<rect x="97.5" y="91.2" class="st1" width="6.9" height="11.2"/>
	<path class="st1" d="M190.4,70.3h-75.2V19.6c0-1.2-0.3-2.4-0.9-3.4l-1-1.9c-0.9-1.2-1.9-2.3-3.1-3.3c0-0.5,0-1,0-1.5
		c0-5.1-4.1-9.3-9.3-9.3c-5.1,0-9.3,4.1-9.3,9.3c0,0,0,0,0,0c0,0.5,0.1,1,0.2,1.5c-1.3,1-2.4,2.1-3.3,3.4l-1.2,1.9
		c-0.5,1.1-0.8,2.2-0.9,3.4v50.5H2.1v122.1h188.4V70.3H190.4z M187,189H5.6V73.7h80.9V83H45.1v94.8h127.1V83h-57v-9.3H187V189z
		 M106.1,9.1c0,0.6,0,1.2-0.2,1.7c-1.5-0.8-3.2-1.2-5-1.2c-1.7,0-3.4,0.3-5,1c0-0.5-0.2-1-0.2-1.5c0-2.8,2.3-5.2,5.2-5.2
		S106.1,6.3,106.1,9.1z M92,18.4c0.2-0.5,0.5-0.9,0.9-1.4c0.8-1.6,2.2-2.9,3.8-3.6l0,0c2.7-1.4,5.9-1.4,8.6,0l0,0
		c1.7,0.8,3.1,1.9,4.1,3.4l0.9,1.4c0.2,0.4,0.3,0.8,0.3,1.2v76.9c0,1.4,0,2.8,0.2,4.1l2.4,13.6h-24l2.4-13.6
		c0.1-1.4,0.2-2.7,0.2-4.1V19.6C91.6,19.2,91.8,18.8,92,18.4z M112.2,117.2l-8.1,19.4v0.3c-0.8,1.7-2.9,2.5-4.6,1.7
		c-0.8-0.3-1.4-0.8-1.7-1.5v-0.3l-8.4-19.4l-0.5-1.5h23.9L112.2,117.2z M86.3,96.6c0,1.1,0,2.2-0.2,3.3l-2.1,12.4
		c-0.3,1.8-0.2,3.7,0.5,5.5l8.2,21c0,0.3,0.2,0.5,0.3,0.9c1,1.7,2.5,3,4.3,3.8l1,0.3v2.6c0,2.6,4.5,2.6,4.5,0v-2.6
		c2.3-0.5,4.3-2.1,5.3-4.3l0.3-0.5l8.2-21c0.7-1.7,0.9-3.7,0.5-5.5l-2.1-12.5c-0.1-1.1-0.2-2.2-0.2-3.3V86.4h53.6v87.9H48.5V86.4
		h37.8L86.3,96.6z"/>
	<path class="st1" d="M25,115.3c-8.9,0-16.1,7.2-16.1,16.1s7.2,16.1,16.1,16.1s16.1-7.2,16.1-16.1C41.1,122.5,33.9,115.3,25,115.3
		L25,115.3z M25,144.1c-7,0-12.7-5.7-12.7-12.7S18,118.7,25,118.7s12.7,5.7,12.7,12.7S32,144.1,25,144.1L25,144.1z"/>
	<path class="st0" d="M48.5,86.4v87.9h120.2V86.4h-53.6v10.1c0,1.1,0,2.2,0.2,3.3l2.1,12.5c0.3,1.8,0.2,3.7-0.5,5.5l-8.2,21
		l-0.3,0.5c-1,2.2-3,3.7-5.3,4.3v2.6c0,2.6-4.5,2.6-4.5,0v-2.6l-1-0.3c-1.8-0.8-3.3-2.1-4.3-3.8c-0.2-0.3-0.3-0.5-0.3-0.9l-8.2-21
		c-0.7-1.7-0.9-3.7-0.5-5.5l2.1-12.4c0.1-1.1,0.2-2.2,0.2-3.3V86.4C86.3,86.4,48.5,86.4,48.5,86.4z"/>
	<path class="st0" d="M89.4,117.3l8.1,19.4v0.3c0.4,0.7,1,1.3,1.7,1.5c1.8,0.7,3.8,0,4.6-1.7v-0.3l8.1-19.4l0.5-1.5H88.9L89.4,117.3
		z"/>
	<path class="st0" d="M100.9,3.5C98,3.6,95.7,6,95.7,8.9c0,0.1,0,0.1,0,0.2c0,0.5,0.2,1,0.2,1.5c1.6-0.7,3.3-1,5-1
		c1.7,0,3.5,0.4,5,1.2c0.2-0.6,0.2-1.1,0.2-1.7c0.2-2.9-2-5.5-5-5.7C101,3.5,101,3.5,100.9,3.5z"/>
</g>
<g id="ICONS_ILLUST">
	<path class="st7" d="M115.2,82.6h57v94.8H45.1V82.6h41.4v-9.3H5.6v115.3H187V73.4h-71.8V82.6z M25,147.2c-8.9,0-16.1-7.2-16.1-16.1
		c0-8.9,7.2-16.1,16.1-16.1s16.1,7.2,16.1,16.1C41,140,33.9,147.1,25,147.2z"/>
	<path class="st3" d="M25,123.2c-4.4,0-7.9,3.5-7.9,7.9c-0.1,4.3,3.3,7.8,7.6,7.9c0.1,0,0.2,0,0.3,0c4.4,0,7.9-3.5,7.9-7.9
		C32.9,126.7,29.3,123.2,25,123.2z"/>
	<path class="st7" d="M25,118.4c-7,0-12.7,5.7-12.7,12.7c0,7,5.7,12.7,12.7,12.7s12.7-5.7,12.7-12.7C37.7,124.1,32,118.4,25,118.4
		L25,118.4z M25,139c-4.3,0.1-7.8-3.3-7.9-7.6c0-0.1,0-0.2,0-0.3c0-4.4,3.5-7.9,7.9-7.9s7.9,3.5,7.9,7.9C32.9,135.4,29.3,139,25,139
		C25,139,25,139,25,139z"/>
	<path class="st7" d="M91.6,96c0,1.4,0,2.8-0.2,4.1l-2.4,13.6h24l-2.4-13.6c-0.1-1.4-0.2-2.7-0.2-4.1V19.3c0-0.4-0.1-0.8-0.3-1.2
		l-0.9-1.4c-1-1.5-2.5-2.7-4.1-3.4l0,0c-2.7-1.4-5.9-1.4-8.6,0l0,0c-1.6,0.7-2.9,1.9-3.8,3.4c-0.3,0.4-0.6,0.9-0.9,1.4
		c-0.2,0.4-0.3,0.8-0.3,1.2V96z M104.3,102.1h-6.9V90.9h6.9V102.1z M104.3,89.9h-6.9V69.4h6.9V89.9z"/>
	<rect x="97.5" y="69.4" class="st3" width="6.9" height="20.4"/>
	<rect x="97.5" y="90.9" class="st3" width="6.9" height="11.2"/>
	<path class="st3" d="M190.4,69.9h-75.2V19.3c0-1.2-0.3-2.4-0.9-3.4l-1-1.9c-1-1.5-2.3-2.9-3.8-4c0-0.3,0-0.7,0-0.9
		c0-4.7-3.8-8.6-8.6-8.6s-8.6,3.8-8.6,8.6c0,0.3,0,0.6,0,0.9c-1.5,1.1-2.8,2.5-3.8,4.1L87.3,16c-0.5,1.1-0.8,2.2-0.9,3.4v50.5H2.1
		v122.1h188.4V69.9H190.4z M187,188.6H5.6V73.4h80.9v9.3H45.1v94.8h127.1V82.6h-57v-9.3H187V188.6z M92,18.1
		c0.2-0.5,0.5-0.9,0.9-1.4c0.8-1.6,2.2-2.9,3.8-3.6l0,0c2.7-1.4,5.9-1.4,8.6,0l0,0c1.7,0.8,3.1,1.9,4.1,3.4l0.9,1.4
		c0.2,0.4,0.3,0.8,0.3,1.2V96c0,1.4,0,2.8,0.2,4.1l2.4,13.6h-24l2.4-13.6c0.1-1.4,0.2-2.7,0.2-4.1V19.3C91.6,18.8,91.8,18.4,92,18.1
		z M112.2,116.8l-8.1,19.4v0.3c-0.8,1.7-2.9,2.5-4.6,1.7c-0.8-0.3-1.4-0.8-1.7-1.5v-0.3L89.4,117l-0.5-1.5h23.9L112.2,116.8z
		 M86.3,96.2c0,1.1,0,2.2-0.2,3.3l-2.1,12.4c-0.3,1.8-0.2,3.7,0.5,5.5l8.2,21c0,0.3,0.2,0.5,0.3,0.9c1,1.7,2.5,3,4.3,3.8l1,0.3v2.6
		c0,2.6,4.5,2.6,4.5,0v-2.6c2.3-0.5,4.3-2.1,5.3-4.3l0.3-0.5l8.2-21c0.7-1.7,0.9-3.7,0.5-5.5l-2.1-12.5c-0.1-1.1-0.2-2.2-0.2-3.3
		V86.1h53.6V174H48.5V86.1h37.8L86.3,96.2z M100.9,3.1c2.9,0.1,5.3,2.5,5.2,5.5c0,0.1,0,0.1,0,0.2c0,0.6,0,1.2-0.2,1.7
		c-1.5-0.8-3.2-1.2-5-1.2c-1.7,0-3.4,0.3-5,1c0-0.5-0.2-1-0.2-1.5c-0.2-2.9,2-5.5,5-5.7C100.8,3.1,100.8,3.1,100.9,3.1z"/>
	<path class="st3" d="M25,114.9c-8.9,0-16.1,7.2-16.1,16.1c0,8.9,7.2,16.1,16.1,16.1s16.1-7.2,16.1-16.1
		C41.1,122.2,33.9,114.9,25,114.9L25,114.9z M25,143.8c-7,0-12.7-5.7-12.7-12.7c0-7,5.7-12.7,12.7-12.7s12.7,5.7,12.7,12.7
		C37.7,138.1,32,143.8,25,143.8L25,143.8z"/>
	<path class="st8" d="M48.5,86.1V174h120.2V86.1h-53.6v10.1c0,1.1,0,2.2,0.2,3.3l2.1,12.5c0.3,1.8,0.2,3.7-0.5,5.5l-8.2,21l-0.3,0.5
		c-1,2.2-3,3.7-5.3,4.3v2.6c0,2.6-4.5,2.6-4.5,0v-2.6l-1-0.3c-1.8-0.8-3.3-2.1-4.3-3.8c-0.2-0.3-0.3-0.5-0.3-0.9l-8.2-21
		c-0.7-1.7-0.9-3.7-0.5-5.5l2.1-12.4c0.1-1.1,0.2-2.2,0.2-3.3V86.1C86.3,86.1,48.5,86.1,48.5,86.1z"/>
	<path class="st7" d="M89.4,117l8.1,19.4v0.3c0.4,0.7,1,1.3,1.7,1.5c1.8,0.7,3.8,0,4.6-1.7v-0.3l8.1-19.4l0.5-1.5H88.9L89.4,117z"/>
	<path class="st7" d="M95.9,10.3c1.6-0.7,3.3-1,5-1c1.7,0,3.5,0.4,5,1.2c0.2-0.6,0.2-1.1,0.2-1.7c0-2.8-2.3-5.2-5.2-5.2
		s-5.2,2.3-5.2,5.2C95.7,9.3,95.9,9.8,95.9,10.3z"/>
</g>
<g id="ICONS__GREEN_PACK">
	<polygon class="st0" points="53.8,70.7 55.5,69.7 132.5,25 96.3,4.2 17.9,49.5 18.2,49.8 	"/>
	<polygon class="st0" points="134.1,28 57.2,72.5 94.7,94.4 95.5,94.9 129.1,75.4 174.3,49.2 135.8,27 	"/>
	<path class="st0" d="M93,98.2v-0.7L55.5,75.7l-1.7-1l0,0l-1.7-1l-35.6-21v90L93,186.9V98.2z M68.3,105.3c0,2.1-1.7,3.9-3.9,3.9
		c0,0,0,0,0,0c-0.7,0-1.4-0.2-2-0.7l-14.1-8.2l-2.7-1.5c-1.8-1-3-2.9-3-5V89c0-1.9,1.5-3.4,3.4-3.4c0.7,0,1.3,0.1,1.8,0.5L61.4,94
		l3.9,2.4c1.8,1.1,2.9,3,2.9,5L68.3,105.3z"/>
	<polygon class="st0" points="96.3,98.2 96.3,186.9 96.3,188.9 176.1,142.8 176.1,52 130.8,78.2 97.2,97.7 	"/>
	<path class="st1" d="M96.3,0.3L16.2,46.7l-1.7,1l-1.3,0.8v96.4l0.8,0.5l81.5,46.9l82.3-46.7l1.7-1V48.3L96.3,0.3z M96.3,4.2
		L132.5,25L55.5,69.7l-1.7,1L18.2,49.8l-0.3-0.3L96.3,4.2z M176.1,52v90.7l-79.8,46.2V98.2l0.8-0.5l33.6-19.5L176.1,52z M16.6,52.7
		l35.6,20.8l1.7,1l0,0l1.7,1l37.5,22v89.4l-76.4-44.2V52.7z M129.1,75.4L95.5,94.9l-0.8-0.5L57.2,72.5L134.1,28l1.7-1l38.5,22.2
		L129.1,75.4z"/>
</g>
<g id="ICONS_PACK">
	<polygon class="st9" points="53.8,70.4 55.5,69.4 132.5,24.7 96.3,3.9 17.9,49.3 18.2,49.6 	"/>
	<polygon class="st9" points="134.1,27.8 57.2,72.3 94.7,94.1 95.5,94.6 129.1,75.1 174.3,48.9 135.8,26.8 	"/>
	<path class="st10" d="M93,98v-0.7L55.5,75.5l-1.7-1l0,0l-1.7-1l-35.6-21v90L93,186.7V98z M67.5,105c0,1.7-1.4,3-3,3c0,0,0,0,0,0
		l-1.5-0.5l-14.1-8.2l-2.7-1.5c-1.6-0.9-2.5-2.6-2.5-4.4v-4.7c0-1.4,1.1-2.5,2.5-2.5h0c0.5,0,0.9,0.1,1.3,0.3l13.6,7.9l3.9,2.4
		c1.6,0.9,2.5,2.6,2.5,4.4V105z"/>
	<polygon class="st10" points="96.3,98 96.3,186.7 96.3,188.7 176.1,142.5 176.1,51.8 130.8,78 97.2,97.5 	"/>
	<path class="st3" d="M96.3,0L16.2,46.4l-1.7,1l-1.3,0.8v96.4l1.7,1l81.5,46.9l81.5-47.2l1.7-1V48.1L96.3,0z M96.3,3.9l36.1,20.8
		L55.5,69.4l-1.7,1L18.2,49.6l-0.3-0.3L96.3,3.9z M176.1,51.8v90.7l-79.8,46.2V98l0.8-0.5L130.8,78L176.1,51.8z M16.6,52.5
		l35.6,20.8l1.7,1l0,0l1.7,1l37.5,22v89.4l-76.4-44.2V52.5z M129.1,75.1L95.5,94.6l-0.8-0.5L57.2,72.3l76.9-44.5l1.7-1l38.5,22.2
		L129.1,75.1z"/>
	<path class="st3" d="M64.9,96.8l-3.9-2.4l-13.6-7.9c-0.4-0.3-0.9-0.4-1.3-0.3c-1.4,0-2.5,1.1-2.5,2.5l0,0v4.7c0,1.8,1,3.5,2.5,4.4
		l2.7,1.5l14.1,8.2l1.5,0.5c1.7,0,3-1.4,3-3l0,0v-3.9C67.5,99.4,66.5,97.7,64.9,96.8z"/>
</g>
<g id="ICONS_GREEN_PUB" class="st11">
	<path class="st12" d="M169,12.7l-72.6,41l-72-40.6l-0.8-0.4L0,18.3V130l76.9,44.3c5.8,3.7,12.6,5.7,19.5,5.6
		c7,0.3,13.9-1.7,19.6-5.6l76.7-44.3V18.8L169,12.7z M3.9,23.3l79.2,45.8v104l-4.2-2.1L3.9,127.7V23.3z M7.2,20.6l16-3.9L91,55.1
		c-4,1.8-6.8,5.4-7.7,9.6L7.2,20.6z M105.6,66.8c-1.1,0.7-2.4,1.2-3.7,1.5l-5.6,0.4L91,68.4l-3.9-1.5c0-5.1,4.1-9.2,9.2-9.2
		C101.5,57.6,105.6,61.7,105.6,66.8z M101.7,55.1l67.8-38.3l16.2,4.4l-76.3,43.5C108.6,60.4,105.8,56.8,101.7,55.1z M86.9,71.4
		l3.7,0.8c1.9,0.5,3.8,0.8,5.8,0.8c2.1,0,4.2-0.2,6.2-0.8l3.3-0.8v103.1c-6.2,1.7-12.7,1.7-18.9,0V71.4z M109.8,173v-104l79-45.3
		v104l-74.7,43.2L109.8,173z"/>
	<path class="st13" d="M188.8,23.7l-79,45.3v104l4.2-2.1l74.7-43.2V23.7z"/>
	<path class="st13" d="M109.4,64.7l76.3-43.5l-16.2-4.4l-67.8,38.3C105.8,56.8,108.6,60.4,109.4,64.7z"/>
	<path class="st13" d="M91,55.1L23.1,16.7l-16,3.9l76.1,44.1C84.1,60.4,87,56.8,91,55.1z"/>
	<path class="st13" d="M87.1,66.8l3.9,1.5l5.4,0.4l5.6-0.4c1.3-0.3,2.5-0.8,3.7-1.5c0-5.1-4.1-9.2-9.3-9.2
		C91.2,57.6,87.1,61.7,87.1,66.8z"/>
	<path class="st13" d="M83.1,173.1v-104L3.9,23.3v104.4L78.8,171L83.1,173.1z"/>
	<path class="st13" d="M105.8,174.5V71.4l-3.3,0.8c-2,0.5-4.1,0.8-6.2,0.8c-2,0-3.9-0.2-5.8-0.8l-3.7-0.8v103.1
		C93.1,176.2,99.6,176.2,105.8,174.5z"/>
</g>
<g id="ICONS_PUB">
	<path class="st3" d="M169,12.7l-72.6,41l-72-40.6l-0.8-0.4L0,18.3V130l76.9,44.3c5.8,3.7,12.6,5.7,19.5,5.6
		c7,0.3,13.9-1.7,19.6-5.6l76.7-44.3V18.8L169,12.7z M3.9,23.3l79.2,45.8v104l-4.2-2.1L3.9,127.7V23.3z M7.2,20.6l16-3.9L91,55.1
		c-4,1.8-6.8,5.4-7.7,9.6L7.2,20.6z M105.6,66.8c-1.1,0.7-2.4,1.2-3.7,1.5l-5.6,0.4L91,68.4l-3.9-1.5c0-5.1,4.1-9.2,9.2-9.2
		C101.5,57.6,105.6,61.7,105.6,66.8z M101.7,55.1l67.8-38.3l16.2,4.4l-76.3,43.5C108.6,60.4,105.8,56.8,101.7,55.1z M86.9,71.4
		l3.7,0.8c1.9,0.5,3.8,0.8,5.8,0.8c2.1,0,4.2-0.2,6.2-0.8l3.3-0.8v103.1c-6.2,1.7-12.7,1.7-18.9,0V71.4z M109.8,173v-104l79-45.3
		v104l-74.7,43.2L109.8,173z"/>
	<path class="st14" d="M188.8,23.7l-79,45.3v104l4.2-2.1l74.7-43.2V23.7z"/>
	<path class="st15" d="M109.4,64.7l76.3-43.5l-16.2-4.4l-67.8,38.3C105.8,56.8,108.6,60.4,109.4,64.7z"/>
	<path class="st14" d="M91,55.1L23.1,16.7l-16,3.9l76.1,44.1C84.1,60.4,87,56.8,91,55.1z"/>
	<path class="st14" d="M87.1,66.8l3.9,1.5l5.4,0.4l5.6-0.4c1.3-0.3,2.5-0.8,3.7-1.5c0-5.1-4.1-9.2-9.3-9.2
		C91.2,57.6,87.1,61.7,87.1,66.8z"/>
	<path class="st15" d="M83.1,173.1v-104L3.9,23.3v104.4L78.8,171L83.1,173.1z"/>
	<path class="st14" d="M105.8,174.5V71.4l-3.3,0.8c-2,0.5-4.1,0.8-6.2,0.8c-2,0-3.9-0.2-5.8-0.8l-3.7-0.8v103.1
		C93.1,176.2,99.6,176.2,105.8,174.5z"/>
</g>
<g id="ICONS__GREEN_OUTDOR">
	<rect x="81.8" y="122.3" class="st0" width="24.8" height="48.6"/>
	<rect x="9.5" y="19.5" class="st0" width="173.7" height="99.3"/>
	<rect x="159.8" y="3.5" class="st0" width="23.4" height="11.7"/>
	<path class="st1" d="M183.2,0h-26.9v16h-44.7V0H81.1v16H36.4V0H6v122.3h72.3v48.2H51v22.2h86.8v-22.2h-27.6v-48.2h76.6V0H183.2z
		 M84.3,189.3H72.8l15.6-15.6h11.5L84.3,189.3z M83.4,173.7l-15.6,15.6H56.1l15.8-15.6H83.4z M54.2,186.3v-12.6h12.6L54.2,186.3z
		 M134.3,189.3h-11.9l11.9-11.9L134.3,189.3z M117.4,189.3h-11.5l15.6-15.6H133L117.4,189.3z M101,189.3H89.3l15.8-15.6h11.5
		L101,189.3z M81.8,170.8v-48.6h24.8v48.6L81.8,170.8z M9.5,118.7V19.5h173.7v99.3H9.5z M32.9,15.2H9.5V3.5h23.4V15.2z M84.7,3.5
		H108v11.7H84.7V3.5z M183.2,15.2h-23.4V3.5h23.4V15.2z"/>
	<rect x="84.7" y="3.5" class="st0" width="23.4" height="11.7"/>
	<rect x="9.5" y="3.5" class="st0" width="23.4" height="11.7"/>
	<polygon class="st0" points="71.9,173.7 56.1,189.3 67.8,189.3 83.4,173.7 	"/>
	<polygon class="st0" points="72.8,189.3 84.3,189.3 99.9,173.7 88.4,173.7 	"/>
	<polygon class="st0" points="105,173.7 89.3,189.3 101,189.3 116.6,173.7 	"/>
	<polygon class="st0" points="134.3,189.3 134.3,177.4 122.4,189.3 	"/>
	<polygon class="st0" points="54.2,186.3 66.8,173.7 54.2,173.7 	"/>
	<polygon class="st0" points="105.9,189.3 117.4,189.3 133,173.7 121.5,173.7 	"/>
</g>
<g id="ICONS_OUTDOR">
	<rect x="81.8" y="121.9" class="st16" width="24.8" height="48.6"/>
	<path class="st16" d="M183.2,118.4V19.1H9.5v99.3H183.2z M14.5,113.4V24.1h163.8v89.3H14.5z"/>
	<path class="st3" d="M186,15.6V0.3H157v15.2h-46.1V0.3H81.8v15.2H35.7V0.3H6.7v15.2H6v106.3h72.3v48.2H51v22.2h86.8v-22.2h-27.6
		v-48.2h76.6V15.6L186,15.6z M84.3,188.9H72.8l15.6-15.6h11.5L84.3,188.9z M83.4,173.3l-15.6,15.6H56.1l15.8-15.6H83.4z M54.2,185.9
		v-12.6h12.6L54.2,185.9z M134.3,188.9h-11.9l11.9-11.9L134.3,188.9z M117.4,188.9h-11.5l15.6-15.6H133L117.4,188.9z M101,188.9
		H89.3l15.8-15.6h11.5L101,188.9z M81.8,170.5v-48.6h24.8v48.6L81.8,170.5z M9.5,118.4V19.1h173.7v99.3H9.5z M32.9,14.9H9.5V3.2
		h23.4V14.9z M84.7,3.2H108v11.7H84.7V3.2z M159.8,3.2h23.4v11.7h-23.4V3.2z"/>
	<rect x="14.5" y="24.1" class="st17" width="163.8" height="89.3"/>
	<rect x="159.8" y="3.2" class="st16" width="23.4" height="11.7"/>
	<rect x="84.7" y="3.2" class="st16" width="23.4" height="11.7"/>
	<rect x="9.5" y="3.2" class="st16" width="23.4" height="11.7"/>
	<polygon class="st16" points="71.9,173.3 56.1,188.9 67.8,188.9 83.4,173.3 	"/>
	<polygon class="st16" points="72.8,188.9 84.3,188.9 99.9,173.3 88.4,173.3 	"/>
	<polygon class="st16" points="105,173.3 89.3,188.9 101,188.9 116.6,173.3 	"/>
	<polygon class="st16" points="134.3,188.9 134.3,177 122.4,188.9 	"/>
	<polygon class="st16" points="54.2,185.9 66.8,173.3 54.2,173.3 	"/>
	<polygon class="st16" points="105.9,188.9 117.4,188.9 133,173.3 121.5,173.3 	"/>
</g>
<g id="icon-vk-c">
	<path class="st17" d="M168.5,0.1H24.2c-13.3,0-24,10.8-24,24v144.3c0,13.3,10.8,24,24,24h144.3c13.3,0,24-10.8,24-24V24.2
		C192.5,10.9,181.8,0.1,168.5,0.1z M177.1,87.6l-24.5,38.5c-1.8,3.1-1.4,7,1,9.6l18.8,19.7c2.9,3.4,2.5,8.6-0.9,11.5
		c-1.4,1.2-3.1,1.8-4.9,1.9h-19.7c-2.3,0.1-4.5-1-5.8-2.9l-14.4-15.9c-3.1-3.3-8.3-3.5-11.6-0.4c-1.2,1.1-2,2.6-2.4,4.2l-1.9,8.7
		c-0.7,3.7-4,6.3-7.7,6.3h-8.7c-16.1,0.1-31.2-8.1-39.9-21.6L16,87.6c-2.4-3.8-1.2-8.9,2.6-11.3c1.2-0.8,2.7-1.2,4.1-1.2h17.3
		c2.8,0,5.3,1.4,6.7,3.8l25.5,42.3c0.4,1.6,2,2.6,3.6,2.2c1.6-0.4,2.6-2,2.2-3.6V82.4h-1c-2.9-1.8-3.8-5.7-1.9-8.6
		c0.7-1.1,1.7-1.9,2.9-2.4h23.6c4.5,0,8.2,3.7,8.2,8.2l0,0v40.9c-0.4,1.6,0.6,3.2,2.2,3.6c1.6,0.4,3.2-0.6,3.6-2.2l25.5-42.3
		c1.4-2.4,4-3.9,6.7-3.8h22.6c4.2-0.2,7.9,3.1,8.1,7.3C178.6,84.6,178.1,86.3,177.1,87.6z"/>
</g>
<g id="icon-vk">
	<path class="st18" d="M170.4,75.6h-22.6c-2.8,0-5.3,1.4-6.7,3.8l-25.5,42.3c-0.4,1.6-2,2.6-3.6,2.2c-1.6-0.4-2.6-2-2.2-3.6V79
		c0-4.5-3.7-8.2-8.2-8.2l0,0H78.1c-3.2,1.3-4.7,5-3.4,8.2c0.5,1.2,1.3,2.2,2.4,2.9h1v37.5c0.4,1.6-0.6,3.2-2.2,3.6
		c-1.6,0.4-3.2-0.6-3.6-2.2L46.8,79c-1.4-2.4-4-3.9-6.7-3.8H22.8c-4.5,0.1-8.1,3.9-8,8.4c0,1.5,0.5,2.9,1.2,4.1l38.5,59.6
		c8.7,13.6,23.8,21.7,39.9,21.6h8.7c3.7,0.1,7-2.6,7.7-6.3l1.9-8.7c1-4.4,5.3-7.2,9.7-6.2c1.6,0.4,3.1,1.2,4.2,2.4l14.4,15.9
		c1.3,1.9,3.5,3,5.8,2.9h19.7c4.5-0.2,8-4.1,7.7-8.6c-0.1-1.8-0.8-3.5-1.9-4.9l-18.8-19.7c-2.4-2.7-2.8-6.5-1-9.6l24.5-38.5
		c2.4-3.5,1.5-8.3-2-10.7C173.7,76,172.1,75.5,170.4,75.6z"/>
	<path class="st3" d="M168.5,0.1H24.2c-13.3,0-24,10.8-24,24v144.3c0,13.3,10.8,24,24,24h144.3c13.3,0,24-10.8,24-24V24.2
		C192.5,10.9,181.8,0.1,168.5,0.1z M177.1,87.6l-24.5,38.5c-1.8,3.1-1.4,7,1,9.6l18.8,19.7c2.9,3.4,2.5,8.6-0.9,11.5
		c-1.4,1.2-3.1,1.8-4.9,1.9h-19.7c-2.3,0.1-4.5-1-5.8-2.9l-14.4-15.9c-3.1-3.3-8.3-3.5-11.6-0.4c-1.2,1.1-2,2.6-2.4,4.2l-1.9,8.7
		c-0.7,3.7-4,6.3-7.7,6.3h-8.7c-16.1,0.1-31.2-8.1-39.9-21.6L16,87.6c-2.4-3.8-1.2-8.9,2.6-11.3c1.2-0.8,2.7-1.2,4.1-1.2h17.3
		c2.8,0,5.3,1.4,6.7,3.8l25.5,42.3c0.4,1.6,2,2.6,3.6,2.2c1.6-0.4,2.6-2,2.2-3.6V82.4h-1c-2.9-1.8-3.8-5.7-1.9-8.6
		c0.7-1.1,1.7-1.9,2.9-2.4h23.6c4.5,0,8.2,3.7,8.2,8.2l0,0v40.9c-0.4,1.6,0.6,3.2,2.2,3.6c1.6,0.4,3.2-0.6,3.6-2.2l25.5-42.3
		c1.4-2.4,4-3.9,6.7-3.8h22.6c4.2-0.2,7.9,3.1,8.1,7.3C178.6,84.6,178.1,86.3,177.1,87.6z"/>
</g>
<g id="icon-facebook-c">
	<path class="st15" d="M168.3,0.3h-144c-13.3,0-24,10.7-24,24v144c0,13.3,10.7,24,24,24h144c13.3,0,24-10.7,24-24v-144
		C192.3,11.1,181.6,0.3,168.3,0.3z M138.1,39.2h-21.6c-5,0-9.1,4.1-9.1,9.1v0v24.5h29.8l-3.8,30.2h-25.9v76.8H76.2V103H50.8V73.3
		h25.9V39.7c0-14.8,12-26.9,26.9-26.9l0,0h35L138.1,39.2z"/>
</g>
<g id="icon-facebook">
	<path class="st18" d="M103.1,12.3c-14.8,0-26.9,12-26.9,26.9c0,0,0,0,0,0v33.6H50.3V103h25.9v76.8h30.7V103h25.9l3.8-30.2h-29.8
		V48.3c0-5,4.1-9.1,9.1-9.1h21.6V12.3H103.1z"/>
	<path class="st3" d="M168.3,0.3h-144c-13.3,0-24,10.7-24,24v144c0,13.3,10.7,24,24,24h144c13.3,0,24-10.7,24-24v-144
		C192.3,11.1,181.6,0.3,168.3,0.3z M138.1,39.2h-21.6c-5,0-9.1,4.1-9.1,9.1v0v24.5h29.8l-3.8,30.2h-25.9v76.8H76.7V103H50.8V72.8
		h25.9V39.2c0-14.8,12-26.9,26.9-26.9l0,0h34.6V39.2z"/>
</g>
<g id="icon-linkedin-c">
	<path class="st5" d="M168.5,0.1H24.2c-13.3,0-24,10.8-24,24v144.3c0,13.3,10.8,24,24,24h144.3c13.3,0,24-10.8,24-24V24.2
		C192.5,10.9,181.8,0.1,168.5,0.1z M57.4,169.4H30.5V77.5h26.5L57.4,169.4z M44.9,63.6c-8.2,0-14.9-6.7-14.9-14.9
		c0-8.2,6.7-14.9,14.9-14.9c8.2,0,14.9,6.7,14.9,14.9S53.1,63.6,44.9,63.6z M162.7,110.2v59.2h-26.5v-51c0-4.5-3.7-8.2-8.2-8.2h0
		h-24v59.2H77.1V77.5h26.5v5.8h32.7c14.6,0,26.5,11.8,26.5,26.5V110.2z"/>
</g>
<g id="icon-linkedin">
	<rect x="30.5" y="77.5" class="st18" width="26.5" height="91.8"/>
	<circle class="st18" cx="44.9" cy="48.7" r="14.9"/>
	<path class="st18" d="M136.3,83.3h-32.7v-5.8H77.1v91.9h26.5v-59.2h24c4.5,0,8.2,3.7,8.2,8.2v0v51h26.5v-59.2l0,0
		C162.5,95.6,150.9,83.6,136.3,83.3C136.3,83.3,136.3,83.3,136.3,83.3z"/>
	<path class="st3" d="M168.5,0.1H24.2c-13.3,0-24,10.8-24,24v144.3c0,13.3,10.8,24,24,24h144.3c13.3,0,24-10.8,24-24V24.2
		C192.5,10.9,181.8,0.1,168.5,0.1z M57.4,169.4H30.5V77.5h26.5L57.4,169.4z M44.9,63.6c-8.2,0-14.9-6.7-14.9-14.9
		c0-8.2,6.7-14.9,14.9-14.9c8.2,0,14.9,6.7,14.9,14.9S53.1,63.6,44.9,63.6z M162.7,110.2v59.2h-26.5v-51c0-4.5-3.7-8.2-8.2-8.2h0
		h-24v59.2H77.1V77.5h26.5v5.8h32.7c14.6,0,26.5,11.8,26.5,26.5V110.2z"/>
</g>
<g id="icon-instagram-c">
	<circle class="st2" cx="96.3" cy="96.3" r="37.5"/>
	<circle class="st2" cx="139.6" cy="45.3" r="9.1"/>
	<path class="st2" d="M168.5,0.1H24.2c-13.3,0-24,10.8-24,24v144.3c0,13.3,10.8,24,24,24h144.3c13.3,0,24-10.8,24-24V24.2
		C192.5,10.9,181.8,0.1,168.5,0.1z M170.9,130c0,22.6-18.3,40.9-40.9,40.9l0,0H62.7c-22.6,0-40.9-18.3-40.9-40.9l0,0V62.6
		c0-22.6,18.3-40.9,40.9-40.9H130c22.6,0,40.9,18.3,40.9,40.9V130z"/>
</g>
<g id="icon-instagram">
	<path class="st18" d="M62.7,168.9H130c21.8,0,39.4-17.7,39.4-39.4v0V62.6c-0.3-21.6-17.8-39-39.4-39H62.7
		c-21.4,0.3-38.7,17.6-39,39v66.9C23.7,151.1,41.1,168.7,62.7,168.9z M139.6,36.2c5,0,9.1,4.1,9.1,9.1s-4.1,9.1-9.1,9.1
		s-9.1-4.1-9.1-9.1l0,0C130.5,40.3,134.6,36.2,139.6,36.2z M96.3,55.4c22.6,0,40.9,18.3,40.9,40.9s-18.3,40.9-40.9,40.9
		s-40.9-18.3-40.9-40.9l0,0c0-22.7,18.2-41.1,40.9-41.4V55.4z"/>
	<circle class="st18" cx="139.6" cy="45.3" r="5.8"/>
	<circle class="st18" cx="96.3" cy="96.3" r="37.5"/>
	<path class="st3" d="M168.5,0.1H24.2c-13.3,0-24,10.8-24,24v144.3c0,13.3,10.8,24,24,24h144.3c13.3,0,24-10.8,24-24V24.2
		C192.5,10.9,181.8,0.1,168.5,0.1z M23.7,62.6c0.3-21.4,17.6-38.7,39-39H130c21.4,0.3,38.7,17.6,39,39v66.9
		c0,21.6-17.4,39.2-39,39.4H62.7c-21.8,0-39.4-17.7-39.4-39.4l0,0L23.7,62.6z"/>
</g>
<g id="up_2">
	<path class="st0" d="M141.3,23.7C135.2,7,122.7,0.2,96.2,0.2S57.1,7,51,23.7s-5.3,42.9-5.3,81.5s3.4,59.9,11.4,72.4
		s20.5,14.8,39.1,14.8h0.4c18.6,0,31.1-2.7,39.1-14.8s11.4-34.1,11.4-72.4S147.4,40,141.3,23.7z M100.7,164.4h-9.1v-9.1h8.7
		L100.7,164.4z M100.7,149.2h-9.1v-19.3h8.7L100.7,149.2z M126.1,73.7l-25.4-27.3v77h-9.1V46.1L66.2,73.4l-6.4-6.1l36.4-39.1
		l36.4,39.1L126.1,73.7z"/>
</g>
<g id="icons_process-01">
	<path class="st1" d="M96.3,0C43.2,0,0,43.1,0,96.3s43.1,96.3,96.3,96.3s96.3-43.1,96.3-96.3S149.5,0,96.3,0C96.3,0,96.3,0,96.3,0z
		 M127.4,162.4H66l2.6-13.5H42.2l23-118.6l61.3,0.2L124,43.8h26.4L127.4,162.4z"/>
	<path class="st3" d="M69,146.8l2.5-12.9H54.9l0.7-3.5h16.6l0.7-3.5H56.3l0.6-3.5h16.7l0.7-3.5H57.5l0.7-3.5h16.7l0.7-3.5H58.9
		l0.7-3.5h16.7l0.7-3.6H60.3l0.7-3.4h16.7l0.7-3.6H61.5l0.7-3.5H79l0.7-3.5H63l0.7-3.5h16.7l0.7-3.5H64.3l0.7-3.5h16.7l0.7-3.6H65.7
		l0.6-3.4h16.8l0.7-3.6H67l0.7-3.5h16.8l0.7-3.5H68.4l0.6-3.5h16.8l0.7-3.5H69.7l0.7-3.5h16.8l0.3-1.7l0.6-0.5l1.7-1.4H71l0.6-3.4
		H94l2.8-2.3l0.3-0.2h24.9l2.2-11.4L67,32.1L44.7,146.8H69z"/>
	<path class="st0" d="M126.6,30.4l-61.3-0.2l-23,118.6h26.3L66,162.3h61.3l23-118.6H124L126.6,30.4z M68.5,160.3L89.4,52.5h6.7
		l1.5-6.6h50.3l-22.2,114.5L68.5,160.3z M124.1,32.4l-2.2,11.4H97L96.7,44L94,46.2H71.7L71,49.6h18.8L88.1,51l-0.6,0.5l-0.3,1.7
		H70.4l-0.7,3.5h16.8l-0.7,3.5H69l-0.6,3.5h16.8l-0.7,3.5H67.7L67,70.7h16.8l-0.7,3.6H66.3l-0.6,3.4h16.7l-0.7,3.6H65l-0.7,3.5h16.8
		l-0.7,3.5H63.7L63,91.8h16.7L79,95.3H62.3l-0.7,3.5h16.8l-0.7,3.6H61l-0.7,3.4H77l-0.7,3.6H59.5l-0.7,3.5h16.8l-0.7,3.5H58.3
		l-0.7,3.5h16.7l-0.7,3.5H56.9l-0.6,3.5h16.6l-0.7,3.5H55.5l-0.7,3.5h16.7L69,146.8H44.7L66.9,32.2L124.1,32.4z"/>
	<path class="st3" d="M97.7,45.7L97.7,45.7l-1.6,6.6h-6.7l-20.9,108h57.3l22.1-114.5L97.7,45.7z M96.3,55.6h13l-0.6,3.5h-13
		L96.3,55.6z M94.9,62.6H108l-0.7,3.5h-13L94.9,62.6z M93.6,69.6h13l-0.6,3.5H93L93.6,69.6z M92.2,76.7h13.1l-0.7,3.5h-13L92.2,76.7
		z M115.8,129H96.5c-1.9,0-3,0.7-3.3,2.1l-0.3,1.4c-0.3,1.4,0.5,2.1,2.4,2.1h13.4c1.1,0,2.2,0.1,3.2,0.4c0.7,0.2,1.4,0.6,2,1.1
		c0.5,0.5,0.8,1.1,0.9,1.7c0.1,0.7,0.1,1.5,0,2.2l-0.5,2.8c-0.1,0.8-0.4,1.5-0.8,2.2c-0.4,0.7-0.9,1.3-1.6,1.7
		c-0.7,0.5-1.5,0.9-2.4,1.1c-1.1,0.3-2.3,0.4-3.4,0.4h-5.2l-0.6,3.1H97l0.6-3.1H86.2l0.6-3.4h19.8c1.9,0,3-0.7,3.3-2.1l0.6-2.9
		c0.3-1.4-0.5-2.1-2.4-2.1H94.7c-1.1,0-2.2-0.1-3.2-0.4c-0.7-0.2-1.4-0.6-2-1.1c-0.5-0.5-0.8-1.1-0.9-1.7c-0.1-0.7-0.1-1.5,0-2.2
		l0.3-1.3c0.1-0.8,0.4-1.5,0.8-2.2c0.4-0.7,0.9-1.3,1.6-1.7c0.7-0.5,1.5-0.9,2.4-1.1c1.1-0.3,2.3-0.4,3.4-0.4h19.3L115.8,129z
		 M102,125.2l0.7-3.1h3.2l-0.6,3.1H102z M127,115.3H84.9l0.7-3.5h42L127,115.3z M128.3,108.2h-42l0.7-3.4h42L128.3,108.2z
		 M129.7,101.2H87.5l0.7-3.5h42L129.7,101.2z M131,94.2H89l0.6-3.5h42.1L131,94.2z M132.4,87.2H90.3l0.7-3.5h42L132.4,87.2z
		 M109.3,80.2l4.7-24.6h24.4l-4.7,24.6H109.3z"/>
	<polygon class="st0" points="108.8,59.1 109.3,55.6 96.3,55.6 95.7,59.1 	"/>
	<polygon class="st0" points="107.3,66.1 108,62.6 95,62.6 94.3,66.1 	"/>
	<polygon class="st0" points="106,73.1 106.7,69.6 93.7,69.6 93,73.1 	"/>
	<polygon class="st0" points="104.7,80.2 105.3,76.7 92.3,76.7 91.7,80.2 	"/>
	<polygon class="st0" points="91,83.7 90.3,87.2 132.3,87.2 132.9,83.7 	"/>
	<polygon class="st0" points="89.5,90.7 89,94.2 130.9,94.2 131.7,90.7 	"/>
	<polygon class="st0" points="88.3,97.7 87.5,101.2 129.7,101.2 130.3,97.7 	"/>
	<polygon class="st0" points="87,104.8 86.3,108.2 128.3,108.2 128.9,104.8 	"/>
	<polygon class="st0" points="85.5,111.8 84.8,115.3 127,115.3 127.5,111.8 	"/>
	<polygon class="st0" points="114,55.6 109.3,80.2 133.7,80.2 138.3,55.6 	"/>
	<path class="st0" d="M97.1,125.6c-1.1,0-2.3,0.1-3.4,0.4c-0.9,0.2-1.7,0.6-2.4,1.1c-0.7,0.4-1.2,1-1.6,1.7
		c-0.4,0.7-0.7,1.4-0.8,2.2l-0.3,1.3c-0.1,0.7-0.1,1.5,0,2.2c0.1,0.6,0.4,1.2,0.9,1.7c0.6,0.5,1.3,0.9,2,1.1c1,0.3,2.1,0.4,3.2,0.4
		h13.4c1.9,0,2.7,0.7,2.4,2.1l-0.6,2.9c-0.3,1.4-1.4,2.1-3.3,2.1H86.8l-0.6,3.4h11.5l-0.6,3.1h3.2l0.6-3.1h5.2
		c1.1,0,2.3-0.1,3.4-0.4c0.9-0.2,1.7-0.6,2.4-1.1c0.7-0.4,1.2-1,1.6-1.7c0.4-0.7,0.7-1.4,0.8-2.2l0.5-2.8c0.1-0.7,0.1-1.5,0-2.2
		c-0.1-0.6-0.4-1.2-0.9-1.7c-0.6-0.5-1.3-0.9-2-1.1c-1-0.3-2.1-0.4-3.2-0.4H95.3c-1.9,0-2.7-0.7-2.4-2.1l0.3-1.4
		c0.3-1.4,1.4-2.1,3.3-2.1h19.3l0.6-3.4H97.1z"/>
	<polygon class="st0" points="102.7,122.1 102,125.2 105.3,125.2 105.8,122.1 	"/>
</g>
<g id="icons_process-02">
	<path class="st1" d="M96.3,0C43.2,0,0,43.1,0,96.3s43.1,96.3,96.3,96.3s96.3-43.1,96.3-96.3S149.5,0,96.3,0C96.3,0,96.3,0,96.3,0z
		 M171.3,114.2l-86.4,23.3l-7.1-26.3v35.4H20.3V46h57.6v35.7l79-21.3l0.5,1.8l0,0l13.5,50.2l0,0l0.5,1.7l0,0L171.3,114.2z"/>
	<path class="st0" d="M50.3,127.1c1.5,0.3,3.1,0.4,4.7,0.2c2.9-0.3,3.4-3.7,3.4-3.7c0.3-2.5,0.3-5.1,0-7.6c-0.5-6-4.2-4.4-4.8-4.5
		c-2.9-0.2-5.5-1.8-7-4.2c-2.8-4.1-2.6-13-1.4-17.5s3.8-7.3,8.9-7.6s5-3.8,5-3.8v-9c-0.2-1.2-0.9-2.2-1.9-2.9
		c-1.1-0.5-2.4-0.7-3.6-0.6c0,0-4.3,0.3-6.5,2.3c-5.8,5.4-8.5,11.2-9.5,24.5c-1.2,15.7,2.8,26.4,6.2,30.1S50.3,127.1,50.3,127.1z"/>
	<path class="st0" d="M75.9,82.2V48H22.3v96.7h53.6v-40.9l-5.5-20.1l0,0l86.4-23.4l-79,21.3L75.9,82.2z M68.4,136.2H29.8V56.4h38.5
		L68.4,136.2z"/>
	<polygon class="st0" points="122.3,103.8 70.5,83.8 71,85.5 111.9,101.4 84.5,135.7 85,137.4 113.3,101.9 122.7,105.5 128.9,97.7 
		171.3,114 170.8,112.3 170.8,112.3 129.9,96.4 157.3,62.2 157.3,62.1 156.8,60.4 	"/>
</g>
<g id="icons_process-05">
	<polygon class="st1" points="119.8,109.3 105.2,97.3 83.8,119.1 155.8,119.1 134.3,97.3 	"/>
	<polygon class="st1" points="158.5,116.3 158.5,77.4 137.4,94.8 	"/>
	<path class="st1" d="M96.3,0C43.2,0,0,43.1,0,96.3s43.1,96.3,96.3,96.3s96.3-43.1,96.3-96.3S149.5,0,96.3,0C96.3,0,96.3,0,96.3,0z
		 M68,67.5c0,0,0.1,5.4-7.9,5.9S48,78.3,46,85.5s-2.3,21.2,2.2,27.6s10.2,6.5,11,6.6s6.7-2.3,7.5,7.1c0.5,4,0.5,8,0,12
		c0,0-0.9,5.4-5.4,5.8c-2.5,0.3-5,0.2-7.5-0.2c0,0-4.9-1.1-10.3-6.9s-11.6-22.8-9.8-47.6c1.6-21,5.9-30.2,15.1-38.7
		c3.4-3.2,10.3-3.6,10.3-3.6c2-0.2,4,0.1,5.8,0.9c2.4,1.4,3.1,4.6,3.1,4.6L68,67.5z M162.5,123.1H77.1V69.5h85.3L162.5,123.1z"/>
	<polygon class="st1" points="157.1,73.5 82.5,73.5 119.8,104.1 	"/>
	<polygon class="st1" points="81.1,77.4 81.1,116.3 102.2,94.8 	"/>
	<path class="st0" d="M64.9,48.5c-1.8-0.8-3.8-1.1-5.8-0.9c0,0-6.9,0.4-10.3,3.6c-9.2,8.5-13.5,17.7-15.1,38.7
		c-1.8,24.8,4.4,41.8,9.8,47.6s10.3,6.9,10.3,6.9c2.5,0.4,5,0.5,7.5,0.2c4.5-0.4,5.4-5.8,5.4-5.8c0.5-4,0.5-8,0-12
		c-0.8-9.4-6.5-6.9-7.5-7.1s-6.5-0.2-11-6.6S44.1,92.7,46,85.5s6.1-11.6,14.1-12.1s7.9-5.9,7.9-5.9V53.1
		C68,53.1,67.3,49.9,64.9,48.5z"/>
	<path class="st3" d="M77.1,123.1h85.3V69.5H77.1V123.1z M83.8,119.2l21.4-21.9l14.6,12l14.5-11.9l21.5,21.8H83.8z M158.5,116.4
		l-21.1-21.6l21.2-17.4L158.5,116.4z M157,73.6l-37.3,30.7L82.5,73.5L157,73.6z M81,77.5l21.1,17.4l-21,21.4L81,77.5z"/>
</g>
<g id="icons_process-04">
	<path class="st1" d="M96.3,0C58.6,0,24.3,22,8.6,56.4h20.9v71.5H5.3c4.8,13.7,12.6,26.1,22.8,36.4l8.2-31.3
		c0.6-2.3,2.7-3.9,5.1-3.9h107.7c2.4,0,4.5,1.6,5.1,3.9l8.7,32.9c38.4-36.8,39.8-97.7,3-136.2C147.8,10.7,122.6,0,96.3,0z
		 M77.8,19.9H81v1.8h-3.2V19.9z M70.6,26.7c0-2.3,1.8-4.1,4.1-4.1h43.2c2.3,0,4.1,1.8,4.1,4.1v19.4c-0.1,2.2-1.9,4-4.1,4.1H74.7
		c-2.3,0-4.1-1.8-4.1-4.1L70.6,26.7z M167.1,139.5c-3.6,0-6.5-2.9-6.5-6.5l0,0v-6.2c0-3.4,2.6-6.2,6-6.5v-17.6
		c0-7.9-5.4-14.7-13.1-16.6v35.3c-0.1,3.1-2.6,5.6-5.7,5.7H42.7c-3.1-0.1-5.6-2.6-5.7-5.7V61.6c0.1-3.1,2.6-5.6,5.7-5.7h105.1
		c3.1,0.1,5.6,2.6,5.7,5.7v23.5c8.2,1.9,14.1,9.2,14.1,17.6v17.6c3.4,0.3,6,3.1,6,6.5v6.2C173.6,136.6,170.7,139.5,167.1,139.5
		L167.1,139.5z"/>
	<path class="st0" d="M74.7,50.2h43.2c2.2-0.1,4-1.9,4.1-4.1V26.7c0-2.3-1.8-4.1-4.1-4.1H74.7c-2.3,0-4.1,1.8-4.1,4.1v19.4
		C70.6,48.4,72.5,50.2,74.7,50.2L74.7,50.2z M106.4,24.7h9.3v4.6h-9.3V24.7z M96.3,27.4c5,0,9,4,9,9c0,5-4,9-9,9c-5,0-9-4-9-9
		S91.4,27.4,96.3,27.4L96.3,27.4z"/>
	<circle class="st1" cx="96.3" cy="36.4" r="5.1"/>
	<path class="st0" d="M96.3,42.5c3.4,0,6.1-2.7,6.1-6.1s-2.7-6.1-6.1-6.1c-3.4,0-6.1,2.7-6.1,6.1v0C90.2,39.8,93,42.5,96.3,42.5z
		 M96.3,31.3c2.8,0,5.1,2.3,5.1,5.1s-2.3,5.1-5.1,5.1c-2.8,0-5.1-2.3-5.1-5.1c0,0,0,0,0,0C91.2,33.6,93.5,31.3,96.3,31.3z"/>
	<path class="st1" d="M115.8,24.7h-9.3v4.6h9.3V24.7z M114.9,28.4h-7.5v-2.7h7.5V28.4z"/>
	<rect x="77.8" y="19.9" class="st0" width="3.3" height="1.8"/>
	<path class="st0" d="M167.1,121.3c-3,0-5.5,2.5-5.5,5.5v6.2c0,3,2.5,5.5,5.5,5.5s5.5-2.5,5.5-5.5v-6.2
		C172.6,123.8,170.2,121.3,167.1,121.3z M168,132.3c0,0.5-0.4,0.9-0.9,0.9c-0.5,0-0.9-0.4-0.9-0.9v-4.8c0-0.5,0.4-0.9,0.9-0.9
		c0.5,0,0.9,0.4,0.9,0.9V132.3z"/>
	<path class="st0" d="M153.5,61.6c-0.1-3.1-2.6-5.6-5.7-5.7H42.7c-3.1,0.1-5.6,2.6-5.7,5.7v59.8c0.1,3.1,2.6,5.6,5.7,5.7h105.1
		c3.1-0.1,5.6-2.6,5.7-5.7V61.6z M150.1,118c-0.1,3.1-2.6,5.6-5.7,5.7H46.1c-3.1-0.1-5.6-2.6-5.7-5.7V65c0.1-3.1,2.6-5.6,5.7-5.7
		h98.3c3.1,0.1,5.6,2.6,5.7,5.7L150.1,118z"/>
	<path class="st0" d="M149.1,129.2H41.4c-2.4,0-4.5,1.6-5.1,3.9L28,164.3c3.4,3.4,7,6.5,10.8,9.4h114.9c3.2-2.4,6.3-4.9,9.2-7.7
		l-8.7-33C153.6,130.7,151.5,129.2,149.1,129.2z"/>
	<path class="st1" d="M96.3,192.6c20.7,0,40.8-6.6,57.4-19H38.9C55.5,186,75.7,192.6,96.3,192.6z"/>
	<path class="st0" d="M120.4,88.7c-0.2-1.2-1.1-2-2.3-2h-3.7c-0.4,0-0.8-0.2-0.9-0.6l0,0v-0.5h-0.1c-0.1-0.4,0-0.8,0.3-1l2.7-2.5
		c0.8-0.8,1-2,0.4-3c-1.2-1.8-2.7-3.3-4.3-4.7c-0.9-0.7-2.1-0.7-3,0l-2.7,2.5c-0.3,0.3-0.8,0.3-1.1,0.1l-2.3-1.1
		c-0.4-0.1-0.7-0.5-0.7-0.9v-3.9c-0.1-1.1-0.9-2.1-2-2.3l-3.2-0.2l-3.2,0.2c-1.2,0.2-2,1.1-2,2.3v3.7c0,0.4-0.3,0.8-0.7,1l-0.8,0.3
		l-0.4,0.2c-0.4,0.2-0.9,0-1.1-0.3l-2.5-2.6c-0.8-0.8-2.1-1-3-0.3c-1.8,1.3-3.3,2.8-4.7,4.5c-0.7,0.9-0.6,2.2,0.2,3l2.6,2.6
		c0.3,0.3,0.4,0.7,0.2,1.1c-0.2,0.4-0.4,0.9-0.6,1.4V86c-0.2,0.4-0.6,0.6-1,0.6h-3.9c-1.1,0.1-2.1,0.9-2.3,2
		c-0.1,1.1-0.2,2.1-0.2,3.2c0,1,0.1,2.2,0.2,3.2c0.2,1.2,1.1,2,2.3,2h3.7c0.4,0,0.8,0.2,0.9,0.6l0,0v0.5h0.1c0.1,0.4,0,0.8-0.3,1
		l-2.7,2.5c-0.8,0.8-1,2-0.4,3c1.2,1.8,2.7,3.3,4.3,4.7c0.9,0.7,2.1,0.7,3,0l2.7-2.5c0.3-0.3,0.8-0.3,1.1-0.1l2.3,1.1
		c0.4,0.1,0.7,0.5,0.7,0.9v3.7c0.1,1.1,0.9,2.1,2,2.3l3.2,0.2l3.2-0.2c1.2-0.2,2-1.1,2-2.3v-3.7c0-0.4,0.3-0.8,0.7-1l0.8-0.3
		l0.4-0.2c0.4-0.2,0.9,0,1.1,0.3l2.5,2.6c0.8,0.8,2.1,1,3,0.3c1.8-1.3,3.3-2.8,4.7-4.5c0.7-0.9,0.6-2.2-0.2-3l-2.6-2.6
		c-0.3-0.3-0.4-0.7-0.2-1.1c0.2-0.4,0.4-0.9,0.6-1.4l0.2-0.4c0.2-0.4,0.6-0.6,1-0.6h3.7c1.1-0.1,2.1-0.9,2.3-2
		c0.3-2.1,0.3-4.2,0-6.3L120.4,88.7z M119.2,94.8c-0.1,0.5-0.6,0.9-1.1,0.9h-3.7c-1-0.1-1.9,0.6-2.2,1.5v0.3
		c-0.2,0.4-0.4,0.8-0.6,1.2c-0.4,0.9-0.3,1.9,0.4,2.6l2.6,2.6c0.4,0.3,0.4,0.9,0.1,1.3c-1.3,1.6-2.7,3-4.4,4.2
		c-0.4,0.4-1,0.3-1.4-0.1l-2.5-2.6c-0.6-0.7-1.6-1-2.5-0.6l-0.4,0.2l-0.6,0.2h-0.1c-0.9,0.3-1.5,1.2-1.5,2.2v3.7
		c0.1,0.5-0.3,1-0.8,1.1l-3,0.2l-2.9-0.2c-0.5-0.1-0.9-0.6-0.9-1.1v-3.7c0-0.9-0.6-1.8-1.5-2.1l-2.1-0.9c-0.9-0.6-2-0.4-2.7,0.3
		l-2.7,2.5c-0.4,0.3-1,0.3-1.4,0c-1.5-1.3-2.9-2.8-4-4.4c-0.2-0.5-0.2-1,0.2-1.4l2.7-2.5c0.7-0.6,1-1.6,0.6-2.5
		c0-0.2-0.1-0.5-0.2-0.7c-0.3-0.9-1.1-1.5-2.1-1.5h-3.9c-0.5,0.1-1-0.3-1.1-0.8c-0.1-1-0.2-2.1-0.2-3s0.1-2,0.2-2.9
		c0.1-0.5,0.6-0.9,1.1-0.9h3.7c1,0.1,1.9-0.6,2.2-1.5v-0.3c0.2-0.4,0.4-0.8,0.6-1.2c0.4-0.9,0.3-1.9-0.4-2.6l-2.6-2.6
		c-0.4-0.3-0.4-0.9-0.1-1.3c1.3-1.6,2.7-3,4.4-4.2c0.4-0.4,1-0.3,1.4,0.1l2.5,2.6c0.6,0.7,1.6,1,2.5,0.6l0.4-0.2l0.6-0.2H92
		c0.9-0.3,1.5-1.2,1.5-2.2v-3.8c-0.1-0.5,0.3-1,0.8-1.1l3-0.2l2.9,0.2c0.5,0.1,0.9,0.6,0.9,1.1v3.7c0,0.9,0.6,1.8,1.5,2.1l2.1,0.9
		c0.9,0.6,2,0.4,2.7-0.3l2.7-2.5c0.4-0.3,1-0.3,1.4,0c1.5,1.3,2.9,2.8,4,4.4c0.2,0.5,0.2,1-0.2,1.4l-2.7,2.5c-0.7,0.6-1,1.6-0.6,2.5
		c0,0.2,0.1,0.5,0.2,0.7c0.3,0.9,1.1,1.5,2.1,1.5h3.7c0.5-0.1,1,0.3,1.1,0.8c0.1,1,0.2,2,0.2,3C119.4,93,119.3,94,119.2,94.8z"/>
	<path class="st0" d="M97.4,80.4c-6.4,0-11.5,5.1-11.5,11.5s5.1,11.5,11.5,11.5s11.5-5.1,11.5-11.5S103.8,80.4,97.4,80.4L97.4,80.4z
		 M97.4,102.2c-5.7,0-10.3-4.6-10.3-10.3s4.6-10.3,10.3-10.3c5.7,0,10.3,4.6,10.3,10.3S103.1,102.2,97.4,102.2
		C97.4,102.2,97.4,102.2,97.4,102.2z"/>
	<path class="st0" d="M125.6,96.8c0.3-1.8,0.5-3.7,0.4-5.5c-0.1-3.5-0.8-7-2.2-10.3h16.4c0.3,0.1,0.7,0,0.8-0.3s0-0.7-0.3-0.8
		c-0.2-0.1-0.3-0.1-0.5,0h-16.1c-0.3,0-0.5,0.2-0.5,0.5c-1.7-3.8-4.2-7.2-7.4-10l-1.5,1.6c5.6,4.9,8.9,11.9,9.1,19.3
		c0.1,1.6,0,3.2-0.3,4.8l-2-0.6l1.6,6.2l4.5-4.5L125.6,96.8z"/>
	<path class="st0" d="M71.1,92.7c-0.1-1.5,0-3.1,0.3-4.6l1.9,0.5l-1.7-6.1L67.1,87l2.2,0.6c-0.3,1.7-0.5,3.5-0.4,5.3
		c0.2,7.9,3.7,15.4,9.6,20.6l1.5-1.6C74.5,107,71.3,100.1,71.1,92.7z"/>
	<path class="st0" d="M97.3,118.3c-1.6,0-3.3-0.2-4.9-0.5l0.6-1.9l-6.3,1.4l4.4,4.7l0.6-2.1c1.8,0.4,3.7,0.6,5.6,0.6
		c8,0,15.7-3.4,21.1-9.3l-1.6-1.5C111.8,115.2,104.8,118.3,97.3,118.3z"/>
	<path class="st0" d="M97.3,65.5c1.6,0,3.1,0.1,4.7,0.4l-0.6,2l6.2-1.5l-4.4-4.6l-0.6,2c-1.7-0.3-3.5-0.5-5.3-0.5
		c-7.9,0-15.5,3.3-20.9,9l1.6,1.6C83,68.6,90,65.5,97.3,65.5z"/>
	<polygon class="st0" points="93.9,97.1 102.9,91.9 93.9,86.7 	"/>
	<path class="st0" d="M125.8,72.8h16.1c0.3,0.1,0.7,0,0.8-0.3s0-0.7-0.3-0.8c-0.2-0.1-0.3-0.1-0.5,0h-16.1c-0.3-0.1-0.7,0-0.8,0.3
		c-0.1,0.3,0,0.7,0.3,0.8C125.5,72.9,125.7,72.9,125.8,72.8z"/>
	<path class="st0" d="M144.1,99.4H128c-0.3,0.1-0.4,0.5-0.3,0.8c0.1,0.1,0.2,0.2,0.3,0.3h16.1c0.3-0.1,0.4-0.5,0.3-0.8
		C144.4,99.6,144.3,99.5,144.1,99.4z"/>
	<path class="st0" d="M144.1,89.5H128c-0.3-0.1-0.7,0-0.8,0.3c-0.1,0.3,0,0.7,0.3,0.8c0.2,0.1,0.3,0.1,0.5,0h16.1
		c0.3,0.1,0.7,0,0.8-0.3s0-0.7-0.3-0.8C144.5,89.4,144.3,89.4,144.1,89.5z"/>
	<path class="st0" d="M140.2,109.2h-16.1c-0.3,0.1-0.4,0.5-0.3,0.8c0.1,0.1,0.2,0.2,0.3,0.3h16.1c0.3-0.1,0.4-0.5,0.3-0.8
		C140.5,109.4,140.4,109.3,140.2,109.2z"/>
	<path class="st0" d="M48.9,72.8H65c0.3,0.1,0.7,0,0.8-0.3c0.1-0.3,0-0.7-0.3-0.8c-0.2-0.1-0.3-0.1-0.5,0H48.9
		c-0.3,0.1-0.4,0.5-0.3,0.8C48.7,72.6,48.8,72.7,48.9,72.8z"/>
	<path class="st0" d="M50,80.5c0,0.3,0.3,0.6,0.6,0.6h16.1c0.3-0.1,0.4-0.5,0.3-0.8c-0.1-0.1-0.2-0.2-0.3-0.3H50.6
		C50.3,80,50.1,80.2,50,80.5z"/>
	<path class="st0" d="M63.4,100c0-0.3-0.3-0.6-0.6-0.6H46.7c-0.3,0.1-0.4,0.5-0.3,0.8c0.1,0.1,0.2,0.2,0.3,0.3h16.1
		C63.1,100.5,63.4,100.3,63.4,100z"/>
	<path class="st0" d="M46.7,90.7h16.1c0.3-0.1,0.4-0.5,0.3-0.8c-0.1-0.1-0.2-0.2-0.3-0.3H46.7c-0.3,0.1-0.4,0.5-0.3,0.8
		C46.5,90.5,46.6,90.6,46.7,90.7z"/>
	<path class="st0" d="M66.7,109.2H50.6c-0.3,0.1-0.4,0.5-0.3,0.8c0.1,0.1,0.2,0.2,0.3,0.3h16.1c0.3-0.1,0.4-0.5,0.3-0.8
		C67,109.4,66.9,109.3,66.7,109.2z"/>
	<path class="st0" d="M28.7,57.2H8.3c-9.8,22.1-11,47-3.3,69.9h23.7V57.2z"/>
</g>
<g id="icons_process-03">
	<path class="st1" d="M94.2,114.5l-2.7,7.6h0.8l3.6-10.4c0.6-1.7,2.2-2.8,4-2.8h-9.7c2.3,0,4.2,1.8,4.2,4.2
		C94.4,113.5,94.4,114,94.2,114.5z"/>
	<path class="st1" d="M103.9,114.5l-2.7,7.6h0.8l3.6-10.4c0.6-1.7,2.2-2.8,4-2.8h-9.7c2.3,0,4.2,1.8,4.2,4.2
		C104.1,113.5,104.1,114,103.9,114.5z"/>
	<path class="st1" d="M96.3,0C43.1,0,0,43.1,0,96.3c0,33.7,17.6,64.9,46.5,82.4v-32.3h3.7v-1.5c0-12.6,10.2-22.8,22.8-22.8h9.6
		l3.6-10.4c0.6-1.7,2.2-2.8,4-2.8H56.6c-1,0-1.9-0.9-1.9-1.9l0,0v-0.8c0-1,0.9-1.9,1.9-1.9h0h24.3V70.2l0,0l5.2-4.7h25.7l4.5,4.7
		l0,0v34.1h24.3c1,0,1.9,0.9,1.9,1.9v0.8c-0.1,1-0.9,1.8-1.9,1.9h-31c2.4,0,4.4,2,4.4,4.4c0,0.4-0.1,0.8-0.2,1.2l-2.8,7.9
		c-4.7,13.7-7.2,22.5-22.8,22.5H73v1.5h2.9v44c52,11.3,103.3-21.7,114.6-73.6c11.3-52-21.7-103.3-73.6-114.6
		C110.1,0.7,103.2,0,96.3,0z M72.6,92.8l-7.3,1.9h-0.2c-0.4,0.1-0.8-0.3-0.9-0.7c-0.1-0.4,0.3-0.8,0.7-0.9l7.3-1.9
		c0.4-0.1,0.9,0.2,1,0.6S73,92.7,72.6,92.8C72.6,92.8,72.6,92.8,72.6,92.8z M73.2,78.1c-0.1,0.4-0.4,0.6-0.8,0.6h-0.2l-7.3-1.9
		c-0.4-0.1-0.7-0.6-0.6-1s0.6-0.7,1-0.6l0,0l7.3,1.9C73,77.2,73.3,77.6,73.2,78.1C73.2,78.1,73.2,78.1,73.2,78.1z M80,66.4l-0.6,0.2
		l-0.6-0.2l-5.3-5.3c-0.3-0.3-0.3-0.9,0-1.2c0.3-0.3,0.9-0.3,1.2,0l0,0l5.3,5.3C80.3,65.5,80.4,66,80,66.4C80,66.3,80,66.4,80,66.4z
		 M91.8,59.6h-0.2c-0.4,0-0.7-0.2-0.8-0.6l-2-7.3c-0.1-0.4,0.2-0.9,0.6-1s0.9,0.2,1,0.6l2,7.3C92.5,59,92.3,59.5,91.8,59.6
		C91.8,59.6,91.8,59.6,91.8,59.6z M108.4,51.7l-2,7.3c-0.1,0.4-0.4,0.6-0.8,0.6h-0.2c-0.4-0.1-0.7-0.5-0.6-1c0,0,0,0,0,0l2-7.3
		c0.1-0.4,0.6-0.7,1-0.6S108.5,51.2,108.4,51.7L108.4,51.7z M123.7,61.1l-5.3,5.3l-0.6,0.2l-0.6-0.2c-0.3-0.3-0.4-0.8-0.1-1.1
		c0,0,0,0,0.1-0.1l5.3-5.3c0.3-0.3,0.9-0.3,1.2,0C124,60.2,124,60.8,123.7,61.1z M132.9,94.1c-0.1,0.4-0.4,0.6-0.8,0.6h-0.2
		l-7.3-1.9c-0.4-0.1-0.7-0.6-0.6-1s0.6-0.7,1-0.6l7.3,1.9C132.7,93.2,133,93.6,132.9,94.1C132.9,94.1,132.9,94.1,132.9,94.1
		L132.9,94.1z M132.3,76.8l-7.3,1.9h-0.2c-0.4,0.1-0.8-0.3-0.9-0.7c-0.1-0.4,0.3-0.8,0.7-0.9l7.3-1.9c0.4-0.1,0.9,0.2,1,0.6
		C133,76.2,132.7,76.7,132.3,76.8z"/>
	<path class="st0" d="M73,146.4H46.5v32.3c9.1,5.5,19,9.5,29.4,11.7v-44H73z"/>
	<polygon class="st0" points="81.7,104.3 115.5,104.3 115.5,70.2 115.9,70.2 115.9,70.2 81.3,70.2 81.3,70.2 81.7,70.2 	"/>
	<polygon class="st0" points="86.6,66.3 83.2,69.3 114.4,69.3 111.5,66.3 	"/>
</g>
<g id="icons_process-06">
	<path class="st1" d="M96.3,0C43.2,0,0,43.1,0,96.3s43.1,96.3,96.3,96.3s96.3-43.1,96.3-96.3S149.5,0,96.3,0C96.3,0,96.3,0,96.3,0z
		 M96.3,167.2L15.4,73l28.5-27.5h0.8c0.4,0,39.9-0.3,51.6-0.1s51.2,0.1,51.6,0.1h0.8L177.2,73L96.3,167.2z"/>
	<path class="st1" d="M85.1,133.9v-18L52.1,60h26.1l18.2,30.6L114.6,60H141l-33.3,56v17.6L159,73.8l-15.8-15.2h-94L33.4,73.8
		L85.1,133.9z"/>
	<path class="st0" d="M96.3,150l65.4-76.3L144,56.6H48.4L30.7,73.7L96.3,150z M96.3,146.9l-9.2-10.7v-20.8L55.6,62h21.5l19.3,32.5
		L115.7,62h21.8l-31.8,53.5V136L96.3,146.9z M49.2,58.6h94L159,73.8l-51.3,59.8V116L141,60h-26.4L96.4,90.6L78.2,60H52.1l33,55.9v18
		L33.4,73.8L49.2,58.6z"/>
	<path class="st0" d="M148.7,45.5h-0.8c-0.4,0-39.9-0.3-51.6-0.1S45,45.5,44.7,45.5h-0.8L15.4,73l80.9,94.2L177.2,73L148.7,45.5z
		 M18.1,73.1l26.6-25.6c0,0,39.7-0.3,51.6-0.1s51.6,0.1,51.6,0.1l26.6,25.6l-78.2,91L18.1,73.1z"/>
</g>
</svg>
