<?xml version="1.0" encoding="utf-8"?>
<!-- Generator: Adobe Illustrator 20.1.0, SVG Export Plug-In . SVG Version: 6.00 Build 0)  -->
<svg version="1.1" id="sprite" xmlns="http://www.w3.org/2000/svg" xmlns:xlink="http://www.w3.org/1999/xlink" x="0px" y="0px"
	 viewBox="0 0 192.7 192.6" style="enable-background:new 0 0 192.7 192.6;" xml:space="preserve">
<style type="text/css">
	.st0{fill:#00BFA5;}
	.st1{fill:#00897B;}
	.st2{fill:#B1CF33;}
	.st3{fill:#FFFFFF;}
	.st4{fill:#74B78C;}
	.st5{fill:#527090;}
	.st6{fill:#879CB2;}
	.st7{fill:#B5306F;}
	.st8{fill:#D43882;}
	.st9{fill:#E63039;}
	.st10{fill:#BA272D;}
	.st11{fill:#8E4F9D;}
	.st12{fill:#C06BD4;}
	.st13{fill:#ED5B22;}
	.st14{fill:#FF7B47;}
	.st15{fill:#3C3744;}
</style>
<g id="ICONS_GREEN_N">
	<path class="st0" d="M105.9,138.7h27.4l-6.3-7.9l-16.5-20.5l0.8-0.6c2.8-2.1,5.2-4.6,7.1-7.5c0.7-1,1.3-2,1.8-3
		c0.8-1.5,1.4-3,1.9-4.6c0.9-2.6,1.3-5.3,1.3-8c0.1-7-1.9-13.8-5.7-19.7c-30.1,12.8-51.9,39.7-58.3,71.7h19.2V116h8.9L105.9,138.7
		L105.9,138.7z"/>
	<path class="st1" d="M134.9,137.5l-6.3-7.9l-15.3-18.9l1.7-1.5c5.2-4.8,8.8-11.2,10-18.2l0,0l0.2-1.3v-1.5c0-0.5,0-1,0-1.5
		c0.1-7.4-2-14.6-6.1-20.8l-0.9-1.4l0,0l-0.7-0.8c-2.3-2.7-5-5.1-8-6.9c-5.1-3.2-11.1-4.9-17.2-4.8H55.1v88.6h25.5V118h5.8l17.8,22
		l0.6,0.7h32.7L134.9,137.5z M78.7,116v22.7H59.4c6.4-32,28.2-58.9,58.3-71.7c3.8,5.9,5.8,12.7,5.7,19.7c0,2.7-0.4,5.4-1.3,8
		c-0.5,1.6-1.1,3.1-1.9,4.5c-0.5,1-1.1,2-1.7,2.9c-1.9,2.9-4.3,5.4-7.1,7.5l-0.8,0.6l16.4,20.6l6.3,7.9h-27.5L87.5,116H78.7z
		 M57.1,131.1v-77h35.5c8.6-0.2,16.8,3.4,22.6,9.7C86.7,76.2,65.3,101,57.1,131.1z"/>
	<path class="st0" d="M92.7,54.1H57.1v77c8.2-30.1,29.5-54.8,58.1-67.3C109.5,57.4,101.2,53.9,92.7,54.1z"/>
</g>
<g id="ICONS_N">
	<path class="st2" d="M105.9,138.5h27.4l-6.3-7.9l-16.5-20.5l0.8-0.6c2.8-2.1,5.2-4.6,7.1-7.5c0.7-1,1.3-2,1.8-3
		c0.8-1.5,1.4-3,1.9-4.6c0.9-2.6,1.3-5.3,1.3-8c0.1-7-1.9-13.8-5.7-19.7c-30.1,12.8-51.9,39.7-58.3,71.7h19.2v-22.6h8.9L105.9,138.5
		L105.9,138.5z"/>
	<path class="st3" d="M134.9,137.3l-6.3-7.9l-15.3-18.9l1.7-1.5c5.2-4.8,8.8-11.2,10-18.2l0,0l0.2-1.3V88c0-0.5,0-1,0-1.5
		c0.1-7.4-2-14.6-6.1-20.8l-0.8-1.3l0,0l-0.7-0.8h-0.1l-1.6-1.8c-2.3-2.5-5.1-4.6-8.1-6.2c-3.6-2-7.6-3.2-11.7-3.6h-41v88.6h25.5
		v-22.8h5.8l17.8,22l0.6,0.7h32.7L134.9,137.3z M78.7,115.8v22.7H59.4c6.4-32,28.2-58.9,58.3-71.7c3.8,5.9,5.8,12.7,5.7,19.7
		c0,2.7-0.4,5.4-1.3,8c-0.5,1.6-1.1,3.1-1.9,4.5c-0.5,1-1.1,2-1.7,2.9c-1.9,2.9-4.3,5.4-7.1,7.5l-0.8,0.6l16.4,20.6l6.3,7.9h-27.5
		l-18.3-22.7H78.7z M57.1,130.9v-77h35.5c8.6-0.2,16.8,3.4,22.6,9.7C86.7,76.1,65.3,100.8,57.1,130.9z"/>
	<path class="st4" d="M92.7,53.9H57.1v77c8.2-30.1,29.5-54.8,58.1-67.3C109.5,57.3,101.2,53.7,92.7,53.9z"/>
</g>
<g id="ICONS_GREEN_WEB">
	<path class="st0" d="M46,100.6h100.4V57c0.1-4.8-3.8-8.7-8.6-8.8c-0.1,0-0.1,0-0.2,0H54.8C50,48.1,46.1,52,46,56.8
		c0,0.1,0,0.1,0,0.2V100.6z"/>
	<path class="st1" d="M137.6,46.2H54.8C48.9,46.2,44,51,44,57l0,0v51.4c0,6,4.8,10.8,10.8,10.8h0h24.7v1.2L78,144.3v2.1h36.5v-2.1
		l-1.5-23.9v-1.2h24.8c6,0,10.8-4.8,10.8-10.8c0,0,0,0,0,0V57C148.5,51,143.6,46.2,137.6,46.2z M80,144.4l1.4-25.1H111l1.4,25.1H80z
		 M54.8,117.2c-4.8,0.1-8.7-3.8-8.8-8.6c0-0.1,0-0.1,0-0.2v-5h100.4v5c0.1,4.8-3.8,8.7-8.6,8.8c-0.1,0-0.1,0-0.2,0H54.8z M54.8,48.2
		h82.8c4.8-0.1,8.7,3.8,8.8,8.6c0,0.1,0,0.1,0,0.2v43.6H46V57c-0.1-4.8,3.8-8.7,8.6-8.8C54.7,48.2,54.8,48.2,54.8,48.2z"/>
	<path class="st0" d="M146.4,108.4v-5H46v5c-0.1,4.8,3.8,8.7,8.6,8.8c0.1,0,0.1,0,0.2,0h82.8c4.8,0.1,8.7-3.8,8.8-8.6
		C146.5,108.5,146.5,108.5,146.4,108.4z"/>
	<polygon class="st0" points="81.4,119.3 80,144.4 112.4,144.4 111,119.3 	"/>
</g>
<g id="ICONS_WEB">
	<path class="st5" d="M46,100.6h100.4V57c0.1-4.8-3.8-8.7-8.6-8.8c-0.1,0-0.1,0-0.2,0H54.8C50,48.1,46.1,52,46,56.8
		c0,0.1,0,0.1,0,0.2V100.6z"/>
	<path class="st3" d="M137.6,46.2H54.8C48.9,46.2,44,51,44,57l0,0v51.4c0,6,4.8,10.8,10.8,10.8h0h24.7v1.2L78,144.3v2.1h36.5v-2.1
		l-1.5-23.9v-1.2h24.8c6,0,10.8-4.8,10.8-10.8c0,0,0,0,0,0V57C148.5,51,143.6,46.2,137.6,46.2z M80,144.4l1.4-25.1H111l1.4,25.1H80z
		 M54.8,117.2c-4.8,0.1-8.7-3.8-8.8-8.6c0-0.1,0-0.1,0-0.2v-5h100.4v5c0.1,4.8-3.8,8.7-8.6,8.8c-0.1,0-0.1,0-0.2,0H54.8z M54.8,48.2
		h82.8c4.8-0.1,8.7,3.8,8.8,8.6c0,0.1,0,0.1,0,0.2v43.6H46V57c-0.1-4.8,3.8-8.7,8.6-8.8C54.7,48.2,54.8,48.2,54.8,48.2z"/>
	<path class="st6" d="M146.4,108.4v-5H46v5c-0.1,4.8,3.8,8.7,8.6,8.8c0.1,0,0.1,0,0.2,0h82.8c4.8,0.1,8.7-3.8,8.8-8.6
		C146.5,108.5,146.5,108.5,146.4,108.4z"/>
	<polygon class="st5" points="81.4,119.3 80,144.4 112.4,144.4 111,119.3 	"/>
</g>
<g id="ICONS__GREEN_ILLUST">
	<path class="st0" d="M107.3,88.6h33.2v55.2h-74V88.6h24.1v-5.4H43.5v67.1h105.6V83.2h-41.8V88.6z M54.8,126.2
		c-5.2,0-9.4-4.2-9.4-9.4s4.2-9.4,9.4-9.4s9.4,4.2,9.4,9.4C64.1,121.9,60,126.1,54.8,126.2z"/>
	<path class="st1" d="M54.8,112.2c-2.5,0-4.6,2.1-4.6,4.6c-0.1,2.5,1.9,4.5,4.4,4.6c0.1,0,0.1,0,0.2,0c2.5,0,4.6-2.1,4.6-4.6
		C59.4,114.2,57.3,112.2,54.8,112.2z"/>
	<path class="st0" d="M54.8,109.4c-4.1,0-7.4,3.3-7.4,7.4s3.3,7.4,7.4,7.4s7.4-3.3,7.4-7.4S58.9,109.4,54.8,109.4L54.8,109.4z
		 M54.8,121.4c-2.5,0.1-4.5-1.9-4.6-4.4c0-0.1,0-0.1,0-0.2c0-2.5,2.1-4.6,4.6-4.6c2.5,0,4.6,2.1,4.6,4.6
		C59.4,119.3,57.3,121.4,54.8,121.4C54.8,121.4,54.8,121.4,54.8,121.4z"/>
	<path class="st0" d="M93.6,96.4c0,0.8,0,1.6-0.1,2.4l-1.4,7.9h14l-1.4-7.9c-0.1-0.8-0.1-1.6-0.1-2.4V51.7c0-0.2-0.1-0.5-0.2-0.7
		l-0.5-0.8c-0.6-0.9-1.4-1.6-2.4-2l0,0c-1.6-0.8-3.4-0.8-5,0l0,0c-0.9,0.4-1.7,1.1-2.2,2c-0.2,0.3-0.4,0.5-0.5,0.8
		c-0.1,0.2-0.2,0.5-0.2,0.7V96.4z M101,99.9h-4v-6.5h4V99.9z M101,92.8h-4V80.9h4V92.8z"/>
	<rect x="97" y="80.9" class="st1" width="4" height="11.9"/>
	<rect x="97" y="93.4" class="st1" width="4" height="6.5"/>
	<path class="st1" d="M151.1,81.2h-43.8V51.7c0-0.7-0.2-1.4-0.5-2l-0.6-1.1c-0.5-0.7-1.1-1.4-1.8-1.9c0-0.3,0-0.6,0-0.9
		c0-3-2.4-5.4-5.4-5.4c-3,0-5.4,2.4-5.4,5.4c0,0,0,0,0,0c0,0.3,0,0.6,0.1,0.9c-0.7,0.6-1.4,1.2-1.9,2l-0.7,1.1
		c-0.3,0.6-0.5,1.3-0.5,2v29.4H41.5v71.1h109.7L151.1,81.2L151.1,81.2z M149.1,150.3H43.5V83.2h47.1v5.4H66.5v55.2h74V88.6h-33.2
		v-5.4h41.8V150.3z M102,45.6c0,0.3,0,0.7-0.1,1c-0.9-0.5-1.9-0.7-2.9-0.7c-1,0-2,0.2-2.9,0.6c0-0.3-0.1-0.6-0.1-0.9
		c0-1.7,1.3-3,3-3S102,43.9,102,45.6z M93.8,51c0.1-0.3,0.3-0.5,0.5-0.8c0.5-0.9,1.3-1.7,2.2-2.1l0,0c1.6-0.8,3.4-0.8,5,0l0,0
		c1,0.4,1.8,1.1,2.4,2l0.5,0.8c0.1,0.2,0.2,0.5,0.2,0.7v44.8c0,0.8,0,1.6,0.1,2.4l1.4,7.9h-14l1.4-7.9c0.1-0.8,0.1-1.6,0.1-2.4V51.7
		C93.6,51.4,93.7,51.2,93.8,51z M105.6,108.5l-4.7,11.3v0.2c-0.5,1-1.7,1.4-2.7,1c-0.4-0.2-0.8-0.5-1-0.9v-0.2l-4.9-11.3l-0.3-0.9
		h13.9L105.6,108.5z M90.5,96.5c0,0.6,0,1.3-0.1,1.9l-1.2,7.2c-0.2,1.1-0.1,2.2,0.3,3.2l4.8,12.2c0,0.2,0.1,0.3,0.2,0.5
		c0.6,1,1.5,1.8,2.5,2.2l0.6,0.2v1.5c0,1.5,2.6,1.5,2.6,0v-1.5c1.4-0.3,2.5-1.2,3.1-2.5l0.2-0.3l4.8-12.2c0.4-1,0.5-2.1,0.3-3.2
		l-1.2-7.3c-0.1-0.6-0.1-1.3-0.1-1.9v-5.9h31.2v51.2h-70V90.6h22L90.5,96.5z"/>
	<path class="st1" d="M54.8,107.4c-5.2,0-9.4,4.2-9.4,9.4s4.2,9.4,9.4,9.4s9.4-4.2,9.4-9.4S60,107.4,54.8,107.4L54.8,107.4z
		 M54.8,124.2c-4.1,0-7.4-3.3-7.4-7.4s3.3-7.4,7.4-7.4s7.4,3.3,7.4,7.4S58.9,124.2,54.8,124.2L54.8,124.2z"/>
	<path class="st0" d="M68.5,90.6v51.2h70V90.6h-31.2v5.9c0,0.6,0,1.3,0.1,1.9l1.2,7.3c0.2,1.1,0.1,2.2-0.3,3.2l-4.8,12.2l-0.2,0.3
		c-0.6,1.3-1.7,2.2-3.1,2.5v1.5c0,1.5-2.6,1.5-2.6,0v-1.5l-0.6-0.2c-1-0.4-1.9-1.2-2.5-2.2c-0.1-0.2-0.2-0.3-0.2-0.5l-4.8-12.2
		c-0.4-1-0.5-2.1-0.3-3.2l1.2-7.2c0.1-0.6,0.1-1.3,0.1-1.9v-5.9C90.5,90.6,68.5,90.6,68.5,90.6z"/>
	<path class="st0" d="M92.3,108.6l4.7,11.3v0.2c0.2,0.4,0.6,0.7,1,0.9c1,0.4,2.2,0,2.7-1v-0.2l4.7-11.3l0.3-0.9H92L92.3,108.6z"/>
	<path class="st0" d="M99,42.3c-1.7,0.1-3.1,1.5-3,3.2c0,0,0,0.1,0,0.1c0,0.3,0.1,0.6,0.1,0.9c0.9-0.4,1.9-0.6,2.9-0.6
		c1,0,2,0.2,2.9,0.7c0.1-0.3,0.1-0.7,0.1-1c0.1-1.7-1.2-3.2-2.9-3.3C99.1,42.3,99,42.3,99,42.3z"/>
</g>
<g id="ICONS_ILLUST">
	<path class="st7" d="M107.3,88.4h33.2v55.2h-74V88.4h24.1V83H43.5v67.1h105.6V83h-41.8V88.4z M54.8,126c-5.2,0-9.4-4.2-9.4-9.4
		s4.2-9.4,9.4-9.4s9.4,4.2,9.4,9.4C64.1,121.7,60,125.9,54.8,126z"/>
	<path class="st3" d="M54.8,112c-2.5,0-4.6,2.1-4.6,4.6c-0.1,2.5,1.9,4.5,4.4,4.6c0.1,0,0.1,0,0.2,0c2.5,0,4.6-2.1,4.6-4.6
		C59.4,114,57.3,112,54.8,112z"/>
	<path class="st7" d="M54.8,109.2c-4.1,0-7.4,3.3-7.4,7.4s3.3,7.4,7.4,7.4s7.4-3.3,7.4-7.4S58.9,109.2,54.8,109.2L54.8,109.2z
		 M54.8,121.2c-2.5,0.1-4.5-1.9-4.6-4.4c0-0.1,0-0.1,0-0.2c0-2.5,2.1-4.6,4.6-4.6c2.5,0,4.6,2.1,4.6,4.6
		C59.4,119.1,57.3,121.2,54.8,121.2C54.8,121.2,54.8,121.2,54.8,121.2z"/>
	<path class="st7" d="M93.6,96.2c0,0.8,0,1.6-0.1,2.4l-1.4,7.9h14l-1.4-7.9c-0.1-0.8-0.1-1.6-0.1-2.4V51.5c0-0.2-0.1-0.5-0.2-0.7
		l-0.5-0.8c-0.6-0.9-1.4-1.6-2.4-2l0,0c-1.6-0.8-3.4-0.8-5,0l0,0c-0.9,0.4-1.7,1.1-2.2,2c-0.2,0.3-0.4,0.5-0.5,0.8
		c-0.1,0.2-0.2,0.5-0.2,0.7V96.2z M101,99.7h-4v-6.5h4V99.7z M101,92.6h-4V80.7h4V92.6z"/>
	<rect x="97" y="80.7" class="st3" width="4" height="11.9"/>
	<rect x="97" y="93.2" class="st3" width="4" height="6.5"/>
	<path class="st3" d="M151.1,81h-43.8V51.5c0-0.7-0.2-1.4-0.5-2l-0.6-1.1c-0.6-0.9-1.3-1.7-2.2-2.3c0-0.2,0-0.4,0-0.5
		c0-2.8-2.2-5-5-5s-5,2.2-5,5c0,0.2,0,0.3,0,0.5c-0.9,0.6-1.6,1.5-2.2,2.4l-0.7,1.1c-0.3,0.6-0.5,1.3-0.5,2V81H41.5v71.1h109.7
		L151.1,81L151.1,81z M149.1,150.1H43.5V83h47.1v5.4H66.5v55.2h74V88.4h-33.2V83h41.8V150.1z M93.8,50.8c0.1-0.3,0.3-0.5,0.5-0.8
		c0.5-0.9,1.3-1.7,2.2-2.1l0,0c1.6-0.8,3.4-0.8,5,0l0,0c1,0.4,1.8,1.1,2.4,2l0.5,0.8c0.1,0.2,0.2,0.5,0.2,0.7v44.8
		c0,0.8,0,1.6,0.1,2.4l1.4,7.9h-14l1.4-7.9c0.1-0.8,0.1-1.6,0.1-2.4V51.5C93.6,51.2,93.7,51,93.8,50.8z M105.6,108.3l-4.7,11.3v0.2
		c-0.5,1-1.7,1.4-2.7,1c-0.4-0.2-0.8-0.5-1-0.9v-0.2l-4.9-11.3l-0.3-0.9h13.9L105.6,108.3z M90.5,96.3c0,0.6,0,1.3-0.1,1.9l-1.2,7.2
		c-0.2,1.1-0.1,2.2,0.3,3.2l4.8,12.2c0,0.2,0.1,0.3,0.2,0.5c0.6,1,1.5,1.8,2.5,2.2l0.6,0.2v1.5c0,1.5,2.6,1.5,2.6,0v-1.5
		c1.4-0.3,2.5-1.2,3.1-2.5l0.2-0.3l4.8-12.2c0.4-1,0.5-2.1,0.3-3.2l-1.2-7.3c-0.1-0.6-0.1-1.3-0.1-1.9v-5.9h31.2v51.2h-70V90.4h22
		L90.5,96.3z M99,42.1c1.7,0.1,3.1,1.5,3,3.2c0,0,0,0.1,0,0.1c0,0.3,0,0.7-0.1,1c-0.9-0.5-1.9-0.7-2.9-0.7c-1,0-2,0.2-2.9,0.6
		c0-0.3-0.1-0.6-0.1-0.9c-0.1-1.7,1.2-3.2,2.9-3.3C98.9,42.1,99,42.1,99,42.1z"/>
	<path class="st3" d="M54.8,107.2c-5.2,0-9.4,4.2-9.4,9.4s4.2,9.4,9.4,9.4s9.4-4.2,9.4-9.4S60,107.2,54.8,107.2L54.8,107.2z
		 M54.8,124c-4.1,0-7.4-3.3-7.4-7.4s3.3-7.4,7.4-7.4s7.4,3.3,7.4,7.4S58.9,124,54.8,124L54.8,124z"/>
	<path class="st8" d="M68.5,90.4v51.2h70V90.4h-31.2v5.9c0,0.6,0,1.3,0.1,1.9l1.2,7.3c0.2,1.1,0.1,2.2-0.3,3.2l-4.8,12.2l-0.2,0.3
		c-0.6,1.3-1.7,2.2-3.1,2.5v1.5c0,1.5-2.6,1.5-2.6,0v-1.5l-0.6-0.2c-1-0.4-1.9-1.2-2.5-2.2c-0.1-0.2-0.2-0.3-0.2-0.5l-4.8-12.2
		c-0.4-1-0.5-2.1-0.3-3.2l1.2-7.2c0.1-0.6,0.1-1.3,0.1-1.9v-5.9C90.5,90.4,68.5,90.4,68.5,90.4z"/>
	<path class="st7" d="M92.3,108.4l4.7,11.3v0.2c0.2,0.4,0.6,0.7,1,0.9c1,0.4,2.2,0,2.7-1v-0.2l4.7-11.3l0.3-0.9H92L92.3,108.4z"/>
	<path class="st7" d="M96.1,46.3c0.9-0.4,1.9-0.6,2.9-0.6c1,0,2,0.2,2.9,0.7c0.1-0.3,0.1-0.7,0.1-1c0-1.7-1.3-3-3-3s-3,1.3-3,3
		C96,45.7,96.1,46,96.1,46.3z"/>
</g>
<g id="ICONS__GREEN_PACK">
	<polygon class="st0" points="71.1,81.1 72.1,80.5 117.8,53.9 96.3,41.5 49.6,68.5 49.8,68.7 	"/>
	<polygon class="st0" points="118.8,55.7 73.1,82.2 95.3,95.2 95.8,95.5 115.8,83.9 142.8,68.3 119.8,55.1 	"/>
	<path class="st0" d="M94.3,97.5v-0.4l-22.3-13l-1-0.6l0,0l-1-0.6L48.8,70.4V124l45.5,26.3V97.5z M79.6,101.7c0,1.3-1,2.3-2.3,2.3
		c0,0,0,0,0,0c-0.4,0-0.9-0.1-1.2-0.4l-8.4-4.9l-1.6-0.9c-1.1-0.6-1.8-1.8-1.8-3V92c0-1.1,0.9-2,2-2c0.4,0,0.8,0.1,1.1,0.3l8.1,4.7
		l2.3,1.4c1.1,0.6,1.7,1.8,1.7,3L79.6,101.7z"/>
	<polygon class="st0" points="96.3,97.5 96.3,150.3 96.3,151.5 143.9,124 143.9,70 116.8,85.6 96.8,97.2 	"/>
	<path class="st1" d="M96.3,39.2L48.6,66.8l-1,0.6l-0.8,0.5v57.4l0.5,0.3l48.5,27.9l49-27.8l1-0.6V67.8L96.3,39.2z M96.3,41.5
		l21.5,12.4L72.1,80.5l-1,0.6L49.8,68.7l-0.2-0.2L96.3,41.5z M143.9,70v54l-47.5,27.5v-54l0.5-0.3l20-11.6L143.9,70z M48.8,70.4
		l21.2,12.4l1,0.6l0,0l1,0.6l22.3,13.1v53.2L48.8,124V70.4z M115.8,83.9l-20,11.6l-0.5-0.3l-22.3-13l45.8-26.5l1-0.6l22.9,13.2
		L115.8,83.9z"/>
</g>
<g id="ICONS_PACK">
	<polygon class="st9" points="71.1,80.9 72.1,80.3 117.8,53.7 96.3,41.3 49.6,68.3 49.8,68.5 	"/>
	<polygon class="st9" points="118.8,55.5 73.1,82 95.3,95 95.8,95.3 115.8,83.7 142.8,68.1 119.8,54.9 	"/>
	<path class="st10" d="M94.3,97.3v-0.4l-22.3-13l-1-0.6l0,0l-1-0.6L48.8,70.2v53.6l45.5,26.3V97.3z M79.1,101.5c0,1-0.8,1.8-1.8,1.8
		c0,0,0,0,0,0l-0.9-0.3L68,98.1l-1.6-0.9c-0.9-0.5-1.5-1.5-1.5-2.6v-2.8c0-0.8,0.7-1.5,1.5-1.5l0,0c0.3,0,0.6,0,0.8,0.2l8.1,4.7
		l2.3,1.4c0.9,0.5,1.5,1.5,1.5,2.6V101.5z"/>
	<polygon class="st10" points="96.3,97.3 96.3,150.1 96.3,151.3 143.9,123.8 143.9,69.8 116.8,85.4 96.8,97 	"/>
	<path class="st3" d="M96.3,39L48.6,66.6l-1,0.6l-0.8,0.5v57.4l1,0.6l48.5,27.9l48.5-28.1l1-0.6V67.6L96.3,39z M96.3,41.3l21.5,12.4
		L72.1,80.3l-1,0.6L49.8,68.5l-0.2-0.2L96.3,41.3z M143.9,69.8v54l-47.5,27.5v-54l0.5-0.3l20-11.6L143.9,69.8z M48.8,70.2l21.2,12.4
		l1,0.6l0,0l1,0.6l22.3,13.1v53.2l-45.5-26.3V70.2z M115.8,83.7l-20,11.6L95.3,95L73.1,82l45.8-26.5l1-0.6l22.9,13.2L115.8,83.7z"/>
	<path class="st3" d="M77.6,96.6l-2.3-1.4l-8.1-4.7c-0.2-0.2-0.5-0.2-0.8-0.2c-0.8,0-1.5,0.7-1.5,1.5l0,0v2.8c0,1.1,0.6,2.1,1.5,2.6
		l1.6,0.9l8.4,4.9l0.9,0.3c1,0,1.8-0.8,1.8-1.8l0,0v-2.3C79.2,98.1,78.6,97.1,77.6,96.6z"/>
</g>
<g id="ICONS_GREEN_PUB">
	<path class="st1" d="M134,52.9L96.3,74.2L58.9,53.1l-0.4-0.2l-12.2,2.9v58l39.9,23c3,1.9,6.5,2.9,10.1,2.9
		c3.6,0.2,7.2-0.9,10.2-2.9l39.8-23V56.1L134,52.9z M48.3,58.4l41.1,23.8v54l-2.2-1.1l-38.9-22.5V58.4z M50,57l8.3-2l35.2,19.9
		c-2.1,0.9-3.6,2.8-4,5L50,57z M101.1,81c-0.6,0.4-1.2,0.6-1.9,0.8L96.3,82l-2.8-0.2l-2-0.8c0-2.7,2.1-4.8,4.8-4.8
		S101.1,78.3,101.1,81z M99.1,74.9L134.4,55l8.4,2.3l-39.6,22.6C102.7,77.7,101.2,75.8,99.1,74.9z M91.4,83.4l1.9,0.4
		c1,0.3,2,0.4,3,0.4c1.1,0,2.2-0.1,3.2-0.4l1.7-0.4v53.5c-3.2,0.9-6.6,0.9-9.8,0V83.4z M103.3,136.1v-54l41-23.5v54L105.5,135
		L103.3,136.1z"/>
	<path class="st0" d="M144.4,58.6l-41,23.5v54l2.2-1.1l38.8-22.4V58.6z"/>
	<path class="st0" d="M103.2,79.9l39.6-22.6l-8.4-2.3L99.1,74.9C101.2,75.8,102.7,77.7,103.2,79.9z"/>
	<path class="st0" d="M93.6,74.9L58.3,55L50,57l39.5,22.9C90,77.7,91.5,75.8,93.6,74.9z"/>
	<path class="st0" d="M91.6,81l2,0.8l2.8,0.2l2.9-0.2c0.7-0.2,1.3-0.4,1.9-0.8c0-2.7-2.2-4.8-4.8-4.8C93.7,76.2,91.6,78.3,91.6,81z"
		/>
	<path class="st0" d="M89.4,136.2v-54L48.3,58.4v54.2l38.9,22.5L89.4,136.2z"/>
	<path class="st0" d="M101.3,136.9V83.4l-1.7,0.4c-1,0.3-2.1,0.4-3.2,0.4c-1,0-2-0.1-3-0.4l-1.9-0.4v53.5
		C94.7,137.8,98,137.8,101.3,136.9z"/>
</g>
<g id="ICONS_PUB">
	<path class="st3" d="M134,52.9L96.3,74.2L58.9,53.1l-0.4-0.2l-12.2,2.9v58l39.9,23c3,1.9,6.5,2.9,10.1,2.9
		c3.6,0.2,7.2-0.9,10.2-2.9l39.8-23V56.1L134,52.9z M48.3,58.4l41.1,23.8v54l-2.2-1.1l-38.9-22.5V58.4z M50,57l8.3-2l35.2,19.9
		c-2.1,0.9-3.6,2.8-4,5L50,57z M101.1,81c-0.6,0.4-1.2,0.6-1.9,0.8L96.3,82l-2.8-0.2l-2-0.8c0-2.7,2.1-4.8,4.8-4.8
		S101.1,78.3,101.1,81z M99.1,74.9L134.4,55l8.4,2.3l-39.6,22.6C102.7,77.7,101.2,75.8,99.1,74.9z M91.4,83.4l1.9,0.4
		c1,0.3,2,0.4,3,0.4c1.1,0,2.2-0.1,3.2-0.4l1.7-0.4v53.5c-3.2,0.9-6.6,0.9-9.8,0V83.4z M103.3,136.1v-54l41-23.5v54L105.5,135
		L103.3,136.1z"/>
	<path class="st11" d="M144.4,58.6l-41,23.5v54l2.2-1.1l38.8-22.4V58.6z"/>
	<path class="st12" d="M103.2,79.9l39.6-22.6l-8.4-2.3L99.1,74.9C101.2,75.8,102.7,77.7,103.2,79.9z"/>
	<path class="st11" d="M93.6,74.9L58.3,55L50,57l39.5,22.9C90,77.7,91.5,75.8,93.6,74.9z"/>
	<path class="st11" d="M91.6,81l2,0.8l2.8,0.2l2.9-0.2c0.7-0.2,1.3-0.4,1.9-0.8c0-2.7-2.2-4.8-4.8-4.8C93.7,76.2,91.6,78.3,91.6,81z
		"/>
	<path class="st12" d="M89.4,136.2v-54L48.3,58.4v54.2l38.9,22.5L89.4,136.2z"/>
	<path class="st11" d="M101.3,136.9V83.4l-1.7,0.4c-1,0.3-2.1,0.4-3.2,0.4c-1,0-2-0.1-3-0.4l-1.9-0.4v53.5
		C94.7,137.8,98,137.8,101.3,136.9z"/>
</g>
<g id="ICONS__GREEN_OUTDOR">
	<rect x="88.1" y="111" class="st0" width="14" height="27.4"/>
	<rect x="47.3" y="53" class="st0" width="98" height="56"/>
	<rect x="132.1" y="44" class="st0" width="13.2" height="6.6"/>
	<path class="st1" d="M145.4,42h-15.2v9h-25.2v-9H87.8v9H62.5v-9H45.3v69h40.8v27.2H70.8v12.5h49v-12.5h-15.6V111h43.2V42H145.4z
		 M89.6,148.8h-6.5l8.8-8.8h6.5L89.6,148.8z M89.1,139.9l-8.8,8.8h-6.6l8.9-8.8H89.1z M72.6,147.1v-7.1h7.1L72.6,147.1z
		 M117.8,148.8H111l6.7-6.7L117.8,148.8z M108.3,148.8h-6.5l8.8-8.8h6.5L108.3,148.8z M98.9,148.8h-6.6l8.9-8.8h6.5L98.9,148.8z
		 M88.1,138.4V111h14v27.4H88.1z M47.3,109V53h98v56H47.3z M60.5,50.6H47.3V44h13.2V50.6z M89.8,44h13.2v6.6H89.8V44z M145.4,50.6
		h-13.2V44h13.2V50.6z"/>
	<rect x="89.8" y="44" class="st0" width="13.2" height="6.6"/>
	<rect x="47.3" y="44" class="st0" width="13.2" height="6.6"/>
	<polygon class="st0" points="82.6,139.9 73.6,148.8 80.3,148.8 89.1,139.9 	"/>
	<polygon class="st0" points="83.1,148.8 89.6,148.8 98.3,139.9 91.8,139.9 	"/>
	<polygon class="st0" points="101.3,139.9 92.3,148.8 98.9,148.8 107.8,139.9 	"/>
	<polygon class="st0" points="117.8,148.8 117.8,142.1 111,148.8 	"/>
	<polygon class="st0" points="72.6,147.1 79.6,139.9 72.6,139.9 	"/>
	<polygon class="st0" points="101.8,148.8 108.3,148.8 117,139.9 110.5,139.9 	"/>
</g>
<g id="ICONS_OUTDOR">
	<rect x="88.1" y="110.8" class="st13" width="14" height="27.4"/>
	<path class="st13" d="M145.4,108.8v-56h-98v56H145.4z M50.1,106V55.6h92.4V106H50.1z"/>
	<path class="st3" d="M146.9,50.8v-8.6h-16.4v8.6h-26v-8.6H88.1v8.6h-26v-8.6H45.8v8.6h-0.4v60h40.8v27.2H70.8v12.5h49v-12.5h-15.6
		v-27.2h43.2v-60L146.9,50.8z M89.6,148.6h-6.5l8.8-8.8h6.5L89.6,148.6z M89.1,139.8l-8.8,8.8h-6.6l8.9-8.8H89.1z M72.6,146.8v-7.1
		h7.1L72.6,146.8z M117.8,148.5H111l6.7-6.7L117.8,148.5z M108.3,148.5h-6.5l8.8-8.8h6.5L108.3,148.5z M98.9,148.5h-6.6l8.9-8.8h6.5
		L98.9,148.5z M88.1,138.1v-27.4h14v27.4L88.1,138.1z M47.3,108.8v-56h98v56H47.3z M60.5,50.4H47.3v-6.6h13.2V50.4z M89.8,43.8h13.2
		v6.6H89.8V43.8z M132.1,43.8h13.2v6.6h-13.2V43.8z"/>
	<rect x="50.1" y="55.6" class="st14" width="92.4" height="50.4"/>
	<rect x="132.1" y="43.8" class="st13" width="13.2" height="6.6"/>
	<rect x="89.8" y="43.8" class="st13" width="13.2" height="6.6"/>
	<rect x="47.3" y="43.8" class="st13" width="13.2" height="6.6"/>
	<polygon class="st13" points="82.6,139.8 73.6,148.6 80.3,148.6 89.1,139.8 	"/>
	<polygon class="st13" points="83.1,148.6 89.6,148.6 98.3,139.8 91.8,139.8 	"/>
	<polygon class="st13" points="101.3,139.8 92.3,148.6 98.9,148.6 107.8,139.8 	"/>
	<polygon class="st13" points="117.8,148.6 117.8,141.9 111,148.6 	"/>
	<polygon class="st13" points="72.6,146.9 79.6,139.8 72.6,139.8 	"/>
	<polygon class="st13" points="101.8,148.6 108.3,148.6 117,139.8 110.5,139.8 	"/>
</g>
<g id="icon-vk-c">
	<path class="st14" d="M111.3,76.3h-30c-2.8,0-5,2.2-5,5v30c0,2.8,2.2,5,5,5h30c2.8,0,5-2.2,5-5v-30
		C116.3,78.5,114.1,76.3,111.3,76.3z M113.1,94.5l-5.1,8c-0.4,0.6-0.3,1.4,0.2,2l3.9,4.1c0.6,0.7,0.5,1.8-0.2,2.4
		c-0.3,0.2-0.6,0.4-1,0.4h-4.1c-0.5,0-0.9-0.2-1.2-0.6l-3-3.3c-0.6-0.7-1.7-0.7-2.4-0.1c-0.3,0.2-0.4,0.5-0.5,0.9l-0.4,1.8
		c-0.1,0.8-0.8,1.3-1.6,1.3h-1.8c-3.4,0-6.5-1.7-8.3-4.5l-8-12.4c-0.5-0.8-0.3-1.8,0.5-2.3c0.3-0.2,0.6-0.3,0.9-0.3h3.6
		c0.6,0,1.1,0.3,1.4,0.8l5.3,8.8c0.1,0.3,0.4,0.5,0.8,0.5s0.5-0.4,0.5-0.8v-7.8h-0.2c-0.6-0.4-0.8-1.2-0.4-1.8
		c0.1-0.2,0.4-0.4,0.6-0.5h4.9c0.9,0,1.7,0.8,1.7,1.7l0,0v8.5c-0.1,0.3,0.1,0.7,0.4,0.8c0.3,0.1,0.7-0.1,0.8-0.4l5.3-8.8
		c0.3-0.5,0.8-0.8,1.4-0.8h4.7c0.9,0,1.6,0.6,1.7,1.5C113.4,93.9,113.3,94.2,113.1,94.5z"/>
</g>
<g id="icon-vk">
	<path class="st15" d="M111.8,92h-4.7c-0.6,0-1.1,0.3-1.4,0.8l-5.3,8.8c-0.1,0.3-0.4,0.5-0.8,0.4s-0.5-0.4-0.5-0.8v-8.6
		c0-0.9-0.8-1.7-1.7-1.7l0,0h-4.9c-0.7,0.3-1,1-0.7,1.7c0.1,0.2,0.3,0.5,0.5,0.6h0.2v7.8c0.1,0.3-0.1,0.7-0.5,0.8
		c-0.3,0.1-0.7-0.1-0.8-0.5L86,92.7c-0.3-0.5-0.8-0.8-1.4-0.8H81c-0.9,0-1.7,0.8-1.7,1.7c0,0.3,0.1,0.6,0.3,0.9l8,12.4
		c1.8,2.8,4.9,4.5,8.3,4.5h1.8c0.8,0,1.5-0.5,1.6-1.3l0.4-1.8c0.2-0.9,1.1-1.5,2-1.3c0.3,0.1,0.6,0.2,0.9,0.5l3,3.3
		c0.3,0.4,0.7,0.6,1.2,0.6h4.1c0.9-0.1,1.7-0.9,1.6-1.8c0-0.4-0.2-0.7-0.4-1l-3.9-4.1c-0.5-0.6-0.6-1.4-0.2-2l5.1-8
		c0.5-0.7,0.3-1.7-0.4-2.2C112.4,92.1,112.1,92,111.8,92z"/>
	<path class="st3" d="M111.3,76.3h-30c-2.8,0-5,2.2-5,5v30c0,2.8,2.2,5,5,5h30c2.8,0,5-2.2,5-5v-30
		C116.3,78.5,114.1,76.3,111.3,76.3z M113.1,94.5l-5.1,8c-0.4,0.6-0.3,1.4,0.2,2l3.9,4.1c0.6,0.7,0.5,1.8-0.2,2.4
		c-0.3,0.2-0.6,0.4-1,0.4h-4.1c-0.5,0-0.9-0.2-1.2-0.6l-3-3.3c-0.6-0.7-1.7-0.7-2.4-0.1c-0.3,0.2-0.4,0.5-0.5,0.9l-0.4,1.8
		c-0.1,0.8-0.8,1.3-1.6,1.3h-1.8c-3.4,0-6.5-1.7-8.3-4.5l-8-12.4c-0.5-0.8-0.3-1.8,0.5-2.3c0.3-0.2,0.6-0.3,0.9-0.3h3.6
		c0.6,0,1.1,0.3,1.4,0.8l5.3,8.8c0.1,0.3,0.4,0.5,0.8,0.5s0.5-0.4,0.5-0.8v-7.8h-0.2c-0.6-0.4-0.8-1.2-0.4-1.8
		c0.1-0.2,0.4-0.4,0.6-0.5h4.9c0.9,0,1.7,0.8,1.7,1.7l0,0v8.5c-0.1,0.3,0.1,0.7,0.4,0.8c0.3,0.1,0.7-0.1,0.8-0.4l5.3-8.8
		c0.3-0.5,0.8-0.8,1.4-0.8h4.7c0.9,0,1.6,0.6,1.7,1.5C113.4,93.9,113.3,94.2,113.1,94.5z"/>
</g>
<g id="icon-facebook-c">
	<path class="st12" d="M111.3,76.3h-30c-2.8,0-5,2.2-5,5v30c0,2.8,2.2,5,5,5h30c2.8,0,5-2.2,5-5v-30
		C116.3,78.5,114.1,76.3,111.3,76.3z M105.1,84.4h-4.5c-1,0-1.9,0.9-1.9,1.9l0,0v5.1h6.2l-0.8,6.3h-5.4v16h-6.5v-16h-5.3v-6.2h5.4
		v-7c0-3.1,2.5-5.6,5.6-5.6l0,0h7.3L105.1,84.4z"/>
</g>
<g id="icon-facebook">
	<path class="st15" d="M97.8,78.8c-3.1,0-5.6,2.5-5.6,5.6c0,0,0,0,0,0v7h-5.4v6.3h5.4v16h6.4v-16h5.4l0.8-6.3h-6.2v-5.1
		c0-1,0.9-1.9,1.9-1.9h4.5v-5.6H97.8z"/>
	<path class="st3" d="M111.3,76.3h-30c-2.8,0-5,2.2-5,5v30c0,2.8,2.2,5,5,5h30c2.8,0,5-2.2,5-5v-30
		C116.3,78.5,114.1,76.3,111.3,76.3z M105.1,84.4h-4.5c-1,0-1.9,0.9-1.9,1.9l0,0v5.1h6.2l-0.8,6.3h-5.4v16h-6.4v-16h-5.4v-6.3h5.4
		v-7c0-3.1,2.5-5.6,5.6-5.6l0,0h7.2V84.4z"/>
</g>
<g id="icon-linkedin-c">
	<path class="st5" d="M111.3,76.3h-30c-2.8,0-5,2.2-5,5v30c0,2.8,2.2,5,5,5h30c2.8,0,5-2.2,5-5v-30
		C116.3,78.5,114.1,76.3,111.3,76.3z M88.3,111.5h-5.6V92.4h5.5L88.3,111.5z M85.6,89.5c-1.7,0-3.1-1.4-3.1-3.1s1.4-3.1,3.1-3.1
		c1.7,0,3.1,1.4,3.1,3.1S87.4,89.5,85.6,89.5z M110.1,99.2v12.3h-5.5v-10.6c0-0.9-0.8-1.7-1.7-1.7l0,0h-5v12.3h-5.6V92.4h5.5v1.2
		h6.8C107.7,93.6,110.1,96.1,110.1,99.2L110.1,99.2z"/>
</g>
<g id="icon-linkedin">
	<rect x="82.7" y="92.4" class="st15" width="5.5" height="19.1"/>
	<circle class="st15" cx="85.7" cy="86.4" r="3.1"/>
	<path class="st15" d="M104.6,93.6h-6.8v-1.2h-5.5v19.1h5.5V99.2h5c0.9,0,1.7,0.8,1.7,1.7l0,0v10.6h5.5V99.2l0,0
		C110.1,96.2,107.7,93.7,104.6,93.6C104.7,93.6,104.7,93.6,104.6,93.6z"/>
	<path class="st3" d="M111.3,76.3h-30c-2.8,0-5,2.2-5,5v30c0,2.8,2.2,5,5,5h30c2.8,0,5-2.2,5-5v-30
		C116.3,78.5,114.1,76.3,111.3,76.3z M88.3,111.5h-5.6V92.4h5.5L88.3,111.5z M85.6,89.5c-1.7,0-3.1-1.4-3.1-3.1s1.4-3.1,3.1-3.1
		c1.7,0,3.1,1.4,3.1,3.1S87.4,89.5,85.6,89.5z M110.1,99.2v12.3h-5.5v-10.6c0-0.9-0.8-1.7-1.7-1.7l0,0h-5v12.3h-5.6V92.4h5.5v1.2
		h6.8C107.7,93.6,110.1,96.1,110.1,99.2L110.1,99.2z"/>
</g>
<g id="icon-instagram-c">
	<circle class="st2" cx="96.3" cy="96.3" r="7.8"/>
	<circle class="st2" cx="105.3" cy="85.7" r="1.9"/>
	<path class="st2" d="M111.3,76.3h-30c-2.8,0-5,2.2-5,5v30c0,2.8,2.2,5,5,5h30c2.8,0,5-2.2,5-5v-30
		C116.3,78.5,114.1,76.3,111.3,76.3z M111.8,103.3c0,4.7-3.8,8.5-8.5,8.5l0,0h-14c-4.7,0-8.5-3.8-8.5-8.5l0,0v-14
		c0-4.7,3.8-8.5,8.5-8.5h14c4.7,0,8.5,3.8,8.5,8.5V103.3z"/>
</g>
<g id="icon-instagram">
	<path class="st15" d="M89.3,111.4h14c4.5,0,8.2-3.7,8.2-8.2v0V89.3c-0.1-4.5-3.7-8.1-8.2-8.1h-14c-4.5,0.1-8,3.6-8.1,8.1v13.9
		C81.2,107.7,84.9,111.3,89.3,111.4z M105.3,83.8c1,0,1.9,0.9,1.9,1.9s-0.9,1.9-1.9,1.9s-1.9-0.9-1.9-1.9l0,0
		C103.4,84.7,104.3,83.8,105.3,83.8z M96.3,87.8c4.7,0,8.5,3.8,8.5,8.5s-3.8,8.5-8.5,8.5s-8.5-3.8-8.5-8.5l0,0
		C87.8,91.6,91.6,87.8,96.3,87.8L96.3,87.8z"/>
	<circle class="st15" cx="105.3" cy="85.7" r="1.2"/>
	<circle class="st15" cx="96.3" cy="96.3" r="7.8"/>
	<path class="st3" d="M111.3,76.3h-30c-2.8,0-5,2.2-5,5v30c0,2.8,2.2,5,5,5h30c2.8,0,5-2.2,5-5v-30
		C116.3,78.5,114.1,76.3,111.3,76.3z M81.3,89.3c0.1-4.5,3.6-8,8.1-8.1h14c4.5,0.1,8,3.6,8.1,8.1v13.9c0,4.5-3.6,8.1-8.1,8.2h-14
		c-4.5,0-8.2-3.7-8.2-8.2l0,0L81.3,89.3z"/>
</g>
<g id="up_2">
	<path class="st0" d="M108.2,77.2c-1.6-4.4-4.9-6.2-11.9-6.2S86,72.8,84.4,77.2S83,88.5,83,98.7s0.9,15.8,3,19.1s5.4,3.9,10.3,3.9
		h0.1c4.9,0,8.2-0.7,10.3-3.9c2.1-3.2,3-9,3-19.1S109.8,81.5,108.2,77.2z M97.5,114.3h-2.4v-2.4h2.3L97.5,114.3z M97.5,110.3h-2.4
		v-5.1h2.3L97.5,110.3z M104.2,90.4l-6.7-7.2v20.3h-2.4V83.1l-6.7,7.2l-1.7-1.6l9.6-10.3l9.6,10.3L104.2,90.4z"/>
</g>
<g id="icons_process-01">
	<path class="st1" d="M96.3,0C43.2,0,0,43.1,0,96.3s43.1,96.3,96.3,96.3s96.3-43.1,96.3-96.3S149.5,0,96.3,0C96.3,0,96.3,0,96.3,0z
		 M127.4,162.4H66l2.6-13.5H42.2l23-118.6l61.3,0.2L124,43.8h26.4L127.4,162.4z"/>
	<path class="st3" d="M69,146.8l2.5-12.9H54.9l0.7-3.5h16.6l0.7-3.5H56.3l0.6-3.5h16.7l0.7-3.5H57.5l0.7-3.5h16.7l0.7-3.5H58.9
		l0.7-3.5h16.7l0.7-3.6H60.3l0.7-3.4h16.7l0.7-3.6H61.5l0.7-3.5H79l0.7-3.5H63l0.7-3.5h16.7l0.7-3.5H64.3l0.7-3.5h16.7l0.7-3.6H65.7
		l0.6-3.4h16.8l0.7-3.6H67l0.7-3.5h16.8l0.7-3.5H68.4l0.6-3.5h16.8l0.7-3.5H69.7l0.7-3.5h16.8l0.3-1.7l0.6-0.5l1.7-1.4H71l0.6-3.4
		H94l2.8-2.3l0.3-0.2h24.9l2.2-11.4L67,32.1L44.7,146.8H69z"/>
	<path class="st0" d="M126.6,30.4l-61.3-0.2l-23,118.6h26.3L66,162.3h61.3l23-118.6H124L126.6,30.4z M68.5,160.3L89.4,52.5h6.7
		l1.5-6.6h50.3l-22.2,114.5L68.5,160.3z M124.1,32.4l-2.2,11.4H97L96.7,44L94,46.2H71.7L71,49.6h18.8L88.1,51l-0.6,0.5l-0.3,1.7
		H70.4l-0.7,3.5h16.8l-0.7,3.5H69l-0.6,3.5h16.8l-0.7,3.5H67.7L67,70.7h16.8l-0.7,3.6H66.3l-0.6,3.4h16.7l-0.7,3.6H65l-0.7,3.5h16.8
		l-0.7,3.5H63.7L63,91.8h16.7L79,95.3H62.3l-0.7,3.5h16.8l-0.7,3.6H61l-0.7,3.4H77l-0.7,3.6H59.5l-0.7,3.5h16.8l-0.7,3.5H58.3
		l-0.7,3.5h16.7l-0.7,3.5H56.9l-0.6,3.5h16.6l-0.7,3.5H55.5l-0.7,3.5h16.7L69,146.8H44.7L66.9,32.2L124.1,32.4z"/>
	<path class="st3" d="M97.7,45.7L97.7,45.7l-1.6,6.6h-6.7l-20.9,108h57.3l22.1-114.5L97.7,45.7z M96.3,55.6h13l-0.6,3.5h-13
		L96.3,55.6z M94.9,62.6H108l-0.7,3.5h-13L94.9,62.6z M93.6,69.6h13l-0.6,3.5H93L93.6,69.6z M92.2,76.7h13.1l-0.7,3.5h-13L92.2,76.7
		z M115.8,129H96.5c-1.9,0-3,0.7-3.3,2.1l-0.3,1.4c-0.3,1.4,0.5,2.1,2.4,2.1h13.4c1.1,0,2.2,0.1,3.2,0.4c0.7,0.2,1.4,0.6,2,1.1
		c0.5,0.5,0.8,1.1,0.9,1.7c0.1,0.7,0.1,1.5,0,2.2l-0.5,2.8c-0.1,0.8-0.4,1.5-0.8,2.2c-0.4,0.7-0.9,1.3-1.6,1.7
		c-0.7,0.5-1.5,0.9-2.4,1.1c-1.1,0.3-2.3,0.4-3.4,0.4h-5.2l-0.6,3.1H97l0.6-3.1H86.2l0.6-3.4h19.8c1.9,0,3-0.7,3.3-2.1l0.6-2.9
		c0.3-1.4-0.5-2.1-2.4-2.1H94.7c-1.1,0-2.2-0.1-3.2-0.4c-0.7-0.2-1.4-0.6-2-1.1c-0.5-0.5-0.8-1.1-0.9-1.7c-0.1-0.7-0.1-1.5,0-2.2
		l0.3-1.3c0.1-0.8,0.4-1.5,0.8-2.2c0.4-0.7,0.9-1.3,1.6-1.7c0.7-0.5,1.5-0.9,2.4-1.1c1.1-0.3,2.3-0.4,3.4-0.4h19.3L115.8,129z
		 M102,125.2l0.7-3.1h3.2l-0.6,3.1H102z M127,115.3H84.9l0.7-3.5h42L127,115.3z M128.3,108.2h-42l0.7-3.4h42L128.3,108.2z
		 M129.7,101.2H87.5l0.7-3.5h42L129.7,101.2z M131,94.2H89l0.6-3.5h42.1L131,94.2z M132.4,87.2H90.3l0.7-3.5h42L132.4,87.2z
		 M109.3,80.2l4.7-24.6h24.4l-4.7,24.6H109.3z"/>
	<polygon class="st0" points="108.8,59.1 109.3,55.6 96.3,55.6 95.7,59.1 	"/>
	<polygon class="st0" points="107.3,66.1 108,62.6 95,62.6 94.3,66.1 	"/>
	<polygon class="st0" points="106,73.1 106.7,69.6 93.7,69.6 93,73.1 	"/>
	<polygon class="st0" points="104.7,80.2 105.3,76.7 92.3,76.7 91.7,80.2 	"/>
	<polygon class="st0" points="91,83.7 90.3,87.2 132.3,87.2 132.9,83.7 	"/>
	<polygon class="st0" points="89.5,90.7 89,94.2 130.9,94.2 131.7,90.7 	"/>
	<polygon class="st0" points="88.3,97.7 87.5,101.2 129.7,101.2 130.3,97.7 	"/>
	<polygon class="st0" points="87,104.8 86.3,108.2 128.3,108.2 128.9,104.8 	"/>
	<polygon class="st0" points="85.5,111.8 84.8,115.3 127,115.3 127.5,111.8 	"/>
	<polygon class="st0" points="114,55.6 109.3,80.2 133.7,80.2 138.3,55.6 	"/>
	<path class="st0" d="M97.1,125.6c-1.1,0-2.3,0.1-3.4,0.4c-0.9,0.2-1.7,0.6-2.4,1.1c-0.7,0.4-1.2,1-1.6,1.7
		c-0.4,0.7-0.7,1.4-0.8,2.2l-0.3,1.3c-0.1,0.7-0.1,1.5,0,2.2c0.1,0.6,0.4,1.2,0.9,1.7c0.6,0.5,1.3,0.9,2,1.1c1,0.3,2.1,0.4,3.2,0.4
		h13.4c1.9,0,2.7,0.7,2.4,2.1l-0.6,2.9c-0.3,1.4-1.4,2.1-3.3,2.1H86.8l-0.6,3.4h11.5l-0.6,3.1h3.2l0.6-3.1h5.2
		c1.1,0,2.3-0.1,3.4-0.4c0.9-0.2,1.7-0.6,2.4-1.1c0.7-0.4,1.2-1,1.6-1.7c0.4-0.7,0.7-1.4,0.8-2.2l0.5-2.8c0.1-0.7,0.1-1.5,0-2.2
		c-0.1-0.6-0.4-1.2-0.9-1.7c-0.6-0.5-1.3-0.9-2-1.1c-1-0.3-2.1-0.4-3.2-0.4H95.3c-1.9,0-2.7-0.7-2.4-2.1l0.3-1.4
		c0.3-1.4,1.4-2.1,3.3-2.1h19.3l0.6-3.4H97.1z"/>
	<polygon class="st0" points="102.7,122.1 102,125.2 105.3,125.2 105.8,122.1 	"/>
</g>
<g id="icons_process-02">
	<path class="st1" d="M96.3,0C43.2,0,0,43.1,0,96.3s43.1,96.3,96.3,96.3s96.3-43.1,96.3-96.3S149.5,0,96.3,0C96.3,0,96.3,0,96.3,0z
		 M171.3,114.2l-86.4,23.3l-7.1-26.3v35.4H20.3V46h57.6v35.7l79-21.3l0.5,1.8l0,0l13.5,50.2l0,0l0.5,1.7l0,0L171.3,114.2z"/>
	<path class="st0" d="M50.3,127.1c1.5,0.3,3.1,0.4,4.7,0.2c2.9-0.3,3.4-3.7,3.4-3.7c0.3-2.5,0.3-5.1,0-7.6c-0.5-6-4.2-4.4-4.8-4.5
		c-2.9-0.2-5.5-1.8-7-4.2c-2.8-4.1-2.6-13-1.4-17.5s3.8-7.3,8.9-7.6s5-3.8,5-3.8v-9c-0.2-1.2-0.9-2.2-1.9-2.9
		c-1.1-0.5-2.4-0.7-3.6-0.6c0,0-4.3,0.3-6.5,2.3c-5.8,5.4-8.5,11.2-9.5,24.5c-1.2,15.7,2.8,26.4,6.2,30.1S50.3,127.1,50.3,127.1z"/>
	<path class="st0" d="M75.9,82.2V48H22.3v96.7h53.6v-40.9l-5.5-20.1l0,0l86.4-23.4l-79,21.3L75.9,82.2z M68.4,136.2H29.8V56.4h38.5
		L68.4,136.2z"/>
	<polygon class="st0" points="122.3,103.8 70.5,83.8 71,85.5 111.9,101.4 84.5,135.7 85,137.4 113.3,101.9 122.7,105.5 128.9,97.7 
		171.3,114 170.8,112.3 170.8,112.3 129.9,96.4 157.3,62.2 157.3,62.1 156.8,60.4 	"/>
</g>
<g id="icons_process-05">
	<polygon class="st1" points="119.8,109.3 105.2,97.3 83.8,119.1 155.8,119.1 134.3,97.3 	"/>
	<polygon class="st1" points="158.5,116.3 158.5,77.4 137.4,94.8 	"/>
	<path class="st1" d="M96.3,0C43.2,0,0,43.1,0,96.3s43.1,96.3,96.3,96.3s96.3-43.1,96.3-96.3S149.5,0,96.3,0C96.3,0,96.3,0,96.3,0z
		 M68,67.5c0,0,0.1,5.4-7.9,5.9S48,78.3,46,85.5s-2.3,21.2,2.2,27.6s10.2,6.5,11,6.6s6.7-2.3,7.5,7.1c0.5,4,0.5,8,0,12
		c0,0-0.9,5.4-5.4,5.8c-2.5,0.3-5,0.2-7.5-0.2c0,0-4.9-1.1-10.3-6.9s-11.6-22.8-9.8-47.6c1.6-21,5.9-30.2,15.1-38.7
		c3.4-3.2,10.3-3.6,10.3-3.6c2-0.2,4,0.1,5.8,0.9c2.4,1.4,3.1,4.6,3.1,4.6L68,67.5z M162.5,123.1H77.1V69.5h85.3L162.5,123.1z"/>
	<polygon class="st1" points="157.1,73.5 82.5,73.5 119.8,104.1 	"/>
	<polygon class="st1" points="81.1,77.4 81.1,116.3 102.2,94.8 	"/>
	<path class="st0" d="M64.9,48.5c-1.8-0.8-3.8-1.1-5.8-0.9c0,0-6.9,0.4-10.3,3.6c-9.2,8.5-13.5,17.7-15.1,38.7
		c-1.8,24.8,4.4,41.8,9.8,47.6s10.3,6.9,10.3,6.9c2.5,0.4,5,0.5,7.5,0.2c4.5-0.4,5.4-5.8,5.4-5.8c0.5-4,0.5-8,0-12
		c-0.8-9.4-6.5-6.9-7.5-7.1s-6.5-0.2-11-6.6S44.1,92.7,46,85.5s6.1-11.6,14.1-12.1s7.9-5.9,7.9-5.9V53.1
		C68,53.1,67.3,49.9,64.9,48.5z"/>
	<path class="st3" d="M77.1,123.1h85.3V69.5H77.1V123.1z M83.8,119.2l21.4-21.9l14.6,12l14.5-11.9l21.5,21.8H83.8z M158.5,116.4
		l-21.1-21.6l21.2-17.4L158.5,116.4z M157,73.6l-37.3,30.7L82.5,73.5L157,73.6z M81,77.5l21.1,17.4l-21,21.4L81,77.5z"/>
</g>
<g id="icons_process-04">
	<path class="st1" d="M96.3,0C58.6,0,24.3,22,8.6,56.4h20.9v71.5H5.3c4.8,13.7,12.6,26.1,22.8,36.4l8.2-31.3
		c0.6-2.3,2.7-3.9,5.1-3.9h107.7c2.4,0,4.5,1.6,5.1,3.9l8.7,32.9c38.4-36.8,39.8-97.7,3-136.2C147.8,10.7,122.6,0,96.3,0z
		 M77.8,19.9H81v1.8h-3.2V19.9z M70.6,26.7c0-2.3,1.8-4.1,4.1-4.1h43.2c2.3,0,4.1,1.8,4.1,4.1v19.4c-0.1,2.2-1.9,4-4.1,4.1H74.7
		c-2.3,0-4.1-1.8-4.1-4.1L70.6,26.7z M167.1,139.5c-3.6,0-6.5-2.9-6.5-6.5l0,0v-6.2c0-3.4,2.6-6.2,6-6.5v-17.6
		c0-7.9-5.4-14.7-13.1-16.6v35.3c-0.1,3.1-2.6,5.6-5.7,5.7H42.7c-3.1-0.1-5.6-2.6-5.7-5.7V61.6c0.1-3.1,2.6-5.6,5.7-5.7h105.1
		c3.1,0.1,5.6,2.6,5.7,5.7v23.5c8.2,1.9,14.1,9.2,14.1,17.6v17.6c3.4,0.3,6,3.1,6,6.5v6.2C173.6,136.6,170.7,139.5,167.1,139.5
		L167.1,139.5z"/>
	<path class="st0" d="M74.7,50.2h43.2c2.2-0.1,4-1.9,4.1-4.1V26.7c0-2.3-1.8-4.1-4.1-4.1H74.7c-2.3,0-4.1,1.8-4.1,4.1v19.4
		C70.6,48.4,72.5,50.2,74.7,50.2L74.7,50.2z M106.4,24.7h9.3v4.6h-9.3V24.7z M96.3,27.4c5,0,9,4,9,9c0,5-4,9-9,9c-5,0-9-4-9-9
		S91.4,27.4,96.3,27.4L96.3,27.4z"/>
	<circle class="st1" cx="96.3" cy="36.4" r="5.1"/>
	<path class="st0" d="M96.3,42.5c3.4,0,6.1-2.7,6.1-6.1s-2.7-6.1-6.1-6.1c-3.4,0-6.1,2.7-6.1,6.1v0C90.2,39.8,93,42.5,96.3,42.5z
		 M96.3,31.3c2.8,0,5.1,2.3,5.1,5.1s-2.3,5.1-5.1,5.1c-2.8,0-5.1-2.3-5.1-5.1c0,0,0,0,0,0C91.2,33.6,93.5,31.3,96.3,31.3z"/>
	<path class="st1" d="M115.8,24.7h-9.3v4.6h9.3V24.7z M114.9,28.4h-7.5v-2.7h7.5V28.4z"/>
	<rect x="77.8" y="19.9" class="st0" width="3.3" height="1.8"/>
	<path class="st0" d="M167.1,121.3c-3,0-5.5,2.5-5.5,5.5v6.2c0,3,2.5,5.5,5.5,5.5s5.5-2.5,5.5-5.5v-6.2
		C172.6,123.8,170.2,121.3,167.1,121.3z M168,132.3c0,0.5-0.4,0.9-0.9,0.9c-0.5,0-0.9-0.4-0.9-0.9v-4.8c0-0.5,0.4-0.9,0.9-0.9
		c0.5,0,0.9,0.4,0.9,0.9V132.3z"/>
	<path class="st0" d="M153.5,61.6c-0.1-3.1-2.6-5.6-5.7-5.7H42.7c-3.1,0.1-5.6,2.6-5.7,5.7v59.8c0.1,3.1,2.6,5.6,5.7,5.7h105.1
		c3.1-0.1,5.6-2.6,5.7-5.7V61.6z M150.1,118c-0.1,3.1-2.6,5.6-5.7,5.7H46.1c-3.1-0.1-5.6-2.6-5.7-5.7V65c0.1-3.1,2.6-5.6,5.7-5.7
		h98.3c3.1,0.1,5.6,2.6,5.7,5.7L150.1,118z"/>
	<path class="st0" d="M149.1,129.2H41.4c-2.4,0-4.5,1.6-5.1,3.9L28,164.3c3.4,3.4,7,6.5,10.8,9.4h114.9c3.2-2.4,6.3-4.9,9.2-7.7
		l-8.7-33C153.6,130.7,151.5,129.2,149.1,129.2z"/>
	<path class="st1" d="M96.3,192.6c20.7,0,40.8-6.6,57.4-19H38.9C55.5,186,75.7,192.6,96.3,192.6z"/>
	<path class="st0" d="M120.4,88.7c-0.2-1.2-1.1-2-2.3-2h-3.7c-0.4,0-0.8-0.2-0.9-0.6l0,0v-0.5h-0.1c-0.1-0.4,0-0.8,0.3-1l2.7-2.5
		c0.8-0.8,1-2,0.4-3c-1.2-1.8-2.7-3.3-4.3-4.7c-0.9-0.7-2.1-0.7-3,0l-2.7,2.5c-0.3,0.3-0.8,0.3-1.1,0.1l-2.3-1.1
		c-0.4-0.1-0.7-0.5-0.7-0.9v-3.9c-0.1-1.1-0.9-2.1-2-2.3l-3.2-0.2l-3.2,0.2c-1.2,0.2-2,1.1-2,2.3v3.7c0,0.4-0.3,0.8-0.7,1l-0.8,0.3
		l-0.4,0.2c-0.4,0.2-0.9,0-1.1-0.3l-2.5-2.6c-0.8-0.8-2.1-1-3-0.3c-1.8,1.3-3.3,2.8-4.7,4.5c-0.7,0.9-0.6,2.2,0.2,3l2.6,2.6
		c0.3,0.3,0.4,0.7,0.2,1.1c-0.2,0.4-0.4,0.9-0.6,1.4V86c-0.2,0.4-0.6,0.6-1,0.6h-3.9c-1.1,0.1-2.1,0.9-2.3,2
		c-0.1,1.1-0.2,2.1-0.2,3.2c0,1,0.1,2.2,0.2,3.2c0.2,1.2,1.1,2,2.3,2h3.7c0.4,0,0.8,0.2,0.9,0.6l0,0v0.5h0.1c0.1,0.4,0,0.8-0.3,1
		l-2.7,2.5c-0.8,0.8-1,2-0.4,3c1.2,1.8,2.7,3.3,4.3,4.7c0.9,0.7,2.1,0.7,3,0l2.7-2.5c0.3-0.3,0.8-0.3,1.1-0.1l2.3,1.1
		c0.4,0.1,0.7,0.5,0.7,0.9v3.7c0.1,1.1,0.9,2.1,2,2.3l3.2,0.2l3.2-0.2c1.2-0.2,2-1.1,2-2.3v-3.7c0-0.4,0.3-0.8,0.7-1l0.8-0.3
		l0.4-0.2c0.4-0.2,0.9,0,1.1,0.3l2.5,2.6c0.8,0.8,2.1,1,3,0.3c1.8-1.3,3.3-2.8,4.7-4.5c0.7-0.9,0.6-2.2-0.2-3l-2.6-2.6
		c-0.3-0.3-0.4-0.7-0.2-1.1c0.2-0.4,0.4-0.9,0.6-1.4l0.2-0.4c0.2-0.4,0.6-0.6,1-0.6h3.7c1.1-0.1,2.1-0.9,2.3-2
		c0.3-2.1,0.3-4.2,0-6.3L120.4,88.7z M119.2,94.8c-0.1,0.5-0.6,0.9-1.1,0.9h-3.7c-1-0.1-1.9,0.6-2.2,1.5v0.3
		c-0.2,0.4-0.4,0.8-0.6,1.2c-0.4,0.9-0.3,1.9,0.4,2.6l2.6,2.6c0.4,0.3,0.4,0.9,0.1,1.3c-1.3,1.6-2.7,3-4.4,4.2
		c-0.4,0.4-1,0.3-1.4-0.1l-2.5-2.6c-0.6-0.7-1.6-1-2.5-0.6l-0.4,0.2l-0.6,0.2h-0.1c-0.9,0.3-1.5,1.2-1.5,2.2v3.7
		c0.1,0.5-0.3,1-0.8,1.1l-3,0.2l-2.9-0.2c-0.5-0.1-0.9-0.6-0.9-1.1v-3.7c0-0.9-0.6-1.8-1.5-2.1l-2.1-0.9c-0.9-0.6-2-0.4-2.7,0.3
		l-2.7,2.5c-0.4,0.3-1,0.3-1.4,0c-1.5-1.3-2.9-2.8-4-4.4c-0.2-0.5-0.2-1,0.2-1.4l2.7-2.5c0.7-0.6,1-1.6,0.6-2.5
		c0-0.2-0.1-0.5-0.2-0.7c-0.3-0.9-1.1-1.5-2.1-1.5h-3.9c-0.5,0.1-1-0.3-1.1-0.8c-0.1-1-0.2-2.1-0.2-3s0.1-2,0.2-2.9
		c0.1-0.5,0.6-0.9,1.1-0.9h3.7c1,0.1,1.9-0.6,2.2-1.5v-0.3c0.2-0.4,0.4-0.8,0.6-1.2c0.4-0.9,0.3-1.9-0.4-2.6l-2.6-2.6
		c-0.4-0.3-0.4-0.9-0.1-1.3c1.3-1.6,2.7-3,4.4-4.2c0.4-0.4,1-0.3,1.4,0.1l2.5,2.6c0.6,0.7,1.6,1,2.5,0.6l0.4-0.2l0.6-0.2H92
		c0.9-0.3,1.5-1.2,1.5-2.2v-3.8c-0.1-0.5,0.3-1,0.8-1.1l3-0.2l2.9,0.2c0.5,0.1,0.9,0.6,0.9,1.1v3.7c0,0.9,0.6,1.8,1.5,2.1l2.1,0.9
		c0.9,0.6,2,0.4,2.7-0.3l2.7-2.5c0.4-0.3,1-0.3,1.4,0c1.5,1.3,2.9,2.8,4,4.4c0.2,0.5,0.2,1-0.2,1.4l-2.7,2.5c-0.7,0.6-1,1.6-0.6,2.5
		c0,0.2,0.1,0.5,0.2,0.7c0.3,0.9,1.1,1.5,2.1,1.5h3.7c0.5-0.1,1,0.3,1.1,0.8c0.1,1,0.2,2,0.2,3C119.4,93,119.3,94,119.2,94.8z"/>
	<path class="st0" d="M97.4,80.4c-6.4,0-11.5,5.1-11.5,11.5s5.1,11.5,11.5,11.5s11.5-5.1,11.5-11.5S103.8,80.4,97.4,80.4L97.4,80.4z
		 M97.4,102.2c-5.7,0-10.3-4.6-10.3-10.3s4.6-10.3,10.3-10.3c5.7,0,10.3,4.6,10.3,10.3S103.1,102.2,97.4,102.2
		C97.4,102.2,97.4,102.2,97.4,102.2z"/>
	<path class="st0" d="M125.6,96.8c0.3-1.8,0.5-3.7,0.4-5.5c-0.1-3.5-0.8-7-2.2-10.3h16.4c0.3,0.1,0.7,0,0.8-0.3s0-0.7-0.3-0.8
		c-0.2-0.1-0.3-0.1-0.5,0h-16.1c-0.3,0-0.5,0.2-0.5,0.5c-1.7-3.8-4.2-7.2-7.4-10l-1.5,1.6c5.6,4.9,8.9,11.9,9.1,19.3
		c0.1,1.6,0,3.2-0.3,4.8l-2-0.6l1.6,6.2l4.5-4.5L125.6,96.8z"/>
	<path class="st0" d="M71.1,92.7c-0.1-1.5,0-3.1,0.3-4.6l1.9,0.5l-1.7-6.1L67.1,87l2.2,0.6c-0.3,1.7-0.5,3.5-0.4,5.3
		c0.2,7.9,3.7,15.4,9.6,20.6l1.5-1.6C74.5,107,71.3,100.1,71.1,92.7z"/>
	<path class="st0" d="M97.3,118.3c-1.6,0-3.3-0.2-4.9-0.5l0.6-1.9l-6.3,1.4l4.4,4.7l0.6-2.1c1.8,0.4,3.7,0.6,5.6,0.6
		c8,0,15.7-3.4,21.1-9.3l-1.6-1.5C111.8,115.2,104.8,118.3,97.3,118.3z"/>
	<path class="st0" d="M97.3,65.5c1.6,0,3.1,0.1,4.7,0.4l-0.6,2l6.2-1.5l-4.4-4.6l-0.6,2c-1.7-0.3-3.5-0.5-5.3-0.5
		c-7.9,0-15.5,3.3-20.9,9l1.6,1.6C83,68.6,90,65.5,97.3,65.5z"/>
	<polygon class="st0" points="93.9,97.1 102.9,91.9 93.9,86.7 	"/>
	<path class="st0" d="M125.8,72.8h16.1c0.3,0.1,0.7,0,0.8-0.3s0-0.7-0.3-0.8c-0.2-0.1-0.3-0.1-0.5,0h-16.1c-0.3-0.1-0.7,0-0.8,0.3
		c-0.1,0.3,0,0.7,0.3,0.8C125.5,72.9,125.7,72.9,125.8,72.8z"/>
	<path class="st0" d="M144.1,99.4H128c-0.3,0.1-0.4,0.5-0.3,0.8c0.1,0.1,0.2,0.2,0.3,0.3h16.1c0.3-0.1,0.4-0.5,0.3-0.8
		C144.4,99.6,144.3,99.5,144.1,99.4z"/>
	<path class="st0" d="M144.1,89.5H128c-0.3-0.1-0.7,0-0.8,0.3c-0.1,0.3,0,0.7,0.3,0.8c0.2,0.1,0.3,0.1,0.5,0h16.1
		c0.3,0.1,0.7,0,0.8-0.3s0-0.7-0.3-0.8C144.5,89.4,144.3,89.4,144.1,89.5z"/>
	<path class="st0" d="M140.2,109.2h-16.1c-0.3,0.1-0.4,0.5-0.3,0.8c0.1,0.1,0.2,0.2,0.3,0.3h16.1c0.3-0.1,0.4-0.5,0.3-0.8
		C140.5,109.4,140.4,109.3,140.2,109.2z"/>
	<path class="st0" d="M48.9,72.8H65c0.3,0.1,0.7,0,0.8-0.3c0.1-0.3,0-0.7-0.3-0.8c-0.2-0.1-0.3-0.1-0.5,0H48.9
		c-0.3,0.1-0.4,0.5-0.3,0.8C48.7,72.6,48.8,72.7,48.9,72.8z"/>
	<path class="st0" d="M50,80.5c0,0.3,0.3,0.6,0.6,0.6h16.1c0.3-0.1,0.4-0.5,0.3-0.8c-0.1-0.1-0.2-0.2-0.3-0.3H50.6
		C50.3,80,50.1,80.2,50,80.5z"/>
	<path class="st0" d="M63.4,100c0-0.3-0.3-0.6-0.6-0.6H46.7c-0.3,0.1-0.4,0.5-0.3,0.8c0.1,0.1,0.2,0.2,0.3,0.3h16.1
		C63.1,100.5,63.4,100.3,63.4,100z"/>
	<path class="st0" d="M46.7,90.7h16.1c0.3-0.1,0.4-0.5,0.3-0.8c-0.1-0.1-0.2-0.2-0.3-0.3H46.7c-0.3,0.1-0.4,0.5-0.3,0.8
		C46.5,90.5,46.6,90.6,46.7,90.7z"/>
	<path class="st0" d="M66.7,109.2H50.6c-0.3,0.1-0.4,0.5-0.3,0.8c0.1,0.1,0.2,0.2,0.3,0.3h16.1c0.3-0.1,0.4-0.5,0.3-0.8
		C67,109.4,66.9,109.3,66.7,109.2z"/>
	<path class="st0" d="M28.7,57.2H8.3c-9.8,22.1-11,47-3.3,69.9h23.7V57.2z"/>
</g>
<g id="icons_process-03">
	<path class="st1" d="M94.2,114.5l-2.7,7.6h0.8l3.6-10.4c0.6-1.7,2.2-2.8,4-2.8h-9.7c2.3,0,4.2,1.8,4.2,4.2
		C94.4,113.5,94.4,114,94.2,114.5z"/>
	<path class="st1" d="M103.9,114.5l-2.7,7.6h0.8l3.6-10.4c0.6-1.7,2.2-2.8,4-2.8h-9.7c2.3,0,4.2,1.8,4.2,4.2
		C104.1,113.5,104.1,114,103.9,114.5z"/>
	<path class="st1" d="M96.3,0C43.1,0,0,43.1,0,96.3c0,33.7,17.6,64.9,46.5,82.4v-32.3h3.7v-1.5c0-12.6,10.2-22.8,22.8-22.8h9.6
		l3.6-10.4c0.6-1.7,2.2-2.8,4-2.8H56.6c-1,0-1.9-0.9-1.9-1.9l0,0v-0.8c0-1,0.9-1.9,1.9-1.9h0h24.3V70.2l0,0l5.2-4.7h25.7l4.5,4.7
		l0,0v34.1h24.3c1,0,1.9,0.9,1.9,1.9v0.8c-0.1,1-0.9,1.8-1.9,1.9h-31c2.4,0,4.4,2,4.4,4.4c0,0.4-0.1,0.8-0.2,1.2l-2.8,7.9
		c-4.7,13.7-7.2,22.5-22.8,22.5H73v1.5h2.9v44c52,11.3,103.3-21.7,114.6-73.6c11.3-52-21.7-103.3-73.6-114.6
		C110.1,0.7,103.2,0,96.3,0z M72.6,92.8l-7.3,1.9h-0.2c-0.4,0.1-0.8-0.3-0.9-0.7c-0.1-0.4,0.3-0.8,0.7-0.9l7.3-1.9
		c0.4-0.1,0.9,0.2,1,0.6S73,92.7,72.6,92.8C72.6,92.8,72.6,92.8,72.6,92.8z M73.2,78.1c-0.1,0.4-0.4,0.6-0.8,0.6h-0.2l-7.3-1.9
		c-0.4-0.1-0.7-0.6-0.6-1s0.6-0.7,1-0.6l0,0l7.3,1.9C73,77.2,73.3,77.6,73.2,78.1C73.2,78.1,73.2,78.1,73.2,78.1z M80,66.4l-0.6,0.2
		l-0.6-0.2l-5.3-5.3c-0.3-0.3-0.3-0.9,0-1.2c0.3-0.3,0.9-0.3,1.2,0l0,0l5.3,5.3C80.3,65.5,80.4,66,80,66.4C80,66.3,80,66.4,80,66.4z
		 M91.8,59.6h-0.2c-0.4,0-0.7-0.2-0.8-0.6l-2-7.3c-0.1-0.4,0.2-0.9,0.6-1s0.9,0.2,1,0.6l2,7.3C92.5,59,92.3,59.5,91.8,59.6
		C91.8,59.6,91.8,59.6,91.8,59.6z M108.4,51.7l-2,7.3c-0.1,0.4-0.4,0.6-0.8,0.6h-0.2c-0.4-0.1-0.7-0.5-0.6-1c0,0,0,0,0,0l2-7.3
		c0.1-0.4,0.6-0.7,1-0.6S108.5,51.2,108.4,51.7L108.4,51.7z M123.7,61.1l-5.3,5.3l-0.6,0.2l-0.6-0.2c-0.3-0.3-0.4-0.8-0.1-1.1
		c0,0,0,0,0.1-0.1l5.3-5.3c0.3-0.3,0.9-0.3,1.2,0C124,60.2,124,60.8,123.7,61.1z M132.9,94.1c-0.1,0.4-0.4,0.6-0.8,0.6h-0.2
		l-7.3-1.9c-0.4-0.1-0.7-0.6-0.6-1s0.6-0.7,1-0.6l7.3,1.9C132.7,93.2,133,93.6,132.9,94.1C132.9,94.1,132.9,94.1,132.9,94.1
		L132.9,94.1z M132.3,76.8l-7.3,1.9h-0.2c-0.4,0.1-0.8-0.3-0.9-0.7c-0.1-0.4,0.3-0.8,0.7-0.9l7.3-1.9c0.4-0.1,0.9,0.2,1,0.6
		C133,76.2,132.7,76.7,132.3,76.8z"/>
	<path class="st0" d="M73,146.4H46.5v32.3c9.1,5.5,19,9.5,29.4,11.7v-44H73z"/>
	<polygon class="st0" points="81.7,104.3 115.5,104.3 115.5,70.2 115.9,70.2 115.9,70.2 81.3,70.2 81.3,70.2 81.7,70.2 	"/>
	<polygon class="st0" points="86.6,66.3 83.2,69.3 114.4,69.3 111.5,66.3 	"/>
</g>
<g id="icons_process-06">
	<path class="st1" d="M96.3,0C43.2,0,0,43.1,0,96.3s43.1,96.3,96.3,96.3s96.3-43.1,96.3-96.3S149.5,0,96.3,0C96.3,0,96.3,0,96.3,0z
		 M96.3,167.2L15.4,73l28.5-27.5h0.8c0.4,0,39.9-0.3,51.6-0.1s51.2,0.1,51.6,0.1h0.8L177.2,73L96.3,167.2z"/>
	<path class="st1" d="M85.1,133.9v-18L52.1,60h26.1l18.2,30.6L114.6,60H141l-33.3,56v17.6L159,73.8l-15.8-15.2h-94L33.4,73.8
		L85.1,133.9z"/>
	<path class="st0" d="M96.3,150l65.4-76.3L144,56.6H48.4L30.7,73.7L96.3,150z M96.3,146.9l-9.2-10.7v-20.8L55.6,62h21.5l19.3,32.5
		L115.7,62h21.8l-31.8,53.5V136L96.3,146.9z M49.2,58.6h94L159,73.8l-51.3,59.8V116L141,60h-26.4L96.4,90.6L78.2,60H52.1l33,55.9v18
		L33.4,73.8L49.2,58.6z"/>
	<path class="st0" d="M148.7,45.5h-0.8c-0.4,0-39.9-0.3-51.6-0.1S45,45.5,44.7,45.5h-0.8L15.4,73l80.9,94.2L177.2,73L148.7,45.5z
		 M18.1,73.1l26.6-25.6c0,0,39.7-0.3,51.6-0.1s51.6,0.1,51.6,0.1l26.6,25.6l-78.2,91L18.1,73.1z"/>
</g>
</svg>
