<?xml version="1.0" encoding="utf-8"?>
<!-- Generator: Adobe Illustrator 20.1.0, SVG Export Plug-In . SVG Version: 6.00 Build 0)  -->
<svg version="1.1" id="Layer_2" xmlns="http://www.w3.org/2000/svg" xmlns:xlink="http://www.w3.org/1999/xlink" x="0px" y="0px"
	 width="120px" height="120px" viewBox="0 0 120 120" style="enable-background:new 0 0 120 120;" xml:space="preserve">
<style type="text/css">
	.st0{display:none;fill:#74B78C;}
	.st1{fill:#E63039;}
	.st2{fill:#BA272D;}
	.st3{fill:#FFFFFF;}
</style>
<path class="st0" d="M-301.7,23.3V120h-96.8C-398.5,66.6-355.1,23.3-301.7,23.3z"/>
<polygon class="st1" points="11.3,32 60,3.8 83.5,17.5 34.7,45.7 "/>
<polygon class="st1" points="34.7,45.7 83.5,17.5 108.4,31.9 59.5,60.2 "/>
<path class="st2" d="M11.5,88.1V32.2L59,59.9v55.7L11.5,88.1z M30.1,55c-0.2,0-0.5,0.2-0.5,0.5v2.8c0,0.7,0.4,1.4,1,1.7l1.6,0.9
	c4.7,2.7,4.7,2.7,8.4,4.9C40.7,66,40.8,66,41,66c0.4,0,0.8-0.3,0.8-0.8v-2.3c0-0.7-0.4-1.4-1-1.7l-2.3-1.4c-3.8-2.2-3.8-2.2-8.1-4.7
	C30.2,55,30.2,55,30.1,55z"/>
<polygon class="st2" points="59,60.4 108.5,31.8 108.5,88.1 59,116.7 "/>
<path class="st3" d="M109.5,31.3L60,2.7L12.3,30.3l-1,0.6l-0.8,0.5v1.4V34v53.6v1.2l1,0.6L60,117.3l48.5-28.1l1-0.6v-1.2V31.3z
	 M79.5,47.4L59.5,59L59,58.7l-22.3-13l45.8-26.5l1-0.6l22.9,13.2L79.5,47.4z M60,5l21.5,12.4L35.7,44l-1,0.6L13.5,32.2L13.3,32L60,5
	z M12.5,87.5V33.9l21.2,12.4l1,0.6V47l0,0l0,0l0,0l1,0.6l22.3,13V61v52.8L12.5,87.5z M107.5,87.5L60,115v-1.2V61l0.5-0.3l20-11.6
	l27-15.6V87.5z"/>
<path class="st3" d="M41.3,60.3L39,58.9c-3.8-2.2-3.8-2.2-8.1-4.7l0,0C30.6,54,30.3,54,30.1,54c-0.8,0-1.5,0.6-1.5,1.5v2.8
	c0,1.1,0.6,2.1,1.5,2.6l1.6,0.9c4.7,2.7,4.7,2.7,8.4,4.9c0.3,0.2,0.6,0.3,0.9,0.3c1,0,1.8-0.8,1.8-1.8v-2.3
	C42.8,61.8,42.2,60.8,41.3,60.3z"/>
</svg>
