<?xml version="1.0" encoding="utf-8"?>
<!-- Generator: Adobe Illustrator 20.1.0, SVG Export Plug-In . SVG Version: 6.00 Build 0)  -->
<svg version="1.1" id="Layer_2" xmlns="http://www.w3.org/2000/svg" xmlns:xlink="http://www.w3.org/1999/xlink" x="0px" y="0px"
	 width="120px" height="120px" viewBox="0 0 120 120" style="enable-background:new 0 0 120 120;" xml:space="preserve">
<style type="text/css">
	.st0{display:none;fill:#74B78C;}
	.st1{fill:#527090;}
	.st2{fill:#FFFFFF;}
	.st3{fill:#879CB2;}
</style>
<path class="st0" d="M-22,23.3V120h-96.8C-118.7,66.6-75.4,23.3-22,23.3z"/>
<g>
	<g>
		<g>
			<path class="st1" d="M8.8,64.3V19.7c0-5.4,4.4-9.8,9.8-9.8h82.9c5.4,0,9.8,4.4,9.8,9.8v44.6H8.8z"/>
			<path class="st2" d="M101.4,10.9c4.9,0,8.8,3.9,8.8,8.8v43.6H9.8V19.7c0-4.9,3.9-8.8,8.8-8.8L101.4,10.9 M101.4,8.9H18.6
				c-6,0-10.8,4.8-10.8,10.8v43.6v2h2h100.5h2v-2V19.7C112.2,13.8,107.4,8.9,101.4,8.9L101.4,8.9z"/>
		</g>
		<g>
			<path class="st3" d="M18.6,80.9c-5.4,0-9.8-4.4-9.8-9.8v-6h102.5v6c0,5.4-4.4,9.8-9.8,9.8H18.6z"/>
			<path class="st2" d="M110.2,66.1v5c0,4.9-3.9,8.8-8.8,8.8H18.6c-4.9,0-8.8-3.9-8.8-8.8v-5H110.2 M112.2,64.1h-2H9.8h-2v2v5
				c0,6,4.8,10.8,10.8,10.8h82.9c6,0,10.8-4.8,10.8-10.8v-5v-2H112.2z"/>
		</g>
	</g>
	<g>
		<polygon class="st1" points="42.7,108.1 44.2,81.2 75.8,81.2 77.3,108.1 		"/>
		<path class="st2" d="M76.2,107.1H43.8L45.2,82h29.6 M76.7,81.2h-1.9H45.2h-1.9l-0.1,1.9L41.8,107l-0.1,2.1h2.1h32.4h2.1l-0.1-2.1
			l-1.4-23.9L76.7,81.2L76.7,81.2z"/>
	</g>
</g>
</svg>
