<?xml version="1.0" encoding="utf-8"?>
<!-- Generator: Adobe Illustrator 20.1.0, SVG Export Plug-In . SVG Version: 6.00 Build 0)  -->
<svg version="1.1" id="Layer_2" xmlns="http://www.w3.org/2000/svg" xmlns:xlink="http://www.w3.org/1999/xlink" x="0px" y="0px"
	 width="120px" height="120px" viewBox="0 0 120 120" style="enable-background:new 0 0 120 120;" xml:space="preserve">
<style type="text/css">
	.st0{display:none;fill:#74B78C;}
	.st1{fill:#B5306F;}
	.st2{fill:#FFFFFF;}
	.st3{fill:#D43882;}
	.st4{fill:#FFFFFF;stroke:#FFFFFF;stroke-width:0.82;stroke-miterlimit:10;}
</style>
<path class="st0" d="M-164.2,23.3V120H-261C-260.9,66.6-217.6,23.3-164.2,23.3z"/>
<rect x="6.1" y="46.2" class="st1" width="107.8" height="68.4"/>
<path class="st2" d="M7.2,46.8"/>
<circle class="st2" cx="18.5" cy="80.3" r="8.6"/>
<polygon class="st2" points="47.5,54.2 47.5,80.2 62.6,97.9 79.3,83 79.3,54.2 "/>
<path class="st1" d="M18.5,87.8c4.1,0,7.4-3.3,7.4-7.4S22.6,73,18.5,73s-7.4,3.3-7.4,7.4C11.1,84.4,14.4,87.8,18.5,87.8z M18.5,75.8
	c2.5,0,4.6,2,4.6,4.6c0,2.5-2,4.6-4.6,4.6s-4.6-2-4.6-4.6S16,75.8,18.5,75.8z"/>
<g>
	<path class="st1" d="M54,71.7l1.6-9.5c0.1-0.7,0.1-1.4,0.1-2.1V15.4c0-0.5,0.1-0.9,0.3-1.3c0.2-0.3,0.4-0.7,0.6-1
		c1.3-2,3.6-3.2,6-3.2c2.5,0,4.7,1.2,6.1,3.3c0.2,0.3,0.4,0.6,0.6,1s0.3,0.9,0.3,1.3v44.7c0,0.7,0,1.4,0.1,2.1l1.6,9.5L54,71.7
		L54,71.7z M63.3,62.1v-3.7h-1.2v3.7H63.3z M63.3,55v-9.1h-1.2V55H63.3z"/>
	<path class="st2" d="M62.7,11.2c2,0,3.8,1,4.9,2.6c0.2,0.3,0.3,0.5,0.5,0.8c0.1,0.2,0.2,0.4,0.2,0.7v44.3V60c0,0.8,0,1.6,0.1,2.4
		l1.4,7.9h-14l1.4-7.9c0.1-0.8,0.1-1.6,0.1-2.4V15.3c0-0.3,0.1-0.5,0.2-0.7c0.2-0.3,0.3-0.6,0.5-0.8C58.9,12.1,60.7,11.2,62.7,11.2
		L62.7,11.2 M60.7,56.4h4V44.5h-4L60.7,56.4 M60.7,63.5h4V57h-4L60.7,63.5 M62.7,8.4L62.7,8.4L62.7,8.4L62.7,8.4
		c-2.9,0-5.6,1.4-7.2,3.9c-0.2,0.3-0.5,0.7-0.7,1.1c-0.3,0.6-0.5,1.3-0.5,2v44.7c0,0.7,0,1.3-0.1,1.9l-1.4,7.9l-0.6,3.3h3.3h14h3.3
		l-0.6-3.3L70.8,62c0.2-0.6,0.2-1.3,0.2-1.9v-0.4V15.3c0-0.7-0.2-1.4-0.5-2c-0.2-0.4-0.4-0.8-0.6-1.1C68.3,9.8,65.6,8.4,62.7,8.4
		L62.7,8.4z"/>
</g>
<path class="st2" d="M112.8,46.8v67.1H7.2V46.8h47.2v5.4H30.2v55.2h74V52.2H71v-5.4H112.8 M18.5,89.8c5.2,0,9.4-4.2,9.4-9.4
	c0-5.2-4.2-9.4-9.4-9.4s-9.4,4.2-9.4,9.4C9.1,85.5,13.3,89.8,18.5,89.8 M114.8,44.8h-2H71h-2v2v5.4v2h2h31.2v51.2h-70V54.2h22.2h2
	v-2v-5.4v-2h-2H7.2h-2v2v67.1v2h2h105.7h2v-2V46.8L114.8,44.8L114.8,44.8z M18.5,87.8c-4.1,0-7.4-3.3-7.4-7.4s3.3-7.4,7.4-7.4
	s7.4,3.3,7.4,7.4C25.9,84.4,22.6,87.8,18.5,87.8L18.5,87.8z"/>
<path class="st3" d="M71,60.1c0,0.7,0,1.3,0.1,1.9l1.2,7.3c0.2,1.1,0.1,2.2-0.3,3.2l-4.8,12.2c0,0.1-0.1,0.2-0.2,0.3
	c-0.6,1.3-1.8,2.2-3.1,2.5V89c0,1.5-2.6,1.5-2.6,0v-1.5c-0.2-0.1-0.4-0.1-0.6-0.2c-1-0.4-1.9-1.2-2.5-2.2c-0.1-0.2-0.2-0.3-0.2-0.5
	l-4.8-12.2c-0.4-1-0.5-2.1-0.3-3.2l1.2-7.2c0.1-0.6,0.1-1.2,0.1-1.9v-5.9h-22v51.2h70V54.2H71V60.1z"/>
<path class="st1" d="M65.2,11.7c-0.8-0.4-1.6-0.6-2.5-0.6l0,0c-0.9,0-1.7,0.2-2.5,0.6c0.5,0.9,1.5,1.4,2.5,1.4
	C63.7,13.2,64.6,12.6,65.2,11.7z"/>
<path id="XMLID_1_" class="st1" d="M55.7,71.3c0.1,0.3,0.2,0.7,0.3,0.9l4.7,11.3c0,0.1,0.1,0.2,0.1,0.2c0.2,0.4,0.6,0.8,1,0.9
	c1.1,0.4,2.2,0,2.7-1c0-0.1,0-0.1,0.1-0.2l4.7-11.3c0.1-0.3,0.2-0.6,0.3-0.9L55.7,71.3L55.7,71.3z"/>
<path class="st4" d="M62.7,4.1c-2.8,0-5,2.4-5,5.3c0,0.5,0.1,1,0.2,1.5l0.6,1.3c1.5-2.2,6.8-2.2,8.4,0l0.6-1.3
	c0.2-0.5,0.2-1,0.2-1.5C67.7,6.5,65.5,4.1,62.7,4.1z M65.6,10.4c-0.9-0.4-1.9-0.7-2.9-0.7l0,0c-1,0-2,0.2-2.9,0.6
	c-0.1-0.3-0.1-0.6-0.1-0.9c0-1.8,1.4-3.3,3-3.3c1.7,0,3,1.5,3,3.3C65.7,9.7,65.7,10,65.6,10.4z"/>
<g>
	<path class="st1" d="M62.7,5.9c-1.7,0-3,1.5-3,3.3c0,0.3,0.1,0.6,0.1,0.9c0.9-0.4,1.9-0.6,2.9-0.6l0,0c1,0,2,0.2,2.9,0.7
		c0.1-0.3,0.1-0.6,0.1-1C65.7,7.4,64.4,5.9,62.7,5.9z"/>
</g>
</svg>
