<?xml version="1.0" encoding="utf-8"?>
<!-- Generator: Adobe Illustrator 20.1.0, SVG Export Plug-In . SVG Version: 6.00 Build 0)  -->
<svg version="1.1" id="Layer_2" xmlns="http://www.w3.org/2000/svg" xmlns:xlink="http://www.w3.org/1999/xlink" x="0px" y="0px"
	 width="120px" height="120px" viewBox="0 0 120 120" style="enable-background:new 0 0 120 120;" xml:space="preserve">
<style type="text/css">
	.st0{display:none;fill:#74B78C;}
	.st1{fill:#FFFFFF;}
	.st2{fill:#74B78C;}
	.st3{fill:#B1CF33;}
</style>
<path class="st0" d="M120,23.3V120H23.3C23.3,66.6,66.6,23.3,120,23.3z"/>
<path class="st1" d="M43.4,79.6h8.9l18.4,22.7h27.5l-6.3-7.9L75.3,73.9l0.8-0.6c7.5-5.7,12.1-14.5,12.1-23c0-7.6-2.1-14.3-5.7-19.7
	C52.9,43.3,30.7,70,24.2,102.3h19.2V79.6z"/>
<g>
	<g>
		<path class="st2" d="M71.1,101.3L52.7,78.6H42.4v22.7h-17C32,70.4,53.1,44.6,82.1,31.9c3.3,5.2,5.1,11.6,5.1,18.4
			c0,8.2-4.5,16.7-11.7,22.2l-1.6,1.2L91,95.1l5,6.3L71.1,101.3L71.1,101.3z"/>
		<path class="st1" d="M81.7,33.2c2.9,4.9,4.5,10.8,4.5,17.2c0,7.9-4.3,16.1-11.3,21.4l-0.8,0.6l-1.6,1.2l1.3,1.6l16.5,20.5l3.7,4.7
			H71.6l-17.8-22l-0.6-0.7h-1h-8.9h-2v2v20.7H26.6C33.4,70.6,53.8,45.7,81.7,33.2 M82.5,30.6L82.5,30.6
			c-30.1,12.9-51.9,39.7-58.3,71.7h19.2V79.6h8.9l18.4,22.7h27.5l-6.3-7.9L75.3,73.9l0.8-0.6c7.5-5.7,12.1-14.5,12.1-23
			C88.2,43,86.2,36.2,82.5,30.6L82.5,30.6z"/>
	</g>
	<g>
		<path class="st2" d="M20.9,16.7h36.5c9.7,0,18.3,3.9,24.2,11.1l-0.3,0.1c-31,13.3-53.5,40.9-60.1,73.8l-0.3,1.6l0,0
			C20.9,103.3,20.9,16.7,20.9,16.7z"/>
		<path class="st1" d="M57.4,17.7c8.9,0,16.9,3.4,22.6,9.7C51.3,40,30,64.8,21.9,94.7v-77H57.4 M57.4,15.7H19.9
			c0,44.1,0,44.5,0,88.7l0,0l0,0h1.9l0.5-2.4c6.6-32.6,28.8-60,59.5-73.1l1.5-0.6l-0.8-1C76.3,19.8,67.4,15.7,57.4,15.7L57.4,15.7z"
			/>
	</g>
</g>
<g>
	<path class="st2" d="M70.1,103.3L51.8,80.6h-7.4v22.7H23l0.2-1.2c6.5-32.3,28.5-59.4,58.9-72.4l0.8-0.3l0.5,0.7
		c3.9,5.7,5.9,12.7,5.9,20.2c0,8.8-4.8,18-12.5,23.8l15.9,19.7l7.6,9.5H70.1z"/>
	<path class="st1" d="M82.5,30.6c3.7,5.5,5.7,12.3,5.7,19.7c0,8.5-4.6,17.3-12.1,23l-0.8,0.6l16.5,20.5l6.3,7.9H70.6L52.3,79.6h-8.9
		v22.7H24.2C30.6,70.3,52.4,43.5,82.5,30.6L82.5,30.6 M83.2,28.1l-1.5,0.6C51,41.9,28.8,69.3,22.2,101.9l-0.5,2.4h2.4h19.2h2v-2
		V81.6h5.9l17.8,22l0.6,0.7h1h27.5h4.2l-2.6-3.2l-6.3-7.9L78.1,74.3c7.5-6.1,12.1-15.1,12.1-24c0-7.8-2.1-14.9-6.1-20.8L83.2,28.1
		L83.2,28.1z"/>
</g>
<g>
	<path class="st2" d="M20.9,16.7h36.5c9.7,0,18.3,3.9,24.2,11.1l-0.3,0.1c-31,13.3-53.5,40.9-60.1,73.8l-0.3,1.6l0,0
		C20.9,103.3,20.9,16.7,20.9,16.7z"/>
	<path class="st1" d="M57.4,17.7c8.9,0,16.9,3.4,22.6,9.7C51.3,40,30,64.8,21.9,94.7v-77H57.4 M57.4,15.7H19.9c0,44.1,0,44.5,0,88.7
		l0,0l0,0h1.9l0.5-2.4c6.6-32.6,28.8-60,59.5-73.1l1.5-0.6l-0.8-1C76.3,19.8,67.4,15.7,57.4,15.7L57.4,15.7z"/>
</g>
<path class="st1" d="M99.7,101.1l-6.3-7.9L78.1,74.3c0.9-0.7,1.8-1.5,2.6-2.4c5.9-5.9,9.5-13.9,9.5-21.6c0-7.8-2.1-14.9-6.1-20.8
	C77.4,20.6,69,15.6,57.3,15.6H19.9c0,44.1,0,44.5,0,88.7l0,0l0,0h25.5c0-10.2,0-16.2,0-22.7h5.9l18.4,22.7h32.6L99.7,101.1z"/>
<g>
	<path class="st3" d="M70.1,103.3L51.8,80.6h-7.4v22.7H23l0.2-1.2c6.5-32.3,28.5-59.4,58.9-72.4l0.8-0.3l0.5,0.7
		c3.9,5.7,5.9,12.7,5.9,20.2c0,8.8-4.8,18-12.5,23.8l15.9,19.7l7.6,9.5H70.1z"/>
	<path class="st1" d="M82.5,30.6c3.7,5.5,5.7,12.3,5.7,19.7c0,8.5-4.6,17.3-12.1,23l-0.8,0.6l16.5,20.5l6.3,7.9H70.6L52.3,79.6h-8.9
		v22.7H24.2C30.6,70.3,52.4,43.5,82.5,30.6L82.5,30.6 M83.2,28.1l-1.5,0.6C51,41.9,28.8,69.3,22.2,101.9l-0.5,2.4h2.4h19.2h2v-2
		V81.6h5.9l17.8,22l0.6,0.7h1h27.5h4.2l-2.6-3.2l-6.3-7.9L78.1,74.3c7.5-6.1,12.1-15.1,12.1-24c0-7.8-2.1-14.9-6.1-20.8L83.2,28.1
		L83.2,28.1z"/>
</g>
<g>
	<path class="st1" d="M82.4,27.2c-6.1-7.4-15-11.6-25-11.6H19.9c0,44.1,0,44.5,0,88.7l0,0l0,0h1.9l0.5-2.4
		c6.6-32.6,28.8-60,59.5-73.1l1.5-0.6L82.4,27.2z"/>
</g>
<path class="st2" d="M21.9,17.7h35.5c8.9,0,16.9,3.4,22.6,9.7C51.3,40,30,64.8,21.9,94.7V17.7z"/>
</svg>
