<?xml version="1.0" encoding="utf-8"?>
<!-- Generator: Adobe Illustrator 20.1.0, SVG Export Plug-In . SVG Version: 6.00 Build 0)  -->
<svg version="1.1" id="Layer_2" xmlns="http://www.w3.org/2000/svg" xmlns:xlink="http://www.w3.org/1999/xlink" x="0px" y="0px"
	 width="120px" height="120px" viewBox="0 0 120 120" style="enable-background:new 0 0 120 120;" xml:space="preserve">
<style type="text/css">
	.st0{display:none;fill:#74B78C;}
	.st1{fill:#FFFFFF;stroke:#FFFFFF;stroke-miterlimit:10;}
	.st2{fill:#8E4F9D;}
	.st3{fill:#C06BD4;}
</style>
<path class="st0" d="M-442.5,23.3V120h-96.8C-539.2,66.6-495.9,23.3-442.5,23.3z"/>
<g>
	<path class="st1" d="M109.5,20.2l-11.7-3.1L60,38.5L22.4,17.2l-0.2-0.1l-11.7,2.8v57.3l39.6,22.9c4.5,2.6,7.4,2.8,9.9,2.8
		c2.9,0,5.4-0.1,9.9-2.8l39.6-22.9V20.6V20.2z M46.8,41.1L46.8,41.1L46.8,41.1L46.8,41.1z"/>
	<path class="st2" d="M108,76.3v-54L67,45.8v54c0.7-0.3,1.5-0.7,2.2-1.1L108,76.3z"/>
	<path class="st3" d="M66.8,43.6L106.4,21L98,18.7L62.8,38.6C64.9,39.5,66.4,41.4,66.8,43.6z"/>
	<path class="st2" d="M13.7,20.7l39.5,22.9c0.4-2.2,2-4.1,4-5L22,18.7L13.7,20.7z"/>
	<path class="st2" d="M60,40.2L60,40.2L60,40.2c-2.2,0-4.4,1.4-4.8,4.5c0.7,0.3,1.3,0.6,2,0.8c0.8,0.1,1.7,0.2,2.8,0.2l0,0
		c1.2,0,2.1-0.1,2.9-0.2c0.7-0.2,1.3-0.4,1.9-0.8C64.4,41.6,62.2,40.2,60,40.2z"/>
	<path class="st3" d="M50.9,98.8c0.7,0.4,1.4,0.8,2.2,1.1v-54L12,22.1v54.2L50.9,98.8z"/>
	<path class="st2" d="M64.9,100.6V47.1c-0.5,0.2-1.1,0.3-1.7,0.4c-1.1,0.3-2.1,0.4-3.2,0.4c-1,0-2-0.1-3-0.4
		c-0.7-0.1-1.3-0.2-1.9-0.4v53.5C58.3,101.5,61.7,101.5,64.9,100.6z"/>
</g>
</svg>
