<?xml version="1.0" encoding="utf-8"?>
<!-- Generator: Adobe Illustrator 20.1.0, SVG Export Plug-In . SVG Version: 6.00 Build 0)  -->
<svg version="1.1" id="Layer_2" xmlns="http://www.w3.org/2000/svg" xmlns:xlink="http://www.w3.org/1999/xlink" x="0px" y="0px"
	 width="120px" height="120px" viewBox="0 0 120 120" style="enable-background:new 0 0 120 120;" xml:space="preserve">
<style type="text/css">
	.st0{display:none;fill:#74B78C;}
	.st1{fill:#FFFFFF;stroke:#FFFFFF;stroke-width:0.5;stroke-miterlimit:10;}
	.st2{fill:#ED5B22;}
	.st3{fill:#FFFFFF;}
	.st4{fill:#FF7B47;}
</style>
<path class="st0" d="M-582.2,23.3V120H-679C-678.9,66.6-635.6,23.3-582.2,23.3z"/>
<g>
	<rect x="34.6" y="101.2" class="st1" width="48.5" height="12"/>
	<g>
		<rect x="50.8" y="68.9" class="st2" width="16" height="33.3"/>
		<path class="st3" d="M65.8,69.9v31.3h-14V69.9H65.8 M67.8,67.9h-2h-14h-2v2v31.3v2h2h14h2v-2V69.9V67.9L67.8,67.9z"/>
	</g>
	<g>
		<rect x="10" y="14.8" class="st2" width="100" height="58"/>
		<path class="st3" d="M109,15.8v56H11v-56L109,15.8 M111,13.8h-2H11H9v2v56v2h2h98h2v-2v-56V13.8L111,13.8z"/>
	</g>
	<g>
		<rect x="13.8" y="18.6" class="st4" width="92.4" height="50.4"/>
	</g>
	<g>
		<rect x="94.9" y="6" class="st2" width="14.9" height="8.3"/>
		<path class="st3" d="M109,6.8v6.6H95.8V6.8H109 M110.6,5.2H109H95.8h-1.6v1.6v6.6V15h1.6H109h1.6v-1.6V6.8V5.2L110.6,5.2z"/>
	</g>
	<g>
		<rect x="52.6" y="6" class="st2" width="14.9" height="8.3"/>
		<path class="st3" d="M66.6,6.8v6.6H53.4V6.8H66.6 M68.2,5.2h-1.6H53.4h-1.6v1.6v6.6V15h1.6h13.2h1.6v-1.6V6.8V5.2L68.2,5.2z"/>
	</g>
	<g>
		<rect x="10.2" y="6" class="st2" width="14.9" height="8.3"/>
		<path class="st3" d="M24.2,6.8v6.6H11V6.8H24.2 M25.9,5.2h-1.6H11H9.4v1.6v6.6V15H11h13.2h1.6v-1.6V6.8L25.9,5.2L25.9,5.2z"/>
	</g>
	<g>
		<polygon class="st2" points="37.3,111.6 43.9,111.6 52.7,102.8 46.2,102.8 		"/>
		<polygon class="st2" points="62,102.8 55.5,102.8 46.7,111.6 53.2,111.6 		"/>
		<polygon class="st2" points="71.4,102.8 64.9,102.8 56,111.6 62.6,111.6 		"/>
		<polygon class="st2" points="74.7,111.6 81.4,111.6 81.4,104.9 		"/>
		<polygon class="st2" points="43.3,102.8 36.2,102.8 36.2,109.9 		"/>
		<polygon class="st2" points="80.7,102.8 74.2,102.8 65.4,111.6 71.9,111.6 		"/>
	</g>
</g>
</svg>
