<?xml version="1.0" encoding="utf-8"?>
<!-- Generator: Adobe Illustrator 20.1.0, SVG Export Plug-In . SVG Version: 6.00 Build 0)  -->
<svg version="1.1" id="Layer_1__x28_копия_x29_"
	 xmlns="http://www.w3.org/2000/svg" xmlns:xlink="http://www.w3.org/1999/xlink" x="0px" y="0px" width="16px" height="16px"
	 viewBox="0 0 16 16" style="enable-background:new 0 0 16 16;" xml:space="preserve">
<style type="text/css">
	.st0{fill:#343434;}
</style>
<g id="Layer_1">
</g>
<path class="st0" d="M9,5.3v-4c0-0.4-0.4-0.9-1-0.9c-0.5,0-1,0.3-1,0.9v4c0,0.4,0.4,0.9,1,0.9C8.6,6.2,9,5.8,9,5.3z M5.6,7.9
	c0.2-0.5,0-1.1-0.5-1.2L1.2,5.4C0.8,5.3,0.3,5.5,0.1,6.1s0,1.1,0.5,1.2l3.8,1.3C4.9,8.7,5.4,8.5,5.6,7.9z M14.8,5.5L11,6.6
	c-0.4,0.1-0.7,0.6-0.5,1.2s0.6,0.9,1.1,0.7l3.8-1.1c0.4-0.1,0.7-0.6,0.5-1.2C15.7,5.6,15.3,5.3,14.8,5.5z M13,14l-2.5-3.1
	c-0.3-0.3-0.8-0.4-1.3,0S8.7,11.7,9,12.1l2.5,3.1c0.3,0.3,0.8,0.4,1.3,0S13.4,14.4,13,14z M5.5,10.8l-2.6,3.1
	c-0.3,0.3-0.3,0.9,0.2,1.3s1,0.4,1.3,0L7,12.1c0.3-0.3,0.3-0.9-0.2-1.3S5.8,10.4,5.5,10.8z"/>
</svg>
