<?xml version="1.0" encoding="utf-8"?>
<!-- Generator: Adobe Illustrator 20.1.0, SVG Export Plug-In . SVG Version: 6.00 Build 0)  -->
<svg version="1.1"
	 id="Слой_1" image-rendering="optimizeQuality" shape-rendering="geometricPrecision" text-rendering="geometricPrecision"
	 xmlns="http://www.w3.org/2000/svg" xmlns:xlink="http://www.w3.org/1999/xlink" x="0px" y="0px" width="16px" height="16px"
	 viewBox="0 0 16 16" style="enable-background:new 0 0 16 16;" xml:space="preserve">
<style type="text/css">
	.st0{fill:#343434;}
</style>
<g id="Слой_x0020_1">
	<path class="st0" d="M8.5,16c-1.1,0-2.1,0-3.2,0c0,0,0,0,0-1.1c1.1-2.1,1.1-4.3,3.2-5.3c1.1-1.1,2.1-1.1,2.1-1.1h1.1l0,0
		c1.1,0,1.1,0,1.1-1.1s0-1.1-1.1-1.1c0,0,0,0,0,1.1l0,0h-1.1c0,0-3.2,1.1-4.3,3.2c-2.1,1.1-3.2,2.1-3.2,3.2l0,0l0,0
		C2,13.8,2,12.7,2,12.7l0,0c0,0-1.1-3.2,1.1-5.3c1.1-1.1,2.1-2.1,2.1-2.1h1.1l0,0c1.1,0,1.1,0,1.1-1.1s0-1.1-1.1-1.1
		c0,0-1.1,0-1.1,1.1l0,0c0,0-4.3,2.1-4.3,5.3H0l0,0c0-1.1,0-1.1,0-1.1C0,3.2,3.2,0,8.5,0C12.8,0,16,3.2,16,8.5
		C16,12.8,12.8,16,8.5,16z M14.9,8.5c0-4.3-3.2-7.4-6.4-7.4S2.2,3.2,2.2,5.3c1.1-1.1,2.1-1.1,2.1-2.1c1.1,0,1.1-1.1,2.1-1.1
		c2.1,0,2.1,1.1,2.1,2.1s0,2.1-2.1,2.1c0,0,0,0-1.1,0c0,0-1.1,1.1-2.1,2.1c0,1.1,0,3.2,0,4.3l0,0c0-1.1,1.1-2.1,2.1-3.2
		c1.1-2.1,3.2-3.2,4.3-3.2c1.1-1.1,2.1-1.1,3.2-1.1s2.1,1.1,2.1,2.1s-1.1,2.1-3.2,2.1l0,0l0,0c-1.1,0-2.1,0-2.1,1.1l0,0
		c-1.1,1.1-2.1,2.1-3.2,4.3c1.1,0,1.1,0,2.1,0C11.7,14.9,14.9,11.7,14.9,8.5z"/>
</g>
</svg>
