<?xml version="1.0" encoding="utf-8"?>
<!-- Generator: Adobe Illustrator 20.1.0, SVG Export Plug-In . SVG Version: 6.00 Build 0)  -->
<svg version="1.1" id="Layer_1" xmlns="http://www.w3.org/2000/svg" xmlns:xlink="http://www.w3.org/1999/xlink" x="0px" y="0px"
	 width="16px" height="16px" viewBox="0 0 16 16" style="enable-background:new 0 0 16 16;" xml:space="preserve">
<style type="text/css">
	.st0{fill:#343434;}
</style>
<path id="XMLID_2223_" class="st0" d="M14.8,2.2H1.1c-0.6,0-0.9,0.3-0.9,0.9v9.7c0,0.4,0.3,0.9,0.9,0.9h13.8c0.4,0,0.9-0.3,0.9-0.9
	V3.1C15.7,2.6,15.4,2.2,14.8,2.2z M14,3.9v0.3L7.9,8.6l-6-4.3V3.9H14z M1.9,12V6.5l5.5,3.9c0.2,0.1,0.3,0.1,0.6,0.1
	c0.2,0,0.3,0,0.4-0.1l5.5-3.9V12H1.9z"/>
</svg>
