<?xml version="1.0" encoding="utf-8"?>
<!-- Generator: Adobe Illustrator 19.0.0, SVG Export Plug-In . SVG Version: 6.00 Build 0)  -->
<svg version="1.1" id="Layer_1" xmlns="http://www.w3.org/2000/svg" xmlns:xlink="http://www.w3.org/1999/xlink" x="0px" y="0px"
	 width="18px" height="27.4px" viewBox="0 0 18 27.4" style="enable-background:new 0 0 18 27.4;" xml:space="preserve">
<style type="text/css">
	.st0{fill:#B8B8B8;}
</style>
<g id="XMLID_1_">
	<path id="XMLID_5_" class="st0" d="M9,5.7c-2.3,0-4.2,1.9-4.2,4.2s1.9,4.2,4.2,4.2s4.2-1.9,4.2-4.2S11.3,5.7,9,5.7z M9,11
		c-0.6,0-1.1-0.5-1.1-1.1c0-0.6,0.5-1.1,1.1-1.1c0.6,0,1.1,0.5,1.1,1.1C10.1,10.5,9.6,11,9,11z"/>
	<path id="XMLID_2_" class="st0" d="M9.1,0C9.1,0,9,0,9.1,0c-2.5,0-5,1.1-6.8,3.1c-4.8,5.3-1,11.9,2,17.3c1.1,2,2.2,3.9,2.8,5.6
		c0.3,0.8,1.1,1.4,2,1.4c0,0,0,0,0,0c0.9,0,1.7-0.6,2-1.4c0.6-1.7,1.7-3.6,2.8-5.7C15.8,16.5,18,12.6,18,9C18,4.1,14,0,9.1,0z
		 M11.1,18.8c-0.8,1.4-1.5,2.7-2.1,3.9c-0.6-1.2-1.3-2.5-2.1-3.9C3.6,13,1.5,8.5,4.6,5.2C5.8,3.8,7.4,3.1,9,3.1c0,0,0,0,0,0h0
		c3.2,0,5.9,2.7,5.9,5.9C14.9,11.9,13,15.4,11.1,18.8z"/>
</g>
</svg>
