<?xml version="1.0" encoding="utf-8"?>
<!-- Generator: Adobe Illustrator 20.1.0, SVG Export Plug-In . SVG Version: 6.00 Build 0)  -->
<svg version="1.1" id="Layer_1" xmlns="http://www.w3.org/2000/svg" xmlns:xlink="http://www.w3.org/1999/xlink" x="0px" y="0px"
	 width="16px" height="16px" viewBox="0 0 16 16" style="enable-background:new 0 0 16 16;" xml:space="preserve">
<style type="text/css">
	.st0{fill:#343434;}
</style>
<g id="XMLID_1122_">
	<path id="XMLID_1123_" class="st0" d="M10.6,5.3c-0.4-0.2-0.8-0.4-1.3-0.5C8.9,4.8,8.5,4.7,8,4.7c-0.9,0-1.7,0.2-2.2,0.5
		C5.5,5.3,5.4,5.4,5.4,5.6c0,0.2,0.2,0.4,0.5,0.5c0.2,0.2,0.8,0.3,1.7,0.4c1.6,0.2,2.7,0.4,3.3,0.7c0.8,0.3,1.5,0.7,1.9,1.3
		c0.5,0.5,0.7,1.1,0.7,1.8c0,0.9-0.4,1.6-1.1,2.2c-1.1,0.8-2.5,1.3-4.3,1.3c-0.7,0-1.3-0.1-1.9-0.2S5,13.1,4.5,12.9
		c-0.1,0.1-0.2,0.2-0.4,0.2c-0.1,0.1-0.2,0.1-0.4,0.1c-0.4,0-0.7-0.1-0.9-0.4c-0.2-0.2-0.3-0.6-0.3-1.2v-0.8c0-0.6,0.1-1,0.3-1.2
		c0.3-0.3,0.6-0.4,0.9-0.4s0.5,0,0.7,0.2c0.2,0.2,0.4,0.4,0.5,0.8c0.4,0.3,0.8,0.6,1.3,0.7c0.6,0.2,1.2,0.3,1.8,0.3
		c1.1,0,2-0.2,2.6-0.5c0.3-0.2,0.4-0.4,0.4-0.5c0-0.3-0.2-0.6-0.6-0.8C10,9.3,9.1,9.1,7.8,8.9C5.9,8.6,4.6,8.3,4,7.8
		C3.3,7.2,3,6.4,3,5.7c0-0.9,0.4-1.6,1.1-2.2c1-0.8,2.3-1.2,3.9-1.2c0.5,0,1.1,0.1,1.6,0.2c0.5,0.1,1,0.3,1.5,0.5
		c0.1-0.2,0.2-0.2,0.4-0.3c0.1-0.1,0.2-0.1,0.4-0.1c0.3,0,0.6,0.1,0.8,0.4C12.9,3.2,13,3.7,13,4.2v0.6c0,0.5-0.1,0.9-0.2,1.1
		c-0.3,0.4-0.6,0.5-1,0.5c-0.3,0-0.6-0.1-0.8-0.2C10.8,5.9,10.6,5.7,10.6,5.3z"/>
</g>
</svg>
