<?xml version="1.0" encoding="utf-8"?>
<!-- Generator: Adobe Illustrator 20.1.0, SVG Export Plug-In . SVG Version: 6.00 Build 0)  -->
<svg version="1.1" id="Layer_1" xmlns="http://www.w3.org/2000/svg" xmlns:xlink="http://www.w3.org/1999/xlink" x="0px" y="0px"
	 width="16px" height="16px" viewBox="0 0 16 16" style="enable-background:new 0 0 16 16;" xml:space="preserve">
<style type="text/css">
	.st0{fill:#343434;}
</style>
<g id="XMLID_1101_">
	<path id="XMLID_1127_" class="st0" d="M14.7,3.3l-2-2C12,0.6,11,0.1,10,0.1S8,0.6,7.3,1.3l-6,6.1C0.6,8.1,0.1,9,0.1,10
		c0,1,0.4,2,1.2,2.7l2,2C4,15.4,5,15.9,6,15.9s2-0.4,2.7-1.2l6.1-6.1c0.6-0.7,1-1.7,1-2.6C15.9,5,15.4,4,14.7,3.3z M13.5,7.4
		l-6.1,6.1c-0.7,0.7-2.1,0.7-2.8,0l-2-2C2.1,11,1.9,10.6,1.9,10c0-0.5,0.2-1,0.6-1.5l6.1-6.1C9,2.1,9.6,1.9,10,1.9
		c0.5,0,1,0.2,1.5,0.6l2,2C14.3,5.3,14.3,6.6,13.5,7.4z"/>
	<path id="XMLID_2213_" class="st0" d="M4.5,10.2l-0.4,0.4c-0.3,0.3-0.3,0.9,0,1.3c0.2,0.2,0.4,0.3,0.6,0.3s0.4-0.1,0.6-0.3l0.4-0.4
		c0.3-0.3,0.3-0.9,0-1.3C5.5,9.8,5,9.8,4.5,10.2z"/>
	<path id="XMLID_2214_" class="st0" d="M10.9,3.1c-0.4-0.3-0.9-0.3-1.4,0C9.2,3.4,9.3,4,9.6,4.3l2.1,2.1c0.2,0.2,0.4,0.3,0.6,0.3
		s0.4-0.2,0.6-0.3c0.3-0.3,0.3-0.9,0-1.3L10.9,3.1z"/>
</g>
</svg>
