<?xml version="1.0" encoding="utf-8"?>
<!-- Generator: Adobe Illustrator 19.0.0, SVG Export Plug-In . SVG Version: 6.00 Build 0)  -->
<svg version="1.1" id="Layer_2" xmlns="http://www.w3.org/2000/svg" xmlns:xlink="http://www.w3.org/1999/xlink" x="0px" y="0px"
	 viewBox="0 0 157.9 144.7" style="enable-background:new 0 0 157.9 144.7;" xml:space="preserve">
<metadata><?xpacket begin="﻿" id="W5M0MpCehiHzreSzNTczkc9d"?>
<x:xmpmeta xmlns:x="adobe:ns:meta/" x:xmptk="Adobe XMP Core 5.6-c067 79.157747, 2015/03/30-23:40:42        ">
   <rdf:RDF xmlns:rdf="http://www.w3.org/1999/02/22-rdf-syntax-ns#">
      <rdf:Description rdf:about=""/>
   </rdf:RDF>
</x:xmpmeta>
                                                                                                    
                                                                                                    
                                                                                                    
                                                                                                    
                                                                                                    
                                                                                                    
                                                                                                    
                                                                                                    
                                                                                                    
                                                                                                    
                                                                                                    
                                                                                                    
                                                                                                    
                                                                                                    
                                                                                                    
                                                                                                    
                                                                                                    
                                                                                                    
                                                                                                    
                                                                                                    
                           
<?xpacket end="w"?></metadata>
<style type="text/css">
	.st0{fill:none;stroke:#24408F;stroke-miterlimit:10;}
	.st1{fill:#24408F;}
</style>
<g>
	<path class="st0" d="M120.7,122.7H36c-1.6,0-2.8-1.3-2.8-2.8V111h90.4v8.9C123.5,121.5,122.3,122.7,120.7,122.7z"/>
	<path class="st0" d="M107.1,111H49.6v-6.3c0-0.8,0.6-1.4,1.4-1.4h54.6c0.8,0,1.4,0.6,1.4,1.4V111z"/>
	<path class="st0" d="M39.5,63v9.2c0,3.1,2.5,5.7,5.7,5.7h0c3.5,0,6.4,2.9,6.4,6.4v6.1v4.9c0,1.6,1.3,2.8,2.8,2.8h24h24
		c1.6,0,2.8-1.3,2.8-2.8v-4.9v-6.1c0-3.5,2.9-6.4,6.4-6.4h0c3.1,0,5.7-2.5,5.7-5.7V63"/>
	<circle class="st1" cx="119.2" cy="89.5" r="1.6"/>
	<circle class="st1" cx="119.2" cy="98.1" r="4.1"/>
	<path class="st0" d="M100.3,73.2H56.4V17.7c0-1.6,1.3-2.8,2.8-2.8h38.3c1.6,0,2.8,1.3,2.8,2.8V73.2z"/>
	<path class="st0" d="M100.3,23.6h4.9c3.1,0,5.7,2.5,5.7,5.7V63h-10.5h30c5.5,0,10,4.5,10,10v28c0,5.5-4.5,10-10,10h-104
		c-5.5,0-10-4.5-10-10V73c0-5.5,4.5-10,10-10h30H45.8V29.2c0-3.1,2.5-5.7,5.7-5.7h4.9"/>
</g>
</svg>
