<?xml version="1.0" encoding="utf-8"?>
<!-- Generator: Adobe Illustrator 16.0.0, SVG Export Plug-In . SVG Version: 6.00 Build 0)  -->
<!DOCTYPE svg PUBLIC "-//W3C//DTD SVG 1.1 Tiny//EN" "http://www.w3.org/Graphics/SVG/1.1/DTD/svg11-tiny.dtd" [
	<!ENTITY ns_flows "http://ns.adobe.com/Flows/1.0/">
	<!ENTITY ns_extend "http://ns.adobe.com/Extensibility/1.0/">
	<!ENTITY ns_ai "http://ns.adobe.com/AdobeIllustrator/10.0/">
	<!ENTITY ns_graphs "http://ns.adobe.com/Graphs/1.0/">
]>
<svg version="1.1" baseProfile="tiny" id="Layer_1" xmlns:x="&ns_extend;" xmlns:i="&ns_ai;" xmlns:graph="&ns_graphs;"
	 xmlns="http://www.w3.org/2000/svg" xmlns:xlink="http://www.w3.org/1999/xlink" xmlns:a="http://ns.adobe.com/AdobeSVGViewerExtensions/3.0/"
	 x="0px" y="0px" width="754.248px" height="207.841px" viewBox="0 0 754.248 207.841" xml:space="preserve">
<g>
	<path fill="#FFFFFF" d="M189.714,105.868c0,42.055-34.091,76.147-76.144,76.147s-76.142-34.093-76.142-76.147
		c0-42.051,34.089-76.144,76.142-76.144S189.714,63.817,189.714,105.868z"/>
	<path fill="#25408E" d="M273.348,72.142l-38.616-41.714h10.853l32.104,35.281l20.085-35.281h8.996L281.797,74.15
		c-1.857,3.21-4.186,5.582-6.976,7.101c-2.792,1.531-6.385,2.299-10.778,2.299h-17.37v-7.142h17.678c2.17,0,3.994-0.308,5.466-0.927
		C271.294,74.859,272.467,73.748,273.348,72.142z M323.442,60.049h8.528l34.896,23.501h13.41l-40.241-27.219l39.244-25.749H365.47
		l-34.276,22.334h-7.752V30.583h-7.91V83.55h7.91V60.049z M443.598,34.638c2.656,2.8,3.994,7.062,3.994,12.769
		c0,5.72-1.357,9.96-4.071,12.743c-2.715,2.778-6.475,4.164-11.287,4.164h-35.047V83.55h-7.91V30.428h43.269
		C437.254,30.428,440.929,31.833,443.598,34.638z M439.686,47.407c0-3.378-0.666-5.871-1.984-7.455
		c-1.314-1.594-3.162-2.388-5.542-2.388h-34.973v19.622h35.047c2.273,0,4.088-0.786,5.429-2.35
		C439.007,53.275,439.686,50.798,439.686,47.407z M465.196,83.55h-8.922l27.917-53.122h12.332l27.91,53.122h-8.919l-6.273-11.792
		h-37.85L465.196,83.55z M474.957,64.624h30.872l-14.423-27.837h-2.02L474.957,64.624z M590.197,37.41v46.14h7.903V30.428h-11.55
		l-45.521,46.604V30.428h-7.903V83.55h11.933L590.197,37.41z M673.166,83.55V30.428h-7.909v22.568H619.66V30.428h-7.91V83.55h7.91
		V60.124h45.597V83.55H673.166z M693.093,83.55h-8.913l27.914-53.122h12.328L752.34,83.55h-8.916l-6.287-11.792h-37.836
		L693.093,83.55z M702.866,64.624h30.865l-14.427-27.837h-2.02L702.866,64.624z M244.608,190.379h20.289v-66.056h56.575v66.056
		h20.287v-85.226h-97.15V190.379z M436.721,112.583c4.624,4.87,6.965,12.078,6.965,21.427c0,9.374-2.399,16.582-7.12,21.413
		c-4.754,4.864-11.28,7.332-19.404,7.332h-45.885v27.625h-20.287v-85.226h66.621C425.604,105.154,432.039,107.654,436.721,112.583z
		 M423.398,134.009c0-4.698-0.99-6.874-1.818-7.867c-0.704-0.845-1.847-1.818-4.529-1.818h-45.775v19.254h45.885
		c1.975,0,3.338-0.559,4.416-1.812C422.402,140.801,423.398,138.675,423.398,134.009z M472.203,165.598v-60.444H451.91v85.226
		h23.501l58.484-59.793v59.793h20.29v-85.226h-22.939L472.203,165.598z M640.726,137.564h-56.685v-32.41h-20.293v85.226h20.293
		v-33.639h56.685v33.639h20.284v-85.226h-20.284V137.564z M665.676,105.154v19.17h34.193v66.056h20.293v-66.056h34.086v-19.17
		H665.676z"/>
	<g>
		<path fill="#25408E" d="M172.714,68.093v11.556h-12.593v55.98c0,11.894-9.678,21.572-21.573,21.572H88.114
			c-12.438,0-22.557-10.12-22.557-22.56V79.649H54.425V68.093h16.91c3.19,0,5.778,2.588,5.778,5.778v60.771
			c0,6.068,4.934,11.001,11,11.001h50.435c5.523,0,10.017-4.494,10.017-10.014V73.871c0-3.19,2.588-5.778,5.778-5.778H172.714z
			 M105.355,128.015c0,4.539,3.679,8.218,8.22,8.218c4.536,0,8.218-3.679,8.218-8.218c0-4.543-3.682-8.218-8.218-8.218
			C109.034,119.797,105.355,123.472,105.355,128.015z M126.419,128.015c0,4.539,3.682,8.218,8.221,8.218s8.218-3.679,8.218-8.218
			c0-4.543-3.679-8.218-8.218-8.218S126.419,123.472,126.419,128.015z M115.888,110.404c0,4.539,3.679,8.218,8.219,8.218
			c4.536,0,8.217-3.679,8.217-8.218s-3.681-8.218-8.217-8.218C119.567,102.186,115.888,105.865,115.888,110.404z M113.575,101.01
			c4.536,0,8.218-3.675,8.218-8.216c0-4.541-3.682-8.218-8.218-8.218c-4.541,0-8.22,3.677-8.22,8.218
			C105.355,97.335,109.034,101.01,113.575,101.01z M92.505,136.233c4.539,0,8.218-3.679,8.218-8.218
			c0-4.543-3.679-8.218-8.218-8.218c-4.536,0-8.218,3.675-8.218,8.218C84.287,132.554,87.969,136.233,92.505,136.233z
			 M103.037,118.622c4.542,0,8.221-3.679,8.221-8.218s-3.679-8.218-8.221-8.218c-4.536,0-8.218,3.679-8.218,8.218
			S98.501,118.622,103.037,118.622z"/>
		<g>
			<path fill="#25408E" d="M212.303,76.48C199.151,29.135,154.156-2.234,105.081,1.847c-49.279,4.096-88.604,42.75-93.507,91.91
				l19.164,1.909c3.979-39.915,35.916-71.301,75.938-74.627c39.056-3.288,74.844,21.157,86.326,58.293l-14.455,2.137l27.891,20.704
				l20.709-27.888L212.303,76.48z"/>
			<path fill="#FCB912" d="M196.407,112.375c-3.979,39.911-35.915,71.297-75.933,74.628c-39.055,3.267-74.844-21.157-86.332-58.296
				L48.6,126.57l-27.891-20.702L0,133.755l14.853-2.194c12.389,44.577,52.98,74.987,98.655,74.987c2.836,0,5.692-0.117,8.562-0.357
				c49.277-4.101,88.599-42.755,93.5-91.907L196.407,112.375z"/>
		</g>
	</g>
</g>
<g>
</g>
<g>
</g>
<g>
</g>
<g>
</g>
<g>
</g>
<g>
</g>
</svg>
