<svg id="Слой_1" data-name="Слой 1" xmlns="http://www.w3.org/2000/svg" viewBox="0 0 760.8 87.4"><defs><style>.cls-1{fill:#00abeb;}.cls-2{fill:#fff;}</style></defs><title>logo-viaron</title><polygon class="cls-1" points="0 9.4 41.4 78.3 83.1 9.4 0 9.4"/><polygon class="cls-1" points="89.9 78.4 173 78.4 131.5 9.4 89.9 78.4"/><polygon class="cls-1" points="100.4 9.1 60.4 78 73.3 78 113.2 9 100.4 9.1"/><path class="cls-2" d="M348.8,6.8,304.4,80.4,260.3,6.8h-8L303,91.2a1.6,1.6,0,0,0,1.4.7,1.6,1.6,0,0,0,1.4-.7l51-84.4Z" transform="translate(-7.6 -6.5)"/><polygon class="cls-2" points="384.3 0.4 331.8 87.4 340.6 87.4 392.9 0.4 384.3 0.4"/><path class="cls-2" d="M435.7,8.1a1.9,1.9,0,0,0-1.4,1l-51,84.7h8l44.4-73.9,26,42.9H433.3a3.5,3.5,0,0,0,0,7h32.4l14.1,24h8L437.1,9.2A1.9,1.9,0,0,0,435.7,8.1Z" transform="translate(-7.6 -6.5)"/><path class="cls-2" d="M549.6,53.8a23.5,23.5,0,1,0,0-47H502.4v87h7v-80h40.2a16.5,16.5,0,1,1,0,33H528.3l44.1,47h9.4l-37.7-40Z" transform="translate(-7.6 -6.5)"/><path class="cls-2" d="M648.6,12h0a3.4,3.4,0,0,0-3.9,5.7l.8.4a36.7,36.7,0,1,1-22-4.5V38.1a4,4,0,0,0,8,0V10.3a3.7,3.7,0,0,0-3.8-3.6h-.1A42.8,42.8,0,1,0,648.6,12Z" transform="translate(-7.6 -6.5)"/><path class="cls-2" d="M761.4,6.8V80.6L694.8,7.4a3.1,3.1,0,0,0-3.4-.8,3.1,3.1,0,0,0-2,2.8V93.8h7V19.3l66.6,73.2a3.1,3.1,0,0,0,3.4.8,3.1,3.1,0,0,0,2-2.8V6.8Z" transform="translate(-7.6 -6.5)"/></svg>