<?xml version="1.0" standalone="no"?>
<!DOCTYPE svg PUBLIC "-//W3C//DTD SVG 1.1//EN" "http://www.w3.org/Graphics/SVG/1.1/DTD/svg11.dtd" >
<svg>
<metadata>
Created by FontForge 20090914 at Fri Apr 28 10:05:58 2017
 By www-data
Open 24 Display st | this font is an original design of southype | free for personal use.
</metadata>
<defs>
<font id="Open24DisplaySt" horiz-adv-x="905" >
  <font-face 
    font-family="Open 24 Display St"
    font-weight="400"
    font-stretch="normal"
    units-per-em="2048"
    panose-1="2 0 5 0 0 0 0 0 0 0"
    ascent="1638"
    descent="-410"
    x-height="1428"
    cap-height="1428"
    bbox="-315 -269.997 1980 2115"
    underline-thickness="150"
    underline-position="-142"
    unicode-range="U+0020-U+F002"
  />
<missing-glyph horiz-adv-x="1024" 
d="M100 0v1434h824v-1434h-824zM150 50h724v1334h-724v-1334zM325 1148c20.667 18.667 40.002 32.998 58.002 42.998c35.333 20 72.666 30 111.999 30c61.333 0 110.666 -15.833 147.999 -47.5s56 -74.167 56 -127.5c0 -32.667 -7.66699 -65.5 -23 -98.5
s-44.333 -76.167 -87 -129.5c-42 -53.333 -75 -97.333 -99 -132s-36 -67.667 -36 -99c0 -25.333 8 -69.666 24 -132.999h-32c-23.333 64.667 -35 114 -35 148c0 50.667 27.167 123.334 81.5 218.001s81.5 167 81.5 217c0 38 -11 68 -33 90s-52.333 33 -91 33
c-25.333 0 -48.333 -5.66699 -69 -17c-17.333 -10 -36 -23.333 -56 -40v45zM389.002 333.998l57 57.999c7.33301 6.66699 14 10 20 10c6.66699 0 14 -3.66699 22 -11l56 -60c6 -7.33301 9 -14 9 -20c0 -7.33301 -3.33301 -14.666 -10 -21.999l-56 -62
c-9.33301 -9.33301 -16.333 -14 -21 -14c-7.33301 0 -14 3.33301 -20 10l-61 71c-4.66699 6 -7 12 -7 18c0 6.66699 3.66699 14 11 22z" />
    <glyph glyph-name=".notdef" horiz-adv-x="1024" 
d="M100 0v1434h824v-1434h-824zM150 50h724v1334h-724v-1334zM325 1148c20.667 18.667 40.002 32.998 58.002 42.998c35.333 20 72.666 30 111.999 30c61.333 0 110.666 -15.833 147.999 -47.5s56 -74.167 56 -127.5c0 -32.667 -7.66699 -65.5 -23 -98.5
s-44.333 -76.167 -87 -129.5c-42 -53.333 -75 -97.333 -99 -132s-36 -67.667 -36 -99c0 -25.333 8 -69.666 24 -132.999h-32c-23.333 64.667 -35 114 -35 148c0 50.667 27.167 123.334 81.5 218.001s81.5 167 81.5 217c0 38 -11 68 -33 90s-52.333 33 -91 33
c-25.333 0 -48.333 -5.66699 -69 -17c-17.333 -10 -36 -23.333 -56 -40v45zM389.002 333.998l57 57.999c7.33301 6.66699 14 10 20 10c6.66699 0 14 -3.66699 22 -11l56 -60c6 -7.33301 9 -14 9 -20c0 -7.33301 -3.33301 -14.666 -10 -21.999l-56 -62
c-9.33301 -9.33301 -16.333 -14 -21 -14c-7.33301 0 -14 3.33301 -20 10l-61 71c-4.66699 6 -7 12 -7 18c0 6.66699 3.66699 14 11 22z" />
    <glyph glyph-name="space" unicode=" " 
 />
    <glyph glyph-name="space" unicode="&#xa0;" 
 />
    <glyph glyph-name="exclam" unicode="!" horiz-adv-x="311" 
d="M68 1424c3.33301 0 43.332 -39.999 119.999 -119.999v-324c0 -3.33301 -40 -43.333 -120 -120c-3.33301 0 -16.666 13.333 -39.999 40v484c0 3.33301 13.333 16.666 40 39.999zM147.999 888.001c3.33301 0 16.667 -13.334 40 -40.001v-480
c0 -3.33301 -13.333 -16.666 -40 -39.999c-3.33301 0 -43.333 40 -120 120v320c0 3.33301 40 43.333 120 120zM64 240l83.999 0.000976562c5.33301 -0.666992 8 -3.33398 8 -8.00098v-4c-29.333 -37.333 -50.666 -56 -63.999 -56h-8c-14 0 -30 12 -48 36v4
c0 4 9.33301 13.333 28 28zM175.999 200.001h4c3.33301 0 15.333 -12 36 -36v-84c0 -4 -4 -8 -12 -12h-4c-34.667 28.667 -52 44.667 -52 48v36c0 21.333 9.33301 37.333 28 48zM15.999 176.001c4 0 21.333 -17.333 52 -52v-52c-16 -16 -24 -26.667 -24 -32h-8
c-3.33301 0 -15.333 12 -36 36v84c0 4 5.33301 9.33301 16 16zM111.999 68.001l20 -0.000976562c16.667 0 34 -12 52 -36c0 -3.33301 -10.667 -14 -32 -32h-84c-5.33301 0 -8 2.66699 -8 8v4c0 6.66699 17.333 25.334 52 56.001z" />
    <glyph glyph-name="quotedbl" unicode="&#x22;" horiz-adv-x="406" 
d="M20 2115c3.33301 0 23.333 -20 60 -60v-212c0 -3.33301 -20 -23.333 -60 -60c-3.33301 0 -10 6.66699 -20 20v292c0 3.33301 6.66699 10 20 20zM221 2115c3.33301 0 23.333 -20 60 -60v-212c0 -3.33301 -20 -23.333 -60 -60c-3.33301 0 -10 6.66699 -20 20v292
c0 3.33301 6.66699 10 20 20z" />
    <glyph glyph-name="numbersign" unicode="#" horiz-adv-x="2104" 
d="M1068 1428c10.667 -24 16.001 -42.668 16.001 -56.001c-136.667 -258.667 -214 -398.667 -232 -420c-4.66699 0 -55.334 -16 -152.001 -48c-10.667 20 -16 40 -16 60c138 258.667 214 397.334 228 416.001c98 32 150 48 156 48zM1736 1428
c10.667 -24 16.001 -42.668 16.001 -56.001c-136.667 -258.667 -214 -398.667 -232 -420c-4.66699 0 -55.334 -16 -152.001 -48c-10.667 20 -16 40 -16 60c138 258.667 214 397.334 228 416.001c98 32 150 48 156 48zM260.002 1012l328.001 0.000976562
c3.33301 0 16.666 -13.333 39.999 -40c0 -3.33301 -40 -43.333 -120 -120h-168c-3.33301 0 -43.333 40 -120 120c0 3.33301 13.333 16.666 40 39.999zM956.003 995.999l328.001 0.000976562c3.33301 0 16.666 -13.333 39.999 -40c0 -3.33301 -40 -43.333 -120 -120h-168
c-3.33301 0 -43.333 40 -120 120c0 3.33301 13.333 16.666 40 39.999zM1612 996l328.001 0.000976562c3.33301 0 16.666 -13.333 39.999 -40c0 -3.33301 -40 -43.333 -120 -120h-168c-3.33301 0 -43.333 40 -120 120c0 3.33301 13.333 16.666 40 39.999zM824.005 928.001
c10.667 -20 15.999 -39.999 15.999 -59.999c-138 -258.667 -214 -397.334 -228 -416.001c-98 -32 -150 -48 -156 -48c-10.667 24 -16 42.667 -16 56c136.667 258.667 214 398.667 232 420c4.66699 0 55.334 16 152.001 48zM1492 928.002
c10.667 -20 15.999 -39.999 15.999 -59.999c-138 -258.667 -214 -397.334 -228 -416.001c-98 -32 -150 -48 -156 -48c-10.667 24 -16 42.667 -16 56c136.667 258.667 214 398.667 232 420c4.66699 0 55.334 16 152.001 48zM120.003 580.003l167.999 -0.000976562
c3.33301 0 43.333 -40 120 -120c0 -3.33301 -13.333 -16.666 -40 -39.999h-328c-3.33301 0 -16.666 13.333 -39.999 40c0 3.33301 40 43.333 120 120zM804.002 580.002l167.999 -0.000976562c3.33301 0 43.333 -40 120 -120c0 -3.33301 -13.333 -16.666 -40 -39.999h-328
c-3.33301 0 -16.666 13.333 -39.999 40c0 3.33301 40 43.333 120 120zM1472 580.001l167.999 -0.000976562c3.33301 0 43.333 -40 120 -120c0 -3.33301 -13.333 -16.666 -40 -39.999h-328c-3.33301 0 -16.666 13.333 -39.999 40c0 3.33301 40 43.333 120 120zM580 420
c6 -8.66699 11.332 -27.333 15.999 -56c-120.667 -214 -190 -331.333 -208 -352c-24.667 -8 -40.667 -12 -48 -12c-4.66699 6 -20.667 59.333 -48 160c76 142.667 121.333 216 136 220c96.667 26.667 147.334 40 152.001 40zM1248 420.001
c6 -8.66699 11.332 -27.333 15.999 -56c-120.667 -214 -190 -331.333 -208 -352c-24.667 -8 -40.667 -12 -48 -12c-4.66699 6 -20.667 59.333 -48 160c76 142.667 121.333 216 136 220c96.667 26.667 147.334 40 152.001 40z" />
    <glyph glyph-name="dollar" unicode="$" horiz-adv-x="907" 
d="M320 1714c3.33301 0 43.333 -39.999 120 -119.999v-104c0 -5.33301 -2.66699 -8 -8 -8h-144c-5.33301 0 -8 2.66699 -8 8v184c0 3.33301 13.333 16.666 40 39.999zM120 1426l568.001 0.000976562c3.33301 0 16.666 -13.333 39.999 -40c0 -3.33301 -40 -43.333 -120 -120
h-408c-3.33301 0 -43.333 40 -120 120c0 3.33301 13.333 16.666 40 39.999zM40.001 1382c3.33301 0 43.332 -39.999 119.999 -119.999v-408c0 -3.33301 -40 -43.333 -120 -120c-3.33301 0 -16.666 13.333 -39.999 40v568c0 3.33301 13.333 16.666 40 39.999zM296 1234
l127.999 0.000976562c5.33301 -0.666992 8 -3.33398 8 -8.00098v-368c0 -5.33301 -2.66699 -8 -8 -8h-128c-5.33301 0 -8 2.66699 -8 8v368c0.666992 5.33301 3.33398 8 8.00098 8zM159.999 798.004h472c3.33301 0 30 -26.667 80 -80v-4c0 -3.33301 -26.667 -30 -80 -80
h-472c-3.33301 0 -30 26.667 -80 80v4c0 3.33301 26.667 30 80 80zM763.999 690.004c3.33301 0 16.667 -13.334 40 -40.001v-568c0 -3.33301 -13.333 -16.666 -40 -39.999c-3.33301 0 -43.333 40 -120 120v408c0 3.33301 40 43.333 120 120zM296 590.003
l127.999 0.000976562c5.33301 -0.666992 8 -3.33398 8 -8.00098v-368c0 -5.33301 -2.66699 -8 -8 -8h-128c-5.33301 0 -8 2.66699 -8 8v368c0.666992 5.33301 3.33398 8 8.00098 8zM195.999 158.004l407.999 -0.000976562c3.33301 0 43.333 -40 120 -120
c0 -3.33301 -13.333 -16.666 -40 -39.999h-568c-3.33301 0 -16.666 13.333 -39.999 40c0 3.33301 40 43.333 120 120zM287.998 -37.9971h143.999c5.33301 -0.666992 8 -3.33398 8 -8.00098v-184c0 -3.33301 -13.333 -16.666 -40 -39.999c-3.33301 0 -43.333 40 -120 120v104
c0.666992 5.33301 3.33398 8 8.00098 8z" />
    <glyph glyph-name="percent" unicode="%" horiz-adv-x="907" 
d="M88 1428h108c3.33301 0 10 -6.66699 20 -20v-4c0 -3.33301 -21.333 -24.666 -64 -63.999h-108c-3.33301 0 -10 6.66699 -20 20v4c0 3.33301 21.333 24.666 64 63.999zM788 1428c10.667 -24 16.001 -42.668 16.001 -56.001c-136.667 -258.667 -214 -398.667 -232 -420
c-4.66699 0 -55.334 -16 -152.001 -48c-10.667 20 -16 40 -16 60c138 258.667 214 397.334 228 416.001c98 32 150 48 156 48zM220.001 1388h4c3.33301 0 24.666 -21.333 63.999 -64v-108c0 -3.33301 -6.66699 -10 -20 -20h-4c-3.33301 0 -24.666 21.333 -63.999 64v108
c0 3.33301 6.66699 10 20 20zM20.001 1340h4c3.33301 0 24.666 -21.333 63.999 -64v-108c0 -3.33301 -6.66699 -10 -20 -20h-4c-3.33301 0 -24.666 21.333 -63.999 64v108c0 3.33301 6.66699 10 20 20zM136.001 1196h108c3.33301 0 10 -6.66699 20 -20v-4
c0 -3.33301 -21.333 -24.666 -64 -63.999h-108c-3.33301 0 -10 6.66699 -20 20v4c0 3.33301 21.333 24.666 64 63.999zM544.001 927.999c10.667 -20 15.999 -39.999 15.999 -59.999c-138 -258.667 -214 -397.334 -228 -416.001c-98 -32 -150 -48 -156 -48
c-10.667 24 -16 42.667 -16 56c136.667 258.667 214 398.667 232 420c4.66699 0 55.334 16 152.001 48zM300 420c6 -8.66699 11.332 -27.333 15.999 -56c-120.667 -214 -190 -331.333 -208 -352c-24.667 -8 -40.667 -12 -48 -12c-4.66699 6 -20.667 59.333 -48 160
c76 142.667 121.333 216 136 220c96.667 26.667 147.334 40 152.001 40zM603.999 320.001h108c3.33301 0 10 -6.66699 20 -20v-4c0 -3.33301 -21.333 -24.666 -64 -63.999h-108c-3.33301 0 -10 6.66699 -20 20v4c0 3.33301 21.333 24.666 64 63.999zM735.999 280.001h4
c3.33301 0 24.666 -21.333 63.999 -64v-108c0 -3.33301 -6.66699 -10 -20 -20h-4c-3.33301 0 -24.666 21.333 -63.999 64v108c0 3.33301 6.66699 10 20 20zM535.999 232.001h4c3.33301 0 24.666 -21.333 63.999 -64v-108c0 -3.33301 -6.66699 -10 -20 -20h-4
c-3.33301 0 -24.666 21.333 -63.999 64v108c0 3.33301 6.66699 10 20 20zM651.999 88.001h108c3.33301 0 10 -6.66699 20 -20v-4c0 -3.33301 -21.333 -24.666 -64 -63.999h-108c-3.33301 0 -10 6.66699 -20 20v4c0 3.33301 21.333 24.666 64 63.999z" />
    <glyph glyph-name="ampersand" unicode="&#x26;" horiz-adv-x="1267" 
d="M200 1436l328.001 0.000976562c3.33301 0 16.666 -13.333 39.999 -40c0 -3.33301 -40 -43.333 -120 -120h-168c-3.33301 0 -43.333 40 -120 120c0 3.33301 13.333 16.666 40 39.999zM608.001 1364c3.33301 0 16.667 -13.334 40 -40.001v-328
c0 -3.33301 -13.333 -16.666 -40 -39.999c-3.33301 0 -43.333 40 -120 120v168c0 3.33301 40 43.333 120 120zM156.002 1340c3.33301 0 43.332 -39.999 119.999 -119.999v-168c0 -3.33301 -40 -43.333 -120 -120c-3.33301 0 -16.666 13.333 -39.999 40v328
c0 3.33301 13.333 16.666 40 39.999zM308.001 1020l167.999 -0.000976562c3.33301 0 43.333 -40 120 -120c0 -3.33301 -13.333 -16.666 -40 -39.999h-328c-3.33301 0 -16.666 13.333 -39.999 40c0 3.33301 40 43.333 120 120zM84 820l568.001 0.000976562
c3.33301 0 16.666 -13.333 39.999 -40c0 -3.33301 -40 -43.333 -120 -120h-408c-3.33301 0 -43.333 40 -120 120c0 3.33301 13.333 16.666 40 39.999zM716.001 748.001c3.33301 0 16.668 -13.335 40.001 -40.002v-172l40 36h328c3.33301 0 16.666 -13.333 39.999 -40
c0 -3.33301 -40 -43.333 -120 -120h-168l-120 116v-324l120 116h168c3.33301 0 43.333 -40 120 -120c0 -3.33301 -13.333 -16.666 -40 -39.999h-328l-40 36v-56c0 -3.33301 -13.333 -16.666 -40 -39.999c-3.33301 0 -43.333 40 -120 120v408c0 3.33301 40 43.333 120 120z
M40.0029 735.999c3.33301 0 43.332 -39.999 119.999 -119.999v-408c0 -3.33301 -40 -43.333 -120 -120c-3.33301 0 -16.666 13.333 -39.999 40v568c0 3.33301 13.333 16.666 40 39.999zM164.002 160l407.999 -0.000976562c3.33301 0 43.333 -40 120 -120
c0 -3.33301 -13.333 -16.666 -40 -39.999h-568c-3.33301 -0 -16.666 13.333 -39.999 40c0 3.33301 40 43.333 120 120z" />
    <glyph glyph-name="quotesingle" unicode="'" horiz-adv-x="205" 
d="M20 2115c3.33301 0 23.333 -20 60 -60v-212c0 -3.33301 -20 -23.333 -60 -60c-3.33301 0 -10 6.66699 -20 20v292c0 3.33301 6.66699 10 20 20z" />
    <glyph glyph-name="parenleft" unicode="(" horiz-adv-x="599" 
d="M460 1332c-52.667 -56 -80.667 -84 -84 -84h-200c-56 52.667 -84 80.667 -84 84c50 53.333 76.667 80 80 80h208c53.333 -50 80 -76.667 80 -80zM164 1172v-391.999c-79.333 -82.667 -120.666 -124 -123.999 -124c-26.667 23.333 -40 36.666 -40 39.999v568
c23.333 26.667 36.666 40 39.999 40c82.667 -72.667 124 -116.667 124 -132zM160 512.001v-311.998c-14.667 -14.667 -54.667 -45.334 -120 -92.001c-18 9.33301 -31.333 20 -40 32v432c8.66699 12 22 22.667 40 32c65.333 -46.667 105.333 -77.334 120 -92.001z
M460 80.0029c-50 -53.333 -76.667 -80 -80 -80h-208c-53.333 50 -80 76.667 -80 80c52.667 56 80.667 84 84 84h200c56 -52.667 84 -80.667 84 -84z" />
    <glyph glyph-name="parenright" unicode=")" horiz-adv-x="604" 
d="M80 1412h208c3.33301 0 30 -26.667 80 -80c0 -3.33301 -28 -31.333 -84 -84h-200c-3.33301 0 -31.333 28 -84 84c0 3.33301 26.667 30 80 80zM420 1304c3.33301 0 16.666 -13.334 39.999 -40.001v-568c0 -3.33301 -13.333 -16.666 -40 -39.999
c-3.33301 0 -44.666 41.333 -123.999 124v392c0 15.333 41.333 59.333 124 132zM420 603.999c18 -9.33301 31.333 -20.002 40 -32.002v-432c-8.66699 -12 -22 -22.667 -40 -32c-65.333 46.667 -105.333 77.334 -120 92.001v312c14.667 14.667 54.667 45.334 120 92.001z
M84 163.997h200c3.33301 0 31.333 -28 84 -84c0 -3.33301 -26.667 -30 -80 -80h-208c-3.33301 0 -30 26.667 -80 80c0 3.33301 28 31.333 84 84z" />
    <glyph glyph-name="asterisk" unicode="*" horiz-adv-x="741" 
d="M312 1275c2.66699 0 33.667 -31 93 -93v-155c0 -4 -2 -6 -6 -6h-96c-4.66699 0 -7 2 -7 6v233c0 2.66699 5.33301 7.66699 16 15zM520 1198h37c4 -0.666992 6 -3 6 -7v-124c-25.333 -30.667 -44 -46 -56 -46h-65c-4 0 -6 2 -6 6v87c0.666992 2.66699 28.667 30.667 84 84
zM86 1154h124c2.66699 0 21 -18.667 55 -56v-71c0 -4 -2 -6 -6 -6h-80c-12 0 -45.333 30 -100 90v37c0.666992 4 3 6 7 6zM89 990h169.999c4 -0.666992 6 -2.66699 6 -6v-97c0 -4 -2 -6 -6 -6h-223c-11.333 0 -21.666 7.33301 -30.999 22v3
c0.666992 3.33301 28.667 31.333 84 84zM302.999 990h96c4 -0.666992 6 -2.66699 6 -6v-97c0 -4 -2 -6 -6 -6h-96c-4.66699 0 -7 2 -7 6v97c0.666992 4 3 6 7 6zM441.999 990h217.001c3.33301 0 10.666 -7.33301 21.999 -22v-3c-50 -56 -81 -84 -93 -84h-146c-4 0 -6 2 -6 6
v97c0.666992 4 2.66699 6 6 6zM172 850h87c4 -0.666992 6 -2.66699 6 -6v-74c0 -2.66699 -33 -36 -99 -100h-37c-4 0 -6 2.33301 -6 7v124c0 2.66699 16.333 19 49 49zM303 850h96c4 -0.666992 6 -2.66699 6 -6v-217c0 -2.66699 -10.333 -13 -31 -31
c-2.66699 0 -28.667 26 -78 78v170c0.666992 4 3 6 7 6zM442 850h72c2 0 33 -31 93 -93v-37c0 -4 -2.33301 -6 -7 -6h-124c-2.66699 0 -16 13.333 -40 40v90c0.666992 4 2.66699 6 6 6z" />
    <glyph glyph-name="plus" unicode="+" horiz-adv-x="806" 
d="M320 1165c3.33301 0 43.333 -39.999 120 -119.999v-232c0 -5.33301 -2.66699 -8 -8 -8h-144c-5.33301 0 -8 2.66699 -8 8v312c0 3.33301 13.333 16.666 40 39.999zM40 765.001l616.001 0.000976562c3.33301 0 16.666 -13.333 39.999 -40
c0 -3.33301 -40 -43.333 -120 -120h-456c-3.33301 0 -43.333 40 -120 120c-0 3.33301 13.333 16.666 40 39.999zM288.001 565.002h143.999c5.33301 -0.666992 8 -3.33398 8 -8.00098v-312c0 -3.33301 -13.333 -16.666 -40 -39.999c-3.33301 0 -43.333 40 -120 120v232
c0.666992 5.33301 3.33398 8 8.00098 8z" />
    <glyph glyph-name="comma" unicode="," horiz-adv-x="306" 
d="M216 100v-8c0 -4 -55.333 -101 -166 -291h-8c-4 0 -12.667 97 -26 291v8c0 4 32 36 96 96h8c4 0 36 -32 96 -96z" />
    <glyph glyph-name="hyphen" unicode="-" horiz-adv-x="670" 
d="M89 974h472c3.33301 0 30 -26.667 80 -80v-4c0 -3.33301 -26.667 -30 -80 -80h-472c-3.33301 0 -30 26.667 -80 80v4c0 3.33301 26.667 30 80 80z" />
    <glyph glyph-name="hyphen" unicode="&#xad;" horiz-adv-x="670" 
d="M89 974h472c3.33301 0 30 -26.667 80 -80v-4c0 -3.33301 -26.667 -30 -80 -80h-472c-3.33301 0 -30 26.667 -80 80v4c0 3.33301 26.667 30 80 80z" />
    <glyph glyph-name="period" unicode="." horiz-adv-x="295" 
d="M6 92v8c0 4 32 36 96 96h8c4 0 36 -32 96 -96v-8c0 -4 -32 -36 -96 -96h-8c-4 0 -36 32 -96 96z" />
    <glyph glyph-name="slash" unicode="/" horiz-adv-x="902" 
d="M776 1428c8 -12.667 12 -30.001 12 -52.001v-4c0 -10.667 -74.667 -150.667 -224 -420c-8.66699 0 -60.667 -16 -156 -48c-10.667 20 -16 40 -16 60c138 258.667 214 397.334 228 416.001c98 32 150 48 156 48zM532 927.999c10.667 -20 15.999 -39.999 15.999 -59.999
c-138 -258.667 -214 -397.334 -228 -416.001c-98 -32 -150 -48 -156 -48c-10.667 24 -16 42.667 -16 56c136.667 258.667 214 398.667 232 420c4.66699 0 55.334 16 152.001 48zM287.999 420c6 -8.66699 11.332 -27.333 15.999 -56
c-121.333 -214.667 -190.666 -332 -207.999 -352c-24.667 -8 -40.667 -12 -48 -12c-5.33301 8.66699 -21.333 62 -48 160c77.333 144.667 122.666 218 135.999 220c96.667 26.667 147.334 40 152.001 40z" />
    <glyph glyph-name="zero" unicode="0" 
d="M120 1428l568.001 0.000976562c3.33301 0 16.666 -13.333 39.999 -40c0 -3.33301 -40 -43.333 -120 -120h-408c-3.33301 0 -43.333 40 -120 120c0 3.33301 13.333 16.666 40 39.999zM764.001 1388c3.33301 0 16.667 -13.334 40 -40.001v-568
c0 -3.33301 -13.333 -16.666 -40 -39.999c-3.33301 0 -43.333 40 -120 120v408c0 3.33301 40 43.333 120 120zM40.002 1384c3.33301 0 43.332 -39.999 119.999 -119.999v-408c0 -3.33301 -40 -43.333 -120 -120c-3.33301 0 -16.666 13.333 -39.999 40v568
c0 3.33301 13.333 16.666 40 39.999zM512.001 1072c8 -10 30.666 -61.999 67.999 -155.999c-109.333 -280.667 -166.666 -423.334 -171.999 -428.001c-93.333 -42.667 -146.666 -64 -159.999 -64c-10.667 29.333 -16 49.333 -16 60c149.333 374 226.666 563.333 231.999 568
c26.667 13.333 42.667 20 48 20zM40 696.002c3.33301 0 43.332 -39.999 119.999 -119.999v-408c0 -3.33301 -40 -43.333 -120 -120c-3.33301 0 -16.666 13.333 -39.999 40v568c-0 3.33301 13.333 16.666 40 39.999zM763.999 692.003c3.33301 0 16.667 -13.334 40 -40.001
v-568c0 -3.33301 -13.333 -16.666 -40 -39.999c-3.33301 0 -43.333 40 -120 120v408c0 3.33301 40 43.333 120 120zM196 160.002l407.999 -0.000976562c3.33301 0 43.333 -40 120 -120c0 -3.33301 -13.333 -16.666 -40 -39.999h-568c-3.33301 0 -16.666 13.333 -39.999 40
c0 3.33301 40 43.333 120 120z" />
    <glyph glyph-name="one" unicode="1" horiz-adv-x="608" 
d="M384 1428c3.33301 0 43.332 -39.999 119.999 -119.999v-456c0 -3.33301 -40 -43.333 -120 -120c-3.33301 0 -16.666 13.333 -39.999 40v616c0 3.33301 13.333 16.666 40 39.999zM239.999 1284l48.001 0.000976562c5.33301 -0.666992 8 -3.33398 8 -8.00098v-160
c0 -2.66699 -41.333 -44 -124 -124c-53.333 2.66699 -93.333 4 -120 4h-44c-5.33301 0 -8 2.66699 -8 8c3.33301 53.333 14 80 32 80c133.333 133.333 202.666 200 207.999 200zM464 696.002c3.33301 0 16.667 -13.334 40 -40.001v-616
c0 -3.33301 -13.333 -16.666 -40 -39.999c-3.33301 0 -43.333 40 -120 120v456c0 3.33301 40 43.333 120 120z" />
    <glyph glyph-name="two" unicode="2" 
d="M116 1428l568.001 0.000976562c3.33301 0 16.666 -13.333 39.999 -40c0 -3.33301 -40 -43.333 -120 -120h-408c-3.33301 0 -43.333 40 -120 120c0 3.33301 13.333 16.666 40 39.999zM764.001 1384c3.33301 0 16.667 -13.334 40 -40.001v-568
c0 -3.33301 -13.333 -16.666 -40 -39.999c-3.33301 0 -43.333 40 -120 120v408c0 3.33301 40 43.333 120 120zM160.002 792h472c3.33301 0 30 -26.667 80 -80v-4c0 -3.33301 -26.667 -30 -80 -80h-472c-3.33301 0 -30 26.667 -80 80v4c0 3.33301 26.667 30 80 80z
M40.002 692c3.33301 0 43.332 -39.999 119.999 -119.999v-408c0 -3.33301 -40 -43.333 -120 -120c-3.33301 0 -16.666 13.333 -39.999 40v568c0 3.33301 13.333 16.666 40 39.999zM200.001 160.001l407.999 -0.000976562c3.33301 0 43.333 -40 120 -120
c0 -3.33301 -13.333 -16.666 -40 -39.999h-568c-3.33301 0 -16.666 13.333 -39.999 40c0 3.33301 40 43.333 120 120z" />
    <glyph glyph-name="three" unicode="3" 
d="M40 1428l568.001 0.000976562c3.33301 0 16.666 -13.333 39.999 -40c0 -3.33301 -40 -43.333 -120 -120h-408c-3.33301 0 -43.333 40 -120 120c-0 3.33301 13.333 16.666 40 39.999zM688.001 1384c3.33301 0 16.667 -13.334 40 -40.001v-568
c0 -3.33301 -13.333 -16.666 -40 -39.999c-3.33301 0 -43.333 40 -120 120v408c0 3.33301 40 43.333 120 120zM96.002 800h472c3.33301 0 30 -26.667 80 -80v-4c0 -3.33301 -26.667 -30 -80 -80h-472c-3.33301 0 -30 26.667 -80 80v4c0 3.33301 26.667 30 80 80z
M688.002 696c3.33301 0 16.667 -13.334 40 -40.001v-568c0 -3.33301 -13.333 -16.666 -40 -39.999c-3.33301 0 -43.333 40 -120 120v408c0 3.33301 40 43.333 120 120zM124.003 159.999l407.999 -0.000976562c3.33301 0 43.333 -40 120 -120
c0 -3.33301 -13.333 -16.666 -40 -39.999h-568c-3.33301 0 -16.666 13.333 -39.999 40c0 3.33301 40 43.333 120 120z" />
    <glyph glyph-name="four" unicode="4" 
d="M40 1428c3.33301 0 43.332 -39.999 119.999 -119.999v-456c0 -3.33301 -40 -43.333 -120 -120c-3.33301 0 -16.666 13.333 -39.999 40v616c-0 3.33301 13.333 16.666 40 39.999zM763.999 1428c3.33301 0 16.667 -13.334 40 -40.001v-616
c0 -3.33301 -13.333 -16.666 -40 -39.999c-3.33301 0 -43.333 40 -120 120v456c0 3.33301 40 43.333 120 120zM172 792h472c3.33301 0 30 -26.667 80 -80v-4c0 -3.33301 -26.667 -30 -80 -80h-472c-3.33301 0 -30 26.667 -80 80v4c0 3.33301 26.667 30 80 80zM764 648
c3.33301 0 16.667 -13.334 40 -40.001v-568c0 -3.33301 -13.333 -16.666 -40 -39.999c-3.33301 0 -43.333 40 -120 120v408c0 3.33301 40 43.333 120 120z" />
    <glyph glyph-name="five" unicode="5" 
d="M120 1428l568.001 0.000976562c3.33301 0 16.666 -13.333 39.999 -40c0 -3.33301 -40 -43.333 -120 -120h-408c-3.33301 0 -43.333 40 -120 120c0 3.33301 13.333 16.666 40 39.999zM40.001 1384c3.33301 0 43.332 -39.999 119.999 -119.999v-408
c0 -3.33301 -40 -43.333 -120 -120c-3.33301 0 -16.666 13.333 -39.999 40v568c0 3.33301 13.333 16.666 40 39.999zM160 800.002h472c3.33301 0 30 -26.667 80 -80v-4c0 -3.33301 -26.667 -30 -80 -80h-472c-3.33301 0 -30 26.667 -80 80v4c0 3.33301 26.667 30 80 80z
M764 692.002c3.33301 0 16.667 -13.334 40 -40.001v-568c0 -3.33301 -13.333 -16.666 -40 -39.999c-3.33301 0 -43.333 40 -120 120v408c0 3.33301 40 43.333 120 120zM196.001 160.001l407.999 -0.000976562c3.33301 0 43.333 -40 120 -120
c0 -3.33301 -13.333 -16.666 -40 -39.999h-568c-3.33301 0 -16.666 13.333 -39.999 40c0 3.33301 40 43.333 120 120z" />
    <glyph glyph-name="six" unicode="6" 
d="M120 1428l568.001 0.000976562c3.33301 0 16.666 -13.333 39.999 -40c0 -3.33301 -40 -43.333 -120 -120h-408c-3.33301 0 -43.333 40 -120 120c0 3.33301 13.333 16.666 40 39.999zM40.001 1384c3.33301 0 43.332 -39.999 119.999 -119.999v-408
c0 -3.33301 -40 -43.333 -120 -120c-3.33301 0 -16.666 13.333 -39.999 40v568c0 3.33301 13.333 16.666 40 39.999zM160 800.002h472c3.33301 0 30 -26.667 80 -80v-4c0 -3.33301 -26.667 -30 -80 -80h-472c-3.33301 0 -30 26.667 -80 80v4c0 3.33301 26.667 30 80 80z
M40 696.002c3.33301 0 43.332 -39.999 119.999 -119.999v-408c0 -3.33301 -40 -43.333 -120 -120c-3.33301 0 -16.666 13.333 -39.999 40v568c-0 3.33301 13.333 16.666 40 39.999zM763.999 692.003c3.33301 0 16.667 -13.334 40 -40.001v-568
c0 -3.33301 -13.333 -16.666 -40 -39.999c-3.33301 0 -43.333 40 -120 120v408c0 3.33301 40 43.333 120 120zM196 160.002l407.999 -0.000976562c3.33301 0 43.333 -40 120 -120c0 -3.33301 -13.333 -16.666 -40 -39.999h-568c-3.33301 0 -16.666 13.333 -39.999 40
c0 3.33301 40 43.333 120 120z" />
    <glyph glyph-name="seven" unicode="7" 
d="M40 1428l568.001 0.000976562c3.33301 0 16.666 -13.333 39.999 -40c0 -3.33301 -40 -43.333 -120 -120h-408c-3.33301 0 -43.333 40 -120 120c-0 3.33301 13.333 16.666 40 39.999zM684.001 1388c3.33301 0 16.667 -13.334 40 -40.001v-568
c0 -3.33301 -13.333 -16.666 -40 -39.999c-3.33301 0 -43.333 40 -120 120v408c0 3.33301 40 43.333 120 120zM684.002 696c3.33301 0 16.667 -13.334 40 -40.001v-616c0 -3.33301 -13.333 -16.666 -40 -39.999c-3.33301 0 -43.333 40 -120 120v456
c0 3.33301 40 43.333 120 120z" />
    <glyph glyph-name="eight" unicode="8" 
d="M120 1428l568.001 0.000976562c3.33301 0 16.666 -13.333 39.999 -40c0 -3.33301 -40 -43.333 -120 -120h-408c-3.33301 0 -43.333 40 -120 120c0 3.33301 13.333 16.666 40 39.999zM764.001 1388c3.33301 0 16.667 -13.334 40 -40.001v-568
c0 -3.33301 -13.333 -16.666 -40 -39.999c-3.33301 0 -43.333 40 -120 120v408c0 3.33301 40 43.333 120 120zM40.002 1384c3.33301 0 43.332 -39.999 119.999 -119.999v-408c0 -3.33301 -40 -43.333 -120 -120c-3.33301 0 -16.666 13.333 -39.999 40v568
c0 3.33301 13.333 16.666 40 39.999zM160.001 800.001h472c3.33301 0 30 -26.667 80 -80v-4c0 -3.33301 -26.667 -30 -80 -80h-472c-3.33301 0 -30 26.667 -80 80v4c0 3.33301 26.667 30 80 80zM40.001 696.001c3.33301 0 43.332 -39.999 119.999 -119.999v-408
c0 -3.33301 -40 -43.333 -120 -120c-3.33301 0 -16.666 13.333 -39.999 40v568c0 3.33301 13.333 16.666 40 39.999zM764 692.002c3.33301 0 16.667 -13.334 40 -40.001v-568c0 -3.33301 -13.333 -16.666 -40 -39.999c-3.33301 0 -43.333 40 -120 120v408
c0 3.33301 40 43.333 120 120zM196.001 160.001l407.999 -0.000976562c3.33301 0 43.333 -40 120 -120c0 -3.33301 -13.333 -16.666 -40 -39.999h-568c-3.33301 0 -16.666 13.333 -39.999 40c0 3.33301 40 43.333 120 120z" />
    <glyph glyph-name="nine" unicode="9" 
d="M120 1428l568.001 0.000976562c3.33301 0 16.666 -13.333 39.999 -40c0 -3.33301 -40 -43.333 -120 -120h-408c-3.33301 0 -43.333 40 -120 120c0 3.33301 13.333 16.666 40 39.999zM40.001 1384c3.33301 0 43.332 -39.999 119.999 -119.999v-408
c0 -3.33301 -40 -43.333 -120 -120c-3.33301 0 -16.666 13.333 -39.999 40v568c0 3.33301 13.333 16.666 40 39.999zM764 1380c3.33301 0 16.667 -13.334 40 -40.001v-568c0 -3.33301 -13.333 -16.666 -40 -39.999c-3.33301 0 -43.333 40 -120 120v408
c0 3.33301 40 43.333 120 120zM172.001 792.001h472c3.33301 0 30 -26.667 80 -80v-4c0 -3.33301 -26.667 -30 -80 -80h-472c-3.33301 0 -30 26.667 -80 80v4c0 3.33301 26.667 30 80 80zM764.001 692.001c3.33301 0 16.667 -13.334 40 -40.001v-568
c0 -3.33301 -13.333 -16.666 -40 -39.999c-3.33301 0 -43.333 40 -120 120v408c0 3.33301 40 43.333 120 120zM196.002 160l407.999 -0.000976562c3.33301 0 43.333 -40 120 -120c0 -3.33301 -13.333 -16.666 -40 -39.999h-568c-3.33301 -0 -16.666 13.333 -39.999 40
c0 3.33301 40 43.333 120 120z" />
    <glyph glyph-name="colon" unicode=":" horiz-adv-x="295" 
d="M6 92v8c0 4 32 36 96 96h8c4 0 36 -32 96 -96v-8c0 -4 -32 -36 -96 -96h-8c-4 0 -36 32 -96 96zM10 1092v8c0 4 32 36 96 96h8c4 0 36 -32 96 -96v-8c0 -4 -32 -36 -96 -96h-8c-4 0 -36 32 -96 96z" />
    <glyph glyph-name="semicolon" unicode=";" horiz-adv-x="557" 
d="M216 100v-8c0 -4 -55.333 -101 -166 -291h-8c-4 0 -12.667 97 -26 291v8c0 4 32 36 96 96h8c4 0 36 -32 96 -96zM10 1092v8c0 4 32 36 96 96h8c4 0 36 -32 96 -96v-8c0 -4 -32 -36 -96 -96h-8c-4 0 -36 32 -96 96z" />
    <glyph glyph-name="semicolon" unicode="&#x37e;" horiz-adv-x="557" 
d="M216 100v-8c0 -4 -55.333 -101 -166 -291h-8c-4 0 -12.667 97 -26 291v8c0 4 32 36 96 96h8c4 0 36 -32 96 -96zM10 1092v8c0 4 32 36 96 96h8c4 0 36 -32 96 -96v-8c0 -4 -32 -36 -96 -96h-8c-4 0 -36 32 -96 96z" />
    <glyph glyph-name="less" unicode="&#x3c;" horiz-adv-x="694" 
d="M19 813c12.667 14.667 176.668 115.999 492.001 303.999c18 0 36.667 -5.33301 56 -16c-5.33301 -30.667 -17.333 -84 -36 -160c-2.66699 -5.33301 -121.334 -77.333 -356.001 -216c-100 24 -154.667 38.667 -164 44c5.33301 18.667 8 33.334 8 44.001zM179.001 648.999
l343.999 -208c6.66699 0 21.334 -53.333 44.001 -160c0 -13.333 -16 -20 -48 -20h-4c-10.667 0 -156 86.667 -436 260c-45.333 17.333 -68 45.333 -68 84c0 6 56 20.667 168 44z" />
    <glyph glyph-name="equal" unicode="=" horiz-adv-x="707" 
d="M89 974h472c3.33301 0 30 -26.667 80 -80v-4c0 -3.33301 -26.667 -30 -80 -80h-472c-3.33301 0 -30 26.667 -80 80v4c0 3.33301 26.667 30 80 80zM89 606l471.999 -0.000976562c3.33301 0 30 -26.667 80 -80v-4c0 -3.33301 -25.333 -28.666 -76 -75.999h-480
c-3.33301 0 -28.666 25.333 -75.999 76v4c0 3.33301 26.667 30 80 80z" />
    <glyph glyph-name="greater" unicode="&#x3e;" horiz-adv-x="698" 
d="M567 769c-9.33301 -5.33301 -63.999 -19.999 -163.999 -43.999c-234.667 138.667 -353.334 210.667 -356.001 216c-18.667 76 -30.667 129.333 -36 160c19.333 10.667 38 16 56 16c315.333 -188 479.333 -289.333 492 -304c0 -10.667 2.66699 -25.334 8 -44.001z
M567.001 605.001c0 -38.667 -22.668 -66.667 -68.001 -84c-280 -173.333 -425.333 -260 -436 -260h-4c-32 0 -48 6.66699 -48 20c22.667 106.667 37.334 160 44.001 160l344 208c112 -23.333 168 -38 168 -44z" />
    <glyph glyph-name="question" unicode="?" 
d="M40 1428l568.001 0.000976562c3.33301 0 16.666 -13.333 39.999 -40c0 -3.33301 -40 -43.333 -120 -120h-408c-3.33301 0 -43.333 40 -120 120c-0 3.33301 13.333 16.666 40 39.999zM688.001 1384c3.33301 0 16.667 -13.334 40 -40.001v-568
c0 -3.33301 -13.333 -16.666 -40 -39.999c-3.33301 0 -43.333 40 -120 120v408c0 3.33301 40 43.333 120 120zM96.002 800h472c3.33301 0 30 -26.667 80 -80v-4c0 -3.33301 -26.667 -30 -80 -80h-472c-3.33301 0 -30 26.667 -80 80v4c0 3.33301 26.667 30 80 80zM80.002 564
c3.33301 0 31.333 -28 84 -84v-200c0 -3.33301 -28 -31.333 -84 -84c-3.33301 0 -30 26.667 -80 80v208c0 3.33301 26.667 30 80 80zM76.002 156h4c3.33301 0 28.666 -25.333 75.999 -76v-4c0 -3.33301 -25.333 -28.666 -76 -75.999h-4
c-3.33301 0 -28.666 25.333 -75.999 76v4c0 3.33301 25.333 28.666 76 75.999z" />
    <glyph glyph-name="at" unicode="@" horiz-adv-x="902" 
d="M120 1428l568.001 0.000976562c3.33301 0 16.666 -13.333 39.999 -40c0 -3.33301 -40 -43.333 -120 -120h-408c-3.33301 0 -43.333 40 -120 120c0 3.33301 13.333 16.666 40 39.999zM764.001 1388c3.33301 0 16.667 -13.334 40 -40.001v-568
c0 -3.33301 -13.333 -16.666 -40 -39.999c-3.33301 0 -43.333 40 -120 120v408c0 3.33301 40 43.333 120 120zM40.002 1384c3.33301 0 43.332 -39.999 119.999 -119.999v-408c0 -3.33301 -40 -43.333 -120 -120c-3.33301 0 -16.666 13.333 -39.999 40v568
c0 3.33301 13.333 16.666 40 39.999zM296.001 1012h188c4 0 12 -8 24 -24c-46.667 -45.333 -70.667 -68 -72 -68h-96c-3.33301 0 -26 22.667 -68 68c0 4 8 12 24 24zM528.001 980.001h4c3.33301 0 10 -6.66699 20 -20v-192c0 -3.33301 -6.66699 -10 -20 -20h-4
c-3.33301 0 -26 22.667 -68 68v96c0 3.33301 22.667 26 68 68zM296.001 748.001h188c4 0 12 -8 24 -24c-24.667 -28 -48.667 -50.667 -72 -68h-96c-3.33301 0 -26 22.667 -68 68c0 4 8 12 24 24zM528.001 708.001c4 0 12 -8 24 -24v-188c0 -3.33301 -6.66699 -10 -20 -20h-4
c-3.33301 0 -26 22.667 -68 68v96c0 3.33301 22.667 26 68 68zM40.001 696.001c3.33301 0 43.332 -39.999 119.999 -119.999v-408c0 -3.33301 -40 -43.333 -120 -120c-3.33301 0 -16.666 13.333 -39.999 40v568c0 3.33301 13.333 16.666 40 39.999zM268 692.002h4
c3.33301 0 26 -22.667 68 -68v-96c0 -3.33301 -22.667 -26 -68 -68c-4 0 -12 8 -24 24v188c0 3.33301 6.66699 10 20 20zM764 692.002c3.33301 0 16.667 -13.334 40 -40.001v-568c0 -3.33301 -13.333 -16.666 -40 -39.999c-3.33301 0 -43.333 40 -120 120v408
c0 3.33301 40 43.333 120 120zM356.001 512.001h96c1.33301 0 25.333 -22.667 72 -68c0 -4 -8 -12 -24 -24h-188c-4 0 -12 8 -24 24c0 3.33301 22.667 26 68 68zM196.001 160.001l407.999 -0.000976562c3.33301 0 43.333 -40 120 -120
c0 -3.33301 -13.333 -16.666 -40 -39.999h-568c-3.33301 0 -16.666 13.333 -39.999 40c0 3.33301 40 43.333 120 120z" />
    <glyph glyph-name="A" unicode="A" 
d="M120 1428l568.001 0.000976562c3.33301 0 16.666 -13.333 39.999 -40c0 -3.33301 -40 -43.333 -120 -120h-408c-3.33301 0 -43.333 40 -120 120c0 3.33301 13.333 16.666 40 39.999zM764.001 1388c3.33301 0 16.667 -13.334 40 -40.001v-568
c0 -3.33301 -13.333 -16.666 -40 -39.999c-3.33301 0 -43.333 40 -120 120v408c0 3.33301 40 43.333 120 120zM40.002 1384c3.33301 0 43.332 -39.999 119.999 -119.999v-408c0 -3.33301 -40 -43.333 -120 -120c-3.33301 0 -16.666 13.333 -39.999 40v568
c0 3.33301 13.333 16.666 40 39.999zM160.001 800.001h472c3.33301 0 30 -26.667 80 -80v-4c0 -3.33301 -26.667 -30 -80 -80h-472c-3.33301 0 -30 26.667 -80 80v4c0 3.33301 26.667 30 80 80zM40.001 696.001c3.33301 0 43.332 -39.999 119.999 -119.999v-456
c0 -3.33301 -40 -43.333 -120 -120c-3.33301 0 -16.666 13.333 -39.999 40v616c0 3.33301 13.333 16.666 40 39.999zM764 696.002c3.33301 0 16.667 -13.334 40 -40.001v-616c0 -3.33301 -13.333 -16.666 -40 -39.999c-3.33301 0 -43.333 40 -120 120v456
c0 3.33301 40 43.333 120 120z" />
    <glyph glyph-name="B" unicode="B" 
d="M40 1428h648.001c3.33301 0 16.666 -13.333 39.999 -40c0 -3.33301 -40 -43.333 -120 -120h-408c-96.667 90.667 -150 142.667 -160 156v4zM0.000976562 1420h3.99902c3.33301 0 55.333 -52 156 -156v-408c0 -3.33301 -40 -43.333 -120 -120
c-3.33301 0 -16.666 13.333 -39.999 40v644zM764 1388c3.33301 0 16.667 -13.334 40 -40.001v-568c0 -3.33301 -13.333 -16.666 -40 -39.999c-3.33301 0 -43.333 40 -120 120v408c0 3.33301 40 43.333 120 120zM160.001 799.999h472c3.33301 0 30 -26.667 80 -80v-4
c0 -3.33301 -26.667 -30 -80 -80h-472c-3.33301 0 -30 26.667 -80 80v4c0 3.33301 26.667 30 80 80zM40.001 695.999c3.33301 0 43.333 -39.999 120 -119.999v-408c-90.667 -96.667 -142.667 -150 -156 -160h-4v648c0 3.33301 13.333 16.666 40 39.999zM764.001 692
c3.33301 0 16.667 -13.334 40 -40.001v-568c0 -3.33301 -13.333 -16.666 -40 -39.999c-3.33301 0 -43.333 40 -120 120v408c0 3.33301 40 43.333 120 120zM196.002 159.999l408 -0.000976562c3.33301 0 43.333 -40 120 -120c0 -3.33301 -13.333 -16.666 -40 -39.999h-640v4
c87.333 93.333 138 145.333 152 156z" />
    <glyph glyph-name="C" unicode="C" 
d="M120 1428l568.001 0.000976562c3.33301 0 16.666 -13.333 39.999 -40c0 -3.33301 -40 -43.333 -120 -120h-408c-3.33301 0 -43.333 40 -120 120c0 3.33301 13.333 16.666 40 39.999zM40.001 1384c3.33301 0 43.332 -39.999 119.999 -119.999v-408
c0 -3.33301 -40 -43.333 -120 -120c-3.33301 0 -16.666 13.333 -39.999 40v568c0 3.33301 13.333 16.666 40 39.999zM40 696.002c3.33301 0 43.332 -39.999 119.999 -119.999v-408c0 -3.33301 -40 -43.333 -120 -120c-3.33301 0 -16.666 13.333 -39.999 40v568
c-0 3.33301 13.333 16.666 40 39.999zM195.999 160.003l407.999 -0.000976562c3.33301 0 43.333 -40 120 -120c0 -3.33301 -13.333 -16.666 -40 -39.999h-568c-3.33301 0 -16.666 13.333 -39.999 40c0 3.33301 40 43.333 120 120z" />
    <glyph glyph-name="D" unicode="D" 
d="M40 1428h648.001c3.33301 0 16.666 -13.333 39.999 -40c0 -3.33301 -40 -43.333 -120 -120h-408c-96.667 90.667 -150 142.667 -160 156v4zM0.000976562 1420h3.99902c3.33301 0 55.333 -52 156 -156v-408c0 -3.33301 -40 -43.333 -120 -120
c-3.33301 0 -16.666 13.333 -39.999 40v644zM764 1388c3.33301 0 16.667 -13.334 40 -40.001v-568c0 -3.33301 -13.333 -16.666 -40 -39.999c-3.33301 0 -43.333 40 -120 120v408c0 3.33301 40 43.333 120 120zM40.001 695.999c3.33301 0 43.333 -39.999 120 -119.999v-408
c-90.667 -96.667 -142.667 -150 -156 -160h-4v648c0 3.33301 13.333 16.666 40 39.999zM764.001 692c3.33301 0 16.667 -13.334 40 -40.001v-568c0 -3.33301 -13.333 -16.666 -40 -39.999c-3.33301 0 -43.333 40 -120 120v408c0 3.33301 40 43.333 120 120zM196.002 159.999
l408 -0.000976562c3.33301 0 43.333 -40 120 -120c0 -3.33301 -13.333 -16.666 -40 -39.999h-640v4c87.333 93.333 138 145.333 152 156z" />
    <glyph glyph-name="E" unicode="E" 
d="M120 1428l568.001 0.000976562c3.33301 0 16.666 -13.333 39.999 -40c0 -3.33301 -40 -43.333 -120 -120h-408c-3.33301 0 -43.333 40 -120 120c0 3.33301 13.333 16.666 40 39.999zM40.001 1384c3.33301 0 43.332 -39.999 119.999 -119.999v-408
c0 -3.33301 -40 -43.333 -120 -120c-3.33301 0 -16.666 13.333 -39.999 40v568c0 3.33301 13.333 16.666 40 39.999zM160 800.002h472c3.33301 0 30 -26.667 80 -80v-4c0 -3.33301 -26.667 -30 -80 -80h-472c-3.33301 0 -30 26.667 -80 80v4c0 3.33301 26.667 30 80 80z
M40 696.002c3.33301 0 43.332 -39.999 119.999 -119.999v-408c0 -3.33301 -40 -43.333 -120 -120c-3.33301 0 -16.666 13.333 -39.999 40v568c-0 3.33301 13.333 16.666 40 39.999zM195.999 160.003l407.999 -0.000976562c3.33301 0 43.333 -40 120 -120
c0 -3.33301 -13.333 -16.666 -40 -39.999h-568c-3.33301 0 -16.666 13.333 -39.999 40c0 3.33301 40 43.333 120 120z" />
    <glyph glyph-name="F" unicode="F" 
d="M120 1428l568.001 0.000976562c3.33301 0 16.666 -13.333 39.999 -40c0 -3.33301 -40 -43.333 -120 -120h-408c-3.33301 0 -43.333 40 -120 120c0 3.33301 13.333 16.666 40 39.999zM40.001 1384c3.33301 0 43.332 -39.999 119.999 -119.999v-408
c0 -3.33301 -40 -43.333 -120 -120c-3.33301 0 -16.666 13.333 -39.999 40v568c0 3.33301 13.333 16.666 40 39.999zM160 800.002h472c3.33301 0 30 -26.667 80 -80v-4c0 -3.33301 -26.667 -30 -80 -80h-472c-3.33301 0 -30 26.667 -80 80v4c0 3.33301 26.667 30 80 80z
M40 696.002c3.33301 0 43.332 -39.999 119.999 -119.999v-456c0 -3.33301 -40 -43.333 -120 -120c-3.33301 0 -16.666 13.333 -39.999 40v616c-0 3.33301 13.333 16.666 40 39.999z" />
    <glyph glyph-name="G" unicode="G" 
d="M120 1428l568.001 0.000976562c3.33301 0 16.666 -13.333 39.999 -40c0 -3.33301 -40 -43.333 -120 -120h-408c-3.33301 0 -43.333 40 -120 120c0 3.33301 13.333 16.666 40 39.999zM40.001 1384c3.33301 0 43.332 -39.999 119.999 -119.999v-408
c0 -3.33301 -40 -43.333 -120 -120c-3.33301 0 -16.666 13.333 -39.999 40v568c0 3.33301 13.333 16.666 40 39.999zM428 800.002h204c3.33301 0 30 -26.667 80 -80v-4c0 -3.33301 -26.667 -30 -80 -80h-204c-3.33301 0 -30 26.667 -80 80v4c0 3.33301 26.667 30 80 80z
M40 696.002c3.33301 0 43.332 -39.999 119.999 -119.999v-408c0 -3.33301 -40 -43.333 -120 -120c-3.33301 0 -16.666 13.333 -39.999 40v568c-0 3.33301 13.333 16.666 40 39.999zM763.999 692.003c3.33301 0 16.667 -13.334 40 -40.001v-568
c0 -3.33301 -13.333 -16.666 -40 -39.999c-3.33301 0 -43.333 40 -120 120v408c0 3.33301 40 43.333 120 120zM196 160.002l407.999 -0.000976562c3.33301 0 43.333 -40 120 -120c0 -3.33301 -13.333 -16.666 -40 -39.999h-568c-3.33301 0 -16.666 13.333 -39.999 40
c0 3.33301 40 43.333 120 120z" />
    <glyph glyph-name="H" unicode="H" 
d="M40 1428c3.33301 0 43.332 -39.999 119.999 -119.999v-456c0 -3.33301 -40 -43.333 -120 -120c-3.33301 0 -16.666 13.333 -39.999 40v616c-0 3.33301 13.333 16.666 40 39.999zM763.999 1428c3.33301 0 16.667 -13.334 40 -40.001v-616
c0 -3.33301 -13.333 -16.666 -40 -39.999c-3.33301 0 -43.333 40 -120 120v456c0 3.33301 40 43.333 120 120zM160 800h472c3.33301 0 30 -26.667 80 -80v-4c0 -3.33301 -26.667 -30 -80 -80h-472c-3.33301 0 -30 26.667 -80 80v4c0 3.33301 26.667 30 80 80zM40 696
c3.33301 0 43.332 -39.999 119.999 -119.999v-456c0 -3.33301 -40 -43.333 -120 -120c-3.33301 0 -16.666 13.333 -39.999 40v616c-0 3.33301 13.333 16.666 40 39.999zM763.999 696.001c3.33301 0 16.667 -13.334 40 -40.001v-616c0 -3.33301 -13.333 -16.666 -40 -39.999
c-3.33301 0 -43.333 40 -120 120v456c0 3.33301 40 43.333 120 120z" />
    <glyph glyph-name="I" unicode="I" horiz-adv-x="279" 
d="M40 1428c3.33301 0 43.332 -39.999 119.999 -119.999v-456c0 -3.33301 -40 -43.333 -120 -120c-3.33301 0 -16.666 13.333 -39.999 40v616c-0 3.33301 13.333 16.666 40 39.999zM119.999 696.001c3.33301 0 16.667 -13.334 40 -40.001v-616
c0 -3.33301 -13.333 -16.666 -40 -39.999c-3.33301 0 -43.333 40 -120 120v456c0 3.33301 40 43.333 120 120z" />
    <glyph glyph-name="J" unicode="J" 
d="M764 1428c3.33301 0 16.667 -13.334 40 -40.001v-616c0 -3.33301 -13.333 -16.666 -40 -39.999c-3.33301 0 -43.333 40 -120 120v456c0 3.33301 40 43.333 120 120zM40.001 695.999c3.33301 0 43.332 -39.999 119.999 -119.999v-408c0 -3.33301 -40 -43.333 -120 -120
c-3.33301 0 -16.666 13.333 -39.999 40v568c0 3.33301 13.333 16.666 40 39.999zM764 692c3.33301 0 16.667 -13.334 40 -40.001v-568c0 -3.33301 -13.333 -16.666 -40 -39.999c-3.33301 0 -43.333 40 -120 120v408c0 3.33301 40 43.333 120 120zM196.001 159.999
l407.999 -0.000976562c3.33301 0 43.333 -40 120 -120c0 -3.33301 -13.333 -16.666 -40 -39.999h-568c-3.33301 0 -16.666 13.333 -39.999 40c0 3.33301 40 43.333 120 120z" />
    <glyph glyph-name="K" unicode="K" 
d="M40 1428c3.33301 0 43.332 -39.999 119.999 -119.999v-456c0 -3.33301 -40 -43.333 -120 -120c-3.33301 0 -16.666 13.333 -39.999 40v616c-0 3.33301 13.333 16.666 40 39.999zM635.999 1244l160 0.000976562c5.33301 -0.666992 8 -3.33398 8 -8.00098v-48l-344 -336
h-160c-5.33301 0 -8 2.66699 -8 8v48zM159.999 800.002h472c3.33301 0 30 -26.667 80 -80v-4c0 -3.33301 -26.667 -30 -80 -80h-472c-3.33301 0 -30 26.667 -80 80v4c0 3.33301 26.667 30 80 80zM39.999 696.002c3.33301 0 43.332 -39.999 119.999 -119.999v-456
c0 -3.33301 -40 -43.333 -120 -120c-3.33301 0 -16.666 13.333 -39.999 40v616c0 3.33301 13.333 16.666 40 39.999zM763.998 696.003c3.33301 0 16.667 -13.334 40 -40.001v-616c0 -3.33301 -13.333 -16.666 -40 -39.999c-3.33301 0 -43.333 40 -120 120v456
c0 3.33301 40 43.333 120 120z" />
    <glyph glyph-name="L" unicode="L" 
d="M0 1424h3.99902c4 0 56 -53.333 156 -160v-408c0 -3.33301 -40 -43.333 -120 -120c-3.33301 0 -16.666 13.333 -39.999 40v648zM39.999 696c3.33301 0 43.332 -39.999 119.999 -119.999v-408c0 -3.33301 -40 -43.333 -120 -120c-3.33301 0 -16.666 13.333 -39.999 40v568
c0 3.33301 13.333 16.666 40 39.999zM195.998 160.001l407.999 -0.000976562c3.33301 0 43.333 -40 120 -120c0 -3.33301 -13.333 -16.666 -40 -39.999h-568c-3.33301 0 -16.666 13.333 -39.999 40c0 3.33301 40 43.333 120 120z" />
    <glyph glyph-name="M" unicode="M" horiz-adv-x="1635" 
d="M120 1428l568.001 0.000976562c3.33301 0 16.666 -13.333 39.999 -40c0 -3.33301 -40 -43.333 -120 -120h-408c-3.33301 0 -43.333 40 -120 120c0 3.33301 13.333 16.666 40 39.999zM844.001 1428l568.001 0.000976562c3.33301 0 16.666 -13.333 39.999 -40
c0 -3.33301 -40 -43.333 -120 -120h-408c-3.33301 0 -43.333 40 -120 120c0 3.33301 13.333 16.666 40 39.999zM764.002 1388c3.33301 0 16.667 -13.334 40 -40.001v-568c0 -3.33301 -13.333 -16.666 -40 -39.999c-3.33301 0 -43.333 40 -120 120v408
c0 3.33301 40 43.333 120 120zM1488 1388c3.33301 0 16.667 -13.334 40 -40.001v-568c0 -3.33301 -13.333 -16.666 -40 -39.999c-3.33301 0 -43.333 40 -120 120v408c0 3.33301 40 43.333 120 120zM40.0039 1384c3.33301 0 43.332 -39.999 119.999 -119.999v-408
c0 -3.33301 -40 -43.333 -120 -120c-3.33301 0 -16.666 13.333 -39.999 40v568c0 3.33301 13.333 16.666 40 39.999zM120.003 696.001c3.33301 0 16.667 -13.334 40 -40.001v-616c0 -3.33301 -13.333 -16.666 -40 -39.999c-3.33301 0 -43.333 40 -120 120v456
c0 3.33301 40 43.333 120 120zM764.004 696c3.33301 0 16.667 -13.334 40 -40.001v-616c0 -3.33301 -13.333 -16.666 -40 -39.999c-3.33301 0 -43.333 40 -120 120v456c0 3.33301 40 43.333 120 120zM1408 695.999c3.33301 0 43.332 -39.999 119.999 -119.999v-456
c0 -3.33301 -40 -43.333 -120 -120c-3.33301 -0 -16.666 13.333 -39.999 40v616c0 3.33301 13.333 16.666 40 39.999z" />
    <glyph glyph-name="N" unicode="N" 
d="M40 1428c3.33301 0 43.332 -39.999 119.999 -119.999v-456c0 -3.33301 -40 -43.333 -120 -120c-3.33301 0 -16.666 13.333 -39.999 40v616c-0 3.33301 13.333 16.666 40 39.999zM763.999 1428c3.33301 0 16.667 -13.334 40 -40.001v-616
c0 -3.33301 -13.333 -16.666 -40 -39.999c-3.33301 0 -43.333 40 -120 120v456c0 3.33301 40 43.333 120 120zM204 1264l47.999 0.000976562c51.333 -42.667 139.333 -129.334 264 -260.001c7.33301 0 35.333 -26.667 84 -80v-160c0 -5.33301 -2.66699 -8 -8 -8h-48
c-2.66699 0 -4 1.33301 -4 4l-8 -4l-336 340v160c0.666992 5.33301 3.33398 8 8.00098 8zM39.999 696.001c3.33301 0 43.332 -39.999 119.999 -119.999v-456c0 -3.33301 -40 -43.333 -120 -120c-3.33301 0 -16.666 13.333 -39.999 40v616c0 3.33301 13.333 16.666 40 39.999
zM763.998 696.002c3.33301 0 16.667 -13.334 40 -40.001v-616c0 -3.33301 -13.333 -16.666 -40 -39.999c-3.33301 0 -43.333 40 -120 120v456c0 3.33301 40 43.333 120 120z" />
    <glyph glyph-name="O" unicode="O" 
d="M120 1428l568.001 0.000976562c3.33301 0 16.666 -13.333 39.999 -40c0 -3.33301 -40 -43.333 -120 -120h-408c-3.33301 0 -43.333 40 -120 120c0 3.33301 13.333 16.666 40 39.999zM764.001 1388c3.33301 0 16.667 -13.334 40 -40.001v-568
c0 -3.33301 -13.333 -16.666 -40 -39.999c-3.33301 0 -43.333 40 -120 120v408c0 3.33301 40 43.333 120 120zM40.002 1384c3.33301 0 43.332 -39.999 119.999 -119.999v-408c0 -3.33301 -40 -43.333 -120 -120c-3.33301 0 -16.666 13.333 -39.999 40v568
c0 3.33301 13.333 16.666 40 39.999zM40.001 696.001c3.33301 0 43.332 -39.999 119.999 -119.999v-408c0 -3.33301 -40 -43.333 -120 -120c-3.33301 0 -16.666 13.333 -39.999 40v568c0 3.33301 13.333 16.666 40 39.999zM764 692.002c3.33301 0 16.667 -13.334 40 -40.001
v-568c0 -3.33301 -13.333 -16.666 -40 -39.999c-3.33301 0 -43.333 40 -120 120v408c0 3.33301 40 43.333 120 120zM196.001 160.001l407.999 -0.000976562c3.33301 0 43.333 -40 120 -120c0 -3.33301 -13.333 -16.666 -40 -39.999h-568
c-3.33301 0 -16.666 13.333 -39.999 40c0 3.33301 40 43.333 120 120z" />
    <glyph glyph-name="P" unicode="P" 
d="M120 1428l568.001 0.000976562c3.33301 0 16.666 -13.333 39.999 -40c0 -3.33301 -40 -43.333 -120 -120h-408c-3.33301 0 -43.333 40 -120 120c0 3.33301 13.333 16.666 40 39.999zM764.001 1388c3.33301 0 16.667 -13.334 40 -40.001v-568
c0 -3.33301 -13.333 -16.666 -40 -39.999c-3.33301 0 -43.333 40 -120 120v408c0 3.33301 40 43.333 120 120zM40.002 1384c3.33301 0 43.332 -39.999 119.999 -119.999v-408c0 -3.33301 -40 -43.333 -120 -120c-3.33301 0 -16.666 13.333 -39.999 40v568
c0 3.33301 13.333 16.666 40 39.999zM160.001 800.001h472c3.33301 0 30 -26.667 80 -80v-4c0 -3.33301 -26.667 -30 -80 -80h-472c-3.33301 0 -30 26.667 -80 80v4c0 3.33301 26.667 30 80 80zM40.001 696.001c3.33301 0 43.332 -39.999 119.999 -119.999v-456
c0 -3.33301 -40 -43.333 -120 -120c-3.33301 0 -16.666 13.333 -39.999 40v616c0 3.33301 13.333 16.666 40 39.999z" />
    <glyph glyph-name="Q" unicode="Q" 
d="M120 1428l568.001 0.000976562c3.33301 0 16.666 -13.333 39.999 -40c0 -3.33301 -40 -43.333 -120 -120h-408c-3.33301 0 -43.333 40 -120 120c0 3.33301 13.333 16.666 40 39.999zM764.001 1388c3.33301 0 16.667 -13.334 40 -40.001v-568
c0 -3.33301 -13.333 -16.666 -40 -39.999c-3.33301 0 -43.333 40 -120 120v408c0 3.33301 40 43.333 120 120zM40.002 1384c3.33301 0 43.332 -39.999 119.999 -119.999v-408c0 -3.33301 -40 -43.333 -120 -120c-3.33301 0 -16.666 13.333 -39.999 40v568
c0 3.33301 13.333 16.666 40 39.999zM40.001 696.001c3.33301 0 43.332 -39.999 119.999 -119.999v-408c0 -3.33301 -40 -43.333 -120 -120c-3.33301 0 -16.666 13.333 -39.999 40v568c0 3.33301 13.333 16.666 40 39.999zM764 692.002c3.33301 0 16.667 -13.334 40 -40.001
v-568c0 -3.33301 -13.333 -16.666 -40 -39.999c-3.33301 0 -43.333 40 -120 120v408c0 3.33301 40 43.333 120 120zM400.001 356.001h4c3.33301 0 30 -26.667 80 -80v-68c0 -5.33301 -2.66699 -8 -8 -8h-148c-5.33301 0 -8 2.66699 -8 8v68c0 3.33301 26.667 30 80 80z
M196.001 160.001l407.999 -0.000976562c3.33301 0 43.333 -40 120 -120c0 -3.33301 -13.333 -16.666 -40 -39.999h-568c-3.33301 0 -16.666 13.333 -39.999 40c0 3.33301 40 43.333 120 120zM328 -40l147.999 0.000976562c5.33301 -0.666992 8 -3.33398 8 -8.00098v-72
c0 -3.33301 -26.667 -30 -80 -80h-4c-3.33301 0 -30 26.667 -80 80v72c0.666992 5.33301 3.33398 8 8.00098 8z" />
    <glyph glyph-name="R" unicode="R" 
d="M120 1428l568.001 0.000976562c3.33301 0 16.666 -13.333 39.999 -40c0 -3.33301 -40 -43.333 -120 -120h-408c-3.33301 0 -43.333 40 -120 120c0 3.33301 13.333 16.666 40 39.999zM764.001 1388c3.33301 0 16.667 -13.334 40 -40.001v-568
c0 -3.33301 -13.333 -16.666 -40 -39.999c-3.33301 0 -43.333 40 -120 120v408c0 3.33301 40 43.333 120 120zM40.002 1384c3.33301 0 43.332 -39.999 119.999 -119.999v-408c0 -3.33301 -40 -43.333 -120 -120c-3.33301 0 -16.666 13.333 -39.999 40v568
c0 3.33301 13.333 16.666 40 39.999zM160.001 800.001h472c3.33301 0 30 -26.667 80 -80v-4c0 -3.33301 -26.667 -30 -80 -80h-472c-3.33301 0 -30 26.667 -80 80v4c0 3.33301 26.667 30 80 80zM40.001 696.001c3.33301 0 43.332 -39.999 119.999 -119.999v-456
c0 -3.33301 -40 -43.333 -120 -120c-3.33301 0 -16.666 13.333 -39.999 40v616c0 3.33301 13.333 16.666 40 39.999zM440 596.002l115.999 0.00195312c56 -28.667 104 -115.334 144 -260.001c10.667 -22.667 45.334 -117.334 104.001 -284.001
c-13.333 -26.667 -20 -42.667 -20 -48h-4c-109.333 39.333 -164 71.333 -164 96c-80 227.333 -141.333 391.333 -184 492z" />
    <glyph glyph-name="S" unicode="S" 
d="M120 1428l568.001 0.000976562c3.33301 0 16.666 -13.333 39.999 -40c0 -3.33301 -40 -43.333 -120 -120h-408c-3.33301 0 -43.333 40 -120 120c0 3.33301 13.333 16.666 40 39.999zM40.001 1384c3.33301 0 43.332 -39.999 119.999 -119.999v-408
c0 -3.33301 -40 -43.333 -120 -120c-3.33301 0 -16.666 13.333 -39.999 40v568c0 3.33301 13.333 16.666 40 39.999zM160 800.002h472c3.33301 0 30 -26.667 80 -80v-4c0 -3.33301 -26.667 -30 -80 -80h-472c-3.33301 0 -30 26.667 -80 80v4c0 3.33301 26.667 30 80 80z
M764 692.002c3.33301 0 16.667 -13.334 40 -40.001v-568c0 -3.33301 -13.333 -16.666 -40 -39.999c-3.33301 0 -43.333 40 -120 120v408c0 3.33301 40 43.333 120 120zM196.001 160.001l407.999 -0.000976562c3.33301 0 43.333 -40 120 -120
c0 -3.33301 -13.333 -16.666 -40 -39.999h-568c-3.33301 0 -16.666 13.333 -39.999 40c0 3.33301 40 43.333 120 120z" />
    <glyph glyph-name="T" unicode="T" 
d="M40 1428l724.001 0.000976562c3.33301 0 16.666 -13.333 39.999 -40c0 -3.33301 -40 -43.333 -120 -120h-564c-3.33301 0 -43.333 40 -120 120c-0 3.33301 13.333 16.666 40 39.999zM388.001 1196c3.33301 0 43.332 -39.999 119.999 -119.999v-324
c0 -3.33301 -40 -43.333 -120 -120c-3.33301 0 -16.666 13.333 -39.999 40v484c0 3.33301 13.333 16.666 40 39.999zM468 560.002c3.33301 0 16.667 -13.334 40 -40.001v-480c0 -3.33301 -13.333 -16.666 -40 -39.999c-3.33301 0 -43.333 40 -120 120v320
c0 3.33301 40 43.333 120 120z" />
    <glyph glyph-name="U" unicode="U" 
d="M40 1428c3.33301 0 43.332 -39.999 119.999 -119.999v-456c0 -3.33301 -40 -43.333 -120 -120c-3.33301 0 -16.666 13.333 -39.999 40v616c-0 3.33301 13.333 16.666 40 39.999zM763.999 1428c3.33301 0 16.667 -13.334 40 -40.001v-616
c0 -3.33301 -13.333 -16.666 -40 -39.999c-3.33301 0 -43.333 40 -120 120v456c0 3.33301 40 43.333 120 120zM40 692c3.33301 0 43.332 -39.999 119.999 -119.999v-408c0 -3.33301 -40 -43.333 -120 -120c-3.33301 0 -16.666 13.333 -39.999 40v568
c-0 3.33301 13.333 16.666 40 39.999zM763.999 688.001c3.33301 0 16.667 -13.334 40 -40.001v-568c0 -3.33301 -13.333 -16.666 -40 -39.999c-3.33301 0 -43.333 40 -120 120v408c0 3.33301 40 43.333 120 120zM200 160l407.999 -0.000976562
c3.33301 0 43.333 -40 120 -120c0 -3.33301 -13.333 -16.666 -40 -39.999h-568c-3.33301 -0 -16.666 13.333 -39.999 40c0 3.33301 40 43.333 120 120z" />
    <glyph glyph-name="V" unicode="V" 
d="M40 1428c3.33301 0 43.332 -39.999 119.999 -119.999v-600c0 -3.33301 -40 -43.333 -120 -120c-3.33301 0 -16.666 13.333 -39.999 40v760c-0 3.33301 13.333 16.666 40 39.999zM755.999 1428l8 -0.000976562c3.33301 0 15.333 -12 36 -36v-748
c0 -3.33301 -13.333 -16.666 -40 -39.999c-3.33301 0 -43.333 40 -120 120v588c0 3.33301 38.667 42 116 116zM15.999 556c102.667 -24 158.668 -38.667 168.001 -44c10 -20.667 79.333 -132.667 208 -336c-20.667 -112 -34 -168 -40 -168h-4c-35.333 0 -58 14.667 -68 44
c-20.667 28.667 -114 178 -280 448c5.33301 28 10.666 46.667 15.999 56zM788 544c8 -26.667 12 -46.668 12 -60.001l-304 -476c-26.667 -5.33301 -42.667 -8 -48 -8c-6.66699 12 -20 66.667 -40 164c138.667 226.667 210.667 341.334 216 344.001c91.333 24 146 36 164 36z
" />
    <glyph glyph-name="W" unicode="W" horiz-adv-x="1540" 
d="M40 1444c3.33301 0 43.332 -39.999 119.999 -119.999v-600c0 -3.33301 -40 -43.333 -120 -120c-3.33301 0 -16.666 13.333 -39.999 40v760c-0 3.33301 13.333 16.666 40 39.999zM759.999 1444c3.33301 0 16.666 -13.333 39.999 -40v-680
c0 -3.33301 -40 -43.333 -120 -120c-3.33301 0 -16.666 13.333 -39.999 40v680c0 3.33301 40 43.333 120 120zM1400 1444c3.33301 0 16.667 -13.334 40 -40.001v-760c0 -3.33301 -13.333 -16.666 -40 -39.999c-3.33301 0 -43.333 40 -120 120v600
c0 3.33301 40 43.333 120 120zM16 556c102.667 -24 158.668 -38.667 168.001 -44c10 -20.667 79.333 -132.667 208 -336c-20.667 -112 -34 -168 -40 -168h-4c-35.333 0 -58 14.667 -68 44c-20.667 28.667 -114 178 -280 448c5.33301 28 10.666 46.667 15.999 56z
M788.001 544l4 -8.00098v-8c-79.333 -170 -170 -332.667 -272 -488c-10 -26.667 -34 -40 -72 -40c-6.66699 12 -20 66.667 -40 164c138.667 226.667 210.667 341.334 216 344.001c91.333 24 146 36 164 36zM1428 543.999c8 -26.667 12 -46.668 12 -60.001l-304 -476
c-26.667 -5.33301 -42.667 -8 -48 -8c-6.66699 12 -20 66.667 -40 164c138.667 226.667 210.667 341.334 216 344.001c91.333 24 146 36 164 36zM836.001 483.998c6.66699 -6 72.001 -108.667 196.001 -308c-20.667 -112 -34 -168 -40 -168h-4c-35.333 0 -58 14.667 -68 44
l-172 272c53.333 104 82.666 157.333 87.999 160z" />
    <glyph glyph-name="X" unicode="X" 
d="M16 1428c114.667 -25.333 171.999 -44 171.999 -56l200 -328c-21.333 -104 -34.666 -160 -39.999 -168c-45.333 8 -68 21.333 -68 40l-280 452c-0 20.667 5.33301 40.667 16 60zM787.999 1428c5.33301 -9.33301 10.667 -28 16 -56
c-189.333 -312 -289.333 -473.333 -300 -484c-7.33301 0 -23.333 -4 -48 -12c-4.66699 0 -18 56 -40 168c137.333 228 208 342.667 212 344zM200 792h480c3.33301 0 16.666 -13.333 39.999 -40c0 -3.33301 -40 -43.333 -120 -120h-480c-3.33301 0 -16.666 13.333 -39.999 40
c0 3.33301 40 43.333 120 120zM348 548c5.33301 -6 18.666 -63.333 39.999 -172c-130.667 -210.667 -202.667 -324 -216 -340c-89.333 -24 -142.666 -36 -159.999 -36c-8 27.333 -12 46 -12 56c180.667 296.667 280.667 456.667 300 480zM456 548
c48 -9.33301 72 -25.334 72 -48.001l276 -448c-4.66699 -34.667 -12.667 -52 -24 -52c-112 20 -168 40 -168 60c-111.333 178 -176.666 286 -195.999 324c21.333 104.667 34.666 159.334 39.999 164.001z" />
    <glyph glyph-name="Y" unicode="Y" 
d="M40 1428c3.33301 0 43.332 -39.999 119.999 -119.999v-168c0 -3.33301 -40 -43.333 -120 -120c-3.33301 0 -16.666 13.333 -39.999 40v328c-0 3.33301 13.333 16.666 40 39.999zM759.999 1428c3.33301 0 16.667 -13.334 40 -40.001v-328
c0 -3.33301 -13.333 -16.666 -40 -39.999c-3.33301 0 -43.333 40 -120 120v168c0 3.33301 40 43.333 120 120zM16 988c102.667 -24 158.668 -38.667 168.001 -44c10 -20.667 79.333 -132.667 208 -336c-20.667 -112 -34 -168 -40 -168h-4c-35.333 0 -58 14.667 -68 44
c-20.667 28.667 -114 178 -280 448c5.33301 28 10.666 46.667 15.999 56zM788.001 976c8 -26.667 12 -46.668 12 -60.001l-304 -476c-26.667 -5.33301 -42.667 -8 -48 -8c-6.66699 12 -20 66.667 -40 164c138.667 226.667 210.667 341.334 216 344.001
c91.333 24 146 36 164 36zM424.001 407.999c3.33301 0 16.667 -13.334 40 -40.001v-328c0 -3.33301 -13.333 -16.666 -40 -39.999c-3.33301 0 -43.333 40 -120 120v168c0 3.33301 40 43.333 120 120z" />
    <glyph glyph-name="Z" unicode="Z" horiz-adv-x="901" 
d="M40 1428l568.001 0.000976562c3.33301 0 16.666 -13.333 39.999 -40c0 -3.33301 -40 -43.333 -120 -120h-408c-3.33301 0 -43.333 40 -120 120c-0 3.33301 13.333 16.666 40 39.999zM692.001 1304c29.333 -90 44.001 -147.332 44.001 -171.999
c-3.33301 -2 -83.333 -138 -240 -408c-31.333 -8 -48.666 -12 -51.999 -12c-28.667 87.333 -43.334 144.666 -44.001 171.999c10 12.667 90 148.667 240 408c31.333 8 48.666 12 51.999 12zM356.002 708.002c29.333 -90 44.002 -147.332 44.002 -171.999
c-3.33301 -2 -83.333 -138 -240 -408l-52 -12c-28.667 87.333 -43.334 144.666 -44.001 171.999c10 12.667 90 148.667 240 408c31.333 8 48.666 12 51.999 12zM264.004 160.003l407.999 -0.000976562c3.33301 0 43.333 -40 120 -120
c0 -3.33301 -13.333 -16.666 -40 -39.999h-568c-3.33301 0 -16.666 13.333 -39.999 40c0 3.33301 40 43.333 120 120z" />
    <glyph glyph-name="bracketleft" unicode="[" horiz-adv-x="599" 
d="M460 1332c-52.667 -56 -80.667 -84 -84 -84h-200c-56 52.667 -84 80.667 -84 84c50 53.333 76.667 80 80 80h208c53.333 -50 80 -76.667 80 -80zM164 1172v-391.999c-79.333 -82.667 -120.666 -124 -123.999 -124c-26.667 23.333 -40 36.666 -40 39.999v568
c23.333 26.667 36.666 40 39.999 40c82.667 -72.667 124 -116.667 124 -132zM160 512.001v-311.998c-14.667 -14.667 -54.667 -45.334 -120 -92.001c-18 9.33301 -31.333 20 -40 32v432c8.66699 12 22 22.667 40 32c65.333 -46.667 105.333 -77.334 120 -92.001z
M460 80.0029c-50 -53.333 -76.667 -80 -80 -80h-208c-53.333 50 -80 76.667 -80 80c52.667 56 80.667 84 84 84h200c56 -52.667 84 -80.667 84 -84z" />
    <glyph glyph-name="backslash" unicode="\" horiz-adv-x="902" 
d="M168 1380c14 -18.667 90 -157.333 228 -416c0 -20 -5.33301 -40 -16 -60c-95.333 32 -147.333 48 -156 48c-149.333 269.333 -224 409.333 -224 420v4c0 22 4 39.333 12 52c6 0 58 -16 156 -48zM408 880.001c18 -21.333 95.332 -161.334 231.999 -420.001
c0 -13.333 -5.33301 -32 -16 -56c-6 0 -58 16 -156 48c-14 18.667 -90 157.334 -228 416.001c0 20 5.33301 40 16 60c96.667 -32 147.334 -48 152.001 -48zM651.999 380c13.333 -2 58.665 -75.334 135.998 -220.001c-26.667 -98 -42.667 -151.333 -48 -160
c-7.33301 0 -23.333 4 -48 12c-17.333 20 -86.666 137.333 -207.999 352c4.66699 28.667 10 47.334 16 56.001c4.66699 0 55.334 -13.333 152.001 -40z" />
    <glyph glyph-name="bracketright" unicode="]" horiz-adv-x="604" 
d="M80 1412h208c3.33301 0 30 -26.667 80 -80c0 -3.33301 -28 -31.333 -84 -84h-200c-3.33301 0 -31.333 28 -84 84c0 3.33301 26.667 30 80 80zM420 1304c3.33301 0 16.666 -13.334 39.999 -40.001v-568c0 -3.33301 -13.333 -16.666 -40 -39.999
c-3.33301 0 -44.666 41.333 -123.999 124v392c0 15.333 41.333 59.333 124 132zM420 603.999c18 -9.33301 31.333 -20.002 40 -32.002v-432c-8.66699 -12 -22 -22.667 -40 -32c-65.333 46.667 -105.333 77.334 -120 92.001v312c14.667 14.667 54.667 45.334 120 92.001z
M84 163.997h200c3.33301 0 31.333 -28 84 -84c0 -3.33301 -26.667 -30 -80 -80h-208c-3.33301 0 -30 26.667 -80 80c0 3.33301 28 31.333 84 84z" />
    <glyph glyph-name="asciicircum" unicode="^" horiz-adv-x="1049" 
d="M608 1560c14.667 -12.667 115.999 -176.668 303.999 -492.001c0 -18 -5.33301 -36.667 -16 -56c-30.667 5.33301 -84 17.333 -160 36c-5.33301 2.66699 -77.333 121.334 -216 356.001c24 100 38.667 154.667 44 164c18.667 -5.33301 33.334 -8 44.001 -8zM443.999 1400
l-208 -343.999c0 -6.66699 -53.333 -21.334 -160 -44.001c-13.333 0 -20 16 -20 48v4c0 10.667 86.667 156 260 436c17.333 45.333 45.333 68 84 68c6 0 20.667 -56 44 -168z" />
    <glyph glyph-name="underscore" unicode="_" horiz-adv-x="646" 
d="M89 164h472c3.33301 0 30 -26.667 80 -80v-4c0 -3.33301 -26.667 -30 -80 -80h-472c-3.33301 0 -30 26.667 -80 80v4c0 3.33301 26.667 30 80 80z" />
    <glyph glyph-name="grave" unicode="`" horiz-adv-x="1024" 
d="M586 1497c16.667 0 51.332 -50.668 103.999 -152.001c-22.667 -106.667 -38.667 -160 -48 -160h-8c-9.33301 0 -21.333 1.33301 -36 4c-11.333 9.33301 -68.666 105.333 -171.999 288c4.66699 28.667 10 47.334 16 56.001z" />
    <glyph glyph-name="a" unicode="a" 
d="M120 1428l568.001 0.000976562c3.33301 0 16.666 -13.333 39.999 -40c0 -3.33301 -40 -43.333 -120 -120h-408c-3.33301 0 -43.333 40 -120 120c0 3.33301 13.333 16.666 40 39.999zM764.001 1388c3.33301 0 16.667 -13.334 40 -40.001v-568
c0 -3.33301 -13.333 -16.666 -40 -39.999c-3.33301 0 -43.333 40 -120 120v408c0 3.33301 40 43.333 120 120zM40.002 1384c3.33301 0 43.332 -39.999 119.999 -119.999v-408c0 -3.33301 -40 -43.333 -120 -120c-3.33301 0 -16.666 13.333 -39.999 40v568
c0 3.33301 13.333 16.666 40 39.999zM160.001 800.001h472c3.33301 0 30 -26.667 80 -80v-4c0 -3.33301 -26.667 -30 -80 -80h-472c-3.33301 0 -30 26.667 -80 80v4c0 3.33301 26.667 30 80 80zM40.001 696.001c3.33301 0 43.332 -39.999 119.999 -119.999v-456
c0 -3.33301 -40 -43.333 -120 -120c-3.33301 0 -16.666 13.333 -39.999 40v616c0 3.33301 13.333 16.666 40 39.999zM764 696.002c3.33301 0 16.667 -13.334 40 -40.001v-616c0 -3.33301 -13.333 -16.666 -40 -39.999c-3.33301 0 -43.333 40 -120 120v456
c0 3.33301 40 43.333 120 120z" />
    <glyph glyph-name="b" unicode="b" 
d="M40 1428h648.001c3.33301 0 16.666 -13.333 39.999 -40c0 -3.33301 -40 -43.333 -120 -120h-408c-96.667 90.667 -150 142.667 -160 156v4zM0.000976562 1420h3.99902c3.33301 0 55.333 -52 156 -156v-408c0 -3.33301 -40 -43.333 -120 -120
c-3.33301 0 -16.666 13.333 -39.999 40v644zM764 1388c3.33301 0 16.667 -13.334 40 -40.001v-568c0 -3.33301 -13.333 -16.666 -40 -39.999c-3.33301 0 -43.333 40 -120 120v408c0 3.33301 40 43.333 120 120zM160.001 799.999h472c3.33301 0 30 -26.667 80 -80v-4
c0 -3.33301 -26.667 -30 -80 -80h-472c-3.33301 0 -30 26.667 -80 80v4c0 3.33301 26.667 30 80 80zM40.001 695.999c3.33301 0 43.333 -39.999 120 -119.999v-408c-90.667 -96.667 -142.667 -150 -156 -160h-4v648c0 3.33301 13.333 16.666 40 39.999zM764.001 692
c3.33301 0 16.667 -13.334 40 -40.001v-568c0 -3.33301 -13.333 -16.666 -40 -39.999c-3.33301 0 -43.333 40 -120 120v408c0 3.33301 40 43.333 120 120zM196.002 159.999l408 -0.000976562c3.33301 0 43.333 -40 120 -120c0 -3.33301 -13.333 -16.666 -40 -39.999h-640v4
c87.333 93.333 138 145.333 152 156z" />
    <glyph glyph-name="c" unicode="c" 
d="M120 1428l568.001 0.000976562c3.33301 0 16.666 -13.333 39.999 -40c0 -3.33301 -40 -43.333 -120 -120h-408c-3.33301 0 -43.333 40 -120 120c0 3.33301 13.333 16.666 40 39.999zM40.001 1384c3.33301 0 43.332 -39.999 119.999 -119.999v-408
c0 -3.33301 -40 -43.333 -120 -120c-3.33301 0 -16.666 13.333 -39.999 40v568c0 3.33301 13.333 16.666 40 39.999zM40 696.002c3.33301 0 43.332 -39.999 119.999 -119.999v-408c0 -3.33301 -40 -43.333 -120 -120c-3.33301 0 -16.666 13.333 -39.999 40v568
c-0 3.33301 13.333 16.666 40 39.999zM195.999 160.003l407.999 -0.000976562c3.33301 0 43.333 -40 120 -120c0 -3.33301 -13.333 -16.666 -40 -39.999h-568c-3.33301 0 -16.666 13.333 -39.999 40c0 3.33301 40 43.333 120 120z" />
    <glyph glyph-name="d" unicode="d" 
d="M40 1428h648.001c3.33301 0 16.666 -13.333 39.999 -40c0 -3.33301 -40 -43.333 -120 -120h-408c-96.667 90.667 -150 142.667 -160 156v4zM0.000976562 1420h3.99902c3.33301 0 55.333 -52 156 -156v-408c0 -3.33301 -40 -43.333 -120 -120
c-3.33301 0 -16.666 13.333 -39.999 40v644zM764 1388c3.33301 0 16.667 -13.334 40 -40.001v-568c0 -3.33301 -13.333 -16.666 -40 -39.999c-3.33301 0 -43.333 40 -120 120v408c0 3.33301 40 43.333 120 120zM40.001 695.999c3.33301 0 43.333 -39.999 120 -119.999v-408
c-90.667 -96.667 -142.667 -150 -156 -160h-4v648c0 3.33301 13.333 16.666 40 39.999zM764.001 692c3.33301 0 16.667 -13.334 40 -40.001v-568c0 -3.33301 -13.333 -16.666 -40 -39.999c-3.33301 0 -43.333 40 -120 120v408c0 3.33301 40 43.333 120 120zM196.002 159.999
l408 -0.000976562c3.33301 0 43.333 -40 120 -120c0 -3.33301 -13.333 -16.666 -40 -39.999h-640v4c87.333 93.333 138 145.333 152 156z" />
    <glyph glyph-name="e" unicode="e" 
d="M120 1428l568.001 0.000976562c3.33301 0 16.666 -13.333 39.999 -40c0 -3.33301 -40 -43.333 -120 -120h-408c-3.33301 0 -43.333 40 -120 120c0 3.33301 13.333 16.666 40 39.999zM40.001 1384c3.33301 0 43.332 -39.999 119.999 -119.999v-408
c0 -3.33301 -40 -43.333 -120 -120c-3.33301 0 -16.666 13.333 -39.999 40v568c0 3.33301 13.333 16.666 40 39.999zM160 800.002h472c3.33301 0 30 -26.667 80 -80v-4c0 -3.33301 -26.667 -30 -80 -80h-472c-3.33301 0 -30 26.667 -80 80v4c0 3.33301 26.667 30 80 80z
M40 696.002c3.33301 0 43.332 -39.999 119.999 -119.999v-408c0 -3.33301 -40 -43.333 -120 -120c-3.33301 0 -16.666 13.333 -39.999 40v568c-0 3.33301 13.333 16.666 40 39.999zM195.999 160.003l407.999 -0.000976562c3.33301 0 43.333 -40 120 -120
c0 -3.33301 -13.333 -16.666 -40 -39.999h-568c-3.33301 0 -16.666 13.333 -39.999 40c0 3.33301 40 43.333 120 120z" />
    <glyph glyph-name="f" unicode="f" 
d="M120 1428l568.001 0.000976562c3.33301 0 16.666 -13.333 39.999 -40c0 -3.33301 -40 -43.333 -120 -120h-408c-3.33301 0 -43.333 40 -120 120c0 3.33301 13.333 16.666 40 39.999zM40.001 1384c3.33301 0 43.332 -39.999 119.999 -119.999v-408
c0 -3.33301 -40 -43.333 -120 -120c-3.33301 0 -16.666 13.333 -39.999 40v568c0 3.33301 13.333 16.666 40 39.999zM160 800.002h472c3.33301 0 30 -26.667 80 -80v-4c0 -3.33301 -26.667 -30 -80 -80h-472c-3.33301 0 -30 26.667 -80 80v4c0 3.33301 26.667 30 80 80z
M40 696.002c3.33301 0 43.332 -39.999 119.999 -119.999v-456c0 -3.33301 -40 -43.333 -120 -120c-3.33301 0 -16.666 13.333 -39.999 40v616c-0 3.33301 13.333 16.666 40 39.999z" />
    <glyph glyph-name="g" unicode="g" 
d="M120 1428l568.001 0.000976562c3.33301 0 16.666 -13.333 39.999 -40c0 -3.33301 -40 -43.333 -120 -120h-408c-3.33301 0 -43.333 40 -120 120c0 3.33301 13.333 16.666 40 39.999zM40.001 1384c3.33301 0 43.332 -39.999 119.999 -119.999v-408
c0 -3.33301 -40 -43.333 -120 -120c-3.33301 0 -16.666 13.333 -39.999 40v568c0 3.33301 13.333 16.666 40 39.999zM428 800.002h204c3.33301 0 30 -26.667 80 -80v-4c0 -3.33301 -26.667 -30 -80 -80h-204c-3.33301 0 -30 26.667 -80 80v4c0 3.33301 26.667 30 80 80z
M40 696.002c3.33301 0 43.332 -39.999 119.999 -119.999v-408c0 -3.33301 -40 -43.333 -120 -120c-3.33301 0 -16.666 13.333 -39.999 40v568c-0 3.33301 13.333 16.666 40 39.999zM763.999 692.003c3.33301 0 16.667 -13.334 40 -40.001v-568
c0 -3.33301 -13.333 -16.666 -40 -39.999c-3.33301 0 -43.333 40 -120 120v408c0 3.33301 40 43.333 120 120zM196 160.002l407.999 -0.000976562c3.33301 0 43.333 -40 120 -120c0 -3.33301 -13.333 -16.666 -40 -39.999h-568c-3.33301 0 -16.666 13.333 -39.999 40
c0 3.33301 40 43.333 120 120z" />
    <glyph glyph-name="h" unicode="h" 
d="M40 1428c3.33301 0 43.332 -39.999 119.999 -119.999v-456c0 -3.33301 -40 -43.333 -120 -120c-3.33301 0 -16.666 13.333 -39.999 40v616c-0 3.33301 13.333 16.666 40 39.999zM763.999 1428c3.33301 0 16.667 -13.334 40 -40.001v-616
c0 -3.33301 -13.333 -16.666 -40 -39.999c-3.33301 0 -43.333 40 -120 120v456c0 3.33301 40 43.333 120 120zM160 800h472c3.33301 0 30 -26.667 80 -80v-4c0 -3.33301 -26.667 -30 -80 -80h-472c-3.33301 0 -30 26.667 -80 80v4c0 3.33301 26.667 30 80 80zM40 696
c3.33301 0 43.332 -39.999 119.999 -119.999v-456c0 -3.33301 -40 -43.333 -120 -120c-3.33301 0 -16.666 13.333 -39.999 40v616c-0 3.33301 13.333 16.666 40 39.999zM763.999 696.001c3.33301 0 16.667 -13.334 40 -40.001v-616c0 -3.33301 -13.333 -16.666 -40 -39.999
c-3.33301 0 -43.333 40 -120 120v456c0 3.33301 40 43.333 120 120z" />
    <glyph glyph-name="i" unicode="i" horiz-adv-x="279" 
d="M40 1428c3.33301 0 43.332 -39.999 119.999 -119.999v-456c0 -3.33301 -40 -43.333 -120 -120c-3.33301 0 -16.666 13.333 -39.999 40v616c-0 3.33301 13.333 16.666 40 39.999zM119.999 696.001c3.33301 0 16.667 -13.334 40 -40.001v-616
c0 -3.33301 -13.333 -16.666 -40 -39.999c-3.33301 0 -43.333 40 -120 120v456c0 3.33301 40 43.333 120 120z" />
    <glyph glyph-name="j" unicode="j" 
d="M764 1428c3.33301 0 16.667 -13.334 40 -40.001v-616c0 -3.33301 -13.333 -16.666 -40 -39.999c-3.33301 0 -43.333 40 -120 120v456c0 3.33301 40 43.333 120 120zM40.001 695.999c3.33301 0 43.332 -39.999 119.999 -119.999v-408c0 -3.33301 -40 -43.333 -120 -120
c-3.33301 0 -16.666 13.333 -39.999 40v568c0 3.33301 13.333 16.666 40 39.999zM764 692c3.33301 0 16.667 -13.334 40 -40.001v-568c0 -3.33301 -13.333 -16.666 -40 -39.999c-3.33301 0 -43.333 40 -120 120v408c0 3.33301 40 43.333 120 120zM196.001 159.999
l407.999 -0.000976562c3.33301 0 43.333 -40 120 -120c0 -3.33301 -13.333 -16.666 -40 -39.999h-568c-3.33301 0 -16.666 13.333 -39.999 40c0 3.33301 40 43.333 120 120z" />
    <glyph glyph-name="k" unicode="k" 
d="M40 1428c3.33301 0 43.332 -39.999 119.999 -119.999v-456c0 -3.33301 -40 -43.333 -120 -120c-3.33301 0 -16.666 13.333 -39.999 40v616c-0 3.33301 13.333 16.666 40 39.999zM635.999 1244l160 0.000976562c5.33301 -0.666992 8 -3.33398 8 -8.00098v-48l-344 -336
h-160c-5.33301 0 -8 2.66699 -8 8v48zM159.999 800.002h472c3.33301 0 30 -26.667 80 -80v-4c0 -3.33301 -26.667 -30 -80 -80h-472c-3.33301 0 -30 26.667 -80 80v4c0 3.33301 26.667 30 80 80zM39.999 696.002c3.33301 0 43.332 -39.999 119.999 -119.999v-456
c0 -3.33301 -40 -43.333 -120 -120c-3.33301 0 -16.666 13.333 -39.999 40v616c0 3.33301 13.333 16.666 40 39.999zM763.998 696.003c3.33301 0 16.667 -13.334 40 -40.001v-616c0 -3.33301 -13.333 -16.666 -40 -39.999c-3.33301 0 -43.333 40 -120 120v456
c0 3.33301 40 43.333 120 120z" />
    <glyph glyph-name="l" unicode="l" 
d="M0 1424h3.99902c4 0 56 -53.333 156 -160v-408c0 -3.33301 -40 -43.333 -120 -120c-3.33301 0 -16.666 13.333 -39.999 40v648zM39.999 696c3.33301 0 43.332 -39.999 119.999 -119.999v-408c0 -3.33301 -40 -43.333 -120 -120c-3.33301 0 -16.666 13.333 -39.999 40v568
c0 3.33301 13.333 16.666 40 39.999zM195.998 160.001l407.999 -0.000976562c3.33301 0 43.333 -40 120 -120c0 -3.33301 -13.333 -16.666 -40 -39.999h-568c-3.33301 0 -16.666 13.333 -39.999 40c0 3.33301 40 43.333 120 120z" />
    <glyph glyph-name="m" unicode="m" horiz-adv-x="1635" 
d="M120 1428l568.001 0.000976562c3.33301 0 16.666 -13.333 39.999 -40c0 -3.33301 -40 -43.333 -120 -120h-408c-3.33301 0 -43.333 40 -120 120c0 3.33301 13.333 16.666 40 39.999zM844.001 1428l568.001 0.000976562c3.33301 0 16.666 -13.333 39.999 -40
c0 -3.33301 -40 -43.333 -120 -120h-408c-3.33301 0 -43.333 40 -120 120c0 3.33301 13.333 16.666 40 39.999zM764.002 1388c3.33301 0 16.667 -13.334 40 -40.001v-568c0 -3.33301 -13.333 -16.666 -40 -39.999c-3.33301 0 -43.333 40 -120 120v408
c0 3.33301 40 43.333 120 120zM1488 1388c3.33301 0 16.667 -13.334 40 -40.001v-568c0 -3.33301 -13.333 -16.666 -40 -39.999c-3.33301 0 -43.333 40 -120 120v408c0 3.33301 40 43.333 120 120zM40.0039 1384c3.33301 0 43.332 -39.999 119.999 -119.999v-408
c0 -3.33301 -40 -43.333 -120 -120c-3.33301 0 -16.666 13.333 -39.999 40v568c0 3.33301 13.333 16.666 40 39.999zM120.003 696.001c3.33301 0 16.667 -13.334 40 -40.001v-616c0 -3.33301 -13.333 -16.666 -40 -39.999c-3.33301 0 -43.333 40 -120 120v456
c0 3.33301 40 43.333 120 120zM764.004 696c3.33301 0 16.667 -13.334 40 -40.001v-616c0 -3.33301 -13.333 -16.666 -40 -39.999c-3.33301 0 -43.333 40 -120 120v456c0 3.33301 40 43.333 120 120zM1408 695.999c3.33301 0 43.332 -39.999 119.999 -119.999v-456
c0 -3.33301 -40 -43.333 -120 -120c-3.33301 -0 -16.666 13.333 -39.999 40v616c0 3.33301 13.333 16.666 40 39.999z" />
    <glyph glyph-name="n" unicode="n" 
d="M40 1428c3.33301 0 43.332 -39.999 119.999 -119.999v-456c0 -3.33301 -40 -43.333 -120 -120c-3.33301 0 -16.666 13.333 -39.999 40v616c-0 3.33301 13.333 16.666 40 39.999zM763.999 1428c3.33301 0 16.667 -13.334 40 -40.001v-616
c0 -3.33301 -13.333 -16.666 -40 -39.999c-3.33301 0 -43.333 40 -120 120v456c0 3.33301 40 43.333 120 120zM204 1264l47.999 0.000976562c51.333 -42.667 139.333 -129.334 264 -260.001c7.33301 0 35.333 -26.667 84 -80v-160c0 -5.33301 -2.66699 -8 -8 -8h-48
c-2.66699 0 -4 1.33301 -4 4l-8 -4l-336 340v160c0.666992 5.33301 3.33398 8 8.00098 8zM39.999 696.001c3.33301 0 43.332 -39.999 119.999 -119.999v-456c0 -3.33301 -40 -43.333 -120 -120c-3.33301 0 -16.666 13.333 -39.999 40v616c0 3.33301 13.333 16.666 40 39.999
zM763.998 696.002c3.33301 0 16.667 -13.334 40 -40.001v-616c0 -3.33301 -13.333 -16.666 -40 -39.999c-3.33301 0 -43.333 40 -120 120v456c0 3.33301 40 43.333 120 120z" />
    <glyph glyph-name="o" unicode="o" 
d="M120 1428l568.001 0.000976562c3.33301 0 16.666 -13.333 39.999 -40c0 -3.33301 -40 -43.333 -120 -120h-408c-3.33301 0 -43.333 40 -120 120c0 3.33301 13.333 16.666 40 39.999zM764.001 1388c3.33301 0 16.667 -13.334 40 -40.001v-568
c0 -3.33301 -13.333 -16.666 -40 -39.999c-3.33301 0 -43.333 40 -120 120v408c0 3.33301 40 43.333 120 120zM40.002 1384c3.33301 0 43.332 -39.999 119.999 -119.999v-408c0 -3.33301 -40 -43.333 -120 -120c-3.33301 0 -16.666 13.333 -39.999 40v568
c0 3.33301 13.333 16.666 40 39.999zM40.001 696.001c3.33301 0 43.332 -39.999 119.999 -119.999v-408c0 -3.33301 -40 -43.333 -120 -120c-3.33301 0 -16.666 13.333 -39.999 40v568c0 3.33301 13.333 16.666 40 39.999zM764 692.002c3.33301 0 16.667 -13.334 40 -40.001
v-568c0 -3.33301 -13.333 -16.666 -40 -39.999c-3.33301 0 -43.333 40 -120 120v408c0 3.33301 40 43.333 120 120zM196.001 160.001l407.999 -0.000976562c3.33301 0 43.333 -40 120 -120c0 -3.33301 -13.333 -16.666 -40 -39.999h-568
c-3.33301 0 -16.666 13.333 -39.999 40c0 3.33301 40 43.333 120 120z" />
    <glyph glyph-name="p" unicode="p" 
d="M120 1428l568.001 0.000976562c3.33301 0 16.666 -13.333 39.999 -40c0 -3.33301 -40 -43.333 -120 -120h-408c-3.33301 0 -43.333 40 -120 120c0 3.33301 13.333 16.666 40 39.999zM764.001 1388c3.33301 0 16.667 -13.334 40 -40.001v-568
c0 -3.33301 -13.333 -16.666 -40 -39.999c-3.33301 0 -43.333 40 -120 120v408c0 3.33301 40 43.333 120 120zM40.002 1384c3.33301 0 43.332 -39.999 119.999 -119.999v-408c0 -3.33301 -40 -43.333 -120 -120c-3.33301 0 -16.666 13.333 -39.999 40v568
c0 3.33301 13.333 16.666 40 39.999zM160.001 800.001h472c3.33301 0 30 -26.667 80 -80v-4c0 -3.33301 -26.667 -30 -80 -80h-472c-3.33301 0 -30 26.667 -80 80v4c0 3.33301 26.667 30 80 80zM40.001 696.001c3.33301 0 43.332 -39.999 119.999 -119.999v-456
c0 -3.33301 -40 -43.333 -120 -120c-3.33301 0 -16.666 13.333 -39.999 40v616c0 3.33301 13.333 16.666 40 39.999z" />
    <glyph glyph-name="q" unicode="q" 
d="M120 1428l568.001 0.000976562c3.33301 0 16.666 -13.333 39.999 -40c0 -3.33301 -40 -43.333 -120 -120h-408c-3.33301 0 -43.333 40 -120 120c0 3.33301 13.333 16.666 40 39.999zM764.001 1388c3.33301 0 16.667 -13.334 40 -40.001v-568
c0 -3.33301 -13.333 -16.666 -40 -39.999c-3.33301 0 -43.333 40 -120 120v408c0 3.33301 40 43.333 120 120zM40.002 1384c3.33301 0 43.332 -39.999 119.999 -119.999v-408c0 -3.33301 -40 -43.333 -120 -120c-3.33301 0 -16.666 13.333 -39.999 40v568
c0 3.33301 13.333 16.666 40 39.999zM40.001 696.001c3.33301 0 43.332 -39.999 119.999 -119.999v-408c0 -3.33301 -40 -43.333 -120 -120c-3.33301 0 -16.666 13.333 -39.999 40v568c0 3.33301 13.333 16.666 40 39.999zM764 692.002c3.33301 0 16.667 -13.334 40 -40.001
v-568c0 -3.33301 -13.333 -16.666 -40 -39.999c-3.33301 0 -43.333 40 -120 120v408c0 3.33301 40 43.333 120 120zM400.001 356.001h4c3.33301 0 30 -26.667 80 -80v-68c0 -5.33301 -2.66699 -8 -8 -8h-148c-5.33301 0 -8 2.66699 -8 8v68c0 3.33301 26.667 30 80 80z
M196.001 160.001l407.999 -0.000976562c3.33301 0 43.333 -40 120 -120c0 -3.33301 -13.333 -16.666 -40 -39.999h-568c-3.33301 0 -16.666 13.333 -39.999 40c0 3.33301 40 43.333 120 120zM328 -40l147.999 0.000976562c5.33301 -0.666992 8 -3.33398 8 -8.00098v-72
c0 -3.33301 -26.667 -30 -80 -80h-4c-3.33301 0 -30 26.667 -80 80v72c0.666992 5.33301 3.33398 8 8.00098 8z" />
    <glyph glyph-name="r" unicode="r" 
d="M120 1428l568.001 0.000976562c3.33301 0 16.666 -13.333 39.999 -40c0 -3.33301 -40 -43.333 -120 -120h-408c-3.33301 0 -43.333 40 -120 120c0 3.33301 13.333 16.666 40 39.999zM764.001 1388c3.33301 0 16.667 -13.334 40 -40.001v-568
c0 -3.33301 -13.333 -16.666 -40 -39.999c-3.33301 0 -43.333 40 -120 120v408c0 3.33301 40 43.333 120 120zM40.002 1384c3.33301 0 43.332 -39.999 119.999 -119.999v-408c0 -3.33301 -40 -43.333 -120 -120c-3.33301 0 -16.666 13.333 -39.999 40v568
c0 3.33301 13.333 16.666 40 39.999zM160.001 800.001h472c3.33301 0 30 -26.667 80 -80v-4c0 -3.33301 -26.667 -30 -80 -80h-472c-3.33301 0 -30 26.667 -80 80v4c0 3.33301 26.667 30 80 80zM40.001 696.001c3.33301 0 43.332 -39.999 119.999 -119.999v-456
c0 -3.33301 -40 -43.333 -120 -120c-3.33301 0 -16.666 13.333 -39.999 40v616c0 3.33301 13.333 16.666 40 39.999zM440 596.002l115.999 0.00195312c56 -28.667 104 -115.334 144 -260.001c10.667 -22.667 45.334 -117.334 104.001 -284.001
c-13.333 -26.667 -20 -42.667 -20 -48h-4c-109.333 39.333 -164 71.333 -164 96c-80 227.333 -141.333 391.333 -184 492z" />
    <glyph glyph-name="s" unicode="s" 
d="M120 1428l568.001 0.000976562c3.33301 0 16.666 -13.333 39.999 -40c0 -3.33301 -40 -43.333 -120 -120h-408c-3.33301 0 -43.333 40 -120 120c0 3.33301 13.333 16.666 40 39.999zM40.001 1384c3.33301 0 43.332 -39.999 119.999 -119.999v-408
c0 -3.33301 -40 -43.333 -120 -120c-3.33301 0 -16.666 13.333 -39.999 40v568c0 3.33301 13.333 16.666 40 39.999zM160 800.002h472c3.33301 0 30 -26.667 80 -80v-4c0 -3.33301 -26.667 -30 -80 -80h-472c-3.33301 0 -30 26.667 -80 80v4c0 3.33301 26.667 30 80 80z
M764 692.002c3.33301 0 16.667 -13.334 40 -40.001v-568c0 -3.33301 -13.333 -16.666 -40 -39.999c-3.33301 0 -43.333 40 -120 120v408c0 3.33301 40 43.333 120 120zM196.001 160.001l407.999 -0.000976562c3.33301 0 43.333 -40 120 -120
c0 -3.33301 -13.333 -16.666 -40 -39.999h-568c-3.33301 0 -16.666 13.333 -39.999 40c0 3.33301 40 43.333 120 120z" />
    <glyph glyph-name="t" unicode="t" 
d="M40 1428l724.001 0.000976562c3.33301 0 16.666 -13.333 39.999 -40c0 -3.33301 -40 -43.333 -120 -120h-564c-3.33301 0 -43.333 40 -120 120c-0 3.33301 13.333 16.666 40 39.999zM388.001 1196c3.33301 0 43.332 -39.999 119.999 -119.999v-324
c0 -3.33301 -40 -43.333 -120 -120c-3.33301 0 -16.666 13.333 -39.999 40v484c0 3.33301 13.333 16.666 40 39.999zM468 560.002c3.33301 0 16.667 -13.334 40 -40.001v-480c0 -3.33301 -13.333 -16.666 -40 -39.999c-3.33301 0 -43.333 40 -120 120v320
c0 3.33301 40 43.333 120 120z" />
    <glyph glyph-name="u" unicode="u" 
d="M40 1428c3.33301 0 43.332 -39.999 119.999 -119.999v-456c0 -3.33301 -40 -43.333 -120 -120c-3.33301 0 -16.666 13.333 -39.999 40v616c-0 3.33301 13.333 16.666 40 39.999zM763.999 1428c3.33301 0 16.667 -13.334 40 -40.001v-616
c0 -3.33301 -13.333 -16.666 -40 -39.999c-3.33301 0 -43.333 40 -120 120v456c0 3.33301 40 43.333 120 120zM40 692c3.33301 0 43.332 -39.999 119.999 -119.999v-408c0 -3.33301 -40 -43.333 -120 -120c-3.33301 0 -16.666 13.333 -39.999 40v568
c-0 3.33301 13.333 16.666 40 39.999zM763.999 688.001c3.33301 0 16.667 -13.334 40 -40.001v-568c0 -3.33301 -13.333 -16.666 -40 -39.999c-3.33301 0 -43.333 40 -120 120v408c0 3.33301 40 43.333 120 120zM200 160l407.999 -0.000976562
c3.33301 0 43.333 -40 120 -120c0 -3.33301 -13.333 -16.666 -40 -39.999h-568c-3.33301 -0 -16.666 13.333 -39.999 40c0 3.33301 40 43.333 120 120z" />
    <glyph glyph-name="v" unicode="v" 
d="M40 1428c3.33301 0 43.332 -39.999 119.999 -119.999v-600c0 -3.33301 -40 -43.333 -120 -120c-3.33301 0 -16.666 13.333 -39.999 40v760c-0 3.33301 13.333 16.666 40 39.999zM755.999 1428l8 -0.000976562c3.33301 0 15.333 -12 36 -36v-748
c0 -3.33301 -13.333 -16.666 -40 -39.999c-3.33301 0 -43.333 40 -120 120v588c0 3.33301 38.667 42 116 116zM15.999 556c102.667 -24 158.668 -38.667 168.001 -44c10 -20.667 79.333 -132.667 208 -336c-20.667 -112 -34 -168 -40 -168h-4c-35.333 0 -58 14.667 -68 44
c-20.667 28.667 -114 178 -280 448c5.33301 28 10.666 46.667 15.999 56zM788 544c8 -26.667 12 -46.668 12 -60.001l-304 -476c-26.667 -5.33301 -42.667 -8 -48 -8c-6.66699 12 -20 66.667 -40 164c138.667 226.667 210.667 341.334 216 344.001c91.333 24 146 36 164 36z
" />
    <glyph glyph-name="w" unicode="w" horiz-adv-x="1540" 
d="M40 1444c3.33301 0 43.332 -39.999 119.999 -119.999v-600c0 -3.33301 -40 -43.333 -120 -120c-3.33301 0 -16.666 13.333 -39.999 40v760c-0 3.33301 13.333 16.666 40 39.999zM759.999 1444c3.33301 0 16.666 -13.333 39.999 -40v-680
c0 -3.33301 -40 -43.333 -120 -120c-3.33301 0 -16.666 13.333 -39.999 40v680c0 3.33301 40 43.333 120 120zM1400 1444c3.33301 0 16.667 -13.334 40 -40.001v-760c0 -3.33301 -13.333 -16.666 -40 -39.999c-3.33301 0 -43.333 40 -120 120v600
c0 3.33301 40 43.333 120 120zM16 556c102.667 -24 158.668 -38.667 168.001 -44c10 -20.667 79.333 -132.667 208 -336c-20.667 -112 -34 -168 -40 -168h-4c-35.333 0 -58 14.667 -68 44c-20.667 28.667 -114 178 -280 448c5.33301 28 10.666 46.667 15.999 56z
M788.001 544l4 -8.00098v-8c-79.333 -170 -170 -332.667 -272 -488c-10 -26.667 -34 -40 -72 -40c-6.66699 12 -20 66.667 -40 164c138.667 226.667 210.667 341.334 216 344.001c91.333 24 146 36 164 36zM1428 543.999c8 -26.667 12 -46.668 12 -60.001l-304 -476
c-26.667 -5.33301 -42.667 -8 -48 -8c-6.66699 12 -20 66.667 -40 164c138.667 226.667 210.667 341.334 216 344.001c91.333 24 146 36 164 36zM836.001 483.998c6.66699 -6 72.001 -108.667 196.001 -308c-20.667 -112 -34 -168 -40 -168h-4c-35.333 0 -58 14.667 -68 44
l-172 272c53.333 104 82.666 157.333 87.999 160z" />
    <glyph glyph-name="x" unicode="x" 
d="M16 1428c114.667 -25.333 171.999 -44 171.999 -56l200 -328c-21.333 -104 -34.666 -160 -39.999 -168c-45.333 8 -68 21.333 -68 40l-280 452c-0 20.667 5.33301 40.667 16 60zM787.999 1428c5.33301 -9.33301 10.667 -28 16 -56
c-189.333 -312 -289.333 -473.333 -300 -484c-7.33301 0 -23.333 -4 -48 -12c-4.66699 0 -18 56 -40 168c137.333 228 208 342.667 212 344zM200 792h480c3.33301 0 16.666 -13.333 39.999 -40c0 -3.33301 -40 -43.333 -120 -120h-480c-3.33301 0 -16.666 13.333 -39.999 40
c0 3.33301 40 43.333 120 120zM348 548c5.33301 -6 18.666 -63.333 39.999 -172c-130.667 -210.667 -202.667 -324 -216 -340c-89.333 -24 -142.666 -36 -159.999 -36c-8 27.333 -12 46 -12 56c180.667 296.667 280.667 456.667 300 480zM456 548
c48 -9.33301 72 -25.334 72 -48.001l276 -448c-4.66699 -34.667 -12.667 -52 -24 -52c-112 20 -168 40 -168 60c-111.333 178 -176.666 286 -195.999 324c21.333 104.667 34.666 159.334 39.999 164.001z" />
    <glyph glyph-name="y" unicode="y" 
d="M40 1428c3.33301 0 43.332 -39.999 119.999 -119.999v-168c0 -3.33301 -40 -43.333 -120 -120c-3.33301 0 -16.666 13.333 -39.999 40v328c-0 3.33301 13.333 16.666 40 39.999zM759.999 1428c3.33301 0 16.667 -13.334 40 -40.001v-328
c0 -3.33301 -13.333 -16.666 -40 -39.999c-3.33301 0 -43.333 40 -120 120v168c0 3.33301 40 43.333 120 120zM16 988c102.667 -24 158.668 -38.667 168.001 -44c10 -20.667 79.333 -132.667 208 -336c-20.667 -112 -34 -168 -40 -168h-4c-35.333 0 -58 14.667 -68 44
c-20.667 28.667 -114 178 -280 448c5.33301 28 10.666 46.667 15.999 56zM788.001 976c8 -26.667 12 -46.668 12 -60.001l-304 -476c-26.667 -5.33301 -42.667 -8 -48 -8c-6.66699 12 -20 66.667 -40 164c138.667 226.667 210.667 341.334 216 344.001
c91.333 24 146 36 164 36zM424.001 407.999c3.33301 0 16.667 -13.334 40 -40.001v-328c0 -3.33301 -13.333 -16.666 -40 -39.999c-3.33301 0 -43.333 40 -120 120v168c0 3.33301 40 43.333 120 120z" />
    <glyph glyph-name="z" unicode="z" horiz-adv-x="901" 
d="M40 1428l568.001 0.000976562c3.33301 0 16.666 -13.333 39.999 -40c0 -3.33301 -40 -43.333 -120 -120h-408c-3.33301 0 -43.333 40 -120 120c-0 3.33301 13.333 16.666 40 39.999zM692.001 1304c29.333 -90 44.001 -147.332 44.001 -171.999
c-3.33301 -2 -83.333 -138 -240 -408c-31.333 -8 -48.666 -12 -51.999 -12c-28.667 87.333 -43.334 144.666 -44.001 171.999c10 12.667 90 148.667 240 408c31.333 8 48.666 12 51.999 12zM356.002 708.002c29.333 -90 44.002 -147.332 44.002 -171.999
c-3.33301 -2 -83.333 -138 -240 -408l-52 -12c-28.667 87.333 -43.334 144.666 -44.001 171.999c10 12.667 90 148.667 240 408c31.333 8 48.666 12 51.999 12zM264.004 160.003l407.999 -0.000976562c3.33301 0 43.333 -40 120 -120
c0 -3.33301 -13.333 -16.666 -40 -39.999h-568c-3.33301 0 -16.666 13.333 -39.999 40c0 3.33301 40 43.333 120 120z" />
    <glyph glyph-name="braceleft" unicode="{" horiz-adv-x="601" 
d="M432 1428c3.33301 0 16.667 -13.334 40 -40.001v-616c0 -3.33301 -13.333 -16.666 -40 -39.999c-3.33301 0 -43.333 40 -120 120v456c0 3.33301 40 43.333 120 120zM72.001 731.999h292c4 0 12 -8 24 -24c0 -3.33301 -24 -27.333 -72 -72h-292c-4 0 -12 8 -24 24
c0 3.33301 24 27.333 72 72zM432.001 647.999c3.33301 0 16.667 -13.334 40 -40.001v-568c0 -3.33301 -13.333 -16.666 -40 -39.999c-3.33301 0 -43.333 40 -120 120v408c0 3.33301 40 43.333 120 120z" />
    <glyph glyph-name="bar" unicode="|" horiz-adv-x="295" 
d="M120 1104c3.33301 0 16.667 -13.334 40 -40.001v-568c0 -3.33301 -13.333 -16.666 -40 -39.999c-3.33301 0 -43.333 40 -120 120v408c0 3.33301 40 43.333 120 120zM120.001 407.999c3.33301 0 16.667 -13.334 40 -40.001v-568c0 -3.33301 -13.333 -16.666 -40 -39.999
c-3.33301 0 -43.333 40 -120 120v408c0 3.33301 40 43.333 120 120zM120.002 1790c3.33301 0 16.667 -13.334 40 -40.001v-568c0 -3.33301 -13.333 -16.666 -40 -39.999c-3.33301 0 -43.333 40 -120 120v408c0 3.33301 40 43.333 120 120z" />
    <glyph glyph-name="braceright" unicode="}" horiz-adv-x="601" 
d="M160 1308l0.000976562 -455.999c-76.667 -80 -116.667 -120 -120 -120c-26.667 23.333 -40 36.666 -40 39.999v616c23.333 26.667 36.666 40 39.999 40c80 -76.667 120 -116.667 120 -120zM472.001 660.001c-12 -16 -20 -24 -24 -24h-292c-48 44.667 -72 68.667 -72 72
c12 16 20 24 24 24h292c48 -44.667 72 -68.667 72 -72zM160.001 528.001l0.000976562 -407.999c-76.667 -80 -116.667 -120 -120 -120c-26.667 23.333 -40 36.666 -40 39.999v568c23.333 26.667 36.666 40 39.999 40c80 -76.667 120 -116.667 120 -120z" />
    <glyph glyph-name="asciitilde" unicode="~" horiz-adv-x="1002" 
d="M273 1329c2.66699 -10 5.66504 -44.667 8.99805 -104c-107.333 -123.333 -162.666 -185 -165.999 -185l-96 -7c-3.33301 9.33301 -5 21.333 -5 36c148.667 171.333 225 257.333 229 258c2.66699 0 12.334 0.666992 29.001 2zM298.998 1310
c70.667 -4.66699 106.001 -8.66699 106.001 -12c13.333 -18 65.666 -78.333 156.999 -181c-3.33301 -67.333 -7.33301 -101 -12 -101h-29c-27.333 28.667 -103 115.334 -227 260.001c0 11.333 1.66699 22.666 5 33.999zM828.999 1310l2.00098 -5v-31l-224 -258h-29
c-4.66699 0 -8.66699 33.667 -12 101c107.333 124 162.666 186 165.999 186z" />
    <glyph glyph-name="exclamdown" unicode="&#xa1;" horiz-adv-x="311" 
d="M28 -210l0.000976562 484.001c23.333 26.667 36.666 40 39.999 40c80 -76.667 120 -116.667 120 -120v-324c-76.667 -80 -116.667 -120 -120 -120c-26.667 23.333 -40 36.666 -40 39.999zM28.001 406.001l-0.000976562 319.999c76.667 80 116.667 120 120 120
c26.667 -23.333 40 -36.666 40 -39.999v-480c-23.333 -26.667 -36.666 -40 -39.999 -40c-80 76.667 -120 116.667 -120 120zM36 962l0.000976562 4.00098c18 24 34 36 48 36h8c13.333 0 34.666 -18.667 63.999 -56v-4c0 -4.66699 -2.66699 -7.33398 -8 -8.00098h-84
c-18.667 14.667 -28 24 -28 28zM148.001 1022v36c0 3.33301 17.333 19.333 52 48h4c8 -4 12 -8 12 -12v-84c-20.667 -24 -32.667 -36 -36 -36h-4c-18.667 10.667 -28 26.667 -28 48zM0.000976562 1014v84c20.667 24 32.667 36 36 36h8c0 -5.33301 8 -16 24 -32v-52
c-30.667 -34.667 -48 -52 -52 -52c-10.667 6.66699 -16 12 -16 16zM60.001 1162v3.99902c0 5.33301 2.66699 8 8 8h84c21.333 -18 32 -28.667 32 -32c-18 -24 -35.333 -36 -52 -36h-20c-34.667 30.667 -52 49.334 -52 56.001z" />
    <glyph glyph-name="cent" unicode="&#xa2;" horiz-adv-x="1139" 
 />
    <glyph glyph-name="sterling" unicode="&#xa3;" horiz-adv-x="1014" 
 />
    <glyph glyph-name="currency" unicode="&#xa4;" horiz-adv-x="1014" 
 />
    <glyph glyph-name="yen" unicode="&#xa5;" 
 />
    <glyph glyph-name="brokenbar" unicode="&#xa6;" horiz-adv-x="1014" 
 />
    <glyph glyph-name="section" unicode="&#xa7;" horiz-adv-x="1014" 
 />
    <glyph glyph-name="dieresis" unicode="&#xa8;" horiz-adv-x="1024" 
d="M240 1379h8c4 0 36 -32 96 -96v-8c0 -4 -32 -36 -96 -96h-8c-4 0 -36 32 -96 96v8c0 4 32 36 96 96zM830 1375h8c4 0 36 -32 96 -96v-8c0 -4 -32 -36 -96 -96h-8c-4 0 -36 32 -96 96v8c0 4 32 36 96 96z" />
    <glyph glyph-name="copyright" unicode="&#xa9;" horiz-adv-x="1674" 
 />
    <glyph glyph-name="ordfeminine" unicode="&#xaa;" horiz-adv-x="648" 
 />
    <glyph glyph-name="guillemotleft" unicode="&#xab;" horiz-adv-x="944" 
 />
    <glyph glyph-name="logicalnot" unicode="&#xac;" horiz-adv-x="1014" 
 />
    <glyph glyph-name="registered" unicode="&#xae;" horiz-adv-x="1674" 
 />
    <glyph glyph-name="macron" unicode="&#xaf;" horiz-adv-x="670" 
 />
    <glyph glyph-name="degree" unicode="&#xb0;" horiz-adv-x="674" 
d="M259 1437h108c3.33301 0 10 -6.66699 20 -20v-4c0 -3.33301 -21.333 -24.666 -64 -63.999h-108c-3.33301 0 -10 6.66699 -20 20v4c0 3.33301 21.333 24.666 64 63.999zM391 1397h4c3.33301 0 24.666 -21.333 63.999 -64v-108c0 -3.33301 -6.66699 -10 -20 -20h-4
c-3.33301 0 -24.666 21.333 -63.999 64v108c0 3.33301 6.66699 10 20 20zM191 1349h4c3.33301 0 24.666 -21.333 63.999 -64v-108c0 -3.33301 -6.66699 -10 -20 -20h-4c-3.33301 0 -24.666 21.333 -63.999 64v108c0 3.33301 6.66699 10 20 20zM307 1205h108
c3.33301 0 10 -6.66699 20 -20v-4c0 -3.33301 -21.333 -24.666 -64 -63.999h-108c-3.33301 0 -10 6.66699 -20 20v4c0 3.33301 21.333 24.666 64 63.999z" />
    <glyph glyph-name="plusminus" unicode="&#xb1;" horiz-adv-x="806" 
d="M320 1165c3.33301 0 43.333 -39.999 120 -119.999v-232c0 -5.33301 -2.66699 -8 -8 -8h-144c-5.33301 0 -8 2.66699 -8 8v312c0 3.33301 13.333 16.666 40 39.999zM40 765.001l616.001 0.000976562c3.33301 0 16.666 -13.333 39.999 -40
c0 -3.33301 -40 -43.333 -120 -120h-456c-3.33301 0 -43.333 40 -120 120c-0 3.33301 13.333 16.666 40 39.999zM288.001 565.002h143.999c5.33301 -0.666992 8 -3.33398 8 -8.00098v-312c0 -3.33301 -13.333 -16.666 -40 -39.999c-3.33301 0 -43.333 40 -120 120v232
c0.666992 5.33301 3.33398 8 8.00098 8zM89 164.002h472c3.33301 0 30 -26.667 80 -80v-4c0 -3.33301 -26.667 -30 -80 -80h-472c-3.33301 0 -30 26.667 -80 80v4c0 3.33301 26.667 30 80 80z" />
    <glyph glyph-name="uni00B2" unicode="&#xb2;" horiz-adv-x="1014" 
 />
    <glyph glyph-name="uni00B3" unicode="&#xb3;" horiz-adv-x="1014" 
 />
    <glyph glyph-name="acute" unicode="&#xb4;" horiz-adv-x="1024" 
d="M584 1533c6 -8.66699 11.3311 -27.333 15.998 -56c-103.333 -182.667 -160.666 -278.667 -171.999 -288c-14.667 -2.66699 -26.667 -4 -36 -4h-8c-9.33301 0 -25.333 53.333 -48 160c52.667 101.333 87.334 152 104.001 152z" />
    <glyph glyph-name="mu" unicode="&#xb5;" horiz-adv-x="1180" 
 />
    <glyph glyph-name="paragraph" unicode="&#xb6;" horiz-adv-x="1024" 
 />
    <glyph glyph-name="periodcentered" unicode="&#xb7;" horiz-adv-x="508" 
 />
    <glyph glyph-name="periodcentered" unicode="&#x2219;" horiz-adv-x="508" 
 />
    <glyph glyph-name="cedilla" unicode="&#xb8;" horiz-adv-x="1024" 
 />
    <glyph glyph-name="uni00B9" unicode="&#xb9;" horiz-adv-x="1014" 
 />
    <glyph glyph-name="ordmasculine" unicode="&#xba;" horiz-adv-x="718" 
 />
    <glyph glyph-name="guillemotright" unicode="&#xbb;" horiz-adv-x="944" 
 />
    <glyph glyph-name="onequarter" unicode="&#xbc;" horiz-adv-x="1708" 
 />
    <glyph glyph-name="onehalf" unicode="&#xbd;" horiz-adv-x="1964" 
 />
    <glyph glyph-name="threequarters" unicode="&#xbe;" horiz-adv-x="1708" 
 />
    <glyph glyph-name="questiondown" unicode="&#xbf;" horiz-adv-x="802" 
d="M688 0l-568.001 -0.000976562c-3.33301 0 -16.666 13.333 -39.999 40c0 3.33301 40 43.333 120 120h408c3.33301 0 43.333 -40 120 -120c0 -3.33301 -13.333 -16.666 -40 -39.999zM39.999 43.999c-3.33301 0 -16.667 13.334 -40 40.001v568
c0 3.33301 13.333 16.666 40 39.999c3.33301 0 43.333 -40 120 -120v-408c0 -3.33301 -40 -43.333 -120 -120zM631.998 628h-472c-3.33301 0 -30 26.667 -80 80v4c0 3.33301 26.667 30 80 80h472c3.33301 0 30 -26.667 80 -80v-4c0 -3.33301 -26.667 -30 -80 -80z
M647.998 864c-3.33301 0 -31.333 28 -84 84v200c0 3.33301 28 31.333 84 84c3.33301 0 30 -26.667 80 -80v-208c0 -3.33301 -26.667 -30 -80 -80zM651.998 1272h-4c-3.33301 0 -28.666 25.333 -75.999 76v4c0 3.33301 25.333 28.666 76 75.999h4
c3.33301 0 28.666 -25.333 75.999 -76v-4c0 -3.33301 -25.333 -28.666 -76 -75.999z" />
    <glyph glyph-name="Agrave" unicode="&#xc0;" 
d="M120 1428l568.001 0.000976562c3.33301 0 16.666 -13.333 39.999 -40c0 -3.33301 -40 -43.333 -120 -120h-408c-3.33301 0 -43.333 40 -120 120c0 3.33301 13.333 16.666 40 39.999zM764.001 1388c3.33301 0 16.667 -13.334 40 -40.001v-568
c0 -3.33301 -13.333 -16.666 -40 -39.999c-3.33301 0 -43.333 40 -120 120v408c0 3.33301 40 43.333 120 120zM40.002 1384c3.33301 0 43.332 -39.999 119.999 -119.999v-408c0 -3.33301 -40 -43.333 -120 -120c-3.33301 0 -16.666 13.333 -39.999 40v568
c0 3.33301 13.333 16.666 40 39.999zM160.001 800.001h472c3.33301 0 30 -26.667 80 -80v-4c0 -3.33301 -26.667 -30 -80 -80h-472c-3.33301 0 -30 26.667 -80 80v4c0 3.33301 26.667 30 80 80zM40.001 696.001c3.33301 0 43.332 -39.999 119.999 -119.999v-456
c0 -3.33301 -40 -43.333 -120 -120c-3.33301 0 -16.666 13.333 -39.999 40v616c0 3.33301 13.333 16.666 40 39.999zM764 696.002c3.33301 0 16.667 -13.334 40 -40.001v-616c0 -3.33301 -13.333 -16.666 -40 -39.999c-3.33301 0 -43.333 40 -120 120v456
c0 3.33301 40 43.333 120 120zM386.001 1907c16.667 0 51.332 -50.668 103.999 -152.001c-22.667 -106.667 -38.667 -160 -48 -160h-8c-9.33301 0 -21.333 1.33301 -36 4c-11.333 9.33301 -68.666 105.333 -171.999 288c4.66699 28.667 10 47.334 16 56.001z" />
    <glyph glyph-name="Aacute" unicode="&#xc1;" 
d="M120 1428l568.001 0.000976562c3.33301 0 16.666 -13.333 39.999 -40c0 -3.33301 -40 -43.333 -120 -120h-408c-3.33301 0 -43.333 40 -120 120c0 3.33301 13.333 16.666 40 39.999zM764.001 1388c3.33301 0 16.667 -13.334 40 -40.001v-568
c0 -3.33301 -13.333 -16.666 -40 -39.999c-3.33301 0 -43.333 40 -120 120v408c0 3.33301 40 43.333 120 120zM40.002 1384c3.33301 0 43.332 -39.999 119.999 -119.999v-408c0 -3.33301 -40 -43.333 -120 -120c-3.33301 0 -16.666 13.333 -39.999 40v568
c0 3.33301 13.333 16.666 40 39.999zM160.001 800.001h472c3.33301 0 30 -26.667 80 -80v-4c0 -3.33301 -26.667 -30 -80 -80h-472c-3.33301 0 -30 26.667 -80 80v4c0 3.33301 26.667 30 80 80zM40.001 696.001c3.33301 0 43.332 -39.999 119.999 -119.999v-456
c0 -3.33301 -40 -43.333 -120 -120c-3.33301 0 -16.666 13.333 -39.999 40v616c0 3.33301 13.333 16.666 40 39.999zM764 696.002c3.33301 0 16.667 -13.334 40 -40.001v-616c0 -3.33301 -13.333 -16.666 -40 -39.999c-3.33301 0 -43.333 40 -120 120v456
c0 3.33301 40 43.333 120 120zM572.001 1943c6 -8.66699 11.3311 -27.333 15.998 -56c-103.333 -182.667 -160.666 -278.667 -171.999 -288c-14.667 -2.66699 -26.667 -4 -36 -4h-8c-9.33301 0 -25.333 53.333 -48 160c52.667 101.333 87.334 152 104.001 152z" />
    <glyph glyph-name="Acircumflex" unicode="&#xc2;" 
d="M120 1428l568.001 0.000976562c3.33301 0 16.666 -13.333 39.999 -40c0 -3.33301 -40 -43.333 -120 -120h-408c-3.33301 0 -43.333 40 -120 120c0 3.33301 13.333 16.666 40 39.999zM764.001 1388c3.33301 0 16.667 -13.334 40 -40.001v-568
c0 -3.33301 -13.333 -16.666 -40 -39.999c-3.33301 0 -43.333 40 -120 120v408c0 3.33301 40 43.333 120 120zM40.002 1384c3.33301 0 43.332 -39.999 119.999 -119.999v-408c0 -3.33301 -40 -43.333 -120 -120c-3.33301 0 -16.666 13.333 -39.999 40v568
c0 3.33301 13.333 16.666 40 39.999zM160.001 800.001h472c3.33301 0 30 -26.667 80 -80v-4c0 -3.33301 -26.667 -30 -80 -80h-472c-3.33301 0 -30 26.667 -80 80v4c0 3.33301 26.667 30 80 80zM40.001 696.001c3.33301 0 43.332 -39.999 119.999 -119.999v-456
c0 -3.33301 -40 -43.333 -120 -120c-3.33301 0 -16.666 13.333 -39.999 40v616c0 3.33301 13.333 16.666 40 39.999zM764 696.002c3.33301 0 16.667 -13.334 40 -40.001v-616c0 -3.33301 -13.333 -16.666 -40 -39.999c-3.33301 0 -43.333 40 -120 120v456
c0 3.33301 40 43.333 120 120zM386.001 1933c6 -8.66699 11.3311 -27.333 15.998 -56c-103.333 -182.667 -160.666 -278.667 -171.999 -288c-14.667 -2.66699 -26.667 -4 -36 -4h-8c-9.33301 0 -25.333 53.333 -48 160c52.667 101.333 87.334 152 104.001 152zM561.999 1893
c16.667 0 51.332 -50.668 103.999 -152.001c-22.667 -106.667 -38.667 -160 -48 -160h-8c-9.33301 0 -21.333 1.33301 -36 4c-11.333 9.33301 -68.666 105.333 -171.999 288c4.66699 28.667 10 47.334 16 56.001z" />
    <glyph glyph-name="Atilde" unicode="&#xc3;" 
d="M120 1428l568.001 0.000976562c3.33301 0 16.666 -13.333 39.999 -40c0 -3.33301 -40 -43.333 -120 -120h-408c-3.33301 0 -43.333 40 -120 120c0 3.33301 13.333 16.666 40 39.999zM764.001 1388c3.33301 0 16.667 -13.334 40 -40.001v-568
c0 -3.33301 -13.333 -16.666 -40 -39.999c-3.33301 0 -43.333 40 -120 120v408c0 3.33301 40 43.333 120 120zM40.002 1384c3.33301 0 43.332 -39.999 119.999 -119.999v-408c0 -3.33301 -40 -43.333 -120 -120c-3.33301 0 -16.666 13.333 -39.999 40v568
c0 3.33301 13.333 16.666 40 39.999zM160.001 800.001h472c3.33301 0 30 -26.667 80 -80v-4c0 -3.33301 -26.667 -30 -80 -80h-472c-3.33301 0 -30 26.667 -80 80v4c0 3.33301 26.667 30 80 80zM40.001 696.001c3.33301 0 43.332 -39.999 119.999 -119.999v-456
c0 -3.33301 -40 -43.333 -120 -120c-3.33301 0 -16.666 13.333 -39.999 40v616c0 3.33301 13.333 16.666 40 39.999zM764 696.002c3.33301 0 16.667 -13.334 40 -40.001v-616c0 -3.33301 -13.333 -16.666 -40 -39.999c-3.33301 0 -43.333 40 -120 120v456
c0 3.33301 40 43.333 120 120zM230.001 1945c6 -8.66699 11.3311 -27.333 15.998 -56c-103.333 -182.667 -160.666 -278.667 -171.999 -288c-14.667 -2.66699 -26.667 -4 -36 -4h-8c-9.33301 0 -25.333 53.333 -48 160c52.667 101.333 87.334 152 104.001 152zM285.999 1945
c112 -26.667 167.999 -45.334 167.999 -56.001c50.667 -87.333 76 -132.666 76 -135.999c-23.333 -104 -39.333 -156 -48 -156h-8c-31.333 0 -51.333 10.667 -60 32c-98.667 170.667 -148 260 -148 268c6.66699 32 13.334 48 20.001 48zM805.998 1945
c6 -8.66699 11.3311 -27.333 15.998 -56c-103.333 -182.667 -160.666 -278.667 -171.999 -288c-14.667 -2.66699 -26.667 -4 -36 -4h-8c-9.33301 0 -25.333 53.333 -48 160c52.667 101.333 87.334 152 104.001 152z" />
    <glyph glyph-name="Adieresis" unicode="&#xc4;" 
d="M120 1428l568.001 0.000976562c3.33301 0 16.666 -13.333 39.999 -40c0 -3.33301 -40 -43.333 -120 -120h-408c-3.33301 0 -43.333 40 -120 120c0 3.33301 13.333 16.666 40 39.999zM764.001 1388c3.33301 0 16.667 -13.334 40 -40.001v-568
c0 -3.33301 -13.333 -16.666 -40 -39.999c-3.33301 0 -43.333 40 -120 120v408c0 3.33301 40 43.333 120 120zM40.002 1384c3.33301 0 43.332 -39.999 119.999 -119.999v-408c0 -3.33301 -40 -43.333 -120 -120c-3.33301 0 -16.666 13.333 -39.999 40v568
c0 3.33301 13.333 16.666 40 39.999zM160.001 800.001h472c3.33301 0 30 -26.667 80 -80v-4c0 -3.33301 -26.667 -30 -80 -80h-472c-3.33301 0 -30 26.667 -80 80v4c0 3.33301 26.667 30 80 80zM40.001 696.001c3.33301 0 43.332 -39.999 119.999 -119.999v-456
c0 -3.33301 -40 -43.333 -120 -120c-3.33301 0 -16.666 13.333 -39.999 40v616c0 3.33301 13.333 16.666 40 39.999zM764 696.002c3.33301 0 16.667 -13.334 40 -40.001v-616c0 -3.33301 -13.333 -16.666 -40 -39.999c-3.33301 0 -43.333 40 -120 120v456
c0 3.33301 40 43.333 120 120zM143.001 1789h8c4 0 36 -32 96 -96v-8c0 -4 -32 -36 -96 -96h-8c-4 0 -36 32 -96 96v8c0 4 32 36 96 96zM733.001 1785h8c4 0 36 -32 96 -96v-8c0 -4 -32 -36 -96 -96h-8c-4 0 -36 32 -96 96v8c0 4 32 36 96 96z" />
    <glyph glyph-name="Aring" unicode="&#xc5;" 
d="M120 1428l568.001 0.000976562c3.33301 0 16.666 -13.333 39.999 -40c0 -3.33301 -40 -43.333 -120 -120h-408c-3.33301 0 -43.333 40 -120 120c0 3.33301 13.333 16.666 40 39.999zM764.001 1388c3.33301 0 16.667 -13.334 40 -40.001v-568
c0 -3.33301 -13.333 -16.666 -40 -39.999c-3.33301 0 -43.333 40 -120 120v408c0 3.33301 40 43.333 120 120zM40.002 1384c3.33301 0 43.332 -39.999 119.999 -119.999v-408c0 -3.33301 -40 -43.333 -120 -120c-3.33301 0 -16.666 13.333 -39.999 40v568
c0 3.33301 13.333 16.666 40 39.999zM160.001 800.001h472c3.33301 0 30 -26.667 80 -80v-4c0 -3.33301 -26.667 -30 -80 -80h-472c-3.33301 0 -30 26.667 -80 80v4c0 3.33301 26.667 30 80 80zM40.001 696.001c3.33301 0 43.332 -39.999 119.999 -119.999v-456
c0 -3.33301 -40 -43.333 -120 -120c-3.33301 0 -16.666 13.333 -39.999 40v616c0 3.33301 13.333 16.666 40 39.999zM764 696.002c3.33301 0 16.667 -13.334 40 -40.001v-616c0 -3.33301 -13.333 -16.666 -40 -39.999c-3.33301 0 -43.333 40 -120 120v456
c0 3.33301 40 43.333 120 120zM398.001 1795h8c4 0 36 -32 96 -96v-8c0 -4 -32 -36 -96 -96h-8c-4 0 -36 32 -96 96v8c0 4 32 36 96 96z" />
    <glyph glyph-name="AE" unicode="&#xc6;" horiz-adv-x="1609" 
d="M120 1428l568.001 0.000976562c3.33301 0 16.666 -13.333 39.999 -40c0 -3.33301 -40 -43.333 -120 -120h-408c-3.33301 0 -43.333 40 -120 120c0 3.33301 13.333 16.666 40 39.999zM764.001 1388c3.33301 0 16.667 -13.334 40 -40.001v-568
c0 -3.33301 -13.333 -16.666 -40 -39.999c-3.33301 0 -43.333 40 -120 120v408c0 3.33301 40 43.333 120 120zM40.002 1384c3.33301 0 43.332 -39.999 119.999 -119.999v-408c0 -3.33301 -40 -43.333 -120 -120c-3.33301 0 -16.666 13.333 -39.999 40v568
c0 3.33301 13.333 16.666 40 39.999zM160.001 800.001h472c3.33301 0 30 -26.667 80 -80v-4c0 -3.33301 -26.667 -30 -80 -80h-472c-3.33301 0 -30 26.667 -80 80v4c0 3.33301 26.667 30 80 80zM40.001 696.001c3.33301 0 43.332 -39.999 119.999 -119.999v-456
c0 -3.33301 -40 -43.333 -120 -120c-3.33301 0 -16.666 13.333 -39.999 40v616c0 3.33301 13.333 16.666 40 39.999zM764 696.002c3.33301 0 16.667 -13.334 40 -40.001v-616c0 -3.33301 -13.333 -16.666 -40 -39.999c-3.33301 0 -43.333 40 -120 120v456
c0 3.33301 40 43.333 120 120zM860.001 1428l568.001 0.000976562c3.33301 0 16.666 -13.333 39.999 -40c0 -3.33301 -40 -43.333 -120 -120h-408c-3.33301 0 -43.333 40 -120 120c0 3.33301 13.333 16.666 40 39.999zM900.002 800.002h472c3.33301 0 30 -26.667 80 -80v-4
c0 -3.33301 -26.667 -30 -80 -80h-472c-3.33301 0 -30 26.667 -80 80v4c0 3.33301 26.667 30 80 80zM936.002 160.002l407.999 -0.000976562c3.33301 0 43.333 -40 120 -120c0 -3.33301 -13.333 -16.666 -40 -39.999h-568c-3.33301 0 -16.666 13.333 -39.999 40
c0 3.33301 40 43.333 120 120z" />
    <glyph glyph-name="Ccedilla" unicode="&#xc7;" horiz-adv-x="1399" 
 />
    <glyph glyph-name="Egrave" unicode="&#xc8;" 
d="M120 1428l568.001 0.000976562c3.33301 0 16.666 -13.333 39.999 -40c0 -3.33301 -40 -43.333 -120 -120h-408c-3.33301 0 -43.333 40 -120 120c0 3.33301 13.333 16.666 40 39.999zM40.001 1384c3.33301 0 43.332 -39.999 119.999 -119.999v-408
c0 -3.33301 -40 -43.333 -120 -120c-3.33301 0 -16.666 13.333 -39.999 40v568c0 3.33301 13.333 16.666 40 39.999zM160 800.002h472c3.33301 0 30 -26.667 80 -80v-4c0 -3.33301 -26.667 -30 -80 -80h-472c-3.33301 0 -30 26.667 -80 80v4c0 3.33301 26.667 30 80 80z
M40 696.002c3.33301 0 43.332 -39.999 119.999 -119.999v-408c0 -3.33301 -40 -43.333 -120 -120c-3.33301 0 -16.666 13.333 -39.999 40v568c-0 3.33301 13.333 16.666 40 39.999zM195.999 160.003l407.999 -0.000976562c3.33301 0 43.333 -40 120 -120
c0 -3.33301 -13.333 -16.666 -40 -39.999h-568c-3.33301 0 -16.666 13.333 -39.999 40c0 3.33301 40 43.333 120 120zM347.998 1907c16.667 0 51.332 -50.668 103.999 -152.001c-22.667 -106.667 -38.667 -160 -48 -160h-8c-9.33301 0 -21.333 1.33301 -36 4
c-11.333 9.33301 -68.666 105.333 -171.999 288c4.66699 28.667 10 47.334 16 56.001z" />
    <glyph glyph-name="Eacute" unicode="&#xc9;" 
d="M120 1428l568.001 0.000976562c3.33301 0 16.666 -13.333 39.999 -40c0 -3.33301 -40 -43.333 -120 -120h-408c-3.33301 0 -43.333 40 -120 120c0 3.33301 13.333 16.666 40 39.999zM40.001 1384c3.33301 0 43.332 -39.999 119.999 -119.999v-408
c0 -3.33301 -40 -43.333 -120 -120c-3.33301 0 -16.666 13.333 -39.999 40v568c0 3.33301 13.333 16.666 40 39.999zM160 800.002h472c3.33301 0 30 -26.667 80 -80v-4c0 -3.33301 -26.667 -30 -80 -80h-472c-3.33301 0 -30 26.667 -80 80v4c0 3.33301 26.667 30 80 80z
M40 696.002c3.33301 0 43.332 -39.999 119.999 -119.999v-408c0 -3.33301 -40 -43.333 -120 -120c-3.33301 0 -16.666 13.333 -39.999 40v568c-0 3.33301 13.333 16.666 40 39.999zM195.999 160.003l407.999 -0.000976562c3.33301 0 43.333 -40 120 -120
c0 -3.33301 -13.333 -16.666 -40 -39.999h-568c-3.33301 0 -16.666 13.333 -39.999 40c0 3.33301 40 43.333 120 120zM533.998 1943c6 -8.66699 11.3311 -27.333 15.998 -56c-103.333 -182.667 -160.666 -278.667 -171.999 -288c-14.667 -2.66699 -26.667 -4 -36 -4h-8
c-9.33301 0 -25.333 53.333 -48 160c52.667 101.333 87.334 152 104.001 152z" />
    <glyph glyph-name="Ecircumflex" unicode="&#xca;" 
d="M120 1428l568.001 0.000976562c3.33301 0 16.666 -13.333 39.999 -40c0 -3.33301 -40 -43.333 -120 -120h-408c-3.33301 0 -43.333 40 -120 120c0 3.33301 13.333 16.666 40 39.999zM40.001 1384c3.33301 0 43.332 -39.999 119.999 -119.999v-408
c0 -3.33301 -40 -43.333 -120 -120c-3.33301 0 -16.666 13.333 -39.999 40v568c0 3.33301 13.333 16.666 40 39.999zM160 800.002h472c3.33301 0 30 -26.667 80 -80v-4c0 -3.33301 -26.667 -30 -80 -80h-472c-3.33301 0 -30 26.667 -80 80v4c0 3.33301 26.667 30 80 80z
M40 696.002c3.33301 0 43.332 -39.999 119.999 -119.999v-408c0 -3.33301 -40 -43.333 -120 -120c-3.33301 0 -16.666 13.333 -39.999 40v568c-0 3.33301 13.333 16.666 40 39.999zM195.999 160.003l407.999 -0.000976562c3.33301 0 43.333 -40 120 -120
c0 -3.33301 -13.333 -16.666 -40 -39.999h-568c-3.33301 0 -16.666 13.333 -39.999 40c0 3.33301 40 43.333 120 120zM347.998 1933c6 -8.66699 11.3311 -27.333 15.998 -56c-103.333 -182.667 -160.666 -278.667 -171.999 -288c-14.667 -2.66699 -26.667 -4 -36 -4h-8
c-9.33301 0 -25.333 53.333 -48 160c52.667 101.333 87.334 152 104.001 152zM523.996 1893c16.667 0 51.332 -50.668 103.999 -152.001c-22.667 -106.667 -38.667 -160 -48 -160h-8c-9.33301 0 -21.333 1.33301 -36 4c-11.333 9.33301 -68.666 105.333 -171.999 288
c4.66699 28.667 10 47.334 16 56.001z" />
    <glyph glyph-name="Edieresis" unicode="&#xcb;" 
d="M89 1428l568.001 0.000976562c3.33301 0 16.666 -13.333 39.999 -40c0 -3.33301 -40 -43.333 -120 -120h-408c-3.33301 0 -43.333 40 -120 120c0 3.33301 13.333 16.666 40 39.999zM9.00098 1384c3.33301 0 43.332 -39.999 119.999 -119.999v-408
c0 -3.33301 -40 -43.333 -120 -120c-3.33301 0 -16.666 13.333 -39.999 40v568c0 3.33301 13.333 16.666 40 39.999zM129 800.002h472c3.33301 0 30 -26.667 80 -80v-4c0 -3.33301 -26.667 -30 -80 -80h-472c-3.33301 0 -30 26.667 -80 80v4c0 3.33301 26.667 30 80 80z
M9 696.002c3.33301 0 43.332 -39.999 119.999 -119.999v-408c0 -3.33301 -40 -43.333 -120 -120c-3.33301 0 -16.666 13.333 -39.999 40v568c0 3.33301 13.333 16.666 40 39.999zM164.999 160.003l407.999 -0.000976562c3.33301 0 43.333 -40 120 -120
c0 -3.33301 -13.333 -16.666 -40 -39.999h-568c-3.33301 0 -16.666 13.333 -39.999 40c0 3.33301 40 43.333 120 120zM73.998 1789h8c4 0 36 -32 96 -96v-8c0 -4 -32 -36 -96 -96h-8c-4 0 -36 32 -96 96v8c0 4 32 36 96 96zM663.998 1785h8c4 0 36 -32 96 -96v-8
c0 -4 -32 -36 -96 -96h-8c-4 0 -36 32 -96 96v8c0 4 32 36 96 96z" />
    <glyph glyph-name="Igrave" unicode="&#xcc;" horiz-adv-x="279" 
d="M40 1428c3.33301 0 43.332 -39.999 119.999 -119.999v-456c0 -3.33301 -40 -43.333 -120 -120c-3.33301 0 -16.666 13.333 -39.999 40v616c-0 3.33301 13.333 16.666 40 39.999zM119.999 696.001c3.33301 0 16.667 -13.334 40 -40.001v-616
c0 -3.33301 -13.333 -16.666 -40 -39.999c-3.33301 0 -43.333 40 -120 120v456c0 3.33301 40 43.333 120 120zM64 1907c16.667 0 51.332 -50.668 103.999 -152.001c-22.667 -106.667 -38.667 -160 -48 -160h-8c-9.33301 0 -21.333 1.33301 -36 4
c-11.333 9.33301 -68.666 105.333 -171.999 288c4.66699 28.667 10 47.334 16 56.001z" />
    <glyph glyph-name="Iacute" unicode="&#xcd;" horiz-adv-x="279" 
d="M32 1428c3.33301 0 43.332 -39.999 119.999 -119.999v-456c0 -3.33301 -40 -43.333 -120 -120c-3.33301 0 -16.666 13.333 -39.999 40v616c0 3.33301 13.333 16.666 40 39.999zM111.999 696.001c3.33301 0 16.667 -13.334 40 -40.001v-616
c0 -3.33301 -13.333 -16.666 -40 -39.999c-3.33301 0 -43.333 40 -120 120v456c0 3.33301 40 43.333 120 120zM242 1943c6 -8.66699 11.3311 -27.333 15.998 -56c-103.333 -182.667 -160.666 -278.667 -171.999 -288c-14.667 -2.66699 -26.667 -4 -36 -4h-8
c-9.33301 0 -25.333 53.333 -48 160c52.667 101.333 87.334 152 104.001 152z" />
    <glyph glyph-name="Icircumflex" unicode="&#xce;" horiz-adv-x="279" 
d="M40 1428c3.33301 0 43.332 -39.999 119.999 -119.999v-456c0 -3.33301 -40 -43.333 -120 -120c-3.33301 0 -16.666 13.333 -39.999 40v616c-0 3.33301 13.333 16.666 40 39.999zM119.999 696.001c3.33301 0 16.667 -13.334 40 -40.001v-616
c0 -3.33301 -13.333 -16.666 -40 -39.999c-3.33301 0 -43.333 40 -120 120v456c0 3.33301 40 43.333 120 120zM64 1933c6 -8.66699 11.3311 -27.333 15.998 -56c-103.333 -182.667 -160.666 -278.667 -171.999 -288c-14.667 -2.66699 -26.667 -4 -36 -4h-8
c-9.33301 0 -25.333 53.333 -48 160c52.667 101.333 87.334 152 104.001 152zM239.998 1893c16.667 0 51.332 -50.668 103.999 -152.001c-22.667 -106.667 -38.667 -160 -48 -160h-8c-9.33301 0 -21.333 1.33301 -36 4c-11.333 9.33301 -68.666 105.333 -171.999 288
c4.66699 28.667 10 47.334 16 56.001z" />
    <glyph glyph-name="Idieresis" unicode="&#xcf;" horiz-adv-x="279" 
d="M0 1428c3.33301 0 43.332 -39.999 119.999 -119.999v-456c0 -3.33301 -40 -43.333 -120 -120c-3.33301 0 -16.666 13.333 -39.999 40v616c0 3.33301 13.333 16.666 40 39.999zM79.999 696.001c3.33301 0 16.667 -13.334 40 -40.001v-616
c0 -3.33301 -13.333 -16.666 -40 -39.999c-3.33301 0 -43.333 40 -120 120v456c0 3.33301 40 43.333 120 120zM-219 1789h8c4 0 36 -32 96 -96v-8c0 -4 -32 -36 -96 -96h-8c-4 0 -36 32 -96 96v8c0 4 32 36 96 96zM371 1785h8c4 0 36 -32 96 -96v-8c0 -4 -32 -36 -96 -96h-8
c-4 0 -36 32 -96 96v8c0 4 32 36 96 96z" />
    <glyph glyph-name="Eth" unicode="&#xd0;" horiz-adv-x="1518" 
 />
    <glyph glyph-name="Ntilde" unicode="&#xd1;" 
d="M40 1428c3.33301 0 43.332 -39.999 119.999 -119.999v-456c0 -3.33301 -40 -43.333 -120 -120c-3.33301 0 -16.666 13.333 -39.999 40v616c-0 3.33301 13.333 16.666 40 39.999zM763.999 1428c3.33301 0 16.667 -13.334 40 -40.001v-616
c0 -3.33301 -13.333 -16.666 -40 -39.999c-3.33301 0 -43.333 40 -120 120v456c0 3.33301 40 43.333 120 120zM204 1264l47.999 0.000976562c51.333 -42.667 139.333 -129.334 264 -260.001c7.33301 0 35.333 -26.667 84 -80v-160c0 -5.33301 -2.66699 -8 -8 -8h-48
c-2.66699 0 -4 1.33301 -4 4l-8 -4l-336 340v160c0.666992 5.33301 3.33398 8 8.00098 8zM39.999 696.001c3.33301 0 43.332 -39.999 119.999 -119.999v-456c0 -3.33301 -40 -43.333 -120 -120c-3.33301 0 -16.666 13.333 -39.999 40v616c0 3.33301 13.333 16.666 40 39.999
zM763.998 696.002c3.33301 0 16.667 -13.334 40 -40.001v-616c0 -3.33301 -13.333 -16.666 -40 -39.999c-3.33301 0 -43.333 40 -120 120v456c0 3.33301 40 43.333 120 120zM229.999 1945c6 -8.66699 11.3311 -27.333 15.998 -56
c-103.333 -182.667 -160.666 -278.667 -171.999 -288c-14.667 -2.66699 -26.667 -4 -36 -4h-8c-9.33301 0 -25.333 53.333 -48 160c52.667 101.333 87.334 152 104.001 152zM285.997 1945c112 -26.667 167.999 -45.334 167.999 -56.001
c50.667 -87.333 76 -132.666 76 -135.999c-23.333 -104 -39.333 -156 -48 -156h-8c-31.333 0 -51.333 10.667 -60 32c-98.667 170.667 -148 260 -148 268c6.66699 32 13.334 48 20.001 48zM805.996 1945c6 -8.66699 11.3311 -27.333 15.998 -56
c-103.333 -182.667 -160.666 -278.667 -171.999 -288c-14.667 -2.66699 -26.667 -4 -36 -4h-8c-9.33301 0 -25.333 53.333 -48 160c52.667 101.333 87.334 152 104.001 152z" />
    <glyph glyph-name="Ograve" unicode="&#xd2;" 
d="M120 1428l568.001 0.000976562c3.33301 0 16.666 -13.333 39.999 -40c0 -3.33301 -40 -43.333 -120 -120h-408c-3.33301 0 -43.333 40 -120 120c0 3.33301 13.333 16.666 40 39.999zM764.001 1388c3.33301 0 16.667 -13.334 40 -40.001v-568
c0 -3.33301 -13.333 -16.666 -40 -39.999c-3.33301 0 -43.333 40 -120 120v408c0 3.33301 40 43.333 120 120zM40.002 1384c3.33301 0 43.332 -39.999 119.999 -119.999v-408c0 -3.33301 -40 -43.333 -120 -120c-3.33301 0 -16.666 13.333 -39.999 40v568
c0 3.33301 13.333 16.666 40 39.999zM40.001 696.001c3.33301 0 43.332 -39.999 119.999 -119.999v-408c0 -3.33301 -40 -43.333 -120 -120c-3.33301 0 -16.666 13.333 -39.999 40v568c0 3.33301 13.333 16.666 40 39.999zM764 692.002c3.33301 0 16.667 -13.334 40 -40.001
v-568c0 -3.33301 -13.333 -16.666 -40 -39.999c-3.33301 0 -43.333 40 -120 120v408c0 3.33301 40 43.333 120 120zM196.001 160.001l407.999 -0.000976562c3.33301 0 43.333 -40 120 -120c0 -3.33301 -13.333 -16.666 -40 -39.999h-568
c-3.33301 0 -16.666 13.333 -39.999 40c0 3.33301 40 43.333 120 120zM386 1907c16.667 0 51.332 -50.668 103.999 -152.001c-22.667 -106.667 -38.667 -160 -48 -160h-8c-9.33301 0 -21.333 1.33301 -36 4c-11.333 9.33301 -68.666 105.333 -171.999 288
c4.66699 28.667 10 47.334 16 56.001z" />
    <glyph glyph-name="Oacute" unicode="&#xd3;" 
d="M120 1428l568.001 0.000976562c3.33301 0 16.666 -13.333 39.999 -40c0 -3.33301 -40 -43.333 -120 -120h-408c-3.33301 0 -43.333 40 -120 120c0 3.33301 13.333 16.666 40 39.999zM764.001 1388c3.33301 0 16.667 -13.334 40 -40.001v-568
c0 -3.33301 -13.333 -16.666 -40 -39.999c-3.33301 0 -43.333 40 -120 120v408c0 3.33301 40 43.333 120 120zM40.002 1384c3.33301 0 43.332 -39.999 119.999 -119.999v-408c0 -3.33301 -40 -43.333 -120 -120c-3.33301 0 -16.666 13.333 -39.999 40v568
c0 3.33301 13.333 16.666 40 39.999zM40.001 696.001c3.33301 0 43.332 -39.999 119.999 -119.999v-408c0 -3.33301 -40 -43.333 -120 -120c-3.33301 0 -16.666 13.333 -39.999 40v568c0 3.33301 13.333 16.666 40 39.999zM764 692.002c3.33301 0 16.667 -13.334 40 -40.001
v-568c0 -3.33301 -13.333 -16.666 -40 -39.999c-3.33301 0 -43.333 40 -120 120v408c0 3.33301 40 43.333 120 120zM196.001 160.001l407.999 -0.000976562c3.33301 0 43.333 -40 120 -120c0 -3.33301 -13.333 -16.666 -40 -39.999h-568
c-3.33301 0 -16.666 13.333 -39.999 40c0 3.33301 40 43.333 120 120zM572 1943c6 -8.66699 11.3311 -27.333 15.998 -56c-103.333 -182.667 -160.666 -278.667 -171.999 -288c-14.667 -2.66699 -26.667 -4 -36 -4h-8c-9.33301 0 -25.333 53.333 -48 160
c52.667 101.333 87.334 152 104.001 152z" />
    <glyph glyph-name="Ocircumflex" unicode="&#xd4;" 
d="M120 1428l568.001 0.000976562c3.33301 0 16.666 -13.333 39.999 -40c0 -3.33301 -40 -43.333 -120 -120h-408c-3.33301 0 -43.333 40 -120 120c0 3.33301 13.333 16.666 40 39.999zM764.001 1388c3.33301 0 16.667 -13.334 40 -40.001v-568
c0 -3.33301 -13.333 -16.666 -40 -39.999c-3.33301 0 -43.333 40 -120 120v408c0 3.33301 40 43.333 120 120zM40.002 1384c3.33301 0 43.332 -39.999 119.999 -119.999v-408c0 -3.33301 -40 -43.333 -120 -120c-3.33301 0 -16.666 13.333 -39.999 40v568
c0 3.33301 13.333 16.666 40 39.999zM40.001 696.001c3.33301 0 43.332 -39.999 119.999 -119.999v-408c0 -3.33301 -40 -43.333 -120 -120c-3.33301 0 -16.666 13.333 -39.999 40v568c0 3.33301 13.333 16.666 40 39.999zM764 692.002c3.33301 0 16.667 -13.334 40 -40.001
v-568c0 -3.33301 -13.333 -16.666 -40 -39.999c-3.33301 0 -43.333 40 -120 120v408c0 3.33301 40 43.333 120 120zM196.001 160.001l407.999 -0.000976562c3.33301 0 43.333 -40 120 -120c0 -3.33301 -13.333 -16.666 -40 -39.999h-568
c-3.33301 0 -16.666 13.333 -39.999 40c0 3.33301 40 43.333 120 120zM386 1933c6 -8.66699 11.3311 -27.333 15.998 -56c-103.333 -182.667 -160.666 -278.667 -171.999 -288c-14.667 -2.66699 -26.667 -4 -36 -4h-8c-9.33301 0 -25.333 53.333 -48 160
c52.667 101.333 87.334 152 104.001 152zM561.998 1893c16.667 0 51.332 -50.668 103.999 -152.001c-22.667 -106.667 -38.667 -160 -48 -160h-8c-9.33301 0 -21.333 1.33301 -36 4c-11.333 9.33301 -68.666 105.333 -171.999 288c4.66699 28.667 10 47.334 16 56.001z" />
    <glyph glyph-name="Otilde" unicode="&#xd5;" 
d="M120 1428l568.001 0.000976562c3.33301 0 16.666 -13.333 39.999 -40c0 -3.33301 -40 -43.333 -120 -120h-408c-3.33301 0 -43.333 40 -120 120c0 3.33301 13.333 16.666 40 39.999zM764.001 1388c3.33301 0 16.667 -13.334 40 -40.001v-568
c0 -3.33301 -13.333 -16.666 -40 -39.999c-3.33301 0 -43.333 40 -120 120v408c0 3.33301 40 43.333 120 120zM40.002 1384c3.33301 0 43.332 -39.999 119.999 -119.999v-408c0 -3.33301 -40 -43.333 -120 -120c-3.33301 0 -16.666 13.333 -39.999 40v568
c0 3.33301 13.333 16.666 40 39.999zM40.001 696.001c3.33301 0 43.332 -39.999 119.999 -119.999v-408c0 -3.33301 -40 -43.333 -120 -120c-3.33301 0 -16.666 13.333 -39.999 40v568c0 3.33301 13.333 16.666 40 39.999zM764 692.002c3.33301 0 16.667 -13.334 40 -40.001
v-568c0 -3.33301 -13.333 -16.666 -40 -39.999c-3.33301 0 -43.333 40 -120 120v408c0 3.33301 40 43.333 120 120zM196.001 160.001l407.999 -0.000976562c3.33301 0 43.333 -40 120 -120c0 -3.33301 -13.333 -16.666 -40 -39.999h-568
c-3.33301 0 -16.666 13.333 -39.999 40c0 3.33301 40 43.333 120 120zM230 1945c6 -8.66699 11.3311 -27.333 15.998 -56c-103.333 -182.667 -160.666 -278.667 -171.999 -288c-14.667 -2.66699 -26.667 -4 -36 -4h-8c-9.33301 0 -25.333 53.333 -48 160
c52.667 101.333 87.334 152 104.001 152zM285.998 1945c112 -26.667 167.999 -45.334 167.999 -56.001c50.667 -87.333 76 -132.666 76 -135.999c-23.333 -104 -39.333 -156 -48 -156h-8c-31.333 0 -51.333 10.667 -60 32c-98.667 170.667 -148 260 -148 268
c6.66699 32 13.334 48 20.001 48zM805.997 1945c6 -8.66699 11.3311 -27.333 15.998 -56c-103.333 -182.667 -160.666 -278.667 -171.999 -288c-14.667 -2.66699 -26.667 -4 -36 -4h-8c-9.33301 0 -25.333 53.333 -48 160c52.667 101.333 87.334 152 104.001 152z" />
    <glyph glyph-name="Odieresis" unicode="&#xd6;" 
d="M120 1428l568.001 0.000976562c3.33301 0 16.666 -13.333 39.999 -40c0 -3.33301 -40 -43.333 -120 -120h-408c-3.33301 0 -43.333 40 -120 120c0 3.33301 13.333 16.666 40 39.999zM764.001 1388c3.33301 0 16.667 -13.334 40 -40.001v-568
c0 -3.33301 -13.333 -16.666 -40 -39.999c-3.33301 0 -43.333 40 -120 120v408c0 3.33301 40 43.333 120 120zM40.002 1384c3.33301 0 43.332 -39.999 119.999 -119.999v-408c0 -3.33301 -40 -43.333 -120 -120c-3.33301 0 -16.666 13.333 -39.999 40v568
c0 3.33301 13.333 16.666 40 39.999zM40.001 696.001c3.33301 0 43.332 -39.999 119.999 -119.999v-408c0 -3.33301 -40 -43.333 -120 -120c-3.33301 0 -16.666 13.333 -39.999 40v568c0 3.33301 13.333 16.666 40 39.999zM764 692.002c3.33301 0 16.667 -13.334 40 -40.001
v-568c0 -3.33301 -13.333 -16.666 -40 -39.999c-3.33301 0 -43.333 40 -120 120v408c0 3.33301 40 43.333 120 120zM196.001 160.001l407.999 -0.000976562c3.33301 0 43.333 -40 120 -120c0 -3.33301 -13.333 -16.666 -40 -39.999h-568
c-3.33301 0 -16.666 13.333 -39.999 40c0 3.33301 40 43.333 120 120zM143 1789h8c4 0 36 -32 96 -96v-8c0 -4 -32 -36 -96 -96h-8c-4 0 -36 32 -96 96v8c0 4 32 36 96 96zM733 1785h8c4 0 36 -32 96 -96v-8c0 -4 -32 -36 -96 -96h-8c-4 0 -36 32 -96 96v8c0 4 32 36 96 96z
" />
    <glyph glyph-name="multiply" unicode="&#xd7;" horiz-adv-x="1014" 
 />
    <glyph glyph-name="Oslash" unicode="&#xd8;" horiz-adv-x="1614" 
 />
    <glyph glyph-name="Ugrave" unicode="&#xd9;" 
d="M40 1428c3.33301 0 43.332 -39.999 119.999 -119.999v-456c0 -3.33301 -40 -43.333 -120 -120c-3.33301 0 -16.666 13.333 -39.999 40v616c-0 3.33301 13.333 16.666 40 39.999zM763.999 1428c3.33301 0 16.667 -13.334 40 -40.001v-616
c0 -3.33301 -13.333 -16.666 -40 -39.999c-3.33301 0 -43.333 40 -120 120v456c0 3.33301 40 43.333 120 120zM40 692c3.33301 0 43.332 -39.999 119.999 -119.999v-408c0 -3.33301 -40 -43.333 -120 -120c-3.33301 0 -16.666 13.333 -39.999 40v568
c-0 3.33301 13.333 16.666 40 39.999zM763.999 688.001c3.33301 0 16.667 -13.334 40 -40.001v-568c0 -3.33301 -13.333 -16.666 -40 -39.999c-3.33301 0 -43.333 40 -120 120v408c0 3.33301 40 43.333 120 120zM200 160l407.999 -0.000976562
c3.33301 0 43.333 -40 120 -120c0 -3.33301 -13.333 -16.666 -40 -39.999h-568c-3.33301 -0 -16.666 13.333 -39.999 40c0 3.33301 40 43.333 120 120zM385.999 1907c16.667 0 51.332 -50.668 103.999 -152.001c-22.667 -106.667 -38.667 -160 -48 -160h-8
c-9.33301 0 -21.333 1.33301 -36 4c-11.333 9.33301 -68.666 105.333 -171.999 288c4.66699 28.667 10 47.334 16 56.001z" />
    <glyph glyph-name="Uacute" unicode="&#xda;" 
d="M40 1428c3.33301 0 43.332 -39.999 119.999 -119.999v-456c0 -3.33301 -40 -43.333 -120 -120c-3.33301 0 -16.666 13.333 -39.999 40v616c-0 3.33301 13.333 16.666 40 39.999zM763.999 1428c3.33301 0 16.667 -13.334 40 -40.001v-616
c0 -3.33301 -13.333 -16.666 -40 -39.999c-3.33301 0 -43.333 40 -120 120v456c0 3.33301 40 43.333 120 120zM40 692c3.33301 0 43.332 -39.999 119.999 -119.999v-408c0 -3.33301 -40 -43.333 -120 -120c-3.33301 0 -16.666 13.333 -39.999 40v568
c-0 3.33301 13.333 16.666 40 39.999zM763.999 688.001c3.33301 0 16.667 -13.334 40 -40.001v-568c0 -3.33301 -13.333 -16.666 -40 -39.999c-3.33301 0 -43.333 40 -120 120v408c0 3.33301 40 43.333 120 120zM200 160l407.999 -0.000976562
c3.33301 0 43.333 -40 120 -120c0 -3.33301 -13.333 -16.666 -40 -39.999h-568c-3.33301 -0 -16.666 13.333 -39.999 40c0 3.33301 40 43.333 120 120zM571.999 1943c6 -8.66699 11.3311 -27.333 15.998 -56c-103.333 -182.667 -160.666 -278.667 -171.999 -288
c-14.667 -2.66699 -26.667 -4 -36 -4h-8c-9.33301 0 -25.333 53.333 -48 160c52.667 101.333 87.334 152 104.001 152z" />
    <glyph glyph-name="Ucircumflex" unicode="&#xdb;" 
d="M40 1428c3.33301 0 43.332 -39.999 119.999 -119.999v-456c0 -3.33301 -40 -43.333 -120 -120c-3.33301 0 -16.666 13.333 -39.999 40v616c-0 3.33301 13.333 16.666 40 39.999zM763.999 1428c3.33301 0 16.667 -13.334 40 -40.001v-616
c0 -3.33301 -13.333 -16.666 -40 -39.999c-3.33301 0 -43.333 40 -120 120v456c0 3.33301 40 43.333 120 120zM40 692c3.33301 0 43.332 -39.999 119.999 -119.999v-408c0 -3.33301 -40 -43.333 -120 -120c-3.33301 0 -16.666 13.333 -39.999 40v568
c-0 3.33301 13.333 16.666 40 39.999zM763.999 688.001c3.33301 0 16.667 -13.334 40 -40.001v-568c0 -3.33301 -13.333 -16.666 -40 -39.999c-3.33301 0 -43.333 40 -120 120v408c0 3.33301 40 43.333 120 120zM200 160l407.999 -0.000976562
c3.33301 0 43.333 -40 120 -120c0 -3.33301 -13.333 -16.666 -40 -39.999h-568c-3.33301 -0 -16.666 13.333 -39.999 40c0 3.33301 40 43.333 120 120zM385.999 1933c6 -8.66699 11.3311 -27.333 15.998 -56c-103.333 -182.667 -160.666 -278.667 -171.999 -288
c-14.667 -2.66699 -26.667 -4 -36 -4h-8c-9.33301 0 -25.333 53.333 -48 160c52.667 101.333 87.334 152 104.001 152zM561.997 1893c16.667 0 51.332 -50.668 103.999 -152.001c-22.667 -106.667 -38.667 -160 -48 -160h-8c-9.33301 0 -21.333 1.33301 -36 4
c-11.333 9.33301 -68.666 105.333 -171.999 288c4.66699 28.667 10 47.334 16 56.001z" />
    <glyph glyph-name="Udieresis" unicode="&#xdc;" 
d="M40 1428c3.33301 0 43.332 -39.999 119.999 -119.999v-456c0 -3.33301 -40 -43.333 -120 -120c-3.33301 0 -16.666 13.333 -39.999 40v616c-0 3.33301 13.333 16.666 40 39.999zM763.999 1428c3.33301 0 16.667 -13.334 40 -40.001v-616
c0 -3.33301 -13.333 -16.666 -40 -39.999c-3.33301 0 -43.333 40 -120 120v456c0 3.33301 40 43.333 120 120zM40 692c3.33301 0 43.332 -39.999 119.999 -119.999v-408c0 -3.33301 -40 -43.333 -120 -120c-3.33301 0 -16.666 13.333 -39.999 40v568
c-0 3.33301 13.333 16.666 40 39.999zM763.999 688.001c3.33301 0 16.667 -13.334 40 -40.001v-568c0 -3.33301 -13.333 -16.666 -40 -39.999c-3.33301 0 -43.333 40 -120 120v408c0 3.33301 40 43.333 120 120zM200 160l407.999 -0.000976562
c3.33301 0 43.333 -40 120 -120c0 -3.33301 -13.333 -16.666 -40 -39.999h-568c-3.33301 -0 -16.666 13.333 -39.999 40c0 3.33301 40 43.333 120 120zM142.999 1789h8c4 0 36 -32 96 -96v-8c0 -4 -32 -36 -96 -96h-8c-4 0 -36 32 -96 96v8c0 4 32 36 96 96zM732.999 1785h8
c4 0 36 -32 96 -96v-8c0 -4 -32 -36 -96 -96h-8c-4 0 -36 32 -96 96v8c0 4 32 36 96 96z" />
    <glyph glyph-name="Yacute" unicode="&#xdd;" 
 />
    <glyph glyph-name="Thorn" unicode="&#xde;" horiz-adv-x="1120" 
 />
    <glyph glyph-name="germandbls" unicode="&#xdf;" horiz-adv-x="1251" 
 />
    <glyph glyph-name="agrave" unicode="&#xe0;" 
d="M120 1428l568.001 0.000976562c3.33301 0 16.666 -13.333 39.999 -40c0 -3.33301 -40 -43.333 -120 -120h-408c-3.33301 0 -43.333 40 -120 120c0 3.33301 13.333 16.666 40 39.999zM764.001 1388c3.33301 0 16.667 -13.334 40 -40.001v-568
c0 -3.33301 -13.333 -16.666 -40 -39.999c-3.33301 0 -43.333 40 -120 120v408c0 3.33301 40 43.333 120 120zM40.002 1384c3.33301 0 43.332 -39.999 119.999 -119.999v-408c0 -3.33301 -40 -43.333 -120 -120c-3.33301 0 -16.666 13.333 -39.999 40v568
c0 3.33301 13.333 16.666 40 39.999zM160.001 800.001h472c3.33301 0 30 -26.667 80 -80v-4c0 -3.33301 -26.667 -30 -80 -80h-472c-3.33301 0 -30 26.667 -80 80v4c0 3.33301 26.667 30 80 80zM40.001 696.001c3.33301 0 43.332 -39.999 119.999 -119.999v-456
c0 -3.33301 -40 -43.333 -120 -120c-3.33301 0 -16.666 13.333 -39.999 40v616c0 3.33301 13.333 16.666 40 39.999zM764 696.002c3.33301 0 16.667 -13.334 40 -40.001v-616c0 -3.33301 -13.333 -16.666 -40 -39.999c-3.33301 0 -43.333 40 -120 120v456
c0 3.33301 40 43.333 120 120zM386.001 1907c16.667 0 51.332 -50.668 103.999 -152.001c-22.667 -106.667 -38.667 -160 -48 -160h-8c-9.33301 0 -21.333 1.33301 -36 4c-11.333 9.33301 -68.666 105.333 -171.999 288c4.66699 28.667 10 47.334 16 56.001z" />
    <glyph glyph-name="aacute" unicode="&#xe1;" 
d="M120 1428l568.001 0.000976562c3.33301 0 16.666 -13.333 39.999 -40c0 -3.33301 -40 -43.333 -120 -120h-408c-3.33301 0 -43.333 40 -120 120c0 3.33301 13.333 16.666 40 39.999zM764.001 1388c3.33301 0 16.667 -13.334 40 -40.001v-568
c0 -3.33301 -13.333 -16.666 -40 -39.999c-3.33301 0 -43.333 40 -120 120v408c0 3.33301 40 43.333 120 120zM40.002 1384c3.33301 0 43.332 -39.999 119.999 -119.999v-408c0 -3.33301 -40 -43.333 -120 -120c-3.33301 0 -16.666 13.333 -39.999 40v568
c0 3.33301 13.333 16.666 40 39.999zM160.001 800.001h472c3.33301 0 30 -26.667 80 -80v-4c0 -3.33301 -26.667 -30 -80 -80h-472c-3.33301 0 -30 26.667 -80 80v4c0 3.33301 26.667 30 80 80zM40.001 696.001c3.33301 0 43.332 -39.999 119.999 -119.999v-456
c0 -3.33301 -40 -43.333 -120 -120c-3.33301 0 -16.666 13.333 -39.999 40v616c0 3.33301 13.333 16.666 40 39.999zM764 696.002c3.33301 0 16.667 -13.334 40 -40.001v-616c0 -3.33301 -13.333 -16.666 -40 -39.999c-3.33301 0 -43.333 40 -120 120v456
c0 3.33301 40 43.333 120 120zM572.001 1943c6 -8.66699 11.3311 -27.333 15.998 -56c-103.333 -182.667 -160.666 -278.667 -171.999 -288c-14.667 -2.66699 -26.667 -4 -36 -4h-8c-9.33301 0 -25.333 53.333 -48 160c52.667 101.333 87.334 152 104.001 152z" />
    <glyph glyph-name="acircumflex" unicode="&#xe2;" 
d="M120 1428l568.001 0.000976562c3.33301 0 16.666 -13.333 39.999 -40c0 -3.33301 -40 -43.333 -120 -120h-408c-3.33301 0 -43.333 40 -120 120c0 3.33301 13.333 16.666 40 39.999zM764.001 1388c3.33301 0 16.667 -13.334 40 -40.001v-568
c0 -3.33301 -13.333 -16.666 -40 -39.999c-3.33301 0 -43.333 40 -120 120v408c0 3.33301 40 43.333 120 120zM40.002 1384c3.33301 0 43.332 -39.999 119.999 -119.999v-408c0 -3.33301 -40 -43.333 -120 -120c-3.33301 0 -16.666 13.333 -39.999 40v568
c0 3.33301 13.333 16.666 40 39.999zM160.001 800.001h472c3.33301 0 30 -26.667 80 -80v-4c0 -3.33301 -26.667 -30 -80 -80h-472c-3.33301 0 -30 26.667 -80 80v4c0 3.33301 26.667 30 80 80zM40.001 696.001c3.33301 0 43.332 -39.999 119.999 -119.999v-456
c0 -3.33301 -40 -43.333 -120 -120c-3.33301 0 -16.666 13.333 -39.999 40v616c0 3.33301 13.333 16.666 40 39.999zM764 696.002c3.33301 0 16.667 -13.334 40 -40.001v-616c0 -3.33301 -13.333 -16.666 -40 -39.999c-3.33301 0 -43.333 40 -120 120v456
c0 3.33301 40 43.333 120 120zM386.001 1933c6 -8.66699 11.3311 -27.333 15.998 -56c-103.333 -182.667 -160.666 -278.667 -171.999 -288c-14.667 -2.66699 -26.667 -4 -36 -4h-8c-9.33301 0 -25.333 53.333 -48 160c52.667 101.333 87.334 152 104.001 152zM561.999 1893
c16.667 0 51.332 -50.668 103.999 -152.001c-22.667 -106.667 -38.667 -160 -48 -160h-8c-9.33301 0 -21.333 1.33301 -36 4c-11.333 9.33301 -68.666 105.333 -171.999 288c4.66699 28.667 10 47.334 16 56.001z" />
    <glyph glyph-name="atilde" unicode="&#xe3;" 
d="M120 1428l568.001 0.000976562c3.33301 0 16.666 -13.333 39.999 -40c0 -3.33301 -40 -43.333 -120 -120h-408c-3.33301 0 -43.333 40 -120 120c0 3.33301 13.333 16.666 40 39.999zM764.001 1388c3.33301 0 16.667 -13.334 40 -40.001v-568
c0 -3.33301 -13.333 -16.666 -40 -39.999c-3.33301 0 -43.333 40 -120 120v408c0 3.33301 40 43.333 120 120zM40.002 1384c3.33301 0 43.332 -39.999 119.999 -119.999v-408c0 -3.33301 -40 -43.333 -120 -120c-3.33301 0 -16.666 13.333 -39.999 40v568
c0 3.33301 13.333 16.666 40 39.999zM160.001 800.001h472c3.33301 0 30 -26.667 80 -80v-4c0 -3.33301 -26.667 -30 -80 -80h-472c-3.33301 0 -30 26.667 -80 80v4c0 3.33301 26.667 30 80 80zM40.001 696.001c3.33301 0 43.332 -39.999 119.999 -119.999v-456
c0 -3.33301 -40 -43.333 -120 -120c-3.33301 0 -16.666 13.333 -39.999 40v616c0 3.33301 13.333 16.666 40 39.999zM764 696.002c3.33301 0 16.667 -13.334 40 -40.001v-616c0 -3.33301 -13.333 -16.666 -40 -39.999c-3.33301 0 -43.333 40 -120 120v456
c0 3.33301 40 43.333 120 120zM230.001 1945c6 -8.66699 11.3311 -27.333 15.998 -56c-103.333 -182.667 -160.666 -278.667 -171.999 -288c-14.667 -2.66699 -26.667 -4 -36 -4h-8c-9.33301 0 -25.333 53.333 -48 160c52.667 101.333 87.334 152 104.001 152zM285.999 1945
c112 -26.667 167.999 -45.334 167.999 -56.001c50.667 -87.333 76 -132.666 76 -135.999c-23.333 -104 -39.333 -156 -48 -156h-8c-31.333 0 -51.333 10.667 -60 32c-98.667 170.667 -148 260 -148 268c6.66699 32 13.334 48 20.001 48zM805.998 1945
c6 -8.66699 11.3311 -27.333 15.998 -56c-103.333 -182.667 -160.666 -278.667 -171.999 -288c-14.667 -2.66699 -26.667 -4 -36 -4h-8c-9.33301 0 -25.333 53.333 -48 160c52.667 101.333 87.334 152 104.001 152z" />
    <glyph glyph-name="adieresis" unicode="&#xe4;" 
d="M120 1428l568.001 0.000976562c3.33301 0 16.666 -13.333 39.999 -40c0 -3.33301 -40 -43.333 -120 -120h-408c-3.33301 0 -43.333 40 -120 120c0 3.33301 13.333 16.666 40 39.999zM764.001 1388c3.33301 0 16.667 -13.334 40 -40.001v-568
c0 -3.33301 -13.333 -16.666 -40 -39.999c-3.33301 0 -43.333 40 -120 120v408c0 3.33301 40 43.333 120 120zM40.002 1384c3.33301 0 43.332 -39.999 119.999 -119.999v-408c0 -3.33301 -40 -43.333 -120 -120c-3.33301 0 -16.666 13.333 -39.999 40v568
c0 3.33301 13.333 16.666 40 39.999zM160.001 800.001h472c3.33301 0 30 -26.667 80 -80v-4c0 -3.33301 -26.667 -30 -80 -80h-472c-3.33301 0 -30 26.667 -80 80v4c0 3.33301 26.667 30 80 80zM40.001 696.001c3.33301 0 43.332 -39.999 119.999 -119.999v-456
c0 -3.33301 -40 -43.333 -120 -120c-3.33301 0 -16.666 13.333 -39.999 40v616c0 3.33301 13.333 16.666 40 39.999zM764 696.002c3.33301 0 16.667 -13.334 40 -40.001v-616c0 -3.33301 -13.333 -16.666 -40 -39.999c-3.33301 0 -43.333 40 -120 120v456
c0 3.33301 40 43.333 120 120zM143.001 1789h8c4 0 36 -32 96 -96v-8c0 -4 -32 -36 -96 -96h-8c-4 0 -36 32 -96 96v8c0 4 32 36 96 96zM733.001 1785h8c4 0 36 -32 96 -96v-8c0 -4 -32 -36 -96 -96h-8c-4 0 -36 32 -96 96v8c0 4 32 36 96 96z" />
    <glyph glyph-name="aring" unicode="&#xe5;" 
d="M120 1428l568.001 0.000976562c3.33301 0 16.666 -13.333 39.999 -40c0 -3.33301 -40 -43.333 -120 -120h-408c-3.33301 0 -43.333 40 -120 120c0 3.33301 13.333 16.666 40 39.999zM764.001 1388c3.33301 0 16.667 -13.334 40 -40.001v-568
c0 -3.33301 -13.333 -16.666 -40 -39.999c-3.33301 0 -43.333 40 -120 120v408c0 3.33301 40 43.333 120 120zM40.002 1384c3.33301 0 43.332 -39.999 119.999 -119.999v-408c0 -3.33301 -40 -43.333 -120 -120c-3.33301 0 -16.666 13.333 -39.999 40v568
c0 3.33301 13.333 16.666 40 39.999zM160.001 800.001h472c3.33301 0 30 -26.667 80 -80v-4c0 -3.33301 -26.667 -30 -80 -80h-472c-3.33301 0 -30 26.667 -80 80v4c0 3.33301 26.667 30 80 80zM40.001 696.001c3.33301 0 43.332 -39.999 119.999 -119.999v-456
c0 -3.33301 -40 -43.333 -120 -120c-3.33301 0 -16.666 13.333 -39.999 40v616c0 3.33301 13.333 16.666 40 39.999zM764 696.002c3.33301 0 16.667 -13.334 40 -40.001v-616c0 -3.33301 -13.333 -16.666 -40 -39.999c-3.33301 0 -43.333 40 -120 120v456
c0 3.33301 40 43.333 120 120zM398.001 1795h8c4 0 36 -32 96 -96v-8c0 -4 -32 -36 -96 -96h-8c-4 0 -36 32 -96 96v8c0 4 32 36 96 96z" />
    <glyph glyph-name="ae" unicode="&#xe6;" horiz-adv-x="1601" 
d="M120 1428l568.001 0.000976562c3.33301 0 16.666 -13.333 39.999 -40c0 -3.33301 -40 -43.333 -120 -120h-408c-3.33301 0 -43.333 40 -120 120c0 3.33301 13.333 16.666 40 39.999zM764.001 1388c3.33301 0 16.667 -13.334 40 -40.001v-568
c0 -3.33301 -13.333 -16.666 -40 -39.999c-3.33301 0 -43.333 40 -120 120v408c0 3.33301 40 43.333 120 120zM40.002 1384c3.33301 0 43.332 -39.999 119.999 -119.999v-408c0 -3.33301 -40 -43.333 -120 -120c-3.33301 0 -16.666 13.333 -39.999 40v568
c0 3.33301 13.333 16.666 40 39.999zM160.001 800.001h472c3.33301 0 30 -26.667 80 -80v-4c0 -3.33301 -26.667 -30 -80 -80h-472c-3.33301 0 -30 26.667 -80 80v4c0 3.33301 26.667 30 80 80zM40.001 696.001c3.33301 0 43.332 -39.999 119.999 -119.999v-456
c0 -3.33301 -40 -43.333 -120 -120c-3.33301 0 -16.666 13.333 -39.999 40v616c0 3.33301 13.333 16.666 40 39.999zM764 696.002c3.33301 0 16.667 -13.334 40 -40.001v-616c0 -3.33301 -13.333 -16.666 -40 -39.999c-3.33301 0 -43.333 40 -120 120v456
c0 3.33301 40 43.333 120 120zM860.001 1428l568.001 0.000976562c3.33301 0 16.666 -13.333 39.999 -40c0 -3.33301 -40 -43.333 -120 -120h-408c-3.33301 0 -43.333 40 -120 120c0 3.33301 13.333 16.666 40 39.999zM900.002 800.002h472c3.33301 0 30 -26.667 80 -80v-4
c0 -3.33301 -26.667 -30 -80 -80h-472c-3.33301 0 -30 26.667 -80 80v4c0 3.33301 26.667 30 80 80zM936.002 160.002l407.999 -0.000976562c3.33301 0 43.333 -40 120 -120c0 -3.33301 -13.333 -16.666 -40 -39.999h-568c-3.33301 0 -16.666 13.333 -39.999 40
c0 3.33301 40 43.333 120 120z" />
    <glyph glyph-name="ccedilla" unicode="&#xe7;" 
 />
    <glyph glyph-name="egrave" unicode="&#xe8;" 
d="M120 1428l568.001 0.000976562c3.33301 0 16.666 -13.333 39.999 -40c0 -3.33301 -40 -43.333 -120 -120h-408c-3.33301 0 -43.333 40 -120 120c0 3.33301 13.333 16.666 40 39.999zM40.001 1384c3.33301 0 43.332 -39.999 119.999 -119.999v-408
c0 -3.33301 -40 -43.333 -120 -120c-3.33301 0 -16.666 13.333 -39.999 40v568c0 3.33301 13.333 16.666 40 39.999zM160 800.002h472c3.33301 0 30 -26.667 80 -80v-4c0 -3.33301 -26.667 -30 -80 -80h-472c-3.33301 0 -30 26.667 -80 80v4c0 3.33301 26.667 30 80 80z
M40 696.002c3.33301 0 43.332 -39.999 119.999 -119.999v-408c0 -3.33301 -40 -43.333 -120 -120c-3.33301 0 -16.666 13.333 -39.999 40v568c-0 3.33301 13.333 16.666 40 39.999zM195.999 160.003l407.999 -0.000976562c3.33301 0 43.333 -40 120 -120
c0 -3.33301 -13.333 -16.666 -40 -39.999h-568c-3.33301 0 -16.666 13.333 -39.999 40c0 3.33301 40 43.333 120 120zM347.998 1907c16.667 0 51.332 -50.668 103.999 -152.001c-22.667 -106.667 -38.667 -160 -48 -160h-8c-9.33301 0 -21.333 1.33301 -36 4
c-11.333 9.33301 -68.666 105.333 -171.999 288c4.66699 28.667 10 47.334 16 56.001z" />
    <glyph glyph-name="eacute" unicode="&#xe9;" 
d="M120 1428l568.001 0.000976562c3.33301 0 16.666 -13.333 39.999 -40c0 -3.33301 -40 -43.333 -120 -120h-408c-3.33301 0 -43.333 40 -120 120c0 3.33301 13.333 16.666 40 39.999zM40.001 1384c3.33301 0 43.332 -39.999 119.999 -119.999v-408
c0 -3.33301 -40 -43.333 -120 -120c-3.33301 0 -16.666 13.333 -39.999 40v568c0 3.33301 13.333 16.666 40 39.999zM160 800.002h472c3.33301 0 30 -26.667 80 -80v-4c0 -3.33301 -26.667 -30 -80 -80h-472c-3.33301 0 -30 26.667 -80 80v4c0 3.33301 26.667 30 80 80z
M40 696.002c3.33301 0 43.332 -39.999 119.999 -119.999v-408c0 -3.33301 -40 -43.333 -120 -120c-3.33301 0 -16.666 13.333 -39.999 40v568c-0 3.33301 13.333 16.666 40 39.999zM195.999 160.003l407.999 -0.000976562c3.33301 0 43.333 -40 120 -120
c0 -3.33301 -13.333 -16.666 -40 -39.999h-568c-3.33301 0 -16.666 13.333 -39.999 40c0 3.33301 40 43.333 120 120zM533.998 1943c6 -8.66699 11.3311 -27.333 15.998 -56c-103.333 -182.667 -160.666 -278.667 -171.999 -288c-14.667 -2.66699 -26.667 -4 -36 -4h-8
c-9.33301 0 -25.333 53.333 -48 160c52.667 101.333 87.334 152 104.001 152z" />
    <glyph glyph-name="ecircumflex" unicode="&#xea;" 
d="M120 1428l568.001 0.000976562c3.33301 0 16.666 -13.333 39.999 -40c0 -3.33301 -40 -43.333 -120 -120h-408c-3.33301 0 -43.333 40 -120 120c0 3.33301 13.333 16.666 40 39.999zM40.001 1384c3.33301 0 43.332 -39.999 119.999 -119.999v-408
c0 -3.33301 -40 -43.333 -120 -120c-3.33301 0 -16.666 13.333 -39.999 40v568c0 3.33301 13.333 16.666 40 39.999zM160 800.002h472c3.33301 0 30 -26.667 80 -80v-4c0 -3.33301 -26.667 -30 -80 -80h-472c-3.33301 0 -30 26.667 -80 80v4c0 3.33301 26.667 30 80 80z
M40 696.002c3.33301 0 43.332 -39.999 119.999 -119.999v-408c0 -3.33301 -40 -43.333 -120 -120c-3.33301 0 -16.666 13.333 -39.999 40v568c-0 3.33301 13.333 16.666 40 39.999zM195.999 160.003l407.999 -0.000976562c3.33301 0 43.333 -40 120 -120
c0 -3.33301 -13.333 -16.666 -40 -39.999h-568c-3.33301 0 -16.666 13.333 -39.999 40c0 3.33301 40 43.333 120 120zM347.998 1933c6 -8.66699 11.3311 -27.333 15.998 -56c-103.333 -182.667 -160.666 -278.667 -171.999 -288c-14.667 -2.66699 -26.667 -4 -36 -4h-8
c-9.33301 0 -25.333 53.333 -48 160c52.667 101.333 87.334 152 104.001 152zM523.996 1893c16.667 0 51.332 -50.668 103.999 -152.001c-22.667 -106.667 -38.667 -160 -48 -160h-8c-9.33301 0 -21.333 1.33301 -36 4c-11.333 9.33301 -68.666 105.333 -171.999 288
c4.66699 28.667 10 47.334 16 56.001z" />
    <glyph glyph-name="edieresis" unicode="&#xeb;" 
d="M89 1428l568.001 0.000976562c3.33301 0 16.666 -13.333 39.999 -40c0 -3.33301 -40 -43.333 -120 -120h-408c-3.33301 0 -43.333 40 -120 120c0 3.33301 13.333 16.666 40 39.999zM9.00098 1384c3.33301 0 43.332 -39.999 119.999 -119.999v-408
c0 -3.33301 -40 -43.333 -120 -120c-3.33301 0 -16.666 13.333 -39.999 40v568c0 3.33301 13.333 16.666 40 39.999zM129 800.002h472c3.33301 0 30 -26.667 80 -80v-4c0 -3.33301 -26.667 -30 -80 -80h-472c-3.33301 0 -30 26.667 -80 80v4c0 3.33301 26.667 30 80 80z
M9 696.002c3.33301 0 43.332 -39.999 119.999 -119.999v-408c0 -3.33301 -40 -43.333 -120 -120c-3.33301 0 -16.666 13.333 -39.999 40v568c0 3.33301 13.333 16.666 40 39.999zM164.999 160.003l407.999 -0.000976562c3.33301 0 43.333 -40 120 -120
c0 -3.33301 -13.333 -16.666 -40 -39.999h-568c-3.33301 0 -16.666 13.333 -39.999 40c0 3.33301 40 43.333 120 120zM73.998 1789h8c4 0 36 -32 96 -96v-8c0 -4 -32 -36 -96 -96h-8c-4 0 -36 32 -96 96v8c0 4 32 36 96 96zM663.998 1785h8c4 0 36 -32 96 -96v-8
c0 -4 -32 -36 -96 -96h-8c-4 0 -36 32 -96 96v8c0 4 32 36 96 96z" />
    <glyph glyph-name="igrave" unicode="&#xec;" horiz-adv-x="279" 
d="M40 1428c3.33301 0 43.332 -39.999 119.999 -119.999v-456c0 -3.33301 -40 -43.333 -120 -120c-3.33301 0 -16.666 13.333 -39.999 40v616c-0 3.33301 13.333 16.666 40 39.999zM119.999 696.001c3.33301 0 16.667 -13.334 40 -40.001v-616
c0 -3.33301 -13.333 -16.666 -40 -39.999c-3.33301 0 -43.333 40 -120 120v456c0 3.33301 40 43.333 120 120zM64 1907c16.667 0 51.332 -50.668 103.999 -152.001c-22.667 -106.667 -38.667 -160 -48 -160h-8c-9.33301 0 -21.333 1.33301 -36 4
c-11.333 9.33301 -68.666 105.333 -171.999 288c4.66699 28.667 10 47.334 16 56.001z" />
    <glyph glyph-name="iacute" unicode="&#xed;" horiz-adv-x="279" 
d="M32 1428c3.33301 0 43.332 -39.999 119.999 -119.999v-456c0 -3.33301 -40 -43.333 -120 -120c-3.33301 0 -16.666 13.333 -39.999 40v616c0 3.33301 13.333 16.666 40 39.999zM111.999 696.001c3.33301 0 16.667 -13.334 40 -40.001v-616
c0 -3.33301 -13.333 -16.666 -40 -39.999c-3.33301 0 -43.333 40 -120 120v456c0 3.33301 40 43.333 120 120zM242 1943c6 -8.66699 11.3311 -27.333 15.998 -56c-103.333 -182.667 -160.666 -278.667 -171.999 -288c-14.667 -2.66699 -26.667 -4 -36 -4h-8
c-9.33301 0 -25.333 53.333 -48 160c52.667 101.333 87.334 152 104.001 152z" />
    <glyph glyph-name="icircumflex" unicode="&#xee;" horiz-adv-x="279" 
d="M40 1428c3.33301 0 43.332 -39.999 119.999 -119.999v-456c0 -3.33301 -40 -43.333 -120 -120c-3.33301 0 -16.666 13.333 -39.999 40v616c-0 3.33301 13.333 16.666 40 39.999zM119.999 696.001c3.33301 0 16.667 -13.334 40 -40.001v-616
c0 -3.33301 -13.333 -16.666 -40 -39.999c-3.33301 0 -43.333 40 -120 120v456c0 3.33301 40 43.333 120 120zM64 1933c6 -8.66699 11.3311 -27.333 15.998 -56c-103.333 -182.667 -160.666 -278.667 -171.999 -288c-14.667 -2.66699 -26.667 -4 -36 -4h-8
c-9.33301 0 -25.333 53.333 -48 160c52.667 101.333 87.334 152 104.001 152zM239.998 1893c16.667 0 51.332 -50.668 103.999 -152.001c-22.667 -106.667 -38.667 -160 -48 -160h-8c-9.33301 0 -21.333 1.33301 -36 4c-11.333 9.33301 -68.666 105.333 -171.999 288
c4.66699 28.667 10 47.334 16 56.001z" />
    <glyph glyph-name="idieresis" unicode="&#xef;" horiz-adv-x="279" 
d="M0 1428c3.33301 0 43.332 -39.999 119.999 -119.999v-456c0 -3.33301 -40 -43.333 -120 -120c-3.33301 0 -16.666 13.333 -39.999 40v616c0 3.33301 13.333 16.666 40 39.999zM79.999 696.001c3.33301 0 16.667 -13.334 40 -40.001v-616
c0 -3.33301 -13.333 -16.666 -40 -39.999c-3.33301 0 -43.333 40 -120 120v456c0 3.33301 40 43.333 120 120zM-219 1789h8c4 0 36 -32 96 -96v-8c0 -4 -32 -36 -96 -96h-8c-4 0 -36 32 -96 96v8c0 4 32 36 96 96zM371 1785h8c4 0 36 -32 96 -96v-8c0 -4 -32 -36 -96 -96h-8
c-4 0 -36 32 -96 96v8c0 4 32 36 96 96z" />
    <glyph glyph-name="eth" unicode="&#xf0;" horiz-adv-x="1139" 
 />
    <glyph glyph-name="ntilde" unicode="&#xf1;" 
d="M40 1428c3.33301 0 43.332 -39.999 119.999 -119.999v-456c0 -3.33301 -40 -43.333 -120 -120c-3.33301 0 -16.666 13.333 -39.999 40v616c-0 3.33301 13.333 16.666 40 39.999zM763.999 1428c3.33301 0 16.667 -13.334 40 -40.001v-616
c0 -3.33301 -13.333 -16.666 -40 -39.999c-3.33301 0 -43.333 40 -120 120v456c0 3.33301 40 43.333 120 120zM204 1264l47.999 0.000976562c51.333 -42.667 139.333 -129.334 264 -260.001c7.33301 0 35.333 -26.667 84 -80v-160c0 -5.33301 -2.66699 -8 -8 -8h-48
c-2.66699 0 -4 1.33301 -4 4l-8 -4l-336 340v160c0.666992 5.33301 3.33398 8 8.00098 8zM39.999 696.001c3.33301 0 43.332 -39.999 119.999 -119.999v-456c0 -3.33301 -40 -43.333 -120 -120c-3.33301 0 -16.666 13.333 -39.999 40v616c0 3.33301 13.333 16.666 40 39.999
zM763.998 696.002c3.33301 0 16.667 -13.334 40 -40.001v-616c0 -3.33301 -13.333 -16.666 -40 -39.999c-3.33301 0 -43.333 40 -120 120v456c0 3.33301 40 43.333 120 120zM229.999 1945c6 -8.66699 11.3311 -27.333 15.998 -56
c-103.333 -182.667 -160.666 -278.667 -171.999 -288c-14.667 -2.66699 -26.667 -4 -36 -4h-8c-9.33301 0 -25.333 53.333 -48 160c52.667 101.333 87.334 152 104.001 152zM285.997 1945c112 -26.667 167.999 -45.334 167.999 -56.001
c50.667 -87.333 76 -132.666 76 -135.999c-23.333 -104 -39.333 -156 -48 -156h-8c-31.333 0 -51.333 10.667 -60 32c-98.667 170.667 -148 260 -148 268c6.66699 32 13.334 48 20.001 48zM805.996 1945c6 -8.66699 11.3311 -27.333 15.998 -56
c-103.333 -182.667 -160.666 -278.667 -171.999 -288c-14.667 -2.66699 -26.667 -4 -36 -4h-8c-9.33301 0 -25.333 53.333 -48 160c52.667 101.333 87.334 152 104.001 152z" />
    <glyph glyph-name="ograve" unicode="&#xf2;" 
d="M120 1428l568.001 0.000976562c3.33301 0 16.666 -13.333 39.999 -40c0 -3.33301 -40 -43.333 -120 -120h-408c-3.33301 0 -43.333 40 -120 120c0 3.33301 13.333 16.666 40 39.999zM764.001 1388c3.33301 0 16.667 -13.334 40 -40.001v-568
c0 -3.33301 -13.333 -16.666 -40 -39.999c-3.33301 0 -43.333 40 -120 120v408c0 3.33301 40 43.333 120 120zM40.002 1384c3.33301 0 43.332 -39.999 119.999 -119.999v-408c0 -3.33301 -40 -43.333 -120 -120c-3.33301 0 -16.666 13.333 -39.999 40v568
c0 3.33301 13.333 16.666 40 39.999zM40.001 696.001c3.33301 0 43.332 -39.999 119.999 -119.999v-408c0 -3.33301 -40 -43.333 -120 -120c-3.33301 0 -16.666 13.333 -39.999 40v568c0 3.33301 13.333 16.666 40 39.999zM764 692.002c3.33301 0 16.667 -13.334 40 -40.001
v-568c0 -3.33301 -13.333 -16.666 -40 -39.999c-3.33301 0 -43.333 40 -120 120v408c0 3.33301 40 43.333 120 120zM196.001 160.001l407.999 -0.000976562c3.33301 0 43.333 -40 120 -120c0 -3.33301 -13.333 -16.666 -40 -39.999h-568
c-3.33301 0 -16.666 13.333 -39.999 40c0 3.33301 40 43.333 120 120zM386 1907c16.667 0 51.332 -50.668 103.999 -152.001c-22.667 -106.667 -38.667 -160 -48 -160h-8c-9.33301 0 -21.333 1.33301 -36 4c-11.333 9.33301 -68.666 105.333 -171.999 288
c4.66699 28.667 10 47.334 16 56.001z" />
    <glyph glyph-name="oacute" unicode="&#xf3;" 
d="M120 1428l568.001 0.000976562c3.33301 0 16.666 -13.333 39.999 -40c0 -3.33301 -40 -43.333 -120 -120h-408c-3.33301 0 -43.333 40 -120 120c0 3.33301 13.333 16.666 40 39.999zM764.001 1388c3.33301 0 16.667 -13.334 40 -40.001v-568
c0 -3.33301 -13.333 -16.666 -40 -39.999c-3.33301 0 -43.333 40 -120 120v408c0 3.33301 40 43.333 120 120zM40.002 1384c3.33301 0 43.332 -39.999 119.999 -119.999v-408c0 -3.33301 -40 -43.333 -120 -120c-3.33301 0 -16.666 13.333 -39.999 40v568
c0 3.33301 13.333 16.666 40 39.999zM40.001 696.001c3.33301 0 43.332 -39.999 119.999 -119.999v-408c0 -3.33301 -40 -43.333 -120 -120c-3.33301 0 -16.666 13.333 -39.999 40v568c0 3.33301 13.333 16.666 40 39.999zM764 692.002c3.33301 0 16.667 -13.334 40 -40.001
v-568c0 -3.33301 -13.333 -16.666 -40 -39.999c-3.33301 0 -43.333 40 -120 120v408c0 3.33301 40 43.333 120 120zM196.001 160.001l407.999 -0.000976562c3.33301 0 43.333 -40 120 -120c0 -3.33301 -13.333 -16.666 -40 -39.999h-568
c-3.33301 0 -16.666 13.333 -39.999 40c0 3.33301 40 43.333 120 120zM572 1943c6 -8.66699 11.3311 -27.333 15.998 -56c-103.333 -182.667 -160.666 -278.667 -171.999 -288c-14.667 -2.66699 -26.667 -4 -36 -4h-8c-9.33301 0 -25.333 53.333 -48 160
c52.667 101.333 87.334 152 104.001 152z" />
    <glyph glyph-name="ocircumflex" unicode="&#xf4;" 
d="M120 1428l568.001 0.000976562c3.33301 0 16.666 -13.333 39.999 -40c0 -3.33301 -40 -43.333 -120 -120h-408c-3.33301 0 -43.333 40 -120 120c0 3.33301 13.333 16.666 40 39.999zM764.001 1388c3.33301 0 16.667 -13.334 40 -40.001v-568
c0 -3.33301 -13.333 -16.666 -40 -39.999c-3.33301 0 -43.333 40 -120 120v408c0 3.33301 40 43.333 120 120zM40.002 1384c3.33301 0 43.332 -39.999 119.999 -119.999v-408c0 -3.33301 -40 -43.333 -120 -120c-3.33301 0 -16.666 13.333 -39.999 40v568
c0 3.33301 13.333 16.666 40 39.999zM40.001 696.001c3.33301 0 43.332 -39.999 119.999 -119.999v-408c0 -3.33301 -40 -43.333 -120 -120c-3.33301 0 -16.666 13.333 -39.999 40v568c0 3.33301 13.333 16.666 40 39.999zM764 692.002c3.33301 0 16.667 -13.334 40 -40.001
v-568c0 -3.33301 -13.333 -16.666 -40 -39.999c-3.33301 0 -43.333 40 -120 120v408c0 3.33301 40 43.333 120 120zM196.001 160.001l407.999 -0.000976562c3.33301 0 43.333 -40 120 -120c0 -3.33301 -13.333 -16.666 -40 -39.999h-568
c-3.33301 0 -16.666 13.333 -39.999 40c0 3.33301 40 43.333 120 120zM386 1933c6 -8.66699 11.3311 -27.333 15.998 -56c-103.333 -182.667 -160.666 -278.667 -171.999 -288c-14.667 -2.66699 -26.667 -4 -36 -4h-8c-9.33301 0 -25.333 53.333 -48 160
c52.667 101.333 87.334 152 104.001 152zM561.998 1893c16.667 0 51.332 -50.668 103.999 -152.001c-22.667 -106.667 -38.667 -160 -48 -160h-8c-9.33301 0 -21.333 1.33301 -36 4c-11.333 9.33301 -68.666 105.333 -171.999 288c4.66699 28.667 10 47.334 16 56.001z" />
    <glyph glyph-name="otilde" unicode="&#xf5;" 
d="M120 1428l568.001 0.000976562c3.33301 0 16.666 -13.333 39.999 -40c0 -3.33301 -40 -43.333 -120 -120h-408c-3.33301 0 -43.333 40 -120 120c0 3.33301 13.333 16.666 40 39.999zM764.001 1388c3.33301 0 16.667 -13.334 40 -40.001v-568
c0 -3.33301 -13.333 -16.666 -40 -39.999c-3.33301 0 -43.333 40 -120 120v408c0 3.33301 40 43.333 120 120zM40.002 1384c3.33301 0 43.332 -39.999 119.999 -119.999v-408c0 -3.33301 -40 -43.333 -120 -120c-3.33301 0 -16.666 13.333 -39.999 40v568
c0 3.33301 13.333 16.666 40 39.999zM40.001 696.001c3.33301 0 43.332 -39.999 119.999 -119.999v-408c0 -3.33301 -40 -43.333 -120 -120c-3.33301 0 -16.666 13.333 -39.999 40v568c0 3.33301 13.333 16.666 40 39.999zM764 692.002c3.33301 0 16.667 -13.334 40 -40.001
v-568c0 -3.33301 -13.333 -16.666 -40 -39.999c-3.33301 0 -43.333 40 -120 120v408c0 3.33301 40 43.333 120 120zM196.001 160.001l407.999 -0.000976562c3.33301 0 43.333 -40 120 -120c0 -3.33301 -13.333 -16.666 -40 -39.999h-568
c-3.33301 0 -16.666 13.333 -39.999 40c0 3.33301 40 43.333 120 120zM230 1945c6 -8.66699 11.3311 -27.333 15.998 -56c-103.333 -182.667 -160.666 -278.667 -171.999 -288c-14.667 -2.66699 -26.667 -4 -36 -4h-8c-9.33301 0 -25.333 53.333 -48 160
c52.667 101.333 87.334 152 104.001 152zM285.998 1945c112 -26.667 167.999 -45.334 167.999 -56.001c50.667 -87.333 76 -132.666 76 -135.999c-23.333 -104 -39.333 -156 -48 -156h-8c-31.333 0 -51.333 10.667 -60 32c-98.667 170.667 -148 260 -148 268
c6.66699 32 13.334 48 20.001 48zM805.997 1945c6 -8.66699 11.3311 -27.333 15.998 -56c-103.333 -182.667 -160.666 -278.667 -171.999 -288c-14.667 -2.66699 -26.667 -4 -36 -4h-8c-9.33301 0 -25.333 53.333 -48 160c52.667 101.333 87.334 152 104.001 152z" />
    <glyph glyph-name="odieresis" unicode="&#xf6;" 
d="M120 1428l568.001 0.000976562c3.33301 0 16.666 -13.333 39.999 -40c0 -3.33301 -40 -43.333 -120 -120h-408c-3.33301 0 -43.333 40 -120 120c0 3.33301 13.333 16.666 40 39.999zM764.001 1388c3.33301 0 16.667 -13.334 40 -40.001v-568
c0 -3.33301 -13.333 -16.666 -40 -39.999c-3.33301 0 -43.333 40 -120 120v408c0 3.33301 40 43.333 120 120zM40.002 1384c3.33301 0 43.332 -39.999 119.999 -119.999v-408c0 -3.33301 -40 -43.333 -120 -120c-3.33301 0 -16.666 13.333 -39.999 40v568
c0 3.33301 13.333 16.666 40 39.999zM40.001 696.001c3.33301 0 43.332 -39.999 119.999 -119.999v-408c0 -3.33301 -40 -43.333 -120 -120c-3.33301 0 -16.666 13.333 -39.999 40v568c0 3.33301 13.333 16.666 40 39.999zM764 692.002c3.33301 0 16.667 -13.334 40 -40.001
v-568c0 -3.33301 -13.333 -16.666 -40 -39.999c-3.33301 0 -43.333 40 -120 120v408c0 3.33301 40 43.333 120 120zM196.001 160.001l407.999 -0.000976562c3.33301 0 43.333 -40 120 -120c0 -3.33301 -13.333 -16.666 -40 -39.999h-568
c-3.33301 0 -16.666 13.333 -39.999 40c0 3.33301 40 43.333 120 120zM143 1789h8c4 0 36 -32 96 -96v-8c0 -4 -32 -36 -96 -96h-8c-4 0 -36 32 -96 96v8c0 4 32 36 96 96zM733 1785h8c4 0 36 -32 96 -96v-8c0 -4 -32 -36 -96 -96h-8c-4 0 -36 32 -96 96v8c0 4 32 36 96 96z
" />
    <glyph glyph-name="divide" unicode="&#xf7;" horiz-adv-x="706" 
d="M89 974h472c3.33301 0 30 -26.667 80 -80v-4c0 -3.33301 -26.667 -30 -80 -80h-472c-3.33301 0 -30 26.667 -80 80v4c0 3.33301 26.667 30 80 80zM223 388v8c0 4 32 36 96 96h8c4 0 36 -32 96 -96v-8c0 -4 -32 -36 -96 -96h-8c-4 0 -36 32 -96 96zM227 1388v8
c0 4 32 36 96 96h8c4 0 36 -32 96 -96v-8c0 -4 -32 -36 -96 -96h-8c-4 0 -36 32 -96 96z" />
    <glyph glyph-name="oslash" unicode="&#xf8;" horiz-adv-x="1010" 
 />
    <glyph glyph-name="ugrave" unicode="&#xf9;" 
d="M40 1428c3.33301 0 43.332 -39.999 119.999 -119.999v-456c0 -3.33301 -40 -43.333 -120 -120c-3.33301 0 -16.666 13.333 -39.999 40v616c-0 3.33301 13.333 16.666 40 39.999zM763.999 1428c3.33301 0 16.667 -13.334 40 -40.001v-616
c0 -3.33301 -13.333 -16.666 -40 -39.999c-3.33301 0 -43.333 40 -120 120v456c0 3.33301 40 43.333 120 120zM40 692c3.33301 0 43.332 -39.999 119.999 -119.999v-408c0 -3.33301 -40 -43.333 -120 -120c-3.33301 0 -16.666 13.333 -39.999 40v568
c-0 3.33301 13.333 16.666 40 39.999zM763.999 688.001c3.33301 0 16.667 -13.334 40 -40.001v-568c0 -3.33301 -13.333 -16.666 -40 -39.999c-3.33301 0 -43.333 40 -120 120v408c0 3.33301 40 43.333 120 120zM200 160l407.999 -0.000976562
c3.33301 0 43.333 -40 120 -120c0 -3.33301 -13.333 -16.666 -40 -39.999h-568c-3.33301 -0 -16.666 13.333 -39.999 40c0 3.33301 40 43.333 120 120zM385.999 1907c16.667 0 51.332 -50.668 103.999 -152.001c-22.667 -106.667 -38.667 -160 -48 -160h-8
c-9.33301 0 -21.333 1.33301 -36 4c-11.333 9.33301 -68.666 105.333 -171.999 288c4.66699 28.667 10 47.334 16 56.001z" />
    <glyph glyph-name="uacute" unicode="&#xfa;" 
d="M40 1428c3.33301 0 43.332 -39.999 119.999 -119.999v-456c0 -3.33301 -40 -43.333 -120 -120c-3.33301 0 -16.666 13.333 -39.999 40v616c-0 3.33301 13.333 16.666 40 39.999zM763.999 1428c3.33301 0 16.667 -13.334 40 -40.001v-616
c0 -3.33301 -13.333 -16.666 -40 -39.999c-3.33301 0 -43.333 40 -120 120v456c0 3.33301 40 43.333 120 120zM40 692c3.33301 0 43.332 -39.999 119.999 -119.999v-408c0 -3.33301 -40 -43.333 -120 -120c-3.33301 0 -16.666 13.333 -39.999 40v568
c-0 3.33301 13.333 16.666 40 39.999zM763.999 688.001c3.33301 0 16.667 -13.334 40 -40.001v-568c0 -3.33301 -13.333 -16.666 -40 -39.999c-3.33301 0 -43.333 40 -120 120v408c0 3.33301 40 43.333 120 120zM200 160l407.999 -0.000976562
c3.33301 0 43.333 -40 120 -120c0 -3.33301 -13.333 -16.666 -40 -39.999h-568c-3.33301 -0 -16.666 13.333 -39.999 40c0 3.33301 40 43.333 120 120zM571.999 1943c6 -8.66699 11.3311 -27.333 15.998 -56c-103.333 -182.667 -160.666 -278.667 -171.999 -288
c-14.667 -2.66699 -26.667 -4 -36 -4h-8c-9.33301 0 -25.333 53.333 -48 160c52.667 101.333 87.334 152 104.001 152z" />
    <glyph glyph-name="ucircumflex" unicode="&#xfb;" 
d="M40 1428c3.33301 0 43.332 -39.999 119.999 -119.999v-456c0 -3.33301 -40 -43.333 -120 -120c-3.33301 0 -16.666 13.333 -39.999 40v616c-0 3.33301 13.333 16.666 40 39.999zM763.999 1428c3.33301 0 16.667 -13.334 40 -40.001v-616
c0 -3.33301 -13.333 -16.666 -40 -39.999c-3.33301 0 -43.333 40 -120 120v456c0 3.33301 40 43.333 120 120zM40 692c3.33301 0 43.332 -39.999 119.999 -119.999v-408c0 -3.33301 -40 -43.333 -120 -120c-3.33301 0 -16.666 13.333 -39.999 40v568
c-0 3.33301 13.333 16.666 40 39.999zM763.999 688.001c3.33301 0 16.667 -13.334 40 -40.001v-568c0 -3.33301 -13.333 -16.666 -40 -39.999c-3.33301 0 -43.333 40 -120 120v408c0 3.33301 40 43.333 120 120zM200 160l407.999 -0.000976562
c3.33301 0 43.333 -40 120 -120c0 -3.33301 -13.333 -16.666 -40 -39.999h-568c-3.33301 -0 -16.666 13.333 -39.999 40c0 3.33301 40 43.333 120 120zM385.999 1933c6 -8.66699 11.3311 -27.333 15.998 -56c-103.333 -182.667 -160.666 -278.667 -171.999 -288
c-14.667 -2.66699 -26.667 -4 -36 -4h-8c-9.33301 0 -25.333 53.333 -48 160c52.667 101.333 87.334 152 104.001 152zM561.997 1893c16.667 0 51.332 -50.668 103.999 -152.001c-22.667 -106.667 -38.667 -160 -48 -160h-8c-9.33301 0 -21.333 1.33301 -36 4
c-11.333 9.33301 -68.666 105.333 -171.999 288c4.66699 28.667 10 47.334 16 56.001z" />
    <glyph glyph-name="udieresis" unicode="&#xfc;" 
d="M40 1428c3.33301 0 43.332 -39.999 119.999 -119.999v-456c0 -3.33301 -40 -43.333 -120 -120c-3.33301 0 -16.666 13.333 -39.999 40v616c-0 3.33301 13.333 16.666 40 39.999zM763.999 1428c3.33301 0 16.667 -13.334 40 -40.001v-616
c0 -3.33301 -13.333 -16.666 -40 -39.999c-3.33301 0 -43.333 40 -120 120v456c0 3.33301 40 43.333 120 120zM40 692c3.33301 0 43.332 -39.999 119.999 -119.999v-408c0 -3.33301 -40 -43.333 -120 -120c-3.33301 0 -16.666 13.333 -39.999 40v568
c-0 3.33301 13.333 16.666 40 39.999zM763.999 688.001c3.33301 0 16.667 -13.334 40 -40.001v-568c0 -3.33301 -13.333 -16.666 -40 -39.999c-3.33301 0 -43.333 40 -120 120v408c0 3.33301 40 43.333 120 120zM200 160l407.999 -0.000976562
c3.33301 0 43.333 -40 120 -120c0 -3.33301 -13.333 -16.666 -40 -39.999h-568c-3.33301 -0 -16.666 13.333 -39.999 40c0 3.33301 40 43.333 120 120zM142.999 1789h8c4 0 36 -32 96 -96v-8c0 -4 -32 -36 -96 -96h-8c-4 0 -36 32 -96 96v8c0 4 32 36 96 96zM732.999 1785h8
c4 0 36 -32 96 -96v-8c0 -4 -32 -36 -96 -96h-8c-4 0 -36 32 -96 96v8c0 4 32 36 96 96z" />
    <glyph glyph-name="yacute" unicode="&#xfd;" horiz-adv-x="868" 
 />
    <glyph glyph-name="thorn" unicode="&#xfe;" horiz-adv-x="1010" 
 />
    <glyph glyph-name="ydieresis" unicode="&#xff;" horiz-adv-x="868" 
 />
    <glyph glyph-name="dotlessi" unicode="&#x131;" horiz-adv-x="514" 
 />
    <glyph glyph-name="circumflex" unicode="&#x2c6;" horiz-adv-x="1024" 
d="M444 1523c6 -8.66699 11.3311 -27.333 15.998 -56c-103.333 -182.667 -160.666 -278.667 -171.999 -288c-14.667 -2.66699 -26.667 -4 -36 -4h-8c-9.33301 0 -25.333 53.333 -48 160c52.667 101.333 87.334 152 104.001 152zM619.998 1483
c16.667 0 51.332 -50.668 103.999 -152.001c-22.667 -106.667 -38.667 -160 -48 -160h-8c-9.33301 0 -21.333 1.33301 -36 4c-11.333 9.33301 -68.666 105.333 -171.999 288c4.66699 28.667 10 47.334 16 56.001z" />
    <glyph glyph-name="caron" unicode="&#x2c7;" horiz-adv-x="1024" 
 />
    <glyph glyph-name="uni02C9" unicode="&#x2c9;" horiz-adv-x="1024" 
 />
    <glyph glyph-name="breve" unicode="&#x2d8;" horiz-adv-x="1024" 
 />
    <glyph glyph-name="dotaccent" unicode="&#x2d9;" horiz-adv-x="1024" 
 />
    <glyph glyph-name="ring" unicode="&#x2da;" horiz-adv-x="1024" 
d="M470 1385h8c4 0 36 -32 96 -96v-8c0 -4 -32 -36 -96 -96h-8c-4 0 -36 32 -96 96v8c0 4 32 36 96 96z" />
    <glyph glyph-name="ogonek" unicode="&#x2db;" horiz-adv-x="1024" 
 />
    <glyph glyph-name="tilde" unicode="&#x2dc;" horiz-adv-x="1024" 
d="M317 1535c6 -8.66699 11.3311 -27.333 15.998 -56c-103.333 -182.667 -160.666 -278.667 -171.999 -288c-14.667 -2.66699 -26.667 -4 -36 -4h-8c-9.33301 0 -25.333 53.333 -48 160c52.667 101.333 87.334 152 104.001 152zM372.998 1535
c112 -26.667 167.999 -45.334 167.999 -56.001c50.667 -87.333 76 -132.666 76 -135.999c-23.333 -104 -39.333 -156 -48 -156h-8c-31.333 0 -51.333 10.667 -60 32c-98.667 170.667 -148 260 -148 268c6.66699 32 13.334 48 20.001 48zM892.997 1535
c6 -8.66699 11.3311 -27.333 15.998 -56c-103.333 -182.667 -160.666 -278.667 -171.999 -288c-14.667 -2.66699 -26.667 -4 -36 -4h-8c-9.33301 0 -25.333 53.333 -48 160c52.667 101.333 87.334 152 104.001 152z" />
    <glyph glyph-name="hungarumlaut" unicode="&#x2dd;" horiz-adv-x="1024" 
 />
    <glyph glyph-name="endash" unicode="&#x2013;" horiz-adv-x="646" 
d="M89 164h472c3.33301 0 30 -26.667 80 -80v-4c0 -3.33301 -26.667 -30 -80 -80h-472c-3.33301 0 -30 26.667 -80 80v4c0 3.33301 26.667 30 80 80z" />
    <glyph glyph-name="emdash" unicode="&#x2014;" horiz-adv-x="646" 
d="M89 164h472c3.33301 0 30 -26.667 80 -80v-4c0 -3.33301 -26.667 -30 -80 -80h-472c-3.33301 0 -30 26.667 -80 80v4c0 3.33301 26.667 30 80 80z" />
    <glyph glyph-name="quoteleft" unicode="&#x2018;" horiz-adv-x="557" 
 />
    <glyph glyph-name="quoteright" unicode="&#x2019;" horiz-adv-x="557" 
 />
    <glyph glyph-name="quotesinglbase" unicode="&#x201a;" horiz-adv-x="557" 
 />
    <glyph glyph-name="quotedblleft" unicode="&#x201c;" horiz-adv-x="406" 
d="M20 2115c3.33301 0 23.333 -20 60 -60v-212c0 -3.33301 -20 -23.333 -60 -60c-3.33301 0 -10 6.66699 -20 20v292c0 3.33301 6.66699 10 20 20zM221 2115c3.33301 0 23.333 -20 60 -60v-212c0 -3.33301 -20 -23.333 -60 -60c-3.33301 0 -10 6.66699 -20 20v292
c0 3.33301 6.66699 10 20 20z" />
    <glyph glyph-name="quotedblright" unicode="&#x201d;" horiz-adv-x="406" 
d="M281 2095v-292c-10 -13.333 -16.667 -20 -20 -20c-40 36.667 -60 56.667 -60 60v212c36.667 40 56.667 60 60 60c13.333 -10 20 -16.667 20 -20zM80 2095v-292c-10 -13.333 -16.667 -20 -20 -20c-40 36.667 -60 56.667 -60 60v212c36.667 40 56.667 60 60 60
c13.333 -10 20 -16.667 20 -20z" />
    <glyph glyph-name="quotedblbase" unicode="&#x201e;" horiz-adv-x="910" 
 />
    <glyph glyph-name="dagger" unicode="&#x2020;" horiz-adv-x="1014" 
 />
    <glyph glyph-name="daggerdbl" unicode="&#x2021;" horiz-adv-x="1014" 
 />
    <glyph glyph-name="bullet" unicode="&#x2022;" horiz-adv-x="1024" 
 />
    <glyph glyph-name="ellipsis" unicode="&#x2026;" horiz-adv-x="2048" 
 />
    <glyph glyph-name="guilsinglleft" unicode="&#x2039;" horiz-adv-x="631" 
 />
    <glyph glyph-name="guilsinglright" unicode="&#x203a;" horiz-adv-x="631" 
 />
    <glyph glyph-name="fraction" unicode="&#x2044;" horiz-adv-x="342" 
 />
    <glyph glyph-name="fraction" unicode="&#x2215;" horiz-adv-x="342" 
 />
    <glyph glyph-name="franc" unicode="&#x20a3;" horiz-adv-x="1014" 
 />
    <glyph glyph-name="lira" unicode="&#x20a4;" horiz-adv-x="1014" 
 />
    <glyph glyph-name="peseta" unicode="&#x20a7;" horiz-adv-x="2028" 
 />
    <glyph glyph-name="Euro" unicode="&#x20ac;" horiz-adv-x="1014" 
 />
    <glyph glyph-name="afii61352" unicode="&#x2116;" horiz-adv-x="2271" 
 />
    <glyph glyph-name="trademark" unicode="&#x2122;" horiz-adv-x="1497" 
 />
    <glyph glyph-name="partialdiff" unicode="&#x2202;" horiz-adv-x="1014" 
 />
    <glyph glyph-name="Delta" unicode="&#x2206;" horiz-adv-x="1081" 
 />
    <glyph glyph-name="product" unicode="&#x220f;" horiz-adv-x="1515" 
 />
    <glyph glyph-name="summation" unicode="&#x2211;" horiz-adv-x="1206" 
 />
    <glyph glyph-name="minus" unicode="&#x2212;" horiz-adv-x="656" 
d="M89 974h472c3.33301 0 30 -26.667 80 -80v-4c0 -3.33301 -26.667 -30 -80 -80h-472c-3.33301 0 -30 26.667 -80 80v4c0 3.33301 26.667 30 80 80z" />
    <glyph glyph-name="radical" unicode="&#x221a;" horiz-adv-x="1014" 
 />
    <glyph glyph-name="infinity" unicode="&#x221e;" horiz-adv-x="1014" 
 />
    <glyph glyph-name="integral" unicode="&#x222b;" horiz-adv-x="665" 
 />
    <glyph glyph-name="approxequal" unicode="&#x2248;" horiz-adv-x="1014" 
 />
    <glyph glyph-name="lessequal" unicode="&#x2264;" horiz-adv-x="1014" 
 />
    <glyph glyph-name="greaterequal" unicode="&#x2265;" horiz-adv-x="1014" 
 />
    <glyph glyph-name="uniF001" unicode="&#xf001;" horiz-adv-x="1073" 
 />
    <glyph glyph-name="uniF001" unicode="&#xfb01;" horiz-adv-x="1073" 
 />
    <glyph glyph-name="uniF002" unicode="&#xf002;" horiz-adv-x="1081" 
 />
    <glyph glyph-name="uniF002" unicode="&#xfb02;" horiz-adv-x="1081" 
 />
    <glyph glyph-name=".null" horiz-adv-x="0" 
 />
    <glyph glyph-name="nonmarkingreturn" horiz-adv-x="508" 
 />
  </font>
</defs>
</svg>
