<svg xmlns="http://www.w3.org/2000/svg" xmlns:xlink="http://www.w3.org/1999/xlink" width="16" height="17"
     viewBox="0 0 16 17">
    <defs>
        <path id="9i85a"
              d="M42.9 25.6h-4v.65l.68.7c.07.07.12.18.12.29v1.64a.4.4 0 0 1-.4.4h-3.23a.4.4 0 0 1-.4-.4v-1.64c0-.11.04-.22.12-.3l.68-.7v-4.33a.6.6 0 0 1 0-.05c.11-.9.73-2.41 3.63-2.41a.4.4 0 0 1 .4.4c0 .18-.1.33-.26.4-1.25.46-1.35 1.29-1.35 2.09v.8h4c.2-.02 1.32-.15 2.56-.25a7.83 7.83 0 0 0-7.66-6.45c-4.3 0-7.79 3.55-7.79 7.93a7.86 7.86 0 0 0 7.8 7.92c3.8 0 6.96-2.77 7.65-6.44-1.24-.1-2.37-.23-2.55-.25"/>
    </defs>
    <g>
        <g transform="translate(-30 -16)">
            <use fill="#ffffff" xlink:href="#9i85a"/>
        </g>
    </g>
</svg>
