<?xml version="1.0" encoding="UTF-8"?>
<svg width="199px" height="17px" viewBox="0 0 199 17" version="1.1" xmlns="http://www.w3.org/2000/svg" xmlns:xlink="http://www.w3.org/1999/xlink">
    <!-- Generator: Sketch 45.2 (43514) - http://www.bohemiancoding.com/sketch -->
    <title>top_bar</title>
    <desc>Created with Sketch.</desc>
    <defs></defs>
    <g id="cont--signup-&gt;-member" stroke="none" stroke-width="1" fill="none" fill-rule="evenodd">
        <g id="4-sign-up-copy-5" transform="translate(-30.000000, -16.000000)">
            <g id="top_bar" transform="translate(30.000000, 16.000000)">
                <g id="logo">
                    <path d="M28.6233049,8.40714923 L28.6233049,8.36549538 C28.6233049,6.28631077 27.1458596,4.47414923 24.9818418,4.47414923 C22.8363568,4.47414923 21.3989938,6.24465692 21.3989938,8.32471846 L21.3989938,8.36549538 C21.3989938,10.4451185 22.8755772,12.2559646 25.0210622,12.2559646 C27.186804,12.2559646 28.6233049,10.4863338 28.6233049,8.40714923 M17.3713607,8.40714923 L17.3713607,8.36549538 C17.3713607,4.22729538 20.6507893,0.872187692 25.0210622,0.872187692 C29.3921971,0.872187692 32.6319744,4.18651846 32.6319744,8.32471846 L32.6319744,8.36549538 C32.6319744,12.5032569 29.3521147,15.8605569 24.9818418,15.8605569 C20.610276,15.8605569 17.3713607,12.5457877 17.3713607,8.40714923" id="Fill-1" fill="#FFFFFF"></path>
                    <polygon id="Fill-3" fill="#FFFFFF" points="35.4842455 1.15973077 39.1489822 1.15973077 44.9768747 8.778 44.9768747 1.15973077 48.8631421 1.15973077 48.8631421 15.5715231 45.4220909 15.5715231 39.3705128 7.66606154 39.3705128 15.5715231 35.4842455 15.5715231"></polygon>
                    <polygon id="Fill-5" fill="#FFFFFF" points="54.4762706 4.66001308 50.2262448 4.66001308 50.2262448 1.15977462 62.651784 1.15977462 62.651784 4.66001308 58.4013273 4.66001308 58.4013273 15.5715669 54.4762706 15.5715669"></polygon>
                    <path d="M71.6991971,8.07707538 C73.0361386,8.07707538 73.8041688,7.41850615 73.8041688,6.36926769 L73.8041688,6.32849077 C73.8041688,5.19550615 72.9951942,4.61936769 71.6789404,4.61936769 L69.1089269,4.61936769 L69.1089269,8.07707538 L71.6991971,8.07707538 Z M65.1825772,1.15990615 L71.8810763,1.15990615 C74.0468181,1.15990615 75.5436581,1.73648308 76.4957225,2.72389846 C77.3253847,3.54776769 77.7503442,4.66014462 77.7503442,6.08032154 L77.7503442,6.12197538 C77.7503442,8.32480615 76.5961439,9.78663692 74.835967,10.5482446 L78.2153861,15.57126 L73.6826287,15.57126 L70.8290215,11.2068138 L70.7880771,11.2068138 L69.1089269,11.2068138 L69.1089269,15.57126 L65.1825772,15.57126 L65.1825772,1.15990615 Z" id="Fill-7" fill="#FFFFFF"></path>
                    <path d="M88.6352114,9.88971923 L87.0569136,5.79229615 L85.4583592,9.88971923 L88.6352114,9.88971923 Z M85.1950222,1.05559615 L88.9791441,1.05559615 L95.0100345,15.5713038 L90.8009531,15.5713038 L89.768724,12.9975346 L84.3041589,12.9975346 L83.2921864,15.5713038 L79.1645628,15.5713038 L85.1950222,1.05559615 Z" id="Fill-9" fill="#FFFFFF"></path>
                    <path d="M95.7980197,8.40714923 L95.7980197,8.36549538 C95.7980197,4.16591077 98.9748719,0.872187692 103.265411,0.872187692 C106.159532,0.872187692 108.020992,2.10645692 109.276045,3.87740308 L106.322016,6.20388 C105.511318,5.17437231 104.580803,4.51492615 103.224898,4.51492615 C101.240604,4.51492615 99.8459096,6.22448769 99.8459096,8.32471846 L99.8459096,8.36549538 C99.8459096,10.5275492 101.240604,12.2151877 103.224898,12.2151877 C104.702774,12.2151877 105.572088,11.5149646 106.422438,10.4657262 L109.377759,12.6062954 C108.041249,14.48028 106.240558,15.8605569 103.103358,15.8605569 C99.0563297,15.8605569 95.7980197,12.7102108 95.7980197,8.40714923" id="Fill-11" fill="#FFFFFF"></path>
                    <polygon id="Fill-13" fill="#FFFFFF" points="115.328011 4.66001308 111.077554 4.66001308 111.077554 1.15977462 123.503955 1.15977462 123.503955 4.66001308 119.253929 4.66001308 119.253929 15.5715669 115.328011 15.5715669"></polygon>
                    <path d="M136.193521,8.40714923 L136.193521,8.36549538 C136.193521,6.28631077 134.715214,4.47414923 132.551196,4.47414923 C130.404849,4.47414923 128.968348,6.24465692 128.968348,8.32471846 L128.968348,8.36549538 C128.968348,10.4451185 130.445793,12.2559646 132.590847,12.2559646 C134.755296,12.2559646 136.193521,10.4863338 136.193521,8.40714923 M124.942008,8.40714923 L124.942008,8.36549538 C124.942008,4.22729538 128.220574,0.872187692 132.590847,0.872187692 C136.961982,0.872187692 140.199604,4.18651846 140.199604,8.32471846 L140.199604,8.36549538 C140.199604,12.5032569 136.9219,15.8605569 132.551196,15.8605569 C128.179199,15.8605569 124.942008,12.5457877 124.942008,8.40714923" id="Fill-15" fill="#FFFFFF"></path>
                    <path d="M149.571383,8.07707538 C150.907032,8.07707538 151.676786,7.41850615 151.676786,6.36926769 L151.676786,6.32849077 C151.676786,5.19550615 150.86738,4.61936769 149.551557,4.61936769 L146.981113,4.61936769 L146.981113,8.07707538 L149.571383,8.07707538 Z M143.056056,1.15990615 L149.753262,1.15990615 C151.919866,1.15990615 153.416275,1.73648308 154.367478,2.72389846 C155.198002,3.54776769 155.622961,4.66014462 155.622961,6.08032154 L155.622961,6.12197538 C155.622961,8.32480615 154.469623,9.78663692 152.709015,10.5482446 L156.088434,15.57126 L151.555677,15.57126 L148.70207,11.2068138 L148.661987,11.2068138 L146.981113,11.2068138 L146.981113,15.57126 L143.056056,15.57126 L143.056056,1.15990615 Z" id="Fill-17" fill="#FFFFFF"></path>
                    <path d="M157.343358,13.4295508 L159.53108,10.7746662 C160.926206,11.9067738 162.485109,12.50352 164.123745,12.50352 C165.177093,12.50352 165.742557,12.1334585 165.742557,11.5152277 L165.742557,11.4744508 C165.742557,10.8772662 165.277084,10.5479815 163.354422,10.0946123 C160.340486,9.39482769 158.012259,8.53062 158.012259,5.56530462 L158.012259,5.52408923 C158.012259,2.84903538 160.096543,0.912789231 163.496219,0.912789231 C165.903317,0.912789231 167.787189,1.57135846 169.324543,2.82711231 L167.361799,5.64817385 C166.065802,4.72258154 164.649557,4.22755846 163.394936,4.22755846 C162.443302,4.22755846 161.979553,4.63839692 161.979553,5.15402769 L161.979553,5.19568154 C161.979553,5.85468923 162.46399,6.14275846 164.427165,6.59525077 C167.685906,7.31608154 169.707696,8.38548923 169.707696,11.0824662 L169.707696,11.1249969 C169.707696,14.0692662 167.422138,15.8187277 163.981518,15.8187277 C161.472705,15.8187277 159.083278,15.0154662 157.343358,13.4295508" id="Fill-19" fill="#FFFFFF"></path>
                    <path d="M12.8973477,9.59546769 L8.8904022,9.59546769 L8.8904022,10.2452677 L9.57826764,10.9446138 C9.65326048,11.0222215 9.69679082,11.1270138 9.69679082,11.2353138 L9.69679082,12.8747215 C9.69679082,13.1009677 9.51620459,13.2846831 9.293812,13.2846831 L6.0699815,13.2846831 C5.8484509,13.2846831 5.66786468,13.1009677 5.66786468,12.8747215 L5.66786468,11.2353138 C5.66786468,11.1270138 5.71010203,11.0222215 5.78509488,10.9446138 L6.47339131,10.2452677 L6.47339131,5.90712923 C6.47339131,5.88959077 6.47425329,5.87336769 6.47554627,5.85758308 C6.58415661,4.95786 7.19789118,3.44692154 10.0993386,3.44692154 C10.2937167,3.44692154 10.4605111,3.58942154 10.4958525,3.78497538 C10.5001625,3.80952923 10.5018865,3.83364462 10.5018865,3.85732154 C10.5018865,4.02612923 10.39931,4.18090615 10.2389805,4.24229077 C8.99168564,4.71276 8.8904022,5.53356 8.8904022,6.33462923 L8.8904022,7.13526 L12.8973477,7.13526 C13.0843988,7.11552923 14.2127395,6.99012923 15.4475355,6.88358308 C14.764411,3.21453692 11.5983336,0.438198462 7.79223106,0.438198462 C3.48919313,0.438198462 -0.000129298015,3.98842154 -0.000129298015,8.36602154 C-0.000129298015,12.7436215 3.48919313,16.2929677 7.79223106,16.2929677 C11.5983336,16.2929677 14.764411,13.5179446 15.4475355,9.84889846 C14.2127395,9.74059846 13.0843988,9.61651385 12.8973477,9.59546769" id="Fill-21" fill="#FFFFFF"></path>
                    <path d="M197.229511,2.54005154 L197.368291,2.54005154 C197.523879,2.54005154 197.638093,2.48173615 197.638093,2.36554385 C197.638093,2.24891308 197.548446,2.18226692 197.384668,2.18226692 C197.319157,2.18226692 197.270455,2.19059769 197.229511,2.19059769 L197.229511,2.54005154 Z M197.221322,3.30516692 L196.861873,3.30516692 L196.861873,1.96610538 C196.967898,1.94944385 197.164,1.92445154 197.409235,1.92445154 C197.687226,1.92445154 197.809628,1.96610538 197.899706,2.02442077 C197.989783,2.08273615 198.046674,2.18226692 198.046674,2.31555923 C198.046674,2.45674385 197.924272,2.57337462 197.752737,2.62335923 L197.752737,2.64002077 C197.891517,2.69000538 197.965217,2.79786692 198.006161,2.98070538 C198.046674,3.18020538 198.07943,3.25518231 198.103996,3.30516692 L197.703604,3.30516692 C197.662659,3.25518231 197.638093,3.13855154 197.605337,2.99736692 C197.58077,2.85618231 197.507502,2.79786692 197.360102,2.79786692 L197.221322,2.79786692 L197.221322,3.30516692 Z M196.387781,2.61459 C196.387781,3.21352846 196.829118,3.69583615 197.417424,3.69583615 C198.006161,3.69583615 198.439309,3.21352846 198.439309,2.61459 C198.439309,2.01609 198.006161,1.53378231 197.417424,1.53378231 C196.829118,1.53378231 196.387781,2.01609 196.387781,2.61459 L196.387781,2.61459 Z M198.831513,2.60669769 C198.831513,3.39636692 198.210452,4.02029769 197.417424,4.02029769 C196.632585,4.02029769 195.995146,3.39636692 195.995146,2.60669769 C195.995146,1.83325154 196.632585,1.20932077 197.417424,1.20932077 C198.210452,1.20932077 198.831513,1.83325154 198.831513,2.60669769 L198.831513,2.60669769 Z" id="Fill-24" fill="#FFFFFF"></path>
                    <path d="M174.467845,4.31012077 L174.467845,4.29302077 C174.467845,2.57293615 175.768583,1.22422846 177.526174,1.22422846 C178.711406,1.22422846 179.473833,1.72977462 179.988008,2.45499 L178.777779,3.40776692 C178.445483,2.98596692 178.064916,2.71587462 177.509366,2.71587462 C176.696943,2.71587462 176.125446,3.41609769 176.125446,4.27635923 L176.125446,4.29302077 C176.125446,5.17827462 176.696943,5.86972846 177.509366,5.86972846 C178.114049,5.86972846 178.470912,5.58297462 178.819154,5.15328231 L180.029815,6.02976692 C179.481591,6.79751308 178.744593,7.36269 177.45937,7.36269 C175.80177,7.36269 174.467845,6.07229769 174.467845,4.31012077" id="Fill-27" fill="#FFFFFF"></path>
                    <path d="M185.292503,4.31012077 L185.292503,4.29302077 C185.292503,3.44152846 184.687388,2.69921308 183.800404,2.69921308 C182.92247,2.69921308 182.333733,3.42442846 182.333733,4.27635923 L182.333733,4.29302077 C182.333733,5.14451308 182.938417,5.88639 183.817212,5.88639 C184.704197,5.88639 185.292503,5.16161308 185.292503,4.31012077 M180.68389,4.31012077 L180.68389,4.29302077 C180.68389,2.59836692 182.026435,1.22422846 183.817212,1.22422846 C185.607559,1.22422846 186.934156,2.58170538 186.934156,4.27635923 L186.934156,4.29302077 C186.934156,5.98767462 185.59075,7.36269 183.800404,7.36269 C182.010057,7.36269 180.68389,6.00521308 180.68389,4.31012077" id="Fill-29" fill="#FFFFFF"></path>
                    <polygon id="Fill-31" fill="#FFFFFF" points="188.103097 1.34186769 189.802073 1.34186769 191.186423 3.62669077 192.570343 1.34186769 194.26975 1.34186769 194.26975 7.24443692 192.669903 7.24443692 192.669903 3.85425231 191.186423 6.16538308 191.153237 6.16538308 189.677946 3.87135231 189.677946 7.24443692 188.103097 7.24443692"></polygon>
                    <path d="M173.901994,6.33397154 C173.901994,6.89257154 173.456778,7.34550231 172.907692,7.34550231 C172.358176,7.34550231 171.91296,6.89257154 171.91296,6.33397154 C171.91296,5.77493308 172.358176,5.32200231 172.907692,5.32200231 C173.456778,5.32200231 173.901994,5.77493308 173.901994,6.33397154" id="Fill-33" fill="#FFFFFF"></path>
                </g>
            </g>
        </g>
    </g>
</svg>
