<?xml version="1.0" encoding="utf-8"?>
<!-- Generator: Adobe Illustrator 19.0.0, SVG Export Plug-In . SVG Version: 6.00 Build 0)  -->
<svg version="1.1" id="Layer_1" xmlns="http://www.w3.org/2000/svg" xmlns:xlink="http://www.w3.org/1999/xlink" x="0px" y="0px"
	 viewBox="0 0 188.7 169.8" style="enable-background:new 0 0 188.7 169.8;" xml:space="preserve">
<metadata><?xpacket begin="﻿" id="W5M0MpCehiHzreSzNTczkc9d"?>
<x:xmpmeta xmlns:x="adobe:ns:meta/" x:xmptk="Adobe XMP Core 5.6-c067 79.157747, 2015/03/30-23:40:42        ">
   <rdf:RDF xmlns:rdf="http://www.w3.org/1999/02/22-rdf-syntax-ns#">
      <rdf:Description rdf:about=""/>
   </rdf:RDF>
</x:xmpmeta>
                                                                                                    
                                                                                                    
                                                                                                    
                                                                                                    
                                                                                                    
                                                                                                    
                                                                                                    
                                                                                                    
                                                                                                    
                                                                                                    
                                                                                                    
                                                                                                    
                                                                                                    
                                                                                                    
                                                                                                    
                                                                                                    
                                                                                                    
                                                                                                    
                                                                                                    
                                                                                                    
                           
<?xpacket end="w"?></metadata>
<style type="text/css">
	.st0{opacity:0.15;fill:#939598;}
	.st1{fill:url(#XMLID_481_);}
	.st2{fill:url(#XMLID_482_);}
	.st3{fill:url(#XMLID_483_);}
	.st4{fill:url(#XMLID_484_);}
	.st5{fill:url(#XMLID_485_);}
	.st6{fill:url(#XMLID_486_);}
	.st7{fill:url(#XMLID_487_);}
	.st8{fill:url(#XMLID_488_);}
	.st9{fill:#59595B;}
	.st10{fill:#43BFB3;}
	.st11{fill:#A7A9AC;}
	.st12{fill:#FFFFFF;}
	.st13{fill:#939598;}
	.st14{fill:none;stroke:#A7A9AC;stroke-width:0.4073;stroke-linecap:round;stroke-miterlimit:10;}
	.st15{fill:url(#XMLID_489_);}
	.st16{fill:url(#XMLID_490_);}
	.st17{fill:url(#XMLID_491_);}
	.st18{fill:url(#XMLID_492_);}
	.st19{fill:url(#XMLID_493_);}
	.st20{fill:url(#XMLID_494_);}
	.st21{fill:none;stroke:#D1D3D4;stroke-width:2.000000e-03;stroke-miterlimit:10;}
</style>
<path id="XMLID_478_" class="st0" d="M180.2,75.2l-0.8-1.4c1.6-1,3.2-1.9,5-2.6l-4.5-7.8c0,0-1.6,1.4-4.6,3.2l-0.7-1.2
	c0.4-0.4,0.6-1.1,0.3-1.6c-0.4-0.6-1.2-0.8-1.8-0.5c-0.6,0.4-0.8,1.2-0.5,1.8c0.3,0.5,1,0.8,1.5,0.6l0.7,1.2c-1.2,0.7-2.5,1.4-4,2.1
	l-0.9-1.6c0.4-0.4,0.6-1.1,0.3-1.6c-0.4-0.6-1.2-0.8-1.8-0.5c-0.6,0.4-0.8,1.2-0.5,1.8c0.3,0.5,1,0.8,1.5,0.6l0.9,1.5
	c-1.3,0.6-2.7,1.2-4.2,1.7l-0.9-1.5c0.4-0.4,0.6-1.1,0.3-1.6c-0.4-0.6-1.2-0.8-1.8-0.5c-0.6,0.4-0.8,1.2-0.5,1.8
	c0.3,0.5,1,0.8,1.5,0.6l0.8,1.4c-1.8,0.6-3.8,1.1-5.9,1.5c0,0,1.4,3.5-2.6,5.9l-60,34.6c-2.6,1.5-5.9,0.7-7.5-1.8c0,0,0,0,0,0
	c-0.6-0.9-0.9-1.8-0.9-2.7c0-5.7,11.8-9.3,9.7-12.9c-0.3-0.5-1-0.9-1.8-1.1c-2.9-0.8-7.2,1.6-7.2,1.6c-8.8,5.1-11.7,13.5-18.7,17.5
	c-5.6,3.3-19.5,0.7-27.9,5.6c-7.9,4.5-7.9,13.7-4.2,21.9c0.4,0.9,0.9,1.9,1.5,2.7l8,12.8c0.8,1.2,1.7,2.4,2.8,3.5
	c6.9,6.9,14.5,6.1,19.8,3c7.9-4.6,10.2-15.8,15.7-18.9c3.3-1.9,10.7-1.1,17.6-4.5c2.4-1.4,3.3-2.7,3.6-3.8c0.3-1.1-0.1-2-0.3-2.4
	c-0.1-0.2-0.2-0.3-0.2-0.3c-0.6-1-2.4-0.6-2.4-0.6c-4,1.4-10.3,2.6-12.1-0.5c-0.9-1.5-0.9-2.9-0.5-4.1c0.4-1.3,1.2-2.5,2.4-3.2
	l66.4-40.5c0,0,3.2-2.3,6.4,0.4c0,0,1.4-1.8,3.8-4.2l0.6,1c-0.4,0.4-0.6,1.1-0.3,1.6c0.4,0.6,1.2,0.8,1.8,0.5
	c0.6-0.4,0.8-1.2,0.5-1.8c-0.3-0.5-1-0.8-1.5-0.6l-0.7-1.1c1-1,2.2-2,3.4-3.1l0.8,1.4c-0.4,0.4-0.6,1.1-0.3,1.6
	c0.4,0.6,1.2,0.8,1.8,0.5c0.6-0.4,0.8-1.2,0.5-1.8c-0.3-0.5-1-0.8-1.5-0.6l-0.9-1.5c1.1-0.9,2.4-1.8,3.7-2.7l0.8,1.4
	c-0.4,0.4-0.6,1.1-0.3,1.6c0.4,0.6,1.2,0.8,1.8,0.5c0.6-0.4,0.8-1.2,0.5-1.8C181.4,75.3,180.8,75.1,180.2,75.2z"/>
<g id="XMLID_1085_">
	<g id="XMLID_1030_">
		
			<linearGradient id="XMLID_481_" gradientUnits="userSpaceOnUse" x1="-1223.3057" y1="2745.9443" x2="-1223.3086" y2="2750.3047" gradientTransform="matrix(0.8646 -0.5024 -0.5024 -0.8646 2596.9543 1788.7744)">
			<stop  offset="0.3246" style="stop-color:#7D6D73"/>
			<stop  offset="1" style="stop-color:#070404"/>
		</linearGradient>
		<polygon id="XMLID_1102_" class="st1" points="157.9,25.3 157.2,25.7 159.5,29.7 160.2,29.3 		"/>
		
			<linearGradient id="XMLID_482_" gradientUnits="userSpaceOnUse" x1="-1223.9489" y1="2747.6619" x2="-1223.0233" y2="2743.1912" gradientTransform="matrix(0.8646 -0.5024 -0.5024 -0.8646 2596.9543 1788.7744)">
			<stop  offset="0.3246" style="stop-color:#7D6D73"/>
			<stop  offset="1" style="stop-color:#070404"/>
		</linearGradient>
		<circle id="XMLID_1101_" class="st2" cx="159.7" cy="29.6" r="1.9"/>
		
			<linearGradient id="XMLID_483_" gradientUnits="userSpaceOnUse" x1="-1216.1656" y1="2746.8625" x2="-1215.999" y2="2751.2195" gradientTransform="matrix(0.8646 -0.5024 -0.5024 -0.8646 2596.9543 1788.7744)">
			<stop  offset="0.3246" style="stop-color:#7D6D73"/>
			<stop  offset="1" style="stop-color:#070404"/>
		</linearGradient>
		<polygon id="XMLID_1099_" class="st3" points="163.7,20.9 163,21.3 165.3,25.2 166,24.8 		"/>
		
			<linearGradient id="XMLID_484_" gradientUnits="userSpaceOnUse" x1="-1216.5303" y1="2748.6191" x2="-1215.6047" y2="2744.1484" gradientTransform="matrix(0.8646 -0.5024 -0.5024 -0.8646 2596.9543 1788.7744)">
			<stop  offset="0.3246" style="stop-color:#7D6D73"/>
			<stop  offset="1" style="stop-color:#070404"/>
		</linearGradient>
		<circle id="XMLID_1097_" class="st4" cx="165.6" cy="25" r="1.9"/>
		
			<linearGradient id="XMLID_485_" gradientUnits="userSpaceOnUse" x1="-1208.7476" y1="2747.616" x2="-1208.5811" y2="2751.9731" gradientTransform="matrix(0.8646 -0.5024 -0.5024 -0.8646 2596.9543 1788.7744)">
			<stop  offset="0.3246" style="stop-color:#7D6D73"/>
			<stop  offset="1" style="stop-color:#070404"/>
		</linearGradient>
		<polygon id="XMLID_1095_" class="st5" points="169.7,16.5 169,16.9 171.3,20.9 172,20.5 		"/>
		
			<linearGradient id="XMLID_486_" gradientUnits="userSpaceOnUse" x1="-1209.1117" y1="2749.5762" x2="-1208.1862" y2="2745.1055" gradientTransform="matrix(0.8646 -0.5024 -0.5024 -0.8646 2596.9543 1788.7744)">
			<stop  offset="0.3246" style="stop-color:#7D6D73"/>
			<stop  offset="1" style="stop-color:#070404"/>
		</linearGradient>
		<circle id="XMLID_1094_" class="st6" cx="171.5" cy="20.5" r="1.9"/>
	</g>
	
		<linearGradient id="XMLID_487_" gradientUnits="userSpaceOnUse" x1="-73.5403" y1="1611.7992" x2="-39.1038" y2="1445.4482" gradientTransform="matrix(0.9997 2.293429e-02 -2.293429e-02 0.9997 178.7962 -1472.6337)">
		<stop  offset="0" style="stop-color:#070404"/>
		<stop  offset="0.6754" style="stop-color:#7D6D73"/>
	</linearGradient>
	<path id="XMLID_984_" class="st7" d="M169.3,4.7c0,0-14,9.6-24,9.3c0,0,2.5,5.4-2.2,7.9L73.5,60.5c-3.3,1.9-6.2,0.4-8.2-2.6
		c-5-8.6,13.1-12.8,10.5-17.5c-0.3-0.6-1.1-1.1-2-1.3c-3.2-0.9-8.3,1.7-8.3,1.7c-10.2,5.6-13.8,15.1-21.8,19.5
		c-6.5,3.6-22.3,0.3-32,5.7c-9.8,5.3-9.4,17-4.4,27l10.4,17.3c8.3,10.8,18,10.2,24.8,6.5c9.2-5,12.1-17.7,18.4-21.2
		c3.8-2.1,12.2-1,20.2-4.7c2.8-1.5,3.9-3,4.2-4.3c0.4-1.3,0-2.3-0.3-2.8c-0.1-0.2-0.2-0.4-0.2-0.4c-0.6-1.2-2.7-0.7-2.7-0.7
		c-4.6,1.6-11.9,2.7-13.8-0.9c-1.3-2.3-0.8-4.4,0-5.9c0.7-1.3,1.7-2.3,2.9-3.1l76.2-44.1c0,0,5.3-3,7.8,1.4c0,0,9.1-12.1,19.7-16
		C170.7,11.8,169.4,9.5,169.3,4.7z"/>
	
		<linearGradient id="XMLID_488_" gradientUnits="userSpaceOnUse" x1="-73.5403" y1="1611.7992" x2="-39.1038" y2="1445.4482" gradientTransform="matrix(0.9997 2.293429e-02 -2.293429e-02 0.9997 178.7962 -1472.6337)">
		<stop  offset="0" style="stop-color:#070404"/>
		<stop  offset="0.6754" style="stop-color:#7D6D73"/>
	</linearGradient>
	<path id="XMLID_1069_" class="st8" d="M169.3,4.7c0,0-14,9.6-24,9.3c0,0,2.5,5.4-2.2,7.9L73.5,60.5c-2.3,1.3-5.4,0.5-7.2-1.4
		c-0.3-0.3-0.6-0.7-1-1.2c-4.8-8.7,13.1-12.8,10.5-17.5c-0.3-0.6-1.1-1.1-2-1.3c-3.2-0.9-8.3,1.7-8.3,1.7
		c-10.2,5.6-13.8,15.1-21.8,19.5c-6.5,3.6-22.3,0.3-32,5.7c-9.8,5.3-9.4,17-4.4,27l10.4,17.3c8.3,10.8,18,10.2,24.8,6.5
		c9.2-5,12.1-17.7,18.4-21.2c3.8-2.1,12.2-1,20.2-4.7c2.8-1.5,3.9-3,4.2-4.3c0.4-1.3,0-2.3-0.3-2.8c-0.1-0.2-0.2-0.4-0.2-0.4
		c-0.6-1.2-2.7-0.7-2.7-0.7c-4.6,1.6-11.9,2.7-13.8-0.9c-1.3-2.3-0.8-4.4,0-5.9c0.7-1.3,1.7-2.3,2.9-3.1l76.2-44.1
		c0,0,5.3-3,7.8,1.4c0,0,9.1-12.1,19.7-16C170.7,11.8,169.4,9.5,169.3,4.7z"/>
	<g id="XMLID_996_">
		<path id="XMLID_985_" d="M47.5,90.3L41,94c-0.3,0.2-0.7,0.1-0.8-0.2l-7.4-12.9c-0.2-0.3-0.1-0.7,0.2-0.8l6.5-3.8
			c0.3-0.2,0.7-0.1,0.8,0.2l7.4,12.9C47.9,89.7,47.8,90.1,47.5,90.3z"/>
		<path id="XMLID_990_" class="st9" d="M39.7,91.8l-5.5-9.5c-0.2-0.3-0.1-0.6,0.2-0.8l5.6-3.2c0.3-0.2,0.6-0.1,0.8,0.2l5.5,9.5
			c0.2,0.3,0.1,0.6-0.2,0.8L40.5,92C40.2,92.2,39.9,92.1,39.7,91.8z"/>
		<path id="XMLID_989_" class="st10" d="M41.4,90.9L41.4,90.9c-0.8,0.4-1.7,0.2-2.2-0.6l-3.9-6.7c-0.4-0.8-0.2-1.7,0.6-2.2h0
			c0.8-0.4,1.7-0.2,2.2,0.6l3.9,6.7C42.5,89.4,42.2,90.4,41.4,90.9z"/>
		<path id="XMLID_991_" class="st10" d="M44.6,89.1L44.6,89.1c-0.8,0.4-1.7,0.2-2.2-0.6l-3.9-6.7C38,81,38.3,80,39.1,79.5l0,0
			c0.8-0.4,1.7-0.2,2.2,0.6l3.9,6.7C45.6,87.6,45.3,88.6,44.6,89.1z"/>
	</g>
	<path id="XMLID_1047_" d="M37.9,95.6l-6.5,3.8c-0.3,0.2-0.7,0.1-0.8-0.2l-7.4-12.9c-0.2-0.3-0.1-0.7,0.2-0.8l6.5-3.8
		c0.3-0.2,0.7-0.1,0.8,0.2l7.4,12.9C38.3,95.1,38.2,95.4,37.9,95.6z"/>
	<path id="XMLID_1046_" class="st10" d="M30.2,97.5l-5.8-10.1c-0.1-0.1,0-0.2,0.1-0.3l0.5-0.3c0.1-0.1,0.2,0,0.3,0.1L31.1,97
		c0.1,0.1,0,0.2-0.1,0.3l-0.5,0.3C30.4,97.6,30.3,97.6,30.2,97.5z"/>
	<path id="XMLID_1044_" class="st11" d="M30.8,85.8L30.8,85.8c-0.2-0.3-0.1-0.6,0.2-0.7l0,0c0.2-0.1,0.5-0.1,0.7,0.2l0,0
		c0.1,0.2,0.1,0.5-0.2,0.7l0,0C31.2,86.1,30.9,86,30.8,85.8z"/>
	<path id="XMLID_1086_" class="st12" d="M46.5,77.1L46.5,77.1c-0.2-0.3-0.1-0.6,0.2-0.7l0,0c0.2-0.1,0.5-0.1,0.7,0.2l0,0
		c0.1,0.2,0.1,0.5-0.2,0.7l0,0C46.9,77.4,46.6,77.3,46.5,77.1z"/>
	<path id="XMLID_1045_" class="st11" d="M31.6,87.1L31.6,87.1c-0.2-0.3-0.1-0.6,0.2-0.7l0,0c0.2-0.1,0.5-0.1,0.7,0.2l0,0
		c0.1,0.2,0.1,0.5-0.2,0.7l0,0C32,87.4,31.7,87.3,31.6,87.1z"/>
	<path id="XMLID_1087_" class="st12" d="M47.2,78.4L47.2,78.4c-0.2-0.3-0.1-0.6,0.2-0.7l0,0c0.2-0.1,0.5-0.1,0.7,0.2l0,0
		c0.1,0.2,0.1,0.5-0.2,0.7l0,0C47.7,78.7,47.4,78.7,47.2,78.4z"/>
	<path id="XMLID_1049_" class="st11" d="M32.5,88.6L32.5,88.6c-0.2-0.3-0.1-0.6,0.2-0.7l0,0c0.2-0.1,0.5-0.1,0.7,0.2l0,0
		c0.1,0.2,0.1,0.5-0.2,0.7l0,0C32.9,88.9,32.6,88.9,32.5,88.6z"/>
	<path id="XMLID_1091_" class="st12" d="M48.2,80L48.2,80c-0.2-0.3-0.1-0.6,0.2-0.7l0,0c0.2-0.1,0.5-0.1,0.7,0.2l0,0
		c0.1,0.2,0.1,0.5-0.2,0.7l0,0C48.6,80.3,48.3,80.3,48.2,80z"/>
	<path id="XMLID_1050_" class="st11" d="M33.3,90.2L33.3,90.2c-0.2-0.3-0.1-0.6,0.2-0.7l0,0c0.2-0.1,0.5-0.1,0.7,0.2l0,0
		c0.1,0.2,0.1,0.5-0.2,0.7l0,0C33.8,90.5,33.5,90.4,33.3,90.2z"/>
	<path id="XMLID_1092_" class="st12" d="M49,81.4L49,81.4c-0.2-0.3-0.1-0.6,0.2-0.7l0,0c0.2-0.1,0.5-0.1,0.7,0.2l0,0
		c0.1,0.2,0.1,0.5-0.2,0.7l0,0C49.4,81.7,49.1,81.6,49,81.4z"/>
	<path id="XMLID_1051_" class="st11" d="M34.2,91.7L34.2,91.7c-0.2-0.3-0.1-0.6,0.2-0.7l0,0c0.2-0.1,0.5-0.1,0.7,0.2l0,0
		c0.1,0.2,0.1,0.5-0.2,0.7l0,0C34.7,92,34.4,91.9,34.2,91.7z"/>
	<path id="XMLID_1096_" class="st12" d="M49.7,82.7L49.7,82.7c-0.2-0.3-0.1-0.6,0.2-0.7l0,0c0.2-0.1,0.5-0.1,0.7,0.2l0,0
		c0.1,0.2,0.1,0.5-0.2,0.7l0,0C50.2,83,49.9,83,49.7,82.7z"/>
	<path id="XMLID_1052_" class="st11" d="M35.1,93.2L35.1,93.2c-0.2-0.3-0.1-0.6,0.2-0.7l0,0c0.2-0.1,0.5-0.1,0.7,0.2l0,0
		c0.1,0.2,0.1,0.5-0.2,0.7l0,0C35.5,93.5,35.2,93.4,35.1,93.2z"/>
	<path id="XMLID_1136_" class="st9" d="M36.2,82.9L36.2,82.9c-0.2-0.3-0.1-0.6,0.2-0.7l0,0c0.2-0.1,0.5-0.1,0.7,0.2l0,0
		c0.1,0.2,0.1,0.5-0.2,0.7l0,0C36.7,83.2,36.4,83.1,36.2,82.9z"/>
	<path id="XMLID_1137_" class="st9" d="M39.4,81.1L39.4,81.1c-0.2-0.3-0.1-0.6,0.2-0.7l0,0c0.2-0.1,0.5-0.1,0.7,0.2l0,0
		c0.1,0.2,0.1,0.5-0.2,0.7l0,0C39.8,81.4,39.5,81.3,39.4,81.1z"/>
	<path id="XMLID_1135_" class="st9" d="M37,84.2L37,84.2c-0.2-0.3-0.1-0.6,0.2-0.7l0,0c0.2-0.1,0.5-0.1,0.7,0.2l0,0
		c0.1,0.2,0.1,0.5-0.2,0.7l0,0C37.4,84.5,37.1,84.4,37,84.2z"/>
	<path id="XMLID_1138_" class="st9" d="M40.1,82.4L40.1,82.4c-0.2-0.3-0.1-0.6,0.2-0.7l0,0c0.2-0.1,0.5-0.1,0.7,0.2l0,0
		c0.1,0.2,0.1,0.5-0.2,0.7l0,0C40.6,82.7,40.3,82.6,40.1,82.4z"/>
	<path id="XMLID_1133_" class="st9" d="M37.9,85.7L37.9,85.7c-0.2-0.3-0.1-0.6,0.2-0.7l0,0c0.2-0.1,0.5-0.1,0.7,0.2l0,0
		c0.1,0.2,0.1,0.5-0.2,0.7l0,0C38.3,86,38,86,37.9,85.7z"/>
	<path id="XMLID_1140_" class="st9" d="M41,83.9L41,83.9c-0.2-0.3-0.1-0.6,0.2-0.7l0,0c0.2-0.1,0.5-0.1,0.7,0.2l0,0
		c0.1,0.2,0.1,0.5-0.2,0.7l0,0C41.4,84.2,41.2,84.2,41,83.9z"/>
	<path id="XMLID_1132_" class="st9" d="M38.7,87.1L38.7,87.1c-0.2-0.3-0.1-0.6,0.2-0.7l0,0c0.2-0.1,0.5-0.1,0.7,0.2l0,0
		c0.1,0.2,0.1,0.5-0.2,0.7l0,0C39.1,87.4,38.8,87.3,38.7,87.1z"/>
	<path id="XMLID_1141_" class="st9" d="M41.8,85.3L41.8,85.3c-0.2-0.3-0.1-0.6,0.2-0.7l0,0c0.2-0.1,0.5-0.1,0.7,0.2l0,0
		c0.1,0.2,0.1,0.5-0.2,0.7l0,0C42.2,85.6,41.9,85.5,41.8,85.3z"/>
	<path id="XMLID_1131_" class="st9" d="M39.6,88.6L39.6,88.6c-0.2-0.3-0.1-0.6,0.2-0.7l0,0c0.2-0.1,0.5-0.1,0.7,0.2l0,0
		c0.1,0.2,0.1,0.5-0.2,0.7l0,0C40,88.9,39.7,88.8,39.6,88.6z"/>
	<path id="XMLID_1142_" class="st9" d="M42.7,86.8L42.7,86.8c-0.2-0.3-0.1-0.6,0.2-0.7l0,0c0.2-0.1,0.5-0.1,0.7,0.2l0,0
		c0.1,0.2,0.1,0.5-0.2,0.7l0,0C43.1,87.1,42.8,87,42.7,86.8z"/>
	<path id="XMLID_1122_" class="st9" d="M40.4,90.1L40.4,90.1c-0.2-0.3-0.1-0.6,0.2-0.7l0,0c0.2-0.1,0.5-0.1,0.7,0.2l0,0
		c0.1,0.2,0.1,0.5-0.2,0.7l0,0C40.9,90.4,40.6,90.4,40.4,90.1z"/>
	<path id="XMLID_1143_" class="st9" d="M43.5,88.3L43.5,88.3c-0.2-0.3-0.1-0.6,0.2-0.7l0,0c0.2-0.1,0.5-0.1,0.7,0.2l0,0
		c0.1,0.2,0.1,0.5-0.2,0.7l0,0C44,88.6,43.7,88.5,43.5,88.3z"/>
	<path id="XMLID_1100_" class="st12" d="M50.6,84.2L50.6,84.2c-0.2-0.3-0.1-0.6,0.2-0.7l0,0c0.2-0.1,0.5-0.1,0.7,0.2l0,0
		c0.1,0.2,0.1,0.5-0.2,0.7l0,0C51,84.5,50.7,84.4,50.6,84.2z"/>
	<path id="XMLID_1042_" class="st10" d="M32.2,96.2l-5.7-9.9c-0.1-0.2,0-0.4,0.1-0.5l2-1.2c0.2-0.1,0.4,0,0.5,0.1l5.7,9.9
		c0.1,0.2,0,0.4-0.1,0.5l-2,1.2C32.5,96.4,32.3,96.3,32.2,96.2z"/>
	<g id="XMLID_1034_">
		<path id="XMLID_1039_" d="M65.2,80.3l-6.5,3.8c-0.3,0.2-0.7,0.1-0.8-0.2L50.4,71c-0.2-0.3-0.1-0.7,0.2-0.8l6.5-3.8
			c0.3-0.2,0.7-0.1,0.8,0.2l7.4,12.9C65.6,79.7,65.5,80.1,65.2,80.3z"/>
		<path id="XMLID_1037_" class="st9" d="M57.4,81.9l-5.5-9.5c-0.2-0.3-0.1-0.6,0.2-0.8l5.6-3.2c0.3-0.2,0.6-0.1,0.8,0.2l5.5,9.5
			c0.2,0.3,0.1,0.6-0.2,0.8l-5.6,3.2C57.9,82.2,57.6,82.1,57.4,81.9z"/>
		<path id="XMLID_1036_" class="st10" d="M59.1,80.9L59.1,80.9c-0.8,0.4-1.7,0.2-2.2-0.6L53,73.5c-0.4-0.8-0.2-1.7,0.6-2.2h0
			c0.8-0.4,1.7-0.2,2.2,0.6l3.9,6.7C60.2,79.5,59.9,80.4,59.1,80.9z"/>
		<path id="XMLID_1035_" class="st10" d="M62.3,79.1L62.3,79.1c-0.8,0.4-1.7,0.2-2.2-0.6l-3.9-6.7C55.7,71,56,70,56.8,69.5v0
			c0.8-0.4,1.7-0.2,2.2,0.6l3.9,6.7C63.3,77.6,63,78.6,62.3,79.1z"/>
	</g>
	<circle id="XMLID_993_" class="st13" cx="43.8" cy="95.9" r="2.5"/>
	<circle id="XMLID_994_" class="st13" cx="42.7" cy="104.3" r="2.5"/>
	<circle id="XMLID_995_" class="st13" cx="39.5" cy="112.3" r="2.5"/>
	<g id="XMLID_1031_">
		<g id="XMLID_998_">
			<line id="XMLID_999_" class="st14" x1="68.6" y1="63.8" x2="72.9" y2="71.3"/>
			<line id="XMLID_1000_" class="st14" x1="70.5" y1="62.8" x2="74.7" y2="70.3"/>
			<line id="XMLID_386_" class="st14" x1="72.6" y1="61.6" x2="76.9" y2="69.1"/>
			<line id="XMLID_385_" class="st14" x1="74.6" y1="60.5" x2="78.8" y2="68"/>
			<line id="XMLID_384_" class="st14" x1="76.7" y1="59.2" x2="81" y2="66.7"/>
			<line id="XMLID_383_" class="st14" x1="79.1" y1="57.9" x2="83.4" y2="65.4"/>
			<line id="XMLID_382_" class="st14" x1="81.8" y1="56.6" x2="85.9" y2="63.9"/>
			<line id="XMLID_381_" class="st14" x1="84.6" y1="55" x2="88.6" y2="62.2"/>
			<line id="XMLID_380_" class="st14" x1="87.4" y1="53.4" x2="91.4" y2="60.6"/>
			<line id="XMLID_378_" class="st14" x1="90.4" y1="51.7" x2="94.4" y2="58.9"/>
			<line id="XMLID_1011_" class="st14" x1="93.6" y1="49.9" x2="97.6" y2="57.1"/>
			<line id="XMLID_1013_" class="st14" x1="96.9" y1="48.1" x2="100.9" y2="55.2"/>
			<line id="XMLID_1014_" class="st14" x1="100.4" y1="46.1" x2="104.4" y2="53.2"/>
			<line id="XMLID_1015_" class="st14" x1="104.2" y1="43.9" x2="108.2" y2="51.1"/>
			<line id="XMLID_1016_" class="st14" x1="108.3" y1="41.6" x2="112.3" y2="48.7"/>
			<line id="XMLID_1018_" class="st14" x1="112.4" y1="39.3" x2="116.3" y2="46.3"/>
			<line id="XMLID_1019_" class="st14" x1="116.8" y1="36.8" x2="120.7" y2="43.8"/>
			<line id="XMLID_1020_" class="st14" x1="121.8" y1="34.2" x2="125.6" y2="41"/>
			<line id="XMLID_1021_" class="st14" x1="126.7" y1="31.4" x2="130.5" y2="38.2"/>
			<line id="XMLID_1024_" class="st14" x1="132" y1="28.4" x2="135.8" y2="35"/>
			<line id="XMLID_1025_" class="st14" x1="137.8" y1="25.4" x2="141.4" y2="31.8"/>
			<line id="XMLID_1026_" class="st14" x1="144.1" y1="21.8" x2="147.8" y2="28.2"/>
		</g>
	</g>
	<path id="XMLID_1060_" d="M28.4,87.4L28.4,87.4c-0.1-0.2-0.1-0.5,0.1-0.6l0,0c0.2-0.1,0.4,0,0.5,0.1l0,0c0.1,0.2,0,0.4-0.1,0.5l0,0
		C28.8,87.6,28.5,87.6,28.4,87.4z"/>
	<path id="XMLID_1059_" d="M29.1,88.5L29.1,88.5C29,88.3,29,88.1,29.2,88l0,0c0.2-0.1,0.4,0,0.5,0.1l0,0c0.1,0.2,0,0.4-0.1,0.5l0,0
		C29.5,88.8,29.2,88.7,29.1,88.5z"/>
	<path id="XMLID_1057_" d="M30,90.1L30,90.1c-0.1-0.2-0.1-0.5,0.1-0.6l0,0c0.2-0.1,0.4,0,0.5,0.1l0,0c0.1,0.2,0,0.4-0.1,0.5l0,0
		C30.3,90.3,30.1,90.2,30,90.1z"/>
	<path id="XMLID_1056_" d="M30.9,91.6L30.9,91.6c-0.1-0.2-0.1-0.5,0.1-0.6l0,0c0.2-0.1,0.4,0,0.5,0.1l0,0c0.1,0.2,0,0.4-0.1,0.5l0,0
		C31.2,91.8,31,91.8,30.9,91.6z"/>
	<path id="XMLID_1055_" d="M31.7,93.1L31.7,93.1c-0.1-0.2-0.1-0.5,0.1-0.6l0,0c0.2-0.1,0.4,0,0.5,0.1l0,0c0.1,0.2,0,0.4-0.1,0.5l0,0
		C32.1,93.4,31.9,93.3,31.7,93.1z"/>
	<path id="XMLID_1054_" d="M32.6,94.6L32.6,94.6c-0.1-0.2-0.1-0.5,0.1-0.6l0,0c0.2-0.1,0.4,0,0.5,0.1l0,0c0.1,0.2,0,0.4-0.1,0.5l0,0
		C33,94.9,32.7,94.8,32.6,94.6z"/>
	<path id="XMLID_1067_" d="M25.6,88.8L25.6,88.8c-0.1-0.1,0-0.2,0.1-0.3l0,0c0.1-0.1,0.2,0,0.3,0.1l0,0c0.1,0.1,0,0.2-0.1,0.3l0,0
		C25.7,88.9,25.6,88.9,25.6,88.8z"/>
	<path id="XMLID_1066_" d="M26.3,90.1L26.3,90.1c-0.1-0.1,0-0.2,0.1-0.3l0,0c0.1-0.1,0.2,0,0.3,0.1l0,0c0.1,0.1,0,0.2-0.1,0.3l0,0
		C26.5,90.3,26.4,90.2,26.3,90.1z"/>
	<path id="XMLID_1065_" d="M27.2,91.7L27.2,91.7c-0.1-0.1,0-0.2,0.1-0.3l0,0c0.1-0.1,0.2,0,0.3,0.1l0,0c0.1,0.1,0,0.2-0.1,0.3l0,0
		C27.4,91.8,27.3,91.7,27.2,91.7z"/>
	<path id="XMLID_1064_" d="M28.1,93.2L28.1,93.2c-0.1-0.1,0-0.2,0.1-0.3l0,0c0.1-0.1,0.2,0,0.3,0.1l0,0c0.1,0.1,0,0.2-0.1,0.3l0,0
		C28.3,93.3,28.1,93.3,28.1,93.2z"/>
	<path id="XMLID_1062_" d="M29,94.7L29,94.7c-0.1-0.1,0-0.2,0.1-0.3l0,0c0.1-0.1,0.2,0,0.3,0.1l0,0c0.1,0.1,0,0.2-0.1,0.3l0,0
		C29.1,94.8,29,94.8,29,94.7z"/>
	<path id="XMLID_1061_" d="M29.9,96.2L29.9,96.2c-0.1-0.1,0-0.2,0.1-0.3l0,0c0.1-0.1,0.2,0,0.3,0.1l0,0c0.1,0.1,0,0.2-0.1,0.3l0,0
		C30,96.4,29.9,96.3,29.9,96.2z"/>
	<g id="XMLID_1105_">
		
			<linearGradient id="XMLID_489_" gradientUnits="userSpaceOnUse" x1="-1225.4326" y1="2065.5061" x2="-1225.4357" y2="2069.8662" gradientTransform="matrix(0.8674 -0.4976 0.4976 0.8674 183.9815 -2390.6899)">
			<stop  offset="0" style="stop-color:#070404"/>
			<stop  offset="0.6754" style="stop-color:#7D6D73"/>
		</linearGradient>
		<polygon id="XMLID_1081_" class="st15" points="151.2,14.2 150.5,14.5 148.2,10.6 148.9,10.2 		"/>
		
			<linearGradient id="XMLID_490_" gradientUnits="userSpaceOnUse" x1="-1225.8722" y1="2067.2231" x2="-1224.9468" y2="2062.7524" gradientTransform="matrix(0.8674 -0.4976 0.4976 0.8674 183.9815 -2390.6899)">
			<stop  offset="0" style="stop-color:#070404"/>
			<stop  offset="0.6754" style="stop-color:#7D6D73"/>
		</linearGradient>
		<circle id="XMLID_1080_" class="st16" cx="148.6" cy="10.4" r="1.9"/>
		
			<linearGradient id="XMLID_491_" gradientUnits="userSpaceOnUse" x1="-1218.1039" y1="2066.5066" x2="-1217.9005" y2="2071.8271" gradientTransform="matrix(0.8674 -0.4976 0.4976 0.8674 183.9815 -2390.6899)">
			<stop  offset="0" style="stop-color:#070404"/>
			<stop  offset="0.6754" style="stop-color:#7D6D73"/>
		</linearGradient>
		<polygon id="XMLID_1079_" class="st17" points="158.6,12.2 157.9,12.6 155.2,7.7 155.8,7.3 		"/>
		
			<linearGradient id="XMLID_492_" gradientUnits="userSpaceOnUse" x1="-1218.4536" y1="2068.1802" x2="-1217.5282" y2="2063.7095" gradientTransform="matrix(0.8674 -0.4976 0.4976 0.8674 183.9815 -2390.6899)">
			<stop  offset="0" style="stop-color:#070404"/>
			<stop  offset="0.6754" style="stop-color:#7D6D73"/>
		</linearGradient>
		<circle id="XMLID_1077_" class="st18" cx="155.5" cy="7.5" r="1.9"/>
		
			<linearGradient id="XMLID_493_" gradientUnits="userSpaceOnUse" x1="-1210.636" y1="2067.3979" x2="-1210.5464" y2="2071.7573" gradientTransform="matrix(0.8674 -0.4976 0.4976 0.8674 183.9815 -2390.6899)">
			<stop  offset="0" style="stop-color:#070404"/>
			<stop  offset="0.6754" style="stop-color:#7D6D73"/>
		</linearGradient>
		<polygon id="XMLID_1076_" class="st19" points="165,8.4 164.3,8.8 162.1,4.9 162.8,4.5 		"/>
		
			<linearGradient id="XMLID_494_" gradientUnits="userSpaceOnUse" x1="-1211.035" y1="2069.1375" x2="-1210.1095" y2="2064.6667" gradientTransform="matrix(0.8674 -0.4976 0.4976 0.8674 183.9815 -2390.6899)">
			<stop  offset="0" style="stop-color:#070404"/>
			<stop  offset="0.6754" style="stop-color:#7D6D73"/>
		</linearGradient>
		<circle id="XMLID_1075_" class="st20" cx="162.4" cy="4.7" r="1.9"/>
	</g>
	<g id="XMLID_1070_">
		<circle id="XMLID_1090_" class="st12" cx="156.7" cy="24" r="1.1"/>
		<circle id="XMLID_1074_" cx="156.7" cy="24" r="0.6"/>
	</g>
	<path id="XMLID_1145_" class="st9" d="M54,73L54,73c-0.2-0.3-0.1-0.6,0.2-0.7l0,0c0.2-0.1,0.5-0.1,0.7,0.2l0,0
		c0.1,0.2,0.1,0.5-0.2,0.7l0,0C54.4,73.3,54.1,73.2,54,73z"/>
	<path id="XMLID_1146_" class="st9" d="M54.7,74.2L54.7,74.2c-0.2-0.3-0.1-0.6,0.2-0.7l0,0c0.2-0.1,0.5-0.1,0.7,0.2l0,0
		c0.1,0.2,0.1,0.5-0.2,0.7l0,0C55.1,74.5,54.8,74.5,54.7,74.2z"/>
	<path id="XMLID_1153_" class="st9" d="M57.8,72.4L57.8,72.4c-0.2-0.3-0.1-0.6,0.2-0.7l0,0c0.2-0.1,0.5-0.1,0.7,0.2l0,0
		c0.1,0.2,0.1,0.5-0.2,0.7l0,0C58.3,72.7,58,72.7,57.8,72.4z"/>
	<path id="XMLID_1147_" class="st9" d="M55.6,75.8L55.6,75.8c-0.2-0.3-0.1-0.6,0.2-0.7l0,0c0.2-0.1,0.5-0.1,0.7,0.2l0,0
		c0.1,0.2,0.1,0.5-0.2,0.7l0,0C56,76.1,55.7,76,55.6,75.8z"/>
	<path id="XMLID_1155_" class="st9" d="M58.7,73.9L58.7,73.9c-0.2-0.3-0.1-0.6,0.2-0.7l0,0c0.2-0.1,0.5-0.1,0.7,0.2l0,0
		c0.1,0.2,0.1,0.5-0.2,0.7l0,0C59.1,74.3,58.9,74.2,58.7,73.9z"/>
	<path id="XMLID_1148_" class="st9" d="M56.4,77.1L56.4,77.1c-0.2-0.3-0.1-0.6,0.2-0.7l0,0c0.2-0.1,0.5-0.1,0.7,0.2l0,0
		c0.1,0.2,0.1,0.5-0.2,0.7l0,0C56.8,77.4,56.5,77.3,56.4,77.1z"/>
	<path id="XMLID_1156_" class="st9" d="M59.5,75.3L59.5,75.3c-0.2-0.3-0.1-0.6,0.2-0.7l0,0c0.2-0.1,0.5-0.1,0.7,0.2l0,0
		c0.1,0.2,0.1,0.5-0.2,0.7l0,0C59.9,75.6,59.6,75.5,59.5,75.3z"/>
	<path id="XMLID_1150_" class="st9" d="M57.1,78.5L57.1,78.5c-0.2-0.3-0.1-0.6,0.2-0.7l0,0c0.2-0.1,0.5-0.1,0.7,0.2l0,0
		c0.1,0.2,0.1,0.5-0.2,0.7l0,0C57.6,78.8,57.3,78.7,57.1,78.5z"/>
	<path id="XMLID_1157_" class="st9" d="M60.3,76.6L60.3,76.6c-0.2-0.3-0.1-0.6,0.2-0.7l0,0c0.2-0.1,0.5-0.1,0.7,0.2l0,0
		c0.1,0.2,0.1,0.5-0.2,0.7l0,0C60.7,77,60.4,76.9,60.3,76.6z"/>
	<path id="XMLID_1151_" class="st9" d="M58,80L58,80c-0.2-0.3-0.1-0.6,0.2-0.7l0,0c0.2-0.1,0.5-0.1,0.7,0.2l0,0
		c0.1,0.2,0.1,0.5-0.2,0.7l0,0C58.4,80.3,58.2,80.2,58,80z"/>
	<path id="XMLID_1158_" class="st9" d="M61.1,78.1L61.1,78.1c-0.2-0.3-0.1-0.6,0.2-0.7l0,0c0.2-0.1,0.5-0.1,0.7,0.2l0,0
		c0.1,0.2,0.1,0.5-0.2,0.7l0,0C61.6,78.4,61.3,78.4,61.1,78.1z"/>
	<polyline id="XMLID_1040_" class="st21" points="25.7,88.7 144.4,22.3 152.9,16.5 	"/>
	<polyline id="XMLID_1041_" class="st21" points="26.5,90 145.1,23.5 159.4,14.2 	"/>
	<polyline id="XMLID_1072_" class="st21" points="27.4,91.6 145.7,24.6 166.7,11.3 	"/>
	<polyline id="XMLID_1071_" class="st21" points="28.3,93.1 146.4,25.8 167.6,13.6 	"/>
	<polyline id="XMLID_1082_" class="st21" points="29.1,94.6 147.1,27 161.9,18.5 	"/>
	<polyline id="XMLID_1084_" class="st21" points="30,96.1 147.8,28.1 156.4,23.6 	"/>
	<g id="XMLID_1111_">
		<circle id="XMLID_1110_" class="st12" cx="152.3" cy="16.6" r="1.1"/>
		<circle id="XMLID_1117_" cx="152.3" cy="16.6" r="0.6"/>
	</g>
	<g id="XMLID_1127_">
		<circle id="XMLID_1130_" class="st12" cx="159.3" cy="14" r="1.1"/>
		<circle id="XMLID_1128_" cx="159.3" cy="14" r="0.6"/>
	</g>
	<g id="XMLID_1118_">
		<circle id="XMLID_1121_" class="st12" cx="167.8" cy="13.9" r="1.1"/>
		<circle id="XMLID_1120_" cx="167.8" cy="13.9" r="0.6"/>
	</g>
	<g id="XMLID_1123_">
		<circle id="XMLID_1126_" class="st12" cx="166.2" cy="11" r="1.1"/>
		<circle id="XMLID_1125_" cx="166.2" cy="11" r="0.6"/>
	</g>
	<g id="XMLID_1106_">
		<circle id="XMLID_1112_" class="st12" cx="162" cy="18.8" r="1.1"/>
		<circle id="XMLID_1108_" cx="162" cy="18.8" r="0.6"/>
	</g>
</g>
</svg>
