<?xml version="1.0" encoding="utf-8"?>
<!-- Generator: Adobe Illustrator 20.1.0, SVG Export Plug-In . SVG Version: 6.00 Build 0)  -->
<svg version="1.1" id="Layer_2" xmlns="http://www.w3.org/2000/svg" xmlns:xlink="http://www.w3.org/1999/xlink" x="0px" y="0px"
	 width="66px" height="66px" viewBox="0 0 66 66" style="enable-background:new 0 0 66 66;" xml:space="preserve">
<style type="text/css">
	.st0{fill:#00897B;}
	.st1{fill:#00BFA5;stroke:#00BFA5;stroke-width:4;stroke-miterlimit:10;}
	.st2{fill:#FFFFFF;}
</style>
<g>
	<circle class="st0" cx="33" cy="33" r="31.6"/>
</g>
<polygon class="st1" points="39.3,21.7 33,32.4 26.6,21.7 19.5,21.7 29.9,39.3 29.9,49.4 33,51.9 36,49.4 36,39.3 46.5,21.7 "/>
<polygon class="st2" points="39.3,21.7 33,32.4 26.6,21.7 19.5,21.7 29.9,39.3 29.9,49.4 33,51.9 36,49.4 36,39.3 46.5,21.7 "/>
<path class="st1" d="M49.9,17c0,0-13-0.1-16.9,0c-3.9,0-16.9,0-16.9,0l-8.7,8.4L33,55.3l25.7-29.9L49.9,17z M11.5,25.6l5.8-5.6
	c2.4,0,7.9,0,12,0c1.6,0,2.9,0,3.7,0h0c0.8,0,2.1,0,3.7,0c4,0,9.5,0,12,0l5.8,5.6L33,50.6L11.5,25.6z"/>
<path class="st2" d="M49.9,17c0,0-13-0.1-16.9,0c-3.9,0-16.9,0-16.9,0l-8.7,8.4L33,55.3l25.7-29.9L49.9,17z M11.5,25.6l5.8-5.6
	c2.4,0,7.9,0,12,0c1.6,0,2.9,0,3.7,0h0c0.8,0,2.1,0,3.7,0c4,0,9.5,0,12,0l5.8,5.6L33,50.6L11.5,25.6z"/>
</svg>
