<?xml version="1.0" encoding="utf-8"?>
<!-- Generator: Adobe Illustrator 19.0.0, SVG Export Plug-In . SVG Version: 6.00 Build 0)  -->
<svg version="1.1" id="Layer_1" xmlns="http://www.w3.org/2000/svg" xmlns:xlink="http://www.w3.org/1999/xlink" x="0px" y="0px"
	 viewBox="0 0 541.5 243" style="enable-background:new 0 0 541.5 243;" xml:space="preserve">
<metadata><?xpacket begin="﻿" id="W5M0MpCehiHzreSzNTczkc9d"?>
<x:xmpmeta xmlns:x="adobe:ns:meta/" x:xmptk="Adobe XMP Core 5.6-c067 79.157747, 2015/03/30-23:40:42        ">
   <rdf:RDF xmlns:rdf="http://www.w3.org/1999/02/22-rdf-syntax-ns#">
      <rdf:Description rdf:about=""/>
   </rdf:RDF>
</x:xmpmeta>
                                                                                                    
                                                                                                    
                                                                                                    
                                                                                                    
                                                                                                    
                                                                                                    
                                                                                                    
                                                                                                    
                                                                                                    
                                                                                                    
                                                                                                    
                                                                                                    
                                                                                                    
                                                                                                    
                                                                                                    
                                                                                                    
                                                                                                    
                                                                                                    
                                                                                                    
                                                                                                    
                           
<?xpacket end="w"?></metadata>
<style type="text/css">
	.st0{fill:#D32F4D;stroke:#D32F4D;stroke-miterlimit:10;}
	.st1{fill:#D32F4D;}
	.st2{fill:#FFFFFF;}
</style>
<g id="XMLID_6_">
	<g id="XMLID_185_">
		<path id="XMLID_186_" class="st0" d="M53.3,7.5c-0.4-1.4,0.4-2.4,1.8-2.4h11.8c0.8,0,1.6,0.7,1.8,1.4l8.7,34.3h0.4L93.5,5.2
			c0.3-0.6,0.9-1.1,1.7-1.1h1.8c0.9,0,1.5,0.5,1.7,1.1l15.7,35.6h0.4l8.7-34.3c0.2-0.7,1-1.4,1.8-1.4h11.8c1.4,0,2.2,1,1.8,2.4
			l-19.1,68c-0.2,0.8-1,1.4-1.8,1.4h-1.6c-0.7,0-1.4-0.5-1.7-1.1L96.3,34.4H96L77.5,75.8c-0.3,0.6-1,1.1-1.7,1.1h-1.6
			c-0.8,0-1.6-0.6-1.8-1.4L53.3,7.5z"/>
		<path id="XMLID_188_" class="st0" d="M149.9,7c0-1,0.8-1.9,1.9-1.9h41.9c1.1,0,1.9,0.9,1.9,1.9v11c0,1-0.8,1.9-1.9,1.9h-28v12.5
			h23.1c1,0,1.9,0.9,1.9,1.9v11c0,1.1-0.9,1.9-1.9,1.9h-23.1V61h28c1.1,0,1.9,0.9,1.9,1.9v11c0,1-0.8,1.9-1.9,1.9h-41.9
			c-1.1,0-1.9-0.9-1.9-1.9V7z"/>
	</g>
	<g id="XMLID_177_">
		<path id="XMLID_178_" class="st1" d="M357.4,207.5l-20-30.3c-0.7-1.2,0-2.6,1.5-2.6h11.8c0.7,0,1.2,0.5,1.4,0.8l12.6,18.6
			l12.6-18.6c0.3-0.4,0.6-0.8,1.5-0.8h11.8c1.5,0,2.2,1.5,1.5,2.6l-20.3,30.2v28.9c0,0.9-0.8,1.7-1.7,1.7h-10.8
			c-1,0-1.7-0.8-1.7-1.7V207.5z"/>
		<path id="XMLID_180_" class="st1" d="M425.9,173.7c18.1,0,32.6,14.6,32.6,32.7c0,18.1-14.5,32.5-32.6,32.5s-32.5-14.4-32.5-32.5
			C393.4,188.3,407.8,173.7,425.9,173.7z M425.9,224.4c10,0,18.1-8.2,18.1-18c0-10-8.2-18.2-18.1-18.2c-9.9,0-18,8.2-18,18.2
			C407.9,216.3,416.1,224.4,425.9,224.4z"/>
		<path id="XMLID_183_" class="st1" d="M468.6,176.3c0-0.9,0.8-1.7,1.7-1.7h11.1c1,0,1.7,0.8,1.7,1.7V213c0,6.3,4.7,11.4,11.1,11.4
			c6.5,0,11.3-5.1,11.3-11.4v-36.7c0-0.9,0.7-1.7,1.7-1.7h11.1c0.9,0,1.7,0.8,1.7,1.7v37.4c0,13.8-11.6,25.2-25.9,25.2
			c-14.2,0-25.7-11.4-25.7-25.2V176.3z"/>
	</g>
	<g id="XMLID_168_">
		<path id="XMLID_169_" class="st2" d="M228.8,60.9c-0.3-1.1,0.3-1.8,1.4-1.8h8.8c0.6,0,1.2,0.5,1.4,1.1l6.5,25.5h0.3l11.7-26.5
			c0.2-0.5,0.7-0.8,1.3-0.8h1.4c0.7,0,1.1,0.4,1.3,0.8l11.7,26.5h0.3l6.5-25.5c0.2-0.5,0.8-1.1,1.4-1.1h8.8c1.1,0,1.7,0.8,1.4,1.8
			l-14.2,50.6c-0.2,0.6-0.8,1.1-1.4,1.1h-1.2c-0.5,0-1.1-0.4-1.3-0.8l-13.8-30.8h-0.2l-13.7,30.8c-0.2,0.5-0.8,0.8-1.3,0.8h-1.2
			c-0.6,0-1.2-0.5-1.4-1.1L228.8,60.9z"/>
		<path id="XMLID_171_" class="st2" d="M300.7,60.5c0-0.8,0.7-1.4,1.4-1.4h9c0.8,0,1.4,0.7,1.4,1.4v49.8c0,0.8-0.7,1.4-1.4,1.4h-9
			c-0.8,0-1.4-0.7-1.4-1.4V60.5z"/>
		<path id="XMLID_173_" class="st2" d="M325.6,60.5c0-0.8,0.6-1.4,1.4-1.4h9c0.8,0,1.4,0.7,1.4,1.4v40.2h17.9c0.8,0,1.4,0.7,1.4,1.4
			v8.2c0,0.8-0.6,1.4-1.4,1.4H327c-0.8,0-1.4-0.7-1.4-1.4V60.5z"/>
		<path id="XMLID_175_" class="st2" d="M364,60.5c0-0.8,0.6-1.4,1.4-1.4h9c0.8,0,1.4,0.7,1.4,1.4v40.2h17.9c0.8,0,1.4,0.7,1.4,1.4
			v8.2c0,0.8-0.6,1.4-1.4,1.4h-28.3c-0.8,0-1.4-0.7-1.4-1.4V60.5z"/>
	</g>
	<g id="XMLID_152_">
		<path id="XMLID_153_" class="st2" d="M9.2,123.6c0-1,0.8-1.8,1.8-1.8h22.3c11.3,0,20.6,7.7,20.6,17.8c0,7.4-6.6,12.7-11.1,15.1
			c5.1,2.1,12.8,6.8,12.8,15.6c0,10.7-9.5,18.4-20.8,18.4H11c-1.1,0-1.8-0.9-1.8-1.8V123.6z M31.6,148.9c3.6,0,6.7-3.1,6.7-6.9
			s-3.1-6.5-6.7-6.5h-7.5v13.4H31.6z M32.8,175c3.7,0,6.9-3.1,6.9-7c0-3.8-4.1-6.7-7.8-6.7h-7.7V175H32.8z"/>
		<path id="XMLID_157_" class="st2" d="M67.7,123.6c0-1,0.8-1.8,1.8-1.8h28.6c11.5,0,20.8,9.3,20.8,20.6c0,8.8-5.8,15.9-14.1,19.2
			l13.1,24.3c0.7,1.2,0,2.8-1.6,2.8h-12.7c-0.8,0-1.3-0.5-1.5-0.9l-12.7-25.3h-6.6v24.4c0,1-0.9,1.8-1.8,1.8H69.5
			c-1.1,0-1.8-0.9-1.8-1.8V123.6z M96.8,150.3c3.9,0,7.3-3.6,7.3-7.6c0-4-3.3-7.3-7.3-7.3H82.7v14.9H96.8z"/>
		<path id="XMLID_160_" class="st2" d="M123.1,186.2l29.9-64.3c0.3-0.6,1-1.1,1.6-1.1h1c0.7,0,1.3,0.5,1.6,1.1l29.9,64.3
			c0.6,1.2-0.2,2.5-1.6,2.5h-10.6c-1.7,0-2.5-0.6-3.3-2.4l-3.4-7.6h-26l-3.4,7.6c-0.5,1.1-1.5,2.3-3.4,2.3h-10.5
			C123.3,188.6,122.5,187.4,123.1,186.2z M162.4,165.7l-7.3-15.8H155l-7.2,15.8H162.4z"/>
		<path id="XMLID_163_" class="st2" d="M194.9,122.5c0-1,0.9-1.7,1.8-1.7h2.4l38.1,36.7h0.1v-33.9c0-1,0.8-1.8,1.8-1.8h11.5
			c1,0,1.8,0.9,1.8,1.8v64.3c0,1-0.9,1.7-1.8,1.7h-1.5c-0.3,0-1.1-0.3-1.2-0.5l-37.8-37.9H210v35.7c0,1-0.8,1.8-1.8,1.8h-11.4
			c-1,0-1.8-0.9-1.8-1.8L194.9,122.5z"/>
		<path id="XMLID_165_" class="st2" d="M268.9,123.6c0-1,0.8-1.8,1.7-1.8h23.3c18.4,0,33.5,15,33.5,33.4c0,18.5-15.1,33.5-33.5,33.5
			h-23.3c-1,0-1.7-0.9-1.7-1.8V123.6z M293,174.5c10.8,0,18.6-8.5,18.6-19.4c0-10.8-7.8-19.3-18.6-19.3h-9.2v38.7H293z"/>
	</g>
</g>
<g id="XMLID_75_">
</g>
</svg>
