<svg id="Слой_1" data-name="Слой 1" xmlns="http://www.w3.org/2000/svg" viewBox="0 0 90 90"><title>Монтажная область 1</title><g id="_Группа_" data-name="&lt;Группа&gt;"><path d="M90,0V89.9H0V0ZM85.8,86V4.1H3.9V86Z"/><path d="M62.5,43.5a3.59,3.59,0,0,0-.2,1.1h4.6a4.1,4.1,0,0,0-.1-1.1,2,2,0,0,0-.4-.8,4.35,4.35,0,0,0-.7-.6,3,3,0,0,0-1-.2,2.92,2.92,0,0,0-.9.2,1.79,1.79,0,0,0-.7.5A1.59,1.59,0,0,0,62.5,43.5Zm-.3,2.2A2.46,2.46,0,0,0,65,48.4h.8a1.48,1.48,0,0,0,.7-.1c.2,0,.5-.1.7-.1s.4-.1.6-.1v1.2c-.4.1-.9.2-1.4.3a8.08,8.08,0,0,1-1.6.1,5.41,5.41,0,0,1-1.9-.3,3,3,0,0,1-1.3-.9,4.68,4.68,0,0,1-.8-1.4,5.82,5.82,0,0,1-.3-1.9,4.67,4.67,0,0,1,.3-1.7,3.22,3.22,0,0,1,.8-1.4,5.8,5.8,0,0,1,1.2-1,4.26,4.26,0,0,1,1.7-.4,4.15,4.15,0,0,1,1.6.3,3.6,3.6,0,0,1,1.2.8,3.29,3.29,0,0,1,.7,1.3,4.67,4.67,0,0,1,.3,1.7v.9Z"/><path d="M58.1,41.6a3.85,3.85,0,0,1,.7,2.6H57.3a3.69,3.69,0,0,0-.3-1.7,1,1,0,0,0-1-.5,1.27,1.27,0,0,0-.6.1l-.6.3a4.35,4.35,0,0,1-.7.6,7.27,7.27,0,0,0-.8.9v5.6H51.8V40.8H53v1.6a4.36,4.36,0,0,1,1.5-1.3,2.82,2.82,0,0,1,1.5-.4A2.34,2.34,0,0,1,58.1,41.6Z"/><path d="M46.2,47.9a.9.9,0,0,1,.1.5.75.75,0,0,1-.1.5,1.38,1.38,0,0,1-.3.4c-.1.1-.3.2-.4.3a1.3,1.3,0,0,1-1,0c-.1-.1-.3-.2-.4-.3s-.2-.3-.3-.4a1.3,1.3,0,0,1,0-1,1.38,1.38,0,0,1,.3-.4c.1-.1.3-.2.4-.3a1.3,1.3,0,0,1,1,0,1.38,1.38,0,0,1,.4.3C46.1,47.6,46.2,47.7,46.2,47.9Z"/><path d="M46.2,41.6a.9.9,0,0,1,.1.5.75.75,0,0,1-.1.5,1.38,1.38,0,0,1-.3.4c-.1.1-.3.2-.4.3a.9.9,0,0,1-.5.1.75.75,0,0,1-.5-.1,1.38,1.38,0,0,1-.4-.3c-.1-.1-.2-.3-.3-.4a1.3,1.3,0,0,1,0-1c.1-.1.2-.3.3-.4s.3-.2.4-.3a.75.75,0,0,1,.5-.1.9.9,0,0,1,.5.1,1.38,1.38,0,0,1,.4.3C46.1,41.2,46.2,41.4,46.2,41.6Z"/><path d="M36.3,42.1a3,3,0,0,0-1-.2,2.92,2.92,0,0,0-.9.2,1.79,1.79,0,0,0-.7.5,2.18,2.18,0,0,0-.5.8,4.3,4.3,0,0,0-.2,1.2h4.6a4.1,4.1,0,0,0-.1-1.1,2,2,0,0,0-.4-.8A4.17,4.17,0,0,0,36.3,42.1Zm-.7,7.6a5.41,5.41,0,0,1-1.9-.3,3,3,0,0,1-1.3-.9,4.68,4.68,0,0,1-.8-1.4,5.84,5.84,0,0,1-.2-1.9,4.67,4.67,0,0,1,.3-1.7,3.22,3.22,0,0,1,.8-1.4,4.49,4.49,0,0,1,1.3-1,4.26,4.26,0,0,1,1.7-.4,4.15,4.15,0,0,1,1.6.3,3.6,3.6,0,0,1,1.2.8,3.29,3.29,0,0,1,.7,1.3,4.67,4.67,0,0,1,.3,1.7v.9H33a2.48,2.48,0,0,0,.8,2,2.82,2.82,0,0,0,2.1.7h.8a1.48,1.48,0,0,0,.7-.1c.2,0,.5-.1.7-.1s.4-.1.6-.1v1.2c-.4.1-.9.2-1.4.3A9.7,9.7,0,0,1,35.6,49.7Z"/><path d="M29.5,44.2H28a3.69,3.69,0,0,0-.3-1.7,1,1,0,0,0-1-.5,1.27,1.27,0,0,0-.6.1l-.6.3a4.35,4.35,0,0,1-.7.6c-.2.3-.5.5-.8.9v5.6H22.5V40.8h1.4v1.6a4.36,4.36,0,0,1,1.5-1.3,2.82,2.82,0,0,1,1.5-.4,2.58,2.58,0,0,1,2.1.9A6,6,0,0,1,29.5,44.2Z"/></g></svg>