<?xml version="1.0" encoding="utf-8"?>
<!-- Generator: Adobe Illustrator 21.0.2, SVG Export Plug-In . SVG Version: 6.00 Build 0)  -->
<svg version="1.1" id="Layer_1" xmlns="http://www.w3.org/2000/svg" xmlns:xlink="http://www.w3.org/1999/xlink" x="0px" y="0px"
	 viewBox="0 0 255.1 255.1" style="enable-background:new 0 0 255.1 255.1;" xml:space="preserve">
<g>
	<path d="M0,0v255.1h255.1V0H0z M245.3,245.3H9.8V9.8h235.4V245.3z"/>
	<path d="M47.8,124c2.3-3.9,4.6-6.9,7-8.9c2.4-2,4.9-3,7.3-3c0.6,0,1.5,0.1,2.7,0.3v9.2h6.4v-14.5c-2.4-0.7-4.9-1.1-7.3-1.1
		c-3.3,0-6.3,0.8-9,2.5c-2.7,1.6-5.1,4.1-7.2,7.4v-8.8h-6.7v40.2h6.7V124z"/>
	<path d="M85.4,145.8c2.9,1.8,6.1,2.7,9.7,2.7c4.8,0,9.8-1.3,15.2-3.8h0v-6.1c-5.2,2.9-10,4.3-14.3,4.3c-2.4,0-4.6-0.6-6.5-1.7
		c-1.9-1.2-3.4-2.9-4.6-5.2c-1.2-2.3-1.7-4.9-1.7-7.7h27.7v-1.4c0-7.1-1.4-12.3-4.3-15.8c-2.9-3.4-6.7-5.1-11.5-5.1
		c-3.6,0-6.9,0.9-9.8,2.8c-2.9,1.9-5.2,4.5-6.8,7.9s-2.4,6.9-2.4,10.6c0,3.8,0.9,7.4,2.6,10.7C80.3,141.4,82.6,144,85.4,145.8z
		 M87.7,114.6c2-2,4.3-3,7-3c2.7,0,4.8,1,6.4,2.9c1.6,1.9,2.4,4.5,2.4,7.8v1H83.6C84.4,119.5,85.8,116.6,87.7,114.6z"/>
	<path d="M127.2,117.8c1.6,0,3-0.6,4.1-1.7c1.2-1.2,1.7-2.5,1.7-4.1c0-1.6-0.6-3-1.7-4.2s-2.5-1.7-4.1-1.7c-1.6,0-3,0.6-4.1,1.7
		c-1.2,1.1-1.7,2.5-1.7,4.2c0,1.6,0.6,3,1.7,4.1C124.2,117.2,125.6,117.8,127.2,117.8z"/>
	<path d="M127.2,149.1c1.6,0,3-0.6,4.1-1.7c1.2-1.2,1.7-2.5,1.7-4.1c0-1.6-0.6-3-1.7-4.2s-2.5-1.7-4.1-1.7c-1.6,0-3,0.6-4.1,1.7
		c-1.2,1.1-1.7,2.5-1.7,4.2c0,1.6,0.6,3,1.7,4.1C124.2,148.5,125.6,149.1,127.2,149.1z"/>
	<path d="M150.9,124c2.3-3.9,4.6-6.9,7-8.9c2.4-2,4.9-3,7.3-3c0.6,0,1.5,0.1,2.7,0.3v9.2h6.4v-14.5c-2.4-0.7-4.9-1.1-7.3-1.1
		c-3.3,0-6.3,0.8-9,2.5c-2.7,1.6-5.1,4.1-7.2,7.4v-8.8h-6.7v40.2h6.7V124z"/>
	<path d="M188.5,145.8c2.9,1.8,6.1,2.7,9.7,2.7c4.8,0,9.8-1.3,15.2-3.8h0v-6.1c-5.2,2.9-10,4.3-14.3,4.3c-2.4,0-4.6-0.6-6.5-1.7
		c-1.9-1.2-3.4-2.9-4.6-5.2s-1.7-4.9-1.7-7.7H214v-1.4c0-7.1-1.4-12.3-4.3-15.8c-2.9-3.4-6.7-5.1-11.5-5.1c-3.6,0-6.9,0.9-9.8,2.8
		c-2.9,1.9-5.2,4.5-6.8,7.9c-1.6,3.4-2.4,6.9-2.4,10.6c0,3.8,0.9,7.4,2.6,10.7C183.3,141.4,185.6,144,188.5,145.8z M190.8,114.6
		c2-2,4.3-3,7-3c2.7,0,4.8,1,6.4,2.9c1.6,1.9,2.4,4.5,2.4,7.8v1h-20.1C187.5,119.5,188.8,116.6,190.8,114.6z"/>
</g>
</svg>
