<?xml version="1.0" encoding="utf-8"?>
<!-- Generator: Adobe Illustrator 21.0.0, SVG Export Plug-In . SVG Version: 6.00 Build 0)  -->
<svg version="1.1" id="Layer_1" xmlns="http://www.w3.org/2000/svg" xmlns:xlink="http://www.w3.org/1999/xlink" x="0px" y="0px"
	 width="255.118px" height="255.118px" viewBox="0 0 255.118 255.118" style="enable-background:new 0 0 255.118 255.118;"
	 xml:space="preserve">
<g>
	<path d="M255.118,255.118H0V0h255.118V255.118z M9.835,245.283h235.449V9.835H9.835V245.283z"/>
</g>
<g>
	<g>
		<g>
			<path d="M34.719,148.858v-43.217h7.196v9.44c2.244-3.56,4.817-6.223,7.719-7.99c2.902-1.766,6.132-2.65,9.692-2.65
				c2.605,0,5.21,0.4,7.815,1.199v15.592h-6.926v-9.866c-1.213-0.206-2.167-0.31-2.863-0.31c-2.683,0-5.314,1.058-7.893,3.173
				c-2.58,2.115-5.094,5.288-7.545,9.518v25.11H34.719z"/>
		</g>
		<g>
			<path d="M109.07,145.982c-5.752,2.717-11.195,4.075-16.327,4.075c-3.895,0-7.377-0.967-10.446-2.899
				c-3.07-1.933-5.527-4.697-7.371-8.292c-1.844-3.595-2.766-7.442-2.766-11.54c0-3.943,0.877-7.731,2.631-11.365
				c1.754-3.634,4.204-6.462,7.351-8.485c3.147-2.023,6.655-3.035,10.524-3.035c5.133,0,9.253,1.829,12.362,5.486
				c3.108,3.657,4.662,9.297,4.662,16.919v1.545H79.897c0,3,0.625,5.741,1.876,8.223c1.251,2.482,2.895,4.344,4.933,5.585
				c2.037,1.241,4.359,1.862,6.964,1.862c4.643,0,9.775-1.551,15.399-4.654V145.982z M80.323,123.013h21.55v-1.042
				c0-3.523-0.864-6.325-2.592-8.408c-1.728-2.083-4.037-3.124-6.926-3.124c-2.915,0-5.436,1.061-7.564,3.182
				C82.663,115.743,81.174,118.873,80.323,123.013z"/>
		</g>
	</g>
	<g>
		<path d="M127.166,117.055c-1.728,0-3.211-0.619-4.449-1.857c-1.238-1.238-1.857-2.721-1.857-4.449
			c0-1.754,0.625-3.243,1.876-4.469c1.251-1.225,2.728-1.838,4.43-1.838c1.702,0,3.179,0.613,4.43,1.838
			c1.251,1.225,1.876,2.715,1.876,4.469c0,1.728-0.619,3.211-1.857,4.449C130.377,116.436,128.894,117.055,127.166,117.055z
			 M127.166,150.677c-1.728,0-3.211-0.619-4.449-1.857c-1.238-1.238-1.857-2.721-1.857-4.449c0-1.754,0.625-3.243,1.876-4.469
			c1.251-1.225,2.728-1.838,4.43-1.838c1.702,0,3.179,0.613,4.43,1.838c1.251,1.225,1.876,2.715,1.876,4.469
			c0,1.728-0.619,3.211-1.857,4.449C130.377,150.058,128.894,150.677,127.166,150.677z"/>
	</g>
	<g>
		<path d="M145.43,148.858v-43.217h7.196v9.44c2.244-3.56,4.817-6.223,7.719-7.99c2.902-1.766,6.132-2.65,9.692-2.65
			c2.605,0,5.21,0.4,7.815,1.199v15.592h-6.925v-9.866c-1.213-0.206-2.167-0.31-2.863-0.31c-2.683,0-5.314,1.058-7.893,3.173
			c-2.58,2.115-5.094,5.288-7.545,9.518v25.11H145.43z"/>
	</g>
	<g>
		<path d="M219.78,145.982c-5.752,2.717-11.195,4.075-16.327,4.075c-3.895,0-7.377-0.967-10.446-2.899
			c-3.07-1.933-5.527-4.697-7.371-8.292c-1.845-3.595-2.766-7.442-2.766-11.54c0-3.943,0.876-7.731,2.631-11.365
			c1.754-3.634,4.204-6.462,7.351-8.485c3.147-2.023,6.655-3.035,10.524-3.035c5.133,0,9.253,1.829,12.361,5.486
			c3.108,3.657,4.662,9.297,4.662,16.919v1.545h-29.792c0,3,0.625,5.741,1.876,8.223c1.251,2.482,2.895,4.344,4.933,5.585
			c2.037,1.241,4.359,1.862,6.964,1.862c4.643,0,9.775-1.551,15.399-4.654V145.982z M191.033,123.013h21.55v-1.042
			c0-3.523-0.864-6.325-2.592-8.408c-1.728-2.083-4.037-3.124-6.926-3.124c-2.915,0-5.436,1.061-7.564,3.182
			C193.374,115.743,191.885,118.873,191.033,123.013z"/>
	</g>
</g>
</svg>
