<?xml version="1.0" encoding="UTF-8"?>
<svg width="18px" height="18px" viewBox="0 0 18 18" version="1.1" xmlns="http://www.w3.org/2000/svg" xmlns:xlink="http://www.w3.org/1999/xlink">
    <!-- Generator: Sketch 3.8.3 (29802) - http://www.bohemiancoding.com/sketch -->
    <title>Artboard 1</title>
    <desc>Created with Sketch.</desc>
    <defs></defs>
    <g id="Page-1" stroke="none" stroke-width="1" fill="none" fill-rule="evenodd">
        <g id="Artboard-1" fill="#7F7F7F">
            <path d="M2.205,0.345 L0.537,2.013 C-0.384,2.934 0.06,4.034 0.537,5.349 C0.537,5.349 2.832,9.256 5.797,12.221 C8.949,15.373 12.632,17.44 12.632,17.44 C13.849,18.065 15.047,18.36 15.968,17.44 L17.636,15.772 C18.096,15.311 18.194,14.491 17.635,14.104 L14.3,11.603 C13.735,11.22 13.092,11.142 12.632,11.603 L12.632,11.603 L12.632,11.603 L11.645,12.589 C10.488,11.727 9.201,10.673 8.044,9.518 C7.021,8.495 6.113,7.386 5.356,6.369 L6.377,5.349 C6.838,4.889 6.76,4.246 6.377,3.681 L3.874,0.345 C3.414,-0.115 2.667,-0.115 2.205,0.345" id="Shape"></path>
        </g>
    </g>
</svg>