<?xml version="1.0" standalone="no"?>
<!DOCTYPE svg PUBLIC "-//W3C//DTD SVG 1.1//EN" "http://www.w3.org/Graphics/SVG/1.1/DTD/svg11.dtd" >
<svg>
<metadata>
Created by FontForge 20090914 at Tue May 30 14:46:30 2017
 By www-data
Vyacheslav Krivonosov, 2014, Russian Federation - Kemerovo
</metadata>
<defs>
<font id="DOCKERONE" horiz-adv-x="697" >
  <font-face 
    font-family="DOCKER ONE"
    font-weight="400"
    font-stretch="normal"
    units-per-em="1000"
    panose-1="0 0 0 0 0 0 0 0 0 0"
    ascent="750"
    descent="-250"
    x-height="698"
    cap-height="700"
    bbox="-37 -100 862 948"
    underline-thickness="50"
    underline-position="-50"
    unicode-range="U+0020-U+0491"
  />
<missing-glyph horiz-adv-x="500" 
 />
    <glyph glyph-name=".notdef" horiz-adv-x="500" 
 />
    <glyph glyph-name="space" unicode=" " horiz-adv-x="500" 
 />
    <glyph glyph-name="space" unicode="&#xa0;" horiz-adv-x="500" 
 />
    <glyph glyph-name="exclam" unicode="!" horiz-adv-x="318" 
d="M0 2v160h172v-160h-172zM0 698h172v-491h-172v491z" />
    <glyph glyph-name="quotedbl" unicode="&#x22;" horiz-adv-x="537" 
d="M0 536v160h172v-259l-86 99h-86zM211 536v160h172v-259l-86 99h-86z" />
    <glyph glyph-name="numbersign" unicode="#" horiz-adv-x="835" 
d="M626 573h27v-153h-81l-47 -133h50v-153h-104l-47 -134h-162l47 134h-117l-47 -134h-162l47 134h-31v153h85l46 133h-61v153h115l43 123h163l-43 -123h116l44 123h162zM252 305c-1.33301 -4.66699 -0.667969 -8.83398 1.99902 -12.501s6.33398 -5.5 11.001 -5.5h89
c5.33301 0 9.33301 3 12 9l37 106c1.33301 4.66699 0.833008 8.83398 -1.5 12.501s-5.83301 5.5 -10.5 5.5h-89c-5.33301 0 -9.33301 -3 -12 -9z" />
    <glyph glyph-name="dollar" unicode="$" horiz-adv-x="591" 
d="M445 367c38 -38 57 -83.665 57 -136.998c0 -52.667 -19 -98 -57 -136c-9.33301 -9.33301 -23.666 -17.666 -42.999 -24.999s-45.666 -14.333 -78.999 -21v-48h-151v47c-20 4.66699 -40.833 10.667 -62.5 18s-38.5 17 -50.5 29c-18 18.667 -31.833 39.667 -41.5 63
s-14.5 47.666 -14.5 72.999v40h150v-40c0 -9.33301 3 -18 9 -26c4 -1.33301 7.33301 -2.33301 10 -3v81c-58.667 12 -97.667 27.667 -117 47c-18 18.667 -32 39.667 -42 63s-15 47.666 -15 72.999c0 26 5 50.667 15 74s24 44.333 42 63c20.667 19.333 59.667 35 117 47v47
h151v-50c24.667 -5.33301 46.5 -11.5 65.5 -18.5s33.5 -15.5 43.5 -25.5c38 -38 57 -83.667 57 -137v-40h-150v40c0 5.33301 -1.5 10.166 -4.5 14.499s-5.83301 8.16602 -8.5 11.499c-1.33301 0 -2.33301 0.333008 -3 1v-79c33.333 -6.66699 59.666 -13.667 78.999 -21
s33.666 -15.666 42.999 -24.999zM323 201.002c4 1.33301 7.66699 2.16992 11 2.50293s6.33301 1.16602 9 2.49902c5.33301 6 8 14 8 24c0 10.667 -2.66699 19 -8 25c-2.66699 1.33301 -5.66699 2.16602 -9 2.49902s-7 1.16602 -11 2.49902v-59zM172 495.006
c-2.66699 -0.666992 -5.33398 -1.16699 -8.00098 -1.5s-4.66699 -0.833008 -6 -1.5c-6 -8 -9 -17 -9 -27c0 -9.33301 3 -18 9 -26c1.33301 -0.666992 3.33301 -1.16699 6 -1.5s5.33398 -0.833008 8.00098 -1.5v59z" />
    <glyph glyph-name="ampersand" unicode="&#x26;" horiz-adv-x="649" 
d="M540 137l14 -17.998v-118h-111l-28 35c-41.333 -22 -92.333 -33 -153 -33c-86.667 0 -153 22.333 -199 67c-42 40.667 -63 95.667 -63 165c0 31.333 6.5 61 19.5 89s31.833 52.667 56.5 74c-22.667 32 -34 67 -34 105c0 57.333 17.667 103.666 53 138.999
c38 38 93.667 57 167 57c72.667 0 128.667 -19 168 -57c34.667 -34.667 52 -81 52 -139c0 -28 -6 -54.333 -18 -79s-29.333 -46.334 -52 -65.001l-15.5 -11.5c-5 -3.66699 -10.5 -7.16699 -16.5 -10.5l60 -75l29 23l101 -124zM322 503.002
c0 10 -0.668945 16.667 -2.00195 20s-2.33301 5 -3 5c-2 2 -7.33301 4.33301 -16 7s-21.667 4 -39 4c-21.333 0 -35.666 -1.66699 -42.999 -5s-11.333 -5.33301 -12 -6c-1.33301 -1.33301 -2.5 -4 -3.5 -8s-1.5 -9.66699 -1.5 -17c0 -5.33301 1.5 -9.66602 4.5 -12.999
s5.5 -6 7.5 -8c14 -10.667 30 -16 48 -16c19.333 0 35.333 5.33301 48 16c2.66699 2 5.33398 4.66699 8.00098 8s4 7.66602 4 12.999zM183.998 281.002c-16 -14.667 -24 -30.002 -24 -46.002c0 -18 2 -30.5 6 -37.5s7 -11.167 9 -12.5c14.667 -14.667 43.667 -22 87 -22
c6.66699 0 13 0.166992 19 0.5s11.667 0.833008 17 1.5c2.66699 0.666992 4.5 2.33398 5.5 5.00098s0.5 5 -1.5 7l-90 114c-2.66699 2.66699 -5.66699 3.33398 -9 2.00098c-3.33301 -2 -6.5 -4 -9.5 -6s-6.16699 -4 -9.5 -6z" />
    <glyph glyph-name="quotesingle" unicode="'" horiz-adv-x="267" 
d="M-2 539v160h172v-259l-86 99h-86v0z" />
    <glyph glyph-name="parenleft" unicode="(" horiz-adv-x="315" 
d="M136 345c0 -42 3.83301 -82.168 11.5 -120.501s16.334 -72.333 26.001 -102s18.5 -53.5 26.5 -71.5s12 -27.333 12 -28l29 -58h-65h-103l-11 22c-2 4 -7 15.333 -15 34s-16.5 43.5 -25.5 74.5s-17 67.5 -24 109.5s-10.5 88.667 -10.5 140c0 50.667 3.33301 96.5 10 137.5
s14.5 76.333 23.5 106s17.667 53.5 26 71.5s14.166 30 17.499 36l11 21l169 1l-32 -60l-13 -27c-8 -16.667 -16.667 -39.167 -26 -67.5s-17.833 -61.166 -25.5 -98.499s-11.5 -77.333 -11.5 -120z" />
    <glyph glyph-name="parenright" unicode=")" horiz-adv-x="337" 
d="M95 345c0 42.667 -3.83301 82.668 -11.5 120.001s-16.167 70.166 -25.5 98.499s-18 50.833 -26 67.5l-13 27l-32 60l169 -1l11 -21c3.33301 -6 9.16602 -18 17.499 -36s17 -41.833 26 -71.5s16.833 -65 23.5 -106s10 -86.833 10 -137.5c0 -51.333 -3.5 -98 -10.5 -140
s-15 -78.5 -24 -109.5s-17.5 -55.833 -25.5 -74.5s-13 -30 -15 -34l-11 -22h-103h-65l29 58c0 0.666992 4 10 12 28s16.833 41.833 26.5 71.5s18.334 63.667 26.001 102s11.5 78.5 11.5 120.5z" />
    <glyph glyph-name="asterisk" unicode="*" horiz-adv-x="323" 
d="M252 631l-70 -69l70 -69l-57 -57l-29 29v-41h-80v41l-29 -29l-57 57l69 69l-69 69l57 57l29 -29v41h80v-41l29 29l57 -57v0z" />
    <glyph glyph-name="plus" unicode="+" horiz-adv-x="794" 
d="M409 432c0 -6.66699 3.33301 -10 10 -10h267v-144h-267c-6.66699 0 -10 -3.33301 -10 -10v-267h-143v267c0 6.66699 -3.33301 10 -10 10h-267v144h267c6.66699 0 10 3.33301 10 10v267h143v-267v0z" />
    <glyph glyph-name="comma" unicode="," horiz-adv-x="256" 
d="M0 0v160h172v-260l-86 100h-86v0z" />
    <glyph glyph-name="hyphen" unicode="-" horiz-adv-x="614" 
d="M10 422h506v-144h-506v144v0z" />
    <glyph glyph-name="period" unicode="." horiz-adv-x="259" 
d="M0 0v160h172v-160h-172v0z" />
    <glyph glyph-name="slash" unicode="/" horiz-adv-x="445" 
d="M237 718h176l-260 -718h-176l260 718v0z" />
    <glyph glyph-name="zero" unicode="0" horiz-adv-x="619" 
d="M471 581c18.667 -33.333 29.6641 -69.667 32.9971 -109s5 -80.333 5 -123v-66h-1c-1.33301 -30 -4.33301 -58.667 -9 -86s-14 -53.333 -28 -78c-24 -42 -58.667 -73 -104 -93c-16 -7.33301 -33.333 -13 -52 -17s-39 -7 -61 -9h-4h-3c-22 2 -42.333 5 -61 9
s-36 9.66699 -52 17c-45.333 20 -80 51 -104 93c-9.33301 16.667 -16.666 34.167 -21.999 52.5s-9.16602 37.166 -11.499 56.499s-3.66602 39.333 -3.99902 60s-0.5 41.667 -0.5 63v66h1c1.33301 29.333 4.33301 57.833 9 85.5s14 53.834 28 78.501
c24 41.333 58.667 72 104 92c16 7.33301 33.333 13.166 52 17.499s39 7.5 61 9.5h3h4c22 -2 42.333 -5.16699 61 -9.5s36 -10.166 52 -17.499c45.333 -20 80 -50.667 104 -92zM258.997 167.999c-1.33301 -1.33301 -1.33008 -2.66699 0.00292969 -4s2.66602 -2 3.99902 -2
c13.333 2 24.166 4.66699 32.499 8s15 6.83301 20 10.5s8.66699 7 11 10s4.16602 5.5 5.49902 7.5c8.66699 15.333 13.667 36.333 15 63s2 55.667 2 87v1v39c0 2.66699 -1.16699 4.16699 -3.5 4.5s-3.83301 -0.5 -4.5 -2.5zM225 527.998
c1.33301 5.33301 -0.333984 7.33105 -5.00098 5.99805c-19.333 -5.33301 -32.166 -11.166 -38.499 -17.499s-10.5 -11.166 -12.5 -14.499c-8.66699 -15.333 -13.667 -36.333 -15 -63s-2 -55.667 -2 -87v-1c0 -2.66699 1 -4.16699 3 -4.5s3.66699 0.5 5 2.5z" />
    <glyph glyph-name="one" unicode="1" horiz-adv-x="334" 
d="M56 700h173v-700h-160v501h-100l87 199v0z" />
    <glyph glyph-name="two" unicode="2" horiz-adv-x="575" 
d="M470 160l-0.000976562 -160.001h-470v134l270 314c10.667 12 16 25 16 39c0 15.333 -5.16699 28 -15.5 38s-23.166 15 -38.499 15h-56c-18 0 -32 -7 -42 -21l-34 -45l-32 46l-23 35c-10 15.333 -17.667 28 -23 38l-15 27l22 21c39.333 38 86.333 57.667 141 59h1h68
c28 -0.666992 54.5 -6.5 79.5 -17.5s47.167 -26.5 66.5 -46.5s34.333 -42.833 45 -68.5s16 -52.5 16 -80.5c0 -24.667 -4.33301 -48.667 -13 -72s-21 -44.666 -37 -63.999l-1 -1l-172 -190h247z" />
    <glyph glyph-name="three" unicode="3" horiz-adv-x="556" 
d="M401 353c17.333 -19.333 30.5 -41 39.5 -65s13.5 -49 13.5 -75c0 -29.333 -5.5 -57 -16.5 -83s-26.167 -48.667 -45.5 -68s-42 -34.5 -68 -45.5s-53.667 -16.5 -83 -16.5h-67c-31.333 0 -62 7.5 -92 22.5s-61.667 42.167 -95 81.5l33 28.5l27 24l27 24.5l32 31l27 -33
c11.333 -12.667 25 -19 41 -19h67c14.667 0 27.167 5 37.5 15s15.5 22.667 15.5 38s-5.33301 28.666 -16 39.999s-23 17 -37 17h-106v160h101c14 0 26.333 5.66699 37 17s16 24.666 16 39.999s-5.16699 28 -15.5 38s-22.833 15 -37.5 15h-56c-18.667 0 -33 -7 -43 -21
l-34 -45l-47 70.5c-16 23.667 -31.333 48.834 -46 75.501l22 21c14.667 14 30.5 26 47.5 36s35.167 16 54.5 18c9.33301 0.666992 20.5 1.33398 33.5 2.00098s26.333 1 40 1s27 -0.166992 40 -0.5s24.167 -0.833008 33.5 -1.5c20.667 -2.66699 40 -9.5 58 -20.5
s34.333 -24.167 49 -39.5c19.333 -20 34.333 -42.833 45 -68.5s16 -52.5 16 -80.5c0 -50 -16 -94.667 -48 -134z" />
    <glyph glyph-name="four" unicode="4" horiz-adv-x="585" 
d="M475 700v-701h-160v252h-315v127l115 322h170l-96 -270c-2 -4.66699 -1.66699 -9 1 -13s6.66699 -6 12 -6h98c4 0 7.5 1.33301 10.5 4s4.5 6 4.5 10v275h160z" />
    <glyph glyph-name="five" unicode="5" horiz-adv-x="583" 
d="M494 540l-292 0.000976562v-110h79c30.667 0 59.5 -5.83301 86.5 -17.5s50.167 -28.167 69.5 -49.5c18 -20 31.833 -43 41.5 -69s14.5 -53 14.5 -81c0 -29.333 -5.66699 -57 -17 -83s-26.666 -48.667 -45.999 -68s-41.833 -34.5 -67.5 -45.5s-53.167 -16.5 -82.5 -16.5
h-116c-31.333 0 -61 6.33301 -89 19s-52 30.667 -72 54l-27 31l31 26l29 26c9.33301 8 18.666 16.667 27.999 26l31 30l28 -33c10 -12.667 23.667 -19 41 -19h116c14.667 0 27.167 5 37.5 15s15.5 22.667 15.5 38s-5.33301 28.666 -16 39.999s-23 17 -37 17h-238v430h452
v-160z" />
    <glyph glyph-name="six" unicode="6" horiz-adv-x="596" 
d="M481 333c13.333 -32 19.999 -69.666 19.999 -112.999c0 -23.333 -1.66699 -44.333 -5 -63s-8.33301 -35.667 -15 -51c-14.667 -33.333 -38 -59.333 -70 -78c-24.667 -14 -50.667 -22.167 -78 -24.5s-55 -3.5 -83 -3.5c-38 0 -69.833 2.33301 -95.5 7
s-47.167 11.667 -64.5 21c-32 18.667 -55.333 44.667 -70 78c-6.66699 15.333 -11.667 32.333 -15 51s-5 39.667 -5 63c0 6.66699 0.5 15.167 1.5 25.5s2.5 21 4.5 32s4.33301 21.833 7 32.5s5.66699 19.667 9 27c8 17.333 18.167 38.166 30.5 62.499l39.5 75.5l42.5 77
l39 69l29 51c7.66699 13.333 12.167 21 13.5 23l11 19c0 0.666992 0.333008 1 1 1h178v-1l-150 -273c0 -0.666992 0.333008 -1 1 -1l61 -2c16 -1.33301 31.833 -4 47.5 -8s30.834 -10 45.501 -18c32 -18.667 55.333 -45 70 -79zM153.999 220.001
c0 -20 1.50098 -34.333 4.50098 -43s5.5 -13.667 7.5 -15c7.33301 -4 19.166 -6.33301 35.499 -7s32.166 -1 47.499 -1h1c16.667 0 33.167 0.333008 49.5 1s28.166 3 35.499 7c2 1.33301 4.33301 6.33301 7 15s4 23 4 43s-1.33301 34.333 -4 43s-5 13.667 -7 15
c-7.33301 3.33301 -19.166 5.33301 -35.499 6s-32.166 1 -47.499 1h-1c-16.667 0 -33 -0.333008 -49 -1s-27.667 -2.66699 -35 -6l-8 -15c-1.33301 -4 -2.5 -9.33301 -3.5 -16s-1.5 -15.667 -1.5 -27z" />
    <glyph glyph-name="seven" unicode="7" horiz-adv-x="605" 
d="M482 700l-253.001 -700h-180l189 523c1.33301 4 0.833008 8 -1.5 12s-6.16602 6 -11.499 6l-225 -1v160h482z" />
    <glyph glyph-name="eight" unicode="8" horiz-adv-x="576" 
d="M462 322c12.667 -29.333 18.9961 -65.6689 18.9961 -109.002c0 -44.667 -6.33301 -81 -19 -109c-15.333 -33.333 -38 -58.666 -68 -75.999c-23.333 -13.333 -48.166 -21.166 -74.499 -23.499s-52.833 -3.5 -79.5 -3.5l-68 1c-14.667 0 -29.334 2.5 -44.001 7.5
s-28.667 11.167 -42 18.5c-29.333 16.667 -51.666 42 -66.999 76c-12.667 28 -19 64.333 -19 109c0 43.333 6.33301 79.666 19 108.999c8.66699 19.333 20.334 36.333 35.001 51c-6.66699 8.66699 -12.667 19.334 -18 32.001c-12 26.667 -18 60 -18 100s6 73.667 18 101
c13.333 31.333 34 55 62 71c22 12.667 45.167 20 69.5 22s48.833 3 73.5 3l67 -3c12.667 -1.33301 25.334 -3.66602 38.001 -6.99902s24.667 -8.33301 36 -15c28.667 -16 49.667 -39.667 63 -71c12 -27.333 18 -61 18 -101s-6 -73.333 -18 -100
c-5.33301 -12.667 -11.333 -23.334 -18 -32.001c14.667 -14.667 26.334 -31.667 35.001 -51zM310.996 459.997c1.33301 2 2.66602 4.99902 3.99902 8.99902c1.33301 3.33301 2.33301 7.83301 3 13.5s1 13.167 1 22.5c0 18 -1.16699 30.167 -3.5 36.5s-3.83301 9.5 -4.5 9.5
c-5.33301 3.33301 -15.166 5.16602 -29.499 5.49902s-27.5 0.5 -39.5 0.5h-1c-14 0 -28 -0.166992 -42 -0.5s-23.667 -2.16602 -29 -5.49902h-1c-1.33301 -2 -2.66602 -5 -3.99902 -9c-2 -7.33301 -3 -19.666 -3 -36.999s1 -29.333 3 -36c1.33301 -4 2.66602 -7 3.99902 -9
h1c5.33301 -3.33301 15 -5.33301 29 -6s27.333 -1 40 -1h1c14 0 28 0.333008 42 1s23.667 2.66699 29 6zM159.996 267.996c-2 -1.33301 -4.33301 -6 -7 -14s-4 -21.667 -4 -41s1.33301 -33 4 -41s5 -12.667 7 -14c6.66699 -4 17.834 -6.33301 33.501 -7s30.834 -1 45.501 -1
h1c16 0 31.833 0.333008 47.5 1s26.834 3 33.501 7c2 1.33301 4.33301 6 7 14s4 21.667 4 41s-1.33301 33 -4 41s-5 12.667 -7 14c-6.66699 3.33301 -17.834 5.33301 -33.501 6s-30.834 1 -45.501 1h-1c-16 0 -31.833 -0.333008 -47.5 -1s-26.834 -2.66699 -33.501 -6z" />
    <glyph glyph-name="nine" unicode="9" horiz-adv-x="613" 
d="M507 485c0 -12.667 -0.833984 -25.333 -2.50098 -38s-3.66699 -24.334 -6 -35.001s-4.66602 -19.667 -6.99902 -27s-4.16602 -12.333 -5.49902 -15c0 -0.666992 -0.166992 -1.16699 -0.5 -1.5s-0.5 -0.833008 -0.5 -1.5c-6 -14 -13.333 -30 -22 -48
s-18.334 -37 -29.001 -57l-33.5 -61l-33.5 -60l-83 -141h-182l145 262l-64 2c-17.333 1.33301 -34 3.83301 -50 7.5s-31.667 9.83398 -47 18.501c-32 18 -55.667 44.667 -71 80c-14 30.667 -21 69 -21 115c0 44.667 7 83 21 115c15.333 34.667 39 61 71 79
c25.333 14 52.166 22.167 80.499 24.5s56.5 3.5 84.5 3.5c38.667 0 71.334 -2.33301 98.001 -7s48.667 -11.667 66 -21c32 -18 55.667 -44.333 71 -79c14 -32 21 -70.333 21 -115zM349.999 485.001c0 18 -1.16797 32.001 -3.50098 42.001s-5.16602 16 -8.49902 18
c-7.33301 4 -19.5 6.33301 -36.5 7s-33.5 1 -49.5 1h-1c-18 0 -35.333 -0.333008 -52 -1s-28.667 -3 -36 -7c-3.33301 -2 -6.16602 -8 -8.49902 -18s-3.5 -24 -3.5 -42c0 -18.667 1.16699 -33 3.5 -43s5.16602 -15.667 8.49902 -17c7.33301 -4 19.5 -6.33301 36.5 -7
s33.5 -1 49.5 -1h1c18 0 35.5 -0.166992 52.5 -0.5s28.5 2.5 34.5 8.5c1.33301 1.33301 2.83301 3.66602 4.5 6.99902s3.16699 6 4.5 8c2.66699 7.33301 4 22.333 4 45z" />
    <glyph glyph-name="colon" unicode=":" horiz-adv-x="274" 
d="M0 390v160h172v-160h-172zM0 150v160h172v-160h-172z" />
    <glyph glyph-name="semicolon" unicode=";" horiz-adv-x="279" 
d="M0 390v160h172v-160h-172zM0 150v160h172v-259l-86 99h-86z" />
    <glyph glyph-name="less" unicode="&#x3c;" horiz-adv-x="499" 
d="M193 361c-4 -7.33301 -4 -14.667 0 -22l202 -340h-186l-209 351l209 350h186zM193 360.999c-4 -7.33301 -4 -14.667 0 -22l202 -340h-186l-209 351l209 350h186z" />
    <glyph glyph-name="equal" unicode="=" horiz-adv-x="802" 
d="M10 494h697v-144h-697v144zM10 292h697v-144h-697v144z" />
    <glyph glyph-name="greater" unicode="&#x3e;" horiz-adv-x="499" 
d="M0 700l186 0.000976562l209 -350l-209 -351h-186l202 340c4 7.33301 4 14.666 0 21.999z" />
    <glyph glyph-name="question" unicode="?" horiz-adv-x="637" 
d="M534 493c0 -8 -0.168945 -15.5059 -0.501953 -22.5059s-0.833008 -13.833 -1.5 -20.5l1 -1l-4 -21c-1.33301 -4 -2 -7 -2 -9c0 -0.666992 -0.333008 -1.33398 -1 -2.00098v-1c0 -1.33301 -0.166992 -2.16602 -0.5 -2.49902s-0.5 -1.16602 -0.5 -2.49902
c-3.33301 -13.333 -7.33301 -24.666 -12 -33.999c0 -0.666992 -0.166992 -1.16699 -0.5 -1.5s-0.5 -0.833008 -0.5 -1.5c-12.667 -30 -27.834 -52.5 -45.501 -67.5s-34.5 -27.5 -50.5 -37.5c-7.33301 -4.66699 -13.833 -8.16699 -19.5 -10.5s-10.5 -4.83301 -14.5 -7.5
s-7.33301 -6.16699 -10 -10.5s-4.66699 -10.5 -6 -18.5l-5 -34h-169l2 43c2 28 6.5 50.333 13.5 67s16.833 32.667 29.5 48c11.333 14.667 23.666 25.834 36.999 33.501s26.333 14.5 39 20.5c14 6.66699 26 13.334 36 20.001s18.333 16.667 25 30
c0.666992 2 1.33398 4.83301 2.00098 8.5s1.16699 7.66699 1.5 12s0.5 8.66602 0.5 12.999v9.5c0 18.667 -1.33301 33 -4 43s-5.66699 15.667 -9 17c-7.33301 4.66699 -19.5 7.33398 -36.5 8.00098s-33.5 1 -49.5 1h-1c-18 0 -35.167 -0.333008 -51.5 -1
s-28.166 -3.33398 -35.499 -8.00098c-3.33301 -1.33301 -5.66602 -4.66602 -6.99902 -9.99902s-2.33301 -9.66602 -3 -12.999l-7 -34l-155 8l6 43c2.66699 22.667 8.33398 43.334 17.001 62.001c15.333 35.333 39 62 71 80c25.333 14.667 52.166 23.167 80.499 25.5
s56.5 3.5 84.5 3.5c76.667 0 131.334 -9.66699 164.001 -29c32 -18 55.667 -44.667 71 -80c14 -32 21 -70.667 21 -116zM189.998 159.994h172v-160h-172v160z" />
    <glyph glyph-name="at" unicode="@" horiz-adv-x="776" 
d="M645 527c23.333 -40 38.499 -82.5 45.499 -127.5s4.83301 -90.167 -6.5 -135.5c-10 -39.333 -26.333 -75.666 -49 -108.999s-50 -61.666 -82 -84.999c-26.667 -19.333 -55.834 -32.833 -87.501 -40.5s-64.5 -13.834 -98.5 -18.501l-58 -7l45 181
c-15.333 -0.666992 -31 1 -47 5c-22 5.33301 -41.667 14.666 -59 27.999s-31.333 29 -42 47s-17.667 37.667 -21 59s-2.33301 43 3 65c9.33301 36.667 28.666 66.5 57.999 89.5s63 34.5 101 34.5c6.66699 0 13.334 -0.333008 20.001 -1s13.334 -2 20.001 -4
c29.333 -7.33301 54 -21 74 -41l38 -10c-12.667 18.667 -28.167 34.167 -46.5 46.5s-38.166 21.166 -59.499 26.499c-15.333 4 -30.666 6 -45.999 6c-21.333 0 -41.833 -3.5 -61.5 -10.5s-37.5 -16.667 -53.5 -29s-29.667 -27.166 -41 -44.499s-19.666 -36.333 -24.999 -57
c-12.667 -50.667 -5.66699 -98 21 -142c12.667 -21.333 28.834 -39.333 48.501 -54s41.5 -25 65.5 -31l-39 -155c-44.667 11.333 -85.334 30.5 -122.001 57.5s-67 60.5 -91 100.5c-23.333 40 -38.333 82.5 -45 127.5s-4.33398 90.167 6.99902 135.5
c9.33301 38 24.5 73.167 45.5 105.5s47.5 60.5 79.5 84.5c30 23.333 63.167 41.166 99.5 53.499s73.5 18.5 111.5 18.5c30 0 58.333 -3.33301 85 -10c45.333 -11.333 86.166 -30.666 122.499 -57.999s66.5 -61 90.5 -101zM322.999 355
c-0.666992 -3.33301 -0.833008 -6.5 -0.5 -9.5s1.5 -6.16699 3.5 -9.5c2.66699 -5.33301 7.66699 -9 15 -11c1.33301 0 2.33301 -0.166992 3 -0.5s1.66699 -0.5 3 -0.5c12.667 0 20.667 6.33301 24 19c2 6.66699 1 13 -3 19c-3.33301 5.33301 -8.33301 9 -15 11
c-1.33301 0.666992 -3.33301 1 -6 1c-12.667 0 -20.667 -6.33301 -24 -19zM490 229c18.667 22.667 31.333 47.334 38 74.001c7.33301 27.333 8.33301 54.666 3 81.999z" />
    <glyph glyph-name="A" unicode="A" horiz-adv-x="796" 
d="M714 -1h-170l-26 71c-1.33301 4.66699 -4.33301 7 -9 7h-302c-4 0 -7 -2.33301 -9 -7l-25 -71h-170l252 701h207zM263 250c-1.33301 -3.33301 -1 -6.33301 1 -9s4.66699 -4 8 -4h173c8.66699 0 11.667 4.33301 9 13l-86 240c-2 4.66699 -5.33301 7 -10 7
s-7.66699 -2.33301 -9 -7z" />
    <glyph glyph-name="B" unicode="B" 
d="M534 353c17.333 -19.333 30.5 -41.001 39.5 -65.001s13.5 -49 13.5 -75c0 -29.333 -5.5 -56.833 -16.5 -82.5s-26.167 -48.167 -45.5 -67.5s-41.833 -34.5 -67.5 -45.5s-53.167 -16.5 -82.5 -16.5h-375v698h375c30 0 58 -5.5 84 -16.5s48.667 -26.833 68 -47.5
c17.333 -19.333 30.833 -41.666 40.5 -66.999s14.5 -52.333 14.5 -81c0 -51.333 -16 -96 -48 -134zM159 438.999c0 -6 3.33398 -8.99902 10.001 -8.99902h200c14 0 26.333 5.5 37 16.5s16 24.167 16 39.5c0.666992 15.333 -4.33301 28.166 -15 38.499
s-23.334 15.5 -38.001 15.5h-200c-6.66699 0 -10 -3 -10 -9v-92zM159.001 169c0 -6 3.33203 -8.99902 9.99902 -8.99902h205c14.667 0 27.334 5.16699 38.001 15.5s16 23.166 16 38.499c-0.666992 15.333 -6.16699 28.5 -16.5 39.5s-22.5 16.5 -36.5 16.5h-206
c-6.66699 0 -10 -3 -10 -9v-92z" />
    <glyph glyph-name="C" unicode="C" horiz-adv-x="710" 
d="M612 99l-23 -18.001c-68 -52.667 -146 -79 -234 -79c-48.667 0 -95.167 8.66699 -139.5 26s-83.833 42.333 -118.5 75c-36 34 -63.667 73 -83 117s-29 90.333 -29 139s9.66699 94.834 29 138.501s47 82.5 83 116.5c34.667 33.333 74.167 58.666 118.5 75.999
s90.833 26 139.5 26c87.333 0 165 -26.333 233 -79l23 -17l-56 -168l-45 42c-20.667 19.333 -44.167 34 -70.5 44s-54.5 15 -84.5 15s-58.167 -5.16699 -84.5 -15.5s-49.833 -25.166 -70.5 -44.499c-40 -38 -60 -82.667 -60 -134c0 -25.333 5.16699 -49.5 15.5 -72.5
s25.166 -43.5 44.499 -61.5c20.667 -19.333 44.167 -34.166 70.5 -44.499s54.5 -15.5 84.5 -15.5s58.333 5.16699 85 15.5s50.334 25.166 71.001 44.499l45 42z" />
    <glyph glyph-name="D" unicode="D" horiz-adv-x="750" 
d="M553 624c71.333 -60 107 -151.667 107 -275c0 -126.667 -36 -220 -108 -280c-57.333 -46.667 -138.333 -70 -243 -70h-301v702h301c102 0 183.333 -25.667 244 -77zM309 159c36 0 66.168 3.16797 90.501 9.50098s44 17 59 32s25.667 34.667 32 59s9.5 54.166 9.5 89.499
c0 72.667 -17 123.667 -51 153c-30.667 25.333 -77.334 38 -140.001 38h-133c-5.33301 0 -8 -2.66699 -8 -8v-365c0 -5.33301 2.66699 -8 8 -8h133z" />
    <glyph glyph-name="E" unicode="E" horiz-adv-x="676" 
d="M168 538c-5.33301 0 -8 -2.66699 -8 -8v-133c0 -6 2.66699 -9 8 -9h325v-159h-325c-5.33301 0 -8 -3 -8 -9v-52c0 -5.33301 2.66699 -8 8 -8h402v-160h-570v700h570v-162h-402z" />
    <glyph glyph-name="F" unicode="F" horiz-adv-x="652" 
d="M169 535c-6.66699 0 -10 -3.66699 -10 -11v-160c0 -7.33301 3.33301 -11 10 -11h316v-159h-316c-6.66699 0 -10 -3.33301 -10 -10v-185h-159v697h567v-161h-398z" />
    <glyph glyph-name="G" unicode="G" horiz-adv-x="737" 
d="M258 358l364.004 -0.00195312v-266l-18 -13c-33.333 -26 -69.5 -45.667 -108.5 -59s-80.167 -20 -123.5 -20c-49.333 0 -96.166 8.83301 -140.499 26.5s-84.166 42.834 -119.499 75.501c-36 34 -63.667 73 -83 117s-29 90.667 -29 140c0 48.667 9.66699 95.167 29 139.5
s47 83.5 83 117.5c35.333 32.667 75.166 57.667 119.499 75s91.166 26 140.499 26c43.333 0 84.666 -6.66699 123.999 -20s75.666 -32.666 108.999 -57.999l23 -18l-56 -168l-45 41c-20.667 19.333 -44.167 34.166 -70.5 44.499s-54.5 15.5 -84.5 15.5
s-58.333 -5.33301 -85 -16s-50.334 -25.667 -71.001 -45c-19.333 -18 -34.166 -38.5 -44.499 -61.5s-15.5 -47.167 -15.5 -72.5s5.16699 -49.5 15.5 -72.5s25.166 -43.833 44.499 -62.5c20.667 -19.333 44.334 -34.166 71.001 -44.499s55 -15.5 85 -15.5
c15.333 0 30.166 1.16699 44.499 3.5s28.166 6.5 41.499 12.5c5.33301 2.66699 7.5 5.66699 6.5 9s-4.16699 5 -9.5 5h-133z" />
    <glyph glyph-name="H" unicode="H" horiz-adv-x="662" 
d="M551 700v-701h-160v180c0 6.66699 -3.33301 10 -10 10h-212c-6 0 -9 -3.33301 -9 -10v-180h-160v701h160v-341c0 -6.66699 3 -10 9 -10h212c6.66699 0 10 3.33301 10 10v341h160z" />
    <glyph glyph-name="I" unicode="I" horiz-adv-x="268" 
d="M0 700h160v-701h-160v701v0z" />
    <glyph glyph-name="J" unicode="J" horiz-adv-x="572" 
d="M475 700v-479c0 -30 -5.5 -58.333 -16.5 -85s-27.167 -50.667 -48.5 -72s-45.333 -37.5 -72 -48.5s-55 -16.5 -85 -16.5c-12.667 0 -27.5 1.33301 -44.5 4s-35.333 7 -55 13s-40 13.833 -61 23.5s-41.833 21.5 -62.5 35.5l-30 21l56 148l43 -26
c42 -25.333 75.333 -41.5 100 -48.5s42.667 -10.5 54 -10.5c16 0 30.667 6 44 18c12 12 18 26.667 18 44v479h160z" />
    <glyph glyph-name="K" unicode="K" horiz-adv-x="704" 
d="M292 350l304 -350.998h-211l-204 236c-3.33301 3.33301 -7 4.16602 -11 2.49902s-6 -4.83398 -6 -9.50098v-229h-164v701h164v-229c0 -4.66699 2 -7.66699 6 -9s7.66699 -0.333008 11 3l204 235h211z" />
    <glyph glyph-name="L" unicode="L" horiz-adv-x="638" 
d="M160 170c0 -7.33301 3.66699 -11 11 -11h359v-160h-530v701h160v-530v0z" />
    <glyph glyph-name="M" unicode="M" horiz-adv-x="748" 
d="M641 700l-0.00195312 -700.999h-160v292c0 2 -1.16699 3.33301 -3.5 4s-4.16602 0 -5.49902 -2l-89 -186h-125l-90 185c-1.33301 2.66699 -3 3.66699 -5 3s-3 -2.33398 -3 -5.00098v-291h-160v701h149l167 -346c1.33301 -1.33301 2.83301 -2 4.5 -2
s2.83398 0.666992 3.50098 2l167 346h150z" />
    <glyph glyph-name="N" unicode="N" horiz-adv-x="668" 
d="M556 700v-701h-142l-251 388c-0.666992 1.33301 -1.33398 1.83301 -2.00098 1.5s-1 -1.16602 -1 -2.49902v-387h-160v701h145l248 -367c0.666992 -1.33301 1.33398 -1.83301 2.00098 -1.5s1 1.16602 1 2.49902v366h160z" />
    <glyph glyph-name="O" unicode="O" horiz-adv-x="728" 
d="M578 596c19.333 -34.667 30.665 -71.835 33.998 -111.502s5 -81.5 5 -125.5v-68h-1c-1.33301 -30 -4.5 -59 -9.5 -87s-14.5 -54.667 -28.5 -80c-24.667 -43.333 -60 -74.666 -106 -93.999c-41.333 -19.333 -96 -29 -164 -29c-66.667 0 -121.334 9.66699 -164.001 29
c-45.333 20 -80.333 51.333 -105 94c-19.333 34.667 -30.666 72 -33.999 112s-5 81.667 -5 125v68h1c1.33301 30 4.33301 59 9 87s14.334 54.667 29.001 80c24.667 42.667 59.667 74 105 94c42.667 19.333 97.334 29 164.001 29c68 0 122.667 -9.66699 164 -29
c46 -19.333 81.333 -50.666 106 -93.999zM454.999 358.999c0 32 -0.666992 62.166 -2 90.499s-6.66602 50.5 -15.999 66.5c-1.33301 2.66699 -3.83301 6.16699 -7.5 10.5s-10.167 8.66602 -19.5 12.999s-22 8.16602 -38 11.499s-37.333 5 -64 5
c-26 0 -47.167 -1.66699 -63.5 -5s-29 -7.16602 -38 -11.499s-15.333 -8.66602 -19 -12.999s-6.16699 -7.83301 -7.5 -10.5c-9.33301 -16 -14.666 -37.667 -15.999 -65s-2 -56.666 -2 -87.999v-2c0 -32 0.666992 -62.167 2 -90.5s6.66602 -50.5 15.999 -66.5
c1.33301 -2 3.83301 -5.33301 7.5 -10s10 -9.16699 19 -13.5s21.667 -8.16602 38 -11.499s37.5 -5 63.5 -5c26.667 0 48 1.66699 64 5s28.667 7.16602 38 11.499s15.833 8.83301 19.5 13.5s6.16699 8 7.5 10c9.33301 16 14.666 37.667 15.999 65s2 57 2 89v1z" />
    <glyph glyph-name="P" unicode="P" horiz-adv-x="726" 
d="M337 698c42 0 81.5 -8 118.5 -24s69.333 -37.667 97 -65s49.5 -59.5 65.5 -96.5s24 -76.5 24 -118.5c0 -37.333 -7.33301 -74 -22 -110s-35 -68.333 -61 -97c-29.333 -32 -63 -56.333 -101 -73s-78.333 -25 -121 -25h-178v-90h-159v699h337zM336 249
c20 0 38.833 3.66699 56.5 11s33.167 17.5 46.5 30.5s23.833 28.333 31.5 46s11.5 36.5 11.5 56.5s-3.83301 38.833 -11.5 56.5s-18 33.167 -31 46.5s-28.333 23.833 -46 31.5s-36.5 11.5 -56.5 11.5h-167c-7.33301 0 -11 -3.66699 -11 -11v-269
c0 -6.66699 3.66699 -10 11 -10h166z" />
    <glyph glyph-name="Q" unicode="Q" horiz-adv-x="712" 
d="M616 2l-176.998 0.000976562l-9 14c-34.667 -10.667 -77 -16 -127 -16c-65.333 0 -119 9.33301 -161 28c-46.667 21.333 -81.334 52.666 -104.001 93.999c-9.33301 17.333 -16.666 35.5 -21.999 54.5s-9.16602 38.5 -11.499 58.5s-3.66602 40.333 -3.99902 61
s-0.5 42 -0.5 64v67h1c1.33301 30 4.33301 59.167 9 87.5s14 55.166 28 80.499c23.333 42.667 58 74 104 94c21.333 9.33301 45.166 16.5 71.499 21.5s56.166 7.5 89.499 7.5c63.333 0 117 -9.66699 161 -29c45.333 -20 79.666 -51.333 102.999 -94
c19.333 -34.667 30.666 -72 33.999 -112s5 -81.667 5 -125v-69h-1c-1.33301 -30 -4.5 -59 -9.5 -87s-14.5 -54.667 -28.5 -80c-3.33301 -7.33301 -9 -13.666 -17 -18.999zM252.002 289.001l177 -0.000976562l2 -3c1.33301 -2.66699 3.5 -3.66699 6.5 -3
s4.83301 2.66699 5.5 6c2 18 3 40.333 3 67v2c0 32 -0.666992 62.167 -2 90.5s-6.33301 50.166 -15 65.499c-1.33301 2.66699 -3.83301 6.16699 -7.5 10.5s-10 8.66602 -19 12.999s-21.333 8.16602 -37 11.499s-36.5 5 -62.5 5s-47 -1.66699 -63 -5
s-28.5 -7.16602 -37.5 -11.499s-15.167 -8.66602 -18.5 -12.999s-5.66602 -7.83301 -6.99902 -10.5c-9.33301 -15.333 -14.666 -36.833 -15.999 -64.5s-2 -57.167 -2 -88.5v-1c0 -32.667 0.666992 -63 2 -91s6.66602 -50 15.999 -66
c1.33301 -2.66699 3.66602 -6.16699 6.99902 -10.5s9.5 -8.66602 18.5 -12.999s21.5 -8.16602 37.5 -11.499s37 -5 63 -5h19c2.66699 0.666992 4.5 2.16699 5.5 4.5s0.833008 4.5 -0.5 6.5z" />
    <glyph glyph-name="R" unicode="R" horiz-adv-x="774" 
d="M367 701c42 0 81.5 -8 118.5 -24s69.5 -37.833 97.5 -65.5s50 -60.167 66 -97.5s24 -77 24 -119c0 -35.333 -6 -69.5 -18 -102.5s-29.333 -63.167 -52 -90.5c-34 -42 -76.667 -72.667 -128 -92l42 -111h-172l-32 85c-1.33301 4 -4 6 -8 6h-137c-5.33301 0 -8 -3 -8 -9
v-82h-160v702h367zM366 250c20 0 38.832 3.83301 56.499 11.5s33.167 18 46.5 31s23.833 28.333 31.5 46s11.5 36.5 11.5 56.5s-3.66699 38.833 -11 56.5s-17.666 33.167 -30.999 46.5s-28.833 23.833 -46.5 31.5s-36.5 11.5 -56.5 11.5h-199c-5.33301 0 -8 -3 -8 -9v-274
c0 -5.33301 2.66699 -8 8 -8h198z" />
    <glyph glyph-name="S" unicode="S" horiz-adv-x="649" 
d="M466 384c32 -21.333 56.498 -46.498 73.498 -75.498s25.5 -60.5 25.5 -94.5s-8.5 -65.5 -25.5 -94.5s-41.5 -54.167 -73.5 -75.5c-25.333 -17.333 -54.333 -30.5 -87 -39.5s-66.667 -13.5 -102 -13.5s-69.166 4.5 -101.499 13.5s-61.5 22.167 -87.5 39.5
c-17.333 11.333 -33 24.666 -47 39.999l-16 19l52 159l44 -42c6.66699 -6.66699 12.167 -11.5 16.5 -14.5l22.5 -15.5l7 -4c13.333 -9.33301 29.833 -16.666 49.5 -21.999s39.834 -8 60.501 -8c21.333 0 41.666 2.66699 60.999 8s36 12.666 50 21.999
c10.667 7.33301 16 16.833 16 28.5s-5.33301 21.167 -16 28.5c-14 9.33301 -30.667 16.5 -50 21.5s-39.666 7.5 -60.999 7.5c-35.333 0 -69.166 4.5 -101.499 13.5s-61.5 22.167 -87.5 39.5c-32 21.333 -56.333 46.5 -73 75.5s-25 60.5 -25 94.5s8.33301 65.5 25 94.5
s41 54.167 73 75.5c26 17.333 55.167 30.5 87.5 39.5s66.166 13.5 101.499 13.5s69.333 -4.5 102 -13.5s61.667 -22.167 87 -39.5c9.33301 -6 17.666 -12.167 24.999 -18.5s14.666 -13.166 21.999 -20.499l16 -18l-52 -164l-45 46c-5.33301 5.33301 -9.83301 9.5 -13.5 12.5
s-9.83398 7.16699 -18.501 12.5c-1.33301 1.33301 -3.16602 2.66602 -5.49902 3.99902s-4.83301 2.66602 -7.5 3.99902c-13.333 9.33301 -29.666 16.666 -48.999 21.999s-39.666 8 -60.999 8c-20.667 0 -40.834 -2.66699 -60.501 -8s-36.167 -12.666 -49.5 -21.999
c-10.667 -7.33301 -16 -16.833 -16 -28.5s5.33301 -21.167 16 -28.5c13.333 -9.33301 29.833 -16.5 49.5 -21.5s39.834 -7.5 60.501 -7.5c35.333 0 69.333 -4.5 102 -13.5s61.667 -22.167 87 -39.5z" />
    <glyph glyph-name="T" unicode="T" horiz-adv-x="719" 
d="M625 700v-160h-222c-4.66699 0 -7 -2.33301 -7 -7v-534h-160v534c0 4.66699 -2.33301 7 -7 7h-223v160h619z" />
    <glyph glyph-name="U" unicode="U" 
d="M607 700l-0.00390625 -350c0 -42 -1.66699 -82.667 -5 -122s-14.666 -76 -33.999 -110c-23.333 -41.333 -58 -72 -104 -92c-21.333 -9.33301 -45.166 -16.333 -71.499 -21s-56.166 -7 -89.499 -7c-32.667 0 -62.334 2.33301 -89.001 7s-50.667 11.667 -72 21
c-44.667 19.333 -79.334 50 -104.001 92c-9.33301 16.667 -16.666 34.334 -21.999 53.001s-9.16602 37.667 -11.499 57s-3.66602 39.166 -3.99902 59.499s-0.5 41.166 -0.5 62.499v350h160v-350c0 -32 0.666992 -61.667 2 -89s6.33301 -48.666 15 -63.999
c1.33301 -2 3.83301 -5.16699 7.5 -9.5s10 -8.66602 19 -12.999s21.333 -8.16602 37 -11.499s36.5 -5 62.5 -5s47 1.66699 63 5s28.5 7.16602 37.5 11.499s15.167 8.66602 18.5 12.999s5.66602 7.5 6.99902 9.5c8.66699 15.333 13.834 36.833 15.501 64.5
s2.5 57.167 2.5 88.5v350h160z" />
    <glyph glyph-name="V" unicode="V" horiz-adv-x="758" 
d="M648 700l-254 -701h-140l-254 701h171l145 -403c1.33301 -3.33301 4 -5 8 -5s6.66699 1.66699 8 5l145 403h171z" />
    <glyph glyph-name="W" unicode="W" horiz-adv-x="924" 
d="M838 700l-252.999 -701h-145l-16 69c-0.666992 1.33301 -1.83398 2 -3.50098 2s-2.83398 -0.666992 -3.50098 -2l-21 -69h-142l-254 701h171l147 -408c0.666992 -1.33301 1.83398 -2 3.50098 -2s2.83398 0.666992 3.50098 2l90 285c0.666992 2 2 3 4 3s3.33301 -1 4 -3
l90 -285c1.33301 -1.33301 2.66602 -2 3.99902 -2s2.33301 0.666992 3 2l148 408h170z" />
    <glyph glyph-name="X" unicode="X" horiz-adv-x="755" 
d="M432 350c-0.666992 -0.666992 -0.666992 -2 0 -4l231 -347h-192l-134 201c-2.66699 2.66699 -4.66699 2.66699 -6 0l-134 -201h-193l232 347c0.666992 1.33301 0.666992 3 0 5l-234 349h193l136 -203c1.33301 -2.66699 3.33301 -2.66699 6 0l136 203h193z" />
    <glyph glyph-name="Y" unicode="Y" horiz-adv-x="888" 
d="M597 698h194l-316 -471v-228h-159v228l-316 471h193l202 -321l202 321v0z" />
    <glyph glyph-name="Z" unicode="Z" horiz-adv-x="686" 
d="M279 171c-2 -2.66699 -2.33301 -5.33301 -1 -8s3.66602 -4 6.99902 -4h312v-159h-626l354 528c1.33301 2.66699 1.33301 5.16699 0 7.5s-3.66602 3.5 -6.99902 3.5h-312v160h626z" />
    <glyph glyph-name="bracketleft" unicode="[" horiz-adv-x="391" 
d="M295 558h-136v-461h136v-160h-296v781h296v-160v0z" />
    <glyph glyph-name="backslash" unicode="\" horiz-adv-x="423" 
d="M139 718l260 -718h-176l-260 718h176z" />
    <glyph glyph-name="bracketright" unicode="]" horiz-adv-x="393" 
d="M-1 558v160h296v-781h-296v160h136v461h-136z" />
    <glyph glyph-name="asciicircum" unicode="^" horiz-adv-x="487" 
d="M366 498l-162 103l-161 -103l-43 68l204 130l205 -130l-43 -68v0z" />
    <glyph glyph-name="underscore" unicode="_" horiz-adv-x="982" 
d="M0 144h862v-144h-862v144v0z" />
    <glyph glyph-name="a" unicode="a" horiz-adv-x="796" 
d="M714 -1h-170l-26 71c-1.33301 4.66699 -4.33301 7 -9 7h-302c-4 0 -7 -2.33301 -9 -7l-25 -71h-170l252 701h207zM263 250c-1.33301 -3.33301 -1 -6.33301 1 -9s4.66699 -4 8 -4h173c8.66699 0 11.667 4.33301 9 13l-86 240c-2 4.66699 -5.33301 7 -10 7
s-7.66699 -2.33301 -9 -7z" />
    <glyph glyph-name="b" unicode="b" 
d="M534 353c17.333 -19.333 30.5 -41.001 39.5 -65.001s13.5 -49 13.5 -75c0 -29.333 -5.5 -56.833 -16.5 -82.5s-26.167 -48.167 -45.5 -67.5s-41.833 -34.5 -67.5 -45.5s-53.167 -16.5 -82.5 -16.5h-375v698h375c30 0 58 -5.5 84 -16.5s48.667 -26.833 68 -47.5
c17.333 -19.333 30.833 -41.666 40.5 -66.999s14.5 -52.333 14.5 -81c0 -51.333 -16 -96 -48 -134zM159 438.999c0 -6 3.33398 -8.99902 10.001 -8.99902h200c14 0 26.333 5.5 37 16.5s16 24.167 16 39.5c0.666992 15.333 -4.33301 28.166 -15 38.499
s-23.334 15.5 -38.001 15.5h-200c-6.66699 0 -10 -3 -10 -9v-92zM159.001 169c0 -6 3.33203 -8.99902 9.99902 -8.99902h205c14.667 0 27.334 5.16699 38.001 15.5s16 23.166 16 38.499c-0.666992 15.333 -6.16699 28.5 -16.5 39.5s-22.5 16.5 -36.5 16.5h-206
c-6.66699 0 -10 -3 -10 -9v-92z" />
    <glyph glyph-name="c" unicode="c" horiz-adv-x="710" 
d="M612 99l-23 -18.001c-68 -52.667 -146 -79 -234 -79c-48.667 0 -95.167 8.66699 -139.5 26s-83.833 42.333 -118.5 75c-36 34 -63.667 73 -83 117s-29 90.333 -29 139s9.66699 94.834 29 138.501s47 82.5 83 116.5c34.667 33.333 74.167 58.666 118.5 75.999
s90.833 26 139.5 26c87.333 0 165 -26.333 233 -79l23 -17l-56 -168l-45 42c-20.667 19.333 -44.167 34 -70.5 44s-54.5 15 -84.5 15s-58.167 -5.16699 -84.5 -15.5s-49.833 -25.166 -70.5 -44.499c-40 -38 -60 -82.667 -60 -134c0 -25.333 5.16699 -49.5 15.5 -72.5
s25.166 -43.5 44.499 -61.5c20.667 -19.333 44.167 -34.166 70.5 -44.499s54.5 -15.5 84.5 -15.5s58.333 5.16699 85 15.5s50.334 25.166 71.001 44.499l45 42z" />
    <glyph glyph-name="d" unicode="d" horiz-adv-x="750" 
d="M553 624c71.333 -60 107 -151.667 107 -275c0 -126.667 -36 -220 -108 -280c-57.333 -46.667 -138.333 -70 -243 -70h-301v702h301c102 0 183.333 -25.667 244 -77zM309 159c36 0 66.168 3.16797 90.501 9.50098s44 17 59 32s25.667 34.667 32 59s9.5 54.166 9.5 89.499
c0 72.667 -17 123.667 -51 153c-30.667 25.333 -77.334 38 -140.001 38h-133c-5.33301 0 -8 -2.66699 -8 -8v-365c0 -5.33301 2.66699 -8 8 -8h133z" />
    <glyph glyph-name="e" unicode="e" horiz-adv-x="676" 
d="M168 538c-5.33301 0 -8 -2.66699 -8 -8v-133c0 -6 2.66699 -9 8 -9h325v-159h-325c-5.33301 0 -8 -3 -8 -9v-52c0 -5.33301 2.66699 -8 8 -8h402v-160h-570v700h570v-162h-402z" />
    <glyph glyph-name="f" unicode="f" horiz-adv-x="652" 
d="M169 535c-6.66699 0 -10 -3.66699 -10 -11v-160c0 -7.33301 3.33301 -11 10 -11h316v-159h-316c-6.66699 0 -10 -3.33301 -10 -10v-185h-159v697h567v-161h-398z" />
    <glyph glyph-name="g" unicode="g" horiz-adv-x="737" 
d="M258 358l364.004 -0.00195312v-266l-18 -13c-33.333 -26 -69.5 -45.667 -108.5 -59s-80.167 -20 -123.5 -20c-49.333 0 -96.166 8.83301 -140.499 26.5s-84.166 42.834 -119.499 75.501c-36 34 -63.667 73 -83 117s-29 90.667 -29 140c0 48.667 9.66699 95.167 29 139.5
s47 83.5 83 117.5c35.333 32.667 75.166 57.667 119.499 75s91.166 26 140.499 26c43.333 0 84.666 -6.66699 123.999 -20s75.666 -32.666 108.999 -57.999l23 -18l-56 -168l-45 41c-20.667 19.333 -44.167 34.166 -70.5 44.499s-54.5 15.5 -84.5 15.5
s-58.333 -5.33301 -85 -16s-50.334 -25.667 -71.001 -45c-19.333 -18 -34.166 -38.5 -44.499 -61.5s-15.5 -47.167 -15.5 -72.5s5.16699 -49.5 15.5 -72.5s25.166 -43.833 44.499 -62.5c20.667 -19.333 44.334 -34.166 71.001 -44.499s55 -15.5 85 -15.5
c15.333 0 30.166 1.16699 44.499 3.5s28.166 6.5 41.499 12.5c5.33301 2.66699 7.5 5.66699 6.5 9s-4.16699 5 -9.5 5h-133z" />
    <glyph glyph-name="h" unicode="h" horiz-adv-x="662" 
d="M551 700v-701h-160v180c0 6.66699 -3.33301 10 -10 10h-212c-6 0 -9 -3.33301 -9 -10v-180h-160v701h160v-341c0 -6.66699 3 -10 9 -10h212c6.66699 0 10 3.33301 10 10v341h160z" />
    <glyph glyph-name="i" unicode="i" horiz-adv-x="268" 
d="M0 700h160v-701h-160v701v0z" />
    <glyph glyph-name="j" unicode="j" horiz-adv-x="572" 
d="M475 700v-479c0 -30 -5.5 -58.333 -16.5 -85s-27.167 -50.667 -48.5 -72s-45.333 -37.5 -72 -48.5s-55 -16.5 -85 -16.5c-12.667 0 -27.5 1.33301 -44.5 4s-35.333 7 -55 13s-40 13.833 -61 23.5s-41.833 21.5 -62.5 35.5l-30 21l56 148l43 -26
c42 -25.333 75.333 -41.5 100 -48.5s42.667 -10.5 54 -10.5c16 0 30.667 6 44 18c12 12 18 26.667 18 44v479h160z" />
    <glyph glyph-name="k" unicode="k" horiz-adv-x="704" 
d="M292 350l304 -350.998h-211l-204 236c-3.33301 3.33301 -7 4.16602 -11 2.49902s-6 -4.83398 -6 -9.50098v-229h-164v701h164v-229c0 -4.66699 2 -7.66699 6 -9s7.66699 -0.333008 11 3l204 235h211z" />
    <glyph glyph-name="l" unicode="l" horiz-adv-x="638" 
d="M160 170c0 -7.33301 3.66699 -11 11 -11h359v-160h-530v701h160v-530v0z" />
    <glyph glyph-name="m" unicode="m" horiz-adv-x="748" 
d="M641 700l-0.00195312 -700.999h-160v292c0 2 -1.16699 3.33301 -3.5 4s-4.16602 0 -5.49902 -2l-89 -186h-125l-90 185c-1.33301 2.66699 -3 3.66699 -5 3s-3 -2.33398 -3 -5.00098v-291h-160v701h149l167 -346c1.33301 -1.33301 2.83301 -2 4.5 -2
s2.83398 0.666992 3.50098 2l167 346h150z" />
    <glyph glyph-name="n" unicode="n" horiz-adv-x="668" 
d="M556 700v-701h-142l-251 388c-0.666992 1.33301 -1.33398 1.83301 -2.00098 1.5s-1 -1.16602 -1 -2.49902v-387h-160v701h145l248 -367c0.666992 -1.33301 1.33398 -1.83301 2.00098 -1.5s1 1.16602 1 2.49902v366h160z" />
    <glyph glyph-name="o" unicode="o" horiz-adv-x="728" 
d="M578 596c19.333 -34.667 30.665 -71.835 33.998 -111.502s5 -81.5 5 -125.5v-68h-1c-1.33301 -30 -4.5 -59 -9.5 -87s-14.5 -54.667 -28.5 -80c-24.667 -43.333 -60 -74.666 -106 -93.999c-41.333 -19.333 -96 -29 -164 -29c-66.667 0 -121.334 9.66699 -164.001 29
c-45.333 20 -80.333 51.333 -105 94c-19.333 34.667 -30.666 72 -33.999 112s-5 81.667 -5 125v68h1c1.33301 30 4.33301 59 9 87s14.334 54.667 29.001 80c24.667 42.667 59.667 74 105 94c42.667 19.333 97.334 29 164.001 29c68 0 122.667 -9.66699 164 -29
c46 -19.333 81.333 -50.666 106 -93.999zM454.999 358.999c0 32 -0.666992 62.166 -2 90.499s-6.66602 50.5 -15.999 66.5c-1.33301 2.66699 -3.83301 6.16699 -7.5 10.5s-10.167 8.66602 -19.5 12.999s-22 8.16602 -38 11.499s-37.333 5 -64 5
c-26 0 -47.167 -1.66699 -63.5 -5s-29 -7.16602 -38 -11.499s-15.333 -8.66602 -19 -12.999s-6.16699 -7.83301 -7.5 -10.5c-9.33301 -16 -14.666 -37.667 -15.999 -65s-2 -56.666 -2 -87.999v-2c0 -32 0.666992 -62.167 2 -90.5s6.66602 -50.5 15.999 -66.5
c1.33301 -2 3.83301 -5.33301 7.5 -10s10 -9.16699 19 -13.5s21.667 -8.16602 38 -11.499s37.5 -5 63.5 -5c26.667 0 48 1.66699 64 5s28.667 7.16602 38 11.499s15.833 8.83301 19.5 13.5s6.16699 8 7.5 10c9.33301 16 14.666 37.667 15.999 65s2 57 2 89v1z" />
    <glyph glyph-name="p" unicode="p" horiz-adv-x="726" 
d="M337 698c42 0 81.5 -8 118.5 -24s69.333 -37.667 97 -65s49.5 -59.5 65.5 -96.5s24 -76.5 24 -118.5c0 -37.333 -7.33301 -74 -22 -110s-35 -68.333 -61 -97c-29.333 -32 -63 -56.333 -101 -73s-78.333 -25 -121 -25h-178v-90h-159v699h337zM336 249
c20 0 38.833 3.66699 56.5 11s33.167 17.5 46.5 30.5s23.833 28.333 31.5 46s11.5 36.5 11.5 56.5s-3.83301 38.833 -11.5 56.5s-18 33.167 -31 46.5s-28.333 23.833 -46 31.5s-36.5 11.5 -56.5 11.5h-167c-7.33301 0 -11 -3.66699 -11 -11v-269
c0 -6.66699 3.66699 -10 11 -10h166z" />
    <glyph glyph-name="q" unicode="q" horiz-adv-x="712" 
d="M616 2l-176.998 0.000976562l-9 14c-34.667 -10.667 -77 -16 -127 -16c-65.333 0 -119 9.33301 -161 28c-46.667 21.333 -81.334 52.666 -104.001 93.999c-9.33301 17.333 -16.666 35.5 -21.999 54.5s-9.16602 38.5 -11.499 58.5s-3.66602 40.333 -3.99902 61
s-0.5 42 -0.5 64v67h1c1.33301 30 4.33301 59.167 9 87.5s14 55.166 28 80.499c23.333 42.667 58 74 104 94c21.333 9.33301 45.166 16.5 71.499 21.5s56.166 7.5 89.499 7.5c63.333 0 117 -9.66699 161 -29c45.333 -20 79.666 -51.333 102.999 -94
c19.333 -34.667 30.666 -72 33.999 -112s5 -81.667 5 -125v-69h-1c-1.33301 -30 -4.5 -59 -9.5 -87s-14.5 -54.667 -28.5 -80c-3.33301 -7.33301 -9 -13.666 -17 -18.999zM252.002 289.001l177 -0.000976562l2 -3c1.33301 -2.66699 3.5 -3.66699 6.5 -3
s4.83301 2.66699 5.5 6c2 18 3 40.333 3 67v2c0 32 -0.666992 62.167 -2 90.5s-6.33301 50.166 -15 65.499c-1.33301 2.66699 -3.83301 6.16699 -7.5 10.5s-10 8.66602 -19 12.999s-21.333 8.16602 -37 11.499s-36.5 5 -62.5 5s-47 -1.66699 -63 -5
s-28.5 -7.16602 -37.5 -11.499s-15.167 -8.66602 -18.5 -12.999s-5.66602 -7.83301 -6.99902 -10.5c-9.33301 -15.333 -14.666 -36.833 -15.999 -64.5s-2 -57.167 -2 -88.5v-1c0 -32.667 0.666992 -63 2 -91s6.66602 -50 15.999 -66
c1.33301 -2.66699 3.66602 -6.16699 6.99902 -10.5s9.5 -8.66602 18.5 -12.999s21.5 -8.16602 37.5 -11.499s37 -5 63 -5h19c2.66699 0.666992 4.5 2.16699 5.5 4.5s0.833008 4.5 -0.5 6.5z" />
    <glyph glyph-name="r" unicode="r" horiz-adv-x="774" 
d="M367 701c42 0 81.5 -8 118.5 -24s69.5 -37.833 97.5 -65.5s50 -60.167 66 -97.5s24 -77 24 -119c0 -35.333 -6 -69.5 -18 -102.5s-29.333 -63.167 -52 -90.5c-34 -42 -76.667 -72.667 -128 -92l42 -111h-172l-32 85c-1.33301 4 -4 6 -8 6h-137c-5.33301 0 -8 -3 -8 -9
v-82h-160v702h367zM366 250c20 0 38.832 3.83301 56.499 11.5s33.167 18 46.5 31s23.833 28.333 31.5 46s11.5 36.5 11.5 56.5s-3.66699 38.833 -11 56.5s-17.666 33.167 -30.999 46.5s-28.833 23.833 -46.5 31.5s-36.5 11.5 -56.5 11.5h-199c-5.33301 0 -8 -3 -8 -9v-274
c0 -5.33301 2.66699 -8 8 -8h198z" />
    <glyph glyph-name="s" unicode="s" horiz-adv-x="649" 
d="M466 384c32 -21.333 56.498 -46.498 73.498 -75.498s25.5 -60.5 25.5 -94.5s-8.5 -65.5 -25.5 -94.5s-41.5 -54.167 -73.5 -75.5c-25.333 -17.333 -54.333 -30.5 -87 -39.5s-66.667 -13.5 -102 -13.5s-69.166 4.5 -101.499 13.5s-61.5 22.167 -87.5 39.5
c-17.333 11.333 -33 24.666 -47 39.999l-16 19l52 159l44 -42c6.66699 -6.66699 12.167 -11.5 16.5 -14.5l22.5 -15.5l7 -4c13.333 -9.33301 29.833 -16.666 49.5 -21.999s39.834 -8 60.501 -8c21.333 0 41.666 2.66699 60.999 8s36 12.666 50 21.999
c10.667 7.33301 16 16.833 16 28.5s-5.33301 21.167 -16 28.5c-14 9.33301 -30.667 16.5 -50 21.5s-39.666 7.5 -60.999 7.5c-35.333 0 -69.166 4.5 -101.499 13.5s-61.5 22.167 -87.5 39.5c-32 21.333 -56.333 46.5 -73 75.5s-25 60.5 -25 94.5s8.33301 65.5 25 94.5
s41 54.167 73 75.5c26 17.333 55.167 30.5 87.5 39.5s66.166 13.5 101.499 13.5s69.333 -4.5 102 -13.5s61.667 -22.167 87 -39.5c9.33301 -6 17.666 -12.167 24.999 -18.5s14.666 -13.166 21.999 -20.499l16 -18l-52 -164l-45 46c-5.33301 5.33301 -9.83301 9.5 -13.5 12.5
s-9.83398 7.16699 -18.501 12.5c-1.33301 1.33301 -3.16602 2.66602 -5.49902 3.99902s-4.83301 2.66602 -7.5 3.99902c-13.333 9.33301 -29.666 16.666 -48.999 21.999s-39.666 8 -60.999 8c-20.667 0 -40.834 -2.66699 -60.501 -8s-36.167 -12.666 -49.5 -21.999
c-10.667 -7.33301 -16 -16.833 -16 -28.5s5.33301 -21.167 16 -28.5c13.333 -9.33301 29.833 -16.5 49.5 -21.5s39.834 -7.5 60.501 -7.5c35.333 0 69.333 -4.5 102 -13.5s61.667 -22.167 87 -39.5z" />
    <glyph glyph-name="t" unicode="t" horiz-adv-x="719" 
d="M625 700v-160h-222c-4.66699 0 -7 -2.33301 -7 -7v-534h-160v534c0 4.66699 -2.33301 7 -7 7h-223v160h619z" />
    <glyph glyph-name="u" unicode="u" 
d="M607 700l-0.00390625 -350c0 -42 -1.66699 -82.667 -5 -122s-14.666 -76 -33.999 -110c-23.333 -41.333 -58 -72 -104 -92c-21.333 -9.33301 -45.166 -16.333 -71.499 -21s-56.166 -7 -89.499 -7c-32.667 0 -62.334 2.33301 -89.001 7s-50.667 11.667 -72 21
c-44.667 19.333 -79.334 50 -104.001 92c-9.33301 16.667 -16.666 34.334 -21.999 53.001s-9.16602 37.667 -11.499 57s-3.66602 39.166 -3.99902 59.499s-0.5 41.166 -0.5 62.499v350h160v-350c0 -32 0.666992 -61.667 2 -89s6.33301 -48.666 15 -63.999
c1.33301 -2 3.83301 -5.16699 7.5 -9.5s10 -8.66602 19 -12.999s21.333 -8.16602 37 -11.499s36.5 -5 62.5 -5s47 1.66699 63 5s28.5 7.16602 37.5 11.499s15.167 8.66602 18.5 12.999s5.66602 7.5 6.99902 9.5c8.66699 15.333 13.834 36.833 15.501 64.5
s2.5 57.167 2.5 88.5v350h160z" />
    <glyph glyph-name="v" unicode="v" horiz-adv-x="758" 
d="M648 700l-254 -701h-140l-254 701h171l145 -403c1.33301 -3.33301 4 -5 8 -5s6.66699 1.66699 8 5l145 403h171z" />
    <glyph glyph-name="w" unicode="w" horiz-adv-x="924" 
d="M838 700l-252.999 -701h-145l-16 69c-0.666992 1.33301 -1.83398 2 -3.50098 2s-2.83398 -0.666992 -3.50098 -2l-21 -69h-142l-254 701h171l147 -408c0.666992 -1.33301 1.83398 -2 3.50098 -2s2.83398 0.666992 3.50098 2l90 285c0.666992 2 2 3 4 3s3.33301 -1 4 -3
l90 -285c1.33301 -1.33301 2.66602 -2 3.99902 -2s2.33301 0.666992 3 2l148 408h170z" />
    <glyph glyph-name="x" unicode="x" horiz-adv-x="755" 
d="M432 350c-0.666992 -0.666992 -0.666992 -2 0 -4l231 -347h-192l-134 201c-2.66699 2.66699 -4.66699 2.66699 -6 0l-134 -201h-193l232 347c0.666992 1.33301 0.666992 3 0 5l-234 349h193l136 -203c1.33301 -2.66699 3.33301 -2.66699 6 0l136 203h193z" />
    <glyph glyph-name="y" unicode="y" horiz-adv-x="888" 
d="M597 698h194l-316 -471v-228h-159v228l-316 471h193l202 -321l202 321v0z" />
    <glyph glyph-name="z" unicode="z" horiz-adv-x="667" 
d="M279 171c-2 -2.66699 -2.33301 -5.33301 -1 -8s3.66602 -4 6.99902 -4h312v-159h-626l354 528c1.33301 2.66699 1.33301 5.16699 0 7.5s-3.66602 3.5 -6.99902 3.5h-312v160h626z" />
    <glyph glyph-name="afii10023" unicode="&#x401;" horiz-adv-x="676" 
d="M53 948h172v-160h-172v160zM345 948h172v-160h-172v160zM168 538c-5.33301 0 -8 -2.66699 -8 -8v-133c0 -6 2.66699 -9 8 -9h325v-159h-325c-5.33301 0 -8 -3 -8 -9v-52c0 -5.33301 2.66699 -8 8 -8h402v-160h-570v700h570v-162h-402z" />
    <glyph glyph-name="afii10053" unicode="&#x404;" horiz-adv-x="728" 
d="M579 258l56.002 -166.002l-23 -18c-34 -25.333 -70.833 -44.5 -110.5 -57.5s-81.5 -19.5 -125.5 -19.5c-50 0 -97.333 8.5 -142 25.5s-85 41.833 -121 74.5c-36.667 34 -64.667 72.667 -84 116s-29 89 -29 137s9.66699 93.667 29 137s47.333 82 84 116
c36 32.667 76.333 57.5 121 74.5s92 25.5 142 25.5c44 0 86 -6.66699 126 -20s77 -32.666 111 -57.999l23 -18l-56 -166l-46 42c-21.333 19.333 -45.5 34 -72.5 44s-55.5 15 -85.5 15s-58.5 -5.16699 -85.5 -15.5s-51.167 -25.166 -72.5 -44.499
c-5.33301 -5.33301 -10.5 -10.833 -15.5 -16.5s-9.83301 -11.5 -14.5 -17.5c-2.66699 -4 -2.83398 -8.16699 -0.500977 -12.5s5.83301 -6.5 10.5 -6.5h260v-161h-258c-5.33301 0 -9 -2.16699 -11 -6.5s-1.66699 -8.5 1 -12.5c7.33301 -10 16.666 -20.667 27.999 -32
c21.333 -19.333 45.5 -34 72.5 -44s55.5 -15 85.5 -15s58.333 5 85 15s50.667 24.667 72 44z" />
    <glyph glyph-name="afii10054" unicode="&#x405;" horiz-adv-x="268" 
d="M0 700h160v-701h-160v701v0z" />
    <glyph glyph-name="afii10103" unicode="&#x406;" horiz-adv-x="268" 
d="M0 700h160v-701h-160v701v0z" />
    <glyph glyph-name="afii10056" unicode="&#x407;" horiz-adv-x="394" 
d="M106 662h120v-662h-120v662zM7 700v160h145v-160h-145zM179 700v160h145v-160h-145z" />
    <glyph glyph-name="glyph157" unicode="&#x408;" horiz-adv-x="572" 
d="M475 700v-479c0 -30 -5.5 -58.333 -16.5 -85s-27.167 -50.667 -48.5 -72s-45.333 -37.5 -72 -48.5s-55 -16.5 -85 -16.5c-12.667 0 -27.5 1.33301 -44.5 4s-35.333 7 -55 13s-40 13.833 -61 23.5s-41.833 21.5 -62.5 35.5l-30 21l56 148l43 -26
c42 -25.333 75.333 -41.5 100 -48.5s42.667 -10.5 54 -10.5c16 0 30.667 6 44 18c12 12 18 26.667 18 44v479h160z" />
    <glyph glyph-name="afii10017" unicode="&#x410;" horiz-adv-x="788" 
d="M714 -1h-170l-26 71c-1.33301 4.66699 -4.33301 7 -9 7h-302c-4 0 -7 -2.33301 -9 -7l-25 -71h-170l252 701h207zM263 250c-1.33301 -3.33301 -1 -6.33301 1 -9s4.66699 -4 8 -4h173c8.66699 0 11.667 4.33301 9 13l-86 240c-2 4.66699 -5.33301 7 -10 7
s-7.66699 -2.33301 -9 -7z" />
    <glyph glyph-name="afii10018" unicode="&#x411;" horiz-adv-x="671" 
d="M365 431c29.333 0 57.167 -5.66895 83.5 -17.002s49.333 -26.666 69 -45.999s35.167 -42 46.5 -68s17 -54 17 -84c0 -29.333 -5.5 -57.166 -16.5 -83.499s-26.333 -49.333 -46 -69s-42.5 -35.167 -68.5 -46.5s-53.667 -17 -83 -17h-367v699h526v-163h-357
c-6 0 -9 -3.33301 -9 -10v-86c0 -6 3 -9 9 -9h196zM169.001 270.998c-6 0 -9 -3.33203 -9 -9.99902v-91c0 -6 3 -9 9 -9h198c15.333 0 28.333 5.5 39 16.5s15.667 24.167 15 39.5c0 15.333 -5.33301 28.166 -16 38.499s-23.667 15.5 -39 15.5h-197z" />
    <glyph glyph-name="afii10019" unicode="&#x412;" 
d="M534 353c17.333 -19.333 30.5 -41.001 39.5 -65.001s13.5 -49 13.5 -75c0 -29.333 -5.5 -56.833 -16.5 -82.5s-26.167 -48.167 -45.5 -67.5s-41.833 -34.5 -67.5 -45.5s-53.167 -16.5 -82.5 -16.5h-375v698h375c30 0 58 -5.5 84 -16.5s48.667 -26.833 68 -47.5
c17.333 -19.333 30.833 -41.666 40.5 -66.999s14.5 -52.333 14.5 -81c0 -51.333 -16 -96 -48 -134zM159 438.999c0 -6 3.33398 -8.99902 10.001 -8.99902h200c14 0 26.333 5.5 37 16.5s16 24.167 16 39.5c0.666992 15.333 -4.33301 28.166 -15 38.499
s-23.334 15.5 -38.001 15.5h-200c-6.66699 0 -10 -3 -10 -9v-92zM159.001 169c0 -6 3.33203 -8.99902 9.99902 -8.99902h205c14.667 0 27.334 5.16699 38.001 15.5s16 23.166 16 38.499c-0.666992 15.333 -6.16699 28.5 -16.5 39.5s-22.5 16.5 -36.5 16.5h-206
c-6.66699 0 -10 -3 -10 -9v-92z" />
    <glyph glyph-name="afii10020" unicode="&#x413;" horiz-adv-x="638" 
d="M528 697v-159h-369v-538h-159v697h528v0z" />
    <glyph glyph-name="afii10021" unicode="&#x414;" horiz-adv-x="757" 
d="M674 159c6.66699 0 10 -3 10 -9v-205h-160v49c0 4 -1.66699 6 -5 6h-373c-4 0 -6 -2 -6 -6v-49h-159v205c0 6 3.33301 9 10 9h75l193 538h208l167 -538h40zM240 172c-1.33301 -3.33301 -1 -6.33301 1 -9s4.66699 -4 8 -4h205c8 0 11.333 4.33301 10 13l-95 310
c-1.33301 4.66699 -4.33301 7 -9 7s-7.66699 -2.33301 -9 -7z" />
    <glyph glyph-name="afii10022" unicode="&#x415;" horiz-adv-x="676" 
d="M168 538c-5.33301 0 -8 -2.66699 -8 -8v-133c0 -6 2.66699 -9 8 -9h325v-159h-325c-5.33301 0 -8 -3 -8 -9v-52c0 -5.33301 2.66699 -8 8 -8h402v-160h-570v700h570v-162h-402z" />
    <glyph glyph-name="afii10024" unicode="&#x416;" horiz-adv-x="821" 
d="M588 354c-1.33301 -3.33301 -1.33301 -6.33301 0 -9l191 -345h-197l-104 205c-2 4 -5.33301 5.5 -10 4.5s-7 -3.83301 -7 -8.5v-201h-161v201c0 4.66699 -2.16699 7.5 -6.5 8.5s-7.5 -0.5 -9.5 -4.5l-104 -205h-197l190 345c2 2.66699 2 5.66699 0 9l-184 345h197
l98 -201c2 -4.66699 5.16699 -6.5 9.5 -5.5s6.5 4.16699 6.5 9.5v197h161v-198c0 -4.66699 2.33301 -7.5 7 -8.5s8 0.833008 10 5.5l98 201h196l-184 -345v0z" />
    <glyph glyph-name="afii10025" unicode="&#x417;" horiz-adv-x="633" 
d="M479 354c17.333 -19.333 30.5 -40.9971 39.5 -64.9971s13.5 -49 13.5 -75c0 -29.333 -5.5 -57 -16.5 -83s-26.167 -48.667 -45.5 -68s-42 -34.5 -68 -45.5s-53.667 -16.5 -83 -16.5h-319v160h319c15.333 0 28 5.16699 38 15.5s15 22.833 15 37.5
c0 15.333 -5.16699 28.666 -15.5 39.999s-22.833 17 -37.5 17h-263v160h258c14 0 26.333 5.66699 37 17s16 24.666 16 39.999s-5.16699 28 -15.5 38s-22.833 15 -37.5 15h-314v158h319c29.333 0 56.666 -5.66699 81.999 -17s47.333 -26.5 66 -45.5
s33.334 -41.333 44.001 -67s16 -52.834 16 -81.501c0 -50 -16 -94.667 -48 -134z" />
    <glyph glyph-name="afii10026" unicode="&#x418;" horiz-adv-x="668" 
d="M160 700v-366c0 -1.33301 0.333008 -2.16602 1 -2.49902s1.33398 0.166992 2.00098 1.5l248 367h145v-701h-160v387c0 1.33301 -0.333008 2.16602 -1 2.49902s-1.33398 -0.166992 -2.00098 -1.5l-251 -388h-142v701h160z" />
    <glyph glyph-name="afii10027" unicode="&#x419;" horiz-adv-x="668" 
d="M115 898l161 -103l162 103l43 -68l-205 -130l-204 130zM160 700v-366c0 -1.33301 0.333008 -2.16602 1 -2.49902s1.33398 0.166992 2.00098 1.5l248 367h145v-701h-160v387c0 1.33301 -0.333008 2.16602 -1 2.49902s-1.33398 -0.166992 -2.00098 -1.5l-251 -388h-142v701
h160z" />
    <glyph glyph-name="afii10028" unicode="&#x41a;" horiz-adv-x="704" 
d="M292 350l304 -350.998h-211l-204 236c-3.33301 3.33301 -7 4.16602 -11 2.49902s-6 -4.83398 -6 -9.50098v-229h-164v701h164v-229c0 -4.66699 2 -7.66699 6 -9s7.66699 -0.333008 11 3l204 235h211z" />
    <glyph glyph-name="afii10029" unicode="&#x41b;" horiz-adv-x="794" 
d="M703 0h-170l-172 478c-1.33301 4.66699 -4.5 7 -9.5 7s-8.16699 -2.33301 -9.5 -7l-172 -478h-170l252 701h199z" />
    <glyph glyph-name="afii10030" unicode="&#x41c;" horiz-adv-x="776" 
d="M648 700l-0.00195312 -700.999h-160v292c0 2 -1.16699 3.33301 -3.5 4s-4.16602 0 -5.49902 -2l-89 -186h-125l-90 185c-1.33301 2.66699 -3 3.66699 -5 3s-3 -2.33398 -3 -5.00098v-291h-160v701h149l167 -346c1.33301 -1.33301 2.83301 -2 4.5 -2
s2.83398 0.666992 3.50098 2l167 346h150z" />
    <glyph glyph-name="afii10031" unicode="&#x41d;" horiz-adv-x="667" 
d="M551 700v-701h-160v180c0 6.66699 -3.33301 10 -10 10h-212c-6 0 -9 -3.33301 -9 -10v-180h-160v701h160v-341c0 -6.66699 3 -10 9 -10h212c6.66699 0 10 3.33301 10 10v341h160z" />
    <glyph glyph-name="afii10032" unicode="&#x41e;" horiz-adv-x="712" 
d="M578 596c19.333 -34.667 30.665 -71.835 33.998 -111.502s5 -81.5 5 -125.5v-68h-1c-1.33301 -30 -4.5 -59 -9.5 -87s-14.5 -54.667 -28.5 -80c-24.667 -43.333 -60 -74.666 -106 -93.999c-41.333 -19.333 -96 -29 -164 -29c-66.667 0 -121.334 9.66699 -164.001 29
c-45.333 20 -80.333 51.333 -105 94c-19.333 34.667 -30.666 72 -33.999 112s-5 81.667 -5 125v68h1c1.33301 30 4.33301 59 9 87s14.334 54.667 29.001 80c24.667 42.667 59.667 74 105 94c42.667 19.333 97.334 29 164.001 29c68 0 122.667 -9.66699 164 -29
c46 -19.333 81.333 -50.666 106 -93.999zM454.999 358.999c0 32 -0.666992 62.166 -2 90.499s-6.66602 50.5 -15.999 66.5c-1.33301 2.66699 -3.83301 6.16699 -7.5 10.5s-10.167 8.66602 -19.5 12.999s-22 8.16602 -38 11.499s-37.333 5 -64 5
c-26 0 -47.167 -1.66699 -63.5 -5s-29 -7.16602 -38 -11.499s-15.333 -8.66602 -19 -12.999s-6.16699 -7.83301 -7.5 -10.5c-9.33301 -16 -14.666 -37.667 -15.999 -65s-2 -56.666 -2 -87.999v-2c0 -32 0.666992 -62.167 2 -90.5s6.66602 -50.5 15.999 -66.5
c1.33301 -2 3.83301 -5.33301 7.5 -10s10 -9.16699 19 -13.5s21.667 -8.16602 38 -11.499s37.5 -5 63.5 -5c26.667 0 48 1.66699 64 5s28.667 7.16602 38 11.499s15.833 8.83301 19.5 13.5s6.16699 8 7.5 10c9.33301 16 14.666 37.667 15.999 65s2 57 2 89v1z" />
    <glyph glyph-name="afii10033" unicode="&#x41f;" horiz-adv-x="705" 
d="M0 700h586v-699h-161v539h-265v-539h-160v699v0z" />
    <glyph glyph-name="afii10034" unicode="&#x420;" horiz-adv-x="726" 
d="M337 698c42 0 81.5 -8 118.5 -24s69.333 -37.667 97 -65s49.5 -59.5 65.5 -96.5s24 -76.5 24 -118.5c0 -37.333 -7.33301 -74 -22 -110s-35 -68.333 -61 -97c-29.333 -32 -63 -56.333 -101 -73s-78.333 -25 -121 -25h-178v-90h-159v699h337zM336 249
c20 0 38.833 3.66699 56.5 11s33.167 17.5 46.5 30.5s23.833 28.333 31.5 46s11.5 36.5 11.5 56.5s-3.83301 38.833 -11.5 56.5s-18 33.167 -31 46.5s-28.333 23.833 -46 31.5s-36.5 11.5 -56.5 11.5h-167c-7.33301 0 -11 -3.66699 -11 -11v-269
c0 -6.66699 3.66699 -10 11 -10h166z" />
    <glyph glyph-name="afii10035" unicode="&#x421;" horiz-adv-x="710" 
d="M612 99l-23 -18.001c-68 -52.667 -146 -79 -234 -79c-48.667 0 -95.167 8.66699 -139.5 26s-83.833 42.333 -118.5 75c-36 34 -63.667 73 -83 117s-29 90.333 -29 139s9.66699 94.834 29 138.501s47 82.5 83 116.5c34.667 33.333 74.167 58.666 118.5 75.999
s90.833 26 139.5 26c87.333 0 165 -26.333 233 -79l23 -17l-56 -168l-45 42c-20.667 19.333 -44.167 34 -70.5 44s-54.5 15 -84.5 15s-58.167 -5.16699 -84.5 -15.5s-49.833 -25.166 -70.5 -44.499c-40 -38 -60 -82.667 -60 -134c0 -25.333 5.16699 -49.5 15.5 -72.5
s25.166 -43.5 44.499 -61.5c20.667 -19.333 44.167 -34.166 70.5 -44.499s54.5 -15.5 84.5 -15.5s58.333 5.16699 85 15.5s50.334 25.166 71.001 44.499l45 42z" />
    <glyph glyph-name="afii10036" unicode="&#x422;" horiz-adv-x="700" 
d="M628 700v-160h-222c-4.66699 0 -7 -2.33301 -7 -7v-534h-160v534c0 4.66699 -2.33301 7 -7 7h-223v160h619z" />
    <glyph glyph-name="afii10037" unicode="&#x423;" horiz-adv-x="684" 
d="M589 696l-19 -52.999c0 -0.666992 -3 -9.16699 -9 -25.5l-22.5 -63.5l-30.5 -87.5l-34.5 -96l-33 -90l-25.5 -69.5c-18 -46 -38.833 -83 -62.5 -111s-49.167 -49.333 -76.5 -64s-56 -24.334 -86 -29.001s-60.333 -7 -91 -7h-40v160h40c34.667 0 63.667 5.33301 87 16
l-186 520h169l125 -350l126 350h169z" />
    <glyph glyph-name="afii10038" unicode="&#x424;" horiz-adv-x="782" 
d="M575 629c43.333 -24.667 74.668 -60 94.001 -106c19.333 -44.667 29 -99.667 29 -165s-9.66699 -120.333 -29 -165c-20 -46.667 -51.333 -82 -94 -106c-22.667 -12.667 -46.667 -21.834 -72 -27.501s-53 -9.16699 -83 -10.5v-49h-163v49
c-30 1.33301 -57.5 4.83301 -82.5 10.5s-48.833 14.834 -71.5 27.501c-42.667 24 -74 59.333 -94 106c-19.333 42.667 -29 97.667 -29 165s9.66699 122.333 29 165c19.333 46 50.666 81.333 93.999 106c22.667 13.333 46.5 22.666 71.5 27.999s52.5 8.66602 82.5 9.99902v48
h163v-48c30 -1.33301 57.667 -4.66602 83 -9.99902s49.333 -14.666 72 -27.999zM183.002 487c-2.66699 -1.33301 -6.16699 -3.83398 -10.5 -7.50098s-8.66602 -10 -12.999 -19s-8.16602 -21.667 -11.499 -38s-5 -37.833 -5 -64.5s1.66699 -48 5 -64
s7.16602 -28.667 11.499 -38s8.66602 -15.833 12.999 -19.5s7.83301 -6.16699 10.5 -7.5c8 -4.66699 17.5 -8 28.5 -10s22.833 -3.66699 35.5 -5c6.66699 -1.33301 10 1.66699 10 9v270c0 6.66699 -3.33301 10 -10 10c-12.667 -1.33301 -24.5 -3.16602 -35.5 -5.49902
s-20.5 -5.83301 -28.5 -10.5zM494.002 228.999c2.66699 1.33301 6.16699 3.83398 10.5 7.50098s8.66602 10.167 12.999 19.5s8.16602 22 11.499 38s5 37.333 5 64s-1.66699 48.167 -5 64.5s-7.16602 29 -11.499 38s-8.66602 15.333 -12.999 19s-7.83301 6.16699 -10.5 7.5
c-7.33301 4.66699 -16.5 8.16699 -27.5 10.5s-22.833 4.16602 -35.5 5.49902c-7.33301 0 -11 -3.33301 -11 -10v-270c0 -7.33301 3.66699 -10.333 11 -9c12.667 1.33301 24.5 3 35.5 5s20.167 5.33301 27.5 10z" />
    <glyph glyph-name="afii10039" unicode="&#x425;" horiz-adv-x="704" 
d="M418 350c-0.666992 -0.666992 -0.666992 -2 0 -4l231 -347h-192l-134 201c-2.66699 2.66699 -4.66699 2.66699 -6 0l-134 -201h-193l232 347c0.666992 1.33301 0.666992 3 0 5l-234 349h193l136 -203c1.33301 -2.66699 3.33301 -2.66699 6 0l136 203h193z" />
    <glyph glyph-name="afii10040" unicode="&#x426;" horiz-adv-x="589" 
d="M491 179h28v-206h-153v51h-366v671h153v-518h185v518h153v-516v0z" />
    <glyph glyph-name="afii10041" unicode="&#x427;" horiz-adv-x="631" 
d="M523 699v-699h-160v177c-9.33301 -1.33301 -18.833 -2.5 -28.5 -3.5s-19.5 -1.5 -29.5 -1.5c-37.333 0 -74 7.16699 -110 21.5s-68.333 34.833 -97 61.5c-32 29.333 -56.333 63 -73 101s-25 78.333 -25 121v222h160v-222c0 -20 3.83301 -38.833 11.5 -56.5s18 -33 31 -46
s28.333 -23.333 46 -31s36.5 -11.5 56.5 -11.5c20.667 0 40 4 58 12v355h160z" />
    <glyph glyph-name="afii10042" unicode="&#x428;" horiz-adv-x="744" 
d="M626 699v-699h-626v699h160v-529c0 -6.66699 3.33301 -10 10 -10h53c6.66699 0 10 3.33301 10 10v529h160v-529c0 -6.66699 3 -10 9 -10h54c6 0 9 3.33301 9 10v529h161z" />
    <glyph glyph-name="afii10043" unicode="&#x429;" horiz-adv-x="744" 
d="M649 167v-214h-159v53h-490v692h159v-523c0 -6.66699 3.33301 -10 10 -10h51c6.66699 0 10 3.33301 10 10v523h159v-523c0 -6.66699 3.33301 -10 10 -10h52c6.66699 0 10 3.33301 10 10v523h158v-531h30z" />
    <glyph glyph-name="afii10044" unicode="&#x42a;" horiz-adv-x="688" 
d="M383 427c29.333 0 57.166 -5.6709 83.499 -17.0039s49.333 -26.666 69 -45.999s35.167 -41.833 46.5 -67.5s17 -53.167 17 -82.5s-5.66699 -57.166 -17 -83.499s-26.666 -49.166 -45.999 -68.499s-42 -34.666 -68 -45.999s-53.667 -17 -83 -17h-318v529
c0 7.33301 -3.66699 11 -11 11h-73v159h243v-260c0 -7.33301 3.33301 -11 10 -11h147zM236 267.996c-6.66699 0 -9.99902 -3.66699 -9.99902 -11v-87c0 -7.33301 3.33301 -11 10 -11h149c15.333 0 28.333 5.5 39 16.5s16 24.167 16 39.5
c-0.666992 15.333 -6.33398 28 -17.001 38s-23.667 15 -39 15h-148z" />
    <glyph glyph-name="afii10045" unicode="&#x42b;" horiz-adv-x="815" 
d="M318 427c29.333 0 57.166 -5.66797 83.499 -17.001s49.333 -26.833 69 -46.5s35.167 -42.5 46.5 -68.5s17 -53.667 17 -83s-5.66699 -57 -17 -83s-26.666 -48.667 -45.999 -68s-42 -34.666 -68 -45.999s-53.667 -17 -83 -17h-320v703h160v-265c0 -6 3 -9 9 -9h149z
M169 266.999c-6 0 -9 -3.33203 -9 -9.99902v-90c0 -6 3 -9 9 -9h151c15.333 0 28.333 5.33301 39 16s15.667 23.667 15 39c0 15.333 -5.33301 28.166 -16 38.499s-23.667 15.5 -39 15.5h-150zM708 699v-701h-160v701h160z" />
    <glyph glyph-name="afii10046" unicode="&#x42c;" horiz-adv-x="626" 
d="M323 427c29.333 0 56.998 -5.6709 82.998 -17.0039s48.833 -26.666 68.5 -45.999s35.334 -42 47.001 -68s17.5 -53.667 17.5 -83s-5.66699 -57.166 -17 -83.499s-26.666 -49.166 -45.999 -68.499s-42 -34.666 -68 -45.999s-54 -17 -84 -17h-319v704h159v-265
c0 -6.66699 3.33301 -10 10 -10h149zM173.998 266.996c-6.66699 0 -10 -3 -10 -9v-90c0 -6.66699 3.33301 -10 10 -10h150c15.333 0 28.5 5.5 39.5 16.5s16.167 24.167 15.5 39.5c0 15.333 -5.33301 28 -16 38s-23.667 15 -39 15h-150z" />
    <glyph glyph-name="afii10047" unicode="&#x42d;" horiz-adv-x="714" 
d="M103 220c43.333 -39.333 95.668 -58.998 157.001 -58.998c30 0 58.5 5.16699 85.5 15.5s51.167 25.166 72.5 44.499c10.667 9.33301 20 19.666 28 30.999c2.66699 4 3 8.16699 1 12.5s-5.66699 6.5 -11 6.5h-258v162h260c4.66699 0 8.16699 2 10.5 6
s2.16602 8 -0.500977 12c-4.66699 6.66699 -9.5 12.834 -14.5 18.501s-10.167 11.167 -15.5 16.5c-21.333 19.333 -45.5 34 -72.5 44s-55.5 15 -85.5 15s-58.5 -5 -85.5 -15s-51.167 -24.667 -72.5 -44l-46 -42l-56 166l23 18c34 25.333 71 44.666 111 57.999s82 20 126 20
c50 0 97.333 -8.5 142 -25.5s85 -41.833 121 -74.5c36.667 -34 64.667 -72.667 84 -116s29 -89 29 -137s-9.66699 -93.667 -29 -137s-47.333 -82 -84 -116c-36 -32 -76.333 -56.667 -121 -74s-92 -26 -142 -26c-88 0 -166.667 26 -236 78l-23 17l56 166z" />
    <glyph glyph-name="afii10048" unicode="&#x42e;" horiz-adv-x="888" 
d="M765 576c18.667 -33.333 29.667 -69.5 33 -108.5s5 -79.5 5 -121.5v-66l-1 1c-1.33301 -30 -4.5 -58.5 -9.5 -85.5s-14.167 -52.833 -27.5 -77.5c-24.667 -42 -59.334 -72.667 -104.001 -92c-41.333 -18.667 -94.666 -28 -159.999 -28c-64.667 0 -118 9.33301 -160 28
c-45.333 20 -79.666 50.667 -102.999 92c-12 20.667 -20.667 42.5 -26 65.5s-8.66602 48.167 -9.99902 75.5c-1.33301 6 -4.33301 9 -9 9h-26c-5.33301 0 -8 -3 -8 -9v-261h-159v697h159v-260c0 -6 2.66699 -9 8 -9h26c4.66699 0 7.66699 2.66699 9 8
c1.33301 28 4.66602 53.5 9.99902 76.5s14 44.833 26 65.5c23.333 41.333 57.666 72 102.999 92c42 18.667 95.333 28 160 28c65.333 0 118.666 -9.33301 159.999 -28c44.667 -19.333 79.334 -50 104.001 -92zM644 346c0 32 -0.667969 61.5 -2.00098 88.5
s-6.33301 48.167 -15 63.5c-1.33301 2.66699 -3.83301 6.16699 -7.5 10.5s-10 8.66602 -19 12.999s-21.333 8 -37 11s-36.5 4.5 -62.5 4.5s-46.833 -1.5 -62.5 -4.5s-28 -6.66699 -37 -11s-15.167 -8.66602 -18.5 -12.999s-5.66602 -7.83301 -6.99902 -10.5
c-9.33301 -15.333 -14.666 -36.333 -15.999 -63s-2 -55.334 -2 -86.001v-1c0 -15.333 0.166992 -30.5 0.5 -45.5s1 -29 2 -42s2.66699 -25 5 -36s5.83301 -20.5 10.5 -28.5c1.33301 -2.66699 3.66602 -6.16699 6.99902 -10.5s9.5 -8.66602 18.5 -12.999s21.333 -8 37 -11
s36.5 -4.5 62.5 -4.5s46.833 1.5 62.5 4.5s28 6.66699 37 11s15.333 8.66602 19 12.999s6.16699 7.83301 7.5 10.5c8.66699 15.333 13.667 36.333 15 63s2 55.334 2 86.001v1z" />
    <glyph glyph-name="afii10049" unicode="&#x42f;" horiz-adv-x="774" 
d="M306 701h367.001v-702h-160v82c0 6 -2.66699 9 -8 9h-137c-4.66699 0 -7.33398 -2 -8.00098 -6l-32 -85h-172l42 111c-51.333 19.333 -94 50 -128 92c-22.667 27.333 -40 57.5 -52 90.5s-18 67.167 -18 102.5c0 42 8 81.667 24 119s38 69.833 66 97.5
s60.5 49.5 97.5 65.5s76.5 24 118.5 24zM307.001 250h197.999c5.33301 0 8 2.66699 8 8v274c0 6 -2.66699 9 -8 9h-199c-20 0 -38.833 -3.83301 -56.5 -11.5s-33.167 -18.167 -46.5 -31.5s-23.666 -28.833 -30.999 -46.5s-11 -36.5 -11 -56.5s3.83301 -38.833 11.5 -56.5
s18.167 -33 31.5 -46s28.833 -23.333 46.5 -31s36.5 -11.5 56.5 -11.5z" />
    <glyph glyph-name="afii10065" unicode="&#x430;" horiz-adv-x="787" 
d="M714 -1h-170l-26 71c-1.33301 4.66699 -4.33301 7 -9 7h-302c-4 0 -7 -2.33301 -9 -7l-25 -71h-170l252 701h207zM263 250c-1.33301 -3.33301 -1 -6.33301 1 -9s4.66699 -4 8 -4h173c8.66699 0 11.667 4.33301 9 13l-86 240c-2 4.66699 -5.33301 7 -10 7
s-7.66699 -2.33301 -9 -7z" />
    <glyph glyph-name="afii10066" unicode="&#x431;" horiz-adv-x="671" 
d="M365 431c29.333 0 57.167 -5.66895 83.5 -17.002s49.333 -26.666 69 -45.999s35.167 -42 46.5 -68s17 -54 17 -84c0 -29.333 -5.5 -57.166 -16.5 -83.499s-26.333 -49.333 -46 -69s-42.5 -35.167 -68.5 -46.5s-53.667 -17 -83 -17h-367v699h526v-163h-357
c-6 0 -9 -3.33301 -9 -10v-86c0 -6 3 -9 9 -9h196zM169.001 270.998c-6 0 -9 -3.33203 -9 -9.99902v-91c0 -6 3 -9 9 -9h198c15.333 0 28.333 5.5 39 16.5s15.667 24.167 15 39.5c0 15.333 -5.33301 28.166 -16 38.499s-23.667 15.5 -39 15.5h-197z" />
    <glyph glyph-name="afii10067" unicode="&#x432;" 
d="M534 353c17.333 -19.333 30.5 -41.001 39.5 -65.001s13.5 -49 13.5 -75c0 -29.333 -5.5 -56.833 -16.5 -82.5s-26.167 -48.167 -45.5 -67.5s-41.833 -34.5 -67.5 -45.5s-53.167 -16.5 -82.5 -16.5h-375v698h375c30 0 58 -5.5 84 -16.5s48.667 -26.833 68 -47.5
c17.333 -19.333 30.833 -41.666 40.5 -66.999s14.5 -52.333 14.5 -81c0 -51.333 -16 -96 -48 -134zM159 438.999c0 -6 3.33398 -8.99902 10.001 -8.99902h200c14 0 26.333 5.5 37 16.5s16 24.167 16 39.5c0.666992 15.333 -4.33301 28.166 -15 38.499
s-23.334 15.5 -38.001 15.5h-200c-6.66699 0 -10 -3 -10 -9v-92zM159.001 169c0 -6 3.33203 -8.99902 9.99902 -8.99902h205c14.667 0 27.334 5.16699 38.001 15.5s16 23.166 16 38.499c-0.666992 15.333 -6.16699 28.5 -16.5 39.5s-22.5 16.5 -36.5 16.5h-206
c-6.66699 0 -10 -3 -10 -9v-92z" />
    <glyph glyph-name="afii10068" unicode="&#x433;" horiz-adv-x="638" 
d="M528 697v-159h-369v-538h-159v697h528v0z" />
    <glyph glyph-name="afii10069" unicode="&#x434;" horiz-adv-x="757" 
d="M674 159c6.66699 0 10 -3 10 -9v-205h-160v49c0 4 -1.66699 6 -5 6h-373c-4 0 -6 -2 -6 -6v-49h-159v205c0 6 3.33301 9 10 9h75l193 538h208l167 -538h40zM240 172c-1.33301 -3.33301 -1 -6.33301 1 -9s4.66699 -4 8 -4h205c8 0 11.333 4.33301 10 13l-95 310
c-1.33301 4.66699 -4.33301 7 -9 7s-7.66699 -2.33301 -9 -7z" />
    <glyph glyph-name="afii10070" unicode="&#x435;" horiz-adv-x="676" 
d="M168 538c-5.33301 0 -8 -2.66699 -8 -8v-133c0 -6 2.66699 -9 8 -9h325v-159h-325c-5.33301 0 -8 -3 -8 -9v-52c0 -5.33301 2.66699 -8 8 -8h402v-160h-570v700h570v-162h-402z" />
    <glyph glyph-name="afii10072" unicode="&#x436;" horiz-adv-x="821" 
d="M588 354c-1.33301 -3.33301 -1.33301 -6.33301 0 -9l191 -345h-197l-104 205c-2 4 -5.33301 5.5 -10 4.5s-7 -3.83301 -7 -8.5v-201h-161v201c0 4.66699 -2.16699 7.5 -6.5 8.5s-7.5 -0.5 -9.5 -4.5l-104 -205h-197l190 345c2 2.66699 2 5.66699 0 9l-184 345h197
l98 -201c2 -4.66699 5.16699 -6.5 9.5 -5.5s6.5 4.16699 6.5 9.5v197h161v-198c0 -4.66699 2.33301 -7.5 7 -8.5s8 0.833008 10 5.5l98 201h196l-184 -345v0z" />
    <glyph glyph-name="afii10073" unicode="&#x437;" horiz-adv-x="633" 
d="M479 354c17.333 -19.333 30.5 -40.9971 39.5 -64.9971s13.5 -49 13.5 -75c0 -29.333 -5.5 -57 -16.5 -83s-26.167 -48.667 -45.5 -68s-42 -34.5 -68 -45.5s-53.667 -16.5 -83 -16.5h-319v160h319c15.333 0 28 5.16699 38 15.5s15 22.833 15 37.5
c0 15.333 -5.16699 28.666 -15.5 39.999s-22.833 17 -37.5 17h-263v160h258c14 0 26.333 5.66699 37 17s16 24.666 16 39.999s-5.16699 28 -15.5 38s-22.833 15 -37.5 15h-314v158h319c29.333 0 56.666 -5.66699 81.999 -17s47.333 -26.5 66 -45.5
s33.334 -41.333 44.001 -67s16 -52.834 16 -81.501c0 -50 -16 -94.667 -48 -134z" />
    <glyph glyph-name="afii10074" unicode="&#x438;" horiz-adv-x="668" 
d="M160 700v-366c0 -1.33301 0.333008 -2.16602 1 -2.49902s1.33398 0.166992 2.00098 1.5l248 367h145v-701h-160v387c0 1.33301 -0.333008 2.16602 -1 2.49902s-1.33398 -0.166992 -2.00098 -1.5l-251 -388h-142v701h160z" />
    <glyph glyph-name="afii10075" unicode="&#x439;" horiz-adv-x="668" 
d="M115 898l161 -103l162 103l43 -68l-205 -130l-204 130zM160 700v-366c0 -1.33301 0.333008 -2.16602 1 -2.49902s1.33398 0.166992 2.00098 1.5l248 367h145v-701h-160v387c0 1.33301 -0.333008 2.16602 -1 2.49902s-1.33398 -0.166992 -2.00098 -1.5l-251 -388h-142v701
h160z" />
    <glyph glyph-name="afii10076" unicode="&#x43a;" horiz-adv-x="704" 
d="M292 350l304 -350.998h-211l-204 236c-3.33301 3.33301 -7 4.16602 -11 2.49902s-6 -4.83398 -6 -9.50098v-229h-164v701h164v-229c0 -4.66699 2 -7.66699 6 -9s7.66699 -0.333008 11 3l204 235h211z" />
    <glyph glyph-name="afii10077" unicode="&#x43b;" horiz-adv-x="794" 
d="M703 0h-170l-172 478c-1.33301 4.66699 -4.5 7 -9.5 7s-8.16699 -2.33301 -9.5 -7l-172 -478h-170l252 701h199z" />
    <glyph glyph-name="afii10078" unicode="&#x43c;" horiz-adv-x="753" 
d="M641 700l-0.00195312 -700.999h-160v292c0 2 -1.16699 3.33301 -3.5 4s-4.16602 0 -5.49902 -2l-89 -186h-125l-90 185c-1.33301 2.66699 -3 3.66699 -5 3s-3 -2.33398 -3 -5.00098v-291h-160v701h149l167 -346c1.33301 -1.33301 2.83301 -2 4.5 -2
s2.83398 0.666992 3.50098 2l167 346h150z" />
    <glyph glyph-name="afii10079" unicode="&#x43d;" horiz-adv-x="662" 
d="M551 700v-701h-160v180c0 6.66699 -3.33301 10 -10 10h-212c-6 0 -9 -3.33301 -9 -10v-180h-160v701h160v-341c0 -6.66699 3 -10 9 -10h212c6.66699 0 10 3.33301 10 10v341h160z" />
    <glyph glyph-name="afii10080" unicode="&#x43e;" horiz-adv-x="712" 
d="M578 596c19.333 -34.667 30.665 -71.835 33.998 -111.502s5 -81.5 5 -125.5v-68h-1c-1.33301 -30 -4.5 -59 -9.5 -87s-14.5 -54.667 -28.5 -80c-24.667 -43.333 -60 -74.666 -106 -93.999c-41.333 -19.333 -96 -29 -164 -29c-66.667 0 -121.334 9.66699 -164.001 29
c-45.333 20 -80.333 51.333 -105 94c-19.333 34.667 -30.666 72 -33.999 112s-5 81.667 -5 125v68h1c1.33301 30 4.33301 59 9 87s14.334 54.667 29.001 80c24.667 42.667 59.667 74 105 94c42.667 19.333 97.334 29 164.001 29c68 0 122.667 -9.66699 164 -29
c46 -19.333 81.333 -50.666 106 -93.999zM454.999 358.999c0 32 -0.666992 62.166 -2 90.499s-6.66602 50.5 -15.999 66.5c-1.33301 2.66699 -3.83301 6.16699 -7.5 10.5s-10.167 8.66602 -19.5 12.999s-22 8.16602 -38 11.499s-37.333 5 -64 5
c-26 0 -47.167 -1.66699 -63.5 -5s-29 -7.16602 -38 -11.499s-15.333 -8.66602 -19 -12.999s-6.16699 -7.83301 -7.5 -10.5c-9.33301 -16 -14.666 -37.667 -15.999 -65s-2 -56.666 -2 -87.999v-2c0 -32 0.666992 -62.167 2 -90.5s6.66602 -50.5 15.999 -66.5
c1.33301 -2 3.83301 -5.33301 7.5 -10s10 -9.16699 19 -13.5s21.667 -8.16602 38 -11.499s37.5 -5 63.5 -5c26.667 0 48 1.66699 64 5s28.667 7.16602 38 11.499s15.833 8.83301 19.5 13.5s6.16699 8 7.5 10c9.33301 16 14.666 37.667 15.999 65s2 57 2 89v1z" />
    <glyph glyph-name="afii10081" unicode="&#x43f;" horiz-adv-x="700" 
d="M0 700h586v-699h-161v539h-265v-539h-160v699v0z" />
    <glyph glyph-name="afii10082" unicode="&#x440;" horiz-adv-x="726" 
d="M337 698c42 0 81.5 -8 118.5 -24s69.333 -37.667 97 -65s49.5 -59.5 65.5 -96.5s24 -76.5 24 -118.5c0 -37.333 -7.33301 -74 -22 -110s-35 -68.333 -61 -97c-29.333 -32 -63 -56.333 -101 -73s-78.333 -25 -121 -25h-178v-90h-159v699h337zM336 249
c20 0 38.833 3.66699 56.5 11s33.167 17.5 46.5 30.5s23.833 28.333 31.5 46s11.5 36.5 11.5 56.5s-3.83301 38.833 -11.5 56.5s-18 33.167 -31 46.5s-28.333 23.833 -46 31.5s-36.5 11.5 -56.5 11.5h-167c-7.33301 0 -11 -3.66699 -11 -11v-269
c0 -6.66699 3.66699 -10 11 -10h166z" />
    <glyph glyph-name="afii10083" unicode="&#x441;" horiz-adv-x="710" 
d="M612 99l-23 -18.001c-68 -52.667 -146 -79 -234 -79c-48.667 0 -95.167 8.66699 -139.5 26s-83.833 42.333 -118.5 75c-36 34 -63.667 73 -83 117s-29 90.333 -29 139s9.66699 94.834 29 138.501s47 82.5 83 116.5c34.667 33.333 74.167 58.666 118.5 75.999
s90.833 26 139.5 26c87.333 0 165 -26.333 233 -79l23 -17l-56 -168l-45 42c-20.667 19.333 -44.167 34 -70.5 44s-54.5 15 -84.5 15s-58.167 -5.16699 -84.5 -15.5s-49.833 -25.166 -70.5 -44.499c-40 -38 -60 -82.667 -60 -134c0 -25.333 5.16699 -49.5 15.5 -72.5
s25.166 -43.5 44.499 -61.5c20.667 -19.333 44.167 -34.166 70.5 -44.499s54.5 -15.5 84.5 -15.5s58.333 5.16699 85 15.5s50.334 25.166 71.001 44.499l45 42z" />
    <glyph glyph-name="afii10084" unicode="&#x442;" horiz-adv-x="686" 
d="M615 700v-160h-222c-4.66699 0 -7 -2.33301 -7 -7v-534h-160v534c0 4.66699 -2.33301 7 -7 7h-223v160h619z" />
    <glyph glyph-name="afii10085" unicode="&#x443;" horiz-adv-x="684" 
d="M589 696l-19 -52.999c0 -0.666992 -3 -9.16699 -9 -25.5l-22.5 -63.5l-30.5 -87.5l-34.5 -96l-33 -90l-25.5 -69.5c-18 -46 -38.833 -83 -62.5 -111s-49.167 -49.333 -76.5 -64s-56 -24.334 -86 -29.001s-60.333 -7 -91 -7h-40v160h40c34.667 0 63.667 5.33301 87 16
l-186 520h169l125 -350l126 350h169z" />
    <glyph glyph-name="afii10086" unicode="&#x444;" horiz-adv-x="782" 
d="M575 629c43.333 -24.667 74.668 -60 94.001 -106c19.333 -44.667 29 -99.667 29 -165s-9.66699 -120.333 -29 -165c-20 -46.667 -51.333 -82 -94 -106c-22.667 -12.667 -46.667 -21.834 -72 -27.501s-53 -9.16699 -83 -10.5v-49h-163v49
c-30 1.33301 -57.5 4.83301 -82.5 10.5s-48.833 14.834 -71.5 27.501c-42.667 24 -74 59.333 -94 106c-19.333 42.667 -29 97.667 -29 165s9.66699 122.333 29 165c19.333 46 50.666 81.333 93.999 106c22.667 13.333 46.5 22.666 71.5 27.999s52.5 8.66602 82.5 9.99902v48
h163v-48c30 -1.33301 57.667 -4.66602 83 -9.99902s49.333 -14.666 72 -27.999zM183.002 487c-2.66699 -1.33301 -6.16699 -3.83398 -10.5 -7.50098s-8.66602 -10 -12.999 -19s-8.16602 -21.667 -11.499 -38s-5 -37.833 -5 -64.5s1.66699 -48 5 -64
s7.16602 -28.667 11.499 -38s8.66602 -15.833 12.999 -19.5s7.83301 -6.16699 10.5 -7.5c8 -4.66699 17.5 -8 28.5 -10s22.833 -3.66699 35.5 -5c6.66699 -1.33301 10 1.66699 10 9v270c0 6.66699 -3.33301 10 -10 10c-12.667 -1.33301 -24.5 -3.16602 -35.5 -5.49902
s-20.5 -5.83301 -28.5 -10.5zM494.002 228.999c2.66699 1.33301 6.16699 3.83398 10.5 7.50098s8.66602 10.167 12.999 19.5s8.16602 22 11.499 38s5 37.333 5 64s-1.66699 48.167 -5 64.5s-7.16602 29 -11.499 38s-8.66602 15.333 -12.999 19s-7.83301 6.16699 -10.5 7.5
c-7.33301 4.66699 -16.5 8.16699 -27.5 10.5s-22.833 4.16602 -35.5 5.49902c-7.33301 0 -11 -3.33301 -11 -10v-270c0 -7.33301 3.66699 -10.333 11 -9c12.667 1.33301 24.5 3 35.5 5s20.167 5.33301 27.5 10z" />
    <glyph glyph-name="afii10087" unicode="&#x445;" horiz-adv-x="704" 
d="M416 350c-0.666992 -0.666992 -0.666992 -2 0 -4l231 -347h-192l-134 201c-2.66699 2.66699 -4.66699 2.66699 -6 0l-134 -201h-193l232 347c0.666992 1.33301 0.666992 3 0 5l-234 349h193l136 -203c1.33301 -2.66699 3.33301 -2.66699 6 0l136 203h193z" />
    <glyph glyph-name="afii10088" unicode="&#x446;" horiz-adv-x="589" 
d="M491 179h28v-206h-153v51h-366v671h153v-518h185v518h153v-516v0z" />
    <glyph glyph-name="afii10089" unicode="&#x447;" horiz-adv-x="631" 
d="M523 699v-699h-160v177c-9.33301 -1.33301 -18.833 -2.5 -28.5 -3.5s-19.5 -1.5 -29.5 -1.5c-37.333 0 -74 7.16699 -110 21.5s-68.333 34.833 -97 61.5c-32 29.333 -56.333 63 -73 101s-25 78.333 -25 121v222h160v-222c0 -20 3.83301 -38.833 11.5 -56.5s18 -33 31 -46
s28.333 -23.333 46 -31s36.5 -11.5 56.5 -11.5c20.667 0 40 4 58 12v355h160z" />
    <glyph glyph-name="afii10090" unicode="&#x448;" horiz-adv-x="744" 
d="M626 699v-699h-626v699h160v-529c0 -6.66699 3.33301 -10 10 -10h53c6.66699 0 10 3.33301 10 10v529h160v-529c0 -6.66699 3 -10 9 -10h54c6 0 9 3.33301 9 10v529h161z" />
    <glyph glyph-name="afii10091" unicode="&#x449;" horiz-adv-x="744" 
d="M649 167v-214h-159v53h-490v692h159v-523c0 -6.66699 3.33301 -10 10 -10h51c6.66699 0 10 3.33301 10 10v523h159v-523c0 -6.66699 3.33301 -10 10 -10h52c6.66699 0 10 3.33301 10 10v523h158v-531h30z" />
    <glyph glyph-name="afii10092" unicode="&#x44a;" horiz-adv-x="687" 
d="M383 427c29.333 0 57.166 -5.6709 83.499 -17.0039s49.333 -26.666 69 -45.999s35.167 -41.833 46.5 -67.5s17 -53.167 17 -82.5s-5.66699 -57.166 -17 -83.499s-26.666 -49.166 -45.999 -68.499s-42 -34.666 -68 -45.999s-53.667 -17 -83 -17h-318v529
c0 7.33301 -3.66699 11 -11 11h-73v159h243v-260c0 -7.33301 3.33301 -11 10 -11h147zM236 267.996c-6.66699 0 -9.99902 -3.66699 -9.99902 -11v-87c0 -7.33301 3.33301 -11 10 -11h149c15.333 0 28.333 5.5 39 16.5s16 24.167 16 39.5
c-0.666992 15.333 -6.33398 28 -17.001 38s-23.667 15 -39 15h-148z" />
    <glyph glyph-name="afii10093" unicode="&#x44b;" horiz-adv-x="813" 
d="M318 427c29.333 0 57.166 -5.66797 83.499 -17.001s49.333 -26.833 69 -46.5s35.167 -42.5 46.5 -68.5s17 -53.667 17 -83s-5.66699 -57 -17 -83s-26.666 -48.667 -45.999 -68s-42 -34.666 -68 -45.999s-53.667 -17 -83 -17h-320v703h160v-265c0 -6 3 -9 9 -9h149z
M169 266.999c-6 0 -9 -3.33203 -9 -9.99902v-90c0 -6 3 -9 9 -9h151c15.333 0 28.333 5.33301 39 16s15.667 23.667 15 39c0 15.333 -5.33301 28.166 -16 38.499s-23.667 15.5 -39 15.5h-150zM708 699v-701h-160v701h160z" />
    <glyph glyph-name="afii10094" unicode="&#x44c;" horiz-adv-x="626" 
d="M323 427c29.333 0 56.998 -5.6709 82.998 -17.0039s48.833 -26.666 68.5 -45.999s35.334 -42 47.001 -68s17.5 -53.667 17.5 -83s-5.66699 -57.166 -17 -83.499s-26.666 -49.166 -45.999 -68.499s-42 -34.666 -68 -45.999s-54 -17 -84 -17h-319v704h159v-265
c0 -6.66699 3.33301 -10 10 -10h149zM173.998 266.996c-6.66699 0 -10 -3 -10 -9v-90c0 -6.66699 3.33301 -10 10 -10h150c15.333 0 28.5 5.5 39.5 16.5s16.167 24.167 15.5 39.5c0 15.333 -5.33301 28 -16 38s-23.667 15 -39 15h-150z" />
    <glyph glyph-name="afii10095" unicode="&#x44d;" horiz-adv-x="720" 
d="M103 220c43.333 -39.333 95.668 -58.998 157.001 -58.998c30 0 58.5 5.16699 85.5 15.5s51.167 25.166 72.5 44.499c10.667 9.33301 20 19.666 28 30.999c2.66699 4 3 8.16699 1 12.5s-5.66699 6.5 -11 6.5h-258v162h260c4.66699 0 8.16699 2 10.5 6
s2.16602 8 -0.500977 12c-4.66699 6.66699 -9.5 12.834 -14.5 18.501s-10.167 11.167 -15.5 16.5c-21.333 19.333 -45.5 34 -72.5 44s-55.5 15 -85.5 15s-58.5 -5 -85.5 -15s-51.167 -24.667 -72.5 -44l-46 -42l-56 166l23 18c34 25.333 71 44.666 111 57.999s82 20 126 20
c50 0 97.333 -8.5 142 -25.5s85 -41.833 121 -74.5c36.667 -34 64.667 -72.667 84 -116s29 -89 29 -137s-9.66699 -93.667 -29 -137s-47.333 -82 -84 -116c-36 -32 -76.333 -56.667 -121 -74s-92 -26 -142 -26c-88 0 -166.667 26 -236 78l-23 17l56 166z" />
    <glyph glyph-name="afii10096" unicode="&#x44e;" horiz-adv-x="888" 
d="M765 576c18.667 -33.333 29.667 -69.5 33 -108.5s5 -79.5 5 -121.5v-66l-1 1c-1.33301 -30 -4.5 -58.5 -9.5 -85.5s-14.167 -52.833 -27.5 -77.5c-24.667 -42 -59.334 -72.667 -104.001 -92c-41.333 -18.667 -94.666 -28 -159.999 -28c-64.667 0 -118 9.33301 -160 28
c-45.333 20 -79.666 50.667 -102.999 92c-12 20.667 -20.667 42.5 -26 65.5s-8.66602 48.167 -9.99902 75.5c-1.33301 6 -4.33301 9 -9 9h-26c-5.33301 0 -8 -3 -8 -9v-261h-159v697h159v-260c0 -6 2.66699 -9 8 -9h26c4.66699 0 7.66699 2.66699 9 8
c1.33301 28 4.66602 53.5 9.99902 76.5s14 44.833 26 65.5c23.333 41.333 57.666 72 102.999 92c42 18.667 95.333 28 160 28c65.333 0 118.666 -9.33301 159.999 -28c44.667 -19.333 79.334 -50 104.001 -92zM644 346c0 32 -0.667969 61.5 -2.00098 88.5
s-6.33301 48.167 -15 63.5c-1.33301 2.66699 -3.83301 6.16699 -7.5 10.5s-10 8.66602 -19 12.999s-21.333 8 -37 11s-36.5 4.5 -62.5 4.5s-46.833 -1.5 -62.5 -4.5s-28 -6.66699 -37 -11s-15.167 -8.66602 -18.5 -12.999s-5.66602 -7.83301 -6.99902 -10.5
c-9.33301 -15.333 -14.666 -36.333 -15.999 -63s-2 -55.334 -2 -86.001v-1c0 -15.333 0.166992 -30.5 0.5 -45.5s1 -29 2 -42s2.66699 -25 5 -36s5.83301 -20.5 10.5 -28.5c1.33301 -2.66699 3.66602 -6.16699 6.99902 -10.5s9.5 -8.66602 18.5 -12.999s21.333 -8 37 -11
s36.5 -4.5 62.5 -4.5s46.833 1.5 62.5 4.5s28 6.66699 37 11s15.333 8.66602 19 12.999s6.16699 7.83301 7.5 10.5c8.66699 15.333 13.667 36.333 15 63s2 55.334 2 86.001v1z" />
    <glyph glyph-name="afii10097" unicode="&#x44f;" horiz-adv-x="774" 
d="M306 701h367.001v-702h-160v82c0 6 -2.66699 9 -8 9h-137c-4.66699 0 -7.33398 -2 -8.00098 -6l-32 -85h-172l42 111c-51.333 19.333 -94 50 -128 92c-22.667 27.333 -40 57.5 -52 90.5s-18 67.167 -18 102.5c0 42 8 81.667 24 119s38 69.833 66 97.5
s60.5 49.5 97.5 65.5s76.5 24 118.5 24zM307.001 250h197.999c5.33301 0 8 2.66699 8 8v274c0 6 -2.66699 9 -8 9h-199c-20 0 -38.833 -3.83301 -56.5 -11.5s-33.167 -18.167 -46.5 -31.5s-23.666 -28.833 -30.999 -46.5s-11 -36.5 -11 -56.5s3.83301 -38.833 11.5 -56.5
s18.167 -33 31.5 -46s28.833 -23.333 46.5 -31s36.5 -11.5 56.5 -11.5z" />
    <glyph glyph-name="afii10071" unicode="&#x451;" horiz-adv-x="676" 
d="M53 948h172v-160h-172v160zM345 948h172v-160h-172v160zM168 538c-5.33301 0 -8 -2.66699 -8 -8v-133c0 -6 2.66699 -9 8 -9h325v-159h-325c-5.33301 0 -8 -3 -8 -9v-52c0 -5.33301 2.66699 -8 8 -8h402v-160h-570v700h570v-162h-402z" />
    <glyph glyph-name="afii10101" unicode="&#x454;" horiz-adv-x="833" 
d="M579 258l56.002 -166.002l-23 -18c-34 -25.333 -70.833 -44.5 -110.5 -57.5s-81.5 -19.5 -125.5 -19.5c-50 0 -97.333 8.5 -142 25.5s-85 41.833 -121 74.5c-36.667 34 -64.667 72.667 -84 116s-29 89 -29 137s9.66699 93.667 29 137s47.333 82 84 116
c36 32.667 76.333 57.5 121 74.5s92 25.5 142 25.5c44 0 86 -6.66699 126 -20s77 -32.666 111 -57.999l23 -18l-56 -166l-46 42c-21.333 19.333 -45.5 34 -72.5 44s-55.5 15 -85.5 15s-58.5 -5.16699 -85.5 -15.5s-51.167 -25.166 -72.5 -44.499
c-5.33301 -5.33301 -10.5 -10.833 -15.5 -16.5s-9.83301 -11.5 -14.5 -17.5c-2.66699 -4 -2.83398 -8.16699 -0.500977 -12.5s5.83301 -6.5 10.5 -6.5h260v-161h-258c-5.33301 0 -9 -2.16699 -11 -6.5s-1.66699 -8.5 1 -12.5c7.33301 -10 16.666 -20.667 27.999 -32
c21.333 -19.333 45.5 -34 72.5 -44s55.5 -15 85.5 -15s58.333 5 85 15s50.667 24.667 72 44z" />
    <glyph glyph-name="afii10102" unicode="&#x455;" horiz-adv-x="268" 
d="M0 700h160v-701h-160v701v0z" />
    <glyph glyph-name="glyph161" unicode="&#x456;" horiz-adv-x="268" 
d="M0 700h160v-701h-160v701v0z" />
    <glyph glyph-name="afii10104" unicode="&#x457;" horiz-adv-x="394" 
d="M106 662h120v-662h-120v662zM7 700v160h145v-160h-145zM179 700v160h145v-160h-145z" />
    <glyph glyph-name="afii10057" unicode="&#x458;" horiz-adv-x="572" 
d="M475 700v-479c0 -30 -5.5 -58.333 -16.5 -85s-27.167 -50.667 -48.5 -72s-45.333 -37.5 -72 -48.5s-55 -16.5 -85 -16.5c-12.667 0 -27.5 1.33301 -44.5 4s-35.333 7 -55 13s-40 13.833 -61 23.5s-41.833 21.5 -62.5 35.5l-30 21l56 148l43 -26
c42 -25.333 75.333 -41.5 100 -48.5s42.667 -10.5 54 -10.5c16 0 30.667 6 44 18c12 12 18 26.667 18 44v479h160z" />
    <glyph glyph-name="afii10052" unicode="&#x490;" horiz-adv-x="621" 
d="M528 779v-241h-369v-538h-159v697h369v82h159v0z" />
    <glyph glyph-name="afii10098" unicode="&#x491;" horiz-adv-x="621" 
d="M528 779v-241h-369v-538h-159v697h369v82h159v0z" />
    <glyph glyph-name=".null" horiz-adv-x="0" 
 />
    <glyph glyph-name="nonmarkingreturn" horiz-adv-x="500" 
 />
    </font>
</defs>
</svg>
