<svg width="87" height="41" viewBox="0 0 87 41" fill="none" xmlns="http://www.w3.org/2000/svg">
<path d="M14.816 23H0.256001V1.18801H5.734V18.84H14.816V23ZM38.196 12.102C38.196 15.627 37.254 18.4 35.369 20.422C33.484 22.443 30.901 23.454 27.619 23.454C24.329 23.454 21.746 22.431 19.871 20.385C17.996 18.339 17.058 15.578 17.058 12.102C17.058 8.59601 17.996 5.82501 19.871 3.78901C21.746 1.75201 24.329 0.734009 27.62 0.734009C30.901 0.734009 33.484 1.74801 35.369 3.77401C37.254 5.80001 38.196 8.57601 38.196 12.102ZM32.542 12.087C32.542 10.788 32.407 9.68201 32.139 8.76901C31.87 7.85601 31.511 7.10601 31.062 6.52101C30.594 5.92501 30.064 5.49801 29.472 5.23901C28.8934 4.98306 28.2677 4.8509 27.635 4.85101C26.961 4.85101 26.35 4.97101 25.803 5.20901C25.256 5.44901 24.729 5.87601 24.221 6.49101C23.772 7.05801 23.409 7.81001 23.131 8.74701C22.851 9.68501 22.713 10.803 22.713 12.102C22.713 13.44 22.845 14.55 23.108 15.434C23.372 16.318 23.733 17.058 24.192 17.654C24.661 18.259 25.193 18.691 25.789 18.95C26.384 19.209 26.999 19.338 27.635 19.338C28.279 19.338 28.904 19.198 29.51 18.92C30.115 18.642 30.637 18.21 31.077 17.624C31.5639 16.9522 31.9306 16.2011 32.161 15.404C32.415 14.56 32.541 13.454 32.541 12.087H32.542ZM61 21.755C60.043 22.145 58.8 22.526 57.272 22.897C55.7929 23.2622 54.2755 23.4492 52.752 23.454C49.325 23.454 46.593 22.465 44.557 20.488C42.521 18.51 41.503 15.705 41.503 12.072C41.503 8.65401 42.521 5.91501 44.557 3.85401C46.593 1.79401 49.379 0.764009 52.914 0.764009C54.74 0.764009 56.224 0.937009 57.367 1.28401C58.5842 1.66032 59.7696 2.13281 60.912 2.69701V7.81001H60.414C60.15 7.60401 59.772 7.31401 59.279 6.93801C58.8207 6.58509 58.3386 6.26432 57.836 5.97801C57.2343 5.64248 56.5984 5.37259 55.939 5.17301C55.2012 4.94542 54.4331 4.83178 53.661 4.83601C52.724 4.83601 51.869 4.98201 51.098 5.27601C50.321 5.5722 49.6165 6.03152 49.032 6.62301C48.456 7.20901 48 7.95101 47.662 8.85001C47.326 9.74801 47.157 10.793 47.157 11.984C47.157 14.534 47.797 16.414 49.077 17.624C50.355 18.835 52.103 19.44 54.32 19.44C54.516 19.44 54.745 19.436 55.009 19.426C55.273 19.416 55.502 19.401 55.697 19.382V15.104H51.464V11.018H61V21.755ZM86.3 12.102C86.3 15.627 85.357 18.4 83.472 20.422C81.587 22.443 79.004 23.454 75.723 23.454C72.432 23.454 69.849 22.431 67.974 20.385C66.099 18.339 65.161 15.578 65.161 12.102C65.161 8.59601 66.099 5.82501 67.974 3.78901C69.849 1.75201 72.432 0.734009 75.723 0.734009C79.004 0.734009 81.587 1.74801 83.472 3.77401C85.357 5.80001 86.299 8.57601 86.299 12.102H86.3ZM80.645 12.087C80.645 10.788 80.511 9.68201 80.242 8.76901C79.973 7.85601 79.614 7.10601 79.165 6.52101C78.697 5.92501 78.167 5.49801 77.576 5.23901C76.9971 4.9829 76.371 4.85073 75.738 4.85101C75.064 4.85101 74.453 4.97101 73.907 5.20901C73.36 5.44901 72.832 5.87601 72.325 6.49101C71.875 7.05801 71.512 7.81001 71.233 8.74701C70.955 9.68501 70.816 10.803 70.816 12.102C70.816 13.44 70.948 14.55 71.211 15.434C71.475 16.318 71.836 17.058 72.295 17.654C72.764 18.259 73.296 18.691 73.892 18.95C74.488 19.209 75.102 19.338 75.738 19.338C76.382 19.338 77.008 19.198 77.613 18.92C78.218 18.642 78.741 18.21 79.18 17.624C79.6669 16.9522 80.0336 16.2011 80.264 15.404C80.518 14.56 80.644 13.454 80.644 12.087H80.645ZM10.913 32.069L8.84 40.25H7.566L5.566 33.944L3.581 40.25H2.314L0.220001 32.069H1.655L3.098 38.404L5.039 32.069H6.174L8.166 38.404L9.53 32.07L10.913 32.069ZM13.309 40.25H11.932V32.069H13.309V40.25ZM13.404 30.7H11.836V29.27H13.404V30.7ZM16.472 40.25H15.095V28.853H16.472V40.25ZM19.636 40.25H18.259V28.853H19.636V40.25ZM31.786 36.134C31.786 35.157 31.638 34.416 31.34 33.911C31.042 33.405 30.564 33.153 29.905 33.153C29.529 33.153 29.149 33.241 28.765 33.417C28.3878 33.5889 28.0367 33.8131 27.722 34.083V38.77C28.069 38.941 28.376 39.062 28.645 39.133C28.913 39.203 29.209 39.239 29.531 39.239C30.234 39.239 30.786 38.99 31.186 38.492C31.586 37.994 31.786 37.208 31.786 36.134V36.134ZM33.208 36.024C33.208 37.362 32.883 38.438 32.234 39.254C31.584 40.069 30.771 40.477 29.794 40.477C29.35 40.477 28.971 40.422 28.656 40.312C28.3302 40.1971 28.0171 40.0486 27.722 39.869L27.634 40.25H26.345V28.853H27.722V32.926C28.0618 32.618 28.4411 32.3567 28.85 32.149C29.2782 31.9389 29.7502 31.8337 30.227 31.842C31.15 31.842 31.877 32.212 32.409 32.952C32.942 33.692 33.208 34.715 33.208 36.024V36.024ZM38.188 40.44C36.885 40.44 35.873 40.073 35.152 39.338C34.432 38.603 34.072 37.56 34.072 36.207C34.072 34.874 34.422 33.813 35.119 33.025C35.818 32.236 36.731 31.842 37.859 31.842C38.366 31.842 38.816 31.915 39.206 32.062C39.596 32.208 39.939 32.438 40.232 32.75C40.525 33.063 40.749 33.445 40.906 33.896C41.062 34.348 41.14 34.901 41.14 35.556V36.302H35.47C35.47 37.254 35.71 37.982 36.188 38.485C36.666 38.988 37.328 39.239 38.173 39.239C38.7513 39.2341 39.3223 39.1095 39.85 38.873C40.099 38.761 40.309 38.653 40.48 38.547C40.65 38.442 40.792 38.343 40.905 38.25H40.985V39.752L40.385 39.99C39.9424 40.1697 39.4818 40.3012 39.011 40.382C38.7385 40.425 38.4628 40.4444 38.187 40.44H38.188ZM39.8 35.248C39.7968 34.9237 39.7524 34.6011 39.668 34.288C39.6007 34.0414 39.4862 33.8101 39.331 33.607C39.168 33.4005 38.9549 33.239 38.712 33.138C38.46 33.031 38.149 32.977 37.778 32.977C37.412 32.977 37.101 33.032 36.844 33.142C36.588 33.252 36.354 33.412 36.144 33.622C35.9447 33.8286 35.7859 34.0708 35.676 34.336C35.5615 34.6278 35.4924 34.9353 35.471 35.248H39.8ZM53.65 40.25H52.273V35.592C52.273 35.216 52.254 34.866 52.218 34.541C52.181 34.216 52.112 33.956 52.009 33.761C51.9042 33.5632 51.7402 33.4031 51.54 33.303C51.34 33.203 51.067 33.153 50.72 33.153C50.378 33.153 50.025 33.244 49.662 33.427C49.2798 33.6225 48.922 33.8625 48.596 34.142V40.25H47.219V28.853H48.596V32.977C49.006 32.611 49.411 32.33 49.812 32.135C50.212 31.94 50.634 31.842 51.079 31.842C51.885 31.842 52.514 32.107 52.969 32.636C53.423 33.166 53.649 33.934 53.649 34.94L53.65 40.25ZM59 40.44C57.695 40.44 56.683 40.073 55.963 39.338C55.243 38.603 54.883 37.56 54.883 36.207C54.883 34.874 55.232 33.813 55.93 33.025C56.628 32.236 57.542 31.842 58.67 31.842C59.177 31.842 59.626 31.915 60.017 32.062C60.407 32.208 60.75 32.438 61.042 32.75C61.335 33.063 61.56 33.445 61.716 33.896C61.873 34.348 61.951 34.901 61.951 35.556V36.302H56.281C56.281 37.254 56.521 37.982 57 38.485C57.478 38.988 58.14 39.239 58.984 39.239C59.5623 39.234 60.1332 39.1094 60.661 38.873C60.911 38.761 61.121 38.653 61.291 38.547C61.462 38.442 61.604 38.343 61.716 38.25H61.796V39.752L61.196 39.99C60.7538 40.1697 60.2934 40.3011 59.823 40.382C59.5505 40.425 59.2748 40.4444 58.999 40.44H59ZM60.61 35.248C60.6071 34.9238 60.5631 34.6012 60.479 34.288C60.4117 34.0414 60.2972 33.8101 60.142 33.607C59.9787 33.4003 59.7653 33.2389 59.522 33.138C59.272 33.031 58.96 32.977 58.589 32.977C58.223 32.977 57.911 33.032 57.655 33.142C57.399 33.252 57.165 33.412 56.955 33.622C56.7556 33.8286 56.5969 34.0708 56.487 34.336C56.3726 34.6278 56.3034 34.9353 56.282 35.248H60.61ZM67.63 33.548H67.557C67.4506 33.5181 67.3413 33.4996 67.231 33.493C67.0931 33.4854 66.9551 33.482 66.817 33.483C66.447 33.483 66.077 33.563 65.711 33.724C65.345 33.885 64.998 34.124 64.671 34.442V40.25H63.294V32.069H64.671V33.285C65.174 32.84 65.612 32.527 65.986 32.344C66.3227 32.1699 66.695 32.0758 67.074 32.069C67.215 32.069 67.321 32.072 67.392 32.079C67.462 32.087 67.542 32.099 67.63 32.113V33.548ZM72.136 40.44C70.833 40.44 69.821 40.073 69.1 39.338C68.38 38.603 68.02 37.56 68.02 36.207C68.02 34.874 68.37 33.813 69.068 33.025C69.766 32.236 70.678 31.842 71.807 31.842C72.315 31.842 72.764 31.915 73.154 32.062C73.545 32.208 73.887 32.438 74.18 32.75C74.473 33.063 74.697 33.445 74.854 33.896C75.01 34.348 75.088 34.901 75.088 35.556V36.302H69.419C69.419 37.254 69.659 37.982 70.137 38.485C70.615 38.988 71.277 39.239 72.122 39.239C72.7003 39.2341 73.2713 39.1095 73.799 38.873C74.048 38.761 74.258 38.653 74.429 38.547C74.5773 38.4578 74.7193 38.3586 74.854 38.25H74.934V39.752L74.334 39.99C73.8915 40.1698 73.4308 40.3013 72.96 40.382C72.6875 40.425 72.4118 40.4444 72.136 40.44ZM73.748 35.248C73.7448 34.9237 73.7005 34.6011 73.616 34.288C73.5487 34.0414 73.4342 33.8101 73.279 33.607C73.116 33.4005 72.9029 33.239 72.66 33.138C72.408 33.031 72.097 32.977 71.726 32.977C71.36 32.977 71.049 33.032 70.792 33.142C70.536 33.252 70.302 33.412 70.092 33.622C69.8927 33.8286 69.7339 34.0708 69.624 34.336C69.5096 34.6278 69.4405 34.9353 69.419 35.248H73.748Z" fill="#333333"/>
</svg>
