<?xml version="1.0" encoding="utf-8"?>
<!-- Generator: Adobe Illustrator 20.1.0, SVG Export Plug-In . SVG Version: 6.00 Build 0)  -->
<svg version="1.1" id="Слой_1" xmlns="http://www.w3.org/2000/svg" xmlns:xlink="http://www.w3.org/1999/xlink" x="0px" y="0px"
	 viewBox="0 0 201.2 49" style="enable-background:new 0 0 201.2 49;" xml:space="preserve">
<style type="text/css">
	.st0{enable-background:new    ;}
	.st1{fill:#4CAF50;}
	.st2{fill:none;stroke:#4CAF50;stroke-width:0.8;}
</style>
<g>
	<g class="st0">
		<path class="st1" d="M63.2,32.4l6.3-5.6c2.7-2.4,3.6-3.7,3.6-5.5c0-2-1.6-3.3-3.5-3.3c-2,0-3.3,1-4.7,3l-1.4-1
			c1.6-2.3,3.2-3.7,6.2-3.7c3.1,0,5.4,2.1,5.4,5c0,2.5-1.4,4.1-4.4,6.7l-4.6,4.1h9.2V34H63.2V32.4z"/>
	</g>
	<g class="st0">
		<path class="st1" d="M85.3,31.8l1.3-1.2c1,1.1,2.2,2,3.9,2c2.5,0,4.4-1.9,4.7-4.3h-5.9v-1.6h5.8c-0.2-2.3-2.2-4.2-4.6-4.2
			c-1.8,0-3,0.8-4,1.9l-1.1-1.2c1.2-1.3,2.8-2.3,5.2-2.3c3.7,0,6.5,3.1,6.5,6.7c0,3.6-2.9,6.6-6.6,6.6
			C88.1,34.2,86.5,33.3,85.3,31.8z"/>
		<path class="st1" d="M103.2,22.8h-4.6v-1.7h11.1v1.7h-4.6V34h-1.9V22.8z"/>
	</g>
	<g class="st0">
		<path class="st1" d="M111,30.2c0-2.8,2.2-4.2,5.5-4.2c1.6,0,2.8,0.2,3.9,0.5v-0.4c0-2.3-1.4-3.5-3.8-3.5c-1.5,0-2.7,0.4-3.9,0.9
			l-0.6-1.6c1.4-0.6,2.8-1.1,4.7-1.1c1.8,0,3.2,0.5,4.1,1.4c0.9,0.9,1.3,2.1,1.3,3.8V34h-1.9V32c-0.9,1.1-2.4,2.2-4.6,2.2
			C113.4,34.2,111,32.9,111,30.2z M120.5,29.2v-1.2c-0.9-0.3-2.2-0.5-3.7-0.5c-2.4,0-3.7,1-3.7,2.6c0,1.6,1.5,2.6,3.2,2.6
			C118.5,32.7,120.5,31.3,120.5,29.2z"/>
		<path class="st1" d="M130,26.6l-5-5.5h2.3l6.5,7.4v-7.4h1.9v7.4l6.5-7.4h2.3l-5,5.5l5.3,7.3h-2.2l-4.3-6l-2.6,2.9V34h-1.9v-3.1
			l-2.6-2.9l-4.3,6h-2.2L130,26.6z"/>
	</g>
	<g class="st0">
		<path class="st1" d="M172.6,35.2h1.2l3.3,4.6l3.3-4.6h1.2v8.7h-1.3v-6.6l-3.2,4.4l-3.2-4.4v6.6h-1.3V35.2z"/>
	</g>
	<g class="st0">
		<path class="st1" d="M183.5,37.7l2.5-2.2c1.1-0.9,1.4-1.5,1.4-2.2c0-0.8-0.6-1.3-1.4-1.3c-0.8,0-1.3,0.4-1.8,1.2l-0.6-0.4
			c0.6-0.9,1.3-1.5,2.5-1.5c1.2,0,2.1,0.8,2.1,2c0,1-0.5,1.6-1.7,2.7l-1.8,1.6h3.6v0.7h-4.8V37.7z"/>
	</g>
	<polyline class="st2" points="199.3,28 157.8,28 157.8,17.5 100.6,1.8 43.5,17.5 43.5,28 1.9,28 	"/>
</g>
</svg>
