<svg xmlns="http://www.w3.org/2000/svg" style="display: none;"><symbol id="forest" viewBox="0 0 512 512"><title>forest</title><g> <g> <path d="M510.957,349.086L428.141,39.432c-3.584-13.383-15.3-22.375-29.159-22.375c-13.856,0-25.574,8.992-29.158,22.378 L301.872,293.5c-5.231-3-10.854-5.382-16.778-7.05c7.878-18.389,12.009-38.33,12.009-58.509 c0-81.909-66.637-148.545-148.545-148.545C66.642,79.396,0,146.033,0,227.941c0,77.991,60.421,142.134,136.917,148.091v95.638 H98.455c-6.426,0-11.636,5.21-11.636,11.636s5.211,11.636,11.636,11.636h320.679c6.426,0,11.636-5.21,11.636-11.636 s-5.211-11.636-11.636-11.636h-12.836v-84.602h75.509c9.456,0,18.18-4.302,23.938-11.803 C511.502,367.764,513.402,358.222,510.957,349.086z M148.553,186.595c-6.426,0-11.636,5.21-11.636,11.636v65.419 c0,0.003,0,0.008,0,0.012v21.43l-27.949-27.948c-4.545-4.544-11.911-4.544-16.457,0c-4.544,4.544-4.544,11.912,0,16.456 l44.405,44.405v34.662c-63.643-5.89-113.643-59.575-113.643-124.726c0-69.075,56.203-125.272,125.285-125.272 c69.075,0,125.272,56.197,125.272,125.272c0,19.431-4.53,38.593-13.126,55.829c-34.981,1.943-63.592,28.097-69.346,61.941 c-10.06,3.661-20.489,5.987-31.169,6.965v-39.484c0-0.003,0-0.008,0-0.012v-44.704l32.451-32.451 c4.544-4.544,4.544-11.912,0-16.456c-4.545-4.544-11.911-4.544-16.457,0l-15.994,15.994v-37.333 C160.189,191.804,154.978,186.595,148.553,186.595z M254.413,471.671h-94.226v-95.635h0.001 c10.582-0.816,20.966-2.755,31.071-5.789c5.205,32.05,30.893,57.304,63.153,61.857V471.671z M264.887,333.092 c-5.784,0-10.473,4.688-10.473,10.473v18.433l-4.111-4.111c-4.091-4.09-10.72-4.09-14.812,0c-4.09,4.09-4.09,10.72,0,14.811 l18.923,18.923v16.885c-23.298-4.849-40.858-25.538-40.858-50.255c0-28.304,23.027-51.331,51.331-51.331 c0.806,0,2.607,0.071,2.708,0.072c27.051,1.413,48.623,23.864,48.623,51.259c0,24.716-17.56,45.405-40.858,50.255v-21.219 c0-0.003,0-0.008,0-0.012v-43.71C275.36,337.781,270.672,333.092,264.887,333.092z M383.026,471.671L383.026,471.671H275.36 v-39.567c26.361-3.721,48.339-21.257,58.336-45.037h49.331V471.671z M487.285,361.094c-0.774,1.009-2.515,2.7-5.477,2.7h-75.509 v-28.26c0-0.003,0-0.008,0-0.012v-35.42l25.73-25.73c4.544-4.544,4.544-11.912,0-16.457c-4.545-4.544-11.911-4.544-16.457,0 l-9.274,9.274v-32.388c0-6.427-5.211-11.636-11.636-11.636c-6.426,0-11.636,5.21-11.636,11.636v60.476c0,0.004,0,0.008,0,0.012 v12.147l-18.986-18.987c-4.544-4.544-11.91-4.544-16.457,0c-4.544,4.544-4.544,11.912,0,16.456l35.443,35.443v23.446h-43.764 c0.135-1.833,0.228-3.677,0.228-5.545c0-18.46-6.754-35.361-17.901-48.401l70.716-264.397c1.237-4.623,5.082-5.122,6.676-5.122 c1.595,0,5.44,0.499,6.677,5.119L488.474,355.1C489.243,357.965,488.058,360.085,487.285,361.094z" fill="#4CAF50"/> </g> </g><g> <g> <path d="M482.827,471.671h-18.541c-6.426,0-11.636,5.209-11.636,11.636c0,6.427,5.211,11.636,11.636,11.636h18.541 c6.426,0,11.636-5.21,11.636-11.636C494.463,476.88,489.252,471.671,482.827,471.671z" fill="#4CAF50"/> </g> </g><g> <g> <path d="M299.498,109.615c-2.61-3.32-5.363-6.592-8.184-9.726c-4.298-4.779-11.656-5.167-16.433-0.87 c-4.778,4.298-5.166,11.656-0.869,16.434c2.477,2.754,4.898,5.632,7.195,8.55c2.296,2.918,5.706,4.443,9.153,4.443 c2.518,0,5.055-0.813,7.187-2.491C302.598,121.981,303.472,114.665,299.498,109.615z" fill="#4CAF50"/> </g> </g><g> <g> <path d="M256.85,69.702c-32.096-21.988-69.495-33.607-108.175-33.607c-0.04,0-0.086,0-0.127,0 c-6.425,0.003-11.633,5.218-11.628,11.643c0.003,6.425,5.212,11.629,11.635,11.629c0.037,0.002,0.079,0,0.12,0 c33.963,0,66.819,10.211,95.023,29.533c2.011,1.378,4.298,2.037,6.566,2.037c3.71,0,7.355-1.77,9.61-5.061 C263.506,80.576,262.153,73.333,256.85,69.702z" fill="#4CAF50"/> </g> </g></symbol><symbol id="faucet" viewBox="0 0 511.999 511.999"><title>faucet</title><g> <g> <path d="M446.688,453.788c-2.745-16.699-11.707-33.347-25.236-46.876c-5.182-5.181-10.854-9.725-16.858-13.507 c-3.267-2.059-7.425-2.057-10.689,0.001c-6.01,3.788-11.68,8.331-16.854,13.506c-13.53,13.529-22.491,30.177-25.236,46.876 c-2.945,17.922,1.493,33.849,12.494,44.848c5.348,5.349,11.893,9.16,19.449,11.329c4.702,1.35,9.726,2.034,14.942,2.034 c0.219,0,0.44-0.001,0.659-0.003c4.877-0.052,9.91-0.697,14.957-1.917c0.137-0.033,0.274-0.069,0.409-0.108 c7.568-2.169,14.12-5.983,19.471-11.335C445.198,487.635,449.634,471.708,446.688,453.788z M420.019,484.458 c-2.873,2.873-6.445,4.952-10.621,6.18c-3.507,0.832-6.956,1.271-10.258,1.307c-3.515,0.039-6.82-0.383-9.849-1.253 c-4.252-1.22-7.888-3.319-10.805-6.235c-6.31-6.307-8.755-16.045-6.887-27.417c2.07-12.595,9.04-25.361,19.628-35.949 c2.541-2.541,5.225-4.886,8.023-7.013c2.795,2.124,5.479,4.469,8.022,7.013C427.902,441.719,433.738,470.738,420.019,484.458z" fill="#4CAF50"/> </g> </g><g> <g> <path d="M443.353,296.227v-26.712c0-57.586-46.854-104.436-104.446-104.436h-65.075v-49.597c0-6.153-4.987-11.14-11.14-11.14 h-29.451V79.187c13.321-3.83,23.834-14.341,27.665-27.662h18.048c4.392,10.63,14.867,18.13,27.065,18.13 c16.142,0,29.274-13.133,29.274-29.274c0-16.142-13.133-29.274-29.274-29.274c-12.2,0-22.677,7.505-27.069,18.139h-18.042 C256.061,12.38,240.504,0,222.101,0s-33.96,12.38-38.807,29.245h-18.042c-4.391-10.634-14.867-18.139-27.068-18.139 c-16.142,0-29.274,13.133-29.274,29.274s13.133,29.274,29.274,29.274c12.198,0,22.672-7.5,27.065-18.13h18.048 c3.831,13.321,14.344,23.831,27.665,27.662v25.156H181.51c-6.153,0-11.14,4.987-11.14,11.14v49.593H72.193v-7.572 c0-6.153-4.987-11.14-11.14-11.14c-6.152,0-11.14,4.987-11.14,11.14v18.711v92.802c0,6.153,4.987,11.14,11.14,11.14 c6.153,0,11.14-4.987,11.14-11.14v-7.614l66.028,0.04c23.603,21.874,53.738,32.821,83.88,32.821 c30.199,0,60.393-10.988,84.016-32.947h24.743c8.963,0,16.255,7.286,16.255,16.244v18.664 c-10.606,1.703-18.743,10.892-18.743,21.971v23.658c0,12.285,9.995,22.28,22.28,22.28h89.154c12.285,0,22.28-9.995,22.28-22.28 v-23.658C462.086,307.122,453.955,297.935,443.353,296.227z M299.025,40.356c0.013-3.845,3.145-6.97,6.994-6.97 c3.857,0,6.995,3.138,6.995,6.995c0,3.857-3.138,6.995-6.995,6.995c-3.848,0-6.978-3.122-6.994-6.966 c0-0.009,0.001-0.017,0.001-0.025C299.026,40.375,299.025,40.366,299.025,40.356z M138.185,47.375 c-3.857,0-6.995-3.138-6.995-6.995c0-3.857,3.138-6.995,6.995-6.995c3.857,0,6.995,3.138,6.995,6.995 C145.178,44.237,142.041,47.375,138.185,47.375z M204.002,40.415c0-0.01,0.001-0.02,0.001-0.03c0-0.011-0.001-0.022-0.002-0.035 c0.018-9.967,8.129-18.071,18.1-18.071c9.978,0,18.096,8.115,18.101,18.093c0,0.004-0.001,0.009-0.001,0.012s0,0.006,0,0.009 c-0.007,9.976-8.123,18.089-18.1,18.089C212.132,58.483,204.021,50.381,204.002,40.415z M192.648,126.623h58.904v38.453h-58.904 V126.623z M330.861,239.039h-29.333c-3.457,0-6.546,1.575-8.589,4.046c-39.508,38.756-103.169,38.542-142.389-0.678 c-2.302-2.302-5.358-3.372-8.372-3.238l-69.985-0.042v-51.769H181.51h81.103c0.029,0,0.057,0.004,0.086,0.004h76.21 c45.307,0,82.166,36.855,82.166,82.156v26.402h-51.679v-18.356C369.395,256.32,352.109,239.039,330.861,239.039z M439.806,341.855 h-89.154v-23.658h7.496c0.037,0,0.071,0.006,0.108,0.006s0.071-0.006,0.108-0.006h73.743c0.037,0,0.071,0.006,0.108,0.006 s0.071-0.006,0.108-0.006h7.485l0.014,23.658C439.821,341.854,439.816,341.855,439.806,341.855z" fill="#4CAF50"/> </g> </g></symbol><symbol id="handshake" viewBox="0 0 512.004 512.004"><title>handshake</title><path d="M136.425,235.442c0,4.565,1.783,8.849,5.009,12.066l6.033,6.033c8.064,8.055,18.765,12.493,30.165,12.493 c11.401,0,22.11-4.437,30.174-12.493l42.505-42.505c16.836,14.063,37.854,21.717,60.041,21.717h0.043 c25.079-0.017,48.683-9.805,66.441-27.571c3.337-3.336,3.337-8.738,0-12.066c-3.337-3.337-8.73-3.337-12.066,0 c-14.541,14.541-33.86,22.562-54.383,22.571h-0.026c-20.506,0-39.782-7.987-54.281-22.485c-3.337-3.328-8.738-3.328-12.066,0 l-48.282,48.273c-9.66,9.668-26.53,9.668-36.198,0l-6.033-6.033l102.579-102.579c9.566-9.566,18.654-9.566,30.165-9.566 c12.322,0,27.674,0,42.24-14.566l24.132-24.141c3.336-3.336,3.336-8.738,0-12.066c-3.328-3.337-8.73-3.337-12.066,0 l-24.132,24.141c-9.574,9.566-18.662,9.566-30.174,9.566c-12.322,0-27.665,0-42.231,14.566L141.442,223.367 C138.208,226.593,136.425,230.877,136.425,235.442z" fill="#4CAF50"/><path d="M76.802,93.891c9.412,0,17.067-7.654,17.067-17.067c0-9.412-7.654-17.067-17.067-17.067 c-9.412,0-17.067,7.654-17.067,17.067C59.735,86.237,67.39,93.891,76.802,93.891z" fill="#4CAF50"/><path d="M159.533,120.797l24.132,24.132c1.672,1.673,3.857,2.5,6.033,2.5c2.185,0,4.369-0.828,6.033-2.5 c3.337-3.328,3.337-8.73,0-12.066l-24.132-24.132c-3.328-3.336-8.73-3.336-12.066,0 C156.205,112.059,156.205,117.46,159.533,120.797z" fill="#4CAF50"/><path d="M435.202,59.758c9.404,0,17.067-7.654,17.067-17.067c0-9.412-7.663-17.067-17.067-17.067s-17.067,7.654-17.067,17.067 C418.135,52.103,425.798,59.758,435.202,59.758z" fill="#4CAF50"/><path d="M454.769,181.725c-13.867,13.867-18.628,36.454-23.228,58.3c-4.079,19.388-8.303,39.45-18.577,49.724l-12.075,12.066 c-3.328,3.337-3.328,8.738,0,12.066c1.672,1.673,3.857,2.5,6.042,2.5c2.176,0,4.361-0.828,6.033-2.5l12.066-12.066 c13.858-13.858,18.611-36.437,23.211-58.274c4.087-19.405,8.32-39.467,18.594-49.749c3.337-3.328,3.337-8.73,0-12.066 C463.499,178.388,458.106,178.388,454.769,181.725z" fill="#4CAF50"/><path d="M509.502,181.725L370.468,42.691l28.1-28.1c3.337-3.337,3.337-8.73,0-12.066c-3.337-3.336-8.73-3.336-12.066,0 l-34.133,34.133c-3.337,3.337-3.337,8.73,0,12.066l145.067,145.067c1.664,1.664,3.849,2.5,6.033,2.5s4.369-0.836,6.033-2.5 C512.838,190.454,512.838,185.061,509.502,181.725z" fill="#4CAF50"/><path d="M316.418,253.541c-3.337-3.328-8.73-3.328-12.066,0c-3.336,3.337-3.336,8.738,0,12.075l90.505,90.505 c6.656,6.656,6.656,17.485,0,24.141c-6.639,6.639-17.476,6.647-24.141,0l-90.505-90.513c-3.337-3.337-8.738-3.337-12.066,0 c-3.337,3.337-3.337,8.738,0,12.066L382.79,416.46c6.656,6.656,6.656,17.485,0,24.132s-17.476,6.665-24.141,0.008 L250.046,331.988c-3.337-3.337-8.738-3.337-12.066,0c-3.337,3.328-3.337,8.73,0,12.066l96.538,96.538 c6.656,6.656,6.656,17.485,0,24.141c-6.451,6.451-17.681,6.451-24.132-0.008l-12.075-12.066h-0.009l-78.43-78.43 c-3.337-3.336-8.738-3.336-12.066,0c-3.336,3.328-3.336,8.73,0,12.066l78.438,78.438c3.226,3.226,5.001,7.509,5.001,12.075 c0,4.557-1.775,8.841-5.001,12.066c-6.639,6.639-17.476,6.656-24.132-0.009L116.969,343.858 c-22.127-22.127-26.931-50.022-31.172-74.641c-3.567-20.71-6.938-40.269-20.028-53.359c-3.337-3.337-8.73-3.337-12.066,0 s-3.337,8.73,0,12.066c9.259,9.259,12.049,25.446,15.275,44.194c4.437,25.771,9.967,57.847,35.925,83.806L250.046,500.94 c6.647,6.647,15.386,9.984,24.132,9.984c8.738-0.009,17.485-3.337,24.132-9.984c4.847-4.855,8.064-10.906,9.361-17.493 c12.51,6.033,28.8,3.482,38.912-6.647c4.855-4.855,8.064-10.914,9.361-17.502c12.689,6.093,28.407,3.866,38.912-6.639 c13.312-13.303,13.312-34.953,0-48.265l-3.234-3.243c5.606-1.493,10.914-4.437,15.309-8.823c13.303-13.312,13.303-34.97,0-48.273 L316.418,253.541z" fill="#4CAF50"/><path d="M159.635,70.791l-51.2-51.2c-3.336-3.337-8.73-3.337-12.066,0c-3.337,3.336-3.337,8.73,0,12.066l45.167,45.167 L2.502,215.858c-3.336,3.337-3.336,8.73,0,12.066c1.664,1.664,3.849,2.5,6.033,2.5s4.369-0.836,6.033-2.5L159.635,82.858 C162.972,79.521,162.972,74.128,159.635,70.791z" fill="#4CAF50"/><path d="M209.879,493.379c-4.753,2.492-12.868,2.79-20.181-4.506c-7.313-7.322-7.253-15.829-4.881-19.533 c2.355-3.669,1.57-8.516-1.835-11.255c-3.388-2.739-8.294-2.483-11.383,0.614c-6.665,6.656-17.502,6.647-24.141,0 c-6.647-6.656-6.647-17.485,0-24.141c1.673-1.664,2.5-3.849,2.5-6.033s-0.828-4.361-2.5-6.033c-3.328-3.328-8.73-3.328-12.066,0 l-6.033,6.033c-6.647,6.656-17.485,6.656-24.132,0s-6.647-17.485,0-24.132l6.033-6.033c3.038-3.029,3.345-7.842,0.734-11.238 c-2.611-3.396-7.347-4.326-11.042-2.185c-4.642,2.679-12.809,2.364-19.857-4.676c-7.492-7.492-7.458-15.795-5.043-19.294 c2.679-3.874,1.698-9.19-2.176-11.87c-3.883-2.688-9.19-1.707-11.87,2.176c-6.903,10.001-6.716,27.315,7.023,41.054 c5.41,5.402,11.298,8.627,17.101,10.172c-1.946,4.335-2.97,9.071-2.97,13.961c0,9.114,3.55,17.69,10.001,24.132 c8.755,8.764,21.137,11.759,32.375,8.986c0.666,7.731,3.951,15.283,9.856,21.188c8.491,8.482,20.352,11.554,31.292,9.233 c1.058,7.066,4.48,14.464,10.948,20.941c7.893,7.885,17.109,11.042,25.523,11.042c5.402,0,10.47-1.306,14.643-3.49 c4.173-2.185,5.786-7.339,3.593-11.52C219.206,492.807,214.035,491.186,209.879,493.379z" fill="#4CAF50"/></symbol><symbol id="road" viewBox="0 0 441.297 441.297"><title>road</title><path d="M437.198,343.271c-27.178-8.227-54.76-14.876-82.626-19.945V196.297c0-2.316-1.45-4.383-3.627-5.172l-17.192-6.226v-44.152 c0-2.315-1.45-4.383-3.627-5.171l-25.693-9.306V87.577c0-2.316-1.451-4.384-3.629-5.172l-25.691-9.297V41.437 c0-2.315-1.45-4.382-3.626-5.171l-48.96-17.74c-1.21-0.439-2.537-0.439-3.747,0l-48.96,17.74c-2.177,0.789-3.626,2.856-3.626,5.171 v31.671l-25.701,9.297c-2.178,0.788-3.629,2.856-3.629,5.172v38.693l-25.693,9.306c-2.177,0.788-3.627,2.856-3.627,5.171v44.152 l-17.193,6.226c-2.177,0.788-3.627,2.856-3.627,5.171v127.03c-27.854,5.066-55.425,11.712-82.593,19.935 c-2.748,0.832-4.594,3.59-4.025,6.404c0.653,3.229,3.917,5.125,6.99,4.191c33.079-10.023,66.765-17.681,100.838-22.947 c8.347-1.29,16.854-1.137,25.164,0.372h0c24.88,4.517,35.644,25.165,37.301,41.475c1.679,16.521-4.794,39.193-28.526,48.856 c-2.763,1.125-4.351,4.189-3.365,7.005c0.801,2.288,2.935,3.69,5.195,3.69c0.683,0,1.377-0.128,2.049-0.398 c24.346-9.785,38.316-33.441,35.59-60.265c-2.104-20.706-13.672-37.505-30.773-46.053c2.272-0.216,4.545-0.422,6.82-0.618 c3.894,1.384,9.317,3.448,11.977,4.762c0.783,0.387,1.614,0.57,2.432,0.57c2.027,0,3.977-1.125,4.936-3.065 c0.589-1.193,0.706-2.496,0.422-3.697c0.733-0.043,1.466-0.085,2.2-0.126c18.306-1.026,36.508,4.534,50.707,16.133 c6.613,5.402,12.37,11.877,17.061,19.284c12.723,20.09,16.689,44.804,10.891,67.835c-0.718,2.853,0.826,5.906,3.634,6.784 c0.552,0.173,1.108,0.254,1.654,0.254c2.456,0,4.694-1.657,5.327-4.147c6.606-26.001,2.154-53.925-12.213-76.612 c-8.184-12.923-19.224-23.325-32.234-30.675c71.306,0.34,141.947,10.956,210.021,31.583c0.532,0.161,1.068,0.238,1.597,0.238 c2.535,0,4.864-1.766,5.397-4.447C441.754,346.844,439.934,344.099,437.198,343.271z M343.571,200.155v121.249 c-3.269-0.544-6.543-1.06-9.82-1.561V196.598L343.571,200.155z M322.751,144.605v173.637c-6.096-0.839-12.203-1.6-18.32-2.288 v-12.502l7.49,2.712c0.618,0.224,1.25,0.33,1.872,0.33c2.25,0,4.362-1.391,5.172-3.629c1.034-2.856-0.443-6.01-3.299-7.044 l-11.235-4.068v-6.302l7.49,2.712c0.618,0.224,1.25,0.33,1.872,0.33c2.25,0,4.362-1.391,5.172-3.629 c1.034-2.856-0.443-6.01-3.299-7.044l-11.235-4.068v-6.303l7.49,2.712c0.618,0.224,1.25,0.33,1.872,0.33 c2.25,0,4.362-1.391,5.172-3.629c1.034-2.856-0.443-6.01-3.299-7.044l-11.235-4.068v-6.302l7.49,2.712 c0.618,0.224,1.25,0.33,1.872,0.33c2.25,0,4.362-1.391,5.172-3.629c1.034-2.856-0.443-6.01-3.299-7.044l-11.235-4.068v-6.303 l7.49,2.712c0.618,0.224,1.25,0.33,1.872,0.33c2.25,0,4.362-1.391,5.172-3.629c1.034-2.856-0.443-6.01-3.299-7.044l-11.235-4.068 v-6.302l7.49,2.712c0.618,0.224,1.25,0.33,1.872,0.33c2.25,0,4.362-1.391,5.172-3.629c1.034-2.856-0.443-6.01-3.299-7.044 l-11.235-4.068v-6.303l7.49,2.712c0.618,0.224,1.25,0.33,1.872,0.33c2.25,0,4.362-1.391,5.172-3.629 c1.034-2.856-0.443-6.01-3.299-7.044l-11.235-4.068v-6.302l7.49,2.712c0.618,0.224,1.25,0.33,1.872,0.33 c2.25,0,4.362-1.391,5.172-3.629c1.034-2.856-0.443-6.01-3.299-7.044l-11.235-4.068v-6.303l7.49,2.712 c0.618,0.224,1.25,0.33,1.872,0.33c2.25,0,4.362-1.391,5.172-3.629c1.034-2.856-0.443-6.01-3.299-7.044l-11.235-4.068v-9.773 L322.751,144.605z M293.431,91.436v223.365c-6.098-0.595-12.204-1.12-18.32-1.565v-16.538l6.104,2.21 c0.618,0.224,1.25,0.33,1.872,0.33c2.25,0,4.361-1.391,5.172-3.629c1.034-2.856-0.442-6.01-3.299-7.044L275.111,285v-7.299 l6.104,2.21c0.618,0.224,1.25,0.33,1.872,0.33c2.25,0,4.362-1.391,5.172-3.629c1.034-2.856-0.443-6.01-3.299-7.044l-9.849-3.566 v-7.299l6.104,2.21c0.618,0.224,1.25,0.33,1.872,0.33c2.25,0,4.362-1.391,5.172-3.629c1.034-2.856-0.443-6.01-3.299-7.044 l-9.849-3.566v-7.299l6.104,2.21c0.618,0.224,1.25,0.33,1.872,0.33c2.25,0,4.362-1.391,5.172-3.629 c1.034-2.856-0.443-6.01-3.299-7.044l-9.849-3.566v-7.299l6.104,2.21c0.618,0.224,1.25,0.33,1.872,0.33 c2.25,0,4.362-1.391,5.172-3.629c1.034-2.856-0.443-6.01-3.299-7.044l-9.849-3.566v-7.299l6.104,2.21 c0.618,0.224,1.25,0.33,1.872,0.33c2.25,0,4.362-1.391,5.172-3.629c1.034-2.856-0.443-6.01-3.299-7.044l-9.849-3.566v-7.299 l6.104,2.21c0.618,0.224,1.25,0.33,1.872,0.33c2.25,0,4.362-1.391,5.172-3.629c1.034-2.856-0.443-6.01-3.299-7.044l-9.849-3.566 v-7.299l6.104,2.21c0.618,0.224,1.25,0.33,1.872,0.33c2.25,0,4.362-1.391,5.172-3.629c1.034-2.856-0.443-6.01-3.299-7.044 l-9.849-3.566v-7.299l6.104,2.21c0.618,0.224,1.25,0.33,1.872,0.33c2.25,0,4.362-1.391,5.172-3.629 c1.034-2.856-0.443-6.01-3.299-7.044l-9.849-3.566v-7.299l6.104,2.21c0.618,0.224,1.25,0.33,1.872,0.33 c2.25,0,4.362-1.391,5.172-3.629c1.034-2.856-0.443-6.01-3.299-7.044l-9.849-3.566v-7.299l6.104,2.21 c0.618,0.224,1.25,0.33,1.872,0.33c2.25,0,4.362-1.391,5.172-3.629c1.034-2.856-0.443-6.01-3.299-7.044l-9.849-3.566V84.806 L293.431,91.436z M264.111,312.522c-12.625-0.732-25.282-1.147-37.96-1.239V31.54l37.96,13.754V312.522z M215.151,31.54v279.743 c-12.678,0.093-25.335,0.507-37.96,1.239V45.294L215.151,31.54z M166.191,84.805v10.21l-9.855,3.569 c-2.856,1.034-4.333,4.188-3.299,7.044c0.811,2.238,2.922,3.629,5.172,3.629c0.622,0,1.254-0.106,1.872-0.33l6.11-2.212v7.299 l-9.855,3.569c-2.856,1.034-4.333,4.188-3.299,7.044c0.811,2.238,2.922,3.629,5.172,3.629c0.622,0,1.254-0.106,1.872-0.33 l6.11-2.212v7.299l-9.855,3.569c-2.856,1.034-4.333,4.188-3.299,7.044c0.811,2.238,2.922,3.629,5.172,3.629 c0.622,0,1.254-0.106,1.872-0.33l6.11-2.212v7.299l-9.855,3.569c-2.856,1.034-4.333,4.188-3.299,7.044 c0.811,2.238,2.922,3.629,5.172,3.629c0.622,0,1.254-0.106,1.872-0.33l6.11-2.212v7.299l-9.855,3.569 c-2.856,1.034-4.333,4.188-3.299,7.044c0.811,2.238,2.922,3.629,5.172,3.629c0.622,0,1.254-0.106,1.872-0.33l6.11-2.212v7.299 l-9.855,3.569c-2.856,1.034-4.333,4.188-3.299,7.044c0.811,2.238,2.922,3.629,5.172,3.629c0.622,0,1.254-0.106,1.872-0.33 l6.11-2.212v7.299l-9.855,3.569c-2.856,1.034-4.333,4.188-3.299,7.044c0.811,2.238,2.922,3.629,5.172,3.629 c0.622,0,1.254-0.106,1.872-0.33l6.11-2.212v7.299l-9.855,3.569c-2.856,1.034-4.333,4.188-3.299,7.044 c0.811,2.238,2.922,3.629,5.172,3.629c0.622,0,1.254-0.106,1.872-0.33l6.11-2.212v7.299l-9.855,3.569 c-2.856,1.034-4.333,4.188-3.299,7.044c0.811,2.238,2.922,3.629,5.172,3.629c0.622,0,1.254-0.106,1.872-0.33l6.11-2.212v7.299 l-9.855,3.569c-2.856,1.034-4.333,4.188-3.299,7.044c0.811,2.238,2.922,3.629,5.172,3.629c0.622,0,1.254-0.106,1.872-0.33 l6.11-2.212v7.299l-9.855,3.569c-2.856,1.034-4.333,4.188-3.299,7.044c0.811,2.238,2.922,3.629,5.172,3.629 c0.622,0,1.254-0.106,1.872-0.33l6.11-2.213v16.539c-6.119,0.445-12.229,0.97-18.33,1.565V91.436L166.191,84.805z M136.861,137.969 v9.774l-11.231,4.067c-2.856,1.034-4.333,4.188-3.299,7.044c0.811,2.238,2.921,3.629,5.172,3.629c0.622,0,1.254-0.106,1.872-0.33 l7.486-2.711v6.303l-11.231,4.067c-2.856,1.034-4.333,4.188-3.299,7.044c0.811,2.238,2.921,3.629,5.172,3.629 c0.622,0,1.254-0.106,1.872-0.33l7.486-2.711v6.302l-11.231,4.067c-2.856,1.034-4.333,4.188-3.299,7.044 c0.811,2.238,2.921,3.629,5.172,3.629c0.622,0,1.254-0.106,1.872-0.33l7.486-2.711v6.303l-11.231,4.067 c-2.856,1.034-4.333,4.188-3.299,7.044c0.811,2.238,2.921,3.629,5.172,3.629c0.622,0,1.254-0.106,1.872-0.33l7.486-2.711v6.302 l-11.231,4.067c-2.856,1.034-4.333,4.188-3.299,7.044c0.811,2.238,2.921,3.629,5.172,3.629c0.622,0,1.254-0.106,1.872-0.33 l7.486-2.711v6.303l-11.231,4.067c-2.856,1.034-4.333,4.188-3.299,7.044c0.811,2.238,2.921,3.629,5.172,3.629 c0.622,0,1.254-0.106,1.872-0.33l7.486-2.711v6.302l-11.231,4.067c-2.856,1.034-4.333,4.188-3.299,7.044 c0.811,2.238,2.921,3.629,5.172,3.629c0.622,0,1.254-0.106,1.872-0.33l7.486-2.711v6.303l-11.231,4.067 c-2.856,1.034-4.333,4.188-3.299,7.044c0.811,2.238,2.921,3.629,5.172,3.629c0.622,0,1.254-0.106,1.872-0.33l7.486-2.711v6.302 l-11.231,4.067c-2.856,1.034-4.333,4.188-3.299,7.044c0.811,2.238,2.921,3.629,5.172,3.629c0.622,0,1.254-0.106,1.872-0.33 l7.486-2.711v12.501c-6.117,0.688-12.224,1.449-18.32,2.288V144.605L136.861,137.969z M97.721,200.155l9.82-3.556v123.245 c-3.277,0.501-6.551,1.016-9.82,1.561V200.155z" fill="#4CAF50"/><path d="M233.746,56.266l20.05,7.26c0.618,0.224,1.25,0.33,1.872,0.33c2.25,0,4.362-1.391,5.172-3.629 c1.034-2.856-0.443-6.01-3.299-7.044l-20.05-7.26c-2.855-1.035-6.01,0.443-7.044,3.299 C229.413,52.078,230.89,55.231,233.746,56.266z" fill="#4CAF50"/><path d="M185.629,63.856c0.622,0,1.254-0.106,1.873-0.33l20.04-7.26c2.856-1.035,4.332-4.189,3.297-7.045 c-1.034-2.855-4.185-4.333-7.044-3.298l-20.04,7.26c-2.856,1.035-4.332,4.189-3.297,7.044 C181.268,62.465,183.379,63.856,185.629,63.856z" fill="#4CAF50"/><path d="M233.746,79.776l20.05,7.26c0.618,0.224,1.25,0.33,1.872,0.33c2.25,0,4.362-1.391,5.172-3.629 c1.034-2.856-0.443-6.01-3.299-7.044l-20.05-7.26c-2.855-1.035-6.01,0.443-7.044,3.299 C229.413,75.588,230.89,78.742,233.746,79.776z" fill="#4CAF50"/><path d="M185.629,87.366c0.622,0,1.254-0.106,1.873-0.33l20.04-7.26c2.856-1.035,4.332-4.189,3.297-7.045 c-1.034-2.855-4.185-4.333-7.044-3.298l-20.04,7.26c-2.856,1.035-4.332,4.189-3.297,7.044 C181.268,85.975,183.379,87.366,185.629,87.366z" fill="#4CAF50"/><path d="M233.746,103.286l20.05,7.26c0.618,0.224,1.25,0.33,1.872,0.33c2.25,0,4.362-1.391,5.172-3.629 c1.034-2.856-0.443-6.01-3.299-7.044l-20.05-7.26c-2.855-1.034-6.01,0.443-7.044,3.299 C229.413,99.098,230.89,102.252,233.746,103.286z" fill="#4CAF50"/><path d="M185.629,110.876c0.622,0,1.254-0.106,1.873-0.33l20.04-7.26c2.856-1.035,4.332-4.189,3.297-7.045 c-1.034-2.855-4.185-4.332-7.044-3.298l-20.04,7.26c-2.856,1.035-4.332,4.189-3.297,7.044 C181.268,109.486,183.379,110.876,185.629,110.876z" fill="#4CAF50"/><path d="M233.746,126.796l20.05,7.26c0.618,0.224,1.25,0.33,1.872,0.33c2.25,0,4.362-1.391,5.172-3.629 c1.034-2.856-0.443-6.01-3.299-7.044l-20.05-7.26c-2.855-1.035-6.01,0.443-7.044,3.299 C229.413,122.609,230.89,125.762,233.746,126.796z" fill="#4CAF50"/><path d="M185.629,134.386c0.622,0,1.254-0.106,1.873-0.33l20.04-7.26c2.856-1.035,4.332-4.189,3.297-7.045 c-1.034-2.855-4.185-4.333-7.044-3.298l-20.04,7.26c-2.856,1.035-4.332,4.189-3.297,7.044 C181.268,132.996,183.379,134.386,185.629,134.386z" fill="#4CAF50"/><path d="M257.619,170.734l-20.05-7.26c-2.856-1.034-6.01,0.443-7.044,3.299c-1.034,2.856,0.443,6.01,3.299,7.044l20.05,7.26 c0.618,0.224,1.25,0.33,1.872,0.33c2.25,0,4.362-1.391,5.172-3.629C261.952,174.922,260.475,171.768,257.619,170.734z" fill="#4CAF50"/><path d="M203.872,163.474l-20.04,7.26c-2.856,1.035-4.332,4.188-3.297,7.044c0.811,2.238,2.921,3.628,5.171,3.628 c0.622,0,1.254-0.106,1.873-0.33l20.04-7.26c2.856-1.035,4.332-4.188,3.297-7.044C209.883,163.917,206.731,162.44,203.872,163.474z " fill="#4CAF50"/><path d="M257.619,194.244l-20.05-7.26c-2.856-1.035-6.01,0.443-7.044,3.299c-1.034,2.856,0.443,6.01,3.299,7.044l20.05,7.26 c0.618,0.224,1.25,0.33,1.872,0.33c2.25,0,4.362-1.391,5.172-3.629C261.952,198.432,260.475,195.279,257.619,194.244z" fill="#4CAF50"/><path d="M203.872,186.985l-20.04,7.26c-2.856,1.035-4.332,4.188-3.297,7.044c0.811,2.238,2.921,3.628,5.171,3.628 c0.622,0,1.254-0.106,1.873-0.33l20.04-7.26c2.856-1.035,4.332-4.188,3.297-7.044C209.883,187.427,206.731,185.949,203.872,186.985 z" fill="#4CAF50"/><path d="M257.619,147.224l-20.05-7.26c-2.856-1.034-6.01,0.443-7.044,3.299c-1.034,2.856,0.443,6.01,3.299,7.044l20.05,7.26 c0.618,0.224,1.25,0.33,1.872,0.33c2.25,0,4.362-1.391,5.172-3.629C261.952,151.412,260.475,148.258,257.619,147.224z" fill="#4CAF50"/><path d="M203.872,139.964l-20.04,7.26c-2.856,1.035-4.332,4.188-3.297,7.044c0.811,2.238,2.921,3.628,5.171,3.628 c0.622,0,1.254-0.106,1.873-0.33l20.04-7.26c2.856-1.035,4.332-4.188,3.297-7.044C209.883,140.406,206.731,138.929,203.872,139.964 z" fill="#4CAF50"/><path d="M257.619,217.755l-20.05-7.26c-2.856-1.034-6.01,0.443-7.044,3.299c-1.034,2.856,0.443,6.01,3.299,7.044l20.05,7.26 c0.618,0.224,1.25,0.33,1.872,0.33c2.25,0,4.362-1.391,5.172-3.629C261.952,221.942,260.475,218.789,257.619,217.755z" fill="#4CAF50"/><path d="M203.872,210.495l-20.04,7.26c-2.856,1.035-4.332,4.188-3.297,7.044c0.811,2.238,2.921,3.628,5.171,3.628 c0.622,0,1.254-0.106,1.873-0.33l20.04-7.26c2.856-1.035,4.332-4.188,3.297-7.044C209.883,210.937,206.731,209.46,203.872,210.495z " fill="#4CAF50"/><path d="M257.619,241.265l-20.05-7.26c-2.856-1.034-6.01,0.443-7.044,3.299c-1.034,2.856,0.443,6.01,3.299,7.044l20.05,7.26 c0.618,0.224,1.25,0.33,1.872,0.33c2.25,0,4.362-1.391,5.172-3.629C261.952,245.453,260.475,242.299,257.619,241.265z" fill="#4CAF50"/><path d="M203.872,234.005l-20.04,7.26c-2.856,1.035-4.332,4.188-3.297,7.044c0.811,2.238,2.921,3.628,5.171,3.628 c0.622,0,1.254-0.106,1.873-0.33l20.04-7.26c2.856-1.035,4.332-4.188,3.297-7.044C209.883,234.448,206.731,232.971,203.872,234.005 z" fill="#4CAF50"/><path d="M257.619,264.775l-20.05-7.26c-2.856-1.035-6.01,0.443-7.044,3.299c-1.034,2.856,0.443,6.01,3.299,7.044l20.05,7.26 c0.618,0.224,1.25,0.33,1.872,0.33c2.25,0,4.362-1.391,5.172-3.629C261.952,268.963,260.475,265.809,257.619,264.775z" fill="#4CAF50"/><path d="M203.872,257.515l-20.04,7.26c-2.856,1.035-4.332,4.188-3.297,7.044c0.811,2.238,2.921,3.628,5.171,3.628 c0.622,0,1.254-0.106,1.873-0.33l20.04-7.26c2.856-1.035,4.332-4.188,3.297-7.044C209.883,257.958,206.731,256.48,203.872,257.515z " fill="#4CAF50"/><path d="M257.619,288.285l-20.05-7.26c-2.856-1.034-6.01,0.443-7.044,3.299c-1.034,2.856,0.443,6.01,3.299,7.044l20.05,7.26 c0.618,0.224,1.25,0.33,1.872,0.33c2.25,0,4.362-1.391,5.172-3.629C261.952,292.473,260.475,289.32,257.619,288.285z" fill="#4CAF50"/><path d="M203.872,281.026l-20.04,7.26c-2.856,1.035-4.332,4.188-3.297,7.044c0.811,2.238,2.921,3.628,5.171,3.628 c0.622,0,1.254-0.106,1.873-0.33l20.04-7.26c2.856-1.035,4.332-4.188,3.297-7.044C209.883,281.468,206.731,279.991,203.872,281.026 z" fill="#4CAF50"/><path d="M219.843,399.916c0.22,0,0.443-0.013,0.667-0.04c3.016-0.365,5.165-3.105,4.8-6.12c-0.936-7.737-2.775-15.349-5.468-22.624 c-1.054-2.849-4.221-4.304-7.067-3.249c-2.849,1.054-4.303,4.218-3.249,7.067c2.395,6.47,4.031,13.242,4.863,20.126 C214.727,397.867,217.1,399.916,219.843,399.916z" fill="#4CAF50"/><path d="M209.185,350.393c-4.426-6.513-9.633-12.409-15.478-17.523c-2.286-2.001-5.76-1.768-7.761,0.517 c-2,2.286-1.769,5.761,0.517,7.761c5.14,4.498,9.724,9.689,13.623,15.428c1.064,1.566,2.793,2.409,4.554,2.409 c1.064,0,2.14-0.308,3.086-0.951C210.239,356.326,210.892,352.906,209.185,350.393z" fill="#4CAF50"/><path d="M220.547,410.95c-3.014-0.352-5.748,1.809-6.1,4.826c-0.436,3.738-1.122,7.464-2.039,11.074 c-0.748,2.944,1.032,5.937,3.976,6.685c0.455,0.115,0.91,0.171,1.358,0.171c2.456,0,4.694-1.657,5.327-4.147 c1.037-4.081,1.812-8.29,2.304-12.509C225.726,414.033,223.564,411.302,220.547,410.95z" fill="#4CAF50"/><path d="M336.864,124.906h75.81c2.907,0,5.312-2.262,5.49-5.163l0.011-0.169c0.023-0.341,0.042-0.682,0.042-1.029 c0-9.021-6.244-16.67-14.737-18.719c-4.455-8.171-13.171-13.469-22.617-13.469c-7.383,0-14.342,3.191-19.171,8.578 c-2.677-1.115-5.55-1.691-8.509-1.691c-12.29,0-22.288,9.998-22.288,22.288c0,1.685,0.207,3.414,0.615,5.139 C332.099,123.153,334.314,124.906,336.864,124.906z M353.185,104.244c2.449,0,4.789,0.787,6.766,2.275 c1.265,0.952,2.878,1.313,4.426,0.991c1.549-0.322,2.885-1.295,3.666-2.672c2.617-4.615,7.53-7.481,12.822-7.481 c6.045,0,11.569,3.791,13.746,9.433c0.777,2.014,2.661,3.388,4.816,3.511c2.656,0.153,4.962,1.55,6.363,3.604h-63.775 C342.804,108.449,347.513,104.244,353.185,104.244z" fill="#4CAF50"/><path d="M31.408,58.139h108.832c2.903,0,5.307-2.257,5.489-5.154l0.017-0.247c0.03-0.442,0.057-0.885,0.057-1.335 c0-12.192-8.701-22.475-20.363-24.772C119.63,15.119,107.619,7.59,94.573,7.59c-10.502,0-20.366,4.811-26.866,12.843 c-3.991-1.945-8.356-2.955-12.87-2.955c-16.322,0-29.6,13.279-29.6,29.6c0,2.235,0.275,4.532,0.818,6.827 C26.642,56.386,28.858,58.139,31.408,58.139z M36.237,47.077c0-10.256,8.344-18.6,18.6-18.6c4.039,0,7.896,1.296,11.154,3.748 c1.265,0.952,2.877,1.312,4.426,0.99c1.549-0.322,2.885-1.295,3.665-2.672c4.182-7.374,12.033-11.954,20.49-11.954 c9.661,0,18.49,6.059,21.968,15.076c0.777,2.014,2.661,3.388,4.816,3.511c6.057,0.348,11.06,4.45,12.792,9.962H36.237 C36.237,47.118,36.237,47.098,36.237,47.077z" fill="#4CAF50"/></symbol><symbol id="diploma" viewBox="0 0 512 512"><title>diploma</title><g> <g> <path d="M318.168,0H10.66v512h383.992V76.5L318.168,0z M319.996,32l42.656,42.664h-42.656V32z M373.34,490.656H31.996V21.336 h266.656V96h74.688V490.656z" fill="#4CAF50"/> </g> </g><g> <g> <path d="M319.996,373.344h-64c-5.891,0-10.664,4.766-10.664,10.656s4.773,10.656,10.664,10.656h64 c5.891,0,10.656-4.766,10.656-10.656S325.887,373.344,319.996,373.344z" fill="#4CAF50"/> </g> </g><g> <g> <path d="M319.996,192H85.332c-5.898,0-10.672,4.773-10.672,10.664s4.773,10.672,10.672,10.672h234.664 c5.891,0,10.656-4.781,10.656-10.672S325.887,192,319.996,192z" fill="#4CAF50"/> </g> </g><g> <g> <path d="M319.996,256H85.332c-5.898,0-10.672,4.773-10.672,10.664c0,5.898,4.773,10.68,10.672,10.68h234.664 c5.891,0,10.656-4.781,10.656-10.68C330.652,260.773,325.887,256,319.996,256z" fill="#4CAF50"/> </g> </g><g> <g> <path d="M202.66,128H85.332c-5.898,0-10.672,4.773-10.672,10.664s4.774,10.672,10.672,10.672H202.66 c5.891,0,10.672-4.781,10.672-10.672S208.551,128,202.66,128z" fill="#4CAF50"/> </g> </g><g> <g> <path d="M127.996,320c-29.453,0-53.336,23.875-53.336,53.344c0,17.438,8.383,32.938,21.336,42.656v53.344l32-10.688l32,10.688V416 c12.953-9.719,21.336-25.219,21.336-42.656C181.332,343.875,157.449,320,127.996,320z M138.66,439.734l-3.922-1.297l-6.742-2.25 l-6.75,2.25l-3.914,1.297v-14.141c3.445,0.703,7.008,1.062,10.664,1.062s7.219-0.359,10.664-1.062V439.734z M127.996,405.344 c-17.648,0-32-14.375-32-32c0-17.656,14.352-32,32-32s32,14.344,32,32C159.996,390.969,145.645,405.344,127.996,405.344z" fill="#4CAF50"/> </g> </g><g> <g> <path d="M501.34,128c0-23.57-19.109-42.672-42.688-42.672c-23.562,0-42.656,19.102-42.656,42.672v288h13.234l-13.234,46.219 l42.656,28.438l42.688-28.438L488.09,416h13.25V128z M458.652,465.031l-17.859-11.906L451.418,416h14.484l10.625,37.125 L458.652,465.031z M479.996,394.656H437.34V128c0-11.766,9.562-21.336,21.312-21.336c11.781,0,21.344,9.57,21.344,21.336V394.656z " fill="#4CAF50"/> </g> </g><g> <g> <path d="M127.996,362.656c-5.891,0-10.664,4.781-10.664,10.688c0,5.875,4.773,10.656,10.664,10.656 c5.891,0,10.664-4.781,10.664-10.656C138.66,367.438,133.887,362.656,127.996,362.656z" fill="#4CAF50"/> </g> </g></symbol><symbol id="home" viewBox="0 0 512 512"><title>home</title><path d="M135.91,462.046c-3.465-20.062-21.001-35.379-42.044-35.379c-16.802,0-31.36,9.762-38.315,23.91 c-1.374-0.981-2.842-1.852-4.352-2.637V307.2c0-4.71-3.823-8.533-8.533-8.533c-4.71,0-8.533,3.823-8.533,8.533v136.533 C15.309,443.733,0,459.042,0,477.867S15.309,512,34.133,512H128c14.114,0,25.6-11.486,25.6-25.6 C153.6,475.042,146.167,465.391,135.91,462.046z M128,494.933H34.133c-9.412,0-17.067-7.654-17.067-17.067 S24.721,460.8,34.133,460.8c7.962,0,15.036,4.625,17.604,11.52c1.442,3.866,5.436,6.144,9.515,5.41 c4.062-0.734,7.014-4.267,7.014-8.397c0-14.114,11.486-25.6,25.6-25.6s25.6,11.486,25.6,25.6c0,4.71,3.823,8.533,8.533,8.533 c4.702,0,8.533,3.831,8.533,8.533S132.702,494.933,128,494.933z" fill="#4CAF50"/><path d="M503.467,68.267H341.333c-4.71,0-8.533,3.823-8.533,8.533s3.823,8.533,8.533,8.533h153.6v184.201l-232.9-232.9 c-1.673-1.673-3.866-2.5-6.059-2.5s-4.386,0.828-6.059,2.5L17.067,269.525V85.333h93.867c4.71,0,8.533-3.823,8.533-8.533V42.667 c0-4.71-3.823-8.533-8.533-8.533H102.4V17.067h51.2v17.067h-8.533c-4.71,0-8.533,3.823-8.533,8.533V76.8 c0,4.71,3.823,8.533,8.533,8.533h25.6c4.71,0,8.533-3.823,8.533-8.533s-3.823-8.533-8.533-8.533H153.6V51.2h8.533 c4.71,0,8.533-3.823,8.533-8.533V8.533c0-4.71-3.823-8.533-8.533-8.533H93.867c-4.71,0-8.533,3.823-8.533,8.533v34.133 c0,4.71,3.823,8.533,8.533,8.533h8.533v17.067H8.533c-2.261,0-4.437,0.896-6.033,2.5C0.896,72.363,0,74.539,0,76.8l0.034,213.333 c0,3.456,2.082,6.562,5.274,7.885c1.058,0.435,2.159,0.649,3.26,0.649c2.227,0,4.412-0.87,6.033-2.5L255.974,54.707 l241.459,241.459c1.63,1.63,3.814,2.5,6.033,2.5c1.101,0,2.21-0.213,3.268-0.649c3.183-1.323,5.265-4.437,5.265-7.885V76.8 C512,72.09,508.177,68.267,503.467,68.267z" fill="#4CAF50"/><path d="M477.867,443.733V307.2c0-4.71-3.823-8.533-8.533-8.533s-8.533,3.823-8.533,8.533v140.74 c-1.51,0.785-2.978,1.655-4.352,2.637c-6.955-14.148-21.513-23.91-38.315-23.91c-21.043,0-38.579,15.317-42.044,35.379 c-10.257,3.345-17.69,12.996-17.69,24.354c0,3.012,0.614,5.854,1.579,8.533H213.333c-4.71,0-8.533,3.823-8.533,8.533 s3.823,8.533,8.533,8.533H384h34.133h59.733C496.691,512,512,496.691,512,477.867S496.691,443.733,477.867,443.733z M477.867,494.933h-59.733H384c-4.702,0-8.533-3.831-8.533-8.533s3.831-8.533,8.533-8.533c4.71,0,8.533-3.823,8.533-8.533 c0-14.114,11.486-25.6,25.6-25.6s25.6,11.486,25.6,25.6c0,4.13,2.953,7.663,7.014,8.397c4.053,0.742,8.073-1.545,9.515-5.41 c2.568-6.895,9.643-11.52,17.604-11.52c9.412,0,17.067,7.654,17.067,17.067S487.279,494.933,477.867,494.933z" fill="#4CAF50"/><path d="M290.133,170.667c0-18.825-15.309-34.133-34.133-34.133c-18.825,0-34.133,15.309-34.133,34.133S237.175,204.8,256,204.8 C274.825,204.8,290.133,189.491,290.133,170.667z M238.933,170.667c0-9.412,7.654-17.067,17.067-17.067 c9.412,0,17.067,7.654,17.067,17.067c0,9.412-7.654,17.067-17.067,17.067C246.588,187.733,238.933,180.079,238.933,170.667z" fill="#4CAF50"/><path d="M418.133,290.133h-68.267c-4.71,0-8.533,3.823-8.533,8.533v93.867H332.8c-4.71,0-8.533,3.823-8.533,8.533 s3.823,8.533,8.533,8.533h102.4c4.71,0,8.533-3.823,8.533-8.533s-3.823-8.533-8.533-8.533h-8.533v-93.867 C426.667,293.956,422.844,290.133,418.133,290.133z M409.6,392.533h-51.2V358.4h51.2V392.533z M409.6,341.333h-51.2V307.2h51.2 V341.333z" fill="#4CAF50"/><path d="M341.333,469.333c0-4.71-3.823-8.533-8.533-8.533h-25.6V298.667c0-4.71-3.823-8.533-8.533-8.533h-85.333 c-4.71,0-8.533,3.823-8.533,8.533V460.8h-25.6c-4.71,0-8.533,3.823-8.533,8.533v34.133c0,4.71,3.823,8.533,8.533,8.533 s8.533-3.823,8.533-8.533v-25.6H332.8C337.51,477.867,341.333,474.044,341.333,469.333z M290.133,375.467H281.6 c-4.71,0-8.533,3.823-8.533,8.533s3.823,8.533,8.533,8.533h8.533V460.8h-68.267V307.2h68.267V375.467z" fill="#4CAF50"/><path d="M162.133,290.133H93.867c-4.71,0-8.533,3.823-8.533,8.533v93.867H76.8c-4.71,0-8.533,3.823-8.533,8.533 S72.09,409.6,76.8,409.6h102.4c4.71,0,8.533-3.823,8.533-8.533s-3.823-8.533-8.533-8.533h-8.533v-93.867 C170.667,293.956,166.844,290.133,162.133,290.133z M153.6,392.533h-51.2V358.4h51.2V392.533z M153.6,341.333h-51.2V307.2h51.2 V341.333z" fill="#4CAF50"/></symbol></svg>