<?xml version="1.0" encoding="utf-8"?>
<!-- Generator: Adobe Illustrator 20.1.0, SVG Export Plug-In . SVG Version: 6.00 Build 0)  -->
<svg version="1.1" id="Layer_1" xmlns="http://www.w3.org/2000/svg" xmlns:xlink="http://www.w3.org/1999/xlink" x="0px" y="0px"
	 width="180px" height="83px" viewBox="0 0 180 83" style="enable-background:new 0 0 180 83;" xml:space="preserve">
<style type="text/css">
	.st0{fill:#063314;}
	.st1{fill:#D0DA54;stroke:#063314;stroke-width:1.3903;stroke-miterlimit:10;}
</style>
<g>
	<g>
		<path class="st0" d="M24.4,81.7c-0.3,0-0.5-0.1-0.6-0.1c-0.2,0-0.4,0-0.6,0.1c-0.1-0.3-0.3-0.6-0.5-1c-0.2-0.3-0.4-0.6-0.7-0.9
			l-0.6,0.8v0c0,0.5,0,0.8,0.1,1.1c-0.2,0-0.4-0.1-0.5-0.1c-0.1,0-0.3,0-0.5,0.1c0.1-0.3,0.1-0.8,0.1-1.3c0-1.3,0-1.8,0-1.5
			c0-0.6-0.1-1.1-0.1-1.4c0.2,0,0.4,0,0.5,0s0.3,0,0.5,0c-0.1,0.7-0.1,1.3-0.1,1.6v0.6c0.5-0.6,0.8-1,0.8-1.1
			c0.4-0.6,0.6-0.9,0.6-1.1c0,0,0-0.1,0-0.1c0.3,0,0.5,0,0.6,0c0.1,0,0.4,0,0.7,0c-0.4,0.3-1,0.9-1.6,1.7
			C23.1,80,23.7,80.9,24.4,81.7z"/>
		<path class="st0" d="M32,79.5c0,0.7-0.2,1.2-0.5,1.6c-0.3,0.4-0.8,0.6-1.5,0.6c-0.7,0-1.2-0.2-1.5-0.6c-0.3-0.4-0.5-0.9-0.5-1.5
			c0-0.7,0.2-1.2,0.5-1.6c0.3-0.4,0.8-0.6,1.5-0.6c0.6,0,1.1,0.2,1.5,0.6C31.8,78.4,32,78.9,32,79.5z M31.2,79.6
			c0-1.1-0.4-1.7-1.1-1.7c-0.8,0-1.2,0.6-1.2,1.7c0,1.1,0.4,1.7,1.2,1.7C30.8,81.2,31.2,80.7,31.2,79.6z"/>
		<path class="st0" d="M39.7,77.5l-0.2,0.8c-0.2-0.2-0.6-0.3-1.1-0.3v2.6c0,0.3,0.1,0.6,0.2,0.9h-1.2c0.1-0.3,0.2-0.6,0.2-0.9v-2.6
			h-0.2c-0.5,0-0.9,0.1-1.2,0.3l0.2-0.8H39.7z"/>
		<path class="st0" d="M47.6,77.5l-0.2,0.8c-0.2-0.2-0.6-0.3-1.1-0.3v2.6c0,0.3,0.1,0.6,0.2,0.9h-1.2c0.1-0.3,0.2-0.6,0.2-0.9v-2.6
			h-0.2c-0.5,0-0.9,0.1-1.2,0.3l0.2-0.8H47.6z"/>
		<path class="st0" d="M55.3,79.2c0,0.1,0,0.3,0,0.4h-2.7c0.1,1.1,0.6,1.6,1.5,1.6c0.5,0,0.8-0.1,1.1-0.4C55.1,81,55,81.3,55,81.5
			c-0.3,0.1-0.7,0.1-1.1,0.1c-0.7,0-1.2-0.2-1.6-0.6c-0.4-0.4-0.6-0.9-0.6-1.6c0-0.6,0.2-1.1,0.5-1.5c0.3-0.4,0.8-0.6,1.4-0.6
			c0.5,0,0.9,0.2,1.2,0.5C55.1,78.2,55.3,78.6,55.3,79.2z M54.5,79.2c0-0.9-0.3-1.3-0.9-1.3c-0.6,0-1,0.4-1,1.3H54.5z"/>
		<path class="st0" d="M63.8,82.2c-0.1,0-0.1,0-0.2,0c0,0-0.1,0-0.2,0c-0.1,0-0.2,0-0.2,0l-0.1,0c0-0.1,0-0.2,0-0.2
			c0-0.1,0-0.2-0.1-0.3h-2.9c0,0.1-0.1,0.2-0.1,0.3c0,0.1,0,0.1,0,0.2l-0.1,0c-0.1,0-0.1,0-0.2,0c-0.1,0-0.2,0-0.2,0
			c-0.1,0-0.2,0-0.2,0c0-0.2,0-0.4,0.1-0.6c0.1-0.3,0.2-0.5,0.3-0.5c0,0,0,0,0,0c0,0,0,0,0,0c0,0,0.1,0,0.1,0c0-0.2,0.1-0.3,0.1-0.4
			c0.3-0.7,0.6-1.5,0.8-2.2c0.1-0.2,0.1-0.3,0.2-0.5c0.1-0.2,0.1-0.4,0.1-0.5c0.2,0,0.3,0,0.5,0c0.1,0,0.3,0,0.5,0
			c0.2,0.7,0.5,1.5,0.9,2.6c0.1,0.2,0.2,0.6,0.3,1c0.1,0,0.1,0.1,0.3,0.1c0.1,0,0.2,0.1,0.2,0.4C63.8,81.6,63.8,81.8,63.8,82.2z
			 M62.4,81.1c0-0.1,0-0.3-0.1-0.4c-0.2-0.6-0.5-1.4-0.8-2.6c-0.1,0.3-0.2,0.8-0.5,1.5c-0.2,0.6-0.4,1.1-0.4,1.5L62.4,81.1
			L62.4,81.1z"/>
		<path class="st0" d="M74.6,81.7c-0.3,0-0.5-0.1-0.6-0.1c-0.2,0-0.4,0-0.6,0.1c-0.1-0.3-0.3-0.6-0.5-1c-0.2-0.3-0.4-0.6-0.7-0.9
			l-0.6,0.8v0c0,0.5,0,0.8,0.1,1.1c-0.2,0-0.4-0.1-0.5-0.1s-0.3,0-0.5,0.1c0.1-0.3,0.1-0.7,0.1-1.1l-0.6-0.7
			c-0.2,0.3-0.4,0.6-0.7,0.9c-0.3,0.4-0.4,0.7-0.5,1c-0.2,0-0.4-0.1-0.6-0.1c-0.1,0-0.3,0-0.6,0.1c0.7-0.8,1.3-1.7,1.9-2.5
			c-0.6-0.8-1.2-1.4-1.6-1.7c0.3,0,0.6,0,0.7,0c0.1,0,0.4,0,0.6,0c0,0.1,0,0.1,0,0.1c0,0.3,0.5,1,1.4,2.1v-0.9c0-0.5,0-1-0.1-1.3
			c0.2,0,0.4,0,0.5,0c0.1,0,0.3,0,0.5,0c-0.1,0.7-0.1,1.3-0.1,1.6v0.6c0.5-0.7,0.8-1,0.8-1.1c0.4-0.6,0.6-0.9,0.6-1.1
			c0,0,0-0.1,0-0.1c0.3,0,0.5,0,0.6,0c0.1,0,0.4,0,0.7,0c-0.4,0.3-1,0.9-1.6,1.7C73.3,80,73.9,80.9,74.6,81.7z"/>
		<path class="st0" d="M82.4,81.7c-0.2,0-0.4,0-0.5,0c-0.1,0-0.3,0-0.5,0c0.1-0.3,0.1-0.7,0.1-1.2v-0.6h-1.7v0.9c0,0.4,0,0.8,0.1,1
			c-0.2,0-0.4,0-0.5,0c-0.1,0-0.3,0-0.5,0c0.1-0.3,0.1-0.7,0.1-1.2v-1.7c0-0.5,0-0.9-0.1-1.3c0.2,0,0.4,0,0.5,0s0.3,0,0.5,0
			c-0.1,0.7-0.1,1.3-0.1,1.8h1.7c0-0.3,0-0.6,0-0.9c0-0.3,0-0.6-0.1-0.9c0.2,0,0.4,0,0.5,0s0.3,0,0.5,0c-0.1,0.7-0.1,1.3-0.1,1.6
			v1.6C82.3,81.1,82.3,81.4,82.4,81.7z"/>
		<path class="st0" d="M90,80.5c0,0.4-0.1,0.7-0.3,0.8c-0.2,0.2-0.5,0.3-0.8,0.3h-2l-0.1,0c0.1-0.3,0.1-0.6,0.1-1c0-0.1,0-0.4,0-1
			c0-1.1-0.1-1.9-0.2-2.3l1,0l-0.1,0.5v1.3l0.5,0c0.4,0,0.7,0.1,1.1,0.2l0,0C89.7,79.7,90,80,90,80.5z M89.2,80.5
			c0-0.3-0.1-0.5-0.4-0.6c-0.2-0.1-0.4-0.1-0.8-0.1c0,0-0.1,0-0.2,0c-0.1,0-0.2,0-0.2,0v1.4c0.1,0,0.1,0,0.2,0c0.1,0,0.2,0,0.2,0
			C88.8,81.2,89.2,80.9,89.2,80.5z M91.2,81.7c-0.2,0-0.4,0-0.5,0c-0.1,0-0.3,0-0.5,0c0.1-0.3,0.1-0.8,0.1-1.3c0-1.3,0-1.8,0-1.5
			c0-0.6-0.1-1.1-0.1-1.4c0.2,0,0.4,0,0.5,0c0.1,0,0.3,0,0.5,0c-0.1,0.7-0.2,1.3-0.2,1.6v1.6C91.1,81.1,91.1,81.4,91.2,81.7z"/>
		<path class="st0" d="M99,81.7c-0.2,0-0.4,0-0.5,0c-0.1,0-0.3,0-0.5,0c0.1-0.4,0.2-0.8,0.2-1.4c0-0.2,0-0.7,0-1.5v-0.2l-1.8,3.1
			c-0.1,0-0.1,0-0.2,0c-0.2,0-0.4,0-0.6,0c0.1-0.3,0.1-0.7,0.1-1.2v-1.7c0-0.5,0-0.9-0.1-1.3c0.2,0,0.4,0,0.5,0s0.3,0,0.5,0
			c-0.1,0.7-0.2,1.7-0.2,2.9l1.7-2.8c0,0,0.1,0,0.1,0c0.2,0,0.4,0,0.8-0.1c-0.1,0.7-0.1,1.3-0.1,1.6v1.6
			C98.9,81.1,98.9,81.4,99,81.7z M98.5,76.2c-0.6,0.5-1,0.8-1.2,0.8c-0.2,0-0.7-0.3-1.2-0.8c0.1-0.1,0.2-0.2,0.2-0.3
			c0.4,0.3,0.7,0.5,1,0.5c0.3,0,0.7-0.2,1-0.5C98.4,76.1,98.5,76.1,98.5,76.2z"/>
		<path class="st0" d="M112.7,77.5c-0.1,0.7-0.2,1.3-0.2,1.6v1.6c0,0.4,0,0.7,0.1,1c-0.2,0-0.4,0-0.5,0c-0.1,0-0.3,0-0.5,0
			c0.1-0.3,0.1-1.1,0.1-2.2c0-0.2,0-0.4,0-0.7c0-0.5,0-0.7,0-0.7h-1.7v2.6c0,0.5,0,0.8,0.1,1.1c-0.2,0-0.4,0-0.5,0
			c-0.1,0-0.3,0-0.5,0c0.1-0.3,0.1-0.7,0.1-1.3v-1.7c0-0.5,0-0.9-0.1-1.2L112.7,77.5L112.7,77.5z"/>
		<path class="st0" d="M120.8,79.5c0,0.7-0.2,1.2-0.5,1.6c-0.3,0.4-0.8,0.6-1.5,0.6c-0.7,0-1.2-0.2-1.5-0.6
			c-0.3-0.4-0.5-0.9-0.5-1.5c0-0.7,0.2-1.2,0.5-1.6c0.3-0.4,0.8-0.6,1.5-0.6c0.6,0,1.1,0.2,1.5,0.6
			C120.7,78.4,120.8,78.9,120.8,79.5z M120,79.6c0-1.1-0.4-1.7-1.1-1.7c-0.8,0-1.2,0.6-1.2,1.7c0,1.1,0.4,1.7,1.2,1.7
			C119.7,81.2,120,80.7,120,79.6z"/>
		<path class="st0" d="M128.4,77.6c-0.1,0.2-0.2,0.5-0.2,0.7c-0.2-0.2-0.5-0.4-0.9-0.4c-0.4,0-0.8,0.2-1,0.5
			c-0.2,0.3-0.3,0.6-0.3,1.1c0,0.5,0.1,0.9,0.4,1.2c0.3,0.3,0.7,0.5,1.1,0.5c0.3,0,0.6-0.1,0.8-0.3c-0.1,0.2-0.1,0.4-0.2,0.6
			c-0.3,0.1-0.5,0.1-0.7,0.1c-0.7,0-1.2-0.2-1.6-0.6c-0.4-0.4-0.6-0.9-0.6-1.6c0-0.7,0.2-1.2,0.6-1.6c0.4-0.4,0.9-0.6,1.6-0.6
			C127.6,77.4,128,77.5,128.4,77.6z"/>
		<path class="st0" d="M135.9,79.2c0,0.1,0,0.3,0,0.4h-2.7c0.1,1.1,0.6,1.6,1.5,1.6c0.5,0,0.8-0.1,1.1-0.4c-0.1,0.2-0.1,0.5-0.2,0.8
			c-0.3,0.1-0.7,0.1-1.1,0.1c-0.7,0-1.2-0.2-1.6-0.6c-0.4-0.4-0.6-0.9-0.6-1.6c0-0.6,0.2-1.1,0.5-1.5c0.3-0.4,0.8-0.6,1.4-0.6
			c0.5,0,0.9,0.2,1.2,0.5C135.8,78.2,135.9,78.6,135.9,79.2z M135.1,79.2c0-0.9-0.3-1.3-0.9-1.3c-0.6,0-1,0.4-1,1.3H135.1z"/>
		<path class="st0" d="M143.9,81.7c-0.2,0-0.4,0-0.5,0c0,0-0.2,0-0.6,0c0,0,0-0.1,0-0.1c0-0.2-0.1-0.5-0.2-0.9
			c-0.2-0.6-0.5-1.4-0.8-2.6c0,0.1-0.2,0.7-0.6,1.8c-0.3,0.9-0.4,1.5-0.4,1.7c-0.2,0-0.4,0-0.5,0s-0.2,0-0.5,0
			c0.1-0.2,0.2-0.6,0.4-1s0.4-1,0.6-1.6c0.3-0.8,0.5-1.4,0.5-1.6c0.2,0,0.3,0,0.5,0c0.1,0,0.3,0,0.5,0
			C142.8,79.2,143.4,80.6,143.9,81.7z"/>
		<path class="st0" d="M151.6,79.5c0,0.7-0.2,1.2-0.5,1.6c-0.3,0.4-0.8,0.6-1.5,0.6c-0.7,0-1.2-0.2-1.5-0.6
			c-0.3-0.4-0.5-0.9-0.5-1.5c0-0.7,0.2-1.2,0.5-1.6c0.3-0.4,0.8-0.6,1.5-0.6c0.6,0,1.1,0.2,1.5,0.6
			C151.4,78.4,151.6,78.9,151.6,79.5z M150.8,79.6c0-1.1-0.4-1.7-1.1-1.7c-0.8,0-1.2,0.6-1.2,1.7c0,1.1,0.4,1.7,1.2,1.7
			C150.4,81.2,150.8,80.7,150.8,79.6z"/>
		<path class="st0" d="M159.9,81.7c-0.3,0-0.5-0.1-0.6-0.1c-0.2,0-0.4,0-0.6,0.1c-0.1-0.3-0.3-0.6-0.5-1c-0.2-0.3-0.4-0.6-0.7-0.9
			l-0.6,0.8v0c0,0.5,0,0.8,0.1,1.1c-0.2,0-0.4-0.1-0.5-0.1s-0.3,0-0.5,0.1c0.1-0.3,0.1-0.8,0.1-1.3c0-1.3,0-1.8,0-1.5
			c0-0.6-0.1-1.1-0.1-1.4c0.2,0,0.4,0,0.5,0s0.3,0,0.5,0c-0.1,0.7-0.1,1.3-0.1,1.6v0.6c0.5-0.6,0.8-1,0.8-1.1
			c0.4-0.6,0.6-0.9,0.6-1.1c0,0,0-0.1,0-0.1c0.3,0,0.5,0,0.6,0c0.1,0,0.4,0,0.7,0c-0.4,0.3-1,0.9-1.6,1.7
			C158.6,80,159.2,80.9,159.9,81.7z"/>
	</g>
	<g>
		<g>
			<g>
				<path class="st0" d="M9.9,46.3c2.5,0.3,5.1,0.6,7.6,0.9c0,2.9,0,5.7,0,8.6c0.1,5.4-4.6,6.6-8.1,6.4c-3.9-0.2-8.2-2.3-8.1-7.8
					c0-5.1,0-10.2,0-15.3c-0.1-5.6,4.5-6.5,8.1-5.8c3.6,0.7,8.1,3,8.1,8.3c0,1.1,0,1.6,0,2.6c-1.7-0.2-3.4-0.4-5.2-0.7
					c0-1.2,0-1.8,0-3c0-2-1.1-2.9-2.8-3.2c-1.7-0.3-2.8,0.3-2.8,2.3c0,5.1,0,10.3,0,15.4c0,2,1.1,2.9,2.8,3c1.7,0.1,2.8-0.5,2.8-2.5
					c0-2,0-3.1,0-5.1c-1-0.1-1.5-0.2-2.5-0.3C9.9,48.7,9.9,47.9,9.9,46.3z"/>
				<path class="st0" d="M33.9,63c-0.3-0.7-0.5-1.1-0.5-3.1c0-1.6,0-2.4,0-4c0.1-2.5-1.8-3.5-3.6-3.5c-0.8-0.1-1.1-0.1-1.9-0.2
					c0,3.5,0,7.1,0,10.6c-1.8-0.1-3.6-0.1-5.5-0.2c0-8.9-0.1-17.7-0.1-26.6c2.7,0.4,5.5,0.8,8.2,1.2c3.3,0.4,8.2,1.7,8.1,6.8
					c0,0.8,0,1.2,0,2c0.1,2.6-3.6,4.8-3.6,4.8c0,0.1,3.7,2.8,3.7,5.6c0,1.5,0,2.3,0,3.9c0,1.2,0.1,2.1,0.6,3
					C37.6,63.1,35.8,63.1,33.9,63z M27.9,40.5c0,2.7,0,5.3,0,8c0.9,0.1,1.3,0.1,2.1,0.2c2,0.2,3.3-0.4,3.3-2.4c0-1,0-1.5,0-2.5
					c0-1.8-0.9-2.7-2.8-3C29.4,40.7,28.9,40.6,27.9,40.5z"/>
				<path class="st0" d="M49.2,49.5c2.5,0.2,5,0.3,7.5,0.4c0,1.4,0,2,0,3.4c-2.5-0.1-5-0.2-7.5-0.4c0,2.4,0,4.7,0,7.1
					c3.2,0.1,6.3,0.2,9.5,0.3c0,1.3,0,2,0,3.4c-5-0.1-10-0.2-14.9-0.4c0-8.2-0.1-16.4-0.1-24.6c5,0.5,10,1,15,1.3c0,1.3,0,2,0,3.4
					c-3.2-0.2-6.3-0.4-9.5-0.7C49.2,45,49.2,47.3,49.2,49.5z"/>
				<path class="st0" d="M69,50.5c2.5,0.1,5,0.2,7.5,0.2c0,1.3,0,2,0,3.3c-2.5,0-5-0.1-7.5-0.2c0,2.3,0,4.5,0,6.8
					c3.2,0.1,6.3,0.1,9.5,0.1c0,1.3,0,2,0,3.3c-5,0-10-0.1-14.9-0.2c0-7.8-0.1-15.6-0.1-23.4c5,0.3,10,0.5,15,0.7c0,1.3,0,2,0,3.3
					c-3.2-0.1-6.3-0.2-9.5-0.3C68.9,46.2,68.9,48.3,69,50.5z"/>
				<path class="st0" d="M88.1,47.5c0,5.5,0,11,0,16.5c-1.6,0-3.3,0-4.9,0c0-7.6,0-15.2,0-22.8c2.3,0,4.6,0.1,6.9,0.1
					c1.9,4.5,3.8,9.1,5.6,13.6c0-4.5,0-9.1,0-13.6c1.6,0,3.3-0.1,4.9-0.1c0,7.6,0,15.2,0,22.9c-1.9,0-3.8,0-5.6,0
					C92.6,58.5,90.4,53,88.1,47.5z"/>
				<path class="st0" d="M118,51.3c-0.7,4.2-1.4,8.3-2,12.5c-2.5,0-5,0.1-7.5,0.1c-1.3-7.6-2.5-15.3-3.8-22.9
					c1.8-0.1,3.6-0.1,5.3-0.2c1,6.1,1.9,12.1,2.9,18.2c0.9-6.1,1.8-12.3,2.7-18.4c1.8-0.1,3.5-0.2,5.3-0.3
					c0.9,6.2,1.8,12.4,2.7,18.6c1-6.4,2-12.7,2.9-19.1c1.6-0.1,3.2-0.3,4.8-0.4c-1.3,8.1-2.6,16.2-4,24.3c-2.4,0.1-4.8,0.1-7.3,0.2
					C119.3,59.6,118.7,55.4,118,51.3z"/>
				<path class="st0" d="M135.3,38.9c1.8-0.2,3.7-0.4,5.5-0.6c0,8.3-0.1,16.6-0.1,24.9c-1.8,0.1-3.6,0.1-5.5,0.2
					C135.3,55.2,135.3,47,135.3,38.9z"/>
				<path class="st0" d="M146.1,37.6c1.8-0.2,3.6-0.5,5.5-0.7c0,7.4-0.1,14.8-0.1,22.2c3-0.2,6-0.3,9-0.5c0,1.5,0,2.3,0,3.8
					c-4.8,0.2-9.6,0.4-14.5,0.6C146.1,54.5,146.1,46.1,146.1,37.6z"/>
				<path class="st0" d="M164.3,34.9c1.8-0.3,3.6-0.6,5.4-1c0,8,0,16.1,0,24.1c3-0.2,6-0.4,9-0.7c0,1.7,0,2.5,0,4.2
					c-4.8,0.3-9.6,0.5-14.4,0.8C164.3,53.1,164.3,44,164.3,34.9z"/>
			</g>
			<path class="st0" d="M178.7,24.8C120.1,39,59.9,39,1.3,24.8c0,0.7,0,1.1,0,1.8c58.6,13.7,118.8,13.7,177.4,0
				C178.7,25.9,178.7,25.5,178.7,24.8z"/>
			<path class="st0" d="M178.7,19.3c-58.4,15.8-118.9,15.8-177.4,0c0,0.7,0,1.1,0,1.8c58.5,15.3,118.9,15.3,177.4,0
				C178.7,20.4,178.7,20,178.7,19.3z"/>
			<path class="st0" d="M178.7,65.8c-59.1,2-118.3,2-177.4,0c0,0.7,0,1.1,0,1.8c59.1,1.5,118.3,1.5,177.4,0
				C178.7,66.9,178.7,66.5,178.7,65.8z"/>
			<path class="st0" d="M178.7,71c-59.1,0.5-118.2,0.5-177.4,0c0,0.7,0,1.1,0,1.8c59.1,0,118.2,0,177.4,0
				C178.7,72,178.7,71.7,178.7,71z"/>
		</g>
	</g>
	<path class="st1" d="M110.8,17.5v-1h0c-0.3-4-2.5-7.7-6.2-10.5c-0.8-0.6-1.6-1.1-2.5-1.6l0,0c0,0-0.1,0-0.1,0
		c-2.8-1.6-6.1-2.6-9.6-2.9c0,0,0,0,0,0c-0.2,0-0.5,0-0.7-0.1c0,0,0,0-0.1,0c-0.2,0-0.5,0-0.7,0c-0.1,0-0.1,0-0.2,0
		c-0.2,0-0.5,0-0.7,0s-0.5,0-0.7,0c-0.1,0-0.1,0-0.2,0c-0.2,0-0.5,0-0.7,0c0,0,0,0-0.1,0c-0.2,0-0.5,0-0.7,0.1c0,0,0,0,0,0
		c-3.5,0.3-6.8,1.3-9.6,2.9c0,0-0.1,0-0.1,0l0,0c-0.9,0.5-1.7,1-2.5,1.6c-3.7,2.8-5.9,6.5-6.2,10.5h0v1c0,0,0,0,0,0
		c0,4.4,2.2,8.5,6.2,11.5c3.8,2.9,8.8,4.5,14.1,4.6c0.2,0,0.3,0,0.5,0c0.2,0,0.3,0,0.5,0c5.3-0.1,10.3-1.7,14.1-4.6
		C108.6,26,110.8,21.9,110.8,17.5C110.8,17.5,110.8,17.5,110.8,17.5z"/>
	<path class="st0" d="M107.4,16.7h-8.8H98v1.7h0.7h7c-0.3,2.8-1.8,5.4-4.5,7.4c-3,2.3-6.9,3.5-11.2,3.5s-8.2-1.3-11.2-3.5
		c-2.9-2.2-4.5-5.2-4.5-8.3s1.6-6.1,4.5-8.3c3-2.3,6.9-3.5,11.2-3.5c3,0,5.9,0.6,8.5,1.9c-0.8,1.7-2.7,5.6-4.1,9
		c-1.5-3.4-3.2-6.9-3.6-7.5L90,7.5l-0.8,1.5c-0.3,0.6-2.1,4.2-3.6,7.6c-1.5-3.4-3.2-6.9-3.6-7.6l-1.5,0.8c1.3,2.5,3,6.2,4.2,9
		c-0.7,1.7-1.2,3.2-1.2,4c0,2.4,0.7,3.6,2.1,3.6c1.4,0,2.1-1.2,2.1-3.6c0-0.8-0.5-2.3-1.2-4c0.9-2.3,2.3-5.1,3.4-7.5
		c1.1,2.3,2.5,5.2,3.4,7.5c-0.7,1.8-1.2,3.3-1.2,4c0,2.4,0.7,3.6,2.1,3.6c1.4,0,2.1-1.2,2.1-3.6c0-0.8-0.5-2.3-1.2-4
		c1.3-3.3,3.4-7.8,4.9-11l0.8-1.5c-3.3-1.7-7.1-2.6-11-2.6c-5,0-9.7,1.4-13.2,3.9c-3.6,2.6-5.6,6.1-5.6,9.8s2,7.2,5.6,9.8
		c3.5,2.5,8.2,3.9,13.2,3.9c5,0,9.7-1.4,13.2-3.9c3.6-2.6,5.6-6.1,5.6-9.8v-0.9L107.4,16.7L107.4,16.7z M85.7,24.7
		C85.7,24.7,85.6,24.7,85.7,24.7c-0.1,0-0.4-0.4-0.4-1.9c0-0.3,0.1-0.9,0.4-1.6c0.2,0.7,0.4,1.2,0.4,1.6
		C86,24.3,85.7,24.7,85.7,24.7z M94.4,24.7C94.4,24.7,94.3,24.7,94.4,24.7c-0.1,0-0.4-0.4-0.4-1.9c0-0.3,0.1-0.8,0.4-1.5
		c0.2,0.7,0.4,1.2,0.4,1.5C94.7,24.3,94.4,24.7,94.4,24.7z"/>
</g>
</svg>
