<?xml version="1.0" encoding="utf-8"?>
<!-- Generator: Adobe Illustrator 20.1.0, SVG Export Plug-In . SVG Version: 6.00 Build 0)  -->
<svg version="1.1" id="Layer_2" xmlns="http://www.w3.org/2000/svg" xmlns:xlink="http://www.w3.org/1999/xlink" x="0px" y="0px"
	 viewBox="0 0 59.7 48.2" style="enable-background:new 0 0 59.7 48.2;" xml:space="preserve">
<style type="text/css">
	.st0{fill:none;stroke:#24408F;stroke-width:0.5;stroke-miterlimit:10;}
	.st1{fill:#24408F;stroke:#24408F;stroke-miterlimit:10;}
</style>
<path class="st0" d="M11,24.9H1.5c-0.5,0-0.8-0.4-0.8-0.8l0,0c0-0.5,0.4-0.8,0.8-0.8H11c0.5,0,0.8,0.4,0.8,0.8l0,0
	C11.8,24.6,11.4,24.9,11,24.9z"/>
<g>
	<path class="st0" d="M58,22.7c-1.3-1.3-3.9-2.9-11-2.9L41.9,20L39,15.5l1.8-0.1c0.3,0,0.6-0.3,0.5-0.6l-0.1-2
		c0-0.3-0.3-0.6-0.6-0.5l-3.3,0.1c-0.1,0-0.2,0-0.2,0.1l-2.7-4.3l1.1,0c0.3,0,0.6-0.3,0.5-0.6l-0.1-2c0-0.3-0.3-0.6-0.6-0.5
		l-2.9,0.1l-3-4.8l-2.8,0.1l3.1,11.9l0.3,8.2l-18.7,0.8l-4.6-7.2H4.5L6,21.6l-1.4,0.1l-2,1.6H1.5c-0.5,0-0.8,0.4-0.8,0.8v0
		c0,0.5,0.4,0.8,0.8,0.8h1.2l2,1.6l1.7,0.1L5,33.2h2.3l4.1-6.4l18.4,0.8v8.1l-2.7,12h2.8l2.9-5h2.9c0.3,0,0.6-0.3,0.6-0.6v-2
		c0-0.3-0.3-0.6-0.6-0.6h-1.1l2.5-4.4c0.1,0,0.1,0,0.2,0h3.3c0.3,0,0.6-0.3,0.6-0.6v-2c0-0.3-0.3-0.6-0.6-0.6h-1.7l2.4-4.2l5.6,0.3
		c7.1,0,9.7-1.6,11-2.9C59.3,24.2,59.4,24.1,58,22.7z"/>
	<line class="st0" x1="47.1" y1="28.4" x2="4.8" y2="26.5"/>
	<line class="st0" x1="4.8" y1="21.7" x2="47.1" y2="19.8"/>
	<line class="st0" x1="41.9" y1="20" x2="32.6" y2="5.2"/>
	<line class="st0" x1="41.3" y1="28.2" x2="32.8" y2="42.9"/>
</g>
<g>
	<ellipse class="st1" cx="28.1" cy="24.1" rx="0.9" ry="0.8"/>
	<ellipse class="st1" cx="32.6" cy="24.1" rx="2.2" ry="2.1"/>
</g>
</svg>
