<?xml version="1.0" encoding="utf-8"?>
<!-- Generator: Adobe Illustrator 20.1.0, SVG Export Plug-In . SVG Version: 6.00 Build 0)  -->
<svg version="1.1" id="Слой_1" xmlns="http://www.w3.org/2000/svg" xmlns:xlink="http://www.w3.org/1999/xlink" x="0px" y="0px"
	 width="140px" height="140px" viewBox="0 0 140 140" style="enable-background:new 0 0 140 140;" xml:space="preserve">
<style type="text/css">
	.st0{fill:none;stroke:#272425;stroke-width:0.5236;stroke-miterlimit:10;}
	.st1{fill:#272425;}
	.st2{fill:none;stroke:#000000;stroke-width:1.5;stroke-miterlimit:10;}
</style>
<title>Ресурс 2</title>
<g id="XMLID_220_">
	<g>
		<path class="st0" d="M63.7,50.6c-0.2-0.8,0-1.6,0.6-2.2c0.5-0.6,1.3-0.9,2.2-0.8c6.1,0.8,19.5,4.1,34,18.2
			c0.2,0.2,0.2,0.4,0.1,0.6c-0.1,0.2-0.3,0.3-0.5,0.3l-26.8-1.9l0,0c-3.8-0.2-6.9-2.9-7.8-6.6L63.7,50.6z"/>
		<path class="st0" d="M57.2,50.2c-0.1-1.3-1.1-2.9-2.4-2.9H21.4c-8.3-0.1-9.5,2.6-9.8,5.2l-0.4,7.2c0,0.9,0.3,1.7,0.8,2.4
			s1.4,1,2.2,1l38.6,1.1c2,0,4.7,0.3,5.4-3.2L57.2,50.2z"/>
		<g id="XMLID_22_">
			<circle class="st0" cx="108.5" cy="88.3" r="10.9"/>
			<circle class="st1" cx="108.5" cy="88.3" r="3.2"/>
		</g>
		<circle class="st1" cx="22.6" cy="88.3" r="3"/>
		<circle class="st0" cx="22.6" cy="88.3" r="10.9"/>
		<path class="st0" d="M137.8,76.9l-1.7-0.5c-0.4-4.8-2.2-5.4-2.2-5.4c-6.7-5.8-19.3-7.7-25.1-8.3c-2-0.2-3.9-1-5.4-2.3
			C84,43.6,67.6,42.1,67.6,42.1c-25.2-2.3-45.7-1-53.9-0.4c-2.7,0.2-4.9,2.1-5.7,4.6C4.9,57.1,5.1,78.7,5.1,78.7l-2,1.3
			c-1.3,0.9-2.2,2.3-2.3,3.9l-0.1,1.5c-0.1,1.6,1,3,2.6,3.3l7.4,1.3c-0.1-0.6-0.1-1.2-0.1-1.9c0-6.6,5.4-12,12-12s12,5.4,12,12
			c0,1-0.1,2-0.3,2.9l63.5,1.6c-0.6-1.4-0.9-2.9-0.9-4.4c0-6.5,5.2-11.7,11.7-11.7s11.7,5.2,11.7,11.7c0,1.5-0.3,3-0.8,4.4l15-1.5
			c0.4,0,0.9-0.1,1.3-0.2c3.6-0.8,3.1-1.8,3.1-1.8C140.2,77.6,137.8,76.9,137.8,76.9z"/>
	</g>
	<g>
		<path class="st2" d="M63.7,50.6c-0.2-0.8,0-1.6,0.6-2.2c0.5-0.6,1.3-0.9,2.2-0.8c6.1,0.8,19.5,4.1,34,18.2
			c0.2,0.2,0.2,0.4,0.1,0.6c-0.1,0.2-0.3,0.3-0.5,0.3l-26.8-1.9l0,0c-3.8-0.2-6.9-2.9-7.8-6.6L63.7,50.6z"/>
		<path class="st2" d="M57.2,50.2c-0.1-1.3-1.1-2.9-2.4-2.9H21.4c-8.3-0.1-9.5,2.6-9.8,5.2l-0.4,7.2c0,0.9,0.3,1.7,0.8,2.4
			s1.4,1,2.2,1l38.6,1.1c2,0,4.7,0.3,5.4-3.2L57.2,50.2z"/>
		<g id="XMLID_21_">
			<circle class="st2" cx="108.5" cy="88.3" r="10.9"/>
			<circle class="st2" cx="108.5" cy="88.3" r="3.2"/>
		</g>
		<circle class="st2" cx="22.6" cy="88.3" r="3"/>
		<circle class="st2" cx="22.6" cy="88.3" r="10.9"/>
		<path class="st2" d="M137.8,76.9l-1.7-0.5c-0.4-4.8-2.2-5.4-2.2-5.4c-6.7-5.8-19.3-7.7-25.1-8.3c-2-0.2-3.9-1-5.4-2.3
			C84,43.6,67.6,42.1,67.6,42.1c-25.2-2.3-45.7-1-53.9-0.4c-2.7,0.2-4.9,2.1-5.7,4.6C4.9,57.1,5.1,78.7,5.1,78.7l-2,1.3
			c-1.3,0.9-2.2,2.3-2.3,3.9l-0.1,1.5c-0.1,1.6,1,3,2.6,3.3l7.4,1.3c-0.1-0.6-0.1-1.2-0.1-1.9c0-6.6,5.4-12,12-12s12,5.4,12,12
			c0,1-0.1,2-0.3,2.9l63.5,1.6c-0.6-1.4-0.9-2.9-0.9-4.4c0-6.5,5.2-11.7,11.7-11.7s11.7,5.2,11.7,11.7c0,1.5-0.3,3-0.8,4.4l15-1.5
			c0.4,0,0.9-0.1,1.3-0.2c3.6-0.8,3.1-1.8,3.1-1.8C140.2,77.6,137.8,76.9,137.8,76.9z"/>
	</g>
</g>
</svg>
