<?xml version="1.0" encoding="utf-8"?>
<!-- Generator: Adobe Illustrator 19.0.0, SVG Export Plug-In . SVG Version: 6.00 Build 0)  -->
<svg version="1.1" id="Layer_2" xmlns="http://www.w3.org/2000/svg" xmlns:xlink="http://www.w3.org/1999/xlink" x="0px" y="0px"
	 viewBox="-449.6 258.7 200 200" style="enable-background:new -449.6 258.7 200 200;" xml:space="preserve">
<metadata><?xpacket begin="﻿" id="W5M0MpCehiHzreSzNTczkc9d"?>
<x:xmpmeta xmlns:x="adobe:ns:meta/" x:xmptk="Adobe XMP Core 5.6-c067 79.157747, 2015/03/30-23:40:42        ">
   <rdf:RDF xmlns:rdf="http://www.w3.org/1999/02/22-rdf-syntax-ns#">
      <rdf:Description rdf:about=""/>
   </rdf:RDF>
</x:xmpmeta>
                                                                                                    
                                                                                                    
                                                                                                    
                                                                                                    
                                                                                                    
                                                                                                    
                                                                                                    
                                                                                                    
                                                                                                    
                                                                                                    
                                                                                                    
                                                                                                    
                                                                                                    
                                                                                                    
                                                                                                    
                                                                                                    
                                                                                                    
                                                                                                    
                                                                                                    
                                                                                                    
                           
<?xpacket end="w"?></metadata>
<style type="text/css">
	.st0{fill:none;stroke:#24408F;stroke-width:2.6571;stroke-miterlimit:10;}
	.st1{fill:none;stroke:#24408F;stroke-width:1.5;stroke-miterlimit:10;}
</style>
<g>
	<polyline class="st0" points="-340.6,329.1 -348.3,351.1 -356.8,336.5 	"/>
	<g>
		<path class="st1" d="M-293.3,339.2c0,4.8-5,9-6.4,13.3c-1.3,4.5,1.1,10.6-1.3,14.6c-2.4,4-8.8,5-12.2,8.5
			c-3.5,3.5-4.3,9.8-8.5,12.2c-4,2.4-10.1,0-14.6,1.3c-4.5,1.1-8.5,6.4-13.3,6.4c-4.8,0-9-5-13.3-6.4c-4.5-1.3-10.6,1.1-14.6-1.3
			c-4-2.4-5-8.8-8.5-12.2c-3.5-3.5-9.8-4.3-12.2-8.5c-2.4-4,0-10.1-1.3-14.6c-1.1-4.5-6.4-8.5-6.4-13.3s5-9,6.4-13.3
			c1.3-4.5-1.1-10.6,1.3-14.6c2.4-4,8.8-5,12.2-8.5c3.5-3.5,4.3-9.8,8.5-12.2c4-2.4,10.1,0,14.6-1.3c4.5-1.1,8.5-6.4,13.3-6.4
			c4.8,0,9,5,13.3,6.4c4.5,1.3,10.6-1.1,14.6,1.3c4,2.4,5,8.8,8.5,12.2c3.5,3.5,9.8,4.3,12.2,8.5c2.4,4,0,10.1,1.3,14.6
			C-298.3,330.1-293.3,334.4-293.3,339.2z"/>
	</g>
	<circle class="st1" cx="-349.6" cy="339.2" r="40.4"/>
	<polyline class="st1" points="-336.3,389.1 -336.3,434.5 -349.6,434.5 -349.6,395.2 -349.6,420.5 -362.9,420.5 -362.9,389.4 	"/>
</g>
</svg>
