<?xml version="1.0" encoding="utf-8"?>
<!-- Generator: Adobe Illustrator 20.1.0, SVG Export Plug-In . SVG Version: 6.00 Build 0)  -->
<svg version="1.1" id="Слой_1" xmlns="http://www.w3.org/2000/svg" xmlns:xlink="http://www.w3.org/1999/xlink" x="0px" y="0px"
	 width="140px" height="140px" viewBox="0 0 140 140" style="enable-background:new 0 0 140 140;" xml:space="preserve">
<style type="text/css">
	.st0{fill:none;}
</style>
<g>
	<path class="st0" d="M115.5,32.6c0-4.5-3.5-8.1-8-8.1h-66c-1.2,0-2.4,0.3-3.4,0.8c-2.7,1.3-4.6,4.1-4.6,7.3v8h82.1V32.6z"/>
	<path class="st0" d="M73,92.4c6.6,0.5,12.4-4.3,13-10.8c0-7.1-9.4-20.3-11.9-23.7c-2.5,3.4-11.9,16.6-11.9,23.7
		C62.6,87.2,67.3,91.9,73,92.4z M67.7,80c0.8,0,1.5,0.7,1.5,1.5c0,2.2,1.7,3.9,3.9,3.9c0.8,0,1.5,0.7,1.5,1.5s-0.7,1.5-1.5,1.5
		c-3.8,0-6.9-3.1-6.9-6.9C66.2,80.7,66.9,80,67.7,80z"/>
	<path class="st0" d="M32.2,42.1c-2.1,0-4,0.9-5.5,2.4c-1.4,1.5-2.2,3.5-2.2,5.6v19.3c0,1,0.4,2,1,2.6l6.6,6.9
		c0.5,0.5,0.8,1.3,0.8,2.1v26.5c-0.1,4.4,3.3,8,7.7,8.1H108c2.1,0,4-0.9,5.5-2.4c1.4-1.5,2.2-3.5,2.2-5.6V42.1H33.4H32.2z
		 M73.5,56.1l0.6-0.8l0.6,0.8c0.5,0.7,12.8,16.8,12.8,25.5l0,0.1c-0.6,7-6.5,12.2-13.4,12.2c-0.4,0-0.8,0-1.2-0.1
		c-6.4-0.5-11.7-5.8-12.2-12.2C60.6,72.8,73,56.8,73.5,56.1z"/>
	<path d="M117,31.9c-0.4-5-4.4-8.8-9.5-8.8h-0.1h-66h-0.1c-1.2,0-2.3,0.2-3.3,0.6c-3.6,1.3-6.1,4.8-6.1,8.9v8.1
		c-2.4,0.1-4.6,1.2-6.2,2.9c-1.7,1.8-2.6,4.2-2.6,6.6v19.3c0,1.4,0.5,2.7,1.4,3.6l6.6,6.9c0.2,0.2,0.4,0.6,0.4,1.1v26.5
		c-0.1,5.2,4,9.5,9.1,9.6H108c2.5-0.1,4.8-1.1,6.6-2.9c1.7-1.8,2.6-4.2,2.6-6.6V31.9H117z M33.4,32.6c0-3.2,1.9-6,4.6-7.3
		c1-0.5,2.2-0.8,3.4-0.8h66c4.5,0,8,3.5,8,8.1v8H33.4V32.6z M115.7,107.6c0,2.1-0.7,4.1-2.2,5.6c-1.4,1.5-3.4,2.4-5.5,2.4H40.6
		c-4.3-0.1-7.8-3.7-7.7-8.1V81.1c0-0.8-0.3-1.6-0.8-2.1l-6.6-6.9c-0.6-0.6-1-1.6-1-2.6V50.2c0-2.1,0.7-4.1,2.2-5.6
		c1.4-1.5,3.4-2.4,5.5-2.4h1.1h82.3V107.6z"/>
	<path d="M72.8,93.8c0.4,0,0.8,0.1,1.2,0.1c6.9,0,12.8-5.3,13.4-12.2l0-0.1c0-8.7-12.2-24.8-12.8-25.5l-0.6-0.8l-0.6,0.8
		C73,56.8,60.6,72.8,60.7,81.7C61.2,88.1,66.4,93.3,72.8,93.8z M74.1,57.9c2.5,3.4,11.8,16.6,11.9,23.7c-0.6,6.5-6.4,11.3-13,10.8
		c-5.7-0.5-10.3-5.1-10.8-10.8C62.1,74.4,71.6,61.2,74.1,57.9z"/>
	<path d="M73.1,88.4c0.8,0,1.5-0.7,1.5-1.5s-0.7-1.5-1.5-1.5c-2.2,0-3.9-1.7-3.9-3.9c0-0.8-0.7-1.5-1.5-1.5s-1.5,0.7-1.5,1.5
		C66.2,85.3,69.3,88.4,73.1,88.4z"/>
</g>
</svg>
