<?xml version="1.0" encoding="utf-8"?>
<!-- Generator: Adobe Illustrator 20.1.0, SVG Export Plug-In . SVG Version: 6.00 Build 0)  -->
<svg version="1.1" id="Слой_1" xmlns="http://www.w3.org/2000/svg" xmlns:xlink="http://www.w3.org/1999/xlink" x="0px" y="0px"
	 width="140px" height="140px" viewBox="0 0 140 140" style="enable-background:new 0 0 140 140;" xml:space="preserve">
<style type="text/css">
	.st0{fill:none;}
	.st1{fill:#23408F;}
</style>
<g>
	<path class="st0" d="M82.2,89L74,80.3l-3.7,4c0.7,0.7,1.7,1.2,2.8,1.2c0.8,0,1.5,0.7,1.5,1.5s-0.7,1.5-1.5,1.5
		c-1.9,0-3.6-0.8-4.8-2L65.7,89c1.9,1.8,4.4,3,7.2,3.2C76.4,92.6,79.8,91.3,82.2,89z"/>
	<path class="st0" d="M63.7,86.5l2.7-2.9c-0.2-0.7-0.3-1.4-0.3-2.1c0-0.8,0.7-1.5,1.5-1.5c0.6,0,1.1,0.4,1.4,0.9l2.8-2.9l-6.3-6.7
		c-1.9,3.7-3.4,7.4-3.4,10.3C62.2,83.3,62.8,85,63.7,86.5z"/>
	<path class="st0" d="M115.5,32.5c0-2.2-0.8-4.1-2.2-5.6c-1.5-1.5-3.5-2.5-5.9-2.5H41.3c-4.5,0-8,3.5-8,8v8h82.2V32.5z"/>
	<path class="st0" d="M67,68.3l6.9,7.3l6.9-7.3c-2.7-4.6-5.6-8.8-6.9-10.5C72.7,59.4,69.7,63.6,67,68.3z"/>
	<path class="st0" d="M82.5,71.2L76.2,78l8.1,8.5c0.9-1.5,1.5-3.2,1.6-5C85.8,78.7,84.4,74.9,82.5,71.2z"/>
	<path class="st0" d="M33.3,42h-1.1c-2.1,0-4,0.9-5.5,2.4c-1.4,1.5-2.2,3.5-2.2,5.6v19.3c0,1,0.4,2,1,2.6l6.6,6.9
		c0.5,0.5,0.8,1.3,0.8,2.1v26.5c-0.1,4.4,3.3,8,7.7,8H108c2.1,0,4-0.9,5.5-2.4c1.4-1.5,2.2-3.5,2.2-5.6V42H33.3z M87.3,81.5
		L87.3,81.5c-0.2,2.3-0.9,4.3-2.1,6.1l6.8,7.2L89.7,97l-6.5-6.9c-2.4,2.3-5.7,3.7-9.3,3.7c-0.4,0-0.8,0-1.2-0.1
		c-3.1-0.3-5.9-1.6-8.1-3.7l-6.4,7l-2.3-2.2l6.8-7.2c-1.1-1.8-1.9-3.8-2.1-6c0-3.2,1.7-7.4,3.8-11.5l-8.5-9l2.3-2.2l7.8,8.2
		c3.4-5.8,7.2-10.7,7.5-11.1l0.6-0.8l0.6,0.8c0.3,0.4,4,5.3,7.4,11.1l7.8-8.2l2.3,2.2l-8.5,9C85.7,74.1,87.3,78.3,87.3,81.5z"/>
	<path d="M117,32.5c0-2.4-0.9-4.6-2.4-6.2c-1.7-2-4.3-3.3-7.3-3.3h-66c-5.4,0-9.5,4.2-9.5,9.5v8.1c-2.4,0.1-4.6,1.2-6.2,2.9
		c-1.7,1.8-2.6,4.2-2.6,6.6v19.3c0,1.4,0.5,2.7,1.4,3.6l6.6,6.9c0.2,0.2,0.4,0.6,0.4,1.1v26.5c-0.1,5.2,4,9.5,9.1,9.6h67.4
		c2.5-0.1,4.8-1.1,6.6-2.9c1.7-1.8,2.6-4.2,2.6-6.6V33.3l0,0L117,32.5z M33.3,32.5c0-4.5,3.5-8,8-8h66.1c2.3,0,4.4,1,5.9,2.5
		c1.4,1.4,2.2,3.4,2.2,5.6v8H33.3V32.5z M113.4,113.1c-1.4,1.5-3.4,2.4-5.5,2.4H40.5c-4.3-0.1-7.8-3.7-7.7-8V81
		c0-0.8-0.3-1.6-0.8-2.1L25.4,72c-0.6-0.6-1-1.6-1-2.6V50.1c0-2.1,0.7-4.1,2.2-5.6c1.4-1.5,3.4-2.4,5.5-2.4h1.1h82.3v65.5
		C115.6,109.6,114.8,111.6,113.4,113.1z"/>
	<path d="M62,81.5c0-2.8,1.5-6.6,3.4-10.3L64.3,70c-2.1,4.1-3.8,8.2-3.8,11.5c0.2,2.2,0.9,4.3,2.1,6l1.1-1.1
		C62.8,85,62.2,83.3,62,81.5z"/>
	<path d="M85.8,81.5c-0.2,1.8-0.8,3.5-1.6,5l1.1,1.1c1.1-1.8,1.9-3.8,2.1-6v-0.1c0-3.2-1.7-7.4-3.8-11.4l-1.1,1.2
		C84.4,74.9,85.8,78.7,85.8,81.5z"/>
	<path d="M74,57.8c1.2,1.7,4.2,5.9,6.9,10.5l1.1-1.1c-3.4-5.8-7.1-10.7-7.4-11.1L74,55.3L73.4,56c-0.3,0.4-4.1,5.3-7.5,11.1l1.1,1.1
		C69.7,63.6,72.7,59.4,74,57.8z"/>
	<path d="M72.9,92.3c-2.7-0.2-5.2-1.4-7.2-3.2l-1,1.1c2.1,2,5,3.4,8.1,3.7c0.4,0,0.8,0.1,1.2,0.1c3.6,0,6.9-1.4,9.3-3.7l-1-1.1
		C79.8,91.3,76.4,92.6,72.9,92.3z"/>
	<path d="M74.5,86.9c0-0.8-0.7-1.5-1.5-1.5c-1.1,0-2.1-0.4-2.8-1.2l-2,2.2c1.2,1.2,3,2,4.8,2C73.8,88.4,74.5,87.7,74.5,86.9z"/>
	<path d="M67.6,80c-0.8,0-1.5,0.7-1.5,1.5c0,0.7,0.1,1.4,0.3,2.1l2.5-2.7C68.7,80.4,68.2,80,67.6,80z"/>
	<polygon class="st1" points="89.7,58.9 82,67.1 80.9,68.3 74,75.6 67,68.3 66,67.1 58.2,58.9 55.8,61.1 64.3,70.1 65.4,71.2 
		71.7,78 69,80.9 66.4,83.6 63.7,86.5 62.6,87.6 55.8,94.8 58.2,97 64.7,90.1 65.7,89 68.2,86.4 70.2,84.2 74,80.3 82.2,89 
		83.2,90.1 89.7,97 92.1,94.8 85.3,87.6 84.2,86.5 76.2,78 82.5,71.2 83.6,70.1 92.1,61.1 	"/>
</g>
</svg>
