<?xml version="1.0" encoding="utf-8"?>
<!-- Generator: Adobe Illustrator 20.1.0, SVG Export Plug-In . SVG Version: 6.00 Build 0)  -->
<svg version="1.1" id="Layer_2" xmlns="http://www.w3.org/2000/svg" xmlns:xlink="http://www.w3.org/1999/xlink" x="0px" y="0px"
	 viewBox="0 0 200 200" style="enable-background:new 0 0 200 200;" xml:space="preserve">
<style type="text/css">
	.st0{fill:none;stroke:#24408F;stroke-width:0.4519;stroke-miterlimit:10;}
	.st1{fill:none;stroke:#24408F;stroke-width:0.4437;stroke-miterlimit:10;}
	.st2{fill:#24408F;}
	.st3{fill:none;stroke:#24408F;stroke-width:0.452;stroke-linejoin:round;stroke-miterlimit:10;}
</style>
<g>
	<circle class="st0" cx="42.3" cy="41.4" r="14"/>
	<circle class="st0" cx="42.3" cy="100.3" r="14"/>
	<circle class="st0" cx="42.3" cy="158.4" r="14"/>
	<circle class="st0" cx="101.2" cy="41.4" r="14"/>
	<circle class="st0" cx="101.2" cy="100.3" r="14"/>
	<circle class="st0" cx="101.2" cy="158.4" r="14"/>
	<circle class="st0" cx="158" cy="41.4" r="14"/>
	<circle class="st1" cx="158" cy="100.3" r="12.8"/>
	<circle class="st2" cx="158" cy="158.4" r="14"/>
	<path class="st0" d="M198.5,175.6c0,12.4-10,22.8-22.8,22.8H24.3c-12.4,0-22.8-10-22.8-22.8V24.2c0-12.4,10-22.8,22.8-22.8h151.4
		c12.4,0,22.8,10,22.8,22.8V175.6z"/>
	<line class="st0" x1="148" y1="51.4" x2="110.4" y2="89.5"/>
	<polyline class="st3" points="110.4,111.1 129.2,129.9 110.4,148.8 	"/>
	<polyline class="st3" points="51.9,148 72.7,127.1 92.7,147.2 	"/>
	<line class="st0" x1="42.3" y1="85.9" x2="42.3" y2="55.8"/>
	<line class="st0" x1="56.3" y1="39.4" x2="87.1" y2="39.4"/>
	<polyline class="st3" points="92.3,52.6 73.1,71.5 91.5,89.9 	"/>
</g>
</svg>
