<?xml version="1.0" encoding="utf-8"?>
<!-- Generator: Adobe Illustrator 20.1.0, SVG Export Plug-In . SVG Version: 6.00 Build 0)  -->
<svg version="1.1" id="Layer_2" xmlns="http://www.w3.org/2000/svg" xmlns:xlink="http://www.w3.org/1999/xlink" x="0px" y="0px"
	 viewBox="0 0 200 200" style="enable-background:new 0 0 200 200;" xml:space="preserve">
<style type="text/css">
	.st0{fill:none;stroke:#24408F;stroke-miterlimit:10;}
	.st1{fill:#24408F;}
</style>
<g>
	<path class="st0" d="M167.3,181.3H33c-2.5,0-4.4-2.1-4.4-4.4v-14.1h143.4v14.1C171.7,179.3,169.8,181.3,167.3,181.3z"/>
	<path class="st0" d="M145.7,162.7H54.6v-10c0-1.3,1-2.2,2.2-2.2h86.6c1.3,0,2.2,1,2.2,2.2v10H145.7z"/>
	<path class="st0" d="M38.5,86.6v14.6c0,4.9,4,9,9,9l0,0c5.6,0,10.1,4.6,10.1,10.1v9.7v7.8c0,2.5,2.1,4.4,4.4,4.4h38.1h38.1
		c2.5,0,4.4-2.1,4.4-4.4V130v-9.7c0-5.6,4.6-10.1,10.1-10.1l0,0c4.9,0,9-4,9-9V86.6"/>
	<circle class="st1" cx="164.9" cy="128.6" r="2.5"/>
	<circle class="st1" cx="164.9" cy="142.2" r="6.5"/>
	<path class="st0" d="M135,102.8H65.3v-88c0-2.5,2.1-4.4,4.4-4.4h60.7c2.5,0,4.4,2.1,4.4,4.4V102.8z"/>
	<path class="st0" d="M135,24.1h7.8c4.9,0,9,4,9,9v53.4h-16.7h47.6c8.7,0,15.9,7.1,15.9,15.9v44.4c0,8.7-7.1,15.9-15.9,15.9H17.8
		c-8.7,0-15.9-7.1-15.9-15.9v-44.4c0-8.7,7.1-15.9,15.9-15.9h47.6H48.5V33c0-4.9,4-9,9-9h7.8"/>
</g>
</svg>
