<?xml version="1.0" encoding="utf-8"?>
<!-- Generator: Adobe Illustrator 19.0.0, SVG Export Plug-In . SVG Version: 6.00 Build 0)  -->
<svg version="1.1" id="_x32_500_1_" xmlns="http://www.w3.org/2000/svg" xmlns:xlink="http://www.w3.org/1999/xlink" x="0px"
	 y="0px" viewBox="0 0 192 126" style="enable-background:new 0 0 192 126;" xml:space="preserve">
<metadata><?xpacket begin="﻿" id="W5M0MpCehiHzreSzNTczkc9d"?>
<x:xmpmeta xmlns:x="adobe:ns:meta/" x:xmptk="Adobe XMP Core 5.6-c067 79.157747, 2015/03/30-23:40:42        ">
   <rdf:RDF xmlns:rdf="http://www.w3.org/1999/02/22-rdf-syntax-ns#">
      <rdf:Description rdf:about=""/>
   </rdf:RDF>
</x:xmpmeta>
                                                                                                    
                                                                                                    
                                                                                                    
                                                                                                    
                                                                                                    
                                                                                                    
                                                                                                    
                                                                                                    
                                                                                                    
                                                                                                    
                                                                                                    
                                                                                                    
                                                                                                    
                                                                                                    
                                                                                                    
                                                                                                    
                                                                                                    
                                                                                                    
                                                                                                    
                                                                                                    
                           
<?xpacket end="w"?></metadata>
<style type="text/css">
	.st0{fill:none;stroke:#24408F;stroke-width:1.2238;stroke-miterlimit:10;}
	.st1{fill-rule:evenodd;clip-rule:evenodd;fill:#FFFFFF;}
	.st2{fill:none;stroke:#24408F;stroke-width:1.5198;stroke-miterlimit:10;}
</style>
<g>
	<circle class="st0" cx="34.8" cy="38.9" r="17.3"/>
	<path class="st0" d="M55.4,62.3h-2.3H34.8H16.4h-2.3c-7.5,0-13.5,6.1-13.5,13.5v30.4c0,3.7,3,6.8,6.8,6.8h0c3.7,0,6.8-3,6.8-6.8
		V75.9l0,45.1h20.7h20.7l0-45.1v30.4c0,3.7,3,6.8,6.8,6.8h0c3.7,0,6.8-3,6.8-6.8V75.9C69,68.4,62.9,62.3,55.4,62.3z"/>
</g>
<g>
	<circle class="st0" cx="157.8" cy="38.9" r="17.3"/>
	<path class="st0" d="M178.5,62.3h-2.3h-18.4h-18.4h-2.3c-7.5,0-13.5,6.1-13.5,13.5v30.4c0,3.7,3,6.8,6.8,6.8h0c3.7,0,6.8-3,6.8-6.8
		V75.9l0,45.1h20.7h20.7l0-45.1v30.4c0,3.7,3,6.8,6.8,6.8h0c3.7,0,6.8-3,6.8-6.8V75.9C192,68.4,185.9,62.3,178.5,62.3z"/>
</g>
<g id="Shape_1">
	<g>
		<path class="st1" d="M106,41c1.5-1.1,17.9-8,8-30c-8.9-12.1-23-9-23-9s-30.8,14.6-7,39C96.1,46.2,104.5,42.1,106,41z M138.1,93.1
			c-0.5-3.2-0.1-6.8,0-10.1c0-3.2,0.1-6.4,0.2-9.7c0.1-3,0.4-5.5-0.4-8.4c-0.7-2.5-1.9-4.9-3.7-6.7c-1.4-1.5-3.2-3.3-4.9-4.4
			c-1.4-0.8-3.3-1.1-4.8-1.3c-4.4-0.7-9-0.4-13.5-0.4l-20.3,0H73.1c-1.2-0.1-2.5-0.1-3.7,0c-4.6,0.5-11.4,3.4-13.6,8.7
			c-3.4,7.9-2.2,16.6-2.2,25.1c0,5.4,0.2,10.7,0.6,16c0.2,2.4-0.1,5.5,0.5,7.8c0.5,2,1.6,3.8,3.3,5c1.8,1.3,4.6,0.3,6.7-0.1
			c1.8-0.4,2.9-1.4,4-2.9c0.2-0.2,1.3-3,1.4-2.8V126h52.1v-15.8c0.6,0.7,1,1.6,1.6,2.4c2.2,2.5,5.2,3.5,8.3,2.5
			c1.4-0.5,2.7-1.1,3.9-2.1c2.7-2.4,2.3-5.5,2.5-8.8C138.5,100.5,138.7,96.7,138.1,93.1z"/>
	</g>
</g>
<g>
	<circle class="st2" cx="95.9" cy="23" r="21.5"/>
	<path class="st2" d="M121.6,52.2h-2.8H95.9H73.1h-2.8c-9.3,0-16.8,7.5-16.8,16.8v37.8c0,4.6,3.8,8.4,8.4,8.4h0
		c5.9,0,8.4-4.3,8.4-8.9V69l0,56h25.6h25.6l0-56v37.8c0,4.6,3.8,8.4,8.4,8.4h0c4.6,0,8.4-3.8,8.4-8.4V69
		C138.4,59.7,130.9,52.2,121.6,52.2z"/>
</g>
</svg>
