<?xml version="1.0" encoding="utf-8"?>
<!-- Generator: Adobe Illustrator 19.0.0, SVG Export Plug-In . SVG Version: 6.00 Build 0)  -->
<svg version="1.1" id="Layer_1" xmlns="http://www.w3.org/2000/svg" xmlns:xlink="http://www.w3.org/1999/xlink" x="0px" y="0px"
	 viewBox="0 0 169.2 152" style="enable-background:new 0 0 169.2 152;" xml:space="preserve">
<metadata><?xpacket begin="﻿" id="W5M0MpCehiHzreSzNTczkc9d"?>
<x:xmpmeta xmlns:x="adobe:ns:meta/" x:xmptk="Adobe XMP Core 5.6-c067 79.157747, 2015/03/30-23:40:42        ">
   <rdf:RDF xmlns:rdf="http://www.w3.org/1999/02/22-rdf-syntax-ns#">
      <rdf:Description rdf:about=""/>
   </rdf:RDF>
</x:xmpmeta>
                                                                                                    
                                                                                                    
                                                                                                    
                                                                                                    
                                                                                                    
                                                                                                    
                                                                                                    
                                                                                                    
                                                                                                    
                                                                                                    
                                                                                                    
                                                                                                    
                                                                                                    
                                                                                                    
                                                                                                    
                                                                                                    
                                                                                                    
                                                                                                    
                                                                                                    
                                                                                                    
                           
<?xpacket end="w"?></metadata>
<style type="text/css">
	.st0{fill:none;stroke:#010101;stroke-width:1.5;stroke-miterlimit:10;}
	.st1{fill:#3A3A80;}
</style>
<g id="XMLID_46_">
	<path id="XMLID_2_" class="st0" d="M116.7,91.5"/>
</g>
<g id="XMLID_45_">
	<ellipse class="st1" cx="79.9" cy="80.2" rx="2.4" ry="2.3"/>
</g>
<path id="XMLID_88_" class="st1" d="M163.9,76.1c-3.3-3.3-11.7-8.8-31.7-8.7c0,0,0,0,0,0c0,0-0.5,0-13.7,0.6L111.7,57l3.5,0
	c0.6,0,1.2-0.3,1.6-0.8c0.4-0.5,0.6-1.1,0.6-1.7l-0.2-5.5c0-0.6-0.3-1.2-0.8-1.6c-0.4-0.3-1-0.5-1.6-0.4h-9.3l-6.5-10.2l1.6,0
	c0.6,0,1.2-0.3,1.6-0.8c0.4-0.5,0.6-1.1,0.6-1.7l-0.2-5.5c0-0.6-0.3-1.2-0.8-1.6c-0.4-0.4-1-0.5-1.6-0.5h-7.5l-8.4-13.1h-9.2l9.2,34
	v21.7l-50.2,2.3L21.6,51.9h-7.7l4.2,20.7h-1c-1.3,0-2.6,0.5-3.7,1.3l-3.9,3.2h-3c-0.2,0-0.4,0-0.6,0.1c0,0-0.1,0-0.1,0
	c-0.1,0-0.3,0.1-0.4,0.1c-0.5,0.2-0.9,0.5-1.2,0.9c0,0.1-0.1,0.1-0.1,0.2c0,0,0,0,0,0c-0.3,0.5-0.5,1.1-0.5,1.7c0,0,0,0,0,0
	c0,0,0,0,0,0c0,1.7,1.4,3,3,3h3l3.9,3.2c1,0.9,2.3,1.3,3.7,1.3H19l-3.8,18.4h7.7l11.2-17.6l50.3,2.2v21.8l-9.2,34h9.2l8.4-13.1
	l7.5,0c1.3,0,2.4-0.9,2.4-2.1l0.2-5.5c0-0.6-0.2-1.2-0.6-1.7c-0.4-0.5-1-0.8-1.7-0.8h-1.6l6.5-10.2l9.3,0c0.6,0,1.2-0.1,1.6-0.4
	c0.5-0.4,0.8-0.9,0.8-1.6l0.2-5.5c0-0.6-0.2-1.2-0.6-1.7c-0.4-0.5-1-0.8-1.7-0.8h-3.5l6.9-11.1c4,0.2,8.6,0.4,13.6,0.6
	c21.4,0,29.9-6.8,32-8.9c1.4-1.4,2.1-2.7,2.1-3.8C166.4,79.4,165.6,77.8,163.9,76.1z M114.9,48.6c0.3,0,0.5,0,0.7,0.2
	c0.1,0.1,0.2,0.2,0.2,0.4l0.2,5.5c0,0.2-0.1,0.5-0.2,0.6c-0.1,0.1-0.3,0.3-0.5,0.3h-4.4l-4.3-6.9L114.9,48.6z M100.4,28.4
	c0.3,0,0.5,0.1,0.6,0.2c0.1,0.1,0.2,0.3,0.2,0.5l0.2,5.5c0,0.2-0.1,0.5-0.2,0.6c-0.2,0.2-0.3,0.3-0.5,0.3h-2.5l-4.4-7L100.4,28.4z
	 M77.2,15.3h6.4l8.2,12.7l4.6,7.3h0l8.2,12.8l4.5,7.3h0l7.9,12.6c-0.7,0-1.4,0.1-2.2,0.1c-11.6,0.5-25.3,1.1-28.7,1.3V47.8
	L77.2,15.3z M6.5,81.7c-0.7,0-1.3-0.5-1.5-1.1C5,80.5,5,80.3,5,80.2c0-0.7,0.5-1.4,1.2-1.5c0.1,0,0.2,0,0.3,0l3.2,0h22.9
	c0.9,0,1.6,0.7,1.6,1.6s-0.7,1.6-1.6,1.6H6.5z M100.6,125c0.2,0,0.4,0.1,0.6,0.3c0.2,0.2,0.2,0.4,0.2,0.6l-0.2,5.5
	c0,0.5-0.4,0.7-0.9,0.7h-6.6l4.4-7L100.6,125z M115.2,104.9c0.4,0,0.8,0.5,0.8,0.9l-0.2,5.5c0,0.2-0.1,0.3-0.2,0.4
	c-0.2,0.1-0.4,0.2-0.7,0.2h-8.4l4.3-6.9L115.2,104.9z M109.7,103.7L109.7,103.7l-0.7,1.1h0l-4.5,7.3L96.3,125h0l-4.6,7.3L83.6,145
	h-6.4l8.7-32.2l0-22c1.9,0.1,8.5,0.4,30.9,1.4L109.7,103.7z M163.2,82.9c-2,2-10.1,8.5-30.9,8.5c0,0-46.9-2.1-47-2.1L33.3,87
	l-11.2,17.7h-5l3.8-18.4h-3.7c-1,0-2-0.3-2.7-1l-2.5-2.1h20.7c1.7,0,3.1-1.4,3.1-3.1s-1.4-3.1-3.1-3.1H11.9l2.5-2
	c0.8-0.6,1.7-1,2.7-1h2.9l-4.2-20.7h5l12.7,20L85.2,71c0,0,0,0,29.5-1.3l17.5-0.8c0.1,0,0.2,0,0.3,0c19.1,0,27.2,5.1,30.2,8.2
	c1.6,1.6,2,2.8,2,3C164.9,80.6,164.4,81.6,163.2,82.9z"/>
<g id="XMLID_110_">
	<path id="XMLID_3_" class="st1" d="M96.6,76c-2.3-2.3-6.1-2.3-8.4,0c-2.3,2.3-2.3,6,0,8.4c1.2,1.2,2.7,1.7,4.2,1.7
		c1.5,0,3-0.6,4.2-1.7C98.9,82.1,98.9,78.3,96.6,76z"/>
</g>
</svg>
