<?xml version="1.0" encoding="utf-8"?>
<!-- Generator: Adobe Illustrator 20.1.0, SVG Export Plug-In . SVG Version: 6.00 Build 0)  -->
<svg version="1.1" id="Layer_1" xmlns="http://www.w3.org/2000/svg" xmlns:xlink="http://www.w3.org/1999/xlink" x="0px" y="0px"
	 viewBox="0 0 152 152" style="enable-background:new 0 0 152 152;" xml:space="preserve">
<style type="text/css">
	.st0{fill:#24408F;}
</style>
<path id="XMLID_252_" class="st0" d="M102.8,78.6c-2.3-2.3-6-2.3-8.3,0s-2.3,6,0,8.3c1.1,1.1,2.6,1.7,4.2,1.7c1.6,0,3-0.5,4.2-1.7
	C105.1,84.7,105.1,80.9,102.8,78.6z M67,81.4c-1.6,0-3,0.6-4.2,1.7c-1.1,1.1-1.7,2.6-1.7,4.2c0,1.6,0.6,3,1.7,4.2
	c1.1,1.1,2.6,1.7,4.2,1.7c1.6,0,3-0.6,4.2-1.7c2.3-2.3,2.3-6,0-8.3C70,82,68.5,81.4,67,81.4z M70.1,90.4c-0.8,0.8-2,1.2-3.1,1.2
	s-2.3-0.4-3.1-1.2c-0.8-0.8-1.2-2-1.2-3.1c0-1.1,0.4-2.3,1.2-3.1c0.8-0.8,2-1.2,3.1-1.2s2.3,0.4,3.1,1.2
	C71.8,85.8,71.8,88.6,70.1,90.4z M72.5,69.2l16.2,36l4.4-4.4l-16.2-36L72.5,69.2z M89.2,102.7l-15-33.2l2.2-2.2l15,33.2L89.2,102.7z
	 M75.8,20.8l-23-0.2L40.6,32.7c-9.3-22.8-21.1-31-29.1-31c-2.6,0-4.8,0.8-6.3,2.4c-2.4,2.4-3.2,5.1-2.7,8.3
	c1.8,9.9,17.7,21.1,30.1,28.4L18.3,55.1l0.2,22.7v0.3L92.4,152l57.3-57.3L75.8,20.8z M3.9,12.2c-0.5-2.7,0.3-5,2.3-7.1
	c1.2-1.2,3.1-2,5.3-2c7.3,0,19,8,28.1,30.7l-5.9,5.9C20.9,32.3,5.5,21.2,3.9,12.2z M19.9,77.5l-0.2-21.8l14.2-14.2
	c2.6,1.5,5,2.7,7,3.7c-0.4,1.4-0.2,2.8,0.8,3.9c0.7,0.7,1.7,1.1,2.7,1.1c0.9,0,2-0.4,2.7-1.1c0.7-0.7,1.1-1.7,1.1-2.7
	c0-1-0.4-2-1.1-2.7c-1.5-1.5-3.9-1.5-5.3,0l0,0c0,0-0.1,0.1-0.1,0.2c-2.1-1-4.3-2.2-6.7-3.5l18.5-18.5l21.8,0.2l72.4,72.4
	l-55.3,55.3L19.9,77.5z M60.7,80.9c-3.4,3.4-3.4,9.2,0,12.6c1.7,1.7,4,2.6,6.2,2.6c2.4,0,4.6-0.9,6.2-2.6c1.7-1.7,2.6-4,2.6-6.2
	c0-2.4-0.9-4.6-2.6-6.2C69.8,77.5,64.2,77.5,60.7,80.9z M72.2,92.5c-1.4,1.4-3.2,2.2-5.2,2.2c-2,0-3.9-0.7-5.2-2.2
	c-2.9-2.9-2.9-7.6,0-10.5c2.9-2.9,7.6-2.9,10.5,0C75.1,84.9,75.1,89.6,72.2,92.5z M104.9,76.4c-3.4-3.4-9.2-3.4-12.6,0
	c-3.4,3.4-3.4,9.2,0,12.6c1.7,1.7,4,2.6,6.2,2.6s4.6-0.9,6.2-2.6C108.4,85.6,108.4,80,104.9,76.4z M103.8,88
	c-1.4,1.4-3.2,2.2-5.2,2.2c-2,0-3.9-0.7-5.2-2.2c-2.9-2.9-2.9-7.6,0-10.5c1.5-1.5,3.3-2.2,5.2-2.2c1.9,0,3.9,0.7,5.2,2.2
	C106.7,80.4,106.7,85.1,103.8,88z"/>
</svg>
