<?xml version="1.0" encoding="utf-8"?>
<!-- Generator: Adobe Illustrator 20.1.0, SVG Export Plug-In . SVG Version: 6.00 Build 0)  -->
<svg version="1.1" id="Layer_2" xmlns="http://www.w3.org/2000/svg" xmlns:xlink="http://www.w3.org/1999/xlink" x="0px" y="0px"
	 viewBox="0 0 200 200" style="enable-background:new 0 0 200 200;" xml:space="preserve">
<style type="text/css">
	.st0{fill:none;stroke:#24408F;stroke-width:0.4437;stroke-miterlimit:10;}
	.st1{fill:#24408F;}
	.st2{fill:none;stroke:#24408F;stroke-width:0.5422;stroke-miterlimit:10;}
</style>
<g>
	<circle class="st0" cx="182.5" cy="164" r="13.5"/>
	<circle class="st1" cx="155.6" cy="164" r="13.5"/>
	<circle class="st0" cx="128.7" cy="164" r="13.5"/>
	<circle class="st0" cx="101.4" cy="164" r="13.5"/>
	<circle class="st0" cx="15.3" cy="147.9" r="13.5"/>
	<line class="st2" x1="101.4" y1="42.9" x2="101.4" y2="150.5"/>
	<line class="st2" x1="74.9" y1="42.9" x2="21.8" y2="135.9"/>
	<line class="st2" x1="128.7" y1="42.9" x2="128.7" y2="150.5"/>
	<line class="st2" x1="155.6" y1="42.9" x2="155.6" y2="164"/>
	<line class="st2" x1="182.5" y1="42.9" x2="182.5" y2="150.5"/>
	<path class="st2" d="M61.4,42.9h133.4c1.9,0,3.5-1.5,3.5-3.5V26c0-1.9-1.5-3.5-3.5-3.5H61.4c-1.9,0-3.5,1.5-3.5,3.5v13.5
		C58.3,41.8,59.5,42.9,61.4,42.9z"/>
</g>
</svg>
