<?xml version="1.0" encoding="utf-8"?>
<!-- Generator: Adobe Illustrator 20.1.0, SVG Export Plug-In . SVG Version: 6.00 Build 0)  -->
<svg version="1.1" fill="#24408F" id="Layer_2" xmlns="http://www.w3.org/2000/svg" xmlns:xlink="http://www.w3.org/1999/xlink" x="0px" y="0px"
	 viewBox="0 0 200 200" style="enable-background:new 0 0 200 200;" xml:space="preserve">
<g>
	<g>
		<g>
			<path class="st0" d="M100,30.2c18.6,0,36.1,7.3,49.4,20.4c13.2,13.2,20.4,30.8,20.4,49.4c0,0.1,0,0.3,0,0.3s0,0.3,0,0.3v0.9h0.9
				h27.7l-34.8,60.2l-34.8-60.2h27.3h0.9v-0.9c0-0.1,0-0.2,0-0.3s0-0.3,0-0.4c0-15.2-5.9-29.6-16.7-40.3S115.2,42.9,100,42.9
				s-29.6,5.9-40.3,16.7c-1,1-2,2.1-2.9,3.2L50,51.1c0.2-0.2,0.4-0.4,0.6-0.6C63.8,37.4,81.4,30.2,100,30.2 M100,29.3
				c-18.9,0-36.7,7.3-50,20.7c-0.3,0.3-0.7,0.8-1,1.1l7.6,13.2c1.2-1.4,2.4-2.7,3.7-4.1C70.9,49.7,85,43.9,100,43.9
				s29.1,5.8,39.7,16.4S156.2,85,156.2,100c0,0.3,0,0.5,0,0.8h-28.8l36.3,62.8l36.3-62.8h-29.2c0-0.3,0-0.5,0-0.8
				c0-18.9-7.3-36.7-20.7-50C136.6,36.7,118.9,29.3,100,29.3L100,29.3z"/>
		</g>
		<g>
			<path class="st0" d="M36.5,39.6l34.8,60.2H43.9H43v0.9c0.2,15,6.2,29,16.7,39.6c10.8,10.8,25.1,16.7,40.3,16.7
				s29.6-5.9,40.3-16.7c0.9-0.9,1.6-1.7,2.5-2.6l6.7,11.6l-0.1,0.1c-13.2,13.2-30.8,20.4-49.4,20.4s-36.1-7.3-49.4-20.4
				c-13-13-20.3-30.3-20.4-48.6v-0.9h-0.9H1.7L36.5,39.6 M36.5,37.9L0.2,100.8h29.1c0.2,18.6,7.5,36.1,20.7,49.2
				c13.3,13.3,31.1,20.7,50,20.7s36.7-7.3,50-20.7l0,0l0,0c0.2-0.2,0.3-0.4,0.6-0.6l-7.6-13.2c-1,1.2-2.1,2.4-3.2,3.5l0,0
				c-10.6,10.6-24.7,16.4-39.7,16.4s-29.1-5.8-39.7-16.4c-10.4-10.4-16.2-24.3-16.4-39h28.9L36.5,37.9L36.5,37.9z"/>
		</g>
	</g>
	<g>
		<circle class="st0" cx="100" cy="86.1" r="4"/>
		<circle class="st0" cx="100" cy="107.6" r="10.3"/>
	</g>
</g>
</svg>
