<?xml version="1.0" encoding="utf-8"?>
<!-- Generator: Adobe Illustrator 20.1.0, SVG Export Plug-In . SVG Version: 6.00 Build 0)  -->
<svg version="1.1" id="Layer_1" xmlns="http://www.w3.org/2000/svg" xmlns:xlink="http://www.w3.org/1999/xlink" x="0px" y="0px"
	 viewBox="0 0 200 200" style="enable-background:new 0 0 200 200;" xml:space="preserve">
<style type="text/css">
	.st0{fill:none;stroke:#24408F;stroke-width:2;stroke-miterlimit:10;}
	.st1{fill:#24408F;}
	.st2{fill:none;stroke:#24408F;stroke-width:3;stroke-linecap:round;stroke-miterlimit:10;}
</style>
<g>
	<path class="st0" d="M172.3,69.4V185c0,7.5-5.8,13.6-13,13.6H55.5c-7.1,0-13-6.1-13-13.6v-40.8c0-0.9-0.3-1.8-0.9-2.4l-10.2-10.6
		c-1.2-1.3-1.9-3-1.9-4.8V96.6c0-7.5,5.8-13.6,13-13.6h0.6V69.4c0-7.5,6.1-13.6,13.6-13.6h102C166.2,55.8,172.3,61.9,172.3,69.4
		L172.3,69.4z"/>
	<path class="st0" d="M56.7,55.8h102c7.5,0,13.6,6.1,13.6,13.6V83H43.1V69.4C43.1,61.9,49.2,55.8,56.7,55.8L56.7,55.8z"/>
	<path class="st0" d="M138.3,171.4H77.1c-3.7,0-6.8-3.1-6.8-6.8V117c0-3.7,3.1-6.8,6.8-6.8h61.2c3.7,0,6.8,3.1,6.8,6.8v47.6
		C145.1,168.3,142,171.4,138.3,171.4L138.3,171.4z"/>
	<path class="st0" d="M138.3,140.8v20.4c0,1.9-1.5,3.4-3.4,3.4H80.5c-1.9,0-3.4-1.5-3.4-3.4v-20.4c0-1.9,1.5-3.4,3.4-3.4h54.4
		C136.8,137.4,138.3,138.9,138.3,140.8L138.3,140.8z"/>
	<path class="st0" d="M138.3,120.4c0,1.9-1.5,3.4-3.4,3.4h-27.2c-1.9,0-3.4-1.5-3.4-3.4c0-1.9,1.5-3.4,3.4-3.4h27.2
		C136.8,117,138.3,118.5,138.3,120.4L138.3,120.4z"/>
	<path class="st1" d="M90.7,123.8c0,3.7-3.1,6.8-6.8,6.8s-6.8-3.1-6.8-6.8s3.1-6.8,6.8-6.8S90.7,120,90.7,123.8L90.7,123.8z"/>
	<g>
		<path class="st0" d="M115.2,22.3c0,5.5-4.5,10-10,10s-10-4.5-10-10c0-6.8,10-19.8,10-19.8S115.2,15.6,115.2,22.3z"/>
		<path class="st2" d="M104.2,28.2c-1.4,0-2.6-0.6-3.6-1.4s-1.4-2.1-1.4-3.6"/>
		<g>
			<path class="st0" d="M92.6,37.2c0,5.5-4.5,10-10,10s-10-4.5-10-10c0-6.8,10-19.8,10-19.8S92.6,30.4,92.6,37.2z"/>
			<path class="st2" d="M81.7,43.2c-1.4,0-2.6-0.6-3.6-1.4c-0.9-0.9-1.4-2.1-1.4-3.6"/>
		</g>
		<path class="st0" d="M139.7,37.2c0,5.5-4.5,10-10,10c-5.5,0-10-4.5-10-10c0-6.8,10-19.8,10-19.8S139.7,30.4,139.7,37.2z"/>
		<path class="st2" d="M128.8,43.2c-1.4,0-2.6-0.6-3.6-1.4c-0.9-0.9-1.4-2.1-1.4-3.6"/>
	</g>
</g>
</svg>
