<?xml version="1.0" encoding="utf-8"?>
<!-- Generator: Adobe Illustrator 19.0.0, SVG Export Plug-In . SVG Version: 6.00 Build 0)  -->
<svg version="1.1" id="Layer_1" xmlns="http://www.w3.org/2000/svg" xmlns:xlink="http://www.w3.org/1999/xlink" x="0px" y="0px"
	 viewBox="-400 278.3 40 40" style="enable-background:new -400 278.3 40 40;" xml:space="preserve">
<metadata><?xpacket begin="﻿" id="W5M0MpCehiHzreSzNTczkc9d"?>
<x:xmpmeta xmlns:x="adobe:ns:meta/" x:xmptk="Adobe XMP Core 5.6-c067 79.157747, 2015/03/30-23:40:42        ">
   <rdf:RDF xmlns:rdf="http://www.w3.org/1999/02/22-rdf-syntax-ns#">
      <rdf:Description rdf:about=""/>
   </rdf:RDF>
</x:xmpmeta>
                                                                                                    
                                                                                                    
                                                                                                    
                                                                                                    
                                                                                                    
                                                                                                    
                                                                                                    
                                                                                                    
                                                                                                    
                                                                                                    
                                                                                                    
                                                                                                    
                                                                                                    
                                                                                                    
                                                                                                    
                                                                                                    
                                                                                                    
                                                                                                    
                                                                                                    
                                                                                                    
                           
<?xpacket end="w"?></metadata>
<path d="M-378.5,302.7c0,1.4,0,2.8,0,4.2c0,0.2,0,0.2-0.2,0.2h-3.6c-0.2,0-0.2,0-0.2-0.2v-8.4c0-0.2,0-0.2-0.2-0.2h-1.6
	c-0.1,0-0.2,0-0.2-0.2v-2.6c0-0.1,0-0.2,0.2-0.2h1.6c0.2,0,0.2,0,0.2-0.2v-2.3c0-0.7,0.1-1.3,0.5-1.9s1-1,1.7-1.2
	c0.5-0.2,1-0.2,1.6-0.2c1,0,2,0,3,0c0.1,0,0.2,0,0.2,0.2c0,0.9,0,1.8,0,2.7c0,0.2,0,0.2-0.2,0.2c-0.6,0-1.3,0-1.9,0
	s-0.9,0.4-0.9,0.9v1.7c0,0.1,0,0.2,0.2,0.2h2.7c0.1,0,0.2,0,0.2,0.2c-0.1,0.9-0.2,1.8-0.3,2.7c0,0.1-0.1,0.1-0.2,0.1h-1.6h-0.8
	c-0.1,0-0.2,0-0.2,0.2L-378.5,302.7L-378.5,302.7z"/>
<g>
	<path d="M-380,279.8c10.2,0,18.5,8.3,18.5,18.5s-8.3,18.5-18.5,18.5s-18.5-8.3-18.5-18.5S-390.2,279.8-380,279.8 M-380,278.3
		c-11,0-20,9-20,20s9,20,20,20s20-9,20-20S-369,278.3-380,278.3L-380,278.3z"/>
</g>
</svg>
