<?xml version="1.0" encoding="utf-8"?>
<!-- Generator: Adobe Illustrator 19.0.0, SVG Export Plug-In . SVG Version: 6.00 Build 0)  -->
<svg version="1.1" id="Layer_1" xmlns="http://www.w3.org/2000/svg" xmlns:xlink="http://www.w3.org/1999/xlink" x="0px" y="0px"
	 viewBox="-400 278.3 40 40" style="enable-background:new -400 278.3 40 40;" xml:space="preserve">
<metadata><?xpacket begin="﻿" id="W5M0MpCehiHzreSzNTczkc9d"?>
<x:xmpmeta xmlns:x="adobe:ns:meta/" x:xmptk="Adobe XMP Core 5.6-c067 79.157747, 2015/03/30-23:40:42        ">
   <rdf:RDF xmlns:rdf="http://www.w3.org/1999/02/22-rdf-syntax-ns#">
      <rdf:Description rdf:about=""/>
   </rdf:RDF>
</x:xmpmeta>
                                                                                                    
                                                                                                    
                                                                                                    
                                                                                                    
                                                                                                    
                                                                                                    
                                                                                                    
                                                                                                    
                                                                                                    
                                                                                                    
                                                                                                    
                                                                                                    
                                                                                                    
                                                                                                    
                                                                                                    
                                                                                                    
                                                                                                    
                                                                                                    
                                                                                                    
                                                                                                    
                           
<?xpacket end="w"?></metadata>
<g>
	<path d="M-380,279.8c10.2,0,18.5,8.3,18.5,18.5s-8.3,18.5-18.5,18.5s-18.5-8.3-18.5-18.5S-390.2,279.8-380,279.8 M-380,278.3
		c-11,0-20,9-20,20s9,20,20,20s20-9,20-20S-369,278.3-380,278.3L-380,278.3z"/>
</g>
<g>
	<path d="M-370.8,298.2v4c0,2.2-1.1,3.8-3,4.8c-0.8,0.4-1.7,0.6-2.5,0.6c-2.5,0-5.1,0-7.6,0c-2,0-3.7-0.9-4.8-2.7
		c-0.5-0.7-0.7-1.5-0.7-2.4c0-2.8,0-5.6,0-8.3c0-1.9,0.9-3.3,2.5-4.3c0.9-0.6,2-0.9,3.1-0.9c2.5,0,4.9,0,7.4,0
		c1.9,0,3.5,0.8,4.7,2.3c0.6,0.8,1,1.8,1,2.9C-370.8,295.5-370.8,296.8-370.8,298.2L-370.8,298.2z M-372.1,298.2V294
		c0-0.7-0.2-1.4-0.7-2c-0.9-1.2-2.1-1.7-3.5-1.8c-2.5,0-5,0-7.5,0c-0.8,0-1.5,0.2-2.2,0.6c-1.3,0.7-2,1.9-2,3.4c0,2.7,0,5.4,0,8.1
		c0,0.8,0.2,1.5,0.7,2c0.9,1.2,2.1,1.7,3.5,1.7c2.5,0,5,0,7.6,0c0.6,0,1.1-0.1,1.7-0.3c1.4-0.6,2.5-1.9,2.5-3.7
		C-372.1,300.8-372.1,299.5-372.1,298.2L-372.1,298.2z"/>
	<path d="M-380,302.2c-2.4,0-4.4-1.9-4.4-4.4c0-2.4,2-4.3,4.4-4.3s4.4,2,4.4,4.3C-375.6,300.3-377.6,302.2-380,302.2L-380,302.2z
		 M-380,294.9c-1.7,0-3,1.3-3,2.9s1.3,2.9,3,2.9s3-1.3,3-2.9C-377,296.3-378.2,294.9-380,294.9L-380,294.9z"/>
	<path d="M-374.2,293.2c0,0.5-0.4,1-0.9,1s-0.9-0.4-0.9-1c0-0.5,0.4-0.9,0.9-0.9S-374.2,292.7-374.2,293.2L-374.2,293.2z"/>
	<circle cx="-380" cy="297.9" r="3.7"/>
</g>
</svg>
