<?xml version="1.0" encoding="utf-8"?>
<!-- Generator: Adobe Illustrator 19.0.0, SVG Export Plug-In . SVG Version: 6.00 Build 0)  -->
<svg version="1.1" id="Layer_1" xmlns="http://www.w3.org/2000/svg" xmlns:xlink="http://www.w3.org/1999/xlink" x="0px" y="0px"
	 viewBox="-400 278.3 40 40" style="enable-background:new -400 278.3 40 40;" xml:space="preserve">
<metadata><?xpacket begin="﻿" id="W5M0MpCehiHzreSzNTczkc9d"?>
<x:xmpmeta xmlns:x="adobe:ns:meta/" x:xmptk="Adobe XMP Core 5.6-c067 79.157747, 2015/03/30-23:40:42        ">
   <rdf:RDF xmlns:rdf="http://www.w3.org/1999/02/22-rdf-syntax-ns#">
      <rdf:Description rdf:about=""/>
   </rdf:RDF>
</x:xmpmeta>
                                                                                                    
                                                                                                    
                                                                                                    
                                                                                                    
                                                                                                    
                                                                                                    
                                                                                                    
                                                                                                    
                                                                                                    
                                                                                                    
                                                                                                    
                                                                                                    
                                                                                                    
                                                                                                    
                                                                                                    
                                                                                                    
                                                                                                    
                                                                                                    
                                                                                                    
                                                                                                    
                           
<?xpacket end="w"?></metadata>
<g>
	<path d="M-389.6,304.3c2.1,0.2,4-0.3,5.8-1.6c-0.5,0-0.8-0.1-1.2-0.2c-1-0.4-1.7-1-2.2-1.9c-0.1-0.1-0.1-0.3-0.2-0.4s0-0.2,0.1-0.1
		c0.5,0.1,1,0.1,1.5-0.1l0,0c0-0.1,0-0.1-0.1-0.1c-1.1-0.3-1.9-0.9-2.5-1.9c-0.3-0.5-0.5-1.1-0.5-1.8c0-0.2,0-0.2,0.2-0.1
		c0.5,0.2,1,0.4,1.6,0.4c-0.3-0.2-0.5-0.4-0.7-0.7c-0.8-0.9-1.1-2-0.9-3.1c0.1-0.4,0.2-0.8,0.4-1.2c0.1-0.2,0.1-0.2,0.2,0
		c1.5,1.9,3.9,3.4,6.8,3.8c0.3,0.1,0.6,0.1,0.9,0.1c0.2,0,0.2,0,0.1-0.2c-0.2-0.8-0.1-1.6,0.3-2.4c0.7-1.5,2.1-2.3,3.6-2.3
		c2.2,0,2.2,1.4,3.6,1c0.6-0.2,1.1-0.4,1.7-0.7c-0.3,0.9-0.8,1.6-1.6,2.1c0.7-0.1,1.4-0.3,2.1-0.6c-0.2,0.3-0.4,0.5-0.6,0.8
		c-0.4,0.4-0.8,0.8-1.2,1.2c-0.1,0.1-0.1,0.1-0.1,0.2c0.1,3.3-1.3,6.3-3.3,8.4c-2,2-4.6,3.1-7.8,3.1c-0.2,0-0.4,0-0.6,0
		c-0.8,0-1.5-0.2-2.2-0.3c-0.9-0.2-1.8-0.6-2.6-1C-389.2,304.6-389.4,304.5-389.6,304.3L-389.6,304.3z"/>
	<g>
		<path d="M-380,279.8c10.2,0,18.5,8.3,18.5,18.5s-8.3,18.5-18.5,18.5s-18.5-8.3-18.5-18.5S-390.2,279.8-380,279.8 M-380,278.3
			c-11,0-20,9-20,20s9,20,20,20s20-9,20-20S-369,278.3-380,278.3L-380,278.3z"/>
	</g>
</g>
</svg>
