<?xml version="1.0" encoding="utf-8"?>
<!-- Generator: Adobe Illustrator 19.0.0, SVG Export Plug-In . SVG Version: 6.00 Build 0)  -->
<svg version="1.1" id="Layer_1" xmlns="http://www.w3.org/2000/svg" xmlns:xlink="http://www.w3.org/1999/xlink" x="0px" y="0px"
	 viewBox="0 0 253 224" style="enable-background:new 0 0 253 224;" xml:space="preserve">
<metadata><?xpacket begin="﻿" id="W5M0MpCehiHzreSzNTczkc9d"?>
<x:xmpmeta xmlns:x="adobe:ns:meta/" x:xmptk="Adobe XMP Core 5.6-c067 79.157747, 2015/03/30-23:40:42        ">
   <rdf:RDF xmlns:rdf="http://www.w3.org/1999/02/22-rdf-syntax-ns#">
      <rdf:Description rdf:about=""/>
   </rdf:RDF>
</x:xmpmeta>
                                                                                                    
                                                                                                    
                                                                                                    
                                                                                                    
                                                                                                    
                                                                                                    
                                                                                                    
                                                                                                    
                                                                                                    
                                                                                                    
                                                                                                    
                                                                                                    
                                                                                                    
                                                                                                    
                                                                                                    
                                                                                                    
                                                                                                    
                                                                                                    
                                                                                                    
                                                                                                    
                           
<?xpacket end="w"?></metadata>
<style type="text/css">
	.st0{fill:none;}
</style>
<path d="M80.6,7.3c19,0,25.1,22.8,28.9,41.4c3,15.1,4.8,30.4,8.6,45.4c4.9,18.8,10,45.1,19.5,45.1c8.4,0,53.3-57.9,33.5-77.8
	c-7.6-7.6-20.2-4.2-28.2,1.1c1-7.3,3.3-13.8,6.6-19.9c14.2-26.1,40.7-37,59.1-37c27.9,0,46.4,19.4,32.5,66.5
	c-6.2,21.5-16.6,41.1-29.2,59.6c-18.8,27.2-70.8,85.5-95.3,85.5c-33.8,0-43.1-49.6-54.6-86.5c-5.7-18.4-11-36.8-17.8-54.9
	c-0.9-2.3-1.8-4.5-3-6.6c-1.4-2.8-4-3.4-6.9-3.3C19,66.6,17.1,79.7,10.5,73.1C-6.7,56,60.1,7.3,80.6,7.3z M4.1,61.9"/>
<path class="st0" d="M80.6,7.3c19,0,25.1,22.8,28.9,41.4c3,15.1,4.8,30.4,8.6,45.4c4.9,18.8,10,45.1,19.5,45.1
	c8.4,0,53.3-57.9,33.5-77.8c-7.6-7.6-20.2-4.2-28.2,1.1c1-7.3,3.3-13.8,6.6-19.9c14.2-26.1,40.7-37,59.1-37
	c27.9,0,46.4,19.4,32.5,66.5c-6.2,21.5-16.6,41.1-29.2,59.6c-18.8,27.2-70.8,85.5-95.3,85.5c-33.8,0-43.1-49.6-54.6-86.5
	c-5.7-18.4-11-36.8-17.8-54.9c-0.9-2.3-1.8-4.5-3-6.6c-1.4-2.8-4-3.4-6.9-3.3C19,66.6,17.1,79.7,10.5,73.1
	C-6.7,56,60.1,7.3,80.6,7.3z M4.1,61.9"/>
</svg>
