<?xml version="1.0" encoding="utf-8"?>
<!-- Generator: Adobe Illustrator 19.0.0, SVG Export Plug-In . SVG Version: 6.00 Build 0)  -->
<svg version="1.1" id="Layer_1" xmlns="http://www.w3.org/2000/svg" xmlns:xlink="http://www.w3.org/1999/xlink" x="0px" y="0px"
	 viewBox="-400 278.3 40 40" style="enable-background:new -400 278.3 40 40;" xml:space="preserve">
<metadata><?xpacket begin="﻿" id="W5M0MpCehiHzreSzNTczkc9d"?>
<x:xmpmeta xmlns:x="adobe:ns:meta/" x:xmptk="Adobe XMP Core 5.6-c067 79.157747, 2015/03/30-23:40:42        ">
   <rdf:RDF xmlns:rdf="http://www.w3.org/1999/02/22-rdf-syntax-ns#">
      <rdf:Description rdf:about=""/>
   </rdf:RDF>
</x:xmpmeta>
                                                                                                    
                                                                                                    
                                                                                                    
                                                                                                    
                                                                                                    
                                                                                                    
                                                                                                    
                                                                                                    
                                                                                                    
                                                                                                    
                                                                                                    
                                                                                                    
                                                                                                    
                                                                                                    
                                                                                                    
                                                                                                    
                                                                                                    
                                                                                                    
                                                                                                    
                                                                                                    
                           
<?xpacket end="w"?></metadata>
<style type="text/css">
	.st0{display:none;}
	.st1{display:inline;}
	.st2{fill:none;}
	.st3{fill:none;stroke:#FAFAFA;stroke-width:0.8972;stroke-miterlimit:10;}
	.st4{fill:none;stroke:#000000;stroke-miterlimit:10;}
</style>
<image style="display:none;overflow:visible;enable-background:new    ;" width="535" height="534" xlink:href="../screen/Screenshot at сент. 01 15-32-45.png"  transform="matrix(7.476635e-02 0 0 7.490636e-02 -265.9221 556.21)">
</image>
<image style="display:none;overflow:visible;enable-background:new    ;" width="938" height="937" xlink:href="../screen/Screenshot at сент. 01 15-42-08.png"  transform="matrix(4.264392e-02 0 0 4.268944e-02 -265.9221 556.21)">
</image>
<path class="st0" d="M-244.5,580.6c0,1.4,0,2.8,0,4.2c0,0.2,0,0.2-0.2,0.2h-3.6c-0.2,0-0.2,0-0.2-0.2v-8.4c0-0.2,0-0.2-0.2-0.2h-1.6
	c-0.1,0-0.2,0-0.2-0.2v-2.6c0-0.1,0-0.2,0.2-0.2h1.6c0.2,0,0.2,0,0.2-0.2v-2.3c0-0.7,0.1-1.3,0.5-1.9c0.4-0.6,1-1,1.7-1.2
	c0.5-0.2,1-0.2,1.6-0.2c1,0,2,0,3,0c0.1,0,0.2,0,0.2,0.2c0,0.9,0,1.8,0,2.7c0,0.2,0,0.2-0.2,0.2c-0.6,0-1.3,0-1.9,0
	c-0.6,0-0.9,0.4-0.9,0.9v1.7c0,0.1,0,0.2,0.2,0.2h2.7c0.1,0,0.2,0,0.2,0.2c-0.1,0.9-0.2,1.8-0.3,2.7c0,0.1-0.1,0.1-0.2,0.1h-1.6
	h-0.8c-0.1,0-0.2,0-0.2,0.2V580.6z"/>
<image style="display:none;overflow:visible;enable-background:new    ;" width="941" height="936" xlink:href="../screen/Screenshot at сент. 01 15-42-54.png"  transform="matrix(4.250797e-02 0 0 4.273504e-02 -265.9221 556.21)">
</image>
<g class="st0">
	<path class="st1" d="M-236.6,576.2v4c0,2.2-1.1,3.8-3,4.8c-0.8,0.4-1.7,0.6-2.5,0.6c-2.5,0-5.1,0-7.6,0c-2,0-3.7-0.9-4.8-2.7
		c-0.5-0.7-0.7-1.5-0.7-2.4c0-2.8,0-5.6,0-8.3c0-1.9,0.9-3.3,2.5-4.3c0.9-0.6,2-0.9,3.1-0.9c2.5,0,4.9,0,7.4,0
		c1.9,0,3.5,0.8,4.7,2.3c0.6,0.8,1,1.8,1,2.9C-236.6,573.5-236.6,574.8-236.6,576.2L-236.6,576.2z M-238,576.2V572
		c0-0.7-0.2-1.4-0.7-2c-0.9-1.2-2.1-1.7-3.5-1.8c-2.5,0-5,0-7.5,0c-0.8,0-1.5,0.2-2.2,0.6c-1.3,0.7-2,1.9-2,3.4c0,2.7,0,5.4,0,8.1
		c0,0.8,0.2,1.5,0.7,2c0.9,1.2,2.1,1.7,3.5,1.7c2.5,0,5,0,7.6,0c0.6,0,1.1-0.1,1.7-0.3c1.4-0.6,2.5-1.9,2.5-3.7
		C-238,578.8-238,577.5-238,576.2L-238,576.2z"/>
	<path class="st1" d="M-245.9,580.2c-2.4,0-4.4-1.9-4.4-4.4c0-2.4,2-4.3,4.4-4.3s4.4,2,4.4,4.3
		C-241.5,578.3-243.5,580.2-245.9,580.2L-245.9,580.2z M-245.9,572.9c-1.7,0-3,1.3-3,2.9c0,1.6,1.3,2.9,3,2.9s3-1.3,3-2.9
		C-242.9,574.3-244.2,572.9-245.9,572.9L-245.9,572.9z"/>
	<path class="st1" d="M-240.1,571.2c0,0.5-0.4,1-0.9,1s-0.9-0.4-0.9-1c0-0.5,0.4-0.9,0.9-0.9S-240.1,570.7-240.1,571.2L-240.1,571.2
		z"/>
	<circle class="st1" cx="-245.9" cy="575.9" r="3.7"/>
</g>
<path class="st0" d="M-255.5,582.2c2.1,0.2,4-0.3,5.8-1.6c-0.5,0-0.8-0.1-1.2-0.2c-1-0.4-1.7-1-2.2-1.9c-0.1-0.1-0.1-0.3-0.2-0.4
	c-0.1-0.1,0-0.2,0.1-0.1c0.5,0.1,1,0.1,1.5-0.1l0,0c0-0.1,0-0.1-0.1-0.1c-1.1-0.3-1.9-0.9-2.5-1.9c-0.3-0.5-0.5-1.1-0.5-1.8
	c0-0.2,0-0.2,0.2-0.1c0.5,0.2,1,0.4,1.6,0.4c-0.3-0.2-0.5-0.4-0.7-0.7c-0.8-0.9-1.1-2-0.9-3.1c0.1-0.4,0.2-0.8,0.4-1.2
	c0.1-0.2,0.1-0.2,0.2,0c1.5,1.9,3.9,3.4,6.8,3.8c0.3,0.1,0.6,0.1,0.9,0.1c0.2,0,0.2,0,0.1-0.2c-0.2-0.8-0.1-1.6,0.3-2.4
	c0.7-1.5,2.1-2.3,3.6-2.3c2.2,0,2.2,1.4,3.6,1c0.6-0.2,1.1-0.4,1.7-0.7c-0.3,0.9-0.8,1.6-1.6,2.1c0.7-0.1,1.4-0.3,2.1-0.6
	c-0.2,0.3-0.4,0.5-0.6,0.8c-0.4,0.4-0.8,0.8-1.2,1.2c-0.1,0.1-0.1,0.1-0.1,0.2c0.1,3.3-1.3,6.3-3.3,8.4c-2,2-4.6,3.1-7.8,3.1
	c-0.2,0-0.4,0-0.6,0c-0.8,0-1.5-0.2-2.2-0.3c-0.9-0.2-1.8-0.6-2.6-1C-255.1,582.5-255.3,582.4-255.5,582.2L-255.5,582.2z"/>
<image style="display:none;overflow:visible;enable-background:new    ;" width="934" height="937" xlink:href="../screen/Screenshot at сент. 01 15-43-38.png"  transform="matrix(4.282655e-02 0 0 4.282655e-02 -265.9221 556.1458)">
</image>
<g>
	<path d="M-380,279.8c10.2,0,18.5,8.3,18.5,18.5s-8.3,18.5-18.5,18.5s-18.5-8.3-18.5-18.5S-390.2,279.8-380,279.8 M-380,278.3
		c-11,0-20,9-20,20s9,20,20,20s20-9,20-20S-369,278.3-380,278.3L-380,278.3z"/>
</g>
<g>
	<path class="st2" d="M-376.4,298c-1.8,1-3.6,2-5.4,3C-380,300-378.2,299-376.4,298z"/>
	<path class="st2" d="M-376.4,298c-1.8-1-3.6-2-5.4-3C-380,296-378.2,297-376.4,298z"/>
	<path class="st3" d="M-381.9,300.9c1.8-1,3.6-2,5.4-3c-1.8-1-3.6-2-5.4-3V300.9z"/>
	<path class="st4" d="M-370.7,295.3c0-0.7-0.1-1.3-0.4-2s-0.7-1.1-1.4-1.3c-0.5-0.2-1-0.2-1.5-0.2c-1.6-0.1-3.3-0.1-4.9-0.1
		c-2.1,0-4.2,0-6.3,0.1c-0.6,0-1.2,0-1.9,0.1c-0.7,0.1-1.3,0.5-1.7,1.2c-0.1,0.3-0.3,0.6-0.3,0.9c-0.2,0.8-0.2,1.6-0.3,2.5
		c-0.1,1.5-0.1,3.1,0.1,4.7c0.1,0.8,0.2,1.5,0.5,2.2c0.2,0.4,0.5,0.7,0.9,0.9c0.6,0.3,1.2,0.4,1.9,0.4c2,0.1,4,0.1,6,0.1
		c0.8,0,1.6,0,2.4,0c1.4,0,2.7-0.1,4.1-0.2c1.3-0.1,2.2-0.6,2.5-2c0.2-0.6,0.2-1.2,0.2-1.8C-370.5,298.9-370.5,297.1-370.7,295.3z
		 M-381.9,300.9v-6c1.8,1,3.6,2,5.4,3C-378.2,299-380,300-381.9,300.9z"/>
	<polygon points="-381.9,295 -381.9,300.9 -376.4,298 	"/>
</g>
</svg>
