<?xml version="1.0" encoding="utf-8"?>
<!-- Generator: Adobe Illustrator 16.0.0, SVG Export Plug-In . SVG Version: 6.00 Build 0)  -->
<!DOCTYPE svg PUBLIC "-//W3C//DTD SVG 1.1 Tiny//EN" "http://www.w3.org/Graphics/SVG/1.1/DTD/svg11-tiny.dtd" [
	<!ENTITY ns_flows "http://ns.adobe.com/Flows/1.0/">
	<!ENTITY ns_extend "http://ns.adobe.com/Extensibility/1.0/">
	<!ENTITY ns_ai "http://ns.adobe.com/AdobeIllustrator/10.0/">
	<!ENTITY ns_graphs "http://ns.adobe.com/Graphs/1.0/">
]>
<svg version="1.1" baseProfile="tiny" id="Layer_1" xmlns:x="&ns_extend;" xmlns:i="&ns_ai;" xmlns:graph="&ns_graphs;"
	 xmlns="http://www.w3.org/2000/svg" xmlns:xlink="http://www.w3.org/1999/xlink" xmlns:a="http://ns.adobe.com/AdobeSVGViewerExtensions/3.0/"
	 x="0px" y="0px" width="925px" height="440.625px" viewBox="0 0 925 440.625" xml:space="preserve">
<g>
	<path fill="#063314" d="M144.165,414.292c-1.431-0.173-2.417-0.259-2.96-0.259c-0.813,0-1.788,0.086-2.923,0.259
		c-0.444-1.455-1.283-3.083-2.516-4.884c-1.086-1.479-2.171-2.96-3.256-4.439l-2.96,3.752v0.223c0,2.303,0.246,4.087,0.739,5.349
		c-1.086-0.173-1.924-0.259-2.516-0.259s-1.406,0.086-2.442,0.259c0.419-1.605,0.629-3.805,0.629-6.597
		c0-6.475,0.013-8.884,0.037-7.229c-0.05-3.139-0.271-5.461-0.666-6.969c1.036,0.148,1.851,0.223,2.442,0.223
		s1.43-0.074,2.516-0.223c-0.493,3.479-0.739,6.167-0.739,8.066v3.034c2.441-3.196,3.773-4.941,3.995-5.237
		c1.974-2.753,2.96-4.511,2.96-5.272c0-0.147-0.024-0.344-0.073-0.591c1.332,0.148,2.354,0.223,3.07,0.223
		c0.69,0,1.825-0.074,3.404-0.223c-2.122,1.552-4.761,4.347-7.918,8.385C137.653,406.118,140.712,410.255,144.165,414.292z"/>
	<path fill="#063314" d="M181.425,403.674c0,3.231-0.79,5.797-2.368,7.695c-1.678,2.048-4.107,3.071-7.289,3.071
		c-3.207,0-5.674-0.949-7.4-2.849c-1.652-1.825-2.479-4.354-2.479-7.585c0-3.257,0.801-5.834,2.404-7.733
		c1.702-1.998,4.156-2.997,7.363-2.997c3.133,0,5.562,0.962,7.289,2.886C180.598,398.013,181.425,400.517,181.425,403.674z
		 M177.502,403.896c0-5.5-1.874-8.251-5.623-8.251c-4.096,0-6.143,2.751-6.143,8.251c0,5.476,1.998,8.214,5.994,8.214
		C175.578,412.109,177.502,409.371,177.502,403.896z"/>
	<path fill="#063314" d="M219.534,393.831l-1.036,4.145c-1.086-0.888-2.973-1.332-5.661-1.332v13.023
		c0,1.555,0.357,3.034,1.073,4.44h-6.142c0.689-1.406,1.035-2.886,1.035-4.44v-13.023h-0.851c-2.27,0-4.218,0.444-5.846,1.332
		l0.999-4.145H219.534z"/>
	<path fill="#063314" d="M258.384,393.831l-1.036,4.145c-1.086-0.888-2.973-1.332-5.661-1.332v13.023
		c0,1.555,0.357,3.034,1.073,4.44h-6.142c0.689-1.406,1.035-2.886,1.035-4.44v-13.023h-0.851c-2.27,0-4.218,0.444-5.846,1.332
		l0.999-4.145H258.384z"/>
	<path fill="#063314" d="M296.383,401.897c0,0.666-0.037,1.394-0.111,2.183h-13.356c0.394,5.23,2.886,7.845,7.474,7.845
		c2.294,0,4.082-0.679,5.365-2.035c-0.42,1.223-0.679,2.471-0.777,3.742c-1.702,0.489-3.453,0.734-5.254,0.734
		c-3.354,0-5.994-0.936-7.918-2.807s-2.886-4.481-2.886-7.831c0-3.151,0.752-5.638,2.257-7.46c1.652-1.97,4.021-2.955,7.104-2.955
		c2.64,0,4.649,0.765,6.031,2.294C295.691,397.137,296.383,399.233,296.383,401.897z M292.498,401.897
		c0.024-4.316-1.475-6.475-4.497-6.475c-3.121,0-4.816,2.158-5.086,6.475H292.498z"/>
	<path fill="#063314" d="M338.562,416.66c-0.321-0.147-0.679-0.222-1.073-0.222c-0.222,0-0.573,0.037-1.055,0.111
		c-0.48,0.073-0.845,0.11-1.092,0.11l-0.518-0.037c0.099-0.395,0.148-0.752,0.148-1.072c0-0.494-0.1-0.975-0.297-1.443h-14.134
		c-0.197,0.469-0.296,0.949-0.296,1.443c0,0.32,0.049,0.678,0.148,1.072l-0.519,0.037c-0.247,0-0.61-0.037-1.091-0.11
		c-0.481-0.074-0.833-0.111-1.055-0.111c-0.396,0-0.752,0.074-1.073,0.222c0.05-0.919,0.21-1.913,0.481-2.98
		c0.369-1.516,0.813-2.273,1.332-2.273c0.049,0,0.116,0.013,0.203,0.037c0.086,0.025,0.153,0.037,0.203,0.037
		c0.173,0,0.383-0.074,0.629-0.222c0.099-0.74,0.26-1.419,0.481-2.035c1.431-3.65,2.726-7.19,3.885-10.619
		c0.296-0.838,0.604-1.689,0.925-2.553c0.346-1.086,0.519-1.948,0.519-2.591c0.962,0.124,1.714,0.186,2.257,0.186
		c0.542,0,1.295-0.062,2.257-0.186c0.938,3.262,2.417,7.598,4.44,13.008c0.345,1.112,0.912,2.768,1.702,4.967
		c0.271,0.173,0.684,0.259,1.239,0.259c0.555,0,0.943,0.704,1.165,2.112C338.427,414.104,338.488,415.055,338.562,416.66z
		 M331.644,411.259c-0.025-0.69-0.124-1.319-0.296-1.888c-0.987-2.812-2.381-7.054-4.182-12.728c-0.32,1.431-1.086,3.86-2.294,7.289
		c-1.061,3.059-1.739,5.501-2.035,7.326H331.644z"/>
	<path fill="#063314" d="M391.73,414.292c-1.405-0.173-2.393-0.259-2.96-0.259c-0.813,0-1.788,0.086-2.923,0.259
		c-0.444-1.455-1.283-3.083-2.516-4.884c-1.086-1.479-2.171-2.96-3.256-4.439l-2.96,3.752v0.223c0,2.303,0.246,4.087,0.739,5.349
		c-1.085-0.173-1.924-0.259-2.516-0.259s-1.406,0.086-2.442,0.259c0.395-1.461,0.604-3.343,0.629-5.646l-2.886-3.677
		c-1.086,1.479-2.171,2.96-3.256,4.439c-1.233,1.801-2.072,3.429-2.516,4.884c-1.135-0.173-2.109-0.259-2.924-0.259
		c-0.567,0-1.554,0.086-2.96,0.259c3.453-4.045,6.513-8.188,9.177-12.432c-3.158-4.045-5.797-6.845-7.918-8.399
		c1.578,0.124,2.713,0.186,3.403,0.186c0.716,0,1.739-0.062,3.071-0.186c-0.05,0.247-0.074,0.444-0.074,0.593
		c0,1.258,2.294,4.687,6.882,10.286v-4.492c0-2.648-0.209-4.777-0.629-6.387c1.036,0.124,1.851,0.186,2.442,0.186
		s1.431-0.062,2.516-0.186c-0.493,3.49-0.739,6.188-0.739,8.094v3.044c2.441-3.206,3.773-4.958,3.995-5.254
		c1.974-2.763,2.96-4.526,2.96-5.291c0-0.148-0.024-0.346-0.073-0.593c1.332,0.124,2.355,0.186,3.07,0.186
		c0.69,0,1.825-0.062,3.404-0.186c-2.122,1.555-4.761,4.354-7.918,8.399C385.219,406.104,388.277,410.247,391.73,414.292z"/>
	<path fill="#063314" d="M430.283,414.256c-1.109-0.148-1.948-0.223-2.516-0.223s-1.382,0.074-2.442,0.223
		c0.444-1.652,0.653-3.688,0.63-6.105v-3.108h-8.251v4.219c0,2.097,0.246,3.762,0.739,4.995c-1.109-0.148-1.948-0.223-2.516-0.223
		s-1.382,0.074-2.442,0.223c0.419-1.579,0.629-3.59,0.629-6.031v-8.51c0-2.541-0.21-4.612-0.629-6.217
		c1.061,0.148,1.875,0.223,2.442,0.223s1.406-0.074,2.516-0.223c-0.493,3.479-0.739,6.377-0.739,8.695h8.214
		c-0.025-1.455-0.037-2.91-0.037-4.366c-0.05-1.702-0.235-3.145-0.556-4.329c1.061,0.148,1.875,0.223,2.442,0.223
		s1.406-0.074,2.516-0.223c-0.493,3.479-0.739,6.167-0.739,8.066v7.733C429.544,411.369,429.79,413.022,430.283,414.256z"/>
	<path fill="#063314" d="M467.432,408.409c0,1.875-0.444,3.22-1.332,4.033c-1.185,1.11-2.578,1.665-4.182,1.665h-9.768l-0.444,0.148
		c0.346-1.33,0.556-2.905,0.629-4.728c0.024-0.271,0.037-1.872,0.037-4.802c0-5.417-0.283-9.159-0.851-11.229l5.032,0.074
		l-0.556,2.284v6.374l2.627-0.037c1.825,0,3.676,0.321,5.551,0.962l-0.186-0.111C466.284,404.426,467.432,406.214,467.432,408.409z
		 M463.879,408.632c0-1.48-0.579-2.504-1.738-3.071c-0.79-0.395-2.023-0.592-3.7-0.592c-0.222,0-0.629,0.013-1.221,0.037
		c-0.519,0-0.926,0-1.222,0v6.733c0.271,0,0.647,0,1.129,0c0.48,0,0.819,0,1.018,0C461.968,411.739,463.879,410.703,463.879,408.632
		z M473.685,414.256c-1.11-0.1-1.949-0.148-2.517-0.148s-1.382,0.049-2.441,0.148c0.419-1.604,0.629-3.799,0.629-6.587
		c0-6.561,0.024-8.966,0.074-7.215c-0.05-3.107-0.284-5.426-0.703-6.956c1.06,0.148,1.874,0.223,2.441,0.223
		s1.406-0.074,2.517-0.223c-0.494,3.479-0.74,6.167-0.74,8.066v7.881C472.944,411.419,473.19,413.022,473.685,414.256z"/>
	<path fill="#063314" d="M512.09,414.256c-1.109-0.1-1.948-0.148-2.516-0.148s-1.382,0.049-2.442,0.148
		c0.469-1.752,0.753-4.119,0.852-7.104c0.049-1.036,0.074-3.453,0.074-7.252v-1.184l-8.807,15.392c-0.346,0-0.629,0-0.851,0
		c-0.987,0-2.023,0.049-3.108,0.148c0.419-1.579,0.629-3.577,0.629-5.994v-8.584c0-2.517-0.21-4.575-0.629-6.18
		c1.061,0.148,1.875,0.223,2.442,0.223s1.406-0.074,2.516-0.223c-0.493,3.503-0.753,8.228-0.776,14.171l8.251-13.838
		c0.147,0,0.296,0,0.443,0c0.789,0,2.097-0.11,3.922-0.333c-0.493,3.479-0.739,6.167-0.739,8.066v7.696
		C511.351,411.357,511.597,413.022,512.09,414.256z M509.759,387.394c-2.763,2.614-4.81,3.922-6.142,3.922
		c-1.209,0-3.244-1.308-6.104-3.922c0.419-0.37,0.752-0.802,0.999-1.295c1.85,1.702,3.563,2.553,5.143,2.553
		c1.554,0,3.256-0.851,5.106-2.553C509.031,386.592,509.364,387.023,509.759,387.394z"/>
	<path fill="#063314" d="M579.688,393.498c-0.543,3.479-0.813,6.167-0.813,8.066v7.807c0,2.023,0.246,3.651,0.739,4.885
		c-1.085-0.148-1.924-0.223-2.516-0.223s-1.406,0.074-2.442,0.223c0.444-1.652,0.666-5.255,0.666-10.805
		c0-0.986-0.013-2.207-0.036-3.663c0-2.441,0-3.65,0-3.626h-8.251v12.876c0,2.245,0.246,3.984,0.739,5.218
		c-1.086-0.148-1.924-0.223-2.516-0.223s-1.406,0.074-2.442,0.223c0.419-1.604,0.629-3.688,0.629-6.254v-8.398
		c0-2.467-0.21-4.501-0.629-6.105H579.688z"/>
	<path fill="#063314" d="M619.76,403.674c0,3.231-0.79,5.797-2.368,7.695c-1.678,2.048-4.107,3.071-7.289,3.071
		c-3.207,0-5.674-0.949-7.4-2.849c-1.652-1.825-2.479-4.354-2.479-7.585c0-3.257,0.801-5.834,2.404-7.733
		c1.702-1.998,4.156-2.997,7.363-2.997c3.133,0,5.562,0.962,7.289,2.886C618.933,398.013,619.76,400.517,619.76,403.674z
		 M615.837,403.896c0-5.5-1.874-8.251-5.623-8.251c-4.096,0-6.143,2.751-6.143,8.251c0,5.476,1.998,8.214,5.994,8.214
		C613.913,412.109,615.837,409.371,615.837,403.896z"/>
	<path fill="#063314" d="M656.833,394.164c-0.444,1.135-0.777,2.258-0.999,3.367c-1.135-1.159-2.59-1.739-4.366-1.739
		c-2.121,0-3.749,0.777-4.884,2.331c-1.012,1.382-1.517,3.17-1.517,5.365c0,2.492,0.604,4.514,1.812,6.068
		c1.332,1.702,3.206,2.553,5.624,2.553c1.529,0,2.824-0.432,3.885-1.295c-0.395,1.086-0.653,2.146-0.776,3.182
		c-1.382,0.296-2.578,0.444-3.589,0.444c-3.43,0-6.105-0.906-8.029-2.72c-1.924-1.812-2.886-4.421-2.886-7.825
		c0-3.231,0.943-5.803,2.83-7.715c1.887-1.911,4.446-2.867,7.678-2.867C653.146,393.313,654.884,393.598,656.833,394.164z"/>
	<path fill="#063314" d="M693.98,401.897c0,0.666-0.037,1.394-0.111,2.183h-13.356c0.394,5.23,2.886,7.845,7.474,7.845
		c2.294,0,4.082-0.679,5.365-2.035c-0.42,1.223-0.679,2.471-0.777,3.742c-1.702,0.489-3.453,0.734-5.254,0.734
		c-3.354,0-5.994-0.936-7.918-2.807s-2.886-4.481-2.886-7.831c0-3.151,0.752-5.638,2.257-7.46c1.652-1.97,4.021-2.955,7.104-2.955
		c2.64,0,4.649,0.765,6.031,2.294C693.289,397.137,693.98,399.233,693.98,401.897z M690.096,401.897
		c0.024-4.316-1.475-6.475-4.497-6.475c-3.121,0-4.816,2.158-5.086,6.475H690.096z"/>
	<path fill="#063314" d="M733.645,414.219c-1.086-0.148-1.949-0.223-2.591-0.223c-0.173,0-1.146,0.074-2.923,0.223
		c0.05-0.197,0.074-0.407,0.074-0.629c0-0.938-0.309-2.344-0.925-4.219c-0.987-2.812-2.381-7.054-4.182-12.728
		c-0.073,0.345-1.048,3.385-2.923,9.12c-1.455,4.505-2.084,7.323-1.887,8.455c-1.16-0.1-1.937-0.148-2.331-0.148
		s-1.135,0.049-2.22,0.148c0.493-1.108,1.208-2.771,2.146-4.986s1.974-4.912,3.108-8.089c1.479-4.161,2.232-6.722,2.257-7.683
		c0.938,0.124,1.689,0.186,2.257,0.186s1.319-0.062,2.257-0.186C728.254,402.193,730.881,409.112,733.645,414.219z"/>
	<path fill="#063314" d="M771.533,403.674c0,3.231-0.79,5.797-2.368,7.695c-1.678,2.048-4.107,3.071-7.289,3.071
		c-3.207,0-5.674-0.949-7.4-2.849c-1.652-1.825-2.479-4.354-2.479-7.585c0-3.257,0.801-5.834,2.404-7.733
		c1.702-1.998,4.156-2.997,7.363-2.997c3.133,0,5.562,0.962,7.289,2.886C770.706,398.013,771.533,400.517,771.533,403.674z
		 M767.61,403.896c0-5.5-1.874-8.251-5.623-8.251c-4.096,0-6.143,2.751-6.143,8.251c0,5.476,1.998,8.214,5.994,8.214
		C765.687,412.109,767.61,409.371,767.61,403.896z"/>
	<path fill="#063314" d="M812.491,414.292c-1.431-0.173-2.417-0.259-2.96-0.259c-0.813,0-1.788,0.086-2.923,0.259
		c-0.444-1.455-1.283-3.083-2.516-4.884c-1.086-1.479-2.171-2.96-3.256-4.439l-2.96,3.752v0.223c0,2.303,0.246,4.087,0.739,5.349
		c-1.086-0.173-1.924-0.259-2.516-0.259s-1.406,0.086-2.442,0.259c0.419-1.605,0.629-3.805,0.629-6.597
		c0-6.475,0.013-8.884,0.037-7.229c-0.05-3.139-0.271-5.461-0.666-6.969c1.036,0.148,1.851,0.223,2.442,0.223
		s1.43-0.074,2.516-0.223c-0.493,3.479-0.739,6.167-0.739,8.066v3.034c2.441-3.196,3.773-4.941,3.995-5.237
		c1.974-2.753,2.96-4.511,2.96-5.272c0-0.147-0.024-0.344-0.073-0.591c1.332,0.148,2.354,0.223,3.07,0.223
		c0.69,0,1.825-0.074,3.404-0.223c-2.122,1.552-4.761,4.347-7.918,8.385C805.979,406.118,809.038,410.255,812.491,414.292z"/>
</g>
<g>
	<g>
		<g>
			<path fill="#063314" d="M72.769,239.713c12.539,1.568,25.082,3.081,37.632,4.538c0.042,14.157,0.085,28.315,0.127,42.473
				c0.39,26.427-22.878,32.612-40.067,31.755c-19.06-0.95-40.393-11.181-40.143-38.523c0-25.095,0-50.19,0-75.285
				c-0.424-27.725,22.107-31.876,39.904-28.447c17.881,3.444,40.191,14.572,40.098,40.859c0.015,5.204,0.024,7.808,0.039,13.012
				c-8.473-1.082-16.941-2.198-25.408-3.352c-0.013-5.877-0.021-8.817-0.033-14.694c-0.021-9.794-5.398-14.384-13.93-15.831
				c-8.535-1.447-13.889,1.427-13.877,11.489c0.031,25.36,0.058,50.722,0.09,76.082c0.012,10.064,5.396,14.079,13.961,14.676
				c8.562,0.597,13.941-2.573,13.92-12.368c-0.022-10.108-0.033-15.16-0.057-25.269c-4.89-0.509-7.334-0.767-12.222-1.291
				C72.789,251.607,72.782,247.642,72.769,239.713z"/>
			<path fill="#063314" d="M191.11,322.191c-1.485-3.273-2.475-5.289-2.519-15.508c-0.035-7.888-0.052-11.832-0.087-19.72
				c0.468-12.556-8.976-17.082-17.719-17.322c-3.726-0.297-5.588-0.446-9.312-0.753c0.07,17.396,0.142,34.79,0.212,52.186
				c-8.988-0.365-17.976-0.738-26.963-1.123c-0.158-43.699-0.312-87.398-0.47-131.098c13.529,2.116,27.069,4.108,40.623,5.979
				c16.038,2.023,40.258,8.269,40.083,33.42c0.018,3.868,0.025,5.802,0.043,9.67c0.424,12.897-17.541,23.604-17.541,23.604
				c-0.014,0.317,18.266,13.625,18.02,27.576c0.035,7.595,0.054,11.393,0.089,18.987c0.027,5.978,0.293,10.391,3.012,15.04
				C209.425,322.827,200.268,322.514,191.11,322.191z M161.237,211.212c0.056,13.121,0.106,26.243,0.163,39.364
				c4.214,0.409,6.319,0.613,10.534,1.008c10.045,0.941,16.161-1.753,16.117-11.795c-0.021-4.949-0.035-7.422-0.057-12.371
				c-0.04-8.966-4.223-13.387-13.775-14.567C169.026,212.209,166.429,211.882,161.237,211.212z"/>
			<path fill="#063314" d="M266.7,255.631c12.363,0.786,24.728,1.521,37.096,2.201c0.027,6.676,0.041,10.014,0.068,16.689
				c-12.365-0.578-24.727-1.203-37.089-1.876c0.053,11.628,0.104,23.257,0.155,34.885c15.549,0.544,31.098,1.034,46.648,1.476
				c0.025,6.646,0.039,9.971,0.064,16.617c-24.545-0.509-49.088-1.122-73.63-1.829c-0.188-40.358-0.37-80.718-0.556-121.076
				c24.559,2.56,49.131,4.758,73.734,6.593c0.025,6.646,0.039,9.97,0.064,16.616c-15.575-1.042-31.141-2.199-46.704-3.479
				C266.603,233.509,266.652,244.569,266.7,255.631z"/>
			<path fill="#063314" d="M363.876,260.444c12.383,0.399,24.764,0.741,37.147,1.029c0.013,6.46,0.018,9.688,0.029,16.147
				c-12.378-0.242-24.753-0.536-37.129-0.875c0.032,11.14,0.064,22.279,0.095,33.419c15.561,0.273,31.121,0.495,46.682,0.668
				c0.012,6.448,0.017,9.672,0.027,16.12c-24.559-0.193-49.115-0.493-73.672-0.898c-0.135-38.395-0.266-76.788-0.397-115.183
				c24.619,1.446,49.241,2.529,73.882,3.238c0.01,6.448,0.015,9.674,0.026,16.122c-15.598-0.407-31.188-0.933-46.78-1.574
				C363.817,239.254,363.849,249.849,363.876,260.444z"/>
			<path fill="#063314" d="M458.196,245.813c0.007,27.115,0.013,54.231,0.023,81.347c-8.107-0.01-16.213-0.034-24.319-0.07
				c-0.032-37.496-0.075-74.991-0.11-112.487c11.336,0.178,22.673,0.269,34.01,0.27c9.268,22.367,18.539,44.733,27.79,67.111
				c0.021-22.432,0.038-44.863,0.056-67.295c8.051-0.104,16.1-0.254,24.148-0.449c-0.054,37.583-0.117,75.166-0.17,112.749
				c-9.252,0.057-18.504,0.104-27.756,0.137C480.657,300.013,469.423,272.916,458.196,245.813z"/>
			<path fill="#063314" d="M605.882,264.373c-3.342,20.576-6.689,41.151-10.045,61.725c-12.36,0.199-24.721,0.372-37.08,0.527
				c-6.262-37.668-12.574-75.321-18.921-112.968c8.786-0.312,17.569-0.661,26.354-1.047c4.777,29.838,9.527,59.682,14.252,89.531
				c4.454-30.321,8.894-60.646,13.324-90.973c8.699-0.513,17.396-1.08,26.09-1.694c4.409,30.616,8.795,61.237,13.152,91.864
				c4.818-31.329,9.62-62.661,14.393-94c7.868-0.658,15.734-1.363,23.598-2.11c-6.502,39.929-13.063,79.843-19.677,119.744
				c-11.948,0.277-23.896,0.535-35.844,0.773C612.291,305.286,609.091,284.828,605.882,264.373z"/>
			<path fill="#063314" d="M691.225,203.209c9.003-0.961,18.003-1.96,27.001-2.994c-0.188,40.962-0.377,81.923-0.565,122.885
				c-8.995,0.288-17.99,0.566-26.987,0.83C690.852,283.689,691.041,243.449,691.225,203.209z"/>
			<path fill="#063314" d="M744.544,196.96c8.986-1.188,17.967-2.412,26.946-3.674c-0.155,36.541-0.296,73.081-0.454,109.622
				c14.785-0.813,29.567-1.672,44.35-2.583c-0.025,7.589-0.036,11.383-0.062,18.972c-23.776,1.068-47.555,2.03-71.337,2.9
				C744.171,280.451,744.361,238.706,744.544,196.96z"/>
			<path fill="#063314" d="M834.151,183.399c8.947-1.565,17.888-3.171,26.826-4.811c-0.07,39.575-0.145,79.151-0.217,118.727
				c14.757-1.054,29.512-2.152,44.264-3.296c0,8.273,0.002,12.409,0.002,20.683c-23.745,1.341-47.492,2.582-71.242,3.737
				C833.905,273.426,834.026,228.413,834.151,183.399z"/>
		</g>
		<path fill="#063314" d="M905.026,133.889c-288.736,69.885-585.973,69.874-874.709,0c0,3.484,0,5.227,0,8.712
			c288.91,67.337,585.799,67.327,874.709,0C905.026,139.115,905.026,137.373,905.026,133.889z"/>
		<path fill="#063314" d="M905.026,106.753c-288.115,77.827-586.596,77.827-874.709,0c0,3.485,0,5.228,0,8.713
			c288.374,75.23,586.336,75.23,874.709,0C905.026,111.98,905.026,110.238,905.026,106.753z"/>
		<path fill="#063314" d="M905.026,336.196c-291.509,10.101-583.201,10.074-874.709,0c0,3.485,0,5.229,0,8.714
			c291.536,7.484,583.172,7.51,874.709,0C905.026,341.425,905.026,339.682,905.026,336.196z"/>
		<path fill="#063314" d="M905.026,361.537c-291.566,2.561-583.144,2.585-874.709,0c0,3.485,0,5.228,0,8.713
			c291.569,0,583.139,0,874.709,0C905.026,366.765,905.026,365.022,905.026,361.537z"/>
	</g>
</g>
<path fill="#D0DA54" stroke="#063314" stroke-width="6.8561" stroke-miterlimit="10" d="M570.282,97.84v-4.92h-0.202
	c-1.549-19.729-12.213-38.013-30.438-51.929c-3.802-2.903-7.852-5.546-12.104-7.924l0.004-0.009
	c-0.134-0.073-0.271-0.14-0.405-0.213c-14.04-7.768-30.315-12.624-47.547-14.16c-0.068-0.006-0.137-0.011-0.205-0.017
	c-1.195-0.104-2.396-0.195-3.601-0.267c-0.09-0.007-0.178-0.014-0.268-0.019c-1.172-0.068-2.347-0.118-3.525-0.156
	c-0.257-0.008-0.514-0.015-0.771-0.021c-1.181-0.03-2.363-0.052-3.551-0.052s-2.37,0.021-3.551,0.052
	c-0.257,0.007-0.514,0.014-0.771,0.021c-1.179,0.038-2.354,0.088-3.525,0.156c-0.09,0.005-0.178,0.012-0.268,0.019
	c-1.205,0.071-2.405,0.162-3.601,0.267c-0.068,0.006-0.137,0.011-0.205,0.017c-17.231,1.536-33.507,6.393-47.547,14.16
	c-0.135,0.073-0.271,0.14-0.405,0.213l0.005,0.009c-4.254,2.378-8.304,5.021-12.105,7.924c-18.226,13.916-28.89,32.2-30.438,51.929
	h-0.202v4.92c0,0.031-0.002,0.063-0.002,0.095c0,21.633,10.882,41.856,30.643,56.945c18.683,14.266,43.255,22.323,69.435,22.812
	c0.844,0.016,1.69,0.024,2.538,0.024s1.694-0.009,2.538-0.024c26.18-0.489,50.752-8.547,69.435-22.812
	c19.761-15.089,30.643-35.312,30.643-56.945C570.284,97.903,570.282,97.871,570.282,97.84z"/>
<path fill="#063314" d="M553.516,93.684h-43.341h-3.291v8.502h3.291h34.636c-1.316,13.778-9.023,26.654-22.033,36.633
	c-14.672,11.255-34.243,17.454-55.108,17.454s-40.437-6.199-55.109-17.454c-14.339-10.998-22.235-25.518-22.235-40.884
	s7.896-29.885,22.235-40.882c14.673-11.256,34.244-17.455,55.109-17.455c14.917,0,29.236,3.176,41.679,9.216
	c-4.047,8.377-13.102,27.399-20.301,44.562c-7.262-16.75-15.972-34.031-17.586-37.213l-3.791-7.47l-3.791,7.47
	c-1.617,3.188-10.362,20.536-17.634,37.319c-7.271-16.783-16.015-34.131-17.632-37.319l-7.582,3.848
	c6.316,12.446,14.877,30.435,20.643,44.505c-3.336,8.526-5.681,15.926-5.681,19.878c0,11.706,3.449,17.641,10.253,17.641
	c6.803,0,10.251-5.935,10.251-17.641c0-3.952-2.345-11.351-5.681-19.877c4.676-11.408,11.189-25.396,16.854-36.912
	c5.67,11.53,12.192,25.538,16.869,36.953c-3.39,8.844-5.698,16.202-5.698,19.836c0,11.706,3.448,17.641,10.252,17.641
	s10.252-5.935,10.252-17.641c0-3.956-2.348-11.36-5.688-19.896c6.489-16.212,16.697-38.336,24.391-54.139l3.705-7.417
	c-16.491-8.415-34.894-12.634-54.084-12.634c-24.506,0-47.596,6.875-65.015,19.357c-17.85,12.79-27.68,29.932-27.68,48.269
	s9.83,35.479,27.68,48.27c17.421,12.483,40.51,19.358,65.015,19.358s47.593-6.875,65.014-19.358
	c17.85-12.79,27.681-29.933,27.681-48.27v-4.251H553.516z M446.439,133.523c-0.075,0.01-0.312,0.01-0.389,0
	c-0.219-0.242-1.557-2.017-1.557-9.13c0-1.614,0.642-4.29,1.751-7.707c1.109,3.416,1.751,6.093,1.751,7.707
	C447.996,131.505,446.66,133.28,446.439,133.523z M489.287,133.523c-0.076,0.01-0.314,0.01-0.389,0
	c-0.22-0.242-1.557-2.018-1.557-9.13c0-1.503,0.646-4.153,1.775-7.632c1.095,3.381,1.727,6.03,1.727,7.632
	C490.844,131.506,489.508,133.281,489.287,133.523z"/>
<g>
</g>
<g>
</g>
<g>
</g>
<g>
</g>
<g>
</g>
<g>
</g>
</svg>
