<svg id="sprite" data-name="sprite" xmlns="http://www.w3.org/2000/svg" viewBox="0 0 192.7 192.6">
  <defs>
    <!-- <style>
      g {
        display: none;
      }
      g:target {
        display: inline;
      }
    </style> -->
  </defs>
  <g id="ICONS_GREEN_N">
        <path style="fill:#00bfa5;" d="M70.7,102.3H98.1l-6.3-7.9L75.3,73.9l.8-.6a31.9,31.9,0,0,0,7.1-7.5A31,31,0,0,0,85,62.8a29.4,29.4,0,0,0,1.9-4.6,25.8,25.8,0,0,0,1.3-8,35.1,35.1,0,0,0-5.7-19.7,99.2,99.2,0,0,0-58.3,71.7H43.4V79.6h8.9l18.3,22.7Z" transform="translate(-19.9 -15.6)"/>
        <path style="fill:#00897b;" d="M99.7,101.1l-6.3-7.9L78.1,74.3l1.7-1.5a32.3,32.3,0,0,0,10-18.2h0l.2-1.3V51.8c0-.5,0-1,0-1.5a36.6,36.6,0,0,0-6.1-20.8l-.9-1.4h0l-.7-.8a31.8,31.8,0,0,0-8-6.9,31.1,31.1,0,0,0-17.2-4.8H19.9v88.6H45.4V81.6h5.8l17.8,22,.6.7h32.7ZM43.4,79.6v22.7H24.2A99.2,99.2,0,0,1,82.5,30.6a35.1,35.1,0,0,1,5.7,19.7,25.8,25.8,0,0,1-1.3,8A29.4,29.4,0,0,1,85,62.8a31,31,0,0,1-1.7,2.9,31.9,31.9,0,0,1-7.1,7.5l-.8.6L91.8,94.4l6.3,7.9H70.6L52.3,79.6ZM21.9,94.7v-77H57.4A29.9,29.9,0,0,1,80,27.4,103,103,0,0,0,21.9,94.7Z" transform="translate(-19.9 -15.6)"/>
        <path style="fill:#00bfa5;" d="M57.4,17.7H21.9v77A103,103,0,0,1,80,27.4,29.9,29.9,0,0,0,57.4,17.7Z" transform="translate(-19.9 -15.6)"/>
    </g>
    <g id="ICONS_N">
        <path style="fill:#b1cf33;" d="M70.7,102.3H98.1l-6.3-7.9L75.3,73.9l.8-.6a31.9,31.9,0,0,0,7.1-7.5A31,31,0,0,0,85,62.8a29.4,29.4,0,0,0,1.9-4.6,25.8,25.8,0,0,0,1.3-8,35.1,35.1,0,0,0-5.7-19.7,99.2,99.2,0,0,0-58.3,71.7H43.4V79.6h8.9l18.3,22.7Z" transform="translate(-19.9 -15.6)"/>
        <path style="fill:#fff;" d="M99.7,101.1l-6.3-7.9L78.1,74.3l1.7-1.5a32.3,32.3,0,0,0,10-18.2h0l.2-1.3V51.8c0-.5,0-1,0-1.5a36.6,36.6,0,0,0-6.1-20.8l-.8-1.3h0l-.7-.8h-.1l-1.6-1.8a31.4,31.4,0,0,0-8.1-6.2,30.3,30.3,0,0,0-11.7-3.6H19.9v88.6H45.4V81.6h5.8l17.8,22,.6.7h32.7ZM43.4,79.6v22.7H24.2A99.2,99.2,0,0,1,82.5,30.6a35.1,35.1,0,0,1,5.7,19.7,25.8,25.8,0,0,1-1.3,8A29.4,29.4,0,0,1,85,62.8a31,31,0,0,1-1.7,2.9,31.9,31.9,0,0,1-7.1,7.5l-.8.6L91.8,94.4l6.3,7.9H70.6L52.3,79.6ZM21.9,94.7v-77H57.4A29.9,29.9,0,0,1,80,27.4,103,103,0,0,0,21.9,94.7Z" transform="translate(-19.9 -15.6)"/>
        <path style="fill:#74b78c;" d="M57.4,17.7H21.9v77A103,103,0,0,1,80,27.4,29.9,29.9,0,0,0,57.4,17.7Z" transform="translate(-19.9 -15.6)"/>
    </g>
    <g id="ICONS_GREEN_WEB" viewBox="0 0 104.5 100.2">
        <path style="fill:#00bfa5" d="M9.8,63.3H110.2V19.7a8.7,8.7,0,0,0-8.8-8.8H18.6a8.7,8.7,0,0,0-8.8,8.8Z" transform="translate(-7.8 -8.9)"/>
        <path style="fill:#00897b" d="M101.4,8.9H18.6A10.8,10.8,0,0,0,7.8,19.7V71.1A10.8,10.8,0,0,0,18.6,81.9H43.3v1.2L41.8,107v2.1H78.3V107L76.8,83.1V81.9h24.8a10.8,10.8,0,0,0,10.8-10.8V19.7A11,11,0,0,0,101.4,8.9ZM43.8,107.1,45.2,82H74.8l1.4,25.1ZM18.6,79.9a8.7,8.7,0,0,1-8.8-8.8v-5H110.2v5a8.7,8.7,0,0,1-8.8,8.8Zm0-69h82.8a8.7,8.7,0,0,1,8.8,8.8V63.3H9.8V19.7A8.7,8.7,0,0,1,18.6,10.9Z" transform="translate(-7.8 -8.9)"/>
        <path style="fill:#00bfa5" d="M110.2,71.1v-5H9.8v5a8.7,8.7,0,0,0,8.8,8.8h82.8A8.7,8.7,0,0,0,110.2,71.1Z" transform="translate(-7.8 -8.9)"/>
        <polygon style="fill:#00bfa5" points="37.4 73.1 36 98.2 68.4 98.2 67 73.1 37.4 73.1"/>
    </g>
    <g id="ICONS_WEB" viewBox="0 0 104.5 100.2">
        <path style="fill:#527090" d="M9.8,63.3H110.2V19.7a8.7,8.7,0,0,0-8.8-8.8H18.6a8.7,8.7,0,0,0-8.8,8.8Z" transform="translate(-7.8 -8.9)"/>
        <path style="fill:#fff" d="M101.4,8.9H18.6A10.8,10.8,0,0,0,7.8,19.7V71.1A10.8,10.8,0,0,0,18.6,81.9H43.3v1.2L41.8,107v2.1H78.3V107L76.8,83.1V81.9h24.8a10.8,10.8,0,0,0,10.8-10.8V19.7A11,11,0,0,0,101.4,8.9ZM43.8,107.1,45.2,82H74.8l1.4,25.1ZM18.6,79.9a8.7,8.7,0,0,1-8.8-8.8v-5H110.2v5a8.7,8.7,0,0,1-8.8,8.8Zm0-69h82.8a8.7,8.7,0,0,1,8.8,8.8V63.3H9.8V19.7A8.7,8.7,0,0,1,18.6,10.9Z" transform="translate(-7.8 -8.9)"/>
        <path style="fill:#879cb2" d="M110.2,71.1v-5H9.8v5a8.7,8.7,0,0,0,8.8,8.8h82.8A8.7,8.7,0,0,0,110.2,71.1Z" transform="translate(-7.8 -8.9)"/>
        <polygon style="fill:#527090" points="37.4 73.1 36 98.2 68.4 98.2 67 73.1 37.4 73.1"/>
    </g>
    <g id="ICONS__GREEN_ILLUST" viewBox="0 0 109.7 112.2">
        <path style="fill:#00bfa5" d="M71,52.2h33.2v55.2h-74V52.2H54.3V46.8H7.2v67.1H112.8V46.8H71ZM18.5,89.8a9.4,9.4,0,1,1,9.4-9.4A9.5,9.5,0,0,1,18.5,89.8Z" transform="translate(-5.2 -3.7)"/>
        <path style="fill:#00897b" d="M18.5,75.8a4.6,4.6,0,0,0-4.6,4.6A4.5,4.5,0,0,0,18.5,85a4.6,4.6,0,0,0,0-9.2Z" transform="translate(-5.2 -3.7)"/>
        <path style="fill:#00bfa5" d="M18.5,73a7.4,7.4,0,1,0,7.4,7.4A7.4,7.4,0,0,0,18.5,73Zm0,12a4.5,4.5,0,0,1-4.6-4.6A4.6,4.6,0,1,1,18.5,85Z" transform="translate(-5.2 -3.7)"/>
        <path style="fill:#00bfa5" d="M57.3,60a19.3,19.3,0,0,1-.1,2.4l-1.4,7.9h14l-1.4-7.9a19.3,19.3,0,0,1-.1-2.4V15.3a1.4,1.4,0,0,0-.2-.7l-.5-.8a6,6,0,0,0-2.4-2h0a5.5,5.5,0,0,0-5,0h0A4.7,4.7,0,0,0,58,13.8a5.6,5.6,0,0,0-.5.8,1.4,1.4,0,0,0-.2.7Zm7.4,3.5h-4V57h4Zm0-7.1h-4V44.5h4Z" transform="translate(-5.2 -3.7)"/>
        <rect style="fill:#00897b" x="55.5" y="40.8" width="4" height="11.9"/>
        <rect style="fill:#00897b" x="55.5" y="53.3" width="4" height="6.5"/>
        <path style="fill:#00897b" d="M114.8,44.8H71V15.3a4.6,4.6,0,0,0-.5-2l-.6-1.1a8.4,8.4,0,0,0-1.8-1.9,7.4,7.4,0,0,0,0-.9,5.4,5.4,0,1,0-10.8,0,5.3,5.3,0,0,0,.1.9,8.4,8.4,0,0,0-1.9,2l-.7,1.1a4.6,4.6,0,0,0-.5,2V44.8H5.2v71.1H114.9V44.8Zm-2,69.1H7.2V46.8H54.3v5.4H30.2v55.2h74V52.2H71V46.8h41.8ZM65.7,9.2a3.1,3.1,0,0,1-.1,1,5.9,5.9,0,0,0-2.9-.7,7.2,7.2,0,0,0-2.9.6c0-.3-.1-.6-.1-.9a3,3,0,1,1,6,0Zm-8.2,5.4a5.6,5.6,0,0,1,.5-.8,4.7,4.7,0,0,1,2.2-2.1h0a5.5,5.5,0,0,1,5,0h0a6,6,0,0,1,2.4,2l.5.8a1.4,1.4,0,0,1,.2.7V60a19.3,19.3,0,0,0,.1,2.4l1.4,7.9h-14l1.4-7.9a19.3,19.3,0,0,0,.1-2.4V15.3A1.4,1.4,0,0,1,57.5,14.6ZM69.3,72.1,64.6,83.4v.2a2.1,2.1,0,0,1-2.7,1,1.8,1.8,0,0,1-1-.9v-.2L56,72.2l-.3-.9H69.6Zm-15.1-12a11.5,11.5,0,0,1-.1,1.9l-1.2,7.2a5.8,5.8,0,0,0,.3,3.2L58,84.6c0,.2.1.3.2.5a5.3,5.3,0,0,0,2.5,2.2l.6.2V89c0,1.5,2.6,1.5,2.6,0V87.5A4.6,4.6,0,0,0,67,85l.2-.3L72,72.5a5.8,5.8,0,0,0,.3-3.2L71.1,62a11.5,11.5,0,0,1-.1-1.9V54.2h31.2v51.2h-70V54.2h22Z" transform="translate(-5.2 -3.7)"/>
        <path style="fill:#00897b" d="M18.5,71a9.4,9.4,0,1,0,9.4,9.4A9.4,9.4,0,0,0,18.5,71Zm0,16.8a7.4,7.4,0,1,1,7.4-7.4A7.4,7.4,0,0,1,18.5,87.8Z" transform="translate(-5.2 -3.7)"/>
        <path style="fill:#00bfa5" d="M32.2,54.2v51.2h70V54.2H71v5.9a11.5,11.5,0,0,0,.1,1.9l1.2,7.3a5.8,5.8,0,0,1-.3,3.2L67.2,84.7,67,85a4.6,4.6,0,0,1-3.1,2.5V89c0,1.5-2.6,1.5-2.6,0V87.5l-.6-.2a5.3,5.3,0,0,1-2.5-2.2c-.1-.2-.2-.3-.2-.5L53.2,72.4a5.8,5.8,0,0,1-.3-3.2L54.1,62a11.5,11.5,0,0,0,.1-1.9V54.2h-22Z" transform="translate(-5.2 -3.7)"/>
        <path style="fill:#00bfa5" d="M56,72.2l4.7,11.3v.2a1.8,1.8,0,0,0,1,.9,2.1,2.1,0,0,0,2.7-1v-.2l4.7-11.3.3-.9H55.7Z" transform="translate(-5.2 -3.7)"/>
        <path style="fill:#00bfa5" d="M62.7,5.9a3.1,3.1,0,0,0-3,3.3c0,.3.1.6.1.9a7.2,7.2,0,0,1,2.9-.6,5.9,5.9,0,0,1,2.9.7,3.1,3.1,0,0,0,.1-1A3.1,3.1,0,0,0,62.7,5.9Z" transform="translate(-5.2 -3.7)"/>
    </g>
    <g id="ICONS_ILLUST" viewBox="0 0 109.7 111.8">
        <path style="fill:#b5306f" d="M71,52.2h33.2v55.2h-74V52.2H54.3V46.8H7.2v67.1H112.8V46.8H71ZM18.5,89.8a9.4,9.4,0,1,1,9.4-9.4A9.5,9.5,0,0,1,18.5,89.8Z" transform="translate(-5.2 -4.1)"/>
        <path style="fill:#fff" d="M18.5,75.8a4.6,4.6,0,0,0-4.6,4.6A4.5,4.5,0,0,0,18.5,85a4.6,4.6,0,0,0,0-9.2Z" transform="translate(-5.2 -4.1)"/>
        <path style="fill:#b5306f" d="M18.5,73a7.4,7.4,0,1,0,7.4,7.4A7.4,7.4,0,0,0,18.5,73Zm0,12a4.5,4.5,0,0,1-4.6-4.6A4.6,4.6,0,1,1,18.5,85Z" transform="translate(-5.2 -4.1)"/>
        <path style="fill:#b5306f" d="M57.3,60a19.3,19.3,0,0,1-.1,2.4l-1.4,7.9h14l-1.4-7.9a19.3,19.3,0,0,1-.1-2.4V15.3a1.4,1.4,0,0,0-.2-.7l-.5-.8a6,6,0,0,0-2.4-2h0a5.5,5.5,0,0,0-5,0h0A4.7,4.7,0,0,0,58,13.8a5.6,5.6,0,0,0-.5.8,1.4,1.4,0,0,0-.2.7Zm7.4,3.5h-4V57h4Zm0-7.1h-4V44.5h4Z" transform="translate(-5.2 -4.1)"/>
        <rect style="fill:#fff" x="55.5" y="40.4" width="4" height="11.9"/>
        <rect style="fill:#fff" x="55.5" y="52.9" width="4" height="6.5"/>
        <path style="fill:#fff" d="M114.8,44.8H71V15.3a4.6,4.6,0,0,0-.5-2l-.6-1.1a8.4,8.4,0,0,0-2.2-2.3c0-.2,0-.4,0-.5a5,5,0,1,0-10,0,4.6,4.6,0,0,0,0,.5,8.4,8.4,0,0,0-2.2,2.4l-.7,1.1a4.6,4.6,0,0,0-.5,2V44.8H5.2v71.1H114.9V44.8Zm-2,69.1H7.2V46.8H54.3v5.4H30.2v55.2h74V52.2H71V46.8h41.8ZM57.5,14.6a5.6,5.6,0,0,1,.5-.8,4.7,4.7,0,0,1,2.2-2.1h0a5.5,5.5,0,0,1,5,0h0a6,6,0,0,1,2.4,2l.5.8a1.4,1.4,0,0,1,.2.7V60a19.3,19.3,0,0,0,.1,2.4l1.4,7.9h-14l1.4-7.9a19.3,19.3,0,0,0,.1-2.4V15.3A1.4,1.4,0,0,1,57.5,14.6ZM69.3,72.1,64.6,83.4v.2a2.1,2.1,0,0,1-2.7,1,1.8,1.8,0,0,1-1-.9v-.2L56,72.2l-.3-.9H69.6Zm-15.1-12a11.5,11.5,0,0,1-.1,1.9l-1.2,7.2a5.8,5.8,0,0,0,.3,3.2L58,84.6c0,.2.1.3.2.5a5.3,5.3,0,0,0,2.5,2.2l.6.2V89c0,1.5,2.6,1.5,2.6,0V87.5A4.6,4.6,0,0,0,67,85l.2-.3L72,72.5a5.8,5.8,0,0,0,.3-3.2L71.1,62a11.5,11.5,0,0,1-.1-1.9V54.2h31.2v51.2h-70V54.2h22ZM62.7,5.9a3.1,3.1,0,0,1,3,3.3,3.1,3.1,0,0,1-.1,1,5.9,5.9,0,0,0-2.9-.7,7.2,7.2,0,0,0-2.9.6c0-.3-.1-.6-.1-.9A3.1,3.1,0,0,1,62.7,5.9Z" transform="translate(-5.2 -4.1)"/>
        <path style="fill:#fff" d="M18.5,71a9.4,9.4,0,1,0,9.4,9.4A9.4,9.4,0,0,0,18.5,71Zm0,16.8a7.4,7.4,0,1,1,7.4-7.4A7.4,7.4,0,0,1,18.5,87.8Z" transform="translate(-5.2 -4.1)"/>
        <path style="fill:#d43882" d="M32.2,54.2v51.2h70V54.2H71v5.9a11.5,11.5,0,0,0,.1,1.9l1.2,7.3a5.8,5.8,0,0,1-.3,3.2L67.2,84.7,67,85a4.6,4.6,0,0,1-3.1,2.5V89c0,1.5-2.6,1.5-2.6,0V87.5l-.6-.2a5.3,5.3,0,0,1-2.5-2.2c-.1-.2-.2-.3-.2-.5L53.2,72.4a5.8,5.8,0,0,1-.3-3.2L54.1,62a11.5,11.5,0,0,0,.1-1.9V54.2h-22Z" transform="translate(-5.2 -4.1)"/>
        <path style="fill:#b5306f" d="M56,72.2l4.7,11.3v.2a1.8,1.8,0,0,0,1,.9,2.1,2.1,0,0,0,2.7-1v-.2l4.7-11.3.3-.9H55.7Z" transform="translate(-5.2 -4.1)"/>
        <path style="fill:#b5306f" d="M59.8,10.1a7.2,7.2,0,0,1,2.9-.6,5.9,5.9,0,0,1,2.9.7,3.1,3.1,0,0,0,.1-1,3,3,0,1,0-6,0C59.7,9.5,59.8,9.8,59.8,10.1Z" transform="translate(-5.2 -4.1)"/>
    </g>
    <g  id="ICONS__GREEN_PACK" viewBox="0 0 99 114.3">
        <polygon style="fill:#00bfa5" points="24.2 41.9 25.2 41.3 71 14.7 49.5 2.3 2.8 29.3 3 29.5 24.2 41.9"/>
        <polygon style="fill:#00bfa5" points="72 16.5 26.2 43 48.5 56 49 56.3 69 44.7 95.9 29.1 73 15.9 72 16.5"/>
        <path style="fill:#00bfa5" d="M58,61v-.4l-22.3-13-1-.6h0l-1-.6L12.5,33.9V87.5L58,113.8ZM43.3,65.2A2.3,2.3,0,0,1,41,67.5a2.1,2.1,0,0,1-1.2-.4l-8.4-4.9-1.6-.9a3.5,3.5,0,0,1-1.8-3V55.5a2,2,0,0,1,2-2,1.8,1.8,0,0,1,1.1.3l8.1,4.7,2.3,1.4a3.5,3.5,0,0,1,1.7,3Z" transform="translate(-10.5 -2.7)"/>
        <polygon style="fill:#00bfa5" points="49.5 58.3 49.5 111.1 49.5 112.3 97 84.8 97 30.8 70 46.4 50 58 49.5 58.3"/>
        <path style="fill:#00897b" d="M60,2.7,12.3,30.3l-1,.6-.8.5V88.8l.5.3L59.5,117l49-27.8,1-.6V31.3ZM60,5,81.5,17.4,35.7,44l-1,.6L13.5,32.2l-.2-.2Zm47.5,28.5v54L60,115V61l.5-.3,20-11.6Zm-95,.4L33.7,46.3l1,.6h0l1,.6L58,60.6v53.2L12.5,87.5Zm67,13.5L59.5,59l-.5-.3-22.3-13L82.5,19.2l1-.6,22.9,13.2Z" transform="translate(-10.5 -2.7)"/>
    </g>
    <g id="ICONS_PACK" viewBox="0 0 99 114.6">
        <polygon  style="fill:#e63039" points="24.2 41.9 25.2 41.3 71 14.7 49.5 2.3 2.8 29.3 3 29.5 24.2 41.9"/>
        <polygon style="fill:#e63039" points="72 16.5 26.2 43 48.5 56 49 56.3 69 44.7 95.9 29.1 73 15.9 72 16.5"/>
        <path style="fill:#ba272d" d="M58,61v-.4l-22.3-13-1-.6h0l-1-.6L12.5,33.9V87.5L58,113.8ZM42.8,65.2A1.8,1.8,0,0,1,41,67l-.9-.3-8.4-4.9-1.6-.9a3,3,0,0,1-1.5-2.6V55.5A1.5,1.5,0,0,1,30.1,54a1.3,1.3,0,0,1,.8.2L39,58.9l2.3,1.4a3,3,0,0,1,1.5,2.6Z" transform="translate(-10.5 -2.7)"/>
        <polygon style="fill:#ba272d" points="49.5 58.3 49.5 111.1 49.5 112.3 97 84.8 97 30.8 70 46.4 50 58 49.5 58.3"/>
        <path style="fill:#fff" d="M60,2.7,12.3,30.3l-1,.6-.8.5V88.8l1,.6L60,117.3l48.5-28.1,1-.6V31.3ZM60,5,81.5,17.4,35.7,44l-1,.6L13.5,32.2l-.2-.2Zm47.5,28.5v54L60,115V61l.5-.3,20-11.6Zm-95,.4L33.7,46.3l1,.6h0l1,.6L58,60.6v53.2L12.5,87.5Zm67,13.5L59.5,59l-.5-.3-22.3-13L82.5,19.2l1-.6,22.9,13.2Z" transform="translate(-10.5 -2.7)"/>
        <path style="fill:#fff" d="M41.3,60.3,39,58.9l-8.1-4.7a1.3,1.3,0,0,0-.8-.2,1.5,1.5,0,0,0-1.5,1.5v2.8a3,3,0,0,0,1.5,2.6l1.6.9,8.4,4.9.9.3a1.8,1.8,0,0,0,1.8-1.8V62.9A3,3,0,0,0,41.3,60.3Z" transform="translate(-10.5 -2.7)"/>
    </g>
    <g  id="ICONS_GREEN_PUB" viewBox="0 0 100 86.8">
        <path style="fill:#00897b" d="M97.7,16.6,60,37.9,22.6,16.8l-.4-.2L10,19.5v58l39.9,23A18.2,18.2,0,0,0,60,103.4a16.9,16.9,0,0,0,10.2-2.9l39.8-23V19.8ZM12,22.1,53.1,45.9v54l-2.2-1.1L12,76.3Zm1.7-1.4,8.3-2L57.2,38.6a7,7,0,0,0-4,5Zm51.1,24a6.4,6.4,0,0,1-1.9.8l-2.9.2-2.8-.2-2-.8a4.8,4.8,0,0,1,9.6,0Zm-2-6.1L98,18.7l8.4,2.3L66.8,43.6A6.8,6.8,0,0,0,62.8,38.6Zm-7.7,8.5,1.9.4a10.3,10.3,0,0,0,3,.4,11.7,11.7,0,0,0,3.2-.4l1.7-.4v53.5a18.1,18.1,0,0,1-9.8,0ZM67,99.8v-54l41-23.5v54L69.2,98.7Z" transform="translate(-10 -16.6)"/>
        <path style="fill:#00bfa5" d="M108,22.3,67,45.8v54l2.2-1.1L108,76.3Z" transform="translate(-10 -16.6)"/>
        <path style="fill:#00bfa5" d="M66.8,43.6,106.4,21,98,18.7,62.8,38.6A6.8,6.8,0,0,1,66.8,43.6Z" transform="translate(-10 -16.6)"/>
        <path style="fill:#00bfa5" d="M57.2,38.6,22,18.7l-8.3,2L53.2,43.6A7,7,0,0,1,57.2,38.6Z" transform="translate(-10 -16.6)"/>
        <path style="fill:#00bfa5" d="M55.2,44.7l2,.8,2.8.2,2.9-.2a6.4,6.4,0,0,0,1.9-.8,4.8,4.8,0,0,0-9.6,0Z" transform="translate(-10 -16.6)"/>
        <path style="fill:#00bfa5" d="M53.1,99.9v-54L12,22.1V76.3L50.9,98.8Z" transform="translate(-10 -16.6)"/>
        <path style="fill:#00bfa5" d="M64.9,100.6V47.1l-1.7.4a11.7,11.7,0,0,1-3.2.4,10.3,10.3,0,0,1-3-.4l-1.9-.4v53.5A18.1,18.1,0,0,0,64.9,100.6Z" transform="translate(-10 -16.6)"/>
    </g>
    <g  id="ICONS_PUB" viewBox="0 0 100 86.8">
        <path style="fill:#fff" d="M97.7,16.6,60,37.9,22.6,16.8l-.4-.2L10,19.5v58l39.9,23A18.2,18.2,0,0,0,60,103.4a16.9,16.9,0,0,0,10.2-2.9l39.8-23V19.8ZM12,22.1,53.1,45.9v54l-2.2-1.1L12,76.3Zm1.7-1.4,8.3-2L57.2,38.6a7,7,0,0,0-4,5Zm51.1,24a6.4,6.4,0,0,1-1.9.8l-2.9.2-2.8-.2-2-.8a4.8,4.8,0,0,1,9.6,0Zm-2-6.1L98,18.7l8.4,2.3L66.8,43.6A6.8,6.8,0,0,0,62.8,38.6Zm-7.7,8.5,1.9.4a10.3,10.3,0,0,0,3,.4,11.7,11.7,0,0,0,3.2-.4l1.7-.4v53.5a18.1,18.1,0,0,1-9.8,0ZM67,99.8v-54l41-23.5v54L69.2,98.7Z" transform="translate(-10 -16.6)"/>
        <path style="fill:#8e4f9d" d="M108,22.3,67,45.8v54l2.2-1.1L108,76.3Z" transform="translate(-10 -16.6)"/>
        <path style="fill:#c06bd4" d="M66.8,43.6,106.4,21,98,18.7,62.8,38.6A6.8,6.8,0,0,1,66.8,43.6Z" transform="translate(-10 -16.6)"/>
        <path style="fill:#8e4f9d" d="M57.2,38.6,22,18.7l-8.3,2L53.2,43.6A7,7,0,0,1,57.2,38.6Z" transform="translate(-10 -16.6)"/>
        <path style="fill:#8e4f9d" d="M55.2,44.7l2,.8,2.8.2,2.9-.2a6.4,6.4,0,0,0,1.9-.8,4.8,4.8,0,0,0-9.6,0Z" transform="translate(-10 -16.6)"/>
        <path style="fill:#c06bd4" d="M53.1,99.9v-54L12,22.1V76.3L50.9,98.8Z" transform="translate(-10 -16.6)"/>
        <path style="fill:#8e4f9d" d="M64.9,100.6V47.1l-1.7.4a11.7,11.7,0,0,1-3.2.4,10.3,10.3,0,0,1-3-.4l-1.9-.4v53.5A18.1,18.1,0,0,0,64.9,100.6Z" transform="translate(-10 -16.6)"/>
    </g>
    <g  id="ICONS__GREEN_OUTDOR" viewBox="0 0 102 108.7">
        <rect style="fill:#00bfa5" x="42.8" y="69" width="14" height="27.4"/>
        <rect style="fill:#00bfa5" x="2" y="11" width="98" height="56"/>
        <rect style="fill:#00bfa5" x="86.8" y="2" width="13.2" height="6.6"/>
        <path style="fill:#00897b" d="M109,4.8H93.8v9H68.6v-9H51.4v9H26.2v-9H9v69H49.8V101H34.4v12.5h49V101H67.8V73.8H111V4.8ZM53.2,111.6H46.7l8.8-8.8H62Zm-.5-8.8-8.8,8.8H37.3l8.9-8.8Zm-16.5,7.1v-7.1h7.1Zm45.2,1.7H74.7l6.7-6.7Zm-9.5,0H65.4l8.8-8.8h6.5Zm-9.3,0H56l8.9-8.8h6.5ZM51.8,101.2V73.8h14v27.4ZM11,71.8v-56h98v56ZM24.2,13.4H11V6.8H24.2ZM53.4,6.8H66.6v6.6H53.4ZM109,13.4H95.8V6.8H109Z" transform="translate(-9 -4.8)"/>
        <rect style="fill:#00bfa5" x="44.4" y="2" width="13.2" height="6.6"/>
        <rect style="fill:#00bfa5" x="2" y="2" width="13.2" height="6.6"/>
        <polygon style="fill:#00bfa5" points="37.2 98 28.3 106.8 34.9 106.8 43.7 98 37.2 98"/>
        <polygon style="fill:#00bfa5" points="37.7 106.8 44.2 106.8 53 98 46.5 98 37.7 106.8"/>
        <polygon style="fill:#00bfa5" points="55.9 98 47 106.8 53.6 106.8 62.4 98 55.9 98"/>
        <polygon style="fill:#00bfa5" points="72.4 106.8 72.4 100.1 65.7 106.8 72.4 106.8"/>
        <polygon style="fill:#00bfa5" points="27.2 105.1 34.3 98 27.2 98 27.2 105.1"/>
        <polygon style="fill:#00bfa5" points="56.4 106.8 62.9 106.8 71.7 98 65.2 98 56.4 106.8"/>
    </g>
    <g  id="ICONS_OUTDOR" viewBox="0 0 102 108.3">
        <rect style="fill:#ed5b22" x="42.8" y="68.6" width="14" height="27.4"/>
        <path style="fill:#ed5b22" d="M109,71.8v-56H11v56ZM13.8,69V18.6h92.4V69Z" transform="translate(-9 -5.2)"/>
        <path style="fill:#fff" d="M110.6,13.8V5.2H94.2v8.6h-26V5.2H51.8v8.6h-26V5.2H9.4v8.6H9v60H49.8V101H34.4v12.5h49V101H67.8V73.8H111v-60ZM53.2,111.6H46.7l8.8-8.8H62Zm-.5-8.8-8.8,8.8H37.3l8.9-8.8Zm-16.5,7.1v-7.1h7.1Zm45.2,1.7H74.7l6.7-6.7Zm-9.5,0H65.4l8.8-8.8h6.5Zm-9.3,0H56l8.9-8.8h6.5ZM51.8,101.2V73.8h14v27.4ZM11,71.8v-56h98v56ZM24.2,13.4H11V6.8H24.2ZM53.4,6.8H66.6v6.6H53.4Zm42.4,0H109v6.6H95.8Z" transform="translate(-9 -5.2)"/>
        <rect style="fill:#ff7b47" x="4.8" y="13.4" width="92.4" height="50.4"/>
        <rect style="fill:#ed5b22" x="86.8" y="1.6" width="13.2" height="6.6"/>
        <rect style="fill:#ed5b22" x="44.4" y="1.6" width="13.2" height="6.6"/>
        <rect style="fill:#ed5b22" x="2" y="1.6" width="13.2" height="6.6"/>
        <polygon style="fill:#ed5b22" points="37.2 97.6 28.3 106.4 34.9 106.4 43.7 97.6 37.2 97.6"/>
        <polygon style="fill:#ed5b22" points="37.7 106.4 44.2 106.4 53 97.6 46.5 97.6 37.7 106.4"/>
        <polygon style="fill:#ed5b22" points="55.9 97.6 47 106.4 53.6 106.4 62.4 97.6 55.9 97.6"/>
        <polygon style="fill:#ed5b22" points="72.4 106.4 72.4 99.7 65.7 106.4 72.4 106.4"/>
        <polygon style="fill:#ed5b22" points="27.2 104.7 34.3 97.6 27.2 97.6 27.2 104.7"/>
        <polygon style="fill:#ed5b22" points="56.4 106.4 62.9 106.4 71.7 97.6 65.2 97.6 56.4 106.4"/>
    </g>
    <g  id="icon-vk-c" viewBox="0 0 40 40">
        <path style="fill:#ff7b47;" d="M35,0H5A5,5,0,0,0,0,5V35a5,5,0,0,0,5,5H35a5,5,0,0,0,5-5V5A5,5,0,0,0,35,0Zm1.8,18.2-5.1,8a1.7,1.7,0,0,0,.2,2l3.9,4.1a1.7,1.7,0,0,1-1.2,2.8H30.5a1.4,1.4,0,0,1-1.2-.6l-3-3.3a1.7,1.7,0,0,0-2.9.8L23,33.8a1.6,1.6,0,0,1-1.6,1.3H19.6a9.8,9.8,0,0,1-8.3-4.5l-8-12.4a1.7,1.7,0,0,1,1.4-2.6H8.3a1.6,1.6,0,0,1,1.4.8L15,25.2a.6.6,0,0,0,1.2-.3V17.1H16a1.3,1.3,0,0,1,.2-2.3h4.9a1.7,1.7,0,0,1,1.7,1.7V25a.6.6,0,0,0,1.2.3l5.3-8.8a1.6,1.6,0,0,1,1.4-.8h4.7A1.6,1.6,0,0,1,36.8,18.2Z"/>
    </g>
    <g id="icon-vk" viewBox="0 0 40 40">
        <path style="fill: #3c3744;" d="M35.4,15.7H30.7a1.6,1.6,0,0,0-1.4.8L24,25.3a.6.6,0,0,1-1.2-.3V16.4a1.7,1.7,0,0,0-1.7-1.7H16.2A1.3,1.3,0,0,0,16,17h.2v7.8a.6.6,0,0,1-1.2.3L9.7,16.4a1.6,1.6,0,0,0-1.4-.8H4.7a1.7,1.7,0,0,0-1.4,2.6l8,12.4a9.8,9.8,0,0,0,8.3,4.5h1.8A1.6,1.6,0,0,0,23,33.8l.4-1.8a1.7,1.7,0,0,1,2.9-.8l3,3.3a1.4,1.4,0,0,0,1.2.6h4.1a1.7,1.7,0,0,0,1.2-2.8l-3.9-4.1a1.7,1.7,0,0,1-.2-2l5.1-8A1.6,1.6,0,0,0,35.4,15.7Z"/>
        <path style="fill:#fff;" d="M35,0H5A5,5,0,0,0,0,5V35a5,5,0,0,0,5,5H35a5,5,0,0,0,5-5V5A5,5,0,0,0,35,0Zm1.8,18.2-5.1,8a1.7,1.7,0,0,0,.2,2l3.9,4.1a1.7,1.7,0,0,1-1.2,2.8H30.5a1.4,1.4,0,0,1-1.2-.6l-3-3.3a1.7,1.7,0,0,0-2.9.8L23,33.8a1.6,1.6,0,0,1-1.6,1.3H19.6a9.8,9.8,0,0,1-8.3-4.5l-8-12.4a1.7,1.7,0,0,1,1.4-2.6H8.3a1.6,1.6,0,0,1,1.4.8L15,25.2a.6.6,0,0,0,1.2-.3V17.1H16a1.3,1.3,0,0,1,.2-2.3h4.9a1.7,1.7,0,0,1,1.7,1.7V25a.6.6,0,0,0,1.2.3l5.3-8.8a1.6,1.6,0,0,1,1.4-.8h4.7A1.6,1.6,0,0,1,36.8,18.2Z"/>
    </g>
    <g id="icon-facebook-c" viewBox="0 0 40 40">
        <path style="fill: #c06bd4;" d="M35,0H5A5,5,0,0,0,0,5V35a5,5,0,0,0,5,5H35a5,5,0,0,0,5-5V5A5,5,0,0,0,35,0ZM28.7,8.1H24.2A1.9,1.9,0,0,0,22.3,10v5.1h6.2l-.8,6.3H22.3v16H15.8v-16H10.5V15.2h5.4v-7a5.6,5.6,0,0,1,5.6-5.6h7.3Z" transform="translate(0 0)"/>
    </g>
    <g id="icon-facebook" viewBox="0 0 40 40">
        <path style="fill: #3c3744;" d="M21.4,2.5a5.6,5.6,0,0,0-5.6,5.6v7H10.4v6.3h5.4v16h6.4v-16h5.4l.8-6.3H22.2V10a1.9,1.9,0,0,1,1.9-1.9h4.5V2.5H21.4Z"/>
        <path style="fill: #fff;" d="M35,0H5A5,5,0,0,0,0,5V35a5,5,0,0,0,5,5H35a5,5,0,0,0,5-5V5A5,5,0,0,0,35,0ZM28.7,8.1H24.2A1.9,1.9,0,0,0,22.3,10v5.1h6.2l-.8,6.3H22.3v16H15.9v-16H10.5V15.1h5.4v-7a5.6,5.6,0,0,1,5.6-5.6h7.2Z"/>
    </g>
    <g id="icon-linkedin-c" viewBox="0 0 40 40">
        <path style="fill: #527090;" d="M35,0H5A5,5,0,0,0,0,5V35a5,5,0,0,0,5,5H35a5,5,0,0,0,5-5V5A5,5,0,0,0,35,0ZM11.9,35.2H6.3V16.1h5.5Zm-2.6-22a3.1,3.1,0,1,1,3.1-3.1A3.1,3.1,0,0,1,9.3,13.2Zm24.5,9.7V35.2H28.3V24.6a1.7,1.7,0,0,0-1.7-1.7h-5V35.2H16V16.1h5.5v1.2h6.8a5.5,5.5,0,0,1,5.5,5.5Z" transform="translate(0 0)"/>
    </g>
    <g id="icon-linkedin" viewBox="0 0 40 40">
        <rect style="fill: #3c3744;" x="6.3" y="16.1" width="5.5" height="19.08"/>
        <circle style="fill: #3c3744;" cx="9.3" cy="10.1" r="3.1"/>
        <path style="fill: #3c3744;" d="M28.3,17.3H21.5V16.1H16V35.2h5.5V22.9h5a1.7,1.7,0,0,1,1.7,1.7V35.2h5.5V22.9h0A5.5,5.5,0,0,0,28.3,17.3Z" transform="translate(0 0)"/>
        <path style="fill: #fff" d="M35,0H5A5,5,0,0,0,0,5V35a5,5,0,0,0,5,5H35a5,5,0,0,0,5-5V5A5,5,0,0,0,35,0ZM11.9,35.2H6.3V16.1h5.5Zm-2.6-22a3.1,3.1,0,1,1,3.1-3.1A3.1,3.1,0,0,1,9.3,13.2Zm24.5,9.7V35.2H28.3V24.6a1.7,1.7,0,0,0-1.7-1.7h-5V35.2H16V16.1h5.5v1.2h6.8a5.5,5.5,0,0,1,5.5,5.5Z" transform="translate(0 0)"/>
    </g>
    <g  id="icon-instagram-c" viewBox="0 0 40 40">
        <circle style="fill:#b1cf33;" cx="20" cy="20" r="7.8"/>
        <circle style="fill:#b1cf33;" cx="29" cy="9.4" r="1.9"/>
        <path style="fill:#b1cf33;" d="M35,0H5A5,5,0,0,0,0,5V35a5,5,0,0,0,5,5H35a5,5,0,0,0,5-5V5A5,5,0,0,0,35,0Zm.5,27A8.5,8.5,0,0,1,27,35.5H13A8.5,8.5,0,0,1,4.5,27V13A8.5,8.5,0,0,1,13,4.5H27A8.5,8.5,0,0,1,35.5,13Z" transform="translate(0 0)"/>
    </g>
    <g id="icon-instagram" viewBox="0 0 40 40">
        <path style="fill: #3c3744;" d="M13,35.1H27a8.2,8.2,0,0,0,8.2-8.2V13A8.2,8.2,0,0,0,27,4.9H13A8.2,8.2,0,0,0,4.9,13V26.9A8.2,8.2,0,0,0,13,35.1ZM29,7.5a1.9,1.9,0,1,1-1.9,1.9A1.9,1.9,0,0,1,29,7.5Zm-9,4A8.5,8.5,0,1,1,11.5,20,8.6,8.6,0,0,1,20,11.4Z" transform="translate(0 0)"/>
        <circle style="fill: #3c3744;" cx="29" cy="9.4" r="1.2"/>
        <circle style="fill: #3c3744;" cx="20" cy="20" r="7.8"/>
        <path style="fill: #fff;" d="M35,0H5A5,5,0,0,0,0,5V35a5,5,0,0,0,5,5H35a5,5,0,0,0,5-5V5A5,5,0,0,0,35,0ZM4.9,13A8.2,8.2,0,0,1,13,4.9H27A8.2,8.2,0,0,1,35.1,13V26.9A8.2,8.2,0,0,1,27,35.1H13a8.2,8.2,0,0,1-8.2-8.2Z" transform="translate(0 0)"/>
    </g>
    <g id="up_2" viewBox="0 0 26.6 50.7">
        <path style="fill: #00bfa5" d="M28.1,8.8c-1.6-4.4-4.9-6.2-11.9-6.2S5.9,4.4,4.3,8.8,2.9,20.1,2.9,30.3s.9,15.8,3,19.1,5.4,3.9,10.3,3.9h.1c4.9,0,8.2-.7,10.3-3.9s3-9,3-19.1S29.7,13.1,28.1,8.8ZM17.4,45.9H15V43.5h2.3Zm0-4H15V36.8h2.3Zm6.7-19.9-6.7-7.2V35.1H15V14.7L8.3,21.9,6.6,20.3,16.2,10l9.6,10.3Z" transform="translate(-2.9 -2.6)"/>
    </g>
    <g id="icons_process-01" viewBox="0 0 192.6 192.6">
        <path style="fill: #00897b;" d="M96.3,0a96.3,96.3,0,1,0,96.3,96.3A96.3,96.3,0,0,0,96.3,0Zm31.1,162.4H66l2.6-13.5H42.2l23-118.6,61.3.2L124,43.8h26.4Z" transform="translate(0 0)"/>
        <path style="fill: #fff;" d="M69,146.8l2.5-12.9H54.9l.7-3.5H72.2l.7-3.5H56.3l.6-3.5H73.6l.7-3.5H57.5l.7-3.5H74.9l.7-3.5H58.9l.7-3.5H76.3l.7-3.6H60.3l.7-3.4H77.7l.7-3.6H61.5l.7-3.5H79l.7-3.5H63l.7-3.5H80.4l.7-3.5H64.3l.7-3.5H81.7l.7-3.6H65.7l.6-3.4H83.1l.7-3.6H67l.7-3.5H84.5l.7-3.5H68.4l.6-3.5H85.8l.7-3.5H69.7l.7-3.5H87.2l.3-1.7.6-.5,1.7-1.4H71l.6-3.4H94l2.8-2.3.3-.2h24.9l2.2-11.4-57.3-.2L44.7,146.8Z" transform="translate(0 0)"/>
        <path style="fill: #00bfa5;" d="M126.6,30.4l-61.3-.2-23,118.6H68.6L66,162.3h61.3l23-118.6H124ZM68.5,160.3,89.4,52.5h6.7l1.5-6.6h50.3L125.7,160.4ZM124.1,32.4l-2.2,11.4H97l-.3.2L94,46.2H71.7L71,49.6H89.8L88.1,51l-.6.5-.3,1.7H70.4l-.7,3.5H86.5l-.7,3.5H69l-.6,3.5H85.2l-.7,3.5H67.7L67,70.7H83.8l-.7,3.6H66.3l-.6,3.4H82.4l-.7,3.6H65l-.7,3.5H81.1l-.7,3.5H63.7L63,91.8H79.7L79,95.3H62.3l-.7,3.5H78.4l-.7,3.6H61l-.7,3.4H77l-.7,3.6H59.5l-.7,3.5H75.6l-.7,3.5H58.3l-.7,3.5H74.3l-.7,3.5H56.9l-.6,3.5H72.9l-.7,3.5H55.5l-.7,3.5H71.5L69,146.8H44.7L66.9,32.2Z" transform="translate(0 0)"/>
        <path style="fill: #fff;" d="M97.7,45.7h-.1l-1.5,6.6H89.4L68.5,160.3h57.3L147.9,45.8Zm-1.4,9.9h13l-.6,3.5H95.7Zm-1.4,7H108l-.7,3.5h-13Zm-1.3,7h13l-.6,3.5H93Zm-1.4,7.1h13.1l-.7,3.5h-13ZM115.8,129H96.5q-2.9,0-3.3,2.1l-.3,1.4q-.4,2.1,2.4,2.1h13.4a9.6,9.6,0,0,1,3.2.4,6.2,6.2,0,0,1,2,1.1,3.2,3.2,0,0,1,.9,1.7,8.1,8.1,0,0,1,0,2.2l-.5,2.8a7.2,7.2,0,0,1-.8,2.2,4.4,4.4,0,0,1-1.6,1.7,6.6,6.6,0,0,1-2.4,1.1,11.8,11.8,0,0,1-3.4.4h-5.2l-.6,3.1H97l.6-3.1H86.2l.6-3.4h19.8q2.8,0,3.3-2.1l.6-2.9q.5-2.1-2.4-2.1H94.7a9.6,9.6,0,0,1-3.2-.4,6.2,6.2,0,0,1-2-1.1,3.2,3.2,0,0,1-.9-1.7,8.1,8.1,0,0,1,0-2.2l.3-1.3a7.2,7.2,0,0,1,.8-2.2,4.4,4.4,0,0,1,1.6-1.7,6.6,6.6,0,0,1,2.4-1.1,11.8,11.8,0,0,1,3.4-.4h19.3ZM102,125.2l.7-3.1h3.2l-.6,3.1Zm25-9.9H84.9l.7-3.5h42Zm1.3-7.1h-42l.7-3.4h42Zm1.4-7H87.5l.7-3.5h42Zm1.3-7H89l.6-3.5h42.1Zm1.4-7H90.3l.7-3.5h42Zm-23.1-7L114,55.6h24.4l-4.7,24.6Z" transform="translate(0 0)"/>
        <polygon style="fill: #00bfa5;" points="108.8 59.1 109.3 55.6 96.3 55.6 95.7 59.1 108.8 59.1"/>
        <polygon style="fill: #00bfa5;" points="107.3 66.1 108 62.6 95 62.6 94.3 66.1 107.3 66.1"/>
        <polygon style="fill: #00bfa5;" points="106 73.1 106.7 69.6 93.7 69.6 93 73.1 106 73.1"/>
        <polygon style="fill: #00bfa5;" points="104.7 80.2 105.3 76.7 92.3 76.7 91.7 80.2 104.7 80.2"/>
        <polygon style="fill: #00bfa5;" points="91 83.7 90.3 87.2 132.3 87.2 132.9 83.7 91 83.7"/>
        <polygon style="fill: #00bfa5;" points="89.5 90.7 89 94.2 130.9 94.2 131.7 90.7 89.5 90.7"/>
        <polygon style="fill: #00bfa5;" points="88.3 97.7 87.5 101.2 129.7 101.2 130.3 97.7 88.3 97.7"/>
        <polygon style="fill: #00bfa5;" points="87 104.8 86.3 108.2 128.3 108.2 128.9 104.8 87 104.8"/>
        <polygon style="fill: #00bfa5;" points="85.5 111.8 84.8 115.3 127 115.3 127.5 111.8 85.5 111.8"/>
        <polygon style="fill: #00bfa5;" points="114 55.6 109.3 80.2 133.7 80.2 138.3 55.6 114 55.6"/>
        <path style="fill: #00bfa5;" d="M97.1,125.6a11.8,11.8,0,0,0-3.4.4,6.6,6.6,0,0,0-2.4,1.1,4.4,4.4,0,0,0-1.6,1.7,7.2,7.2,0,0,0-.8,2.2l-.3,1.3a8.1,8.1,0,0,0,0,2.2,3.2,3.2,0,0,0,.9,1.7,6.2,6.2,0,0,0,2,1.1,9.6,9.6,0,0,0,3.2.4h13.4q2.8,0,2.4,2.1l-.6,2.9q-.4,2.1-3.3,2.1H86.8l-.6,3.4H97.7l-.6,3.1h3.2l.6-3.1h5.2a11.8,11.8,0,0,0,3.4-.4,6.6,6.6,0,0,0,2.4-1.1,4.4,4.4,0,0,0,1.6-1.7,7.2,7.2,0,0,0,.8-2.2l.5-2.8a8.1,8.1,0,0,0,0-2.2,3.2,3.2,0,0,0-.9-1.7,6.2,6.2,0,0,0-2-1.1,9.6,9.6,0,0,0-3.2-.4H95.3q-2.9,0-2.4-2.1l.3-1.4q.5-2.1,3.3-2.1h19.3l.6-3.4Z" transform="translate(0 0)"/>
        <polygon style="fill: #00bfa5;" points="102.7 122.1 102 125.2 105.3 125.2 105.8 122.1 102.7 122.1"/>
    </g>
    <g id="icons_process-02" viewBox="0 0 192.6 192.6">
        <path style="fill: #00897b;" d="M96.3,0a96.3,96.3,0,1,0,96.3,96.3A96.3,96.3,0,0,0,96.3,0Zm75,114.2L84.9,137.5l-7.1-26.3v35.4H20.3V46H77.9V81.7l79-21.3.5,1.8h0l13.5,50.2h0l.5,1.7h0Z" transform="translate(0 0)"/>
        <path style="fill: #00bfa5;" d="M50.3,127.1a13.9,13.9,0,0,0,4.7.2c2.9-.3,3.4-3.7,3.4-3.7a37,37,0,0,0,0-7.6c-.5-6-4.2-4.4-4.8-4.5a9.1,9.1,0,0,1-7-4.2c-2.8-4.1-2.6-13-1.4-17.5s3.8-7.3,8.9-7.6,5-3.8,5-3.8V69.4a4.8,4.8,0,0,0-1.9-2.9,7.4,7.4,0,0,0-3.6-.6s-4.3.3-6.5,2.3c-5.8,5.4-8.5,11.2-9.5,24.5-1.2,15.7,2.8,26.4,6.2,30.1S50.3,127.1,50.3,127.1Z" transform="translate(0 0)"/>
        <path style="fill: #00bfa5;" d="M75.9,82.2V48H22.3v96.7H75.9V103.8L70.4,83.7h0l86.4-23.4-79,21.3Zm-7.5,54H29.8V56.4H68.3Z" transform="translate(0 0)"/>
        <polygon style="fill: #00bfa5;" points="122.3 103.8 70.5 83.8 71 85.5 111.9 101.4 84.5 135.7 85 137.4 113.3 101.9 122.7 105.5 128.9 97.7 171.3 114 170.8 112.3 170.8 112.3 129.9 96.4 157.3 62.2 157.3 62.1 156.8 60.4 122.3 103.8"/>
    </g>
    <g id="icons_process-05" viewBox="0 0 192.6 192.6">
        <polygon style="fill: #00897b;" points="119.8 109.3 105.2 97.3 83.8 119.1 155.8 119.1 134.3 97.3 119.8 109.3"/>
        <polygon style="fill: #00897b;" points="158.5 116.3 158.5 77.4 137.4 94.8 158.5 116.3"/>
        <path style="fill: #00897b;" d="M96.3,0a96.3,96.3,0,1,0,96.3,96.3A96.3,96.3,0,0,0,96.3,0ZM68,67.5s.1,5.4-7.9,5.9S48,78.3,46,85.5s-2.3,21.2,2.2,27.6,10.2,6.5,11,6.6,6.7-2.3,7.5,7.1a52.5,52.5,0,0,1,0,12s-.9,5.4-5.4,5.8a29,29,0,0,1-7.5-.2s-4.9-1.1-10.3-6.9-11.6-22.8-9.8-47.6c1.6-21,5.9-30.2,15.1-38.7,3.4-3.2,10.3-3.6,10.3-3.6a11.4,11.4,0,0,1,5.8.9c2.4,1.4,3.1,4.6,3.1,4.6Zm94.5,55.6H77.1V69.5h85.3Z" transform="translate(0 0)"/>
        <polygon style="fill: #00897b;" points="157.1 73.5 82.5 73.5 119.8 104.1 157.1 73.5"/>
        <polygon style="fill: #00897b;" points="81.1 77.4 81.1 116.3 102.2 94.8 81.1 77.4"/>
        <path style="fill: #00bfa5;" d="M64.9,48.5a11.4,11.4,0,0,0-5.8-.9s-6.9.4-10.3,3.6c-9.2,8.5-13.5,17.7-15.1,38.7-1.8,24.8,4.4,41.8,9.8,47.6s10.3,6.9,10.3,6.9a29,29,0,0,0,7.5.2c4.5-.4,5.4-5.8,5.4-5.8a52.5,52.5,0,0,0,0-12c-.8-9.4-6.5-6.9-7.5-7.1s-6.5-.2-11-6.6S44.1,92.7,46,85.5s6.1-11.6,14.1-12.1S68,67.5,68,67.5V53.1S67.3,49.9,64.9,48.5Z" transform="translate(0 0)"/>
        <path style="fill: #fff;" d="M77.1,123.1h85.3V69.5H77.1Zm6.7-3.9,21.4-21.9,14.6,12,14.5-11.9,21.5,21.8Zm74.7-2.8L137.4,94.8l21.2-17.4Zm-1.5-42.8-37.3,30.7L82.5,73.5Zm-76,3.9,21.1,17.4L81.1,116.3Z" transform="translate(0 0)"/>
    </g>
    <g id="icons_process-04" viewBox="0 0 192.6 192.6">
        <path style="fill: #00897b;" d="M96.3,0A96.3,96.3,0,0,0,8.6,56.4H29.5v71.5H5.3a96.3,96.3,0,0,0,22.8,36.4L36.3,133a5.2,5.2,0,0,1,5.1-3.9H149.1a5.2,5.2,0,0,1,5.1,3.9l8.7,32.9A96.3,96.3,0,0,0,96.3,0ZM77.8,19.9H81v1.8H77.8Zm-7.2,6.8a4.1,4.1,0,0,1,4.1-4.1h43.2a4.1,4.1,0,0,1,4.1,4.1V46.1a4.2,4.2,0,0,1-4.1,4.1H74.7a4.1,4.1,0,0,1-4.1-4.1Zm96.5,112.8a6.5,6.5,0,0,1-6.5-6.5v-6.2a6.5,6.5,0,0,1,6-6.5V102.7a17.2,17.2,0,0,0-13.1-16.6v35.3a5.8,5.8,0,0,1-5.7,5.7H42.7a5.8,5.8,0,0,1-5.7-5.7V61.6a5.8,5.8,0,0,1,5.7-5.7H147.8a5.8,5.8,0,0,1,5.7,5.7V85.1a18.1,18.1,0,0,1,14.1,17.6v17.6a6.5,6.5,0,0,1,6,6.5V133A6.5,6.5,0,0,1,167.1,139.5Z" transform="translate(0 0)"/>
        <path style="fill: #00bfa5;" d="M74.7,50.2h43.2a4.2,4.2,0,0,0,4.1-4.1V26.7a4.1,4.1,0,0,0-4.1-4.1H74.7a4.1,4.1,0,0,0-4.1,4.1V46.1A4.1,4.1,0,0,0,74.7,50.2Zm31.7-25.5h9.3v4.6h-9.3ZM96.3,27.4a9,9,0,1,1-9,9A9,9,0,0,1,96.3,27.4Z" transform="translate(0 0)"/>
        <circle style="fill: #00897b;" cx="96.3" cy="36.4" r="5.1"/>
        <path style="fill: #00bfa5;" d="M96.3,42.5a6.1,6.1,0,1,0-6.1-6.1A6.1,6.1,0,0,0,96.3,42.5Zm0-11.2a5.1,5.1,0,1,1-5.1,5.1A5.1,5.1,0,0,1,96.3,31.3Z" transform="translate(0 0)"/>
        <path style="fill: #00897b;" d="M115.8,24.7h-9.3v4.6h9.3Zm-.9,3.7h-7.5V25.7h7.5Z" transform="translate(0 0)"/>
        <rect style="fill: #00bfa5;" x="77.8" y="19.9" width="3.3" height="1.78"/>
        <path style="fill: #00bfa5;" d="M167.1,121.3a5.5,5.5,0,0,0-5.5,5.5V133a5.5,5.5,0,0,0,11,0v-6.2A5.5,5.5,0,0,0,167.1,121.3Zm.9,11a.9.9,0,1,1-1.8,0v-4.8a.9.9,0,0,1,1.8,0Z" transform="translate(0 0)"/>
        <path style="fill: #00bfa5;" d="M153.5,61.6a5.8,5.8,0,0,0-5.7-5.7H42.7A5.8,5.8,0,0,0,37,61.6v59.8a5.8,5.8,0,0,0,5.7,5.7H147.8a5.8,5.8,0,0,0,5.7-5.7V61.6ZM150.1,118a5.8,5.8,0,0,1-5.7,5.7H46.1a5.8,5.8,0,0,1-5.7-5.7V65a5.8,5.8,0,0,1,5.7-5.7h98.3a5.8,5.8,0,0,1,5.7,5.7Z" transform="translate(0 0)"/>
        <path style="fill: #00bfa5;" d="M149.1,129.2H41.4a5.2,5.2,0,0,0-5.1,3.9l-8.3,31.2a96.8,96.8,0,0,0,10.8,9.4H153.7a96.8,96.8,0,0,0,9.2-7.7L154.2,133A5.2,5.2,0,0,0,149.1,129.2Z" transform="translate(0 0)"/>
        <path style="fill: #00897b;" d="M96.3,192.6a95.9,95.9,0,0,0,57.4-19H38.9A95.9,95.9,0,0,0,96.3,192.6Z" transform="translate(0 0)"/>
        <path style="fill: #00bfa5;" d="M120.4,88.7a2.3,2.3,0,0,0-2.3-2h-3.7a.9.9,0,0,1-.9-.6h0v-.5h-.1a.9.9,0,0,1,.3-1l2.7-2.5a2.5,2.5,0,0,0,.4-3,23.5,23.5,0,0,0-4.3-4.7,2.5,2.5,0,0,0-3,0l-2.7,2.5a.9.9,0,0,1-1.1.1l-2.3-1.1a1.1,1.1,0,0,1-.7-.9V71.1a2.5,2.5,0,0,0-2-2.3l-3.2-.2-3.2.2a2.3,2.3,0,0,0-2,2.3v3.7a1.1,1.1,0,0,1-.7,1l-.8.3-.4.2a.9.9,0,0,1-1.1-.3l-2.5-2.6a2.3,2.3,0,0,0-3-.3,23.6,23.6,0,0,0-4.7,4.5,2.3,2.3,0,0,0,.2,3l2.6,2.6a1,1,0,0,1,.2,1.1,8.6,8.6,0,0,0-.6,1.4V86a1,1,0,0,1-1,.6H76.6a2.5,2.5,0,0,0-2.3,2,31,31,0,0,0-.2,3.2c0,1,.1,2.2.2,3.2a2.3,2.3,0,0,0,2.3,2h3.7a.9.9,0,0,1,.9.6h0v.5h.1a.9.9,0,0,1-.3,1l-2.7,2.5a2.5,2.5,0,0,0-.4,3,23.5,23.5,0,0,0,4.3,4.7,2.5,2.5,0,0,0,3,0l2.7-2.5a.9.9,0,0,1,1.1-.1l2.3,1.1a1.1,1.1,0,0,1,.7.9v3.7a2.5,2.5,0,0,0,2,2.3l3.2.2,3.2-.2a2.3,2.3,0,0,0,2-2.3v-3.7a1.1,1.1,0,0,1,.7-1l.8-.3.4-.2a.9.9,0,0,1,1.1.3l2.5,2.6a2.3,2.3,0,0,0,3,.3,23.6,23.6,0,0,0,4.7-4.5,2.3,2.3,0,0,0-.2-3l-2.6-2.6a1,1,0,0,1-.2-1.1,8.5,8.5,0,0,0,.6-1.4l.2-.4a1,1,0,0,1,1-.6h3.7a2.5,2.5,0,0,0,2.3-2,24.7,24.7,0,0,0,0-6.3Zm-1.2,6.1a1.2,1.2,0,0,1-1.1.9h-3.7a2.2,2.2,0,0,0-2.2,1.5v.3a8.2,8.2,0,0,1-.6,1.2,2.3,2.3,0,0,0,.4,2.6l2.6,2.6a1,1,0,0,1,.1,1.3,22.3,22.3,0,0,1-4.4,4.2,1,1,0,0,1-1.4-.1l-2.5-2.6a2.1,2.1,0,0,0-2.5-.6l-.4.2-.6.2h-.1a2.3,2.3,0,0,0-1.5,2.2v3.7a1,1,0,0,1-.8,1.1l-3,.2-2.9-.2a1.2,1.2,0,0,1-.9-1.1v-3.7a2.4,2.4,0,0,0-1.5-2.1l-2.1-.9a2.1,2.1,0,0,0-2.7.3l-2.7,2.5a1.2,1.2,0,0,1-1.4,0,22.2,22.2,0,0,1-4-4.4,1.2,1.2,0,0,1,.2-1.4l2.7-2.5a2.2,2.2,0,0,0,.6-2.5,2.1,2.1,0,0,0-.2-.7,2.1,2.1,0,0,0-2.1-1.5H76.6a1,1,0,0,1-1.1-.8c-.1-1-.2-2.1-.2-3s.1-2,.2-2.9a1.2,1.2,0,0,1,1.1-.9h3.7a2.2,2.2,0,0,0,2.2-1.5v-.3a8.2,8.2,0,0,1,.6-1.2,2.3,2.3,0,0,0-.4-2.6l-2.6-2.6a1,1,0,0,1-.1-1.3,22.3,22.3,0,0,1,4.4-4.2,1,1,0,0,1,1.4.1l2.5,2.6a2.1,2.1,0,0,0,2.5.6l.4-.2.6-.2H92a2.3,2.3,0,0,0,1.5-2.2V71.1a1,1,0,0,1,.8-1.1l3-.2,2.9.2a1.2,1.2,0,0,1,.9,1.1v3.7a2.4,2.4,0,0,0,1.5,2.1l2.1.9a2.1,2.1,0,0,0,2.7-.3l2.7-2.5a1.2,1.2,0,0,1,1.4,0,22.2,22.2,0,0,1,4,4.4,1.2,1.2,0,0,1-.2,1.4l-2.7,2.5a2.2,2.2,0,0,0-.6,2.5,2.1,2.1,0,0,0,.2.7,2.1,2.1,0,0,0,2.1,1.5h3.7a1,1,0,0,1,1.1.8,29.5,29.5,0,0,1,.2,3C119.4,93,119.3,94,119.2,94.8Z" transform="translate(0 0)"/>
        <path style="fill: #00bfa5;" d="M97.4,80.4a11.5,11.5,0,1,0,11.5,11.5A11.5,11.5,0,0,0,97.4,80.4Zm0,21.8a10.3,10.3,0,1,1,10.3-10.3A10.3,10.3,0,0,1,97.4,102.2Z" transform="translate(0 0)"/>
        <path style="fill: #00bfa5;" d="M125.6,96.8a25.4,25.4,0,0,0,.4-5.5A28.4,28.4,0,0,0,123.8,81h16.4a.6.6,0,1,0,0-1.1H124.1a.6.6,0,0,0-.5.5,29,29,0,0,0-7.4-10L114.7,72a26.3,26.3,0,0,1,9.1,19.3,23.2,23.2,0,0,1-.3,4.8l-2-.6,1.6,6.2,4.5-4.5Z" transform="translate(0 0)"/>
        <path style="fill: #00bfa5;" d="M71.1,92.7a21.5,21.5,0,0,1,.3-4.6l1.9.5-1.7-6.1L67.1,87l2.2.6a23.7,23.7,0,0,0-.4,5.3,28.3,28.3,0,0,0,9.6,20.6l1.5-1.6A26.1,26.1,0,0,1,71.1,92.7Z" transform="translate(0 0)"/>
        <path style="fill: #00bfa5;" d="M97.3,118.3a24.4,24.4,0,0,1-4.9-.5l.6-1.9-6.3,1.4,4.4,4.7.6-2.1a26.3,26.3,0,0,0,5.6.6,28.6,28.6,0,0,0,21.1-9.3l-1.6-1.5A26.3,26.3,0,0,1,97.3,118.3Z" transform="translate(0 0)"/>
        <path style="fill: #00bfa5;" d="M97.3,65.5a27.9,27.9,0,0,1,4.7.4l-.6,2,6.2-1.5-4.4-4.6-.6,2a30,30,0,0,0-5.3-.5,28.9,28.9,0,0,0-20.9,9L78,73.9A26.7,26.7,0,0,1,97.3,65.5Z" transform="translate(0 0)"/>
        <polygon style="fill: #00bfa5;" points="93.9 97.1 102.9 91.9 93.9 86.7 93.9 97.1"/>
        <path style="fill: #00bfa5;" d="M125.8,72.8h16.1a.6.6,0,1,0,0-1.1H125.8a.6.6,0,1,0,0,1.1Z" transform="translate(0 0)"/>
        <path style="fill: #00bfa5;" d="M144.1,99.4H128a.6.6,0,0,0,0,1.1h16.1a.6.6,0,0,0,0-1.1Z" transform="translate(0 0)"/>
        <path style="fill: #00bfa5;" d="M144.1,89.5H128a.6.6,0,1,0,0,1.1h16.1a.6.6,0,1,0,0-1.1Z" transform="translate(0 0)"/>
        <path style="fill: #00bfa5;" d="M140.2,109.2H124.1a.6.6,0,0,0,0,1.1h16.1a.6.6,0,0,0,0-1.1Z" transform="translate(0 0)"/>
        <path style="fill: #00bfa5;" d="M48.9,72.8H65a.6.6,0,1,0,0-1.1H48.9a.6.6,0,0,0,0,1.1Z" transform="translate(0 0)"/>
        <path style="fill: #00bfa5;" d="M50,80.5a.6.6,0,0,0,.6.6H66.7a.6.6,0,0,0,0-1.1H50.6A.6.6,0,0,0,50,80.5Z" transform="translate(0 0)"/>
        <path style="fill: #00bfa5;" d="M63.4,100a.6.6,0,0,0-.6-.6H46.7a.6.6,0,0,0,0,1.1H62.8A.6.6,0,0,0,63.4,100Z" transform="translate(0 0)"/>
        <path style="fill: #00bfa5;" d="M46.7,90.7H62.8a.6.6,0,0,0,0-1.1H46.7a.6.6,0,0,0,0,1.1Z" transform="translate(0 0)"/>
        <path style="fill: #00bfa5;" d="M66.7,109.2H50.6a.6.6,0,0,0,0,1.1H66.7a.6.6,0,0,0,0-1.1Z" transform="translate(0 0)"/>
        <path style="fill: #00bfa5;" d="M28.7,57.2H8.3A96.6,96.6,0,0,0,5,127.1H28.7Z" transform="translate(0 0)"/>
    </g>
    <g id="icons_process-03" viewBox="0 0 192.6 192.6">
        <path style="fill: #00897b" d="M94.2,114.5l-2.7,7.6h.8l3.6-10.4a4.2,4.2,0,0,1,4-2.8H90.2A4.2,4.2,0,0,1,94.2,114.5Z" transform="translate(0 0)"/>
        <path style="fill: #00897b" d="M103.9,114.5l-2.7,7.6h.8l3.6-10.4a4.2,4.2,0,0,1,4-2.8H99.9A4.2,4.2,0,0,1,103.9,114.5Z" transform="translate(0 0)"/>
        <path style="fill: #00897b" d="M96.3,0A96.3,96.3,0,0,0,46.5,178.7V146.4h3.7v-1.5A22.8,22.8,0,0,1,73,122.1h9.6l3.6-10.4a4.2,4.2,0,0,1,4-2.8H56.6a1.9,1.9,0,0,1-1.9-1.9v-.8a1.9,1.9,0,0,1,1.9-1.9H80.9V70.2h0l5.2-4.7h25.7l4.5,4.7h0v34.1h24.3a1.9,1.9,0,0,1,1.9,1.9v.8a2,2,0,0,1-1.9,1.9h-31a4.4,4.4,0,0,1,4.2,5.6l-2.8,7.9c-4.7,13.7-7.2,22.5-22.8,22.5H73v1.5h2.9v44A96.3,96.3,0,1,0,96.3,0ZM72.6,92.8l-7.3,1.9h-.2a.8.8,0,0,1-.2-1.6l7.3-1.9a.8.8,0,0,1,.4,1.6Zm.6-14.7a.8.8,0,0,1-.8.6h-.2l-7.3-1.9a.8.8,0,0,1,.4-1.6l7.3,1.9A.8.8,0,0,1,73.2,78.1ZM80,66.4l-.6.2-.6-.2-5.3-5.3a.8.8,0,0,1,1.2-1.2L80,65.2A.8.8,0,0,1,80,66.4Zm11.8-6.8h-.2a.8.8,0,0,1-.8-.6l-2-7.3a.8.8,0,0,1,1.6-.4l2,7.3A.8.8,0,0,1,91.8,59.6Zm16.6-7.9-2,7.3a.8.8,0,0,1-.8.6h-.2a.8.8,0,0,1-.6-1l2-7.3a.8.8,0,1,1,1.6.4Zm15.3,9.4-5.3,5.3-.6.2-.6-.2a.8.8,0,0,1,0-1.2l5.3-5.3a.8.8,0,1,1,1.2,1.2Zm9.2,33a.8.8,0,0,1-.8.6h-.2l-7.3-1.9a.8.8,0,1,1,.4-1.6l7.3,1.9A.8.8,0,0,1,132.9,94.1Zm-.6-17.3L125,78.7h-.2a.8.8,0,0,1-.2-1.6l7.3-1.9a.8.8,0,1,1,.4,1.6Z" transform="translate(0 0)"/>
        <path style="fill: #00bfa5" d="M73,146.4H46.5v32.3a95.7,95.7,0,0,0,29.4,11.7v-44Z" transform="translate(0 0)"/>
        <polygon style="fill: #00bfa5" points="81.7 104.3 115.5 104.3 115.5 70.2 115.9 70.2 115.9 70.2 81.3 70.2 81.3 70.2 81.7 70.2 81.7 104.3"/>
        <polygon style="fill: #00bfa5" points="86.6 66.3 83.2 69.3 114.4 69.3 111.5 66.3 86.6 66.3"/>
    </g>
    <g id="icons_process-06" viewBox="0 0 192.6 192.6">
        <path style="fill: #00897b;" d="M96.3,0a96.3,96.3,0,1,0,96.3,96.3A96.3,96.3,0,0,0,96.3,0Zm0,167.2L15.4,73,43.9,45.5h.8c.4,0,39.9-.3,51.6-.1s51.2.1,51.6.1h.8L177.2,73Z" transform="translate(0 0)"/>
        <path style="fill: #00897b;" d="M85.1,133.9v-18L52.1,60H78.2L96.4,90.6,114.6,60H141l-33.3,56v17.6L159,73.8,143.2,58.6h-94L33.4,73.8Z" transform="translate(0 0)"/>
        <path style="fill: #00bfa5;" d="M96.3,150l65.4-76.3L144,56.6H48.4L30.7,73.7Zm0-3.1-9.2-10.7V115.4L55.6,62H77.1L96.4,94.5,115.7,62h21.8l-31.8,53.5V136ZM49.2,58.6h94L159,73.8l-51.3,59.8V116L141,60H114.6L96.4,90.6,78.2,60H52.1l33,55.9v18L33.4,73.8Z" transform="translate(0 0)"/>
        <path style="fill: #00bfa5;" d="M148.7,45.5h-.8c-.4,0-39.9-.3-51.6-.1s-51.3.1-51.6.1h-.8L15.4,73l80.9,94.2L177.2,73ZM18.1,73.1,44.7,47.5s39.7-.3,51.6-.1,51.6.1,51.6.1l26.6,25.6-78.2,91Z" transform="translate(0 0)"/>
    </g>
</svg>
