<?xml version="1.0" encoding="utf-8"?>
<!-- Generator: Adobe Illustrator 19.0.0, SVG Export Plug-In . SVG Version: 6.00 Build 0)  -->
<svg version="1.1" id="Layer_2" xmlns="http://www.w3.org/2000/svg" xmlns:xlink="http://www.w3.org/1999/xlink" x="0px" y="0px"
	 viewBox="191.3 31.5 192.6 192.6" style="enable-background:new 191.3 31.5 192.6 192.6;" xml:space="preserve">
<style type="text/css">
	.st0{fill:#00897B;}
	.st1{clip-path:url(#SVGID_2_);}
	.st2{fill:#FFFFFF;}
	.st3{fill:#00BFA5;}
	.st4{fill:#00BFA5;stroke:#FFFFFF;stroke-width:0.8277;stroke-miterlimit:10;}
	.st5{fill:none;stroke:#FFFFFF;stroke-width:1.6554;stroke-linecap:round;stroke-miterlimit:10;}
</style>
<circle class="st0" cx="287.6" cy="127.8" r="96.3"/>
<g>
	<g>
		<defs>
			<circle id="SVGID_1_" cx="287.6" cy="127.8" r="96.3"/>
		</defs>
		<clipPath id="SVGID_2_">
			<use xlink:href="#SVGID_1_"  style="overflow:visible;"/>
		</clipPath>
		<g class="st1">
			<path class="st2" d="M300.9,140.4c-1.8,0-3.4,1.1-4,2.8l-3.6,10.4h-0.8l2.7-7.6c1-2.8-1.1-5.6-4-5.6l0,0c-1.8,0-3.4,1.1-4,2.8
				l-3.6,10.4h-0.8l2.7-7.6c1-2.7-1.1-5.6-4-5.6l0,0c-1.8,0-3.4,1.1-4,2.8l-3.6,10.4h-9.6c-12.6,0-22.8,10.2-22.8,22.8l0,0v8.4h22.8
				v-8.4h15.2c15.6,0,18.1-8.8,22.8-22.5l2.8-7.9C305.9,143.3,303.8,140.4,300.9,140.4L300.9,140.4z"/>
			<rect x="237.8" y="177.9" class="st3" width="29.4" height="47.9"/>
		</g>
	</g>
</g>
<g>
	<g>
		<g>
			<polyline class="st4" points="272.6,101.7 272.6,136.2 307.2,136.2 307.2,101.7 			"/>
			<g>
				<polygon class="st3" points="277.6,97.4 302.9,97.4 306.6,101.2 273.3,101.2 				"/>
				<path class="st2" d="M302.8,97.8l2.9,3h-31.2l3.4-3H302.8 M303.1,97h-25.7l-5.2,4.7h35.4L303.1,97L303.1,97z"/>
			</g>
		</g>
		<line class="st5" x1="282.9" y1="90.3" x2="280.9" y2="83"/>
		<line class="st5" x1="270.7" y1="97.3" x2="265.4" y2="92"/>
		<line class="st5" x1="263.7" y1="109.4" x2="256.4" y2="107.5"/>
		<line class="st5" x1="263.7" y1="123.5" x2="256.4" y2="125.4"/>
		<line class="st5" x1="316.1" y1="123.5" x2="323.4" y2="125.4"/>
		<line class="st5" x1="316.1" y1="109.4" x2="323.4" y2="107.5"/>
		<line class="st5" x1="309.1" y1="97.3" x2="314.4" y2="92"/>
		<line class="st5" x1="296.9" y1="90.3" x2="298.9" y2="83"/>
	</g>
	<path class="st2" d="M331.9,140.4h-84c-1,0-1.9-0.8-1.9-1.9v-0.8c0-1,0.8-1.9,1.9-1.9h84c1,0,1.9,0.8,1.9,1.9v0.8
		C333.8,139.5,332.9,140.4,331.9,140.4z"/>
</g>
</svg>
