<?xml version="1.0" encoding="utf-8"?>
<!-- Generator: Adobe Illustrator 19.0.0, SVG Export Plug-In . SVG Version: 6.00 Build 0)  -->
<svg version="1.1" id="Layer_2" xmlns="http://www.w3.org/2000/svg" xmlns:xlink="http://www.w3.org/1999/xlink" x="0px" y="0px"
	 viewBox="-244 31.5 192.6 192.6" style="enable-background:new -244 31.5 192.6 192.6;" xml:space="preserve">
<style type="text/css">
	.st0{fill:#00897B;}
	.st1{fill:#FFFFFF;stroke:#00BFA5;stroke-width:2;stroke-miterlimit:10;}
	.st2{fill:#00BFA5;}
</style>
<circle class="st0" cx="-147.7" cy="127.8" r="96.3"/>
<g>
	<g>
		<polygon class="st1" points="-141.8,181.6 -201.1,181.5 -178.5,64.9 -119.2,65.1 		"/>
		<polygon class="st2" points="-131.5,83.3 -173.5,83.3 -172.9,79.9 -130.8,79.9 		"/>
		<polygon class="st2" points="-132.8,90.4 -174.9,90.4 -174.2,86.9 -132.2,86.9 		"/>
		<polygon class="st2" points="-134.2,97.4 -176.2,97.4 -175.6,93.9 -133.5,93.9 		"/>
		<polygon class="st2" points="-135.5,104.4 -177.6,104.4 -176.9,100.9 -134.9,100.9 		"/>
		<polygon class="st2" points="-136.9,111.4 -178.9,111.4 -178.3,108 -136.2,108 		"/>
		<polygon class="st2" points="-138.2,118.5 -180.3,118.5 -179.6,115 -137.6,115 		"/>
		<polygon class="st2" points="-139.6,125.5 -181.6,125.5 -180.9,122 -138.9,122 		"/>
		<polygon class="st2" points="-140.9,132.5 -183,132.5 -182.3,129 -140.3,129 		"/>
		<polygon class="st2" points="-142.3,139.5 -184.3,139.5 -183.6,136.1 -141.6,136.1 		"/>
		<polygon class="st2" points="-143.6,146.6 -185.7,146.6 -185,143.1 -142.9,143.1 		"/>
		<polygon class="st2" points="-145,153.6 -187,153.6 -186.3,150.1 -144.3,150.1 		"/>
		<polygon class="st2" points="-146.3,160.6 -188.3,160.6 -187.7,157.1 -145.6,157.1 		"/>
		<polygon class="st2" points="-147.6,167.6 -189.7,167.6 -189,164.1 -147,164.1 		"/>
	</g>
	<path class="st1" d="M-118,195.1l-59.3-0.1l21.2-109.3c3.3-2.7,5.5-4.5,8.9-7.3l51.8,0.1L-118,195.1z"/>
	<polygon class="st2" points="-135.8,92.8 -148.9,92.8 -148.2,89.3 -135.2,89.3 	"/>
	<polygon class="st2" points="-137.2,99.8 -150.2,99.8 -149.6,96.3 -136.5,96.3 	"/>
	<polygon class="st2" points="-138.5,106.8 -151.6,106.8 -150.9,103.3 -137.9,103.3 	"/>
	<polygon class="st2" points="-139.9,113.9 -152.9,113.9 -152.3,110.4 -139.2,110.4 	"/>
	<polygon class="st2" points="-112.2,120.9 -154.3,120.9 -153.6,117.4 -111.6,117.4 	"/>
	<polygon class="st2" points="-113.6,127.9 -155.6,127.9 -155,124.4 -112.9,124.4 	"/>
	<polygon class="st2" points="-114.9,134.9 -157,134.9 -156.3,131.4 -114.3,131.4 	"/>
	<polygon class="st2" points="-116.3,141.9 -158.3,141.9 -157.6,138.5 -115.6,138.5 	"/>
	<polygon class="st2" points="-117.6,149 -159.7,149 -159,145.5 -117,145.5 	"/>
	<polygon class="st2" points="-135.3,113.9 -110.9,113.9 -106.2,89.3 -130.6,89.3 	"/>
	<g>
		<g>
			<path class="st2" d="M-158.4,181.9l0.6-3.4h19.8c1.9,0,3-0.7,3.3-2.1l0.6-2.9c0.3-1.4-0.5-2.1-2.4-2.1h-13.4
				c-1.3,0-2.4-0.1-3.2-0.4c-0.9-0.3-1.5-0.7-2-1.1c-0.5-0.5-0.8-1.1-0.9-1.7c-0.1-0.7-0.1-1.4,0-2.2l0.3-1.3
				c0.2-0.8,0.4-1.6,0.8-2.2c0.4-0.7,0.9-1.3,1.6-1.7c0.7-0.5,1.5-0.9,2.4-1.1c1-0.3,2.1-0.4,3.4-0.4h19.3l-0.6,3.4h-19.3
				c-1.9,0-3,0.7-3.3,2.1l-0.3,1.4c-0.3,1.4,0.5,2.1,2.4,2.1h13.4c1.3,0,2.4,0.1,3.2,0.4c0.9,0.3,1.5,0.7,2,1.1
				c0.5,0.5,0.8,1.1,0.9,1.7c0.1,0.7,0.1,1.4,0,2.2l-0.5,2.8c-0.2,0.8-0.4,1.6-0.8,2.2c-0.4,0.7-0.9,1.3-1.6,1.7
				c-0.7,0.5-1.5,0.9-2.4,1.1c-1,0.3-2.1,0.4-3.4,0.4H-158.4z"/>
		</g>
		<polygon class="st2" points="-138.7,155.8 -139.3,158.9 -142.6,158.9 -141.9,155.8 		"/>
		<polygon class="st2" points="-143.7,181.9 -144.3,185 -147.5,185 -146.9,181.9 		"/>
	</g>
</g>
<g>
	<polygon class="st2" points="-147.2,78.4 -156.2,85.9 -148.9,85.9 	"/>
</g>
</svg>
