<?xml version="1.0" encoding="utf-8"?>
<!-- Generator: Adobe Illustrator 19.0.0, SVG Export Plug-In . SVG Version: 6.00 Build 0)  -->
<svg version="1.1" id="Layer_2" xmlns="http://www.w3.org/2000/svg" xmlns:xlink="http://www.w3.org/1999/xlink" x="0px" y="0px"
	 viewBox="400.2 31.5 192.6 192.6" style="enable-background:new 400.2 31.5 192.6 192.6;" xml:space="preserve">
<style type="text/css">
	.st0{clip-path:url(#SVGID_2_);fill:#00897B;}
	.st1{clip-path:url(#SVGID_4_);fill:#00897B;}
	.st2{clip-path:url(#SVGID_6_);}
	.st3{fill:#00BFA5;stroke:#00897B;stroke-width:0.9237;stroke-miterlimit:10;}
	.st4{fill:#FFFFFF;stroke:#00BFA5;stroke-width:0.9237;stroke-miterlimit:10;}
	.st5{fill:#00897B;stroke:#00BFA5;stroke-width:0.9237;stroke-miterlimit:10;}
	.st6{fill:#FFFFFF;stroke:#00897B;stroke-width:0.9237;stroke-miterlimit:10;}
	.st7{clip-path:url(#SVGID_8_);fill:none;stroke:#FFFFFF;stroke-width:0.9237;stroke-miterlimit:10;}
	.st8{clip-path:url(#SVGID_10_);fill:#00BFA5;stroke:#FFFFFF;stroke-width:0.9722;stroke-miterlimit:10;}
	.st9{clip-path:url(#SVGID_12_);fill:none;stroke:#FFFFFF;stroke-width:1.8473;stroke-linecap:round;stroke-miterlimit:10;}
	.st10{clip-path:url(#SVGID_14_);}
	.st11{fill:#00BFA5;}
	.st12{fill:#FFFFFF;}
	.st13{fill:none;stroke:#00BFA5;stroke-width:1.2735;stroke-miterlimit:10;}
	.st14{fill:none;stroke:#00C2F3;stroke-width:1.1401;stroke-miterlimit:10;}
	.st15{fill:none;stroke:#00BFA5;stroke-width:2.2015;stroke-miterlimit:10;}
	.st16{fill:none;stroke:#00BFA5;stroke-width:1.1401;stroke-linecap:round;stroke-miterlimit:10;}
	.st17{clip-path:url(#SVGID_16_);}
	.st18{clip-path:url(#SVGID_18_);fill:#00BFA5;stroke:#FFFFFF;stroke-width:0.7847;stroke-miterlimit:10;}
</style>
<g>
	<g>
		<defs>
			<circle id="SVGID_1_" cx="496.5" cy="127.8" r="96.3"/>
		</defs>
		<clipPath id="SVGID_2_">
			<use xlink:href="#SVGID_1_"  style="overflow:visible;"/>
		</clipPath>
		<circle class="st0" cx="496.5" cy="127.8" r="96.3"/>
	</g>
	<g>
		<defs>
			<circle id="SVGID_3_" cx="496.5" cy="127.8" r="96.3"/>
		</defs>
		<clipPath id="SVGID_4_">
			<use xlink:href="#SVGID_3_"  style="overflow:visible;"/>
		</clipPath>
		<circle class="st1" cx="496.5" cy="127.8" r="86.3"/>
	</g>
	<g>
		<defs>
			<circle id="SVGID_5_" cx="496.5" cy="127.8" r="96.3"/>
		</defs>
		<clipPath id="SVGID_6_">
			<use xlink:href="#SVGID_5_"  style="overflow:visible;"/>
		</clipPath>
		<g class="st2">
			<path class="st3" d="M518.1,82.2h-43.2c-2.6,0-4.6-2.1-4.6-4.6V58.2c0-2.6,2.1-4.6,4.6-4.6h43.2c2.6,0,4.6,2.1,4.6,4.6v19.4
				C522.7,80.1,520.6,82.2,518.1,82.2z"/>
			<circle class="st4" cx="496.5" cy="67.9" r="9.5"/>
			<circle class="st5" cx="496.5" cy="67.9" r="5.6"/>
			<rect x="507.1" y="56.7" class="st6" width="8.4" height="3.7"/>
			<rect x="477.5" y="50.9" class="st3" width="4.2" height="2.7"/>
		</g>
	</g>
	<g>
		<defs>
			<circle id="SVGID_7_" cx="496.5" cy="127.8" r="96.3"/>
		</defs>
		<clipPath id="SVGID_8_">
			<use xlink:href="#SVGID_7_"  style="overflow:visible;"/>
		</clipPath>
		<path class="st7" d="M549.7,116.6c9.7,0,17.6,7.9,17.6,17.6v18"/>
	</g>
	<g>
		<defs>
			<circle id="SVGID_9_" cx="496.5" cy="127.8" r="96.3"/>
		</defs>
		<clipPath id="SVGID_10_">
			<use xlink:href="#SVGID_9_"  style="overflow:visible;"/>
		</clipPath>
		<path class="st8" d="M567.3,170.5L567.3,170.5c-3.3,0-6-2.7-6-6v-6.2c0-3.3,2.7-6,6-6l0,0c3.3,0,6,2.7,6,6v6.2
			C573.3,167.8,570.6,170.5,567.3,170.5z"/>
	</g>
	<g>
		<defs>
			<circle id="SVGID_11_" cx="496.5" cy="127.8" r="96.3"/>
		</defs>
		<clipPath id="SVGID_12_">
			<use xlink:href="#SVGID_11_"  style="overflow:visible;"/>
		</clipPath>
		<line class="st9" x1="567.3" y1="159" x2="567.3" y2="163.8"/>
	</g>
	<g>
		<defs>
			<circle id="SVGID_13_" cx="496.5" cy="127.8" r="96.3"/>
		</defs>
		<clipPath id="SVGID_14_">
			<use xlink:href="#SVGID_13_"  style="overflow:visible;"/>
		</clipPath>
		<g class="st10">
			<path class="st11" d="M553.7,152.9c0,3.1-2.6,5.7-5.7,5.7H442.9c-3.1,0-5.7-2.6-5.7-5.7V93.1c0-3.1,2.6-5.7,5.7-5.7H548
				c3.1,0,5.7,2.6,5.7,5.7V152.9z"/>
			<path class="st12" d="M440.6,149.5v-53c0-3.1,2.6-5.7,5.7-5.7h98.3c3.1,0,5.7,2.6,5.7,5.7v53c0,3.1-2.6,5.7-5.7,5.7h-98.3
				C443.2,155.2,440.6,152.6,440.6,149.5z"/>
			<path class="st11" d="M564,199.8c0-0.5-0.1-0.9-0.2-1.4l-9-34c-0.7-2.5-2.9-4.2-5.5-4.2H441.6c-2.6,0-4.8,1.7-5.5,4.2l-9,34
				c-0.1,0.5-0.2,0.9-0.2,1.4l0,0l0,0l0,0l0,0l0,0l0,0l0,0l0,0l0,0l0,0l0,0l0,0l0,0l0,0l0,0l0,0l0,0l0,0l0,0l0,0l0,0l0,0l0,0l0,0
				l0,0l0,0l0,0l0,0l0,0l0,0l0,0l0,0l0,0l0,0l0,0l0,0l0,0l0,0l0,0l0,0l0,0l0,0l0,0l0,0l0,0l0,0l0,0l0,0l0,0l0,0l0,0l0,0l0,0l0,0l0,0
				l0,0l0,0l0,0l0,0l0,0l0,0l0,0l0,0l0,0l0,0l0,0l0,0l0,0l0,0l0,0l0,0l0,0l0,0l0,0l0,0l0,0l0,0l0,0l0,0l0,0l0,0l0,0l0,0l0,0l0,0l0,0
				l0,0l0,0l0,0l0,0l0,0l0,0l0,0l0,0l0,0l0,0l0,0l0,0l0,0l0,0l0,0l0,0l0,0l0,0l0,0l0,0l0,0l0,0l0,0l0,0l0,0l0,0l0,0l0,0l0,0l0,0l0,0
				l0,0l0,0l0,0l0,0l0,0l0,0l0,0l0,0l0,0l0,0l0,0l0,0l0,0l0,0l0,0l0,0l0,0l0,0l0,0l0,0l0,0l0,0l0,0l0,0l0,0l0,0l0,0l0,0l0,0l0,0l0,0
				l0,0l0,0c-0.1,3.1,2.4,5.8,5.7,5.8h125.8C561.7,205.6,564.2,202.9,564,199.8L564,199.8L564,199.8L564,199.8L564,199.8L564,199.8
				L564,199.8L564,199.8L564,199.8L564,199.8L564,199.8L564,199.8L564,199.8L564,199.8L564,199.8L564,199.8L564,199.8L564,199.8
				L564,199.8L564,199.8L564,199.8L564,199.8L564,199.8L564,199.8L564,199.8L564,199.8L564,199.8L564,199.8L564,199.8L564,199.8
				L564,199.8L564,199.8L564,199.8L564,199.8L564,199.8L564,199.8L564,199.8L564,199.8L564,199.8L564,199.8L564,199.8L564,199.8
				L564,199.8L564,199.8L564,199.8L564,199.8L564,199.8L564,199.8L564,199.8L564,199.8L564,199.8L564,199.8L564,199.8L564,199.8
				L564,199.8L564,199.8L564,199.8L564,199.8L564,199.8L564,199.8L564,199.8L564,199.8L564,199.8L564,199.8L564,199.8L564,199.8
				L564,199.8L564,199.8L564,199.8L564,199.8L564,199.8L564,199.8L564,199.8L564,199.8L564,199.8L564,199.8L564,199.8L564,199.8
				L564,199.8L564,199.8L564,199.8L564,199.8L564,199.8L564,199.8L564,199.8L564,199.8L564,199.8L564,199.8L564,199.8L564,199.8
				L564,199.8L564,199.8L564,199.8L564,199.8L564,199.8L564,199.8L564,199.8L564,199.8L564,199.8L564,199.8L564,199.8L564,199.8
				L564,199.8L564,199.8L564,199.8L564,199.8L564,199.8L564,199.8L564,199.8L564,199.8L564,199.8L564,199.8L564,199.8L564,199.8
				L564,199.8L564,199.8L564,199.8L564,199.8L564,199.8L564,199.8L564,199.8L564,199.8L564,199.8L564,199.8L564,199.8L564,199.8
				L564,199.8L564,199.8L564,199.8L564,199.8L564,199.8L564,199.8L564,199.8L564,199.8L564,199.8L564,199.8L564,199.8L564,199.8
				L564,199.8L564,199.8L564,199.8L564,199.8L564,199.8L564,199.8L564,199.8L564,199.8L564,199.8L564,199.8
				C564,199.9,564,199.9,564,199.8C564,199.9,564,199.9,564,199.8L564,199.8z"/>
			<path class="st3" d="M558.3,205.6H432.6c-3.7,0-6.5-3.5-5.5-7.2l9-34c0.7-2.5,2.9-4.2,5.5-4.2h107.7c2.6,0,4.8,1.7,5.5,4.2l9,34
				C564.8,202.1,562.1,205.6,558.3,205.6z"/>
			<path id="XMLID_5591_" class="st13" d="M520,120.3c-0.1-0.8-0.8-1.4-1.7-1.4h-3.7c-0.7,0-1.3-0.4-1.5-1.1
				c-0.1-0.2-0.2-0.4-0.2-0.6c-0.3-0.6-0.1-1.4,0.4-1.8l2.7-2.5c0.6-0.6,0.7-1.5,0.3-2.2c-1.2-1.7-2.6-3.3-4.2-4.6
				c-0.6-0.5-1.6-0.5-2.2,0l-2.7,2.5c-0.5,0.5-1.3,0.6-1.9,0.2c-0.7-0.4-1.4-0.7-2.2-1c-0.6-0.2-1.1-0.9-1.1-1.5v-3.7
				c0-0.8-0.6-1.5-1.4-1.7c-1-0.1-2-0.2-3.1-0.2c-1,0-2.1,0.1-3.1,0.2c-0.8,0.1-1.4,0.8-1.4,1.7v3.7c0,0.7-0.4,1.3-1.1,1.6
				c-0.4,0.1-0.8,0.3-1.1,0.4c-0.6,0.3-1.4,0.1-1.8-0.4l-2.5-2.6c-0.6-0.6-1.5-0.7-2.2-0.2c-1.7,1.2-3.2,2.7-4.5,4.3
				c-0.5,0.7-0.5,1.6,0.1,2.2l2.6,2.6c0.5,0.5,0.6,1.2,0.3,1.9c-0.3,0.5-0.5,1.1-0.7,1.6c-0.2,0.7-0.9,1.1-1.6,1.1h-3.7
				c-0.8,0-1.5,0.6-1.7,1.4c-0.1,1-0.2,2-0.2,3.1c0,1,0.1,2.1,0.2,3.1c0.1,0.8,0.8,1.4,1.7,1.4h3.7c0.7,0,1.3,0.4,1.5,1.1
				c0.1,0.2,0.2,0.4,0.2,0.6c0.3,0.6,0.1,1.4-0.4,1.8l-2.7,2.5c-0.6,0.6-0.7,1.5-0.3,2.2c1.2,1.7,2.6,3.3,4.2,4.6
				c0.6,0.5,1.6,0.5,2.2,0l2.7-2.5c0.5-0.5,1.3-0.6,1.9-0.2c0.7,0.4,1.4,0.7,2.2,1c0.6,0.2,1.1,0.9,1.1,1.5v3.7
				c0,0.8,0.6,1.5,1.4,1.7c1,0.1,2,0.2,3.1,0.2c1,0,2.1-0.1,3.1-0.2c0.8-0.1,1.4-0.8,1.4-1.7v-3.7c0-0.7,0.4-1.3,1.1-1.6
				c0.4-0.1,0.8-0.3,1.1-0.4c0.6-0.3,1.4-0.1,1.8,0.4l2.5,2.6c0.6,0.6,1.5,0.7,2.2,0.2c1.7-1.2,3.2-2.7,4.5-4.3
				c0.5-0.7,0.5-1.6-0.1-2.2l-2.6-2.6c-0.5-0.5-0.6-1.2-0.3-1.9c0.3-0.5,0.5-1.1,0.7-1.6c0.2-0.7,0.9-1.1,1.6-1.1h3.7
				c0.8,0,1.5-0.6,1.7-1.4c0.1-1,0.2-2,0.2-3.1S520.1,121.3,520,120.3z M497.6,134.3c-6,0-10.9-4.9-10.9-10.9s4.9-10.9,10.9-10.9
				s10.9,4.9,10.9,10.9S503.6,134.3,497.6,134.3z"/>
			<path class="st14" d="M504.2,101.7"/>
			<g>
				<g>
					<g>
						<g>
							<path class="st15" d="M515.6,102.7c5.6,4.9,9.3,12,9.5,20.1c0.1,2.1-0.1,4.2-0.5,6.1"/>
							<g>
								<polygon class="st11" points="521.7,127.1 523.3,133.3 527.8,128.8 								"/>
							</g>
						</g>
					</g>
					<g>
						<g>
							<path class="st15" d="M479.4,144.1c-5.5-4.9-9-11.9-9.2-19.8c-0.1-2,0.1-4,0.5-5.9"/>
							<g>
								<polygon class="st11" points="473.5,120.1 471.8,114 467.3,118.5 								"/>
							</g>
						</g>
					</g>
				</g>
				<g>
					<g>
						<g>
							<path class="st15" d="M517.8,142c-5,5.5-12.3,8.9-20.3,8.9c-2.1,0-4.2-0.2-6.1-0.7"/>
							<g>
								<polygon class="st11" points="493.2,147.4 486.9,148.8 491.3,153.5 								"/>
							</g>
						</g>
					</g>
					<g>
						<g>
							<path class="st15" d="M477.4,104.6c5-5.3,12.2-8.7,20.1-8.7c2,0,4,0.2,5.9,0.6"/>
							<g>
								<polygon class="st11" points="501.6,99.4 507.8,97.9 503.4,93.3 								"/>
							</g>
						</g>
					</g>
				</g>
			</g>
			<polygon class="st11" points="494.1,118.2 503.1,123.4 494.1,128.6 			"/>
			<line class="st16" x1="526" y1="103.7" x2="542.1" y2="103.7"/>
			<line class="st16" x1="524.3" y1="112" x2="540.4" y2="112"/>
			<line class="st16" x1="528.2" y1="131.5" x2="544.3" y2="131.5"/>
			<line class="st16" x1="528.2" y1="121.6" x2="544.3" y2="121.6"/>
			<line class="st16" x1="524.3" y1="141.3" x2="540.4" y2="141.3"/>
			<line class="st16" x1="465.2" y1="103.7" x2="449.1" y2="103.7"/>
			<line class="st16" x1="466.9" y1="112" x2="450.8" y2="112"/>
			<line class="st16" x1="463" y1="131.5" x2="446.9" y2="131.5"/>
			<line class="st16" x1="463" y1="121.6" x2="446.9" y2="121.6"/>
			<line class="st16" x1="466.9" y1="141.3" x2="450.8" y2="141.3"/>
		</g>
	</g>
	<g>
		<defs>
			<circle id="SVGID_15_" cx="496.5" cy="127.8" r="96.3"/>
		</defs>
		<clipPath id="SVGID_16_">
			<use xlink:href="#SVGID_15_"  style="overflow:visible;"/>
		</clipPath>
		<g class="st17">
			<g>
				<defs>
					<circle id="SVGID_17_" cx="496.5" cy="127.8" r="96.3"/>
				</defs>
				<clipPath id="SVGID_18_">
					<use xlink:href="#SVGID_17_"  style="overflow:visible;"/>
				</clipPath>
				<rect x="391.4" y="88.3" class="st18" width="37.9" height="70.7"/>
			</g>
		</g>
	</g>
</g>
</svg>
