<?xml version="1.0" encoding="utf-8"?>
<!-- Generator: Adobe Illustrator 19.0.0, SVG Export Plug-In . SVG Version: 6.00 Build 0)  -->
<svg version="1.1" id="Layer_2" xmlns="http://www.w3.org/2000/svg" xmlns:xlink="http://www.w3.org/1999/xlink" x="0px" y="0px"
	 viewBox="-24.3 234.3 192.6 192.6" style="enable-background:new -24.3 234.3 192.6 192.6;" xml:space="preserve">
<metadata><?xpacket begin="﻿" id="W5M0MpCehiHzreSzNTczkc9d"?>
<x:xmpmeta xmlns:x="adobe:ns:meta/" x:xmptk="Adobe XMP Core 5.6-c067 79.157747, 2015/03/30-23:40:42        ">
   <rdf:RDF xmlns:rdf="http://www.w3.org/1999/02/22-rdf-syntax-ns#">
      <rdf:Description rdf:about=""/>
   </rdf:RDF>
</x:xmpmeta>
                                                                                                    
                                                                                                    
                                                                                                    
                                                                                                    
                                                                                                    
                                                                                                    
                                                                                                    
                                                                                                    
                                                                                                    
                                                                                                    
                                                                                                    
                                                                                                    
                                                                                                    
                                                                                                    
                                                                                                    
                                                                                                    
                                                                                                    
                                                                                                    
                                                                                                    
                                                                                                    
                           
<?xpacket end="w"?></metadata>
<style type="text/css">
	.st0{fill:#00897B;}
	.st1{fill:#00BFA5;}
	.st2{fill:none;stroke:#FFFFFF;stroke-width:3.9472;stroke-miterlimit:10;}
	.st3{fill:none;stroke:#FFFFFF;stroke-width:3.9471;stroke-miterlimit:10;}
</style>
<circle class="st0" cx="72" cy="330.6" r="96.3"/>
<path id="XMLID_36_" class="st1" d="M43.7,287.4v14.4c0,0,0.1,5.4-7.9,5.9s-12.1,4.9-14.1,12.1c-1.9,7.2-2.3,21.2,2.2,27.6
	s10.2,6.5,11,6.6c1,0.2,6.7-2.3,7.5,7.1c0.7,7.8,0,12,0,12s-0.9,5.4-5.4,5.8s-7.5-0.2-7.5-0.2s-4.9-1.1-10.3-6.9S7.6,349,9.4,324.2
	c1.6-21,5.9-30.2,15.1-38.7c3.4-3.2,10.3-3.6,10.3-3.6s3.4-0.4,5.8,0.9C43,284.2,43.7,287.4,43.7,287.4z"/>
<g id="XMLID_9_">
	<rect id="XMLID_27_" x="54.8" y="305.8" class="st2" width="81.4" height="49.6"/>
	<line id="XMLID_26_" class="st2" x1="80.8" y1="328.9" x2="54.8" y2="355.4"/>
	<line id="XMLID_25_" class="st2" x1="110.1" y1="328.9" x2="136.2" y2="355.4"/>
	<polyline id="XMLID_24_" class="st3" points="136.2,307.5 95.5,341 54.8,307.5 	"/>
</g>
</svg>
