<?xml version="1.0" encoding="utf-8"?>
<!-- Generator: Adobe Illustrator 20.1.0, SVG Export Plug-In . SVG Version: 6.00 Build 0)  -->
<svg version="1.1" id="Layer_2" xmlns="http://www.w3.org/2000/svg" xmlns:xlink="http://www.w3.org/1999/xlink" x="0px" y="0px"
	 viewBox="0 0 192.6 192.6" style="enable-background:new 0 0 192.6 192.6;" xml:space="preserve">
<style type="text/css">
	.st0{fill:#00897B;}
	.st1{fill:#00BFA5;stroke:#00BFA5;stroke-width:4;stroke-miterlimit:10;}
	.st2{fill:#FFFFFF;}
</style>
<circle class="st0" cx="96.3" cy="96.3" r="96.3"/>
<polygon class="st1" points="115.7,62 96.4,94.5 77.1,62 55.6,62 87.1,115.4 87.1,146.1 96.6,154 105.7,146.1 105.7,115.5 137.5,62 
	"/>
<polygon class="st2" points="115.7,62 96.4,94.5 77.1,62 55.6,62 87.1,115.4 87.1,146.1 96.6,154 105.7,146.1 105.7,115.5 137.5,62 
	"/>
<path class="st1" d="M147.9,47.5c0,0-39.7-0.3-51.6-0.1c-11.9-0.2-51.6,0.1-51.6,0.1L18.1,73.1l78.2,91l78.2-91L147.9,47.5z
	 M30.7,73.7l17.7-17.1c7.4,0,24.2-0.1,36.5-0.1c5,0,8.8,0,11.2,0h0.2c2.4,0,6.2,0,11.2,0c12.3,0,29.1,0.1,36.5,0.1l17.7,17.1
	L96.3,150L30.7,73.7z"/>
<path class="st2" d="M147.9,47.5c0,0-39.7-0.3-51.6-0.1c-11.9-0.2-51.6,0.1-51.6,0.1L18.1,73.1l78.2,91l78.2-91L147.9,47.5z
	 M30.7,73.7l17.7-17.1c7.4,0,24.2-0.1,36.5-0.1c5,0,8.8,0,11.2,0h0.2c2.4,0,6.2,0,11.2,0c12.3,0,29.1,0.1,36.5,0.1l17.7,17.1
	L96.3,150L30.7,73.7z"/>
</svg>
