<?xml version="1.0" encoding="utf-8"?>
<!-- Generator: Adobe Illustrator 19.0.0, SVG Export Plug-In . SVG Version: 6.00 Build 0)  -->
<svg version="1.1" id="Layer_2" xmlns="http://www.w3.org/2000/svg" xmlns:xlink="http://www.w3.org/1999/xlink" x="0px" y="0px"
	 viewBox="-24.3 31.5 192.6 192.6" style="enable-background:new -24.3 31.5 192.6 192.6;" xml:space="preserve">
<style type="text/css">
	.st0{fill:#00897B;}
	.st1{fill:#00BFA5;stroke:#FFFFFF;stroke-width:2;stroke-miterlimit:10;}
	.st2{fill:#FFFFFF;}
	.st3{fill:#00BFA5;}
</style>
<circle class="st0" cx="72" cy="127.8" r="96.3"/>
<g>
	<rect id="XMLID_4_" x="7.7" y="78.4" class="st1" width="55.6" height="98.7"/>
	<rect id="XMLID_3_" x="16.2" y="87.9" class="st2" width="38.6" height="79.7"/>
	<path id="XMLID_5_" class="st3" d="M45.6,100.8v9.1c0,0,0,3.4-5,3.8c-5.1,0.3-7.7,3.1-8.9,7.6c-1.2,4.5-1.4,13.4,1.4,17.5
		c2.8,4.1,6.5,4.1,7,4.2c0.6,0.1,4.3-1.5,4.8,4.5c0.4,4.9,0,7.6,0,7.6s-0.5,3.4-3.4,3.7s-4.7-0.2-4.7-0.2s-3.1-0.7-6.5-4.4
		c-3.4-3.7-7.4-14.4-6.2-30.1c1-13.3,3.7-19.1,9.5-24.5c2.2-2,6.5-2.3,6.5-2.3s2.1-0.2,3.6,0.6C45.2,98.8,45.6,100.8,45.6,100.8z"/>
	<g>
		
			<rect id="XMLID_53_" x="62.6" y="102.5" transform="matrix(-0.9655 0.2603 -0.2603 -0.9655 244.921 228.3289)" class="st2" width="89.5" height="55.7"/>
		<polygon class="st3" points="105.6,123.7 70.9,167.1 71.4,168.9 157.8,145.6 157.3,143.8 		"/>
		<polygon id="XMLID_6_" class="st2" points="71.4,168.9 106,125.5 157.8,145.5 		"/>
		<polygon class="st3" points="56.9,115.1 57.4,116.9 109.1,137 143.8,93.6 143.3,91.8 		"/>
		<polygon id="XMLID_262_" class="st2" points="56.9,115.2 108.7,135.2 143.3,91.8 		"/>
	</g>
</g>
</svg>
