<?xml version="1.0" encoding="UTF-8" standalone="no"?>
<!-- Generator: Adobe Illustrator 19.0.0, SVG Export Plug-In . SVG Version: 6.00 Build 0)  -->

<svg
   xmlns:x="adobe:ns:meta/"
   xmlns:dc="http://purl.org/dc/elements/1.1/"
   xmlns:cc="http://creativecommons.org/ns#"
   xmlns:rdf="http://www.w3.org/1999/02/22-rdf-syntax-ns#"
   xmlns:svg="http://www.w3.org/2000/svg"
   xmlns="http://www.w3.org/2000/svg"
   xmlns:sodipodi="http://sodipodi.sourceforge.net/DTD/sodipodi-0.dtd"
   xmlns:inkscape="http://www.inkscape.org/namespaces/inkscape"
   version="1.1"
   id="Layer_1"
   x="0px"
   y="0px"
   viewBox="0 0 32.4 54.9"
   style="enable-background:new 0 0 32.4 54.9;"
   xml:space="preserve"
   inkscape:version="0.91 r13725"
   sodipodi:docname="up.svg"><defs
     id="defs12" /><sodipodi:namedview
     pagecolor="#ffffff"
     bordercolor="#666666"
     borderopacity="1"
     objecttolerance="10"
     gridtolerance="10"
     guidetolerance="10"
     inkscape:pageopacity="0"
     inkscape:pageshadow="2"
     inkscape:window-width="1920"
     inkscape:window-height="1018"
     id="namedview10"
     showgrid="false"
     inkscape:zoom="4.2987248"
     inkscape:cx="16.200001"
     inkscape:cy="27.450001"
     inkscape:window-x="-8"
     inkscape:window-y="-8"
     inkscape:window-maximized="1"
     inkscape:current-layer="Layer_1" /><metadata
     id="metadata3"><?xpacket begin="ÿ" id="W5M0MpCehiHzreSzNTczkc9d"?><x:xmpmeta
       x:xmptk="Adobe XMP Core 5.6-c067 79.157747, 2015/03/30-23:40:42        "><metadata><rdf:RDF><rdf:Description
             rdf:about="" /><cc:Work
             rdf:about=""><dc:format>image/svg+xml</dc:format><dc:type
               rdf:resource="http://purl.org/dc/dcmitype/StillImage" /><dc:title></dc:title></cc:Work></rdf:RDF></metadata></x:xmpmeta><?xpacket end="w"?></metadata><style
     type="text/css"
     id="style5">
	.st0{fill:#00BFA5;}
	.st1{fill:none;stroke:#FFFFFF;stroke-width:3;stroke-miterlimit:10;}
</style><path
     id="XMLID_96_"
     class="st0"
     d="m 36.903814,15.215255 0,25.4 c 0,8.1 -7.54774,14.8 -16.925235,14.8 l -3.316432,0 c -9.2631351,-0.1 -16.8108751,-6.7 -16.8108751,-14.9 l 0,-25.3 c 0,-8.1999996 7.54774,-14.79999953 16.9252351,-14.79999953 l 3.316432,0 c 9.263135,0 16.810875,6.59999993 16.810875,14.79999953 z m -20.241667,30.6 3.430792,0 0,-6.5 -3.430792,0 0,6.5 z m 0,5.1 3.430792,0 0,-3 -3.430792,0 0,3 z M 18.377543,5.1152554 4.3112999,18.315255 l 2.515914,2 9.8349331,-9.2 0,1 0,9.3 0,9.4 0,5.8 0,0.6 3.430792,0 0,-0.6 0,-5.8 0,-9.4 0,-9.2 0,-1 9.834934,9.2 2.515913,-2 L 18.377543,5.1152554 Z"
     inkscape:connector-curvature="0"
     style="fill:#00bfa5" /></svg>