<?xml version="1.0" encoding="utf-8"?>
<!-- Generator: Adobe Illustrator 20.1.0, SVG Export Plug-In . SVG Version: 6.00 Build 0)  -->
<svg version="1.1" id="Layer_1" xmlns="http://www.w3.org/2000/svg" xmlns:xlink="http://www.w3.org/1999/xlink" x="0px" y="0px"
	 viewBox="0 0 32.4 54.9" style="enable-background:new 0 0 32.4 54.9;" xml:space="preserve">
<style type="text/css">
	.st0{fill:none;stroke:#FFFFFF;stroke-width:3;stroke-miterlimit:10;}
	.st1{fill:#00BFA5;}
	.st2{display:none;fill:#00BFA5;}
	.st3{display:none;fill:none;}
</style>
<path id="XMLID_102_" class="st0" d="M16.2,33.7"/>
<path id="XMLID_101_" class="st0" d="M16.2,6.7"/>
<path class="st1" d="M28.1,8.3c-1.6-4.4-4.9-6.2-11.9-6.2S5.9,3.9,4.3,8.3S2.9,19.6,2.9,29.8c0,10.1,0.9,15.8,3,19.1
	c2.1,3.2,5.4,3.9,10.3,3.9h0.1c4.9,0,8.2-0.7,10.3-3.9s3-9,3-19.1C29.5,19.6,29.7,12.6,28.1,8.3z M17.4,45.4H15v-2.3h2.3v2.3H17.4z
	 M17.4,41.4H15v-5.1h2.3v5.1H17.4z M22.8,20l-5.4-5.8v20.4H15V14.2l-5.1,5.6l-1.7-1.6l8-8.7l8.3,8.9L22.8,20z"/>
<rect x="21.7" y="41.3" class="st2" width="1.9" height="1.9"/>
<line class="st3" x1="6.5" y1="20.3" x2="25.3" y2="20.4"/>
<line class="st3" x1="6.5" y1="20.3" x2="25.3" y2="20.4"/>
</svg>
