<?xml version="1.0" encoding="utf-8"?>
<!-- Generator: Adobe Illustrator 16.0.0, SVG Export Plug-In . SVG Version: 6.00 Build 0)  -->
<!DOCTYPE svg PUBLIC "-//W3C//DTD SVG 1.1 Tiny//EN" "http://www.w3.org/Graphics/SVG/1.1/DTD/svg11-tiny.dtd" [
	<!ENTITY ns_flows "http://ns.adobe.com/Flows/1.0/">
	<!ENTITY ns_extend "http://ns.adobe.com/Extensibility/1.0/">
	<!ENTITY ns_ai "http://ns.adobe.com/AdobeIllustrator/10.0/">
	<!ENTITY ns_graphs "http://ns.adobe.com/Graphs/1.0/">
]>
<svg version="1.1" baseProfile="tiny" id="Layer_1" xmlns:x="&ns_extend;" xmlns:i="&ns_ai;" xmlns:graph="&ns_graphs;"
	 xmlns="http://www.w3.org/2000/svg" xmlns:xlink="http://www.w3.org/1999/xlink" xmlns:a="http://ns.adobe.com/AdobeSVGViewerExtensions/3.0/"
	 x="0px" y="0px" width="158.25px" height="48.5px" viewBox="0 0 158.25 48.5" xml:space="preserve">
<polygon fill="#D9272E" points="59.961,6.345 59.651,6.351 55.778,6.345 40.696,42.634 47.686,42.634 49.705,37.795 61.023,37.795 
	58.315,31.301 52.413,31.301 57.868,18.216 63.322,31.301 63.297,31.301 68.066,42.634 75.078,42.634 74.811,41.985 "/>
<path fill="#D9272E" d="M103.893,30.598l0.517-0.289c2.053-1.148,3.727-2.821,4.881-4.868H89.756V12.887h19.521
	c-2.273-4.028-6.458-6.497-11.104-6.497h-14.91v36.225h6.494V31.933h6.874l8.644,10.701h8.309l-0.607-0.763L103.893,30.598z"/>
<path fill="#D9272E" d="M135.203,6.39h-13.609v6.497h13.609c5.469,0,9.918,5.21,9.918,11.614c0,6.406-4.449,11.618-9.918,11.618
	h-7.117V25.44h-6.492v17.174h13.609c9.049,0,16.411-8.126,16.411-18.113C151.614,14.514,144.252,6.39,135.203,6.39z"/>
<path fill="#D9272E" d="M93.6,16.053v6.371h2.121c2.002,0,3.386-1.394,3.386-3.187c0-1.811-1.384-3.185-3.386-3.185H93.6z
	 M98.615,19.237c0,1.539-1.12,2.749-2.895,2.749h-1.647v-5.497h1.647C97.495,16.489,98.615,17.728,98.615,19.237z"/>
<polygon fill="#D9272E" points="105.243,16.489 105.243,16.053 100.711,16.053 100.711,22.424 105.289,22.424 105.289,21.986 
	101.185,21.986 101.185,19.43 104.834,19.43 104.834,18.992 101.185,18.992 101.185,16.489 "/>
<path fill="#D9272E" d="M108.988,22.086c-0.938,0-1.584-0.3-2.285-0.945l-0.309,0.355c0.765,0.682,1.547,1.02,2.566,1.02
	c1.229,0,2.111-0.711,2.111-1.739c0-0.947-0.619-1.475-2.093-1.775c-1.511-0.31-1.856-0.719-1.856-1.394
	c0-0.681,0.618-1.218,1.557-1.218c0.7,0,1.301,0.201,1.901,0.719l0.3-0.373c-0.646-0.519-1.256-0.774-2.184-0.774
	c-1.184,0-2.049,0.729-2.049,1.675c0,0.983,0.619,1.502,2.148,1.812c1.447,0.291,1.803,0.682,1.803,1.355
	C110.6,21.549,109.944,22.086,108.988,22.086z"/>
<rect x="112.688" y="16.053" fill="#D9272E" width="0.474" height="6.371"/>
<path fill="#D9272E" d="M117.955,19.556h2.13v1.83c-0.465,0.392-1.22,0.729-2.03,0.729c-1.701,0-2.73-1.229-2.73-2.877
	c0-1.556,1.084-2.867,2.631-2.867c0.965,0,1.547,0.328,2.048,0.767l0.31-0.356c-0.638-0.527-1.293-0.837-2.33-0.837
	c-1.902,0-3.149,1.575-3.149,3.294c0,1.812,1.192,3.296,3.204,3.296c1.037,0,1.93-0.447,2.502-0.957V19.12h-2.584V19.556z"/>
<polygon fill="#D9272E" points="127.188,22.424 127.542,22.424 127.542,16.053 127.088,16.053 127.088,21.595 122.691,16.053 
	122.245,16.053 122.245,22.424 122.7,22.424 122.7,16.763 "/>
<polygon fill="#D9272E" points="32.568,6.351 23.899,20.955 15.247,6.352 7.79,6.386 20.654,28.226 20.643,42.614 27.148,42.614 
	27.148,28.257 40.153,6.351 "/>
<g>
</g>
<g>
</g>
<g>
</g>
<g>
</g>
<g>
</g>
<g>
</g>
</svg>
