<svg xmlns="http://www.w3.org/2000/svg" xmlns:xlink="http://www.w3.org/1999/xlink" width="141" height="45" viewBox="0 0 141 45">
<defs>
    <rect id="a" width="135" height="45" x="3" rx="10"/>
</defs>
<g fill="none" fill-rule="evenodd">
    <path fill="#000" fill-opacity=".38" d="M0 16c0-1.105.898-2 1.998-2h2.004C5.106 14 6 14.89 6 16v13c0 1.105-.898 2-1.998 2H1.998A1.996 1.996 0 0 1 0 29V16zm0 16.99c0-.546.444-.99 1-.99a1 1 0 0 1 1 .99v4.02c0 .546-.444.99-1 .99a1 1 0 0 1-1-.99v-4.02zm0-25C0 7.445.444 7 1 7a1 1 0 0 1 1 .99v4.02c0 .546-.444.99-1 .99a1 1 0 0 1-1-.99V7.99zM135 16c0-1.105.898-2 1.998-2h2.004c1.104 0 1.998.89 1.998 2v13c0 1.105-.898 2-1.998 2h-2.004A1.996 1.996 0 0 1 135 29V16zm4 16.99c0-.546.444-.99 1-.99a1 1 0 0 1 1 .99v4.02c0 .546-.444.99-1 .99a1 1 0 0 1-1-.99v-4.02zm0-25c0-.546.444-.99 1-.99a1 1 0 0 1 1 .99v4.02c0 .546-.444.99-1 .99a1 1 0 0 1-1-.99V7.99z"/>
    <use fill="#FFF" xlink:href="#a"/>
    <rect width="134" height="44" x="3.5" y=".5" stroke="#000" stroke-opacity=".38" rx="10"/>
    <rect width="1" height="45" x="44" fill="#000" fill-opacity=".38" rx=".5"/>
</g>
</svg>
