<?xml version="1.0" encoding="utf-8"?>
<!-- Generator: Adobe Illustrator 20.1.0, SVG Export Plug-In . SVG Version: 6.00 Build 0)  -->
<svg version="1.1" id="Layer_1" xmlns="http://www.w3.org/2000/svg" xmlns:xlink="http://www.w3.org/1999/xlink" x="0px" y="0px"
	 viewBox="0 0 481.9 481.9" style="enable-background:new 0 0 481.9 481.9;" xml:space="preserve">
<style type="text/css">
	.st0{fill:none;}
	.st1{fill:#111111;}
</style>
<g>
	<polygon class="st0" points="253.9,161.3 253.7,160.6 253.4,161.1 253.4,162 253.9,162 	"/>
	<polygon class="st0" points="252.9,160.1 252.9,160.1 252.7,159.8 252.4,159.8 252.4,160.6 252.2,161 252.8,160.8 	"/>
	<polygon class="st0" points="248.9,160.4 249.3,160.4 249.8,160.7 250.4,161 250.1,160.2 249.6,159.7 249.3,159.8 248.9,160.1 	"/>
	<polygon class="st0" points="251.7,159.9 251.6,159.9 251.6,159.7 251.4,159.7 251.4,159.7 251.4,160.1 251.7,160.1 	"/>
	<polygon class="st0" points="255.1,160.2 254.7,160.2 254.6,160.4 254.2,160.4 254.9,160.5 	"/>
	<polygon class="st0" points="250.9,162.1 250.9,161.8 250.8,161.8 	"/>
	<polygon class="st0" points="250.1,158.4 250.1,158.1 249.9,158.3 249.7,158.7 249.9,158.7 	"/>
	<polygon class="st0" points="250.9,158.2 250.7,157.5 250.1,157.5 250.6,157.8 	"/>
	<polygon class="st0" points="257.5,181.3 257.5,180.9 257.3,180.9 257.3,181.1 	"/>
	<polygon class="st0" points="258.5,195.1 258.7,195.1 258.8,194.9 258.8,194.6 258.5,194.8 	"/>
	<polygon class="st0" points="261.3,178.7 260.9,178.7 260.6,179 260.5,179 260.5,179.1 261,179.1 	"/>
	<rect x="261.3" y="186.3" class="st0" width="0.2" height="0.2"/>
	<polygon class="st0" points="260.5,196.3 260.4,196.1 260.3,196.1 260.3,196.5 260.6,196.5 	"/>
	<path class="st0" d="M248.7,170.2l-0.3-0.2l-0.3-0.4v-0.3h-0.3v0.7h-0.2v0.6l0.2,0.2h0.3v-0.3h0.5l-8.8,8.8c0.3,0.5,0.5,1,0.6,1.5
		h19.3c-0.2-5.6-2.5-11-6.5-15.1L248.7,170.2z"/>
	<polygon class="st0" points="248.9,157.7 248.7,158.1 249.1,157.8 249.1,157.4 248.9,157.4 	"/>
	<polygon class="st0" points="259,193.9 259.5,194.2 259.9,194.6 259.7,193.9 	"/>
	<polygon class="st0" points="258.5,190.8 258.5,191.4 258.6,191.4 258.6,191.7 258.9,191.5 258.9,191.2 258.7,191 258.7,190.5 	"/>
	<polygon class="st0" points="260,176 260,176.4 260.3,176.4 	"/>
	<rect x="259.9" y="180.7" class="st0" width="0.3" height="0.4"/>
	<polygon class="st0" points="248.8,159.3 248.8,159.1 248.7,159.3 	"/>
	<rect x="232.2" y="154.1" class="st0" width="0.3" height="0.3"/>
	<polygon class="st0" points="234.4,155.4 234.3,155.2 233.9,155.2 233.9,155.6 234.4,155.6 	"/>
	<polygon class="st0" points="230.2,154.2 230.2,154.7 230.9,154.7 	"/>
	<polygon class="st0" points="226.9,155.4 226.9,155.2 226.6,155.2 226.7,155.4 	"/>
	<polygon class="st0" points="234.7,156 234.4,155.7 234.4,155.9 234.8,156.3 235.3,156.5 234.9,156.2 	"/>
	<polygon class="st0" points="229.5,154.4 229.4,154.4 229.3,154.3 229.3,155 229.5,154.7 	"/>
	<polygon class="st0" points="230.2,154.7 229.9,154.7 230.3,155.1 	"/>
	<polygon class="st0" points="227.7,159.2 227.7,159 226.9,159 226.6,158.8 226.3,158.8 226.3,158.9 226.7,159.2 	"/>
	<polygon class="st0" points="246.9,156.1 246.9,156.3 246.7,156.9 246.9,157.5 	"/>
	<polygon class="st0" points="248.2,159.7 247.7,159.7 247.9,159.9 	"/>
	<polygon class="st0" points="248.8,156.5 248.6,156.8 248.9,156.8 	"/>
	<polygon class="st0" points="237.9,153.8 237.6,153.1 237.4,153.6 237.4,154.5 237.9,154.5 	"/>
	<polygon class="st0" points="236.2,151.7 235.9,152.1 236.6,151.9 236.7,151.2 236.4,150.9 236.2,150.9 	"/>
	<polygon class="st0" points="236.3,133.7 236.3,133.4 235.9,133.4 235.6,133.7 235.6,134.4 235.8,133.7 	"/>
	<polygon class="st0" points="236,154.3 235.7,154.3 235.7,155 235.9,155.3 236.2,155.5 236.6,155.5 236.6,155.2 236.4,155.2 
		236.4,154.8 237.4,154.8 237.4,154.6 236.5,154.6 	"/>
	<polygon class="st0" points="235.2,154.5 235.4,154.2 235.4,154.2 235.2,153.8 234.9,154 234.6,154 234.9,154.3 	"/>
	<polygon class="st0" points="233.6,155 233.6,154.7 233.2,154.7 233.3,155 	"/>
	<polygon class="st0" points="268.7,149.1 268.7,148.8 268.5,148.6 268.5,148.1 268.3,148.4 268.3,148.8 268.1,149.3 268.4,149.3 	
		"/>
	<polygon class="st0" points="262.3,181.9 262.5,182.4 262.8,182.7 262.7,182.3 262.4,181.9 262.4,181.4 262.4,181.1 262.2,181.1 
		262.2,181.4 262.3,181.4 	"/>
	<polygon class="st0" points="281.9,180.4 281.9,180.2 281.6,180.2 281.6,180.6 281.9,180.6 	"/>
	<polygon class="st0" points="281.2,183.2 281.2,183 280.9,183 281.1,183.2 	"/>
	<polygon class="st0" points="279.2,180.2 279,180.2 279,180.4 279.2,180.5 	"/>
	<polygon class="st0" points="267.2,150.5 267.2,150.8 267.5,150.8 	"/>
	<rect x="267.1" y="153" class="st0" width="0.3" height="0.2"/>
	<polygon class="st0" points="267.5,151.5 267.3,151.5 267.3,151.8 267.1,152.2 267.5,151.9 	"/>
	<polygon class="st0" points="266.5,209.5 266.5,210 266.6,210.1 	"/>
	<polygon class="st0" points="259.7,205.9 260.1,205.9 260.1,205.4 259.8,205.4 259.8,205.5 259.7,205.6 	"/>
	<polygon class="st0" points="271.3,216 271,215.1 270.8,214.8 270.5,215.1 270.5,216 270.8,216.3 	"/>
	<polygon class="st0" points="268,212.9 268,212.6 267.8,212.4 267.8,211.9 267.6,212.2 267.6,212.6 267.3,213.1 267.7,213.1 	"/>
	<polygon class="st0" points="284,181.2 284.2,181.7 284.5,182 284.4,181.6 284.1,181.2 284.1,180.7 284.1,180.4 283.9,180.4 
		283.9,180.7 284,180.7 	"/>
	<rect x="266.6" y="211.9" class="st0" width="0.2" height="0.5"/>
	<polygon class="st0" points="264.8,207.5 264.5,207.5 264.5,207.8 264.5,207.8 	"/>
	<polygon class="st0" points="266.6,153.8 266.1,153.8 266.3,154 	"/>
	<polygon class="st0" points="208.9,154 209.4,154.4 209.4,153.9 208.9,153.6 	"/>
	<polygon class="st0" points="208.3,211.4 208.7,211.4 208.7,211.1 208.8,210.9 208.3,210.9 	"/>
	<rect x="236.8" y="229.3" class="st0" width="0.3" height="0.2"/>
	<polygon class="st0" points="198.6,180.4 198.6,181.4 197.7,181.4 197.2,181.1 196.7,181.1 196.4,180.7 196.4,180.8 196.4,181.2 
		196.4,181.2 196.1,180.9 196.1,180.8 196.4,180.6 196.4,180.7 196.2,180.2 195.9,180.2 195.7,180.6 195.9,180.6 196.1,180.9 
		196.1,181.3 196.4,181.6 196.7,181.8 196.9,181.5 197.2,181.5 197.2,182.3 197.4,182.6 197.8,182.8 197.9,182.8 197.9,182.5 
		197.8,182.5 197.8,182.1 198.8,182.1 198.8,181.8 199.1,181.8 199.1,181.3 199.1,180.6 198.7,179.9 	"/>
	<polygon class="st0" points="257.9,194.1 257.9,193.7 257.7,193.7 257.7,194 257.5,194.4 	"/>
	<polygon class="st0" points="257.6,192.7 257.5,192.7 257.5,193 257.8,193 	"/>
	<polygon class="st0" points="258.2,197.8 258.5,198.1 258.5,198.3 258.3,198.6 258.6,198.4 258.4,197.4 	"/>
	<polygon class="st0" points="237.2,136.7 237.4,137.2 237.7,137.5 237.7,137.1 237.4,136.7 237.4,136.2 237.4,135.9 237.2,135.9 
		237.1,136.2 237.2,136.2 	"/>
	<polygon class="st0" points="258.2,200 258.5,200 258.6,199.7 258.2,199.7 	"/>
	<polygon class="st0" points="195.4,182.3 195.4,182.5 195.9,182.5 195.8,182.3 	"/>
	<polygon class="st0" points="190.7,182.5 190.9,182.1 190.9,181.8 190.7,181.8 	"/>
	<polygon class="st0" points="188.3,182.8 188.3,182.6 187.9,182.6 	"/>
	<polygon class="st0" points="258.6,196.1 258.2,196.1 257.9,196.4 257.9,196.7 258.2,196.7 258.7,197 259.4,197.4 259.1,196.6 	"/>
	<polygon class="st0" points="234.9,136 235.3,136 235.3,135.8 235.3,135.6 234.9,135.6 	"/>
	<polygon class="st0" points="192.2,180.3 192.1,180.1 191.1,180.1 191.2,180.5 191.4,180.9 191.8,181.2 192.1,181.2 192.1,180.9 
		192.3,180.7 192.2,180.7 	"/>
	<rect x="193.4" y="181.4" class="st0" width="0.3" height="0.3"/>
	<polygon class="st0" points="191.3,181.3 191.3,182.2 191.6,182.6 191.6,182.2 192.3,182.2 192.1,181.8 	"/>
	<polygon class="st0" points="194.4,182.2 194.7,182.2 194.7,182 194.4,182 	"/>
	<polygon class="st0" points="268.3,215.7 268.7,216.1 268.5,215.4 267.8,215.4 	"/>
	<polygon class="st0" points="235.9,219.8 235.7,219.5 235.4,219.3 235.2,219.3 235.4,219.6 	"/>
	<polygon class="st0" points="235.9,214.6 235.9,214.4 235.9,214.4 235.9,214.8 236.2,214.8 236.1,214.6 	"/>
	<polygon class="st0" points="235.9,223.8 235.4,223.8 235.4,224.1 235.4,224.3 235.9,224.3 	"/>
	<rect x="235.9" y="226.7" class="st0" width="0.3" height="0.5"/>
	<polygon class="st0" points="251.9,200.6 251.9,200.4 251.7,200.4 	"/>
	<path class="st0" d="M238.7,185c-0.5,0.3-1,0.5-1.5,0.6v19h-0.3v0.2h0.2h0.1v0.2c5.7-0.2,11-2.4,15.1-6.3L238.7,185z"/>
	<polygon class="st0" points="236.4,196.8 236.2,197.1 236.2,197.4 236.7,197.4 236.9,196.8 	"/>
	<rect x="233.3" y="208.9" class="st0" width="0.2" height="0.5"/>
	<polygon class="st0" points="251.6,204.2 251.3,204.2 251.7,204.5 252.7,204.5 252.7,204.4 251.9,204.4 	"/>
	<polygon class="st0" points="222.8,206.5 223.1,206.5 223.1,206 222.4,206 	"/>
	<polygon class="st0" points="233.4,206.5 233.2,206.5 233.4,207.1 	"/>
	<polygon class="st0" points="235.8,217.2 235.6,216.6 235.3,216.6 235.4,216.9 	"/>
	<path class="st0" d="M235.8,199h-0.3v-10.4v-0.3v-2.7c-0.5-0.1-1-0.3-1.5-0.6l-13.7,13.7c4.2,3.9,9.6,6.1,15.3,6.3v-5.6h0.2V199z"
		/>
	<polygon class="st0" points="234.4,209.2 234.4,208.7 234.3,209 234.3,210 234.6,210 234.9,209.8 234.7,209.4 	"/>
	<polygon class="st0" points="235.6,188.3 235.4,188.3 235.4,188.6 	"/>
	<polygon class="st0" points="257.5,202.9 258,202.9 258,202.7 257.6,202.7 	"/>
	<path class="st0" d="M276.8,448.2c0.4,0.5,1,0.7,1.7,0.7s1.3-0.2,1.7-0.6c0.5-0.4,0.7-1,0.7-1.6c0-0.7-0.2-1.2-0.7-1.7
		s-1-0.7-1.7-0.7s-1.2,0.3-1.7,0.7c-0.5,0.5-0.7,1-0.7,1.6C276.1,447.3,276.3,447.9,276.8,448.2z"/>
	<path class="st0" d="M263.3,444.4c-0.8,0-1.5,0.4-2.1,1s-0.9,1.5-0.9,2.5s0.2,1.7,0.8,2.3c0.6,0.6,1.3,0.9,2.1,0.9s1.5-0.3,2-0.9
		s0.8-1.4,0.9-2.5c0-1-0.3-1.8-0.8-2.4C264.7,444.7,264.1,444.4,263.3,444.4z"/>
	<path class="st0" d="M280.5,451.2c-0.5-0.5-1.2-0.8-2.1-0.8s-1.5,0.2-2.1,0.8c-0.5,0.6-0.8,1.3-0.8,2.1c0,0.5,0.2,1,0.4,1.5
		c0.3,0.5,0.6,0.8,1.1,1.1c0.4,0.3,1,0.4,1.5,0.4c0.8,0,1.5-0.3,2.1-0.8c0.6-0.6,0.9-1.3,0.8-2.2
		C281.4,452.5,281.1,451.8,280.5,451.2z"/>
	<polygon class="st0" points="220.2,202.9 220.4,203.2 220.6,203 220.6,201.9 220.2,202.4 	"/>
	<path class="st0" d="M294,449.6c-0.9,0-1.5,0.3-2.1,0.9c-0.5,0.6-0.8,1.4-0.8,2.3c0,0.6,0.1,1.2,0.4,1.8c0.3,0.6,0.6,1,1.1,1.3
		s1,0.4,1.5,0.4c0.7,0,1.4-0.3,1.9-0.9s0.8-1.4,0.8-2.5c0-1-0.3-1.8-0.8-2.4C295.5,449.9,294.8,449.6,294,449.6z"/>
	<polygon class="st0" points="254.3,200.2 254.6,199.8 254.6,199.5 254.3,199.5 	"/>
	<path class="st0" d="M257.9,190.9v-0.5l0.5-1.3c0.7-2.2,1.1-4.4,1.2-6.7h-19.3c-0.1,0.5-0.3,1-0.6,1.5l13.7,13.7
		c1.8-2,3.2-4.2,4.2-6.7H257.9z"/>
	<polygon class="st0" points="254.7,197.8 254.7,198.2 255.1,198.6 255.4,198.9 255.7,198.9 255.7,198.6 255.9,198.4 255.9,198 
		255.7,197.8 	"/>
	<rect x="257.1" y="199.2" class="st0" width="0.3" height="0.3"/>
	<polygon class="st0" points="254.9,199 254.9,199.9 255.3,200.3 255.3,199.9 255.9,199.9 255.8,199.5 	"/>
	<polygon class="st0" points="256.6,196.5 256.9,196.3 257,196 256.5,196 256.3,196.3 	"/>
	<polygon class="st0" points="256.5,201.7 256.2,201.7 256.2,202 256.3,202 256.3,202.1 257.1,202.1 257.1,201.9 256.5,201.9 	"/>
	<polygon class="st0" points="256.5,197 256.3,197 256,197.3 256.5,197.3 	"/>
	<polygon class="st0" points="235.9,184.6 235.7,184.4 235.6,184.5 235.6,185 235.9,185 	"/>
	<polygon class="st0" points="235.6,194.8 235.9,194.8 235.6,194.4 	"/>
	<polygon class="st0" points="235.7,183.5 235.6,183.5 235.7,184.1 	"/>
	<path class="st0" d="M234.4,177.8l1-0.3v-13.8h0.1v-0.5h-0.1v-1.1l0.3-0.2h0.5l0.4-0.2h0.1h0.2v13.8c0.5,0.1,1,0.3,1.5,0.6l1.4-1.4
		v0.5l0.2,0.5l0.3,0.3v-0.4l-0.3-0.4v-0.5l11.3-11.3h0.1l0.6-0.6h0.1l0.3,0.2h0.2v-0.3h-0.2v-0.4h1v-0.1h-0.8l-0.5-0.3h-0.5
		l-0.4-0.5l-0.1,0.1h0.1l0.1,0.5v0.4h-0.1l-0.3-0.3l0,0l-1.2-0.8l0.1,0.8h-0.5l0.2-0.3v-0.2l-0.1-0.1l0.2-0.3v-0.1l-0.9-0.6
		c-3.3-2.1-7.1-3.3-11-3.5h-0.1l-0.4-0.3h0.1v-0.3H237l-0.3,0.3v0.3l-0.5-0.3h-0.5v0.5l0.3,0.3l0.3,0.3v0.4l-0.5-0.3l-0.5-0.5
		l-0.2-0.7l-0.3-0.3h-1.1l-0.3,0.6v0.5l-0.6,0.1h0.1h0.2v0.2h-0.5l0.1-0.2l-1.6,0.3H231v-0.6h0.2l0.3,0.2h0.3v-0.3l-0.2-0.2h-0.4
		v-0.3h0.3v-0.2h-0.6v-0.2h-0.3v0.3h0.1v0.3l-0.2,0.9l0.3,0.9l-1.2,0.3h-0.7v0.4c-3.2,1.1-6.1,2.8-8.6,5.1l13.8,13.5L234.4,177.8z
		 M247.6,160.7h0.3v0.3h-0.5L247.6,160.7z M236.7,160.7h0.1v-0.1l0.1-0.3v-0.7l0.2-0.1v1.9l-0.3-0.2V161L236.7,160.7L236.7,160.7z
		 M235.4,158.8h0.1l0.3,0.3v0.6h-0.3l-0.1-0.1V158.8z M235.4,160.1l0.1,0.2l0.1,0.2l0.2,0.1l0.2,0.2v0.2h0.2v0.1h0.1l-0.1,0.1v0.2
		l-0.2-0.1l-0.2,0.1h-0.1l-0.3,0.1V160.1z M228.9,159.4l0.1-0.1L228.9,159.4z"/>
	<polygon class="st0" points="216.6,164.5 216.4,164.8 216.9,164.8 	"/>
	<polygon class="st0" points="216.6,164.2 216.6,164.5 216.7,164.2 	"/>
	<rect x="235.9" y="170.3" class="st0" width="0.2" height="0.3"/>
	<path class="st0" d="M232.2,182.9h-19.3c0.1,1.6,0.3,3.2,0.7,4.7h-0.1v0.3l0.2,0.2l0.5,1.6l-0.3,0.2l-0.3,1l0.6,0.5l0.5,0.4
		l0.2-0.3l0.1-0.2c1,2.5,2.4,4.8,4.1,6.8l13.7-13.7C232.5,183.9,232.3,183.4,232.2,182.9z"/>
	<rect x="239.1" y="181.7" class="st0" width="0.3" height="0.2"/>
	<polygon class="st0" points="237.4,179.1 237.1,179.1 237.4,179.3 	"/>
	<polygon class="st0" points="251,161.8 251.1,161.8 251.2,161.5 251,161.6 	"/>
	<rect x="236.3" y="166.1" class="st0" width="0.3" height="0.2"/>
	<polygon class="st0" points="236.9,186.7 236.9,186.4 236.7,186.2 236.7,185.7 236.4,186 236.4,186.7 236.6,186.7 236.6,186.9 	"/>
	<rect x="235.6" y="185.9" class="st0" width="0.2" height="0.5"/>
	<rect x="209.4" y="182.1" class="st0" width="0.4" height="0.3"/>
	<path class="st0" d="M212.9,180c-0.1,0.3-0.1,0.7-0.1,1h4.8l0.3,0.2l0.4-0.2h13.9c0.1-0.5,0.3-1,0.6-1.5l-13.7-13.7l0.1-0.2
		c-3.6,3.8-5.8,8.8-6.3,14H212L212.9,180z"/>
	<polygon class="st0" points="210.9,187.2 211.4,187.8 211.1,188.2 210.7,188.7 211.7,188.5 211.2,186.4 	"/>
	<polygon class="st0" points="212.7,186 212.1,184.5 211.2,183.5 210.4,183.5 209.8,184.1 209.8,184.7 210.5,184.9 211.5,185.4 	"/>
	<polygon class="st0" points="213.9,192.8 213.4,192.3 213.2,191.7 212.8,191.3 212.4,191.3 212.1,191.6 212.1,192 212.4,192.3 
		212.8,192.3 213.3,192.6 213.3,193.1 213.8,193.9 214.8,194.3 214.9,193.7 214.4,193.2 	"/>
	<polygon class="st0" points="215.6,195.2 215.2,195.5 215.2,195.8 215.4,195.8 215.4,196.1 215.7,195.8 215.7,195.5 215.6,195.5 	
		"/>
	<polygon class="st0" points="210.6,190.9 210.6,191.5 211.1,191.5 211.4,190.9 211.1,190.6 	"/>
	<polygon class="st0" points="211.6,182.6 211.6,182.9 212.1,182.9 211.8,182.6 	"/>
	<polygon class="st0" points="212.6,174.3 212.6,173.8 212.2,173.4 212.2,172.5 211.8,173.1 211.8,173.9 211.6,174.4 211.6,174.7 
		212.1,174.7 	"/>
	<polygon class="st0" points="209.9,179.1 209.7,179.1 209.7,179.7 209.2,180.7 209.9,180.1 	"/>
	<polygon class="st0" points="209.4,177.6 209.4,178.1 209.8,178.1 210.1,177.8 209.8,177.6 	"/>
	<polygon class="st0" points="209.9,173.8 210.4,173.5 210.4,172.6 210.1,172.2 209.7,172.5 209.4,173.1 209.7,173.5 	"/>
	<polygon class="st0" points="212.2,181.1 212.2,180.5 211.8,180.9 211.4,181.6 211.8,181.6 	"/>
	<polygon class="st1" points="185.2,450.9 193.2,450.9 193.2,449.2 185.2,449.2 185.2,444.7 193.8,444.7 193.8,443 183.3,443 
		183.3,457.5 194.1,457.5 194.1,455.8 185.2,455.8 	"/>
	<path class="st1" d="M206.1,449.8c-0.6-0.3-1.7-0.6-3.2-0.9s-2.5-0.7-2.9-1s-0.6-0.8-0.6-1.3c0-0.6,0.3-1.1,0.8-1.5
		s1.4-0.6,2.5-0.6s2,0.2,2.5,0.7c0.6,0.5,0.9,1.2,1,2.1l1.8-0.1c0-0.9-0.3-1.6-0.7-2.3c-0.4-0.7-1.1-1.2-1.9-1.5s-1.8-0.5-2.9-0.5
		c-1,0-1.9,0.2-2.7,0.5s-1.4,0.8-1.8,1.5c-0.4,0.6-0.6,1.3-0.6,2.1c0,0.7,0.2,1.3,0.5,1.8s0.9,1,1.6,1.4c0.5,0.3,1.5,0.6,2.8,0.9
		s2.2,0.6,2.6,0.7c0.6,0.2,1,0.5,1.3,0.9c0.3,0.3,0.4,0.7,0.4,1.2s-0.1,0.9-0.4,1.2c-0.3,0.3-0.7,0.7-1.3,0.9
		c-0.6,0.2-1.2,0.3-1.9,0.3c-0.8,0-1.6-0.1-2.2-0.4c-0.7-0.3-1.1-0.7-1.5-1.1c-0.3-0.5-0.5-1.1-0.6-1.8l-1.8,0.2
		c0,1,0.3,1.8,0.8,2.6s1.2,1.3,2.1,1.7c0.9,0.4,2,0.6,3.3,0.6c1,0,2-0.2,2.8-0.6s1.5-0.9,1.9-1.6s0.7-1.4,0.7-2.2s-0.2-1.5-0.6-2.1
		C207.6,450.7,206.9,450.2,206.1,449.8z"/>
	<polygon class="st1" points="210.2,444.7 214.9,444.7 214.9,457.5 216.9,457.5 216.9,444.7 221.8,444.7 221.8,443 210.2,443 	"/>
	<rect x="224.6" y="455.5" class="st1" width="2" height="2"/>
	<path class="st1" d="M246.9,444.9c-0.7,0.7-1.6,1.2-2.6,1.7v1.7c0.6-0.2,1.2-0.5,1.9-0.9s1.3-0.8,1.7-1.2v11.4h1.8V443h-1.2
		C248.3,443.6,247.8,444.2,246.9,444.9z"/>
	<path class="st1" d="M265.5,443.7c-0.8-0.5-1.6-0.8-2.6-0.8c-1.3,0-2.4,0.4-3.3,1.3s-1.3,2.1-1.3,3.6c0,1.4,0.4,2.6,1.3,3.5
		c0.8,0.9,1.9,1.3,3.1,1.3c0.7,0,1.4-0.2,2-0.5s1.1-0.8,1.5-1.4c0,0.2,0,0.3,0,0.4c0,0.7-0.1,1.5-0.3,2.2c-0.2,0.7-0.4,1.3-0.7,1.7
		c-0.3,0.4-0.6,0.8-1,1c-0.4,0.3-0.9,0.4-1.4,0.4c-0.6,0-1.2-0.2-1.6-0.5c-0.4-0.4-0.7-0.9-0.8-1.8l-1.7,0.2c0.1,1.1,0.6,2,1.3,2.7
		c0.7,0.6,1.6,0.9,2.8,0.9c1.1,0,2-0.3,2.8-0.9s1.4-1.4,1.8-2.5s0.6-2.6,0.6-4.4s-0.2-3.1-0.6-4.1
		C266.9,444.9,266.3,444.2,265.5,443.7z M265.2,450.2c-0.5,0.6-1.2,0.9-2,0.9s-1.5-0.3-2.1-0.9s-0.8-1.3-0.8-2.3s0.3-1.9,0.9-2.5
		s1.3-1,2.1-1c0.8,0,1.4,0.3,2,0.9c0.5,0.6,0.8,1.4,0.8,2.4C266,448.8,265.7,449.6,265.2,450.2z"/>
	<path class="st1" d="M280.6,449.6c0.7-0.3,1.3-0.7,1.6-1.2c0.3-0.5,0.5-1.1,0.5-1.8c0-1.1-0.4-2-1.2-2.7c-0.8-0.7-1.8-1.1-3.1-1.1
		s-2.3,0.4-3,1.1s-1.1,1.6-1.1,2.7c0,0.7,0.2,1.3,0.5,1.8c0.4,0.5,0.9,0.9,1.6,1.2c-0.9,0.2-1.6,0.7-2,1.3c-0.5,0.6-0.7,1.4-0.7,2.4
		c0,1.3,0.4,2.3,1.3,3.2c0.9,0.8,2,1.3,3.5,1.3s2.6-0.4,3.5-1.3c0.9-0.8,1.3-1.9,1.3-3.1c0-0.9-0.2-1.7-0.7-2.3
		C282.1,450.4,281.5,449.9,280.6,449.6z M276.1,446.6c0-0.6,0.2-1.1,0.7-1.6c0.5-0.4,1-0.7,1.7-0.7s1.2,0.2,1.7,0.7s0.7,1,0.7,1.7
		c0,0.6-0.2,1.2-0.7,1.6c-0.4,0.4-1,0.6-1.7,0.6s-1.3-0.2-1.7-0.7C276.3,447.9,276.1,447.3,276.1,446.6z M280.6,455.5
		c-0.6,0.5-1.3,0.8-2.1,0.8c-0.5,0-1.1-0.1-1.5-0.4c-0.5-0.3-0.8-0.6-1.1-1.1c-0.2-0.5-0.4-1-0.4-1.5c0-0.8,0.3-1.5,0.8-2.1
		c0.6-0.6,1.2-0.8,2.1-0.8s1.6,0.3,2.1,0.8c0.6,0.6,0.9,1.3,0.9,2.1C281.5,454.2,281.2,454.9,280.6,455.5z"/>
	<path class="st1" d="M294.3,448.1c-0.7,0-1.3,0.2-2,0.5c-0.6,0.3-1.1,0.8-1.6,1.5c0-1.5,0.2-2.6,0.5-3.4s0.8-1.4,1.3-1.8
		c0.4-0.3,0.9-0.5,1.5-0.5c0.7,0,1.3,0.3,1.8,0.8c0.3,0.3,0.5,0.8,0.7,1.5l1.8-0.1c-0.1-1.1-0.6-2-1.3-2.7c-0.7-0.7-1.7-1-2.8-1
		c-1.5,0-2.8,0.6-3.7,1.7c-1,1.3-1.6,3.3-1.6,6.1c0,2.5,0.5,4.3,1.4,5.4s2.2,1.6,3.6,1.6c0.9,0,1.7-0.2,2.3-0.6
		c0.7-0.4,1.2-1,1.6-1.8s0.6-1.6,0.6-2.5c0-1.4-0.4-2.5-1.3-3.4C296.5,448.5,295.5,448.1,294.3,448.1z M296,455.4
		c-0.5,0.6-1.2,0.9-1.9,0.9c-0.5,0-1-0.1-1.5-0.4s-0.8-0.7-1.1-1.3c-0.3-0.6-0.4-1.2-0.4-1.8c0-0.9,0.3-1.7,0.8-2.3
		c0.6-0.6,1.2-0.9,2.1-0.9c0.8,0,1.5,0.3,2,0.9s0.8,1.4,0.8,2.4C296.8,454,296.5,454.8,296,455.4z"/>
	<polygon class="st1" points="94.4,392.6 69.3,392.6 69.3,372.8 62.9,372.8 62.9,421 69.3,421 69.3,398.3 94.4,398.3 94.4,421 
		100.8,421 100.8,372.8 94.4,372.8 	"/>
	<path class="st1" d="M140.9,400.6c0,6.1-1,10.1-3,12.3c-2,2.1-5.3,3.2-10,3.2c-2.7,0-5.1-0.5-7-1.6c-1.9-1.1-3.2-2.6-4-4.6
		s-1.2-5.1-1.2-9.3v-27.8h-6.4v27.9c0,5.1,0.6,9.1,1.8,12.1c1.2,3,3.3,5.2,6.2,6.8c2.9,1.6,6.6,2.3,11.1,2.3c4.6,0,8.4-0.9,11.3-2.7
		c2.9-1.8,4.8-4.1,5.9-7c1.1-2.9,1.6-6.7,1.6-11.5v-27.9h-6.3V400.6z"/>
	<polygon class="st1" points="194.8,372.8 186.1,372.8 162.2,396.7 162.2,372.8 155.8,372.8 155.8,421 162.2,421 162.2,404.3 
		169.9,396.6 187.2,421 195.6,421 174.4,392.3 	"/>
	<path class="st1" d="M243.7,395.6c-1.9-0.9-5.5-1.9-10.7-3.1s-8.4-2.3-9.6-3.4c-1.3-1.1-1.9-2.5-1.9-4.3c0-2,0.9-3.7,2.6-5.1
		c1.8-1.4,4.6-2.1,8.4-2.1c3.7,0,6.5,0.8,8.4,2.3c1.9,1.6,3,3.9,3.3,6.9l6.1-0.5c-0.1-2.8-0.9-5.4-2.4-7.6s-3.6-3.9-6.3-5.1
		s-5.9-1.7-9.5-1.7c-3.2,0-6.2,0.5-8.9,1.6s-4.7,2.7-6.1,4.8c-1.4,2.1-2.1,4.4-2.1,6.8c0,2.2,0.6,4.2,1.7,6c1.1,1.8,2.8,3.3,5.1,4.5
		c1.8,0.9,4.9,1.9,9.3,3c4.4,1.1,7.3,1.8,8.6,2.4c2,0.8,3.5,1.7,4.3,2.8c0.9,1.1,1.3,2.5,1.3,4s-0.5,2.9-1.4,4.1
		c-0.9,1.3-2.3,2.3-4.2,3s-4,1.1-6.4,1.1c-2.7,0-5.2-0.5-7.4-1.4s-3.8-2.2-4.9-3.8c-1-1.5-1.7-3.5-2-5.9l-6,0.5
		c0.1,3.2,1,6.1,2.6,8.7c1.7,2.6,4,4.5,6.9,5.7c2.9,1.3,6.6,1.9,11,1.9c3.4,0,6.5-0.6,9.3-1.9s4.9-3,6.3-5.3
		c1.4-2.3,2.2-4.7,2.2-7.3c0-2.6-0.7-4.9-2-6.9C248.4,398.6,246.4,396.9,243.7,395.6z"/>
	<polygon class="st1" points="258.7,421 294.7,421 294.7,415.3 265.1,415.3 265.1,398.9 291.8,398.9 291.8,393.3 265.1,393.3 
		265.1,378.5 293.6,378.5 293.6,372.8 258.7,372.8 	"/>
	<path class="st1" d="M330.4,401.5c-0.9-0.8-2.2-1.6-3.8-2.4c4.6-0.6,8-2.1,10.3-4.5c2.2-2.3,3.3-5.2,3.3-8.7c0-2.7-0.7-5.1-2-7.3
		c-1.3-2.2-3.1-3.7-5.4-4.6c-2.2-0.9-5.5-1.3-9.8-1.3h-21.4v48.2h6.4v-21.4h7.4c1.6,0,2.8,0.1,3.6,0.2c1,0.2,2,0.7,2.9,1.3
		c0.9,0.6,2,1.7,3.2,3.2s2.7,3.8,4.6,6.6l6.4,10h8l-8.4-13.1C334,405.3,332.3,403.2,330.4,401.5z M321.7,394.1H308v-16h15.3
		c3.6,0,6.2,0.7,7.8,2.2c1.7,1.5,2.5,3.3,2.5,5.6c0,1.6-0.4,3-1.3,4.3s-2.1,2.3-3.8,2.9C326.9,393.8,324.6,394.1,321.7,394.1z"/>
	<polygon class="st1" points="379.8,392.6 354.7,392.6 354.7,372.8 348.3,372.8 348.3,421 354.7,421 354.7,398.3 379.8,398.3 
		379.8,421 386.2,421 386.2,372.8 379.8,372.8 	"/>
	<rect x="395.9" y="372.8" class="st1" width="6.4" height="48.2"/>
	<rect x="412.6" y="372.8" class="st1" width="6.4" height="48.2"/>
	<path class="st1" d="M358.7,60.6c0.4-0.4,0.4-1,0-1.4s-1-0.4-1.4,0l-76.2,76.2l1.4,1.4L358.7,60.6z"/>
	<path class="st1" d="M113.7,304.1c0.3,0.4,1,0.5,1.4,0.1c0.1-0.1,0.1-0.1,0.2-0.2l76.2-76.2l-1.5-1.3l-76.2,76.2
		C113.4,303.1,113.4,303.7,113.7,304.1z"/>
	<path class="st1" d="M231.2,65.5c2.6,1.4,5.9,2.1,9.9,2.1c4.2,0,7.5-0.8,10.1-2.4s4.3-3.7,5.3-6.2s1.5-6,1.5-10.3v-25h-5.7v24.9
		c0,5.4-0.9,9.1-2.7,11s-4.8,2.9-9,2.9c-2.5,0-4.5-0.5-6.2-1.4c-1.7-1-2.9-2.3-3.6-4.1s-1-4.5-1-8.3v-25h-5.7v24.9
		c0,4.6,0.5,8.2,1.6,10.8C226.8,62.1,228.7,64.1,231.2,65.5z"/>
	<polygon class="st1" points="404.1,153.2 396.4,153.2 375,174.6 375,153.2 369.3,153.2 369.3,196.3 375,196.3 375,181.4 382,174.5 
		397.4,196.3 404.9,196.3 386,170.7 	"/>
	<polygon class="st1" points="110.8,196.3 110.8,153.2 105.1,153.2 105.1,170.9 82.7,170.9 82.7,153.2 76.9,153.2 76.9,196.3 
		82.7,196.3 82.7,176 105.1,176 105.1,196.3 	"/>
	<path class="st1" d="M248.7,309.7c-1.7-0.8-4.9-1.7-9.6-2.8c-4.6-1-7.5-2.1-8.6-3.1s-1.7-2.3-1.7-3.8c0-1.8,0.8-3.3,2.4-4.6
		s4.1-1.9,7.5-1.9c3.3,0,5.8,0.7,7.5,2.1s2.7,3.5,3,6.2l5.5-0.4c-0.1-2.5-0.8-4.8-2.1-6.8s-3.2-3.5-5.6-4.5s-5.3-1.5-8.5-1.5
		c-2.9,0-5.5,0.5-7.9,1.5s-4.2,2.4-5.4,4.3s-1.9,3.9-1.9,6.1c0,2,0.5,3.8,1.5,5.4s2.5,2.9,4.6,4c1.6,0.8,4.4,1.7,8.3,2.7
		c4,1,6.5,1.7,7.7,2.1c1.8,0.7,3.1,1.5,3.9,2.5c0.8,1,1.2,2.2,1.2,3.5s-0.4,2.6-1.2,3.7s-2.1,2-3.7,2.7c-1.7,0.6-3.6,1-5.8,1
		c-2.5,0-4.7-0.4-6.6-1.3c-1.9-0.9-3.4-2-4.3-3.4c-0.9-1.4-1.5-3.2-1.8-5.3l-5.4,0.5c0.1,2.9,0.9,5.5,2.4,7.8s3.6,4,6.2,5.1
		c2.6,1.1,5.9,1.7,9.8,1.7c3.1,0,5.9-0.6,8.3-1.7c2.5-1.1,4.4-2.7,5.7-4.7s2-4.2,2-6.5s-0.6-4.4-1.8-6.1
		C253.1,312.3,251.2,310.9,248.7,309.7z"/>
	<polygon class="st1" points="235.9,161.4 236.1,161.3 236.3,161.4 236.3,161.2 236.4,161.1 236.3,161.1 236.3,161 236.1,161 
		236.1,160.8 235.9,160.6 235.7,160.5 235.6,160.3 235.4,160.1 235.4,161.5 235.8,161.4 	"/>
	<polygon class="st1" points="235.9,159.7 235.9,159.1 235.6,158.8 235.4,158.8 235.4,159.6 235.6,159.7 	"/>
	<polygon class="st1" points="236.8,161.2 237.1,161.4 237.1,159.5 236.9,159.6 236.9,160.3 236.8,160.6 236.8,160.7 236.7,160.7 
		236.7,160.8 236.8,161 	"/>
	<polygon class="st1" points="260.3,204.6 259.9,204.8 259.8,204.8 259.8,205.4 260.1,205.4 260.1,205.9 259.7,205.9 259.7,205.6 
		259.8,205.5 259.1,205.4 258.9,205.4 259.8,206.3 259.8,206.8 260.1,206.8 260.4,206.6 261.1,206.6 261.1,206.2 260.9,206.2 
		260.7,206 260.4,205.3 261,205.3 	"/>
	<polyline class="st1" points="247.9,161 247.9,160.7 247.6,160.7 247.4,161 	"/>
	<line class="st0" x1="228.9" y1="159.4" x2="229.1" y2="159.3"/>
	<path class="st1" d="M208.7,190.5h0.2c-0.1-0.2-0.1-0.4-0.2-0.5V190.5z"/>
	<polygon class="st1" points="196.1,180.8 196.1,180.9 196.4,181.2 196.4,181.2 196.4,180.8 196.4,180.7 196.4,180.6 	"/>
	<path class="st1" d="M259.1,204.1L259.1,204.1l-0.5-0.4v-0.5l0.2-0.3l-1.4-1.4c0.9-0.9,1.7-1.9,2.5-3h0.2v0.2l1-1.6v-0.2h0.2
		l0.8-1.4H262l-0.3-0.3v-0.9l0.3-0.3l0.2,0.3c1.7-3.6,2.6-7.5,2.7-11.4h5.3c0.3,0.7,1,1.1,1.7,1.1h11.4c1,0,1.9-0.9,1.9-1.9
		s-0.8-1.9-1.9-1.9l0.3-0.5h-11.4c-0.7,0-1.4,0.4-1.7,1.1h-5.3c-0.2-7.1-3-13.9-7.9-19l3.7-3.7h0.5c0.6,0,1.1-0.2,1.5-0.6l1.6-1.6
		l-0.2-0.3h0.8l0.4-0.4l0.2-0.3h0.1l2.9-2.9l-0.4-0.2h0.6l2.1-2.1c0.7-0.7,0.7-2,0-2.7s-2-0.7-2.7,0l-1.1,1.1h0.2v0.7h-0.3v-0.6
		l-1.6,1.6v1.8l-0.3-0.6l0.2-0.6h-0.2v-0.2l-5.1,5.1l-0.4,0.6h0.1v0.2h-0.1c-0.1,0.4-0.1,0.7,0,1.1l-1.4,1.4h-0.1l-2.2,2.2l-2.7-2.3
		h-0.2l-0.3-0.3V158c-4.6-3.3-10.1-5.1-15.8-5.3v-3.3h-0.2l-0.3-0.3v-0.9h0.1v-0.9c0.7-0.3,1.1-1,1.1-1.7v-11.3c0-1-0.8-1.9-1.9-1.9
		c-1,0-1.9,0.8-1.9,1.9v3.4v0.3h0.1v0.2h0.1v0.2h-0.1v7.2c0,0.7,0.4,1.4,1.1,1.7v3.5h0.1v0.2h-0.1v1.4h-0.4v0.8h-0.1l-0.3-0.3
		l-0.2-0.3h-0.7v-0.1h-1.1l-1.5,0.2v0.2h-0.4c-2.2,0.5-4.4,1.2-6.5,2.2h-0.1c-2.7,1.3-5.1,3-7.3,5.1l-3.7-3.7c0.3-0.7,0.1-1.5-0.4-2
		l-8.1-8.1c-0.7-0.7-2-0.7-2.7,0s-0.7,2,0,2.7l8.1,8.1c0.5,0.5,1.3,0.7,2,0.4l0.4,0.4v-0.2h0.3v-0.3h0.9v0.8h0.1v0.4h0.1v0.4h-0.3
		l2.3,2.3c-2,2.1-3.6,4.4-4.9,7l0.2,0.3l0.4,0.4l0.3,0.4l-0.3,0.4v0.3H211V169h-0.3c-1.7,3.6-2.7,7.6-2.8,11.6h-5.3
		c-0.3-0.7-1-1.1-1.7-1.1h-5.6l0.2,1H195l0.2-0.3V180l-0.3-0.3l0.2-0.3h-5.8c-1,0-1.9,0.9-1.9,1.9s0.8,1.9,1.9,1.9h0.8l0.2-0.3h0.6
		l0.3,0.3h5.1v-0.1l0.2,0.2l0.2,0.2h3.8c0.7,0,1.4-0.4,1.7-1.1h5.3c0,0.3,0,0.7,0.1,1h0.5l0.3,0.3v0.3l-0.6,0.4v1.2v0.3
		c0.2,1.4,0.5,2.7,0.9,4.1v-0.1h0.5v0.6h-0.3c1.3,4.1,3.5,7.9,6.5,11.1l-0.6,0.6v0.7h-0.3l-0.4-0.2l-2.5,2.5c-0.7-0.2-1.5,0-2,0.5
		h0.2l0.3,0.4v0.3h-0.3l-0.4-0.3V206l-7.7,7.7c-0.7,0.7-0.7,2,0,2.7s2,0.7,2.7,0l8-8v-0.3l-0.3,0.3h-2.8V208l0.4-0.5h1l0.6,0.3
		l1.3-0.5l0.4,0.3c0.2-0.4,0.2-0.9,0.1-1.4l3.7-3.7c5.1,4.9,11.9,7.7,19,7.9v5.3c-0.7,0.3-1.1,1-1.1,1.7v1.4h0.1l0.2,0.2h-0.3v-0.2
		h-0.2v0.2h0.2v7.7h0.2l0.3,0.3v0.5h-0.3V227h-0.1v0.9h0.2v0.3v0.7c0,1,0.8,1.9,1.9,1.9c1,0,1.9-0.8,1.9-1.9v-10.5h-1v0.4h0.2v0.3
		h-0.2l-0.3-0.2l-0.3-0.3v-0.8h-0.3l-0.2,0.3l-0.3-0.2l-0.3-0.3v-0.5l0.3-0.2l0.4,0.5h0.5l0.5,0.3h0.8v-1c-0.1-0.5-0.5-1-1-1.2v-0.3
		l-0.6,0.2l0.2-0.4v-0.8h0.4v-4c5.5-0.1,10.9-1.9,15.5-5h0.2l1.2-0.9v-0.2h0.3l1.3-1.1l0.2-0.9v0.3h0.4l0.2,0.2v0.2l1.1,1.1h0.8
		L259.1,204.1z M283.9,180.4h0.2v0.3v0.5l0.3,0.4l0.1,0.4l-0.3-0.3l-0.2-0.5v-0.5h-0.1V180.4z M281.6,180.2h0.3v0.2v0.2h-0.3V180.2z
		 M281.2,183v0.2h-0.1l-0.2-0.2H281.2z M279,180.2h0.2v0.3l-0.2-0.1V180.2z M262.2,181.1h0.2v0.3v0.5l0.3,0.4l0.1,0.4l-0.3-0.3
		l-0.2-0.5v-0.5h-0.1V181.1z M268.3,148.8v-0.4l0.2-0.3v0.5l0.2,0.2v0.3l-0.3,0.2h-0.3L268.3,148.8z M267.2,150.5l0.3,0.3h-0.3
		V150.5z M267.3,151.8v-0.3h0.2v0.4l-0.4,0.3L267.3,151.8z M267.1,153h0.3v0.2h-0.3V153z M266.6,153.8l-0.3,0.2l-0.2-0.2H266.6z
		 M237.2,135.9h0.2v0.3v0.5l0.3,0.4v0.4l-0.3-0.3l-0.2-0.5v-0.5h-0.1L237.2,135.9z M235.3,135.8v0.2H235v-0.4h0.3V135.8z
		 M209.4,154.4L209,154v-0.4l0.4,0.3V154.4z M188.3,182.8l-0.3-0.2h0.3V182.8z M190.9,182.1l-0.3,0.4v-0.7h0.3V182.1z M191.6,182.2
		v0.4l-0.3-0.4v-0.9l0.8,0.5l0.2,0.4H191.6z M192.1,180.9v0.3h-0.3l-0.3-0.3l-0.3-0.4l-0.1-0.4h1l0.2,0.2v0.4l0,0L192.1,180.9z
		 M193.7,181.7h-0.3v-0.3h0.3V181.7z M194.7,182.2h-0.3V182h0.4L194.7,182.2z M195.4,182.5v-0.2h0.3l0.2,0.2H195.4z M199.1,181.3
		v0.5h-0.3v0.3h-1v0.4h0.2v0.3h-0.2l-0.3-0.2l-0.3-0.3v-0.8h-0.3l-0.2,0.3l-0.3-0.2l-0.3-0.3v-0.4l-0.2-0.3h-0.1l0.1-0.4h0.4
		l0.2,0.5l0.3,0.4h0.5l0.5,0.3h0.8v-1l0.2-0.5l0.3,0.7L199.1,181.3L199.1,181.3z M208.7,211.1v0.3h-0.4v-0.5h0.5L208.7,211.1z
		 M236.8,229.3h0.3v0.2h-0.3V229.3z M257.7,194v-0.3h0.2v0.4l-0.4,0.3L257.7,194z M257.5,193v-0.3h0.1l0.2,0.3H257.5z M258.5,200
		h-0.3v-0.3h0.4L258.5,200z M258.3,198.6l0.2-0.3v-0.2l-0.3-0.3l0.2-0.4l0.2,1L258.3,198.6z M258.7,197l-0.5-0.3h-0.3v-0.3l0.3-0.3
		h0.4l0.5,0.5l0.3,0.8L258.7,197z M258.9,191.2v0.3l-0.3,0.2v-0.3h-0.1v-0.6l0.2-0.3v0.5L258.9,191.2z M258.8,194.6v0.3l-0.1,0.2
		h-0.1v-0.3L258.8,194.6z M261.5,186.5h-0.2v-0.2h0.2V186.5z M260.5,179L260.5,179l0.3-0.3h0.4l-0.2,0.4L260.5,179L260.5,179z
		 M260.3,196.1L260.3,196.1l0.2,0.2l0.1,0.2h-0.3L260.3,196.1L260.3,196.1z M260,176l0.3,0.4H260V176z M259.9,180.7h0.3v0.4h-0.3
		V180.7z M259.5,194.2l-0.5-0.3h0.7l0.2,0.7L259.5,194.2z M259.7,180.8h-19.3c-0.1-0.5-0.3-1-0.6-1.5l8.8-8.8h-0.5v0.3h-0.3
		l-0.2-0.2V170h0.2v-0.7h0.3v0.3l0.3,0.4l0.3,0.2l4.5-4.5C257.2,169.8,259.5,175.2,259.7,180.8z M257.5,180.9v0.4l-0.2-0.2v-0.2
		H257.5z M254.6,160.4l0.2-0.2h0.3l-0.2,0.3l-0.7-0.1H254.6z M253.4,161.1l0.2-0.5l0.3,0.7v0.7h-0.5V161.1z M252.4,160.6v-0.8h0.3
		l0.2,0.3h0.1l-0.2,0.7l-0.6,0.2L252.4,160.6z M251.4,159.7L251.4,159.7h0.2v0.2h0.1v0.2h-0.3V159.7z M250.9,162.1l-0.2-0.3h0.2
		V162.1z M250.7,157.5l0.2,0.7l-0.3-0.4l-0.5-0.3H250.7z M249.9,158.3l0.2-0.2v0.3l-0.2,0.3h-0.1L249.9,158.3z M249.6,159.7l0.5,0.5
		l0.3,0.8l-0.6-0.3l-0.5-0.3H249v-0.3l0.3-0.3L249.6,159.7z M249.1,157.8l-0.4,0.3l0.2-0.4v-0.3h0.2V157.8z M248.8,159.1v0.2h-0.1
		L248.8,159.1z M248.8,156.5l0.1,0.3h-0.3L248.8,156.5z M248.2,159.7l-0.3,0.2l-0.2-0.2H248.2z M246.9,156.3l0.1-0.2v1.4l-0.3-0.6
		L246.9,156.3z M237.4,153.6l0.2-0.5l0.3,0.7v0.7h-0.5V153.6z M237.4,154.6v0.2h-1v0.4h0.2v0.3h-0.3l-0.3-0.2l-0.3-0.3v-0.7h0.4
		l0.5,0.3H237.4z M236.7,151.2l-0.1,0.7l-0.6,0.2l0.2-0.4v-0.8h0.3L236.7,151.2z M235.6,133.7l0.3-0.3h0.4v0.3h-0.5l-0.2,0.7V133.7z
		 M234.9,154l0.3-0.2l0.3,0.4h-0.1l-0.2,0.3l-0.3-0.2l-0.3-0.3H234.9z M235.3,156.5l-0.5-0.2l-0.3-0.4v-0.2l0.2,0.3l0.3,0.2
		L235.3,156.5z M233.9,155.2h0.3l0.2,0.2v0.2h-0.6L233.9,155.2z M233.6,154.7v0.3h-0.3l-0.1-0.3H233.6z M232.2,154.1h0.3v0.3h-0.3
		V154.1z M230.2,154.7v-0.5l0.8,0.5H230.2l0.1,0.4l-0.3-0.4H230.2z M229.3,154.3l0.1,0.1h0.1v0.3l-0.2,0.3L229.3,154.3L229.3,154.3z
		 M226.9,155.2v0.2h-0.1l-0.2-0.2H226.9z M226.3,158.8h0.3l0.3,0.2h0.8v0.2h-1L226.3,158.8L226.3,158.8z M228.9,159.4V159h0.7
		l1.2-0.3l-0.3-0.9l0.2-0.9v-0.3h-0.1v-0.3h0.3v0.2h0.6v0.2h-0.3v0.3h0.4l0.2,0.2v0.3h-0.3l-0.3-0.2H231v0.6h0.1l1.6-0.3l-0.1,0.2
		h0.5v-0.2h-0.2h-0.1l0.6-0.1V157l0.3-0.6h1.1l0.3,0.3l0.2,0.7l0.5,0.5l0.5,0.3v-0.4l-0.3-0.3l-0.3-0.3v-0.5h0.5l0.5,0.3v-0.3
		l0.3-0.3h0.4v0.3h-0.1l0.4,0.3h0.1c3.9,0.2,7.7,1.4,11,3.5l0.9,0.6v0.1l-0.2,0.3l0.1,0.1v0.2l-0.2,0.3h0.5l-0.1-0.8l1.2,0.8l0,0
		l0.3,0.3h0.1V162l-0.1-0.5h-0.1l-0.1,0.3H251v-0.2l0.2-0.1l0.1-0.1l0.4,0.5h0.5l0.5,0.3h0.8v0.1h-1v0.4h0.2v0.3h-0.2l-0.3-0.2h-0.1
		l-0.6,0.6h-0.1l-11.3,11.3v0.5l0.3,0.4v0.4l-0.3-0.3l-0.2-0.5v-0.5l-1.4,1.4c-0.5-0.3-1-0.5-1.5-0.6v-13.8h-0.2h-0.1l-0.4,0.2h-0.5
		l-0.3,0.2v1.1h0.1v0.5h-0.1v13.8l-1,0.3l-0.4,0.2l-13.8-13.5C222.8,162.2,225.7,160.5,228.9,159.4z M239.4,181.7v0.2h-0.3v-0.2
		H239.4z M237.4,179.1v0.2l-0.3-0.2H237.4z M236.4,186.7V186l0.2-0.3v0.5l0.2,0.2v0.3l-0.3,0.2L236.4,186.7L236.4,186.7z
		 M236.3,166.3v-0.2h0.3v0.2H236.3z M236.1,170.3v0.3h-0.2v-0.3H236.1z M235.9,194.8h-0.3v-0.4L235.9,194.8z M235.6,186.4v-0.5h0.2
		v0.5H235.6z M235.6,185v-0.5l0.1-0.1l0.2,0.2v0.4L235.6,185L235.6,185z M235.6,183.5L235.6,183.5l0.1,0.6L235.6,183.5z
		 M216.6,164.5v-0.3h0.1L216.6,164.5l0.4,0.3h-0.6L216.6,164.5z M219.2,165.6l-0.1,0.2l13.7,13.7c-0.3,0.5-0.5,1-0.6,1.5h-13.9
		l-0.4,0.2l-0.3-0.2h-4.8c0-0.3,0-0.7,0.1-1l-0.9-0.4h0.9C213.4,174.4,215.6,169.4,219.2,165.6z M211.6,174.4l0.2-0.5v-0.8l0.4-0.6
		v0.9l0.4,0.4v0.5l-0.5,0.4h-0.5L211.6,174.4L211.6,174.4z M211.8,180.9l0.4-0.4v0.6l-0.4,0.5h-0.3L211.8,180.9z M212.1,182.9h-0.5
		v-0.3h0.2L212.1,182.9z M209.7,172.5l0.4-0.3l0.3,0.4v0.9l-0.4,0.3l-0.3-0.3l-0.3-0.4L209.7,172.5z M210.1,177.8l-0.3,0.3h-0.3
		v-0.5h0.3L210.1,177.8z M209.7,179.7v-0.6h0.3v1l-0.8,0.6L209.7,179.7z M209.4,182.1h0.4v0.3h-0.4V182.1z M209.8,184.7v-0.6
		l0.6-0.6h0.8l0.9,1l0.6,1.5l-1.2-0.6l-1-0.5L209.8,184.7z M211.1,191.5h-0.5v-0.6l0.5-0.3l0.3,0.3L211.1,191.5z M210.7,188.7
		l0.4-0.5l0.3-0.4l-0.5-0.6l0.4-0.8l0.4,2.1L210.7,188.7z M214.8,194.3l-1-0.4l-0.5-0.8v-0.5l-0.5-0.3h-0.3l-0.4-0.3v-0.4l0.3-0.3
		h0.4l0.4,0.4l0.3,0.6l0.4,0.5l0.6,0.4l0.5,0.5L214.8,194.3z M215.7,195.8l-0.3,0.3v-0.3h-0.1v-0.3l0.3-0.3v0.3h0.1V195.8z
		 M214.9,191.3l-0.1,0.2l-0.2,0.3l-0.5-0.4l-0.6-0.5l0.3-1l0.3-0.2l-0.5-1.6l-0.2-0.2v-0.3h0.1c-0.4-1.5-0.6-3.1-0.7-4.7h19.3
		c0.1,0.5,0.3,1,0.6,1.5L219,198.1C217.4,196.1,215.9,193.8,214.9,191.3z M220.6,203l-0.1,0.2l-0.3-0.3v-0.5l0.4-0.5L220.6,203
		L220.6,203z M223.1,206.5h-0.3l-0.3-0.5h0.6V206.5z M233.4,209.4h-0.2v-0.5h0.2V209.4z M233.2,206.5h0.1v0.6L233.2,206.5z
		 M234.6,210h-0.3v-1l0.2-0.3v0.5l0.2,0.2l0.2,0.4L234.6,210z M235.6,199.4v5.6c-5.7-0.2-11.1-2.4-15.3-6.3L234,185
		c0.5,0.3,1,0.5,1.5,0.6v2.7h0.1l-0.1,0.3V199h0.3v0.4H235.6z M235.6,216.6l0.2,0.6l-0.3-0.3l-0.2-0.3H235.6z M235.2,219.3h0.2
		l0.3,0.2l0.3,0.3h-0.1l-0.5-0.2L235.2,219.3z M235.4,224.3v-0.2v-0.3h0.4v0.5H235.4z M236.2,226.7v0.5h-0.3v-0.5H236.2z
		 M235.9,214.8v-0.4h0.1v0.2h0.1l0.1,0.2H235.9z M236.7,197.4h-0.5v-0.3l0.3-0.3h0.4L236.7,197.4z M237.2,205v-0.2h-0.1h-0.2v-0.2
		h0.3v-19c0.5-0.1,1-0.3,1.5-0.6l13.6,13.7C248.2,202.6,242.9,204.8,237.2,205z M251.9,200.4v0.2h-0.1l-0.2-0.2H251.9z M252.7,204.5
		h-1l-0.4-0.3h0.3l0.3,0.2h0.8L252.7,204.5L252.7,204.5z M254.6,199.8l-0.3,0.4v-0.7h0.3V199.8z M255.3,199.9v0.4l-0.3-0.4V199
		l0.8,0.5l0.1,0.4H255.3z M255.9,198.4l-0.2,0.2v0.3h-0.3l-0.3-0.3l-0.3-0.4l-0.1-0.4h1l0.2,0.2L255.9,198.4L255.9,198.4z
		 M253.4,197.6l-13.7-13.7c0.3-0.5,0.5-1,0.6-1.5h19.3c-0.1,2.3-0.5,4.5-1.2,6.7l-0.5,1.3v0.5h-0.3
		C256.6,193.4,255.2,195.6,253.4,197.6z M257,196l-0.1,0.3l-0.3,0.2l-0.3-0.2l0.2-0.3H257z M256.3,197h0.3v0.3H256L256.3,197z
		 M257.1,202.1h-0.8V202h-0.1v-0.3h0.3v0.2h0.6V202.1z M257.1,199.2h0.3v0.3h-0.3V199.2z M258,202.9h-0.5l0.1-0.2h0.4V202.9z"/>
	<polygon class="st1" points="212.2,158.1 212.6,158.4 212.2,158 	"/>
	<path class="st1" d="M261.4,207.1h-0.5l-0.3,0.2h-0.7c0,0.5,0.2,1,0.6,1.3h0.3l5.8,5.8h0.1v0.3h-0.1l1.8,1.8c0.7,0.7,2,0.7,2.7,0
		s0.7-2,0-2.7l-7.8-7.9v0.2h-0.1v-0.3c-0.3-0.3-0.8-0.5-1.2-0.5v0.8h-0.1v0.5h0.3v0.3h-0.3l0,0L261.4,207.1z M270.5,215.1l0.3-0.3
		l0.2,0.3l0.3,0.9l-0.5,0.3l-0.3-0.3V215.1z M268.7,216.1l-0.4-0.4l-0.5-0.3h0.7L268.7,216.1z M267.6,212.6v-0.4l0.2-0.3v0.5
		l0.2,0.2v0.3l-0.3,0.2h-0.4L267.6,212.6z M266.8,212.4h-0.2v-0.5h0.2V212.4z M266.5,209.5l0.1,0.6l-0.1-0.1V209.5z M264.5,207.5
		h0.3l-0.2,0.3h-0.1L264.5,207.5L264.5,207.5z"/>
	<path class="st1" d="M113.9,60.6l76.2,76.2l1.4-1.5l-76.2-76.1c-0.3-0.4-1-0.5-1.4-0.2c-0.4,0.3-0.5,1-0.2,1.4
		C113.8,60.5,113.9,60.6,113.9,60.6z"/>
	<path class="st1" d="M358.7,303.8c0.3-0.4,0.3-0.8,0-1.2l-76.2-76.2l-1.4,1.4l76.2,76.2C357.8,304.4,358.4,304.3,358.7,303.8z"/>
</g>
</svg>
