<svg id="Layer_1" data-name="Layer 1" xmlns="http://www.w3.org/2000/svg" viewBox="0 0 91.3 20.8"><defs><style>.cls-1{fill:none;stroke:#262424;stroke-miterlimit:10;}.cls-2{fill:#262424;}</style></defs><title>Artboard 2</title><rect class="cls-1" x="0.9" y="1.5" width="89.5" height="18.5"/><path class="cls-2" d="M7.9,6.5h2.8l-.5,3.1h2.6l.5-3.1h2.8l-1.5,8.4H11.8l.6-3.4H9.8l-.6,3.4H6.4Z"/><path class="cls-2" d="M45.2,6.5l-.9,5.2c-.2.9.2,1.3,1,1.3a1.3,1.3,0,0,0,1.4-1.3l.9-5.2h2.8l-.9,5.3c-.4,2.5-2.4,3.3-4.5,3.3s-3.8-.8-3.4-3.3l.9-5.3Z"/><path class="cls-2" d="M77.9,14.9H75.2l1.5-8.4h2.7L78.8,10h0l1.6-2,1.2-1.5h3.1l-3.6,3.9,2.4,4.5H80.2l-.7-1.5c-.2-.5-.7-1.6-.9-2.3h0Z"/></svg>