<svg id="Слой_1" data-name="Слой 1" xmlns="http://www.w3.org/2000/svg" viewBox="0 0 1245.1 343.1"><title>Безымянный-1</title><path d="M819.3,145.6q0-51.3,0-102.6V5.4H803.6c-.1,1.1-.1,2.5-.1,3.8,0,2.9,0,11.8,0,24.2,0,38.2.1,109.4-.1,154a209.4,209.4,0,0,1-2.8,31.6,101.5,101.5,0,0,1-24.2,51.6c-15.7,18-36.2,30.5-62.9,38.3a294.5,294.5,0,0,1-39.1,8.4c-14.6,2.1-29.3,3-43.6,3.9h-7.1c-13.1,0-37.6-.9-40.8-1.1l-5.5-.4c-17.1-1.2-34.7-2.5-52.1-6.1-23.7-4.9-41.4-10.7-57.3-18.8-39.5-20.1-59.9-52.2-60.5-95.4-.7-45.3-.6-91.3-.5-135.8,0-18.8.1-38.3,0-57.4V5.5H391q0,95,.1,189.9a134.6,134.6,0,0,0,9,49c9.7,25.3,27.8,45.6,55.4,61.9,15.8,9.4,30.6,15.2,45,17.8l17.4,3.2c10.3,1.9,20.9,4,31.4,5.7,3.4.5,50.7,4.1,54.4,4.1h8.6c41.7,0,75-4.2,104.7-13.2,21-6.3,38.2-14.8,52.8-25.7,30.4-22.9,46.6-54.3,49.4-96,.9-13,.7-26.4.5-39.4C819.4,157.4,819.3,151.5,819.3,145.6Z"/><path d="M490.7,215.8c2.5,13.4,10.7,23.5,24.9,30.9s31.3,11.3,54.5,12.2c14.2.6,28.7.6,42.7.6h21c19,0,34.5-2.4,48.7-7.4a57.5,57.5,0,0,0,30.6-24.4c7.7-12.3,8.8-26.5,8.8-38.7.2-46.3.1-93.4.1-138.9q0-22.4,0-44.7h-8.1l-8.8-.2q0,.1,0,.2c.2,43.3.1,87.8.1,127v10.9c0,18.7,0,38.1-.3,57.1-.2,13.8-6,24.7-16.4,30.6a79.5,79.5,0,0,1-25.9,9.7,249.3,249.3,0,0,1-39.1,3.1H601.6c-21.5,0-44.5-.8-67.4-6.8-14.9-3.9-24-11.6-27.7-23.6a78.2,78.2,0,0,1-3.2-22.7c-.2-44.7-.2-90.1-.1-134q0-25.3,0-50.5c0-.4,0-.8,0-1.2H487.5c-.1.6-.1,1.5-.1,2.9q0,22.8,0,45.5c0,43.7-.1,89,.2,133.4A157.3,157.3,0,0,0,490.7,215.8Z"/><path d="M1017.3,163.1l5.2-4.5,1.1-1a37.8,37.8,0,0,1,3.3-2.8l11-7.8c6.7-4.7,13.5-9.5,20.1-14.5l46.7-35.3,39.5-29.9L1186,36.2l40.7-30.5h-23.6a8.8,8.8,0,0,0-6,2.1c-7.4,5.8-15.1,11.6-22.5,17.2l-16.1,12.1-88.9,66.8c-14.2,10.7-29,21.6-45.3,33.6-6.7,4.9-13.6,9.7-20.2,14.4l-3.5,2.4c-2.5,1.7-3.9,5-3.9,8.9s2,8.6,5.1,10.7c12.4,8.4,25.3,17.8,39.3,28.9,20.9,16.5,42,33.4,62.4,49.8l26.1,21,12.3,9.9c21.9,17.5,44.5,35.6,66.8,53.3a6.3,6.3,0,0,0,3.3,1.1h23.8Z"/><polygon points="107.3 337.2 123 337.2 123 216 293.7 216 293.7 337.3 309 337.3 309 199.5 107.3 199.5 107.3 337.2"/><path d="M293.5,115.9H123V87.8q0-19.4,0-38.8V40.3c0-11.5,0-23.3-.1-34.9H107.3V132.7H309.1V5.6H293.5Z"/><path d="M1068.3,321.8,995.7,258l-4.9-4.4c-21.6-19.1-44-38.9-65.9-58.6-1-.9-3.8-1.9-7.2-1.9s-6.3,1-7.2,2a12.6,12.6,0,0,0-3.7,9.2c.1,31.5.1,63.5.1,94.5q0,19.2,0,38.4h16V216.8l9.3,7.8,8.3,6.9c5.6,4.6,10.9,9,16.1,13.5l71.6,62.2,5.4,4.7,5.9,5.1c5.6,4.8,11.3,9.7,16.7,15s8.2,5.9,13.4,5.9h1.8c3.3-.2,6.7-.3,10.9-.3h4.5l-5-4.2C1077.3,329.6,1072.7,325.7,1068.3,321.8Z"/><path d="M913.9,145.2a10.5,10.5,0,0,0,3.9.8,11,11,0,0,0,7.4-3.2l9.9-8.9c13.5-12.1,27.4-24.6,41.1-36.8s25.3-22.2,38.2-33.2l38.7-33,29.6-25.2h-9.4l-11.8-.2h-.4c-2.2,0-3.9.8-6.2,2.8-11.1,9.9-23.1,20.4-35.2,30.7L959.1,90.3l-21.8,18.4-3.2,2.6-2.4,1.9-9.2,7.5V6H906.9q0,19,0,37.9c0,29.8,0,60.7-.1,91C906.8,140.1,909,143.2,913.9,145.2Z"/><rect x="9.2" y="5.5" width="15.3" height="331.73"/></svg>