<svg id="Layer_1" data-name="Layer 1" xmlns="http://www.w3.org/2000/svg" viewBox="0 0 37.4 11.9"><defs><style>.cls-1{fill:#262424;}</style></defs><title>huk-logo-3</title><path class="cls-1" d="M7.8.4V4.6H4.2V.4H.5V11.5H4.2q0-2.2,0-4.5H7.8q0,2.2,0,4.5h3.8V.4Z"/><path class="cls-1" d="M32.8,5.6,36.7.4H32.6l-1.3,2L29.6,5.1V.4H25.9q0,5.6,0,11.2h3.6v-5c.4.9,1.3,2.4,1.7,3l1.2,2h4.5Z"/><path class="cls-1" d="M24,.4H20.3V8.1L18.7,9.6,17.1,8V.4H13.4V7.3a3.9,3.9,0,0,0,.8,2.6c1.3,1.6,3.6,1.6,4.6,1.6s3.2,0,4.4-1.5A4.3,4.3,0,0,0,24,7.3Z"/></svg>