<?xml version="1.0" encoding="utf-8"?>
<!-- Generator: Adobe Illustrator 20.1.0, SVG Export Plug-In . SVG Version: 6.00 Build 0)  -->
<svg version="1.1" id="Слой_1" xmlns="http://www.w3.org/2000/svg" xmlns:xlink="http://www.w3.org/1999/xlink" x="0px" y="0px"
	 viewBox="0 0 1259.2 354.2" style="enable-background:new 0 0 1259.2 354.2;" xml:space="preserve">
<g>
	<path d="M828.1,11.2c0-1.9,0-5.5,0-5.5c-0.5-0.2-1-0.4-1.5-0.6h-16c-9.5,0-9.5,0-9.7,9.4c0,11.6,0.2,118.9-0.1,178.3
		c-0.2,10.3-1.1,20.6-2.8,30.8c-2.8,18.1-10.7,35.1-22.9,48.8c-16.1,18.5-36.9,29.8-60.2,36.5c-12.6,3.6-25.4,6.4-38.4,8.3
		c-14.3,2.1-28.7,3-43.1,3.9c-8.8,0.6-43.8-0.6-47.2-0.9c-19-1.4-37.5-2.4-56.9-6.4c-19.4-4-38.2-9.3-55.9-18.3
		c-37.3-19-56.8-49.5-57.4-90.5c-1-64.4-0.4-128.7-0.5-193.1c0-2.1,0-4.2,0-6.5h-26.8c-0.2,1.8-0.4,3.4-0.3,4.9
		c0,63.5,0,127.1,0.1,190.6c0,17.4,3.1,34.7,9.4,51c11.1,28.8,31.7,49.3,57.8,64.7c14.5,8.5,30.7,15.5,46.9,18.5
		c16.2,3,32.5,6.3,48.8,9c2.7,0.5,51.1,4.1,55.3,4.2c38.9,0.4,77.4-2,114.9-13.4c19.7-6,38.2-14.2,54.6-26.6
		c33.4-25.1,48.9-59.7,51.6-100.1c1.3-19,0.3-38.1,0.3-57.2C828.1,104.4,828.1,57.8,828.1,11.2z"/>
	<path d="M484.9,192.8c0.2,9.9,1.2,19.8,3.2,29.6c3.1,16.3,13.5,27.4,27.9,34.9c17.8,9.3,36.2,12.1,56.9,12.9
		c20.7,0.8,41.3,0.4,62,0.6c17.9,0.1,35.5-1.7,52.5-7.8c13.9-4.8,25.8-14.2,33.5-26.8c8-12.9,9.7-27.2,9.7-41.7
		c0.3-61.3,0.1-122.7,0.1-184c0-1.6-0.2-3.2-0.3-5.4c-7.8,0-15,0.4-22.4,0c-4.8-0.3-5.8,1.4-5.8,5.9c0.1,42.3,0.2,84.7,0.1,127
		c0,22.7,0.1,45.3-0.3,68c-0.1,10.7-4.1,20.4-13.5,25.8c-7.4,4.4-15.5,7.4-24,9c-12.6,2-25.4,3-38.2,3c-29.4,0.3-58.9,1.1-87.8-6.4
		c-11.1-2.9-20.2-8.5-23.7-19.8c-2-6.9-3-14-2.9-21.1c-0.2-61.5-0.1-123-0.1-184.5c0-2.2-0.2-4.5-0.4-6.9h-18.1
		c-7.6,0-8.6,1-8.6,8.7C484.8,73.5,484.6,133.1,484.9,192.8z"/>
	<path d="M1029.3,168.4c1.3-1.1,2.5-2.4,4-3.4c10.4-7.4,21-14.6,31.2-22.3c28.9-21.7,58-44,86.3-65.3s56.7-42.4,85-63.7
		c2.5-1.8,4.4-4.5,6.5-6.8l-0.9-1.4h-4.8c-10,0-20,0.2-30-0.1c-3.6-0.2-7.2,1-10,3.4c-8.5,6.6-17.2,13.1-25.8,19.6l-101.5,76.5
		c-15.1,11.2-30.2,22.4-45.3,33.5c-7.8,5.7-14.5,10.4-23.6,16.7s-8.1,22.5,1.3,28.9c13.4,9,26.3,18.6,39,28.6
		c29.6,23.4,59,47.1,88.5,70.7c26.3,21.2,52.6,42.3,79.1,63.2c1.9,1.4,4.3,2.2,6.7,2.3c10.7,0.3,21.3,0.1,32,0.1
		c1.6,0,3.1-0.3,4.7-0.4l0.9-1.7L1029.3,168.4z"/>
	<polygon points="104.6,348.4 131.7,348.4 131.7,227.2 291.1,227.2 291.1,348.5 317.7,348.5 317.7,199.4 104.6,199.4 	"/>
	<path d="M290.8,115.9H131.7c0-2.2,0-4,0-5.8c0-18.5,0-37,0-55.5c0-15,0.1-30-0.1-45c-0.1-1.5-1.6-4.2-2.5-4.2
		c-8.1-0.3-16.2-0.2-24.5-0.2v138.7h213.2V5.5h-27V115.9z"/>
	<path d="M1075.1,323.1l-72.5-63.8c-23.7-20.9-47.4-41.8-70.8-62.9c-5-4.5-17.9-4.6-22.5,0.6c-3.4,3.5-5.2,8.2-5.1,13
		c0.1,44.5,0.1,89,0.1,133.5c0,1.6,0.2,3.2,0.3,5.1h27v-114c8.8,7.4,16.7,13.8,24.3,20.4l76.9,66.8c7.5,6.5,16.7,14.3,22.3,19.8
		c5.6,5.5,10.7,8,19.6,7.4c8.9-0.6,17.9-0.1,26.8-0.1l0.8-1.5c-1.1-1.5-2.4-3-3.7-4.3C1090.8,336.4,1082.8,329.9,1075.1,323.1z"/>
	<path d="M914.9,155.9c6,2.4,12,1.2,17.1-3.4c17-15.2,33.9-30.5,51-45.6c12.6-11.2,25.3-22.3,38.1-33.2l73-62.2
		c1.5-1.3,2.6-3.1,4.6-5.6l-5.9-0.3c-9.3,0-18.7,0.3-28-0.1c-4.4-0.2-7.5,1.4-10.6,4.2c-11.6,10.3-23.3,20.6-35.1,30.6
		c-27.5,23.2-54.9,46.4-82.4,69.6l-5.4,4.4V5.9h-26.6c-0.1,1.7-0.3,3-0.3,4.3c0,43.4,0,86.9-0.1,130.3
		C904.2,148.4,908.9,153.5,914.9,155.9z"/>
	<rect x="6.6" y="5.4" width="26.6" height="343.1"/>
</g>
</svg>
