<?xml version="1.0" encoding="utf-8"?>
<!-- Generator: Adobe Illustrator 20.1.0, SVG Export Plug-In . SVG Version: 6.00 Build 0)  -->
<svg version="1.1" id="Слой_1" xmlns="http://www.w3.org/2000/svg" xmlns:xlink="http://www.w3.org/1999/xlink" x="0px" y="0px"
	 viewBox="0 0 2518 2518" style="enable-background:new 0 0 2518 2518;" xml:space="preserve">
<g>
	<path d="M2462,2261.7c-46.7-13.3-95.2-27.6-136.1-52.8c-69.3-42.7-91-115.7-91.7-192.4c-2.8-307.1-3.3-614.3-4.4-921.4
		c-0.7-193.1-3-386.3-1-579.4c1.2-115.8,49.3-204.2,165.8-243.5c23.8-8,47.6-16.4,72-22.1c24-5.6,37.1-20.4,29-42.1
		c-4.1-11-24-22.7-36.8-22.8c-148.1-1.3-296.2-0.4-444.4-0.3c-130.9,0.1-261.9-0.8-392.8,0.9c-12.4,0.2-30,12.6-35.6,24
		c-9.8,19.7,0.2,35,23.5,40.1c11.5,2.5,22.6,7.7,33.4,12.6c98.5,44.3,174.1,109.5,178,225.6c6.3,186.4,7.2,373,11.2,559.4
		c0.8,36.2-20.4,40.3-48.8,40.3c-172.1-0.4-344.2-0.2-516.3-0.2v0.5c-168.2,0-336.3,0.1-504.5,0c-65.4,0-65.6-1-65-66.5
		c0.1-6.7,1.7-150.8,2.4-439.4c0.1-18.6,0-48.1-0.9-84.8c0,0,0,0,0-0.1c4.3-50.4,6.5-75.6,17-99.4
		c36.4-82.7,130.6-123.1,156.8-134.9c10.8-4.9,21.9-10,33.4-12.6c23.2-5.2,33.3-20.4,23.5-40.1c-5.7-11.4-23.3-23.8-35.6-24
		c-130.9-1.6-261.9-0.8-392.8-0.9c-148.1-0.1-296.3-1.1-444.4,0.3c-12.8,0.1-32.8,11.8-36.8,22.8c-8,21.7,5.1,36.5,29,42.1
		c24.4,5.7,48.2,14.1,72,22.1c51.5,17.4,92.7,52.2,111.7,73.3c49.5,54.8,59.1,122.4,60.8,158c3.7,149.9,4.8,299.8,5.4,449.7
		c0.7,177-0.2,354.1-1.6,531.2c-1.4,170.1-3.1,340.2-6.7,510.3c-0.5,9.9-1.5,21.2-3.5,33.9c-4.8,29.6-21.6,134.4-95,179.7
		c-40.1,24.8-127,50.2-136.1,52.8c-28.9,8.2-44.6,23.3-36.2,49c3.7,11.3,29.8,21.7,45.8,21.7c297.9,1.3,595.8,1.4,893.7,0.2
		c14.5-0.1,38.2-11.1,41.7-22.1c8.1-25.4-13.4-30.3-35.2-34.6c-41.5-8.2-136.5-47-186.4-99.8c-36.9-38.9-55.3-89.8-65.6-126.2
		c0.1,0,0.1,0,0.2,0c-11.6-37.5-17.8-78.9-17.9-124.1c-0.4-144.3,3.7-288.7-0.9-432.8c-2-63.8,27.6-99.1,76.5-126.5
		c20.7-11.6,42.6-21.9,65.2-28.8c279.9-85.3,560.9-85.4,841-4c44.2,12.8,85.5,41.4,122.8,69.7c16.9,12.8,23.5,42,29.8,65.1
		c5,18.4,2.2,38.9,2.9,58.4c19.5-2.8,39-5.6,58.5-8.4c1.3-0.2,2.6-0.3,3.9-0.5c75.5-9.5,159.8,36.8,193.7,106.2
		c28,57.5,10.9,147.8-43.8,197c-33.8,30.5-74.9,52.9-112.9,78.6c-42.5,28.7-97.3,43.2-109.2,105.4
		c-27.3,142.3-128.2,242.6-271.6,270.8c-21.8,4.3-43.3,9.2-35.2,34.6c3.5,11,27.1,22,41.7,22.1c297.9,1.2,595.8,1.2,893.7-0.2
		c16-0.1,42.1-10.4,45.8-21.7C2506.6,2285,2490.9,2269.9,2462,2261.7z"/>
	<path d="M1712.5,1544.1c25.1-8.2,33.2-23.7,5.7-40.8c-31.3-19.4-61.5-42.1-95.3-55.8c-100.6-40.8-207.1-54.4-314.7-57.6
		c-145.2-4.3-289,5.3-424.9,62c-36.5,15.2-68.7,40.5-107,63.6c12.4,13.5,14.5,17.5,17.7,18.9c18.2,7.9,36.1,16.7,55,22.4
		c237.1,71.5,477.3,72.6,718.8,29C1617,1577,1664.8,1559.7,1712.5,1544.1z"/>
	<path d="M2000.1,1734.4c9.5-23.4,9.9-58.6-1.3-80.6c-21.6-42.3-67.9-45.9-107.9-34.2c-22.8,6.6-54.5,30.9-56.9,50.4
		c-7.4,60.5-2.7,122.4-2.7,194.4c41.7-24.7,78.5-43.1,111.3-67.1C1965.4,1780.6,1990,1759.2,2000.1,1734.4z"/>
</g>
</svg>
