<?xml version="1.0" standalone="no"?>
<!DOCTYPE svg PUBLIC "-//W3C//DTD SVG 20010904//EN"
 "http://www.w3.org/TR/2001/REC-SVG-20010904/DTD/svg10.dtd">
<svg version="1.0" xmlns="http://www.w3.org/2000/svg"
 width="2518.000000pt" height="2518.000000pt" viewBox="0 0 2518.000000 2518.000000"
 preserveAspectRatio="xMidYMid meet">
<metadata>
Created by potrace 1.11, written by Peter Selinger 2001-2013
</metadata>
<g transform="translate(0.000000,2518.000000) scale(0.100000,-0.100000)"
fill="#000000" stroke="none">
<path d="M150 16020 c-4 -3 -7 -1546 -6 -3430 l1 -3425 263 -1 c232 0 262 1
263 15 4 62 3 6824 -1 6834 -4 9 -69 12 -258 12 -140 0 -257 -2 -262 -5z"/>
<path d="M2101 14640 l-1 -1386 2128 1 c1170 1 2129 3 2132 4 3 0 5 622 5
1381 l0 1380 -55 1 c-30 0 -89 0 -130 -1 -90 0 -310 0 -319 2 -39 5 -38 58
-38 -1099 -1 -604 -2 -1101 -2 -1104 -1 -3 -715 -5 -1588 -5 l-1588 1 0 977
c0 579 -4 974 -9 970 -5 -3 -6 0 -1 7 9 16 10 133 1 181 -4 19 -16 44 -26 55
-19 18 -36 19 -264 20 l-245 2 0 -1387z"/>
<path d="M7791 16019 c-16 -7 -17 -116 -15 -2045 1 -1122 5 -2061 8 -2089 3
-27 8 -72 11 -100 3 -27 7 -61 10 -75 3 -14 7 -43 10 -65 2 -22 8 -53 13 -70
4 -16 8 -37 7 -45 -1 -8 3 -21 8 -27 5 -7 7 -13 3 -13 -3 0 -1 -12 5 -26 5
-15 12 -42 15 -61 15 -97 122 -381 199 -531 63 -122 150 -267 175 -292 3 -3
25 -32 50 -65 66 -88 66 -88 192 -219 65 -67 144 -142 175 -168 32 -25 68 -54
80 -65 12 -10 34 -27 49 -38 15 -11 32 -25 38 -30 51 -49 382 -248 526 -317
100 -49 213 -100 225 -104 6 -1 62 -21 125 -44 63 -23 126 -43 140 -46 14 -3
39 -9 56 -15 17 -5 42 -12 55 -15 70 -15 177 -36 194 -39 48 -8 91 -16 108
-21 17 -5 27 -7 104 -18 18 -2 40 -7 50 -10 10 -3 34 -8 53 -11 19 -3 84 -15
144 -26 60 -12 119 -23 130 -24 12 -2 48 -8 81 -15 33 -6 74 -13 90 -15 17 -3
41 -7 55 -10 14 -3 36 -7 50 -9 30 -6 223 -24 335 -32 146 -10 169 -12 250
-19 44 -4 112 -8 150 -11 39 -2 104 -6 145 -9 41 -3 109 -8 150 -10 92 -6 530
-6 660 -1 144 6 320 16 370 20 25 3 79 7 120 11 41 3 91 7 110 10 94 10 155
17 169 20 9 2 45 6 81 10 36 3 72 8 80 10 8 2 31 7 50 10 19 3 58 10 85 15 28
5 67 12 87 14 21 3 57 10 80 15 24 6 54 12 68 15 31 6 47 10 135 31 39 9 77
18 85 20 8 2 27 8 41 13 15 6 30 8 33 5 3 -3 11 -1 18 5 7 5 31 13 53 17 22 4
46 12 53 18 6 5 12 6 12 3 0 -4 9 -2 21 4 11 7 32 14 46 16 21 4 254 88 323
117 14 6 27 11 30 12 45 15 351 165 360 176 3 3 21 14 40 24 33 17 199 123
210 135 3 3 50 39 105 80 114 86 333 299 422 410 69 87 183 254 183 270 0 5 4
10 8 10 14 0 157 296 201 415 38 103 85 259 95 315 2 14 12 57 21 95 9 39 18
79 20 90 1 11 6 47 10 80 8 63 13 90 15 90 1 0 3 23 5 50 2 28 7 86 11 130 4
44 7 973 8 2064 1 1619 -1 1987 -12 1998 -10 10 -64 12 -236 11 -123 -1 -233
-5 -244 -9 -29 -11 -45 -45 -49 -104 -5 -91 -5 -534 1 -544 4 -5 2 -12 -4 -16
-6 -4 -8 -10 -5 -14 9 -16 1 -3223 -9 -3306 -2 -22 -7 -71 -10 -110 -8 -90
-41 -310 -59 -390 -23 -101 -75 -264 -91 -284 -6 -8 -10 -17 -10 -20 5 -21
-92 -211 -161 -318 -180 -278 -469 -544 -763 -705 -114 -62 -277 -140 -303
-145 -8 -1 -29 -9 -45 -18 -16 -8 -36 -15 -45 -15 -8 0 -19 -4 -25 -9 -5 -4
-56 -23 -114 -40 -58 -17 -119 -36 -137 -42 -18 -5 -40 -12 -50 -14 -10 -1
-45 -10 -78 -18 -33 -9 -71 -18 -85 -21 -14 -2 -32 -7 -40 -10 -8 -3 -26 -7
-40 -10 -14 -2 -59 -11 -100 -19 -91 -19 -124 -26 -170 -33 -55 -8 -83 -13
-110 -19 -14 -3 -47 -7 -75 -10 -27 -2 -63 -7 -80 -10 -16 -4 -50 -8 -75 -10
-25 -2 -76 -7 -115 -11 -38 -4 -87 -8 -107 -8 -21 -1 -38 -3 -38 -6 0 -3 -28
-6 -63 -6 -34 -1 -107 -5 -162 -10 -175 -16 -937 -9 -1190 11 -27 2 -88 6
-135 10 -121 8 -198 14 -250 19 -142 13 -187 17 -205 21 -11 2 -50 7 -87 10
-37 3 -77 8 -90 10 -13 2 -68 11 -123 19 -101 16 -134 22 -170 31 -11 2 -63
14 -115 26 -158 35 -188 42 -250 59 -25 7 -52 14 -60 15 -96 21 -378 120 -520
182 -96 42 -333 162 -365 185 -5 4 -48 33 -95 64 -121 81 -211 154 -325 269
-93 92 -245 282 -245 304 0 5 -3 11 -7 13 -32 14 -179 341 -214 473 -4 17 -14
55 -22 85 -8 30 -18 73 -21 95 -4 22 -9 54 -12 70 -3 17 -7 48 -10 70 -2 22
-6 60 -9 85 -3 25 -7 200 -9 388 -3 189 -7 346 -10 349 -3 3 -1 14 4 24 6 10
7 20 3 22 -10 6 -8 110 1 126 4 6 3 11 -1 11 -5 0 -8 729 -8 1621 0 976 -4
1623 -9 1627 -13 8 -493 8 -515 1z"/>
<path d="M9762 16016 c-40 -14 -54 -35 -59 -90 -2 -23 -4 -486 -4 -1031 0
-544 0 -1136 0 -1315 0 -179 0 -335 0 -347 0 -13 3 -276 5 -585 3 -310 7 -581
9 -603 12 -106 30 -230 49 -325 11 -58 21 -109 22 -115 4 -23 42 -116 69 -170
77 -151 235 -313 392 -402 85 -49 193 -102 255 -126 36 -13 74 -28 85 -32 11
-5 22 -9 25 -10 3 -1 12 -4 20 -7 8 -4 26 -9 40 -13 14 -3 50 -13 80 -21 30
-9 66 -18 80 -20 14 -3 57 -11 95 -19 85 -17 137 -25 190 -30 22 -2 67 -7 100
-10 189 -18 572 -27 1190 -26 603 0 745 8 965 53 30 6 62 12 70 13 28 4 195
47 205 53 6 4 15 7 20 8 24 4 139 46 189 69 30 14 60 25 65 25 6 0 11 4 11 9
0 5 9 13 20 16 27 9 166 101 209 140 69 61 191 190 191 201 0 3 13 22 29 42
100 127 197 390 216 589 3 26 8 59 11 73 7 27 13 3988 7 4006 -3 7 -85 10
-264 10 l-261 -1 -19 -24 c-10 -13 -19 -35 -20 -50 0 -14 -1 -921 -3 -2016 -2
-1094 -6 -2006 -10 -2025 -5 -31 -19 -82 -33 -130 -2 -8 -5 -17 -5 -20 -2 -12
-59 -111 -75 -130 -23 -28 -65 -70 -92 -92 -72 -60 -324 -176 -421 -194 -14
-3 -41 -9 -60 -14 -19 -5 -52 -12 -72 -15 -21 -3 -55 -7 -75 -10 -21 -3 -49
-7 -63 -10 -14 -2 -56 -7 -95 -10 -38 -4 -88 -8 -110 -10 -22 -3 -89 -7 -148
-9 -59 -3 -112 -8 -117 -11 -6 -3 -10 -1 -10 5 0 6 -5 8 -12 3 -17 -10 -864
-12 -900 -2 -17 5 -28 4 -28 -2 0 -6 -4 -8 -9 -5 -4 3 -48 8 -97 11 -105 7
-180 13 -249 20 -27 2 -73 7 -101 10 -49 4 -76 8 -133 20 -14 2 -45 7 -70 10
-25 3 -57 8 -71 11 -14 3 -34 7 -45 9 -20 4 -29 6 -90 20 -55 13 -170 46 -192
55 -61 26 -82 37 -133 68 -119 73 -198 182 -236 322 -21 75 -24 90 -29 130 -2
19 -7 46 -10 60 -9 32 -17 447 -12 578 1 39 -2 72 -7 72 -5 0 -4 6 1 13 5 6 8
30 6 52 -2 22 -3 46 -3 53 0 6 0 28 0 47 0 43 1 76 1 115 0 17 0 41 -1 55 0
14 0 41 0 60 0 19 0 45 0 58 0 12 1 41 2 65 2 23 -1 42 -5 42 -5 0 -5 5 -1 11
10 16 11 69 2 97 -5 13 -5 21 0 19 4 -3 7 17 7 44 0 27 -3 49 -7 49 -4 0 -4
10 0 23 9 25 8 67 -1 91 -4 9 -3 16 1 16 8 0 6 86 -3 108 -2 6 0 12 5 12 5 0
5 13 0 30 -5 17 -6 30 -2 30 8 0 6 134 -2 156 -3 8 -1 14 4 14 5 0 5 13 0 30
-5 17 -6 30 -2 30 8 0 6 145 -2 166 -3 8 -1 14 4 14 5 0 5 13 0 30 -5 17 -5
30 0 30 5 0 5 13 0 30 -5 17 -5 30 0 30 5 0 5 13 0 30 -5 17 -5 30 0 30 5 0 5
13 0 30 -5 17 -5 30 0 30 5 0 5 13 0 30 -5 17 -5 30 0 30 5 0 5 13 0 30 -5 17
-5 30 0 30 5 0 5 13 0 30 -5 17 -5 30 0 30 5 0 5 13 0 30 -5 17 -5 30 0 30 5
0 5 13 0 30 -5 17 -5 30 0 30 5 0 5 13 0 30 -5 17 -5 30 0 30 5 0 5 13 0 30
-5 17 -5 30 0 30 5 0 5 13 0 30 -5 17 -6 30 -2 30 4 0 7 14 7 30 0 17 -3 30
-7 30 -4 0 -3 11 2 25 5 14 5 27 0 30 -5 3 -5 18 0 35 5 18 5 30 0 30 -6 0 -6
10 0 25 6 15 6 27 0 30 -6 3 -6 15 0 30 6 15 6 27 0 30 -6 3 -6 15 0 30 6 15
6 27 0 30 -6 4 -7 13 -1 23 6 11 6 24 0 34 -6 10 -6 19 0 23 7 3 7 15 1 30 -6
15 -6 27 0 30 6 3 6 15 0 30 -6 15 -6 27 0 30 6 3 6 15 0 30 -6 15 -6 25 0 25
5 0 5 12 0 30 -5 17 -5 30 0 30 5 0 5 13 0 30 -5 17 -6 30 -2 30 4 0 7 25 7
55 0 30 -2 55 -5 55 -3 0 -5 16 -5 35 0 19 3 35 7 35 4 0 3 14 -2 30 -5 17 -5
30 -2 30 4 0 6 19 4 43 -2 23 -5 62 -6 87 -2 25 -4 48 -5 52 -2 12 -432 6
-469 -6z"/>
<path d="M24075 16018 c-63 -9 -98 -27 -188 -95 -41 -32 -88 -67 -103 -78 -15
-11 -45 -35 -67 -52 -21 -18 -52 -41 -68 -50 -16 -10 -29 -21 -29 -25 0 -4 -5
-8 -11 -8 -6 0 -18 -7 -27 -17 -9 -9 -77 -62 -152 -117 -74 -56 -136 -104
-138 -108 -2 -5 -10 -8 -17 -8 -7 0 -15 -4 -17 -9 -1 -5 -41 -37 -87 -71 -47
-35 -89 -67 -95 -72 -11 -9 -387 -293 -516 -389 -36 -26 -70 -53 -77 -59 -7
-5 -15 -10 -18 -10 -3 0 -13 -8 -23 -17 -10 -10 -29 -26 -42 -36 -14 -9 -79
-58 -145 -108 -66 -50 -138 -104 -160 -120 -22 -16 -51 -38 -65 -49 -14 -11
-106 -80 -205 -154 -99 -75 -184 -139 -190 -144 -5 -4 -127 -95 -270 -201
-143 -107 -279 -208 -302 -225 -23 -17 -54 -40 -69 -51 -15 -11 -40 -30 -55
-42 -15 -13 -31 -23 -37 -23 -6 0 -12 -4 -14 -8 -1 -5 -50 -43 -108 -85 -58
-42 -118 -86 -133 -98 -24 -19 -119 -90 -192 -143 -64 -47 -170 -122 -184
-131 -9 -5 -32 -22 -51 -36 -19 -14 -73 -52 -119 -83 -131 -90 -151 -110 -189
-186 -23 -48 -26 -66 -26 -150 0 -85 4 -102 32 -164 19 -41 50 -85 77 -111 25
-24 45 -42 45 -39 0 2 35 -21 78 -51 42 -31 86 -61 96 -68 10 -6 31 -22 46
-34 15 -13 31 -23 34 -23 6 0 36 -23 61 -47 8 -7 16 -13 19 -13 8 0 250 -182
258 -194 4 -6 8 -7 8 -2 0 6 6 3 13 -6 6 -9 64 -55 127 -104 133 -102 126 -97
165 -130 17 -14 49 -39 73 -56 23 -17 42 -35 42 -40 0 -4 6 -8 14 -8 8 0 16
-4 18 -8 2 -5 26 -26 53 -46 28 -21 64 -50 80 -65 17 -14 48 -40 70 -56 22
-17 42 -32 45 -35 3 -3 21 -17 40 -31 19 -15 45 -35 57 -46 12 -11 34 -28 48
-39 15 -10 32 -24 39 -29 6 -6 33 -28 61 -50 27 -22 55 -44 61 -50 6 -5 23
-19 38 -30 16 -11 33 -24 40 -30 6 -5 45 -37 86 -69 41 -33 77 -62 80 -65 3
-4 25 -22 50 -41 25 -19 52 -40 60 -47 8 -6 69 -55 135 -108 66 -53 135 -109
154 -123 19 -15 39 -31 45 -37 6 -5 27 -22 46 -36 19 -15 45 -35 57 -46 12
-11 34 -28 48 -39 15 -10 33 -25 41 -32 7 -7 35 -29 61 -49 26 -20 54 -43 61
-50 8 -7 30 -26 50 -41 21 -15 39 -29 42 -32 3 -3 28 -23 55 -44 28 -22 58
-48 68 -58 10 -10 21 -18 25 -18 4 0 21 -12 37 -28 17 -15 98 -80 180 -146 83
-65 155 -125 161 -132 6 -8 15 -14 19 -14 4 0 17 -9 29 -20 11 -11 104 -86
206 -166 219 -174 212 -168 365 -290 66 -53 130 -104 143 -115 12 -10 25 -19
28 -19 2 0 16 -10 28 -23 61 -57 115 -91 168 -103 42 -9 678 -12 737 -3 23 3
47 12 52 20 9 15 1 23 -71 79 -25 19 -51 40 -58 48 -8 7 -30 25 -50 40 -20 15
-46 34 -57 44 -64 53 -156 126 -185 148 -37 27 -92 72 -100 80 -8 8 -92 75
-146 116 -27 21 -62 50 -79 66 -16 15 -38 31 -47 34 -10 3 -18 9 -18 13 0 5
-17 20 -37 34 -21 14 -50 36 -64 49 -15 13 -41 34 -59 48 -41 31 -291 230
-307 245 -6 5 -26 21 -44 35 -18 14 -37 30 -44 35 -6 6 -31 26 -55 45 -25 19
-52 40 -60 47 -8 7 -213 170 -455 363 -242 193 -456 365 -477 382 -20 16 -47
38 -60 48 -36 29 -951 759 -968 773 -8 7 -62 50 -120 95 -58 46 -120 97 -138
113 -18 16 -35 29 -38 29 -4 0 -75 57 -181 145 -7 5 -18 15 -25 20 -213 167
-508 407 -508 413 1 10 136 112 149 112 6 0 11 5 11 10 0 6 6 10 14 10 8 0 16
7 20 15 3 8 12 15 20 15 8 0 16 4 18 8 2 4 41 34 88 67 47 33 87 63 88 67 2 4
8 8 13 8 5 0 44 26 87 57 100 74 382 285 402 300 8 7 42 32 75 57 33 25 65 49
70 53 6 5 55 42 110 83 55 41 102 77 105 80 3 3 30 23 60 45 30 22 57 42 60
45 3 4 40 32 82 63 43 31 86 64 95 72 10 8 41 32 69 52 28 21 123 92 210 158
88 67 235 178 327 248 93 70 174 132 180 137 7 6 41 32 77 58 36 25 67 49 70
52 3 3 30 23 60 45 30 22 57 42 60 45 3 3 21 17 40 30 19 13 37 27 40 30 3 3
66 50 140 105 74 55 140 104 146 110 6 5 45 35 87 65 43 30 77 58 77 62 0 4 5
8 11 8 6 0 16 6 23 13 16 14 301 227 325 242 9 6 18 13 21 16 3 3 118 90 255
192 138 102 255 190 260 194 6 5 28 22 50 38 37 28 73 63 133 129 19 21 21 29
12 46 -6 11 -15 18 -19 15 -9 -5 -473 -7 -612 -2 -42 1 -98 -1 -124 -5z"/>
<path d="M18137 16012 c-22 -2 -41 -9 -44 -18 -9 -24 -9 -2694 0 -2739 4 -22
10 -47 14 -55 3 -8 7 -17 7 -20 1 -3 10 -18 21 -35 31 -48 83 -92 144 -122 47
-23 69 -27 136 -28 68 0 88 4 135 28 55 28 70 40 214 170 43 40 88 80 100 90
12 10 54 49 95 85 41 37 82 74 92 83 9 8 50 45 91 81 40 37 82 75 94 85 12 10
52 45 89 78 37 33 77 69 90 80 12 11 53 48 91 82 38 34 94 83 124 110 30 26
65 58 78 71 12 12 26 22 29 22 3 0 15 10 27 23 11 13 52 50 91 83 38 32 76 66
85 74 9 8 44 40 79 70 35 30 69 60 75 65 6 6 58 51 116 100 58 50 118 102 135
116 16 15 68 59 115 99 47 40 99 84 116 99 17 15 55 47 84 72 29 24 63 53 75
64 13 11 44 38 71 60 47 40 162 137 259 221 28 23 60 51 72 61 12 10 32 27 45
38 12 11 52 44 88 75 36 30 70 59 76 65 12 11 65 56 184 156 41 35 80 68 86
74 7 5 36 30 65 55 29 25 63 54 75 65 13 11 42 36 65 55 64 54 72 62 113 113
25 30 33 48 25 48 -8 1 -177 3 -377 4 -429 2 -399 9 -557 -130 -55 -48 -126
-111 -158 -139 -33 -28 -69 -60 -81 -71 -12 -11 -48 -42 -81 -70 -32 -27 -63
-54 -69 -60 -6 -5 -45 -39 -86 -75 -41 -35 -82 -71 -91 -80 -9 -8 -25 -22 -35
-30 -11 -8 -46 -37 -79 -65 -33 -27 -68 -58 -80 -67 -11 -9 -31 -27 -45 -39
-14 -11 -45 -38 -70 -58 -24 -20 -51 -43 -60 -51 -19 -17 -51 -45 -135 -115
-32 -27 -67 -57 -76 -65 -9 -8 -34 -29 -56 -47 -21 -17 -88 -73 -149 -125 -60
-51 -132 -111 -158 -133 -26 -22 -58 -49 -70 -60 -12 -11 -41 -35 -64 -53 -22
-19 -50 -41 -60 -50 -11 -10 -45 -39 -77 -67 -32 -27 -67 -56 -78 -64 -11 -8
-35 -28 -53 -45 -18 -17 -60 -53 -94 -81 -34 -27 -72 -59 -84 -70 -83 -75
-301 -253 -306 -250 -3 2 -5 487 -5 1079 0 592 -2 1076 -5 1076 -27 3 -454 4
-483 2z"/>
<path d="M18310 12258 c-14 -5 -34 -11 -44 -14 -53 -10 -133 -103 -163 -189
-16 -47 -17 -143 -18 -1421 0 -754 2 -1394 3 -1421 l4 -50 269 -1 269 0 0
1140 0 1139 47 -38 c26 -21 61 -50 78 -65 29 -25 56 -48 101 -86 59 -48 416
-352 478 -407 6 -5 32 -28 56 -50 25 -22 70 -61 100 -87 30 -25 69 -58 85 -73
17 -14 52 -45 79 -68 27 -23 57 -49 66 -57 8 -8 34 -30 55 -49 72 -61 169
-146 190 -166 12 -11 44 -38 71 -60 27 -21 56 -46 64 -55 8 -8 49 -44 90 -80
92 -79 116 -101 155 -135 17 -15 47 -41 69 -59 21 -17 50 -42 66 -56 49 -45
160 -142 220 -192 28 -24 159 -137 176 -153 6 -5 42 -37 79 -70 38 -33 94 -84
124 -114 95 -90 155 -130 233 -152 30 -8 148 -12 381 -13 318 -1 338 0 343 17
10 30 -25 65 -276 277 -100 85 -192 163 -204 173 -11 10 -42 37 -68 58 -25 22
-62 54 -81 72 -19 18 -55 50 -81 72 -26 22 -62 54 -79 70 -18 17 -64 57 -102
90 -38 33 -79 69 -91 80 -13 11 -46 40 -75 65 -28 25 -59 52 -68 60 -9 9 -50
45 -91 80 -41 36 -80 70 -86 75 -6 6 -41 37 -79 70 -37 33 -73 65 -79 70 -6 6
-45 39 -86 75 -41 36 -89 78 -106 95 -17 16 -50 46 -74 65 -24 19 -55 46 -70
60 -28 26 -147 131 -184 163 -41 35 -140 122 -167 147 -15 14 -53 48 -84 75
-32 28 -75 66 -96 85 -21 19 -62 55 -90 80 -29 25 -77 67 -107 94 -30 26 -68
60 -85 75 -17 14 -79 69 -137 121 -58 52 -137 123 -176 156 -38 34 -81 73 -95
85 -14 13 -59 53 -99 89 -40 36 -90 81 -111 100 -21 19 -46 42 -56 51 -10 8
-45 39 -78 68 -85 76 -130 93 -245 96 -52 2 -106 -2 -120 -7z"/>
<path d="M2107 12142 c-10 -2 -15 -8 -12 -12 3 -5 6 -673 6 -1485 -1 -1163 2
-1475 12 -1476 47 -4 510 -3 520 1 9 4 12 275 12 1210 l0 1205 1592 2 1592 2
0 -1202 c0 -661 0 -1207 1 -1213 0 -8 79 -11 265 -11 263 0 266 1 264 21 0 12
0 26 1 31 4 19 0 117 -6 126 -3 5 -1 9 4 9 8 0 7 63 -2 87 -3 7 -2 14 2 17 8
5 6 101 -3 124 -2 6 -1 12 3 12 8 0 6 64 -2 86 -3 7 -2 15 1 18 5 5 7 197 3
221 -2 6 -1 15 0 20 4 19 0 117 -6 126 -3 5 -1 9 4 9 8 0 7 63 -2 87 -3 7 -2
14 2 17 8 5 6 101 -3 124 -2 6 -1 12 3 12 9 0 6 64 -2 87 -3 7 -2 14 2 17 8 5
6 101 -3 124 -2 6 -1 12 3 12 9 0 6 64 -2 87 -3 7 -2 14 2 17 8 5 6 101 -3
124 -2 6 -1 12 3 12 9 0 6 64 -2 87 -3 7 -2 14 2 17 8 5 6 101 -3 124 -2 6 -1
12 3 12 9 0 6 64 -2 87 -3 7 -2 14 2 17 8 5 6 101 -3 124 -2 6 -1 12 3 12 9 0
6 64 -2 87 -3 7 -2 14 2 17 8 5 6 101 -3 124 -2 6 -1 12 3 12 9 0 6 64 -2 87
-3 7 -2 14 2 17 8 5 6 101 -3 124 -2 6 -1 12 3 12 9 0 6 64 -2 87 -3 7 -2 14
2 17 8 5 6 101 -3 124 -2 6 -1 12 3 12 9 0 6 64 -2 87 -3 7 -1 15 3 17 5 3 6
16 4 28 l-4 23 -2118 0 c-1164 0 -2125 -1 -2134 -3z"/>
</g>
</svg>
