<svg xmlns="http://www.w3.org/2000/svg" viewBox="0 0 582.1 552.1"><defs><style>.cls-1{fill:none;}</style></defs><title>Монтажная область 2</title><g id="Слой_2" data-name="Слой 2"><path class="cls-1" d="M324.7,491a3.6,3.6,0,0,0-2.2-.6,3.2,3.2,0,0,0-3.3,2,8.8,8.8,0,0,0-.5,3.3v2A4.3,4.3,0,0,0,320,501a3.6,3.6,0,0,0,2.5,1.1,3.7,3.7,0,0,0,3.4-2.4,4.4,4.4,0,0,0,.4-1.8v-2Q326.3,492.2,324.7,491Z"/><path class="cls-1" d="M323.9,473a3.4,3.4,0,0,0-1.4-.3,3.7,3.7,0,0,0-2.5.9,3.7,3.7,0,0,0-1.1,1.8,8.6,8.6,0,0,0-.3,2.8,7.6,7.6,0,0,0,.8,3.8,3.4,3.4,0,0,0,3.1,1.5,3.4,3.4,0,0,0,3.2-1.6,6.8,6.8,0,0,0,.8-3.7Q326.5,474,323.9,473Z"/><path class="cls-1" d="M298.4,502.1a2.6,2.6,0,0,0,2.2-1.1,3.7,3.7,0,0,0,.8-2.4v-7.4a3.7,3.7,0,0,0-1.3-2.9,2.5,2.5,0,0,0-1.7-.5,2.7,2.7,0,0,0-2.4,1.2,4.3,4.3,0,0,0-.6,2.3v7.3a3.8,3.8,0,0,0,.7,2.4A2.6,2.6,0,0,0,298.4,502.1Z"/><path class="cls-1" d="M275.3,473.4a2.6,2.6,0,0,0-2.2,1,3.9,3.9,0,0,0-.8,2.5v7.5a3.8,3.8,0,0,0,1.3,2.9,2.4,2.4,0,0,0,1.7.5,2.8,2.8,0,0,0,2.9-2.4,5.8,5.8,0,0,0,.2-1.1v-7.4a3.9,3.9,0,0,0-.8-2.5A2.7,2.7,0,0,0,275.3,473.4Z"/><path d="M351.3,285.2c.3-4,.2-8.2.1-12.2,0-1.8-.1-3.6-.1-5.4q0-15.1,0-30.2V223.5h-6.3a15.6,15.6,0,0,0-.1,1.8c0,.9,0,3.6,0,7.5,0,11.8,0,33.8,0,47.6a64.1,64.1,0,0,1-.9,9.7,30.6,30.6,0,0,1-7.3,15.6c-4.7,5.5-11,9.3-19.1,11.6a90.4,90.4,0,0,1-12,2.6c-4.5.7-9,.9-13.4,1.2-2.8.2-13.7-.2-14.7-.3h-1.7a123.9,123.9,0,0,1-16-1.9,67.9,67.9,0,0,1-17.5-5.7c-11.9-6.1-18.1-15.8-18.3-28.8s-.2-28.2-.2-41.9q0-8.9,0-17.8v-1h-6.4c0,.2,0,.4,0,.5q0,29.5,0,58.9a42.3,42.3,0,0,0,2.8,15.4c3.1,8,8.8,14.4,17.4,19.5a43,43,0,0,0,14.2,5.6l5.4,1,9.7,1.8,16.9,1.3c14.4.2,25.3-1.1,35.2-4.1a52.1,52.1,0,0,0,16.6-8.1C345.2,308.3,350.4,298.1,351.3,285.2Z"/><path d="M353.4,267.6q0-15.1,0-30.2V222.1l-.5-.3-.9-.3h-5c-3.5,0-3.9.4-4,3.9,0,.9,0,3.6,0,7.5,0,11.8,0,33.8,0,47.6a62.1,62.1,0,0,1-.8,9.4,28.7,28.7,0,0,1-6.9,14.6c-4.5,5.2-10.4,8.8-18.1,11a88.3,88.3,0,0,1-11.7,2.5c-4.4.6-8.9.9-13.2,1.2-2.6.2-13.5-.2-14.4-.3H276a122.3,122.3,0,0,1-15.8-1.8,66,66,0,0,1-17-5.6c-11.2-5.7-17-14.8-17.2-27.1-.2-14-.2-28.2-.2-41.9q0-8.9,0-17.8v-3H215.6V223c0,.4-.1.7-.1,1.1q0,29.5,0,58.9a44.3,44.3,0,0,0,3,16.1c3.2,8.4,9.2,15.1,18.3,20.5a44.9,44.9,0,0,0,14.8,5.9l5.3,1,9.8,1.8,17.2,1.3h2.6c13.4,0,23.7-1.3,33.2-4.2a54,54,0,0,0,17.2-8.4c9.9-7.5,15.4-18.1,16.3-31.7.3-4.1.2-8.3.2-12.4C353.4,271.2,353.4,269.4,353.4,267.6Zm-69.4,60L267,326.3l-9.7-1.8-5.4-1a43,43,0,0,1-14.2-5.6c-8.7-5.1-14.4-11.5-17.4-19.5a42.3,42.3,0,0,1-2.8-15.4q0-29.5,0-58.9c0-.2,0-.4,0-.5h6.4v1q0,8.9,0,17.8c0,13.7,0,27.9.2,41.9s6.3,22.8,18.3,28.8a67.9,67.9,0,0,0,17.5,5.7,123.9,123.9,0,0,0,16,1.9h1.7c1,.1,11.9.5,14.7.3,4.4-.3,8.9-.6,13.4-1.2a90.4,90.4,0,0,0,12-2.6c8.1-2.3,14.3-6.1,19.1-11.6a30.6,30.6,0,0,0,7.3-15.6,64.1,64.1,0,0,0,.9-9.7c.1-13.8,0-35.8,0-47.6,0-3.9,0-6.6,0-7.5a15.6,15.6,0,0,1,.1-1.8h6.3v13.9q0,15.1,0,30.2c0,1.8,0,3.6.1,5.4.1,4,.1,8.2-.1,12.2-.9,12.9-6.1,23.1-15.6,30.2a52.1,52.1,0,0,1-16.6,8.1C309.3,326.5,298.4,327.7,283.9,327.6Z"/><path d="M248.3,289.4c.8,4.4,3.5,7.7,8.1,10.1s9.9,3.6,17.2,3.9c4.4.2,8.9.2,13.2.2h5.9a44.3,44.3,0,0,0,15.9-2.3,18.5,18.5,0,0,0,9.8-7.9c2.5-4,2.8-8.5,2.8-12.4,0-14.3,0-28.8,0-42.8v-14c0-.2,0-.4,0-.7h-6.6a3,3,0,0,0-.1.8c0,13.3,0,26.5,0,39.3v3.3c0,5.8,0,11.8-.1,17.7-.1,4-1.7,7.1-4.7,8.8a23.8,23.8,0,0,1-7.7,2.9,76.4,76.4,0,0,1-12,.9h-1.6c-8.5.1-17.3.2-25.8-2-4.3-1.1-7-3.3-8-6.8a23.4,23.4,0,0,1-1-6.8c0-13.8,0-27.7,0-41.3V224.6c0-.4,0-.7-.1-1.1h-4.7c-1.2,0-1.4.1-1.5.2s-.2.4-.2,1.5v14.2c0,13.5,0,27.4.1,41.2A49.3,49.3,0,0,0,248.3,289.4Z"/><path d="M246.4,289.8c.9,5,4,8.8,9.1,11.5s12.9,3.9,18,4.1,9,.2,13.3.2h6.5a46.3,46.3,0,0,0,16-2.5,20.7,20.7,0,0,0,10.9-8.7c2.7-4.4,3.1-9.2,3.1-13.4,0-14.3,0-28.8,0-42.8v-14c0-.4,0-.7,0-1.1v-1.6h-7.7a2.8,2.8,0,0,0-2.1.6,3,3,0,0,0-.7,2.3c0,13.3,0,26.5,0,39.2v3.3c0,5.8,0,11.8-.1,17.7,0,2.3-.7,5.4-3.7,7.1a21.8,21.8,0,0,1-7.1,2.7,74.4,74.4,0,0,1-11.7.9h-1.6c-8.4.1-17,.2-25.3-2-3.7-.9-5.8-2.7-6.6-5.4a21.4,21.4,0,0,1-.9-6.2c0-13.7,0-27.7,0-41.3V224.6c0-.5,0-1-.1-1.5v-1.6h-6.5c-2.9,0-3.6.8-3.6,3.7v14.2c0,13.5,0,27.4.1,41.2A51.3,51.3,0,0,0,246.4,289.8Zm.9-50.5V225.1c0-1.2.1-1.5.2-1.5s.3-.2,1.5-.2h4.7c0,.4.1.8.1,1.1v15.8c0,13.5,0,27.5,0,41.3a23.4,23.4,0,0,0,1,6.8c1.1,3.4,3.7,5.7,8,6.8,8.5,2.2,17.3,2.1,25.8,2h1.6a76.4,76.4,0,0,0,12-.9,23.8,23.8,0,0,0,7.7-2.9c3-1.7,4.6-4.8,4.7-8.8.1-5.9.1-11.9.1-17.7v-3.3c0-12.8,0-26,0-39.3a3,3,0,0,1,.1-.8h6.6c0,.2,0,.5,0,.7v14c0,14,0,28.6,0,42.8,0,3.9-.4,8.4-2.8,12.4a18.5,18.5,0,0,1-9.8,7.9,44.3,44.3,0,0,1-15.9,2.3h-5.9c-4.3,0-8.8,0-13.2-.2-7.3-.3-12.6-1.5-17.2-3.9s-7.3-5.7-8.1-10.1a49.3,49.3,0,0,1-1-9C247.3,266.7,247.3,252.8,247.3,239.3Z"/><path d="M413.9,272.2l.4-.3,1-.8,3.4-2.4,6.2-4.5,14.4-10.9,12.2-9.2,12.8-9.6,13.5-10.1.8-.7h-9.4a3.5,3.5,0,0,0-2.3.8l-7,5.3-4.3,3.2L427.5,254l-14,10.4-6.2,4.4-1.1.8a4,4,0,0,0-1.5,3.4,4.8,4.8,0,0,0,1.9,3.9c3.8,2.6,7.8,5.5,12.1,8.9L438,301.2l8,6.4,3.8,3,20.7,16.5a2.7,2.7,0,0,0,1.5.5h9.5L413,273Z"/><path d="M419.8,270.3l6.3-4.5,14.4-10.9,12.2-9.2,12.8-9.6L479,225.9a10,10,0,0,0,1.5-1.6l.6-.7.5-.6-1-1.6H469.4a5.6,5.6,0,0,0-3.7,1.2l-6.9,5.3-4.3,3.2-28.1,21.1-14,10.4-6.2,4.4-1.1.8a6,6,0,0,0-2.4,5,6.8,6.8,0,0,0,2.8,5.6c3.8,2.5,7.7,5.4,12,8.8l19.3,15.4,8,6.4,3.8,3,20.7,16.5a4.7,4.7,0,0,0,2.7.9h12l.8-1.8-68.7-54.9.3-.2Zm60.2,57.4H472a2.7,2.7,0,0,1-1.5-.5l-20.7-16.5-3.8-3-8-6.4-19.3-15.4c-4.3-3.4-8.3-6.3-12.1-8.9a4.8,4.8,0,0,1-1.9-3.9,4,4,0,0,1,1.5-3.4l1.1-.8,6.2-4.4,14-10.4,28.1-21.1,4.3-3.2,7-5.3a3.5,3.5,0,0,1,2.3-.8h9.4l-.8.7-13.5,10.1L451.5,244l-12.2,9.3-14.4,10.9-6.2,4.5-3.4,2.4-1,.8-.4.3-.9.8,68.5,54.7Z"/><polygon points="187.4 327.6 193.7 327.6 193.7 283.5 129.8 283.5 129.8 327.5 136.2 327.5 136.2 290.1 187.4 290.1 187.4 327.6"/><path d="M195.7,329.6V281.5H127.8v48.1h10.4V292.1h47.2v37.5Zm-59.5-2h-6.4V283.5h63.9v44.1h-6.2V290.1H136.2Z"/><path d="M187.3,257.7H136.2V235c0-3.7,0-7.5,0-11.2v-.3h-6.2v40.9h63.9V223.6h-6.3Z"/><path d="M195.7,221.6H185.3v34.1H138.2V235c0-3.7,0-7.5,0-11.2,0-.8-.7-2.2-1.7-2.3h-8.6v44.9h67.9Zm-2,42.8H129.8V223.5H136v.3c0,3.7,0,7.5,0,11.2v22.6h51.2V223.6h6.3Z"/><path d="M376.9,314.8V327c0,.2,0,.4,0,.6h6.4V291.2l1.6,1.4,2.6,2.1,5,4.2,22.4,19.5,1.4,1.2,1.8,1.6c1.7,1.5,3.5,3,5.1,4.6a6.3,6.3,0,0,0,5.3,2c2-.1,3.9-.1,5.9-.1h.9l-3.1-2.6-4.2-3.5-22.4-19.7-1.4-1.2-20.5-18.2a4.7,4.7,0,0,0-3.1-.8,3.6,3.6,0,0,0-2.4.9,4.7,4.7,0,0,0-1.3,3.3Q376.9,300.3,376.9,314.8Z"/><path d="M374.9,314.8V327c0,.4,0,.7.1,1.1v1.5h10.3V295.5l.9.8,4.9,4.1,22.4,19.5,1.4,1.2,1.8,1.6c1.7,1.4,3.4,2.9,5,4.5a8.2,8.2,0,0,0,6.1,2.6h.7c1.9-.1,3.8-.1,5.7-.1h3.1l.8-1.6-.4-.5-.3-.4-.9-1-3.1-2.7-4.1-3.5L407,300.2l-1.4-1.2-20.5-18.2a6.6,6.6,0,0,0-4.6-1.3,5.6,5.6,0,0,0-3.8,1.5,6.6,6.6,0,0,0-1.8,4.7Q374.9,300.3,374.9,314.8Zm5.7-33.3a4.7,4.7,0,0,1,3.1.8l20.5,18.2,1.4,1.2L428,321.5l4.2,3.5,3.1,2.6h-.9c-1.9,0-3.9-.1-5.9.1a6.3,6.3,0,0,1-5.3-2c-1.6-1.6-3.4-3.1-5.1-4.6l-1.8-1.6-1.4-1.2-22.4-19.5-5-4.2-2.6-2.1-1.6-1.4v36.4H377c0-.2,0-.4,0-.6V314.8q0-14.5,0-29.1a4.7,4.7,0,0,1,1.3-3.3A3.6,3.6,0,0,1,380.6,281.5Z"/><path d="M383.2,258.3V223.7h-6.3c0,.1,0,.2,0,.3v12.2q0,14,0,28a3.8,3.8,0,0,0,2.7,3.8,3.9,3.9,0,0,0,4.3-.9l3-2.7,12.7-11.4,11.8-10.3,12-10.2,10.6-9h-8.5a3.4,3.4,0,0,0-2.6,1.1L412,234.1l-18.6,15.8-6.8,5.8-1,.8Z"/><path d="M375.1,221.7v1.4c0,.3-.1.6-.1.9v12.2q0,14,0,28a5.8,5.8,0,0,0,3.9,5.7,6,6,0,0,0,2.2.4,6.1,6.1,0,0,0,4.1-1.7l3-2.7,12.7-11.4,11.8-10.2,12-10.2,10.6-9a6.8,6.8,0,0,0,1-1.2l.5-.7,1.2-1.5-2.7-.2h-9.7a5.5,5.5,0,0,0-4,1.6l-10.8,9.4-18.6,15.8-6.8,5.8h0V221.7Zm18.3,28.1L412,234.1l10.9-9.5a3.4,3.4,0,0,1,2.6-1.1h8.5l-10.6,9-12,10.2-11.8,10.3-12.7,11.4-3,2.7a3.9,3.9,0,0,1-4.3.9,3.8,3.8,0,0,1-2.7-3.8q0-14,0-28V224c0-.1,0-.2,0-.3h6.3v34.6l2.4-1.9,1-.8Z"/><rect x="99.5" y="223.5" width="6.2" height="104.03"/><path d="M107.7,329.6v-108H97.5v108Zm-8.2-106h6.2v104H99.5Z"/><polygon points="81.5 66.1 219 66.1 219 62.1 77.5 62.1 77.5 489.1 224.4 489.1 224.4 485.1 81.5 485.1 81.5 66.1"/><polygon points="352.3 62.1 352.3 66.1 500.6 66.1 500.6 485.1 357.7 485.1 357.7 489.1 504.6 489.1 504.6 62.1 352.3 62.1"/><polygon points="271 78.3 259.8 78.3 259.8 67.3 268 67.3 268 61.3 259.8 61.3 259.8 50.3 271 50.3 271 44.2 253.8 44.2 253.8 84.3 271 84.3 271 78.3"/><path d="M285.2,79.2a3.1,3.1,0,0,1-2.5-1.1,8.7,8.7,0,0,1-1.9-5.1l-5.7.4a15.5,15.5,0,0,0,1.3,5.7,10.1,10.1,0,0,0,3.1,3.9,9.5,9.5,0,0,0,5.9,1.8,11.1,11.1,0,0,0,3.4-.5,7.7,7.7,0,0,0,4.2-2.8,11.1,11.1,0,0,0,1.3-11,15.8,15.8,0,0,0-.9-1.9,21.3,21.3,0,0,0-3.4-4.4L287,61.8a21.1,21.1,0,0,1-2.7-2.5,8.8,8.8,0,0,1-2.4-5.6,5.7,5.7,0,0,1,.7-2.9,2.8,2.8,0,0,1,2.5-1.5,2.9,2.9,0,0,1,2.4,1A6.8,6.8,0,0,1,289,54l5.8-1.1a11.8,11.8,0,0,0-1.3-4.6,8.3,8.3,0,0,0-2.9-3.1,10.2,10.2,0,0,0-5.5-1.5,9.1,9.1,0,0,0-5.6,1.7q-3.7,2.8-3.7,8.3a12.1,12.1,0,0,0,1.3,5.6,22.2,22.2,0,0,0,4.2,5.2l5.4,5.1a7.4,7.4,0,0,1,2.3,5,4.9,4.9,0,0,1-.6,2.7A3.8,3.8,0,0,1,285.2,79.2Z"/><polygon points="305.7 84.3 311.7 84.3 311.7 50.3 318.1 50.3 318.1 44.2 299.3 44.2 299.3 50.3 305.7 50.3 305.7 84.3"/><rect x="322.3" y="78.3" width="6" height="6.04"/><path d="M253.8,471.1a8.8,8.8,0,0,1-4.1,1.6v4.2h5.1v30.8h6.1V467.7h-4.2A8.2,8.2,0,0,1,253.8,471.1Z"/><path d="M275.2,467.2a8.8,8.8,0,0,0-3.5.7,8.7,8.7,0,0,0-4,3.3,9.8,9.8,0,0,0-1.6,5h0v7a11.4,11.4,0,0,0,1.8,6.8,6.8,6.8,0,0,0,5.9,2.8,6.7,6.7,0,0,0,4.6-1.9v8a3.9,3.9,0,0,1-.8,2.5,3,3,0,0,1-4.4,0,3.8,3.8,0,0,1-.8-2.5v-1h-6.3v.9a9.6,9.6,0,0,0,2.5,6.7,9,9,0,0,0,13.1.1,9.6,9.6,0,0,0,2.6-6.8v-22a9.5,9.5,0,0,0-2.5-6.7A8.6,8.6,0,0,0,275.2,467.2Zm3.2,17.1a5.8,5.8,0,0,1-.2,1.1,2.8,2.8,0,0,1-2.9,2.4,2.4,2.4,0,0,1-1.7-.5,3.8,3.8,0,0,1-1.3-2.9v-7.5a3.9,3.9,0,0,1,.8-2.5,2.9,2.9,0,0,1,4.4,0,3.9,3.9,0,0,1,.8,2.5Z"/><path d="M298.6,467.2a9,9,0,0,0-7.7,4.3,10.1,10.1,0,0,0-1.4,5.3v22a9.6,9.6,0,0,0,2.5,6.7,9,9,0,0,0,12.9.3,9.5,9.5,0,0,0,2.8-6.4h0v-6.9a11.4,11.4,0,0,0-1.8-6.7,6.9,6.9,0,0,0-6-2.8,6.7,6.7,0,0,0-4.6,1.8v-8.1a3.9,3.9,0,0,1,.8-2.5,3,3,0,0,1,4.4,0,3.9,3.9,0,0,1,.8,2.5v1h6.3v-.9a9.5,9.5,0,0,0-2.5-6.7A8.6,8.6,0,0,0,298.6,467.2Zm-3.2,24.1a4.3,4.3,0,0,1,.6-2.3,2.7,2.7,0,0,1,2.4-1.2,2.5,2.5,0,0,1,1.7.5,3.7,3.7,0,0,1,1.3,2.9v7.4a3.7,3.7,0,0,1-.8,2.4,2.9,2.9,0,0,1-4.5,0,3.8,3.8,0,0,1-.7-2.4Z"/><path d="M327.4,486.6a8.1,8.1,0,0,0,2.2-1.7,8.9,8.9,0,0,0,2.2-6.2v-2.2a9.3,9.3,0,0,0-2.3-6.4,8.6,8.6,0,0,0-6.8-2.9h-.5a8.6,8.6,0,0,0-6.8,2.9,9.2,9.2,0,0,0-2.3,6.4v2.2a9.1,9.1,0,0,0,.7,3.8,8.4,8.4,0,0,0,3.8,4.2,9.1,9.1,0,0,0-2.5,2,9.3,9.3,0,0,0-2.5,6.4v3.7a9.3,9.3,0,0,0,2.8,6.7,9.1,9.1,0,0,0,6.8,2.8h.5a9.3,9.3,0,0,0,6.8-2.8,9.2,9.2,0,0,0,2.8-6.8V495a8.5,8.5,0,0,0-.8-3.8A10,10,0,0,0,327.4,486.6Zm-1.1,11.2a4.4,4.4,0,0,1-.4,1.8,3.7,3.7,0,0,1-3.4,2.4A3.6,3.6,0,0,1,320,501a4.3,4.3,0,0,1-1.2-3.2v-2a8.8,8.8,0,0,1,.5-3.3,3.2,3.2,0,0,1,3.3-2,3.6,3.6,0,0,1,2.2.6q1.6,1.2,1.6,4.8Zm-.6-16a3.4,3.4,0,0,1-3.2,1.6,3.4,3.4,0,0,1-3.1-1.5,7.6,7.6,0,0,1-.8-3.8,8.6,8.6,0,0,1,.3-2.8,3.7,3.7,0,0,1,1.1-1.8,3.7,3.7,0,0,1,2.5-.9,3.4,3.4,0,0,1,1.4.3q2.5,1.1,2.6,5.2A6.8,6.8,0,0,1,325.7,481.8Z"/></g></svg>