<?xml version="1.0" encoding="utf-8"?>
<!-- Generator: Adobe Illustrator 20.1.0, SVG Export Plug-In . SVG Version: 6.00 Build 0)  -->
<svg version="1.1" id="Слой_1" xmlns="http://www.w3.org/2000/svg" xmlns:xlink="http://www.w3.org/1999/xlink" x="0px" y="0px"
	 viewBox="0 0 566.9 566.9" style="enable-background:new 0 0 566.9 566.9;" xml:space="preserve">
<style type="text/css">
	.st0{fill:none;}
	.st1{fill:#FFFFFF;}
</style>
<g>
	<path class="st0" d="M293.6,501.6c-0.6-0.5-1.4-0.7-2.5-0.7c-1.8,0-3,0.7-3.7,2.3c-0.4,0.9-0.6,2.2-0.6,3.8v2.3
		c0,1.5,0.5,2.7,1.4,3.6c0.8,0.8,1.7,1.2,2.9,1.3c1.9-0.1,3.2-1,3.9-2.8c0.3-0.6,0.4-1.3,0.4-2.1h0.1v-2.2
		C295.5,504.4,294.8,502.5,293.6,501.6z"/>
	<path class="st0" d="M262.8,481.5c-1.1,0-1.9,0.4-2.5,1.2c-0.6,0.7-0.9,1.7-0.9,2.8v8.5c0,1.3,0.5,2.4,1.4,3.4
		c0.4,0.4,1,0.6,1.9,0.6c1.8,0,2.9-0.9,3.3-2.8c0.1-0.6,0.2-1,0.2-1.3v-8.4c0-1.1-0.3-2-0.9-2.8
		C264.8,481.9,263.9,481.5,262.8,481.5z"/>
	<path class="st0" d="M292.7,480.9c-0.5-0.2-1-0.3-1.6-0.3c-1.2,0-2.1,0.3-2.9,1c-0.6,0.6-1,1.3-1.3,2.1c-0.3,0.9-0.4,1.9-0.3,3.2
		c0,2,0.3,3.4,0.9,4.2c0.8,1.2,1.9,1.8,3.6,1.8c1.6,0,2.8-0.7,3.6-1.9c0.6-1.1,0.9-2.5,0.9-4.2C295.6,483.7,294.6,481.7,292.7,480.9
		z"/>
	<path class="st0" d="M313,510.2c0,1.2,0.3,2.1,0.9,2.8c0.6,0.8,1.4,1.2,2.5,1.2c1.1,0,2-0.4,2.6-1.2c0.6-0.7,0.9-1.6,0.8-2.7v-8.5
		c0-1.3-0.5-2.4-1.5-3.3c-0.4-0.4-1.1-0.6-1.9-0.6c-1.2,0-2.1,0.5-2.7,1.4c-0.5,0.8-0.7,1.6-0.7,2.6V510.2z"/>
	<path class="st1" d="M345.8,275c0-10.1,0-20.1,0-30.2v-15.3l-0.5-0.3l-0.9-0.3h-5c-3.5,0-3.9,0.4-4,3.9c0,0.9,0,3.6,0,7.5
		c0,11.8,0,33.8,0,47.6c0,3.1-0.3,6.3-0.8,9.4c-0.9,5.4-3.3,10.5-6.9,14.6c-4.5,5.2-10.4,8.8-18.1,11c-3.8,1.1-7.7,1.9-11.7,2.5
		c-4.4,0.6-8.9,0.9-13.2,1.2c-2.6,0.2-13.5-0.2-14.4-0.3h-1.7c-5.3-0.3-10.6-0.9-15.8-1.8c-5.9-1.1-11.6-3-17-5.6
		c-11.2-5.7-17-14.8-17.2-27.1c-0.2-14-0.2-28.2-0.2-41.9c0-5.9,0-11.9,0-17.8v-3h-10.3v1.4c0,0.4-0.1,0.7-0.1,1.1
		c0,19.7,0,39.3,0,58.9c0,5.5,1,11,3,16.1c3.2,8.4,9.2,15.1,18.3,20.5c4.5,2.8,9.6,4.8,14.8,5.9l5.3,1l9.8,1.8l17.2,1.3h2.6
		c13.4,0,23.7-1.3,33.2-4.2c6.2-1.8,12-4.6,17.2-8.4c9.9-7.5,15.4-18.1,16.3-31.7c0.3-4.1,0.2-8.3,0.2-12.4
		C345.8,278.6,345.8,276.8,345.8,275z"/>
	<path class="st1" d="M238.8,297.2c0.9,5,4,8.8,9.1,11.5c5.1,2.7,12.9,3.9,18,4.1c5.1,0.2,9,0.2,13.3,0.2h6.5
		c5.4,0.1,10.9-0.7,16-2.5c4.5-1.6,8.4-4.6,10.9-8.7c2.7-4.4,3.1-9.2,3.1-13.4c0-14.3,0-28.8,0-42.8v-14c0-0.4,0-0.7,0-1.1v-1.6H308
		c-0.8-0.1-1.5,0.1-2.1,0.6c-0.5,0.6-0.8,1.5-0.7,2.3c0,13.3,0,26.5,0,39.2v3.3c0,5.8,0,11.8-0.1,17.7c0,2.3-0.7,5.4-3.7,7.1
		c-2.2,1.3-4.6,2.2-7.1,2.7c-3.9,0.6-7.8,0.9-11.7,0.9H281c-8.4,0.1-17,0.2-25.3-2c-3.7-0.9-5.8-2.7-6.6-5.4c-0.6-2-0.9-4.1-0.9-6.2
		c0-13.7,0-27.7,0-41.3V232c0-0.5,0-1-0.1-1.5v-1.6h-6.5c-2.9,0-3.6,0.8-3.6,3.7v14.2c0,13.5,0,27.4,0.1,41.2
		C238.1,291.1,238.3,294.2,238.8,297.2z"/>
	<path class="st1" d="M412.2,277.7l6.3-4.5l14.4-10.9l12.2-9.2l12.8-9.6l13.5-10.1c0.6-0.5,1.1-1,1.5-1.6l0.6-0.7l0.5-0.6l-1-1.6
		h-11.2c-1.3-0.1-2.6,0.4-3.7,1.2l-6.9,5.3l-4.3,3.2l-28.1,21.1l-14,10.4l-6.2,4.4l-1.1,0.8c-1.6,1.2-2.5,3-2.4,5
		c0,2.2,1,4.3,2.8,5.6c3.8,2.5,7.7,5.4,12,8.8l19.3,15.4l8,6.4l3.8,3l20.7,16.5c0.8,0.6,1.7,0.9,2.7,0.9h12l0.8-1.8l-68.7-54.9
		l0.3-0.2L412.2,277.7z"/>
	<polygon class="st1" points="188.1,337 188.1,288.9 120.2,288.9 120.2,337 130.6,337 130.6,299.5 177.8,299.5 177.8,337 	"/>
	<path class="st1" d="M188.1,229h-10.3v34.1h-47.2v-20.6c0-3.7,0-7.5,0-11.2c0-0.8-0.7-2.2-1.7-2.3h-8.6v44.9h67.9L188.1,229z"/>
	<path class="st1" d="M367.4,322.2v12.2c0,0.4,0,0.7,0.1,1.1v1.5h10.3v-34.1l0.9,0.8l4.9,4.1l22.4,19.5l1.4,1.2l1.8,1.6
		c1.7,1.4,3.4,2.9,5,4.5c1.6,1.7,3.8,2.6,6.1,2.6h0.7c1.9-0.1,3.8-0.1,5.7-0.1h3.1l0.8-1.6l-0.4-0.5l-0.3-0.4l-0.9-1l-3.1-2.7
		l-4.1-3.5l-22.4-19.7l-1.4-1.2l-20.5-18.2c-1.3-1-2.9-1.4-4.5-1.3c-1.4,0-2.8,0.5-3.8,1.5c-1.2,1.3-1.8,3-1.8,4.7
		C367.4,302.9,367.4,312.5,367.4,322.2z"/>
	<path class="st1" d="M367.5,229.1L367.5,229.1v1.4c0,0.3-0.1,0.6-0.1,0.9v12.2c0,9.3,0,18.7,0,28c-0.1,2.6,1.5,4.9,3.9,5.7
		c0.7,0.3,1.4,0.4,2.2,0.4c1.5,0,3-0.6,4.1-1.7l3-2.7l12.7-11.4l11.8-10.2l12-10.2l10.6-9c0.4-0.4,0.7-0.8,1-1.2l0.5-0.7l1.2-1.5
		l-2.7-0.2H418c-1.5,0-2.9,0.5-4,1.6l-10.8,9.5l-18.6,15.8l-6.8,5.8v-32.5H367.5z"/>
	<rect x="89.9" y="229" class="st1" width="10.3" height="108"/>
	<path class="st1" d="M237.3,478.8c-1.5,1.1-3.1,1.7-4.7,1.9v4.8h5.8v35.2h6.9V475h-4.8C239.8,476.5,238.7,477.8,237.3,478.8z"/>
	<path class="st1" d="M270.1,477.7c-2-2.2-4.5-3.3-7.5-3.3c-1.5,0-2.8,0.3-4,0.8c-1.9,0.8-3.4,2.1-4.5,3.8c-1.1,1.7-1.7,3.6-1.8,5.7
		v7.9c0,3.3,0.7,5.9,2,7.7c1.5,2.1,3.8,3.2,6.8,3.2c1.9,0,3.6-0.7,5.2-2.2v9.1c0,1.1-0.3,2.1-0.9,2.8c-0.6,0.8-1.4,1.1-2.5,1.1
		c-1.1,0-1.9-0.4-2.5-1.1c-0.6-0.8-0.9-1.7-0.9-2.8v-1.1h-7.1v1c0,3,1,5.6,2.9,7.6c2,2.2,4.5,3.3,7.5,3.3s5.5-1.1,7.4-3.2
		c2-2.1,3-4.7,3-7.7v-25H273C273,482.3,272,479.7,270.1,477.7z M266.2,493.9c0,0.3-0.1,0.7-0.2,1.3c-0.4,1.9-1.5,2.8-3.3,2.8
		c-0.9,0-1.5-0.2-1.9-0.6c-0.9-1-1.4-2.1-1.4-3.4v-8.5c0-1.1,0.3-2.1,0.9-2.8c0.6-0.8,1.4-1.2,2.5-1.2c1.1,0,2,0.4,2.5,1.2
		c0.6,0.8,0.9,1.7,0.9,2.8V493.9z"/>
	<path class="st1" d="M296.7,496.6c0.9-0.5,1.8-1.1,2.5-2c1.7-1.9,2.6-4.2,2.6-7.1V485c0-2.9-0.9-5.4-2.6-7.3
		c-1.9-2.2-4.5-3.3-7.8-3.3h-0.6c-3.2,0-5.8,1.1-7.7,3.3c-1.8,1.9-2.6,4.4-2.6,7.3v2.5c0,1.7,0.3,3.2,0.8,4.3c1,2.2,2.5,3.8,4.3,4.7
		c-1.1,0.6-2,1.3-2.8,2.2c-1.9,2.1-2.8,4.5-2.8,7.3v4.3c0,3,1.1,5.6,3.2,7.7c2.1,2.1,4.7,3.2,7.7,3.2h0.6c3,0,5.6-1.1,7.7-3.2
		c2.1-2.1,3.2-4.7,3.2-7.7V506c-0.1-1.6-0.4-3-1-4.2C300.3,499.5,298.7,497.7,296.7,496.6z M295.5,509.3h-0.1c0,0.8-0.1,1.5-0.4,2.1
		c-0.7,1.8-2,2.7-3.9,2.8c-1.2-0.1-2.1-0.5-2.9-1.3c-0.9-0.9-1.4-2.1-1.4-3.6V507c0-1.6,0.2-2.9,0.6-3.8c0.7-1.6,1.9-2.3,3.7-2.3
		c1.1,0,1.9,0.2,2.5,0.7c1.2,0.9,1.9,2.8,1.9,5.5V509.3z M294.7,491c-0.8,1.2-2,1.9-3.6,1.9c-1.7,0-2.8-0.6-3.6-1.8
		c-0.6-0.8-0.9-2.2-0.9-4.2c-0.1-1.3,0-2.3,0.3-3.2c0.3-0.8,0.7-1.5,1.3-2.1c0.8-0.7,1.7-1,2.9-1c0.6,0,1.1,0.1,1.6,0.3
		c1.9,0.8,2.9,2.8,2.9,5.9C295.6,488.5,295.3,489.9,294.7,491z"/>
	<path class="st1" d="M316.7,474.4c-1.5,0-2.9,0.3-4.2,0.9c-2,0.9-3.5,2.2-4.6,4c-1.1,1.8-1.6,3.8-1.6,6.1v25c0,3,1,5.6,2.9,7.6
		c2,2.2,4.5,3.3,7.5,3.3c2.8,0,5.2-1,7.2-3s3-4.4,3.2-7.3v-7.8c0-3.3-0.7-5.9-2-7.7c-1.5-2.1-3.8-3.2-6.8-3.2
		c-1.9,0-3.6,0.7-5.2,2.1v-9.2c0-1.1,0.3-2.1,0.9-2.8c0.6-0.8,1.4-1.1,2.5-1.1c1.1,0,2,0.4,2.5,1.1c0.6,0.8,0.9,1.7,0.9,2.8v1.1h7.2
		v-1c0-3-1-5.6-2.9-7.6C322.2,475.5,319.7,474.4,316.7,474.4z M313.7,499.3c0.6-0.9,1.5-1.4,2.7-1.4c0.8,0,1.5,0.2,1.9,0.6
		c1,0.9,1.5,2,1.5,3.3v8.5c0.1,1.1-0.2,2-0.8,2.7c-0.6,0.8-1.5,1.2-2.6,1.2c-1.1,0-1.9-0.4-2.5-1.2c-0.6-0.7-0.9-1.6-0.9-2.8v-8.3
		C313,500.9,313.2,500.1,313.7,499.3z"/>
	<polygon class="st1" points="264.9,86.2 252.2,86.2 252.2,73.7 261.5,73.7 261.5,66.8 252.2,66.8 252.2,54.3 264.9,54.3 
		264.9,47.4 245.3,47.4 245.3,93.1 264.9,93.1 	"/>
	<path class="st1" d="M281,87.1c-1.1,0-2-0.4-2.8-1.3c-1.1-1.2-1.8-3.1-2.1-5.8l-6.5,0.5c0.1,2.5,0.6,4.6,1.5,6.5
		c0.9,2.1,2.1,3.6,3.6,4.7c1.8,1.3,4,2,6.7,2c1.5,0,2.7-0.2,3.8-0.5c2-0.6,3.6-1.7,4.7-3.2c1.7-2.3,2.5-5,2.5-8.2
		c0-1.3-0.4-2.8-1-4.4c-0.3-0.7-0.6-1.4-1.1-2.2c-0.9-1.7-2.2-3.3-3.9-5c-0.5-0.5-1.6-1.5-3.2-2.8c-1.4-1.1-2.4-2.1-3.1-2.9
		c-1.8-2.2-2.7-4.3-2.7-6.4c0-1.3,0.3-2.5,0.8-3.4c0.7-1.1,1.6-1.7,2.9-1.7c1.2,0,2.1,0.4,2.7,1.2c0.9,1,1.4,2.5,1.6,4.4l6.6-1.2
		c-0.2-2-0.7-3.7-1.5-5.3c-0.8-1.5-1.9-2.7-3.3-3.6c-1.8-1.1-3.9-1.7-6.3-1.7c-2.6,0-4.7,0.6-6.4,1.9c-2.8,2.1-4.2,5.3-4.2,9.4
		c0,2.3,0.5,4.4,1.5,6.4c0.9,1.8,2.5,3.7,4.8,5.9c2.7,2.6,4.8,4.5,6.1,5.8c1.7,1.9,2.6,3.8,2.6,5.7c0,1.3-0.2,2.3-0.7,3
		C283.7,86.3,282.5,87.1,281,87.1z"/>
	<polygon class="st1" points="304.5,93.1 311.4,93.1 311.4,54.3 318.7,54.3 318.7,47.4 297.2,47.4 297.2,54.3 304.5,54.3 	"/>
	<rect x="323.4" y="86.2" class="st1" width="6.9" height="6.9"/>
	<polygon class="st1" points="491,75.9 345.9,75.9 345.9,78.9 488,78.9 488,488 345.9,488 345.9,491 491,491 	"/>
	<polygon class="st1" points="78.9,78.9 208,78.9 208,75.9 75.9,75.9 75.9,491 208,491 208,488 78.9,488 	"/>
	<polygon class="st1" points="345.9,60.9 345.9,63.9 503,63.9 503,503 345.9,503 345.9,506 506,506 506,60.9 	"/>
	<polygon class="st1" points="63.9,63.9 208,63.9 208,60.9 60.9,60.9 60.9,506 208,506 208,503 63.9,503 	"/>
</g>
</svg>
