<svg id="Layer_1" data-name="Layer 1" xmlns="http://www.w3.org/2000/svg" viewBox="0 0 140 140"><defs><style>.cls-1{fill:#333;}.cls-2{font-size:24.55px;font-family:AlwaysInMyHeart, AlwaysInMyHeart;}.cls-10,.cls-2,.cls-6,.cls-7,.cls-8{fill:#fff;}.cls-3{letter-spacing:0.01em;}.cls-4{letter-spacing:-0.01em;}.cls-5{letter-spacing:-0.01em;}.cls-7,.cls-8{font-size:10.98px;font-family:Bebas, Bebas;}.cls-7{letter-spacing:-0.02em;}.cls-8{letter-spacing:0em;}.cls-9{letter-spacing:-0.03em;}.cls-10{font-size:8.08px;font-family:Homestead-Regular, Homestead Regular;}</style></defs><title>Монтажная область 4</title><path class="cls-1" d="M31.5,1.1h-.2A.2.2,0,0,0,31.5,1.1ZM45.1,3h.3C45.3,2.9,45.2,2.9,45.1,3Zm3,1h0ZM41.6.9c-.2-.1-.4,0-.5-.1h-.2C41.2.8,41.4,1,41.6.9Zm6.2,2.8H48C48.1,3.7,47.8,3.6,47.8,3.7Zm1-1.8h0ZM101,136h0ZM49.6,2.4c.4.1.4-.1,0,0Zm-1.4,1H48C48,3.6,48.3,3.4,48.2,3.4ZM45,3.8h0Zm-.5,1a6.9,6.9,0,0,0,1.7.2c-.4,0-.6-.3-.9-.2h-.5c-.1.2.1.1.1.2S44.5,4.6,44.5,4.8Zm.7-.9h0ZM47,5.1c-.5-.2-.2.1,0,0ZM39.3,3.4c-.2-.2-.6-.1-.9-.1Zm88.1,85.5c1.8-14.1,7.8-78.8.3-81.8s-40.3-1.3-53-1.3c-8.6,0-24.7,0-35.5.2l-.3-.4c-1,.1-1.8-.6-2.8-.6s-.1-.1-.1-.2l.2-.3h.5c.9-.3,2.1-.1,3.1-.2s0-.3,0-.5-1,.1-1.5-.2a.5.5,0,0,1,.5-.7l2.4.2a45.3,45.3,0,0,1,6.2.6c-1.1-.3-2.3-.3-3.3-.6H44a13.4,13.4,0,0,0-3.1-.3c-.4-.3-1.1,0-1.5-.3a1,1,0,0,1,.9-.6l-1.2-.2h-.9s0-.1,0-.1H33L30.5,2c-.2,0,0-.2-.2-.1a22.9,22.9,0,0,0-3.8.7c-.1,0-.1-.2-.2-.1s-.1.2-.3.2h-.3a16.2,16.2,0,0,0-4.5,2.1,24.6,24.6,0,0,0-3.8,2.8c-.9.8-1.6,1.8-2.4,2.5l-1.7,2.7C10.3,16,9.7,20.1,9.8,24.8a7,7,0,0,0-.2,2.1,14.7,14.7,0,0,0-.3,2.6c-.3.6-.1,1.3-.2,2v.2c-.3,1.1,0,2.3-.3,3.2s-.1.6-.1.9a6.6,6.6,0,0,0,0,1v.3a7.2,7.2,0,0,0,0,1c0,.5-.4,1.1-.2,1.7a3.4,3.4,0,0,0-.3,1.7c-.3.9-.1,1.9-.3,2.8s-.3.6-.1.9-.1.7-.2,1.2-.2.8-.3,1.3,0,1.4-.4,1.8.4.6.2,1.1-.4.2-.7.3a.8.8,0,0,0,0,.7c-.1.3-.5.4-.5.8s.1.3.1.5a6.2,6.2,0,0,0-.1,1.1c.1.4.2.7.3,1.1A2.9,2.9,0,0,0,6,56c.1.5,0,1,.4,1.2s.4.8.6,1.2,0,.2,0,.2,1.5,1.3,1.9,2.3l.8.3.3.3c.5.2,1,0,1.4.4h.1A113,113,0,0,0,13,76.2c2.4,12.5-1.2,47.6,2.4,54.9,1.8,3.6,13.6,4.9,26.5,5v0h.5l1.3.5a3.7,3.7,0,0,1,1.3,1.1l.3-.8c.2.1.4,1.3.7.2l.6-.3c.3.1.6-.3.9.1h.1c.7.4.1-.7.9-.2s.5-1,.9-.8l.3,1.2c.7.7,1-.4,2.1-.4a1.9,1.9,0,0,1,.2,2.3c.6-1,.3-.7,1-1.1a1.2,1.2,0,0,1-.2.9c.5.5.4-.4.8-.3a10.5,10.5,0,0,1,.6-2.1v-.3l.4-.3h1.1v.4l.6-.2v.5H57c.2-.1.8-.2,1.2.1v.3c.9.9,1.8-.2,3-.3l-.2.6c.4.6.1-.9.6-.6v.7c.4-1,.5.2.8.6v-1l.5.2c.6.3.3,1.2.2,1.7l.4-.7v.8c.3-1,.3.2.8-.4s-.1.5.1.6l.9-1.2-.5.5v-1.2c.5-.9.7.1,1.1-.2l-.3.4c.6-.3.6.2,1,.5s-.3-.6,0-.7.1.4.3.6.5-1.3.9-.9a1.2,1.2,0,0,1,0,.3c.1-.1.2-.3.3-.1v.9l.3-.9c.2.3.6-.4.5.2v.2l1.7.2v.7c.2-1,.9.4.9-.9.3.7,1.3-.5,1.1.9s1.8-1.2,3.2-.6,1.9.8,2.8.9,2.9-1,4.6-1.4c1.2,1.6,2.6-.7,3.8.3l.3-.7c.8,1,1.9-.3,3,.7l.4-.4c-.1,0-.1-.2-.2-.6s.9-.1.9.7h-.1c0,.8.9-.4,1.3.3l-.3-.9h.6v.2c2.3-2.1,3.7.7,5.8-1.2-.2,1,.4-.5.5.5s1-.3,1.5-.7a.6.6,0,0,1,0-.2h.8c-.4,1.4.5-1.2.1,0a7.5,7.5,0,0,0,3.6.3h4.2l-.2-.3c.7,0,1.5-.5,2,0s.9-1,1.1-1,1.1.5.8.5.8-1.5,1.6-1,1.8-1.2,1.9.1h0c.8.9,1.6-.7,2.4.2v.2a23.1,23.1,0,0,1,2.5-3.8c.1-1.2.1-2.4.1-3.6l3.4-.8C130.5,124.6,125.6,103,127.5,88.9ZM53.8,138.7h0v.4Zm13.9-1.4h0Zm33.2-1c-.1-.1,0-.2.1-.3s-.3-.2-.4-.1S100.8,136.1,100.9,136.3Zm-53.2.9h0C47.7,137.3,47.7,137.4,47.7,137.2Z"/><text class="cls-2" transform="translate(36.4 33.9) scale(1.01 1)"><tspan class="cls-3">S</tspan><tspan x="12.2" y="0">e</tspan><tspan class="cls-4" x="24.5" y="0">r</tspan><tspan class="cls-5" x="32.4" y="0">g</tspan><tspan x="46" y="0">ii</tspan></text><path class="cls-6" d="M35,53.4v13l15.4-.7V53.4h4.2v29l-4.2.3V69L35,69.9V84.4l-4.1.6V53.4Z"/><path class="cls-6" d="M65.9,53.4V70.2c0,6.4,3.2,9,7.4,9s7.8-2.7,7.8-9V53.4h4.2V70.1c0,8.8-5.2,12.1-12.1,12.1s-11.5-3.1-11.5-12V53.4Z"/><path class="cls-6" d="M92.4,53.4h4.1V67.6h.1l2.5-3.1c3.2-3.6,6.5-7.3,9.7-11.1h5.1c-3.9,4.5-7.7,8.7-11.5,12.7,4.2,5.9,8.3,12.2,12.4,18.9l-4.9-.7c-3.5-5.5-7-10.8-10.5-15.8l-3,3.1V82.8l-4.1-.3Z"/><path class="cls-6" d="M73.8,104.4a18.6,18.6,0,0,0-3.9-2.3,10.5,10.5,0,0,1-2.2-1.6,35.9,35.9,0,0,1-3.1-3.4,8.1,8.1,0,0,0-1.8-1.5l.4-.6-.6-.6-1.9-1.3c-.2-.1-.3.3-.5.6l-.5-.4c-.2-.2-1.6,2.2-1.4,2.4l.3.3a7.1,7.1,0,0,1-.9,1.3,8.9,8.9,0,0,1-2.4,1.9,7.1,7.1,0,0,1-2.5.6c-.2.1.6,2.1,2.9,3.7s5.4,1.2,5.2,1a5.4,5.4,0,0,1-.8-2.6,29.8,29.8,0,0,1,0-3.2c.1-.3.4-.5.7-.8l3.4,2.8,2.2,1.4,1.5.9-1.7,1.2a34.1,34.1,0,0,0-3.5,3.2c-.6.8.7,2.5,1.1,2.7s1-1,1.3-1.6a7.3,7.3,0,0,1,1.7-1.9l2.4-2,.6-.4.6.4,2.5,1.9a7.3,7.3,0,0,1,1.8,1.9c.3.7,1,1.9,1.4,1.6s1.6-2,1-2.8A33.6,33.6,0,0,0,73.8,104.4Zm13.4-4.9a7.1,7.1,0,0,1-2.5-.6A9,9,0,0,1,82.2,97a7,7,0,0,1-.9-1.2l.3-.3c.2-.2-1.3-2.6-1.5-2.4l-.5.4c-.2-.3-.3-.7-.5-.6l-1.8,1.4-.6.6.4.6A8.2,8.2,0,0,0,75.4,97a35.5,35.5,0,0,1-3,3.5l-.8.8,2.1,1,2.1-1.4L79,97.8c.3.3.7.5.8.8a29.5,29.5,0,0,1,.1,3.2,5.3,5.3,0,0,1-.7,2.6c-.1.2,3,.5,5.2-1.1S87.3,99.6,87.2,99.4Z"/><text class="cls-7" transform="translate(27.6 106.6) scale(1.01 1)">EST</text><text class="cls-8" transform="translate(94.9 106.6) scale(1.01 1)">198<tspan class="cls-9" x="14.9" y="0">6</tspan></text><text class="cls-10" transform="translate(41.1 120.7) rotate(23.2) scale(0.99 1)">F</text><text class="cls-10" transform="translate(47.9 123.3) rotate(17.1) scale(0.99 1)">r</text><text class="cls-10" transform="translate(53.7 125) rotate(10.9) scale(0.99 1)">o</text><text class="cls-10" transform="matrix(0.98, 0.08, -0.08, 1, 61.57, 126.27)">n</text><text class="cls-10" transform="translate(69.5 126.7) rotate(-1.1) scale(0.99 1)">t</text><text class="cls-10" transform="matrix(0.98, -0.09, 0.09, 1, 75.54, 126.45)"> </text><text class="cls-10" transform="matrix(0.97, -0.18, 0.18, 0.98, 80.71, 125.88)">E</text><text class="cls-10" transform="translate(88.1 124.3) rotate(-17.3) scale(0.99 1)">n</text><text class="cls-10" transform="translate(95.7 121.7) rotate(-24.9) scale(0.99 1)">d</text></svg>