<?xml version="1.0" encoding="utf-8"?>
<!-- Generator: Adobe Illustrator 19.0.0, SVG Export Plug-In . SVG Version: 6.00 Build 0)  -->
<svg version="1.1" id="_x32_500_1_" xmlns="http://www.w3.org/2000/svg" xmlns:xlink="http://www.w3.org/1999/xlink" x="0px"
	 y="0px" viewBox="-320 198.3 200 200" style="enable-background:new -320 198.3 200 200;" xml:space="preserve">
<metadata><?xpacket begin="﻿" id="W5M0MpCehiHzreSzNTczkc9d"?>
<x:xmpmeta xmlns:x="adobe:ns:meta/" x:xmptk="Adobe XMP Core 5.6-c067 79.157747, 2015/03/30-23:40:42        ">
   <rdf:RDF xmlns:rdf="http://www.w3.org/1999/02/22-rdf-syntax-ns#">
      <rdf:Description rdf:about=""/>
   </rdf:RDF>
</x:xmpmeta>
                                                                                                    
                                                                                                    
                                                                                                    
                                                                                                    
                                                                                                    
                                                                                                    
                                                                                                    
                                                                                                    
                                                                                                    
                                                                                                    
                                                                                                    
                                                                                                    
                                                                                                    
                                                                                                    
                                                                                                    
                                                                                                    
                                                                                                    
                                                                                                    
                                                                                                    
                                                                                                    
                           
<?xpacket end="w"?></metadata>
<style type="text/css">
	.st0{fill:#24408F;}
</style>
<path class="st0" d="M-158.6,292c10,0,18-8.1,18-18s-8.1-18.1-18-18.1s-18,8.1-18,18.1S-168.6,292-158.6,292z M-158.6,257.4
	c9.1,0,16.5,7.4,16.5,16.6s-7.4,16.5-16.5,16.5s-16.5-7.4-16.5-16.5S-167.7,257.4-158.6,257.4z M-220.5,280.3
	c12.3,0,22.2-10,22.2-22.2s-10-22.2-22.2-22.2s-22.2,10-22.2,22.2S-232.8,280.3-220.5,280.3z M-220.5,237.3
	c11.4,0,20.8,9.3,20.8,20.8s-9.3,20.8-20.8,20.8s-20.8-9.3-20.8-20.8S-231.9,237.3-220.5,237.3z M-262,296.6
	c2.8-6,8.9-10.1,15.9-10.1h51.3c4.7,0,9.1,1.8,12.4,5.2c1.5,1.6,2.7,3.4,3.6,5.3l0.3,0.7c0.8,2,1.2,4.1,1.1,6.3v37.8
	c0,1.6-0.4,3.1-1.1,4.3c0,0-0.6,1.3-1.5,2c-1.7,1.7-4,2.8-6.5,2.8c-3.2,0-6-1.6-7.6-4.1v13.9h-52.7V347c-1.4,2.3-3.8,3.9-7.7,3.9
	c-2.1,0-4-0.7-5.5-1.9v-2c1.4,1.5,3.4,2.4,5.5,2.4c5.6,0,7.7-4.2,7.7-8.2V304h1.5v55.2h49.7V304h1.5v37.8c0,4.2,3.4,7.7,7.6,7.7
	c4.2,0,7.7-3.4,7.7-7.7V304c0-4.3-1.6-8.3-4.6-11.3c-3-3-7.1-4.7-11.4-4.7h-51.3c-8.8,0-16,7.2-16,16v37.8c0,2,0.8,3.8,2.1,5.2h-1.5
	v0.6c-1.3-1.6-2.1-3.6-2.1-5.8V304c0-2.1,0.4-4.1,1.1-6h1.4v-1.5 M-260.1,347C-260.1,347.1-260.1,347.1-260.1,347l0,9.8h-42.9v-11
	c-1.4,1.8-3.6,3-6.1,3c-4.2,0-7.5-3.4-7.5-7.5v-30.4c0-7.9,6.4-14.2,14.2-14.2h41.3c-0.2,0.5,0.1,1-0.1,1.5h-41.1
	c-7,0-12.8,5.7-12.8,12.8v30.4c0,3.3,2.7,6,6,6s6.1-2.7,6.1-6v-30.3h1.5v44.3h39.9v-8.4C-261,346.7-260.5,346.7-260.1,347z
	 M-123.5,310.9v30.4c0,4.2-3.4,7.5-7.5,7.5c-2.5,0-4.7-1.2-6-3v10.9H-180v-8.6c0.6-0.6,1.1-1.3,1.5-2v9.1h39.9v-44.3h1.5v30.4
	c0,3.3,2.7,6,6,6s6-2.7,6-6v-30.4c-0.2-7.1-6-12.9-12.9-12.9h-41.4l-0.2-0.4c-0.1-0.2-0.2-0.5-0.3-0.7l-0.2-0.4h42
	C-130.1,296.6-123.7,303-123.5,310.9z M-281.6,292c10,0,18-8.1,18-18s-8.1-18.1-18-18.1s-18.1,8.1-18.1,18.1S-291.6,292-281.6,292z
	 M-281.6,257.4c9.1,0,16.5,7.4,16.5,16.6s-7.4,16.5-16.5,16.5s-16.6-7.4-16.6-16.5S-290.7,257.4-281.6,257.4z"/>
</svg>
