<?xml version="1.0" encoding="utf-8"?>
<!-- Generator: Adobe Illustrator 20.1.0, SVG Export Plug-In . SVG Version: 6.00 Build 0)  -->
<svg version="1.1" id="Layer_2" xmlns="http://www.w3.org/2000/svg" xmlns:xlink="http://www.w3.org/1999/xlink" x="0px" y="0px"
	 viewBox="0 0 200 200" style="enable-background:new 0 0 200 200;" xml:space="preserve">
<style type="text/css">
	.st0{fill:#24408F;}
</style>
<path class="st0" d="M195.4,113.9c-6.7-6.7-18.9-9.9-37.4-10v-0.1l-17,0.8l-3.7-5.8l-4.9-7.8l4.5-0.2c0.7,0,1.4-0.3,1.9-0.9
	c0.5-0.5,0.8-1.2,0.7-2l-0.2-6.6c0-0.7-0.3-1.4-0.9-1.9c-0.5-0.5-1.3-0.8-2-0.7l-11.1,0.4c-0.1,0-0.3,0-0.4,0l-4.4-7l-3.5-5.6
	l2.2-0.1c1.5-0.1,2.7-1.3,2.7-2.8l-0.2-6.6c-0.1-1.5-1.3-2.7-2.8-2.7h-0.1l-9.2,0.3L99.4,38.4l-11,0.4l10.7,41l0.9,26.6l-61.7,2.8
	L23.1,85.4L22.9,85h-9.3l5.2,25.1l-3.2,0.1l0,0l-0.6,0.1l-6.6,5.3H4.6c-2,0-3.6,1.7-3.6,3.7l0,0l0,0c0,2,1.6,3.6,3.6,3.6h3.7
	l6.6,5.4l4.9,0.2l-4.6,22.3h9.3l13.7-21.5L99,132v26.4L89.7,200h11l9.7-16.7h9.1c1.5,0,2.8-1.2,2.8-2.8v-6.7c0-1.5-1.2-2.8-2.8-2.8
	h-2.1l7.5-12.9c0.1,0,0.2,0,0.3,0h11.1c1.5,0,2.8-1.2,2.8-2.8v-6.7c0-1.5-1.2-2.8-2.8-2.8H132l7.2-12.3l18.5,0.8
	c18.7,0,31-3.2,37.7-9.9c2.4-2.4,3.7-3.8,3.8-5.5C199.1,117.7,197.7,116.2,195.4,113.9z M136.5,80.4c0.3,0,0.6,0.1,0.8,0.3
	c0.2,0.2,0.3,0.5,0.3,0.7l0.2,6.6c0,0.3-0.1,0.6-0.3,0.8c-0.2,0.2-0.5,0.3-0.7,0.3l-5.4,0.2l-5.4-8.6L136.5,80.4z M118.9,56
	c0.5-0.1,1.1,0.4,1.1,1l0.2,6.6c0,0.3-0.1,0.6-0.3,0.8c-0.2,0.2-0.5,0.3-0.7,0.3l-3.1,0.1l-5.4-8.6L118.9,56z M90.5,40.4l8-0.3
	l9.9,15.8l0,0l5.7,9l1.4,2.3l15.8,25.1l7.7,12.3l-37.3,1.7l-1-26.8L90.5,40.4z M15.7,86.7H22l14.4,22.6L20.5,110L15.7,86.7z
	 M4.6,121.3c-1.1,0-2-0.9-2-2s0.9-1.9,1.9-1.9h4.3l0.2-0.1h27.4c1.1,0,2,0.9,2,2s-0.9,2-2,2H4.6z M23.6,149.2h-6.3l4.2-20.6
	l14.7,0.7L23.6,149.2z M119.5,173c0.6,0,1.1,0.5,1.1,1.1v6.7c0,0.6-0.5,1.1-1.1,1.1h-8.2l5.1-8.8h3.1V173z M136.4,148
	c0.6,0,1.1,0.5,1.1,1.1v6.7c0,0.6-0.5,1.1-1.1,1.1h-10.5l5.1-8.8h5.4V148z M129.5,147.2l-5.3,9.2l0,0l-8.6,14.8l-6.2,10.6l0,0
	l-9.7,16.7h-8l8.9-39.7v-26.6l36.6,1.6L129.5,147.2z M194.1,123.7c-6.3,6.3-18.1,9.4-36.1,9.4V133l-142.4-6.4v0.1h-0.1l-4.7-3.8
	h25.4c2,0,3.6-1.6,3.6-3.6s-1.6-3.6-3.6-3.6H11.1l4.5-3.7l5.3-0.2l0,0l16.6-0.7l0,0l63.5-2.8h0.8l0,0l38.3-1.7l0,0l17.5-0.8
	c18.2,0,30.2,3.1,36.6,9.5C198.5,119.3,198.5,119.3,194.1,123.7z M94,114.8c2.5,0,4.5,2,4.5,4.5s-2,4.5-4.5,4.5s-4.5-2-4.5-4.5
	S91.5,114.8,94,114.8z M109.2,110.4c-5,0-9,4-9,8.9s4,8.9,9,8.9s9-4,9-8.9S114.1,110.4,109.2,110.4z"/>
</svg>
