<?xml version="1.0" encoding="utf-8"?>
<!-- Generator: Adobe Illustrator 20.1.0, SVG Export Plug-In . SVG Version: 6.00 Build 0)  -->
<svg version="1.1" id="Layer_2" xmlns="http://www.w3.org/2000/svg" xmlns:xlink="http://www.w3.org/1999/xlink" x="0px" y="0px"
	 viewBox="0 0 200 200" style="enable-background:new 0 0 200 200;" xml:space="preserve">
<style type="text/css">
	.st0{fill:none;stroke:#24408F;stroke-width:0.7838;stroke-miterlimit:10;}
	.st1{fill:#24408F;}
	.st2{fill:none;stroke:#24408F;stroke-width:0.9875;stroke-miterlimit:10;}
</style>
<g>
	<circle class="st0" cx="82.2" cy="116" r="6.2"/>
	<path class="st0" d="M79.1,33.6L30.9,67.8l-4.3,27l73.3,103l79.3-56.3L106,38.5L79.1,33.6z M61.1,59.3c1.7-1.1,3.9-0.8,5.2,0.8
		c1.1,1.7,0.8,3.9-0.8,5.2c-1.7,1.1-3.9,0.8-5.2-0.8C59.1,62.9,59.5,60.6,61.1,59.3z M74.1,121.7c-3.2-4.5-2.2-10.7,2.4-13.9
		c4.5-3.2,10.7-2.2,13.9,2.4c3.2,4.5,2.2,10.7-2.4,13.9C83.4,127.3,77.3,126.1,74.1,121.7z M105.3,140.5L93.6,95.6l4.6-3.2
		l11.7,44.8L105.3,140.5z M127,125.1c-4.5,3.2-10.7,2.2-13.9-2.4c-3.2-4.5-2.2-10.7,2.4-13.9c4.6-3.2,10.7-2.2,13.9,2.4
		C132.5,115.7,131.5,121.9,127,125.1z"/>
	<circle class="st1" cx="63.6" cy="62.1" r="3.7"/>
	<path class="st2" d="M63.6,62.1C60.5,35,44.6-9.1,25.2,4.7C8.5,16.6,43.8,48.6,63.6,62.1z"/>
	<circle class="st1" cx="121.2" cy="116.9" r="6.2"/>
</g>
</svg>
