<?xml version="1.0" encoding="utf-8"?>
<!-- Generator: Adobe Illustrator 19.2.0, SVG Export Plug-In . SVG Version: 6.00 Build 0)  -->
<svg version="1.1" id="Layer_1" xmlns="http://www.w3.org/2000/svg" xmlns:xlink="http://www.w3.org/1999/xlink" x="0px" y="0px"
	 viewBox="0 0 595.3 841.9" style="enable-background:new 0 0 595.3 841.9;" xml:space="preserve">
<style type="text/css">
	.st0{fill:none;stroke:#23418E;stroke-width:1.5;stroke-miterlimit:10;}
	.st1{fill:#23418E;stroke:#23418E;stroke-miterlimit:10;}
</style>
<g>
	<path class="st0" d="M277.2,476.7h5.8c3.5,0,6.4-2.7,6.7-6.2l1.3-15.6l-19.7-0.1c-12.1-1.2-21.6-11.5-21.6-23.9
		c0-10.8,7.1-19.9,16.8-22.9c-2.2-2.9-3.5-6.5-3.5-10.5c0-9.6,7.8-17.4,17.4-17.4c0,0,0.1,0,0.1,0c-0.1-0.7-0.1-1.4-0.1-2.1
		c0-9.6,7.8-17.4,17.4-17.4c9.6,0,17.4,7.8,17.4,17.4c0,0.7,0,1.4-0.1,2.1c0,0,0.1,0,0.1,0c9.6,0,17.4,7.8,17.4,17.4
		c0,3.9-1.3,7.6-3.5,10.5c9.8,3.1,16.8,12.2,16.8,22.9c0,12.3-9.2,22.4-21.1,23.9l-20.2,0.2l1.3,15.6c0.3,3.5,3.2,6.2,6.7,6.2h6.5"
		/>
	<path class="st0" d="M283.9,411.5l-11.5,19.9c-1.5,2.6,0.4,5.8,3.4,5.8h19.1"/>
	<polygon class="st1" points="284.6,410.2 284.7,422.9 273.6,416.6 	"/>
	<path class="st0" d="M299.1,437.3l23,0c3,0,4.8-3.2,3.3-5.8l-9.6-16.5"/>
	<polygon class="st1" points="297.6,437.4 308.6,430.9 308.6,443.7 	"/>
	<path class="st0" d="M313.9,410.8l-11.5-19.9c-1.5-2.6-5.2-2.6-6.7,0l-9.6,16.5"/>
	<polygon class="st1" points="314.7,412.1 303.7,405.8 314.6,399.3 	"/>
</g>
</svg>
