<?xml version="1.0" encoding="utf-8"?>
<!-- Generator: Adobe Illustrator 20.1.0, SVG Export Plug-In . SVG Version: 6.00 Build 0)  -->
<svg version="1.1" id="Layer_2" xmlns="http://www.w3.org/2000/svg" xmlns:xlink="http://www.w3.org/1999/xlink" x="0px" y="0px"
	 viewBox="0 0 200 200" style="enable-background:new 0 0 200 200;" xml:space="preserve">
<style type="text/css">
	.st0{fill:none;}
</style>
<path class="st0" d="M57,411.3H35.8v-76.1l-14.5,3.8l-3.3-18.7l24.7-7.3H57V411.3z M37.3,409.8h18.2v-95.3H42.7l-23.1,6.9l2.7,15.7
	l14.9-3.8V409.8z M107.9,412.8c-22.9,0-37.7-19.4-37.7-49.3v-1.8c0-30,14.9-49.4,37.8-49.4c22.9,0,37.7,19.4,37.7,49.3v1.8
	C145.8,393.3,130.9,412.8,107.9,412.8z M108.1,313.7c-22.1,0-36.3,18.8-36.3,47.9v1.8c0,29.1,14.2,47.8,36.2,47.8
	c22.1,0,36.3-18.8,36.3-48v-1.8C144.3,332.4,130.1,313.7,108.1,313.7z M108.1,395c-11.2,0-17.6-11.6-17.6-31.8v-1.6
	c0-20.1,6.4-31.5,17.5-31.5c11.1,0,17.6,11.9,17.6,31.8v1.6C125.5,383.5,119.2,395,108.1,395z M107.9,331.5c-10.1,0-16,11-16,30v1.6
	c0,19.2,5.9,30.3,16.1,30.3c10.1,0,16-11,16-30v-1.6C124,342.9,118,331.5,107.9,331.5z"/>
</svg>
