<?xml version="1.0" encoding="utf-8"?>
<!-- Generator: Adobe Illustrator 19.0.0, SVG Export Plug-In . SVG Version: 6.00 Build 0)  -->
<svg version="1.1" id="Layer_1" xmlns="http://www.w3.org/2000/svg" xmlns:xlink="http://www.w3.org/1999/xlink" x="0px" y="0px"
	 viewBox="0 0 724.6 203" style="enable-background:new 0 0 724.6 203;" xml:space="preserve">
<metadata><?xpacket begin="﻿" id="W5M0MpCehiHzreSzNTczkc9d"?>
<x:xmpmeta xmlns:x="adobe:ns:meta/" x:xmptk="Adobe XMP Core 5.6-c067 79.157747, 2015/03/30-23:40:42        ">
   <rdf:RDF xmlns:rdf="http://www.w3.org/1999/02/22-rdf-syntax-ns#">
      <rdf:Description rdf:about=""/>
   </rdf:RDF>
</x:xmpmeta>
                                                                                                    
                                                                                                    
                                                                                                    
                                                                                                    
                                                                                                    
                                                                                                    
                                                                                                    
                                                                                                    
                                                                                                    
                                                                                                    
                                                                                                    
                                                                                                    
                                                                                                    
                                                                                                    
                                                                                                    
                                                                                                    
                                                                                                    
                                                                                                    
                                                                                                    
                                                                                                    
                           
<?xpacket end="w"?></metadata>
<style type="text/css">
	.st0{fill:#FFFFFF;}
	.st1{fill:none;}
</style>
<g>
	<g>
		<g>
			<path class="st0" d="M135.2,178.6H45.1c-6.8,0-12.3-5.7-12.3-12.8v-35.4c0-0.5-0.2-1-0.5-1.4l-8.8-9.2c-1.2-1.3-1.9-3-1.9-4.9
				V89.2c0-6.9,5.3-12.5,11.8-12.8V65.6c0-7.1,5.7-12.8,12.8-12.8h88.5c7.1,0,12.8,5.7,12.8,12.8v100.3
				C147.5,172.9,142,178.6,135.2,178.6z M33.9,78.4c-5.7,0-10.3,4.8-10.3,10.8V115c0,1.3,0.5,2.6,1.4,3.5l8.8,9.2
				c0.7,0.7,1.1,1.7,1.1,2.8v35.4c0,6,4.6,10.8,10.3,10.8h90.1c5.7,0,10.3-4.8,10.3-10.8V65.6c0-6-4.8-10.8-10.8-10.8H46.2
				c-6,0-10.8,4.8-10.8,10.8v12.8H33.9z"/>
		</g>
		<g>
			<path class="st0" d="M117,155.1H63.9c-3.8,0-6.9-3.1-6.9-6.9v-41.3c0-3.8,3.1-6.9,6.9-6.9H117c3.8,0,6.9,3.1,6.9,6.9v41.3
				C123.9,152,120.8,155.1,117,155.1z M63.9,102c-2.7,0-4.9,2.2-4.9,4.9v41.3c0,2.7,2.2,4.9,4.9,4.9H117c2.7,0,4.9-2.2,4.9-4.9
				v-41.3c0-2.7-2.2-4.9-4.9-4.9H63.9z"/>
		</g>
		<g>
			<path class="st0" d="M114,149.2H66.9c-2.2,0-3.9-1.8-3.9-3.9v-17.7c0-2.2,1.8-3.9,3.9-3.9H114c2.2,0,4,1.8,4,3.9v17.7
				C118,147.4,116.2,149.2,114,149.2z M66.9,125.6c-1.1,0-1.9,0.9-1.9,1.9v17.7c0,1.1,0.9,1.9,1.9,1.9H114c1.1,0,2-0.9,2-1.9v-17.7
				c0-1.1-0.9-1.9-2-1.9H66.9z"/>
		</g>
		<g>
			<path class="st0" d="M114,113.8H90.4c-2.2,0-3.9-1.8-3.9-3.9s1.8-3.9,3.9-3.9H114c2.2,0,4,1.8,4,3.9S116.2,113.8,114,113.8z
				 M90.4,107.9c-1.1,0-1.9,0.9-1.9,1.9s0.9,1.9,1.9,1.9H114c1.1,0,2-0.9,2-1.9s-0.9-1.9-2-1.9H90.4z"/>
		</g>
		<g>
			<path class="st0" d="M75.7,112.8c0,3.3-2.6,5.9-5.9,5.9c-3.3,0-5.9-2.6-5.9-5.9s2.6-5.9,5.9-5.9
				C73.1,106.9,75.7,109.5,75.7,112.8L75.7,112.8z M75.7,112.8"/>
		</g>
	</g>
	<g>
		<g id="XMLID_10_">
			<path class="st1" d="M569.4,32.2h-6.6c-4.4,0-7.9,3.5-7.9,7.9v51.5h14.4C569.4,91.6,569.4,32.2,569.4,32.2z"/>
		</g>
		<g id="XMLID_9_">
			<path class="st1" d="M559,168.1h-23.7V181c0,1.9,1.5,3.5,3.5,3.5h131.6c1.9,0,3.5-1.5,3.5-3.5v-12.9h-23.7H559z"/>
		</g>
		<g id="XMLID_8_">
			<path class="st1" d="M552.9,114.7c6.1,0,10.8,4.9,10.8,10.8v17.1c0,1.9,1.5,3.5,3.5,3.5h74.6c1.9,0,3.5-1.5,3.5-3.5v-17.1
				c0-6.1,4.9-10.8,10.8-10.8c4.4,0,7.9-3.5,7.9-7.9V93.5h-24.3v15.7h-70.2V93.5h-24.3v13.3C545.1,111.2,548.7,114.7,552.9,114.7z"
				/>
		</g>
		<g id="XMLID_7_">
			<path class="st1" d="M637.7,22c0-1.9-1.5-3.5-3.5-3.5h-59.4c-1.9,0-3.5,1.5-3.5,3.5v85.3h66.3V22z"/>
		</g>
		<g id="XMLID_6_">
			<path class="st1" d="M654.1,40.1c0-4.4-3.5-7.9-7.9-7.9h-6.6v59.3h14.4V40.1z"/>
		</g>
		<g id="XMLID_5_">
			<path class="st1" d="M685.4,93.5h-19.5v13.3c0,5.4-4.4,9.8-9.8,9.8c-4.9,0-8.9,4-8.9,8.9v17.1c0,3-2.4,5.4-5.4,5.4h-74.6
				c-3,0-5.4-2.4-5.4-5.4v-17.1c0-4.9-4-8.9-8.9-8.9c-5.4,0-9.8-4.4-9.8-9.8V93.5h-19.5c-8,0-14.6,6.6-14.6,14.6v43.5
				c0,8,6.6,14.6,14.6,14.6h9.7H559v-8.9c0-1.8,1.4-3.2,3.2-3.2h84.9c1.8,0,3.2,1.4,3.2,3.2v8.9H676h9.7c8,0,14.6-6.6,14.6-14.6
				v-43.5C699.9,100,693.4,93.5,685.4,93.5z M668,126.6c1.7,0,3,1.4,3,3.1s-1.3,3.1-3,3.1s-3-1.4-3-3.1S666.3,126.6,668,126.6z
				 M673.4,151.2c-3,3-7.7,3-10.8,0c-1.5-1.5-2.2-3.5-2.2-5.4c0-1.9,0.8-3.9,2.2-5.4c3-3,7.7-3,10.8,0
				C676.3,143.4,676.3,148.3,673.4,151.2z"/>
		</g>
		<g id="XMLID_4_">
			<path class="st1" d="M647,156h-84.9c-0.6,0-1.3,0.5-1.3,1.3v8.9h87.3v-8.9C648.3,156.5,647.8,156,647,156z"/>
		</g>
		<g id="XMLID_3_">
			<path class="st0" d="M685.4,91.6H656V40.1c0-5.4-4.4-9.8-9.8-9.8h-6.6V22c0-3-2.4-5.4-5.4-5.4h-59.4c-3,0-5.4,2.4-5.4,5.4v8.2
				h-6.6c-5.4,0-9.8,4.4-9.8,9.8v51.5h-29.4c-9,0-16.5,7.3-16.5,16.5v43.5c0,9.1,7.3,16.5,16.5,16.5h9.7V181c0,3,2.4,5.4,5.4,5.4
				h131.6c3,0,5.4-2.4,5.4-5.4v-12.9h9.7c9.1,0,16.5-7.3,16.5-16.5v-43.5C701.9,98.9,694.5,91.6,685.4,91.6z M639.6,32.2h6.6
				c4.4,0,7.9,3.5,7.9,7.9v51.5h-14.4V32.2z M571.4,22c0-1.9,1.5-3.5,3.5-3.5h59.5c1.9,0,3.5,1.5,3.5,3.5v85.3h-66.5V22z M555,40.1
				c0-4.4,3.5-7.9,7.9-7.9h6.6v59.3H555V40.1z M545.1,93.5h24.3v15.7h70.2V93.5H664v13.3c0,4.4-3.5,7.9-7.9,7.9
				c-6.1,0-10.8,4.9-10.8,10.8v17.1c0,1.9-1.5,3.5-3.5,3.5h-74.6c-1.9,0-3.5-1.5-3.5-3.5v-17.1c0-6.1-4.9-10.8-10.8-10.8
				c-4.4,0-7.9-3.5-7.9-7.9V93.5z M673.9,181c0,1.9-1.5,3.5-3.5,3.5H538.8c-1.9,0-3.5-1.5-3.5-3.5v-12.9H559h91.2h23.7V181z
				 M560.9,166.2v-8.9c0-0.6,0.5-1.3,1.3-1.3h84.9c0.6,0,1.3,0.5,1.3,1.3v8.9H560.9z M699.9,151.5c0,8-6.6,14.6-14.6,14.6h-9.7
				h-25.5v-8.9c0-1.8-1.4-3.2-3.2-3.2h-84.9c-1.8,0-3.2,1.4-3.2,3.2v8.9h-25.5h-9.7c-8,0-14.6-6.6-14.6-14.6v-43.4
				c0-8,6.6-14.6,14.6-14.6h19.5v13.3c0,5.4,4.4,9.8,9.8,9.8c4.9,0,8.9,4,8.9,8.9v17.1c0,3,2.4,5.4,5.4,5.4h74.6
				c3,0,5.4-2.4,5.4-5.4v-17.1c0-4.9,4-8.9,8.9-8.9c5.4,0,9.8-4.4,9.8-9.8V93.5h19.5c8,0,14.6,6.6,14.6,14.6V151.5z"/>
		</g>
		<g id="XMLID_2_">
			<ellipse class="st0" cx="668" cy="133.7" rx="3" ry="3.1"/>
		</g>
		<g id="XMLID_1_">
			<path class="st0" d="M662.6,141.4c-1.5,1.5-2.2,3.5-2.2,5.4s0.8,3.9,2.2,5.4c3,3,7.7,3,10.8,0c3-3,3-7.9,0-10.8
				C670.4,138.5,665.5,138.5,662.6,141.4z"/>
		</g>
	</g>
	<g>
		<rect x="396.8" y="119.8" class="st0" width="99.1" height="2"/>
	</g>
	<g>
		<rect x="167.5" y="119.8" class="st0" width="99.1" height="2"/>
	</g>
	<g>
		<g>
			<path class="st0" d="M332.8,167.7c-25.9,0-46.9-21.1-46.9-46.9s21.1-46.9,46.9-46.9s46.9,21.1,46.9,46.9S358.7,167.7,332.8,167.7
				z M332.8,75.9c-24.8,0-44.9,20.2-44.9,44.9s20.2,44.9,44.9,44.9s44.9-20.2,44.9-44.9S357.6,75.9,332.8,75.9z"/>
		</g>
		<g>
			<path class="st0" d="M332.8,148.8c-11.1,0-20.1-9-20.1-20.1c0-13.1,18.5-37.3,19.3-38.3l0.8-1l0.8,1c0.8,1,19.3,25.2,19.3,38.3
				C352.9,139.8,343.9,148.8,332.8,148.8z M332.8,92.7c-3.6,4.8-18.1,25.1-18.1,36c0,10,8.1,18.1,18.1,18.1c10,0,18.1-8.1,18.1-18.1
				C350.9,117.8,336.4,97.6,332.8,92.7z"/>
		</g>
		<g>
			<path class="st0" d="M331.4,138.9c-2.7,0-5.3-1.1-7.2-3s-3-4.5-3-7.2c0-1.1,0.9-2.1,2.1-2.1s2.1,0.9,2.1,2.1
				c0,1.6,0.6,3.1,1.8,4.3c1.1,1.1,2.7,1.8,4.3,1.8c1.1,0,2.1,0.9,2.1,2.1S332.5,138.9,331.4,138.9z"/>
		</g>
	</g>
</g>
</svg>
