<?xml version="1.0" encoding="utf-8"?>
<!-- Generator: Adobe Illustrator 20.1.0, SVG Export Plug-In . SVG Version: 6.00 Build 0)  -->
<svg version="1.1" id="Layer_1" xmlns="http://www.w3.org/2000/svg" xmlns:xlink="http://www.w3.org/1999/xlink" x="0px" y="0px"
	 viewBox="0 0 152 152" style="enable-background:new 0 0 152 152;" xml:space="preserve">
<style type="text/css">
	.st0{fill:#3A3A80;}
</style>
<path class="st0" d="M76,88.4c1.3,0,2.3,1.1,2.3,2.4s-1,2.4-2.3,2.4s-2.3-1.1-2.3-2.4S74.7,88.4,76,88.4z M80.2,107.4
	c2.3-2.3,2.3-6.1,0-8.4s-6-2.3-8.4,0c-1.2,1.2-1.7,2.7-1.7,4.2s0.6,3,1.7,4.2C74.1,109.8,77.9,109.8,80.2,107.4z M76,47.2
	c13.8,0,26.7,5.4,36.5,15.1c9.7,9.7,15.1,22.7,15.1,36.5c0,0.1,0,0.2,0,0.3c0,0.1,0,0.2,0,0.3v1.5h1.5h19.3l-24.7,42.7l-24.6-42.7
	h19.1h1.5v-1.5v-0.2c0-0.1,0-0.2,0-0.4c0-11.7-4.5-22.6-12.8-30.9C98.6,59.7,87.6,55.1,76,55.1c-11.7,0-22.6,4.5-30.9,12.8
	c-0.5,0.5-1,1-1.5,1.5l-4.1-7.1C49.2,52.6,62.2,47.2,76,47.2 M76,45.7c-14.2,0-27.5,5.5-37.6,15.6c-0.3,0.3-0.5,0.6-0.8,0.8l5.7,9.9
	c0.9-1.1,1.8-2.1,2.8-3.1c8-8,18.6-12.4,29.8-12.4s21.9,4.4,29.8,12.4c8,8,12.4,18.6,12.4,29.8c0,0.2,0,0.4,0,0.6H96.5l27.3,47.2
	L151,99.4h-21.9c0-0.2,0-0.4,0-0.6c0-14.2-5.5-27.5-15.6-37.6C103.5,51.2,90.2,45.7,76,45.7L76,45.7z M28.3,55.1L53,97.8H33.8h-1.5
	v1.5c0.1,11.5,4.7,22.3,12.8,30.4c8.3,8.3,19.2,12.8,30.9,12.8s22.6-4.5,30.9-12.8c0.4-0.4,0.7-0.7,1.1-1.1l4.1,7.1
	c-9.7,9.5-22.5,14.7-36.1,14.7c-13.8,0-26.7-5.4-36.5-15.1c-9.6-9.6-15-22.4-15.1-35.9v-1.5h-1.5H3.6L28.3,55.1 M28.3,52.1L1,99.4
	h21.9c0.1,14,5.6,27.1,15.5,37c10,10,23.4,15.6,37.6,15.6s27.5-5.5,37.5-15.6l0,0l0,0c0.1-0.1,0.3-0.3,0.4-0.4l-5.7-9.9
	c-0.8,0.9-1.6,1.8-2.4,2.6l0,0c-8,8-18.6,12.4-29.8,12.4s-21.9-4.4-29.8-12.4c-7.9-7.9-12.3-18.3-12.4-29.3h21.7L28.3,52.1
	L28.3,52.1z"/>
</svg>
