<?xml version="1.0" encoding="utf-8"?>
<!-- Generator: Adobe Illustrator 20.1.0, SVG Export Plug-In . SVG Version: 6.00 Build 0)  -->
<svg version="1.1" id="Layer_1" xmlns="http://www.w3.org/2000/svg" xmlns:xlink="http://www.w3.org/1999/xlink" x="0px" y="0px"
	 viewBox="0 0 163.2 152" style="enable-background:new 0 0 163.2 152;" xml:space="preserve">
<style type="text/css">
	.st0{fill:#3A3A80;}
</style>
<path class="st0" d="M149.2,72.7h-24.6V29.5c0-4.5-3.7-8.2-8.2-8.2h-5.5v-6.9c0-2.5-2-4.5-4.5-4.5H56.7c-2.5,0-4.5,2-4.5,4.5v6.9
	h-5.5c-4.5,0-8.2,3.7-8.2,8.2v43.1H13.9c-7.6,0-13.8,6.1-13.8,13.8v36.4c0,7.7,6.1,13.8,13.8,13.8H22v10.8c0,2.5,2,4.5,4.5,4.5
	h110.2c2.5,0,4.5-2,4.5-4.5v-10.8h8.1c7.7,0,13.8-6.1,13.8-13.8V86.5C163,78.8,156.9,72.7,149.2,72.7z M111,23h5.5
	c3.7,0,6.6,2.9,6.6,6.6v43.1H111V23z M53.9,14.5c0-1.6,1.3-2.9,2.9-2.9h49.8c1.6,0,2.9,1.3,2.9,2.9v71.3H53.9V14.5z M40.1,29.5
	c0-3.7,2.9-6.6,6.6-6.6h5.5v49.6H40.1V29.5z M31.8,74.3h20.4v13.1H111V74.3h20.4v11.1c0,3.7-2.9,6.6-6.6,6.6c-5,0-9,4.1-9,9v14.3
	c0,1.6-1.3,2.9-2.9,2.9H50.4c-1.6,0-2.9-1.3-2.9-2.9V101c0-5-4.1-9-9-9c-3.7,0-6.6-2.9-6.6-6.6V74.3H31.8z M139.7,147.5
	c0,1.6-1.3,2.9-2.9,2.9H26.6c-1.6,0-2.9-1.3-2.9-2.9v-10.8h19.8h76.3h19.8V147.5z M45.2,135.1v-7.5c0-0.5,0.4-1.1,1.1-1.1h71
	c0.5,0,1.1,0.4,1.1,1.1v7.5H45.2z M161.4,122.8c0,6.7-5.5,12.2-12.2,12.2h-8.1h-21.3v-7.5c0-1.5-1.2-2.7-2.7-2.7h-71
	c-1.5,0-2.7,1.2-2.7,2.7v7.5H22h-8.1c-6.7,0-12.2-5.5-12.2-12.2V86.5c0-6.7,5.5-12.2,12.2-12.2h16.3v11.1c0,4.5,3.7,8.2,8.2,8.2
	c4.1,0,7.5,3.4,7.5,7.5v14.3c0,2.5,2,4.5,4.5,4.5h62.4c2.5,0,4.5-2,4.5-4.5v-14.3c0-4.1,3.4-7.5,7.5-7.5c4.5,0,8.2-3.7,8.2-8.2V74.3
	h16.3c6.7,0,12.2,5.5,12.2,12.2v36.3H161.4z M134.6,102c1.3,0,2.5,1.1,2.5,2.6s-1.1,2.6-2.5,2.6c-1.3,0-2.5-1.1-2.5-2.6
	C132.2,103.1,133.3,102,134.6,102z M130.1,113.6c-1.3,1.3-1.8,2.9-1.8,4.5s0.6,3.3,1.8,4.5c2.5,2.5,6.5,2.5,9,0c2.5-2.5,2.5-6.6,0-9
	C136.7,111,132.6,111,130.1,113.6z"/>
</svg>
