<?xml version="1.0" encoding="utf-8"?>
<!-- Generator: Adobe Illustrator 20.1.0, SVG Export Plug-In . SVG Version: 6.00 Build 0)  -->
<svg version="1.1" id="Layer_1" xmlns="http://www.w3.org/2000/svg" xmlns:xlink="http://www.w3.org/1999/xlink" x="0px" y="0px"
	 viewBox="0 0 152 152" style="enable-background:new 0 0 152 152;" xml:space="preserve">
<style type="text/css">
	.st0{fill:#3A3A80;}
</style>
<path class="st0" d="M116.2,85.9c-5.3,0-9.6-4.3-9.6-9.6s4.3-9.6,9.6-9.6c5.3,0,9.6,4.2,9.6,9.6C125.7,81.5,121.5,85.9,116.2,85.9z
	 M116.2,68.1c-4.5,0-8.2,3.7-8.2,8.2c0,4.5,3.7,8.2,8.2,8.2c4.5,0,8.2-3.7,8.2-8.2C124.3,71.8,120.7,68.1,116.2,68.1z M116.2,112
	c2.5,0,4.5,2,4.5,4.5c0,2.5-2,4.5-4.5,4.5c-2.5,0-4.5-2-4.5-4.5C111.7,114.1,113.7,112,116.2,112z M126,141.7H26
	c-8.6,0-15.7-7-15.7-15.7V26c0-8.6,7-15.7,15.7-15.7h99.9c8.6,0,15.7,7,15.7,15.7v99.9C141.7,134.6,134.6,141.7,126,141.7z M26,11.7
	c-7.9,0-14.3,6.4-14.3,14.3v99.9c0,7.9,6.4,14.3,14.3,14.3h99.9c7.9,0,14.3-6.4,14.3-14.3V26c0-7.9-6.4-14.3-14.3-14.3
	C125.9,11.7,26,11.7,26,11.7z M116.2,25c-5.8,0-10.5,4.7-10.5,10.5c0,2.7,1,5.2,2.7,7L83,67.7c-1.8-1.3-3.9-2.1-6.2-2.1
	c-2.5,0-4.9,0.9-6.8,2.4L58.3,56.4L70.6,44c1.8,1.3,3.8,2.1,6.2,2.1c5.8,0,10.5-4.7,10.5-10.5S82.7,25,76.8,25
	c-5.1,0-9.3,3.6-10.3,8.4H46.1c-1-4.8-5.3-8.4-10.3-8.4c-5.8,0-10.5,4.7-10.5,10.5c0,5.5,4.3,10.1,9.9,10.5v19.7
	c-5.4,0.4-9.9,5-9.9,10.5c0,5.8,4.7,10.5,10.5,10.5s10.5-4.7,10.5-10.5c0-5.5-4.3-10.1-9.9-10.5V46c5.4-0.4,9.9-5,9.9-10.5
	c0-0.3,0-0.6,0-0.8h20.1c0,0.3,0,0.6,0,0.8c0,3,1.2,5.7,3.3,7.6L56.3,56.4l12.8,12.8c-1.7,1.9-2.8,4.4-2.8,7.1
	c0,5.8,4.7,10.5,10.5,10.5c2.3,0,4.5-0.8,6.2-2.1L95,96.8l-11.6,11.6c-1.8-1.5-4.1-2.4-6.8-2.4c-2.2,0-4.2,0.7-5.9,1.8L57,93.8
	l-14.5,14.5c-1.8-1.5-4.1-2.4-6.7-2.4c-5.8,0-10.5,4.7-10.5,10.5c0,5.8,4.7,10.5,10.5,10.5s10.5-4.7,10.5-10.5
	c0-2.8-1.1-5.3-2.8-7.2L57,95.7l12.9,12.9c-2.2,2-3.6,4.7-3.6,7.9c0,5.8,4.7,10.5,10.5,10.5s10.5-4.7,10.5-10.5c0-2.7-1-5.3-2.8-7.1
	l12.6-12.6L84.2,83.8c2-1.9,3.2-4.6,3.2-7.6s-1.2-5.6-3.3-7.6l25.1-25.1c1.9,1.6,4.2,2.5,6.9,2.5c5.8,0,10.5-4.7,10.5-10.5
	S122,25,116.2,25z M44.9,76.3c0,5.1-4.1,9.1-9.1,9.1c-5.1,0-9.1-4.1-9.1-9.1c0-5.1,4.1-9.1,9.1-9.1C40.8,67.1,44.9,71.2,44.9,76.3z
	 M35.8,44.7c-5.1,0-9.1-4.1-9.1-9.1s4.1-9.1,9.1-9.1c5.1,0,9.1,4.1,9.1,9.1S40.8,44.7,35.8,44.7z M67.7,35.5c0-5.1,4.1-9.1,9.1-9.1
	c5.1,0,9.1,4.1,9.1,9.1s-4.1,9.1-9.1,9.1C71.8,44.7,67.7,40.5,67.7,35.5z M35.8,125.6c-5.1,0-9.1-4.1-9.1-9.1s4.1-9.1,9.1-9.1
	c5.1,0,9.1,4.1,9.1,9.1S40.8,125.6,35.8,125.6z M76.8,125.6c-5.1,0-9.1-4.1-9.1-9.1s4.1-9.1,9.1-9.1c5.1,0,9.1,4.1,9.1,9.1
	S81.9,125.6,76.8,125.6z M85.9,76.3c0,5.1-4.1,9.1-9.1,9.1c-5.1,0-9.1-4.1-9.1-9.1c0-5.1,4.1-9.1,9.1-9.1
	C81.9,67.1,85.9,71.2,85.9,76.3z M116.2,44.7c-5.1,0-9.1-4.1-9.1-9.1s4.1-9.1,9.1-9.1c5,0,9.1,4.1,9.1,9.1S121.2,44.7,116.2,44.7z"
	/>
</svg>
