<?xml version="1.0" encoding="utf-8"?>
<!-- Generator: Adobe Illustrator 20.1.0, SVG Export Plug-In . SVG Version: 6.00 Build 0)  -->
<svg version="1.1" id="Layer_1" xmlns="http://www.w3.org/2000/svg" xmlns:xlink="http://www.w3.org/1999/xlink" x="0px" y="0px"
	 viewBox="0 0 104.2 104.2" style="enable-background:new 0 0 104.2 104.2;" xml:space="preserve">
<style type="text/css">
	.st0{fill:none;stroke:#231F20;stroke-width:2;stroke-miterlimit:10;}
	.st1{fill:none;stroke:#231F20;stroke-width:2;stroke-linecap:round;stroke-miterlimit:10;}
	.st2{display:none;}
	.st3{font-family:'Stellar-Medium';}
	.st4{font-size:14.2604px;}
</style>
<g id="XMLID_72_">
	<circle id="XMLID_50_" class="st0" cx="52.1" cy="52.2" r="24.4"/>
	<circle id="XMLID_49_" class="st0" cx="52.1" cy="52.2" r="51"/>
	<polyline id="XMLID_57_" class="st1" points="16.8,47.2 11.8,52.2 16.8,57.1 	"/>
	<polyline id="XMLID_54_" class="st1" points="57.1,16.8 52.1,11.9 47.2,16.8 	"/>
	<polyline id="XMLID_67_" class="st1" points="87.5,57.1 92.4,52.2 87.5,47.2 	"/>
	<polyline id="XMLID_66_" class="st1" points="47.2,87.5 52.1,92.4 57.1,87.5 	"/>
	<line id="XMLID_52_" class="st0" x1="16.1" y1="16.1" x2="34.9" y2="34.9"/>
	<line id="XMLID_69_" class="st0" x1="88.2" y1="88.2" x2="69.4" y2="69.4"/>
	<line id="XMLID_68_" class="st0" x1="34.9" y1="69.4" x2="16.1" y2="88.2"/>
	<line id="XMLID_70_" class="st0" x1="88.2" y1="16.1" x2="69.3" y2="34.9"/>
	<text id="XMLID_71_" transform="matrix(1 0 0 1 44.1222 56.41)" class="st2 st3 st4">ok</text>
</g>
<polygon id="XMLID_1_" points="47.7,45.9 58.6,52.2 47.7,58.5 "/>
</svg>
