<?xml version="1.0" encoding="utf-8"?>
<!-- Generator: Adobe Illustrator 20.1.0, SVG Export Plug-In . SVG Version: 6.00 Build 0)  -->
<svg version="1.1" id="Layer_1" xmlns="http://www.w3.org/2000/svg" xmlns:xlink="http://www.w3.org/1999/xlink" x="0px" y="0px"
	 viewBox="0 0 109.6 110.2" style="enable-background:new 0 0 109.6 110.2;" xml:space="preserve">
<style type="text/css">
	.st0{fill:none;stroke:#231F20;stroke-width:2;stroke-miterlimit:10;}
	.st1{fill:#231F20;}
	.st2{fill:#FFF000;}
</style>
<g id="XMLID_1_">
	<circle id="XMLID_2_" class="st0" cx="54.9" cy="55.5" r="51"/>
	<path id="XMLID_3_" class="st0" d="M54.9,92.3C34.5,92.3,18,75.8,18,55.5c0-20.3,16.5-36.8,36.8-36.8s36.8,16.5,36.8,36.8
		C91.7,75.8,75.2,92.3,54.9,92.3z"/>
	<path id="XMLID_4_" class="st0" d="M54.9,78.2c-12.5,0-22.7-10.2-22.7-22.7c0-12.5,10.2-22.7,22.7-22.7c12.5,0,22.7,10.2,22.7,22.7
		C77.5,68,67.4,78.2,54.9,78.2z"/>
	<circle id="XMLID_5_" class="st1" cx="54.9" cy="55.5" r="8.5"/>
	<circle id="XMLID_9_" class="st1" cx="105.9" cy="55.5" r="3.7"/>
	
		<ellipse id="XMLID_14_" transform="matrix(0.7071 -0.7071 0.7071 0.7071 2.9788 65.9386)" class="st1" cx="81.1" cy="29.4" rx="3.7" ry="3.7"/>
	<circle id="XMLID_12_" class="st1" cx="3.8" cy="55.5" r="3.7"/>
	
		<ellipse id="XMLID_16_" transform="matrix(0.7071 -0.7071 0.7071 0.7071 -49.131 44.354)" class="st1" cx="29" cy="81.5" rx="3.7" ry="3.7"/>
	<circle id="XMLID_10_" class="st1" cx="54.9" cy="4" r="3.7"/>
	
		<ellipse id="XMLID_13_" transform="matrix(0.7071 -0.7071 0.7071 0.7071 -12.1369 28.7367)" class="st1" cx="28.6" cy="29" rx="3.7" ry="3.7"/>
	<circle id="XMLID_11_" class="st1" cx="54.9" cy="106.5" r="3.7"/>
	
		<ellipse id="XMLID_15_" transform="matrix(0.7071 -0.7071 0.7071 0.7071 -33.8684 81.2011)" class="st1" cx="81.1" cy="81.5" rx="3.7" ry="3.7"/>
	<g id="XMLID_6_">
		<path id="XMLID_7_" class="st2" d="M51.1,54.5h2.7v-2.7h2.2v2.7h2.7v2h-2.7v2.7h-2.2v-2.7h-2.7V54.5z"/>
	</g>
</g>
</svg>
