<?xml version="1.0" encoding="utf-8"?>
<!-- Generator: Adobe Illustrator 20.1.0, SVG Export Plug-In . SVG Version: 6.00 Build 0)  -->
<svg version="1.1" id="Layer_1" xmlns="http://www.w3.org/2000/svg" xmlns:xlink="http://www.w3.org/1999/xlink" x="0px" y="0px"
	 viewBox="0 0 109.8 110.5" style="enable-background:new 0 0 109.8 110.5;" xml:space="preserve">
<style type="text/css">
	.st0{fill:none;stroke:#231F20;stroke-width:2;stroke-miterlimit:10;}
	.st1{fill:none;stroke:#231F20;stroke-width:2;stroke-linecap:round;stroke-miterlimit:10;}
</style>
<g id="XMLID_44_">
	<polygon id="XMLID_20_" class="st0" points="90.1,44.7 66.6,40.7 54.6,18.2 42.6,40.7 19.2,44.7 37.2,61.6 32.6,85.8 54.6,73.7 
		76.7,85.8 72.1,61.6 	"/>
	<g id="XMLID_18_">
		<line id="XMLID_21_" class="st1" x1="42.8" y1="11.5" x2="40.4" y2="2.7"/>
		<line id="XMLID_23_" class="st1" x1="22.2" y1="23.4" x2="15.7" y2="16.9"/>
		<line id="XMLID_24_" class="st1" x1="10.4" y1="43.9" x2="1.5" y2="41.5"/>
		<line id="XMLID_25_" class="st1" x1="10.4" y1="67.6" x2="1.5" y2="70"/>
		<line id="XMLID_26_" class="st1" x1="22.2" y1="88.1" x2="15.7" y2="94.6"/>
		<line id="XMLID_27_" class="st1" x1="42.8" y1="100" x2="40.4" y2="108.8"/>
		<line id="XMLID_28_" class="st1" x1="66.5" y1="100" x2="68.8" y2="108.8"/>
		<line id="XMLID_29_" class="st1" x1="87" y1="88.1" x2="93.5" y2="94.6"/>
		<line id="XMLID_30_" class="st1" x1="98.8" y1="67.6" x2="107.7" y2="70"/>
		<line id="XMLID_31_" class="st1" x1="98.8" y1="43.9" x2="107.7" y2="41.5"/>
		<line id="XMLID_32_" class="st1" x1="87" y1="23.4" x2="93.5" y2="16.9"/>
		<line id="XMLID_33_" class="st1" x1="66.8" y1="11.6" x2="69.2" y2="2.7"/>
	</g>
</g>
</svg>
