<?xml version="1.0" encoding="utf-8"?>
<!-- Generator: Adobe Illustrator 20.1.0, SVG Export Plug-In . SVG Version: 6.00 Build 0)  -->
<svg version="1.1" id="Layer_1" xmlns="http://www.w3.org/2000/svg" xmlns:xlink="http://www.w3.org/1999/xlink" x="0px" y="0px"
	 viewBox="0 0 348.7 348.7" style="enable-background:new 0 0 348.7 348.7;" xml:space="preserve">
<style type="text/css">
	.st0{fill:#CC2128;stroke:#CC2128;stroke-miterlimit:10;}
	.st1{fill:none;stroke:#CC2128;stroke-miterlimit:10;}
</style>
<g id="XMLID_14181_">
	<path id="XMLID_14195_" class="st0" d="M144.7,63.1c-0.5,0.1-0.8,1-0.8,2.2c0.8-0.3,1.6-0.6,2.4-0.8
		C145.8,63.5,145.2,63,144.7,63.1L144.7,63.1z M245.5,207.7l2.7-3.7l1.3-2.2c1.8,0.6,3.6,1.2,5.1,1.9c2.1,0.9,4.8,8,10.9,14.1
		c1.5,1.5,4.9,4,8.7,6.4l15.4,9.1c3.5,2.7,6.8,5.9,8.5,7.7c1.7,1.9,2.7,4.6,1.1,6.1c-1.5,1.5-3.6,4.7,3,4.7c6.6,0,37.1,0.3,40.6,0.3
		c3.6,0,6-2.6-0.3-3.6c-6.2-1-22.2-3.6-28.4-6c-6.2-2.4-17.1-7.4-22.5-14.7c-5.5-7.2-10.2-13.1-14.4-16.5
		c-4.2-3.4-11.7-7.4-15.1-12.3c-2.4-3.4-4.2-6.3-6.6-8.2l0.9-3.2l2.1-4.1l1.1-4.5l2-4.2l1.2-4.4l0.5-4.6l1.8-4.3l-0.3-4.8l0.5-4.6
		l0.7-4.6l1.2-4.7l-0.2-3.6l-0.5-4.9l0.2-4.9l-0.7-4.8l-0.7-4.8l-1.2-5.4l-1.8-5.2l-0.9-5.4l-1.5-5.2l-2.1-4.9l-2.4-4.8l-2.3-4.8
		l-0.1-0.2c0.9-2.9,1.5-6.2,0.9-7.7c-0.9-2.3-1.3-1.5-2.2-1.7c-0.9-0.1-1.2-2.3-0.9-3.3c0.3-1-2-3.5-4.2,0.1
		c-0.1,0.1-0.1,0.2-0.2,0.3l-0.9-1.6l-2.5-4l-3.2-4.2l-3.5-3.1l-2.4-4.1l-3.6-2.9l-3.5-3.9l-4.1-2.2l-3.4-3l-3.6-2.8l-3.8-2.5
		l-3.9-2.4l-3.3-3.4l-4.2-1.9l-4-2.3l-4.3-1.6l-4.2-1.9l-4.5-1l-4.3-1.8l-4.6-0.5l-4.4-1.6l-4.5-0.9L161,18l-4.6-0.4l-4.5-1.4
		l-4.7,0.1l-3.7,0.5l-4.9-0.5l-4.8,0.8l-4.8,0.4l-4.9-0.2l-4.6,1.6l-4.7,1l-4.8,0.6l-4.5,1.6l-4.5,1.4l-4.5,1.5l-3.8,3l-4.3,1.8
		l-4,2.4l-4.4,1.8l-4.1,2.3l-2.9,2.8l4.2-3.3l4.6-2.4l5-1.6l4.8-2.1l4.8-2l4.7-2.5l4.4-1.4l4.7-0.2l4.4-1.3l4.5-1l4.7,0.2l4.5-1.5
		l4.7,0.5l4.1-0.3l4.9-0.7l4.8,1.7l4.8,0.2l4.9-0.1l5.4,1.2l5.1,2l5.6,0.3l5,2.2l4.9,2.3l4.8,2.3l5.4,1.1l4.4,3.1l4.1,2.1l4.5,2.8
		l3.3,3.3l3.6,2.8l4.5,2.8l3.3,3.2l3,3.5l3.8,2.8L230,63l3,3.5l2.6,4.6l2.6,3.8l3.4,3.2l0.6,1.4c-0.6,1.1-1.1,2.1-1.3,2.6
		c-0.8,1.5-0.9,5.6,0.3,7.4c1.1,1.8,2.6,3.1,1.1,6.4c-1.4,3.3-16,30.5-20,34.8c-4,4.3-5.8,4.3-7.9,1.5c-7.4-9.7-14.2-19.6-17.6-25
		c-2.2-3.5-3.6-10.6-4.9-11.9c-3-3.1-5.1-3.5-7.5-1.9c-3.5,2.2-6.3,4.8-9.5,6.4c-2,1-4.7,2-6.4-2.8c-1.5-4.2-4.4-17-0.6-20.1
		c4-3.3,6.3-5.7,4.2-10.5c-2.2-5.1-15.4-5.1-25.9-1.7c0.3,0.5,0.5,1.1,0.7,1.7c0.5,1.9,0.2,3.6-0.6,3.8c-0.8,0.2-1.8-1.2-2.3-3.1
		c-0.1-0.6-0.2-1.1-0.2-1.6c-1,0.4-2.1,0.8-3,1.3c-5.9,2.9-8.4,11.9-5.2,17.6c3.2,5.7,10,8.3,15.6,4.9c2.9-1.7,5.1-6.2,6.6-2.5
		c3.2,8,0,21.2-8.7,20.6c-3.3-0.2-11-1.2-17.9,7.3c-3.8,4.7-13.8,18.3-20.1,27.7c-5.6,8.4-7.1,9.7-12.3,6
		c-5.2-3.7-19.9-17.9-23.8-27c-1-2.4-1.6-4.2-0.7-7c0.5,0.4,0.7,0.7,1.6,0.6c2.7-3.1,2.2-6.5,5.9-8.5c0.5-0.7,0.4-1.8-0.4-2.5
		L94.7,93l15-11.7l15.6-11.1l15.4-12.3l13.7-11.8l-0.5,6l11.8-16.3l-4.4,1.7l-14.1,5.9l6,1.4l-15.8,12.3l-16.3,11.5l-15.4,12.8
		L90.4,93.7L79,102.6c0-0.1,0-0.3,0.1-0.6c0.8-3.8,0.9-4.8-0.8-5.9c-1.7-1-3.7-0.1-7,4.4c-1.9,2.6-3,5.4-2.7,9.8l-9.4,6.8l-15,11.8
		l-15.1,12.7l-12.4,9.8c-1.5-1.4-3.4-2.4-5.5-2.6l-0.2,2.4c1.9,0.2,3.6,1.1,4.8,2.6c1.2,1.5,1.7,3.3,1.5,5.2l2.4,0.3
		c0.2-2.2-0.3-4.3-1.5-6.2l13.8-11.5l15.7-12.3L63.4,117l5.7-4c0.4,2.3,1.2,5,2.3,8.3c1.8,5.2,12.9,27.2,26.6,35.8
		c8.6,5.3,8.3,2.4,9.4,0.5c1.2-1.9,15.7-21.2,21.9-26.4c10.2-8.5,14.5-10.6,18.8-9.9c4.8,0.8,8.8,2.5,9.5,8.8
		c0.8,7,1.7,18.1-0.1,28.7c-1.8,10.6-6.1,17.7-7.6,20.1c-1.5,2.4-3.7,5.6-7.7,4.3c-4.9-1.6-13-3.2-17.8-3.7
		c-6.3-3.8-26.4-13.7-35-16.5c-5.9-2-8.8-2-10.2-2.5c-1.4-0.5-6.5-3.6-7.9,1.4c-1.4,5,0.6,8.3,2.8,11.4c2.2,3.2,2.2,9,3.6,14.9
		c2.7,11.3,8.6,20.8,18.9,35.9c6.9,10.1,8.5,12.4,8.2,14.4c-0.4,2.1-5.6,7-11.6,8c-6.2,1-16.3,1.5-18.1,2.8
		c-1.2,0.9,4.3,1.6,7.4,1.6c3.1,0,28.1,0,32.5,0h0.4c2.6,0,4-0.7,4.4-2.2c0.5-1.5-3.8-6.5-4.1-6.8c-5.7-7.2-14.5-20.8-16.6-31.4
		c-2.5-12.9-5.2-19.1-9.5-23.8c-4.3-4.7-5.6-7.3-4.4-10.7c0.5-1.5,3,0.1,4.1,1.5c1.1,1.4,18.3,17.7,35.3,24.4
		c3.5,1.4,6.8,2.5,10.1,3.6c1.9,4,5.9,6.7,10.5,6.7c2.8,0,5.3-1,7.3-2.6c0.4,0,0.9,0.1,1.3,0.2c2,1.5,4.4,2.4,7,2.4
		c2.2,0,4.3-0.6,6-1.7c2.2,0,4.5-0.1,6.8-0.3c20-1.6,36.5-4.5,47-7.1c10.1-2.5,17.9-4.4,23.8-2.8l-0.5,1l-2.4,4.8l-2,4.3l-2.6,3.9
		l-3.3,3.4l-4.6,6.9l-2.1,2.1l-3.2,2.6l-2.8,2.1l-2.5,3.6l-1,0.9l-4.7,3.2l-3.4,2.7l-4,3.2l-2.3,1.2l-3.8,2.8l-4.6,1.4l-3.7,2.6
		l5.1-1.8l4.8-3.1l7.7-3.8l1.6-2l4.3-1.7l2.3-1.9l3.4-2.9l2-2.6l4.4-3.4l4.7-4.1l1.2-1.2l4.5-5l3.1-4.2l2.7-3.7L245.5,207.7
		L245.5,207.7z M149.2,80.9c-0.8,0.2-1.8-1.2-2.3-3.1c-0.5-1.9-0.2-3.6,0.6-3.8c0.8-0.2,1.8,1.2,2.3,3.1
		C150.3,79,150,80.7,149.2,80.9L149.2,80.9z M236.1,189.2c-3.3-0.1-25.7-3.4-36.3-3.4c-10.6,0-24.3,1.1-27.6,1.6
		c-3.3,0.5-5-1.1-3.4-3.7c1.5-2.5,10.9-18.6,12.7-29.5c1.8-10.9,1.8-18.3,1.2-24.6c-0.4-3.9,0-12.7,3.8-14.9c2-1.1,3.9-1,6.5,2.3
		c2.6,3.3,15.6,22.7,21,27.5c2.3,2,3.6,3.6,6.9,0c5.8-6.4,18-32.8,23.5-43.9c2-3.9,3.2-6.3,4.1-8l1.2,1.8l1.8,4.2l1.7,4.3l1.4,4.4
		l0.6,4.6l1.1,4.5l0.8,4.5l1.2,4.5l0.1,4.6l0.5,4.6l0.4,4.7l-0.1,3.5l0.2,5l-0.8,4.9l-0.1,4.9l-1,5.5l-0.6,5.5l-1.2,5.4l-1.1,4.7
		l-1.6,5.2l-2.2,4.3l-0.4,0.7C245.8,187.9,239.7,189.3,236.1,189.2L236.1,189.2z"/>
	<path id="XMLID_14182_" class="st0" d="M61.4,302.5c0-10.4-5.5-20.1-24.7-20.1c-9.4,0-17.2,2.1-21.6,4.2l2.9,7.8
		c4-2.1,10.2-3.5,16.1-3.5c10.6,0,12.2,5.2,12.2,8.3v0.8c-22.1-0.1-35.4,6-35.4,18.1c0,7.3,6.7,14.2,18.8,14.2
		c7.7,0,14-2.7,17.6-6.4h0.4l1,5.3h13.6c-0.6-3-0.9-7.2-0.9-11.5V302.5L61.4,302.5z M46.7,314.5c0,0.8-0.1,1.8-0.5,2.6
		c-1.4,3.4-5.8,6.6-11.8,6.6c-4.8,0-8.6-2.1-8.6-6.9c0-7.3,10.2-9.1,20.9-8.9V314.5L46.7,314.5z M103.6,282.7
		c-1.2-0.2-2.1-0.3-3.6-0.3c-6.4,0-13.4,3.4-16.3,10.2h-0.5l-0.5-9.1H69.6c0.4,4.3,0.5,8.9,0.5,15.4v32.4h15.1v-24.7
		c0-1.4,0.3-2.6,0.5-3.7c1.4-5.4,6.3-9.1,13.5-9.1c1.8,0,3.2,0.2,4.4,0.4V282.7L103.6,282.7z M136.5,291.8c5.4,0,8.9,1,11.4,1.9
		l2.7-9c-3.4-1.3-9.1-2.2-14.6-2.2c-21,0-33.2,11.2-33.2,25.5c0,14.8,12.1,24.4,30.8,24.4c7.5,0,13.7-1.4,16.9-2.5l-2.1-8.9
		c-3,1-6.6,1.9-11.9,1.9c-10.3,0-18.3-5.6-18.3-15.4C118.1,298.6,125,291.8,136.5,291.8L136.5,291.8z M187.8,282.4
		c-3.8,0-7.3,0.8-10.3,2.1c-3.1,1.3-5.6,3.2-7.5,5.5h-0.2v-28.5h-15.2v69.7h15.2v-28.6c0-1.4,0.1-2.6,0.6-3.6
		c1.6-3.6,5.8-6.8,11.6-6.8c8.3,0,11.5,5.2,11.5,12.2v26.8h15.1v-28.2C208.7,287.8,198,282.4,187.8,282.4L187.8,282.4z M242.9,282.4
		c-19.1,0-29.2,12.5-29.2,25.7c0,14.6,11.4,24.2,30.8,24.2c8.6,0,15.7-1.4,20.8-3l-2.2-8.3c-4.5,1.4-9.5,2.2-16.6,2.2
		c-9.6,0-18-3.7-18.4-12.4h40c0.2-1.1,0.5-2.8,0.5-5.1C268.7,295.1,262.4,282.4,242.9,282.4L242.9,282.4z M228.2,302.3
		c0.6-4.9,4.5-11.7,13.8-11.7c10.1,0,12.5,7.3,12.4,11.7H228.2L228.2,302.3z M287.9,292.6h-0.5l-0.5-9.1h-13.1
		c0.4,4.3,0.5,8.9,0.5,15.4v32.4h15.1v-24.7c0-1.4,0.2-2.6,0.5-3.7c1.4-5.4,6.3-9.1,13.5-9.1c1.8,0,3.2,0.2,4.4,0.4v-11.4
		c-1.2-0.2-2.1-0.3-3.6-0.3C297.9,282.4,290.9,285.8,287.9,292.6L287.9,292.6z M337.3,289.6v-0.1c1.3-0.4,2.4-1.3,2.4-2.7
		c0-1.1-0.5-1.9-1.2-2.4c-0.8-0.6-1.7-0.9-3.9-0.9c-1.9,0-3.4,0.2-4.4,0.3v11.5h2.6v-4.5h1.3c1.5,0,2.2,0.5,2.4,1.7
		c0.4,1.4,0.6,2.4,0.9,2.8h2.8c-0.2-0.4-0.5-1.1-0.8-2.8C339,290.8,338.5,289.9,337.3,289.6L337.3,289.6z M334.2,288.7h-1.3v-3.3
		c0.3-0.1,0.8-0.1,1.5-0.1c1.7,0,2.4,0.7,2.4,1.7C336.9,288.3,335.7,288.7,334.2,288.7L334.2,288.7z M334.8,277.8L334.8,277.8
		c-6.6,0-11.9,5-11.9,11.5c0,6.4,5.2,11.5,11.8,11.5c6.6,0,11.7-5.1,11.7-11.5C346.4,282.8,341.2,277.8,334.8,277.8L334.8,277.8z
		 M334.8,298.4c-5.1,0-8.9-4-8.9-9.1c0-5,3.8-9.1,8.8-9.1h0.1c5,0,8.8,4.1,8.8,9.2C343.5,294.3,339.7,298.4,334.8,298.4L334.8,298.4
		z"/>
</g>
<rect x="-12232" y="-10429" class="st1" width="24920.1" height="18977.6"/>
</svg>
