<?xml version="1.0" encoding="utf-8"?>
<!-- Generator: Adobe Illustrator 20.1.0, SVG Export Plug-In . SVG Version: 6.00 Build 0)  -->
<svg version="1.1" id="Layer_1" xmlns="http://www.w3.org/2000/svg" xmlns:xlink="http://www.w3.org/1999/xlink" x="0px" y="0px"
	 viewBox="0 0 427.1 72.6" style="enable-background:new 0 0 427.1 72.6;" xml:space="preserve">
<style type="text/css">
	.st0{fill:#CC2128;}
</style>
<g>
	<path class="st0" d="M38.8,17.4c-0.2,0-0.2,0.3-0.2,0.6c0.2-0.1,0.5-0.2,0.7-0.2C39.1,17.6,39,17.4,38.8,17.4L38.8,17.4z
		 M68.1,59.4l0.8-1.1l0.4-0.6c0.5,0.2,1,0.4,1.5,0.6c0.6,0.3,1.4,2.3,3.2,4.1c0.4,0.4,1.4,1.2,2.5,1.9l4.5,2.6c1,0.8,2,1.7,2.5,2.2
		s0.8,1.3,0.3,1.8c-0.4,0.4-1,1.4,0.9,1.4s10.8,0.1,11.8,0.1s1.7-0.7-0.1-1c-1.8-0.3-6.4-1-8.2-1.7c-1.8-0.7-5-2.1-6.5-4.3
		c-1.6-2.1-3-3.8-4.2-4.8s-3.4-2.2-4.4-3.6c-0.7-1-1.2-1.8-1.9-2.4l0.3-0.9l0.6-1.2l0.3-1.3L73,50l0.3-1.3l0.2-1.3l0.5-1.3l-0.1-1.4
		l0.1-1.3l0-1.4l0.3-1.4l-0.1-1l-0.1-1.4l0.1-1.4L74,35.3l-0.2-1.4l-0.4-1.6l-0.5-1.5l-0.3-1.6l-0.4-1.5l-0.6-1.4L70.9,25l-0.7-1.4
		v-0.1c0.3-0.8,0.4-1.8,0.3-2.2c-0.3-0.7-0.4-0.4-0.6-0.5c-0.3,0-0.3-0.7-0.3-1c0.1-0.3-0.6-1-1.2,0c0,0,0,0.1-0.1,0.1L68,19.5
		l-0.7-1.1l-0.9-1.2l-1-0.9l-0.7-1.2l-1.1-0.8l-1-1.1l-1.2-0.6l-1-0.9l-1.1-0.8l-1.1-0.7l-1.1-0.7l-1-1L55,7.8l-1.2-0.7l-1.3-0.5
		L51.3,6L50,5.9l-1.2-0.5l-1.3-0.2l-1.3-0.5l-1.3-0.3l-1.3-0.1l-1.3-0.1L41,3.8h-1.4L38.5,4L37,3.9l-1.4,0.2l-1.4,0.1l-1.4-0.1
		l-1.3,0.4l-1.4,0.3L28.7,5l-1.3,0.5L26.1,6l-1.3,0.4l-1.1,0.9l-1.3,0.5l-1.2,0.7L20,9l-1.2,0.7L18,10.5l1.2-1l1.3-0.7L22,8.4
		l1.4-0.6l1.4-0.6l1.4-0.7l1.3-0.4L28.8,6l1.3-0.4l1.3-0.3l1.4,0.1L34.1,5l1.4,0.1L36.7,5l1.4-0.2l1.4,0.5l1.4,0.1h1.4l1.6,0.3
		l1.5,0.6L47,6.4L48.4,7l1.4,0.7l1.4,0.7l1.6,0.3L54,9.6l1.2,0.6l1.3,0.8l1,1l1,0.8l1.3,0.8l1,0.9l0.9,1l1.1,0.8l0.8,1.1l0.9,1
		l0.7,1.3l0.8,1.1l1,0.9l0.2,0.4c-0.2,0.3-0.3,0.6-0.4,0.8c-0.2,0.4-0.3,1.6,0.1,2.1c0.3,0.5,0.7,0.9,0.3,1.8
		c-0.4,1-4.7,8.8-5.8,10.1c-1.2,1.3-1.7,1.2-2.3,0.4C57,34.5,55,31.6,54,30c-0.6-1-1-3.1-1.4-3.5c-0.9-0.9-1.5-1-2.2-0.6
		c-1,0.6-1.8,1.4-2.8,1.9c-0.6,0.3-1.4,0.6-1.8-0.8c-0.4-1.2-1.3-4.9-0.2-5.8c1.2-0.9,1.8-1.7,1.2-3.1c-0.6-1.5-4.5-1.5-7.5-0.5
		c0.1,0.1,0.2,0.3,0.2,0.5c0.1,0.6,0.1,1-0.2,1.1c-0.2,0.1-0.5-0.3-0.7-0.9c0-0.2-0.1-0.3-0.1-0.5c-0.3,0.1-0.6,0.2-0.9,0.4
		c-1.7,0.9-2.4,3.5-1.5,5.1c0.9,1.7,2.9,2.4,4.5,1.4c0.8-0.5,1.5-1.8,1.9-0.7c0.9,2.3,0,6.1-2.5,6c-0.9-0.1-3.2-0.4-5.2,2.1
		c-1.1,1.4-4,5.3-5.8,8.1c-1.6,2.4-2.1,2.8-3.6,1.7s-5.8-5.2-6.9-7.8c-0.3-0.7-0.5-1.2-0.2-2c0.2,0.1,0.2,0.2,0.5,0.2
		c0.8-0.9,0.6-1.9,1.7-2.5c0.2-0.2,0.1-0.5-0.1-0.7l3.8-3.1l4.3-3.4l4.5-3.2l4.5-3.6l4-3.4l-0.1,1.7l3.4-4.7L43.6,10l-4.1,1.7
		l1.8,0.4l-4.6,3.6L32,19l-4.5,3.7l-4.4,3.6l-3.3,2.6c0,0,0-0.1,0-0.2c0.2-1.1,0.3-1.4-0.2-1.7c-0.5-0.3-1.1,0-2,1.3
		c-0.6,0.8-0.9,1.6-0.8,2.8l-2.7,2l-4.4,3.4l-4.4,3.7L1.7,43c-0.4-0.4-1-0.7-1.6-0.7L0,43c0.5,0.1,1,0.3,1.4,0.8
		c0.3,0.4,0.5,1,0.4,1.5l0.7,0.1c0.1-0.6-0.1-1.3-0.4-1.8l4-3.3l4.5-3.6l4.6-3.6l1.6-1.2c0.1,0.7,0.3,1.5,0.7,2.4
		c0.5,1.5,3.7,7.9,7.7,10.4c2.5,1.5,2.4,0.7,2.7,0.1c0.3-0.6,4.6-6.1,6.4-7.7c3-2.5,4.2-3.1,5.4-2.9c1.4,0.2,2.6,0.7,2.8,2.5
		c0.2,2,0.5,5.2,0,8.3s-1.8,5.1-2.2,5.8s-1.1,1.6-2.2,1.3c-1.4-0.5-3.8-0.9-5.2-1.1c-1.8-1.1-7.7-4-10.2-4.8c-1.7-0.6-2.5-0.6-3-0.7
		c-0.4-0.1-1.9-1-2.3,0.4s0.2,2.4,0.8,3.3c0.6,0.9,0.6,2.6,1,4.3c0.8,3.3,2.5,6,5.5,10.4c2,2.9,2.5,3.6,2.4,4.2s-1.6,2-3.4,2.3
		s-4.7,0.4-5.3,0.8c-0.4,0.3,1.3,0.5,2.1,0.5c0.9,0,8.2,0,9.4,0H30c0.8,0,1.1-0.2,1.3-0.6c0.1-0.4-1.1-1.9-1.2-2
		c-1.7-2.1-4.2-6-4.8-9.1c-0.7-3.7-1.5-5.5-2.8-6.9S20.9,51,21.2,50c0.2-0.4,0.9,0,1.2,0.4c0.3,0.4,5.3,5.1,10.3,7.1
		c1,0.4,2,0.7,2.9,1c0.5,1.1,1.7,2,3.1,2c0.8,0,1.5-0.3,2.1-0.8c0.1,0,0.2,0,0.4,0.1c0.6,0.4,1.3,0.7,2,0.7c0.6,0,1.2-0.2,1.7-0.5
		c0.6,0,1.3,0,2-0.1c5.8-0.5,10.6-1.3,13.6-2.1c2.9-0.7,5.2-1.3,6.9-0.8l-0.2,0.3L67,58.9l-0.6,1.2l-0.8,1.1l-0.9,1l-1.3,2l-0.6,0.6
		l-0.9,0.8L61,66.2l-0.7,1L60,67.5l-1.4,0.9l-1,0.8l-1.2,0.9l-0.7,0.4l-1.1,0.8l-1.3,0.4l-1.1,0.8l1.5-0.5l1.4-0.9l2.2-1.1l0.5-0.6
		l1.2-0.5l0.7-0.5l1-0.9l0.6-0.7l1.3-1l1.4-1.2l0.3-0.3l1.3-1.4l0.9-1.2l0.8-1.1L68.1,59.4L68.1,59.4z M40.1,22.6
		c-0.2,0.1-0.5-0.3-0.7-0.9c-0.1-0.6-0.1-1.1,0.2-1.1c0.2-0.1,0.5,0.3,0.7,0.9C40.4,22.1,40.4,22.5,40.1,22.6L40.1,22.6z M65.3,54.1
		c-1,0-7.5-1-10.5-1c-3.1,0-7.1,0.3-8,0.5c-1,0.2-1.4-0.3-1-1.1c0.4-0.7,3.2-5.4,3.7-8.6c0.5-3.2,0.5-5.3,0.3-7.1
		c-0.1-1.1,0-3.7,1.1-4.3c0.6-0.3,1.1-0.3,1.9,0.7c0.7,1,4.5,6.6,6.1,8c0.7,0.6,1.1,1,2,0c1.7-1.9,5.2-9.5,6.8-12.8
		c0.6-1.1,0.9-1.8,1.2-2.3l0.3,0.5l0.5,1.2l0.5,1.2l0.4,1.3l0.2,1.3l0.3,1.3l0.2,1.3l0.4,1.3v1.3l0.2,1.3l0.1,1.4v1l0.1,1.4
		l-0.2,1.4v1.4l-0.3,1.6L71.4,48L71,49.6L70.7,51l-0.5,1.5l-0.6,1.2l-0.1,0.2C68.2,53.7,66.4,54.1,65.3,54.1L65.3,54.1z"/>
	<path class="st0" d="M150.2,43.6c0-10.1-5.4-19.5-24-19.5c-9.2,0-16.7,2-21,4.1l2.9,7.6c3.9-2,9.9-3.4,15.6-3.4
		c10.3,0,11.8,5.1,11.8,8.1v0.8c-21.4-0.1-34.4,5.8-34.4,17.5c0,7.1,6.6,13.8,18.2,13.8c7.5,0,13.6-2.6,17.2-6.2h0.4l1,5.1H151
		c-0.6-2.9-0.8-7-0.8-11.2V43.6L150.2,43.6z M135.9,55.2c0,0.8-0.1,1.7-0.5,2.6c-1.3,3.3-5.6,6.4-11.4,6.4c-4.6,0-8.3-2.1-8.3-6.7
		c0-7.1,9.9-8.9,20.3-8.7L135.9,55.2L135.9,55.2z M191.1,24.3c-1.2-0.2-2-0.3-3.5-0.3c-6.2,0-13,3.3-15.9,9.9h-0.5l-0.5-8.9H158
		c0.4,4.2,0.5,8.7,0.5,15v31.5h14.7v-24c0-1.3,0.2-2.6,0.5-3.6c1.3-5.2,6.1-8.9,13.1-8.9c1.8,0,3.1,0.2,4.3,0.4L191.1,24.3
		L191.1,24.3z M223.1,33.2c5.2,0,8.7,1,11.1,1.8l2.6-8.8C233.5,25,228,24,222.7,24c-20.4,0-32.3,10.9-32.3,24.8
		c0,14.4,11.8,23.7,29.9,23.7c7.3,0,13.4-1.3,16.5-2.5l-2-8.7c-2.9,1-6.4,1.8-11.6,1.8c-10,0-17.8-5.4-17.8-15
		C205.3,39.8,211.9,33.2,223.1,33.2L223.1,33.2z M273,24c-3.7,0-7.1,0.8-10,2.1c-3,1.2-5.5,3.2-7.3,5.3h-0.2V3.8h-14.8v67.7h14.8
		V43.8c0-1.3,0.1-2.6,0.6-3.5c1.5-3.5,5.6-6.6,11.3-6.6c8.1,0,11.2,5.1,11.2,11.8v26h14.7V44.2C293.2,29.3,282.9,24,273,24L273,24z
		 M326.5,24c-18.6,0-28.4,12.1-28.4,25c0,14.2,11.1,23.5,29.9,23.5c8.3,0,15.2-1.3,20.3-2.9l-2.2-8.1c-4.4,1.3-9.3,2.1-16.1,2.1
		c-9.3,0-17.5-3.6-17.9-12h38.8c0.2-1,0.5-2.8,0.5-5C351.5,36.4,345.5,24,326.5,24L326.5,24z M312.2,43.4
		c0.6-4.8,4.4-11.3,13.5-11.3c9.8,0,12.2,7.1,12,11.3H312.2L312.2,43.4z M370.3,33.9h-0.5l-0.5-8.9h-12.7c0.3,4.2,0.5,8.7,0.5,15
		v31.5h14.7v-24c0-1.3,0.2-2.6,0.5-3.6c1.3-5.2,6.1-8.9,13.1-8.9c1.8,0,3.1,0.2,4.3,0.4V24.3c-1.2-0.2-2-0.3-3.5-0.3
		C379.9,24,373.1,27.4,370.3,33.9L370.3,33.9z M418.3,31v-0.1c1.3-0.4,2.3-1.3,2.3-2.6c0-1.1-0.5-1.9-1.2-2.4
		c-0.7-0.6-1.7-0.9-3.8-0.9c-1.8,0-3.3,0.2-4.3,0.3v11.1h2.6V32h1.2c1.4,0,2.1,0.5,2.3,1.7c0.3,1.4,0.5,2.3,0.9,2.7h2.7
		c-0.2-0.4-0.5-1-0.8-2.7C419.9,32.2,419.4,31.4,418.3,31L418.3,31z M415.2,30.2H414V27c0.3-0.1,0.7-0.1,1.4-0.1
		c1.6,0,2.4,0.7,2.4,1.7C417.8,29.7,416.6,30.2,415.2,30.2L415.2,30.2z M415.8,19.6L415.8,19.6c-6.4,0-11.5,4.9-11.5,11.1
		s5.1,11.2,11.5,11.2c6.4,0,11.4-4.9,11.4-11.2C427.1,24.5,422.1,19.6,415.8,19.6L415.8,19.6z M415.8,39.6c-5,0-8.7-3.9-8.7-8.9
		c0-4.9,3.7-8.9,8.6-8.9h0.1c4.9,0,8.5,4,8.5,9C424.2,35.6,420.6,39.6,415.8,39.6L415.8,39.6z"/>
</g>
</svg>
