<?xml version="1.0" encoding="utf-8"?>
<!-- Generator: Adobe Illustrator 20.1.0, SVG Export Plug-In . SVG Version: 6.00 Build 0)  -->
<svg version="1.1" id="Layer_1" xmlns="http://www.w3.org/2000/svg" xmlns:xlink="http://www.w3.org/1999/xlink" x="0px" y="0px"
	 viewBox="0 0 357 357" style="enable-background:new 0 0 357 357;" xml:space="preserve">
<style type="text/css">
	.st0{fill:#16073A;}
	.st1{clip-path:url(#SVGID_2_);}
	.st2{fill:none;}
	.st3{fill:#FFFFFF;}
</style>
<circle class="st0" cx="178.5" cy="178.5" r="178.5"/>
<g>
	<g>
		<defs>
			<circle id="SVGID_1_" cx="178.5" cy="178.5" r="178.5"/>
		</defs>
		<clipPath id="SVGID_2_">
			<use xlink:href="#SVGID_1_"  style="overflow:visible;"/>
		</clipPath>
		<g class="st1">
			<rect x="336.8" y="-8.9" class="st2" width="28.9" height="28.9"/>
			<circle id="XMLID_174_" class="st3" cx="351.3" cy="5.5" r="1.7"/>
		</g>
		<g class="st1">
			<rect x="336.8" y="20" class="st2" width="28.9" height="28.9"/>
			<circle id="XMLID_173_" class="st3" cx="351.3" cy="34.4" r="1.7"/>
		</g>
		<g class="st1">
			<rect x="336.8" y="48.9" class="st2" width="28.9" height="28.9"/>
			<circle id="XMLID_172_" class="st3" cx="351.3" cy="63.3" r="1.7"/>
		</g>
		<g class="st1">
			<rect x="336.8" y="77.7" class="st2" width="28.9" height="28.9"/>
			<circle id="XMLID_171_" class="st3" cx="351.3" cy="92.2" r="1.7"/>
		</g>
		<g class="st1">
			<rect x="336.8" y="106.6" class="st2" width="28.9" height="28.9"/>
			<circle id="XMLID_170_" class="st3" cx="351.3" cy="121.1" r="1.7"/>
		</g>
		<g class="st1">
			<rect x="336.8" y="135.5" class="st2" width="28.9" height="28.9"/>
			<circle id="XMLID_169_" class="st3" cx="351.3" cy="150" r="1.7"/>
		</g>
		<g class="st1">
			<rect x="336.8" y="164.4" class="st2" width="28.9" height="28.9"/>
			<circle id="XMLID_168_" class="st3" cx="351.3" cy="178.9" r="1.7"/>
		</g>
		<g class="st1">
			<rect x="336.8" y="193.3" class="st2" width="28.9" height="28.9"/>
			<circle id="XMLID_167_" class="st3" cx="351.3" cy="207.7" r="1.7"/>
		</g>
		<g class="st1">
			<rect x="336.8" y="222.2" class="st2" width="28.9" height="28.9"/>
			<circle id="XMLID_166_" class="st3" cx="351.3" cy="236.6" r="1.7"/>
		</g>
		<g class="st1">
			<rect x="336.8" y="251.1" class="st2" width="28.9" height="28.9"/>
			<circle id="XMLID_165_" class="st3" cx="351.3" cy="265.5" r="1.7"/>
		</g>
		<g class="st1">
			<rect x="336.8" y="280" class="st2" width="28.9" height="28.9"/>
			<circle id="XMLID_164_" class="st3" cx="351.3" cy="294.4" r="1.7"/>
		</g>
		<g class="st1">
			<rect x="336.8" y="308.8" class="st2" width="28.9" height="28.9"/>
			<circle id="XMLID_163_" class="st3" cx="351.3" cy="323.3" r="1.7"/>
		</g>
		<g class="st1">
			<rect x="336.8" y="337.7" class="st2" width="28.9" height="28.9"/>
			<circle id="XMLID_162_" class="st3" cx="351.3" cy="352.2" r="1.7"/>
		</g>
		<g class="st1">
			<rect x="307.9" y="-8.9" class="st2" width="28.9" height="28.9"/>
			<circle id="XMLID_161_" class="st3" cx="322.4" cy="5.5" r="1.7"/>
		</g>
		<g class="st1">
			<rect x="307.9" y="20" class="st2" width="28.9" height="28.9"/>
			<circle id="XMLID_160_" class="st3" cx="322.4" cy="34.4" r="1.7"/>
		</g>
		<g class="st1">
			<rect x="307.9" y="48.9" class="st2" width="28.9" height="28.9"/>
			<circle id="XMLID_159_" class="st3" cx="322.4" cy="63.3" r="1.7"/>
		</g>
		<g class="st1">
			<rect x="307.9" y="77.7" class="st2" width="28.9" height="28.9"/>
			<circle id="XMLID_158_" class="st3" cx="322.4" cy="92.2" r="1.7"/>
		</g>
		<g class="st1">
			<rect x="307.9" y="106.6" class="st2" width="28.9" height="28.9"/>
			<circle id="XMLID_157_" class="st3" cx="322.4" cy="121.1" r="1.7"/>
		</g>
		<g class="st1">
			<rect x="307.9" y="135.5" class="st2" width="28.9" height="28.9"/>
			<circle id="XMLID_156_" class="st3" cx="322.4" cy="150" r="1.7"/>
		</g>
		<g class="st1">
			<rect x="307.9" y="164.4" class="st2" width="28.9" height="28.9"/>
			<circle id="XMLID_155_" class="st3" cx="322.4" cy="178.9" r="1.7"/>
		</g>
		<g class="st1">
			<rect x="307.9" y="193.3" class="st2" width="28.9" height="28.9"/>
			<circle id="XMLID_154_" class="st3" cx="322.4" cy="207.7" r="1.7"/>
		</g>
		<g class="st1">
			<rect x="307.9" y="222.2" class="st2" width="28.9" height="28.9"/>
			<circle id="XMLID_153_" class="st3" cx="322.4" cy="236.6" r="1.7"/>
		</g>
		<g class="st1">
			<rect x="307.9" y="251.1" class="st2" width="28.9" height="28.9"/>
			<circle id="XMLID_152_" class="st3" cx="322.4" cy="265.5" r="1.7"/>
		</g>
		<g class="st1">
			<rect x="307.9" y="280" class="st2" width="28.9" height="28.9"/>
			<circle id="XMLID_151_" class="st3" cx="322.4" cy="294.4" r="1.7"/>
		</g>
		<g class="st1">
			<rect x="307.9" y="308.8" class="st2" width="28.9" height="28.9"/>
			<circle id="XMLID_150_" class="st3" cx="322.4" cy="323.3" r="1.7"/>
		</g>
		<g class="st1">
			<rect x="307.9" y="337.7" class="st2" width="28.9" height="28.9"/>
			<circle id="XMLID_149_" class="st3" cx="322.4" cy="352.2" r="1.7"/>
		</g>
		<g class="st1">
			<rect x="279" y="-8.9" class="st2" width="28.9" height="28.9"/>
			<circle id="XMLID_148_" class="st3" cx="293.5" cy="5.5" r="1.7"/>
		</g>
		<g class="st1">
			<rect x="279" y="20" class="st2" width="28.9" height="28.9"/>
			<circle id="XMLID_147_" class="st3" cx="293.5" cy="34.4" r="1.7"/>
		</g>
		<g class="st1">
			<rect x="279" y="48.9" class="st2" width="28.9" height="28.9"/>
			<circle id="XMLID_146_" class="st3" cx="293.5" cy="63.3" r="1.7"/>
		</g>
		<g class="st1">
			<rect x="279" y="77.7" class="st2" width="28.9" height="28.9"/>
			<circle id="XMLID_145_" class="st3" cx="293.5" cy="92.2" r="1.7"/>
		</g>
		<g class="st1">
			<rect x="279" y="106.6" class="st2" width="28.9" height="28.9"/>
			<circle id="XMLID_144_" class="st3" cx="293.5" cy="121.1" r="1.7"/>
		</g>
		<g class="st1">
			<rect x="279" y="135.5" class="st2" width="28.9" height="28.9"/>
			<circle id="XMLID_143_" class="st3" cx="293.5" cy="150" r="1.7"/>
		</g>
		<g class="st1">
			<rect x="279" y="164.4" class="st2" width="28.9" height="28.9"/>
			<circle id="XMLID_142_" class="st3" cx="293.5" cy="178.9" r="1.7"/>
		</g>
		<g class="st1">
			<rect x="279" y="193.3" class="st2" width="28.9" height="28.9"/>
			<circle id="XMLID_141_" class="st3" cx="293.5" cy="207.7" r="1.7"/>
		</g>
		<g class="st1">
			<rect x="279" y="222.2" class="st2" width="28.9" height="28.9"/>
			<circle id="XMLID_140_" class="st3" cx="293.5" cy="236.6" r="1.7"/>
		</g>
		<g class="st1">
			<rect x="279" y="251.1" class="st2" width="28.9" height="28.9"/>
			<circle id="XMLID_139_" class="st3" cx="293.5" cy="265.5" r="1.7"/>
		</g>
		<g class="st1">
			<rect x="279" y="280" class="st2" width="28.9" height="28.9"/>
			<circle id="XMLID_138_" class="st3" cx="293.5" cy="294.4" r="1.7"/>
		</g>
		<g class="st1">
			<rect x="279" y="308.8" class="st2" width="28.9" height="28.9"/>
			<circle id="XMLID_137_" class="st3" cx="293.5" cy="323.3" r="1.7"/>
		</g>
		<g class="st1">
			<rect x="279" y="337.7" class="st2" width="28.9" height="28.9"/>
			<circle id="XMLID_136_" class="st3" cx="293.5" cy="352.2" r="1.7"/>
		</g>
		<g class="st1">
			<rect x="250.2" y="-8.9" class="st2" width="28.9" height="28.9"/>
			<circle id="XMLID_135_" class="st3" cx="264.6" cy="5.5" r="1.7"/>
		</g>
		<g class="st1">
			<rect x="250.2" y="20" class="st2" width="28.9" height="28.9"/>
			<circle id="XMLID_134_" class="st3" cx="264.6" cy="34.4" r="1.7"/>
		</g>
		<g class="st1">
			<rect x="250.2" y="48.9" class="st2" width="28.9" height="28.9"/>
			<circle id="XMLID_133_" class="st3" cx="264.6" cy="63.3" r="1.7"/>
		</g>
		<g class="st1">
			<rect x="250.2" y="77.7" class="st2" width="28.9" height="28.9"/>
			<circle id="XMLID_132_" class="st3" cx="264.6" cy="92.2" r="1.7"/>
		</g>
		<g class="st1">
			<rect x="250.2" y="106.6" class="st2" width="28.9" height="28.9"/>
			<circle id="XMLID_131_" class="st3" cx="264.6" cy="121.1" r="1.7"/>
		</g>
		<g class="st1">
			<rect x="250.2" y="135.5" class="st2" width="28.9" height="28.9"/>
			<circle id="XMLID_130_" class="st3" cx="264.6" cy="150" r="1.7"/>
		</g>
		<g class="st1">
			<rect x="250.2" y="164.4" class="st2" width="28.9" height="28.9"/>
			<circle id="XMLID_129_" class="st3" cx="264.6" cy="178.9" r="1.7"/>
		</g>
		<g class="st1">
			<rect x="250.2" y="193.3" class="st2" width="28.9" height="28.9"/>
			<circle id="XMLID_128_" class="st3" cx="264.6" cy="207.7" r="1.7"/>
		</g>
		<g class="st1">
			<rect x="250.2" y="222.2" class="st2" width="28.9" height="28.9"/>
			<circle id="XMLID_127_" class="st3" cx="264.6" cy="236.6" r="1.7"/>
		</g>
		<g class="st1">
			<rect x="250.2" y="251.1" class="st2" width="28.9" height="28.9"/>
			<circle id="XMLID_126_" class="st3" cx="264.6" cy="265.5" r="1.7"/>
		</g>
		<g class="st1">
			<rect x="250.2" y="280" class="st2" width="28.9" height="28.9"/>
			<circle id="XMLID_125_" class="st3" cx="264.6" cy="294.4" r="1.7"/>
		</g>
		<g class="st1">
			<rect x="250.2" y="308.8" class="st2" width="28.9" height="28.9"/>
			<circle id="XMLID_124_" class="st3" cx="264.6" cy="323.3" r="1.7"/>
		</g>
		<g class="st1">
			<rect x="250.2" y="337.7" class="st2" width="28.9" height="28.9"/>
			<circle id="XMLID_123_" class="st3" cx="264.6" cy="352.2" r="1.7"/>
		</g>
		<g class="st1">
			<rect x="221.3" y="-8.9" class="st2" width="28.9" height="28.9"/>
			<circle id="XMLID_122_" class="st3" cx="235.7" cy="5.5" r="1.7"/>
		</g>
		<g class="st1">
			<rect x="221.3" y="20" class="st2" width="28.9" height="28.9"/>
			<circle id="XMLID_121_" class="st3" cx="235.7" cy="34.4" r="1.7"/>
		</g>
		<g class="st1">
			<rect x="221.3" y="48.9" class="st2" width="28.9" height="28.9"/>
			<circle id="XMLID_120_" class="st3" cx="235.7" cy="63.3" r="1.7"/>
		</g>
		<g class="st1">
			<rect x="221.3" y="77.7" class="st2" width="28.9" height="28.9"/>
			<circle id="XMLID_119_" class="st3" cx="235.7" cy="92.2" r="1.7"/>
		</g>
		<g class="st1">
			<rect x="221.3" y="106.6" class="st2" width="28.9" height="28.9"/>
			<circle id="XMLID_118_" class="st3" cx="235.7" cy="121.1" r="1.7"/>
		</g>
		<g class="st1">
			<rect x="221.3" y="135.5" class="st2" width="28.9" height="28.9"/>
			<circle id="XMLID_117_" class="st3" cx="235.7" cy="150" r="1.7"/>
		</g>
		<g class="st1">
			<rect x="221.3" y="164.4" class="st2" width="28.9" height="28.9"/>
			<circle id="XMLID_116_" class="st3" cx="235.7" cy="178.9" r="1.7"/>
		</g>
		<g class="st1">
			<rect x="221.3" y="193.3" class="st2" width="28.9" height="28.9"/>
			<circle id="XMLID_115_" class="st3" cx="235.7" cy="207.7" r="1.7"/>
		</g>
		<g class="st1">
			<rect x="221.3" y="222.2" class="st2" width="28.9" height="28.9"/>
			<circle id="XMLID_114_" class="st3" cx="235.7" cy="236.6" r="1.7"/>
		</g>
		<g class="st1">
			<rect x="221.3" y="251.1" class="st2" width="28.9" height="28.9"/>
			<circle id="XMLID_113_" class="st3" cx="235.7" cy="265.5" r="1.7"/>
		</g>
		<g class="st1">
			<rect x="221.3" y="280" class="st2" width="28.9" height="28.9"/>
			<circle id="XMLID_112_" class="st3" cx="235.7" cy="294.4" r="1.7"/>
		</g>
		<g class="st1">
			<rect x="221.3" y="308.8" class="st2" width="28.9" height="28.9"/>
			<circle id="XMLID_111_" class="st3" cx="235.7" cy="323.3" r="1.7"/>
		</g>
		<g class="st1">
			<rect x="221.3" y="337.7" class="st2" width="28.9" height="28.9"/>
			<circle id="XMLID_110_" class="st3" cx="235.7" cy="352.2" r="1.7"/>
		</g>
		<g class="st1">
			<rect x="192.4" y="-8.9" class="st2" width="28.9" height="28.9"/>
			<circle id="XMLID_109_" class="st3" cx="206.8" cy="5.5" r="1.7"/>
		</g>
		<g class="st1">
			<rect x="192.4" y="20" class="st2" width="28.9" height="28.9"/>
			<circle id="XMLID_108_" class="st3" cx="206.8" cy="34.4" r="1.7"/>
		</g>
		<g class="st1">
			<rect x="192.4" y="48.9" class="st2" width="28.9" height="28.9"/>
			<circle id="XMLID_107_" class="st3" cx="206.8" cy="63.3" r="1.7"/>
		</g>
		<g class="st1">
			<rect x="192.4" y="77.7" class="st2" width="28.9" height="28.9"/>
			<circle id="XMLID_106_" class="st3" cx="206.8" cy="92.2" r="1.7"/>
		</g>
		<g class="st1">
			<rect x="192.4" y="106.6" class="st2" width="28.9" height="28.9"/>
			<circle id="XMLID_105_" class="st3" cx="206.8" cy="121.1" r="1.7"/>
		</g>
		<g class="st1">
			<rect x="192.4" y="135.5" class="st2" width="28.9" height="28.9"/>
			<circle id="XMLID_104_" class="st3" cx="206.8" cy="150" r="1.7"/>
		</g>
		<g class="st1">
			<rect x="192.4" y="164.4" class="st2" width="28.9" height="28.9"/>
			<circle id="XMLID_103_" class="st3" cx="206.8" cy="178.9" r="1.7"/>
		</g>
		<g class="st1">
			<rect x="192.4" y="193.3" class="st2" width="28.9" height="28.9"/>
			<circle id="XMLID_102_" class="st3" cx="206.8" cy="207.7" r="1.7"/>
		</g>
		<g class="st1">
			<rect x="192.4" y="222.2" class="st2" width="28.9" height="28.9"/>
			<circle id="XMLID_101_" class="st3" cx="206.8" cy="236.6" r="1.7"/>
		</g>
		<g class="st1">
			<rect x="192.4" y="251.1" class="st2" width="28.9" height="28.9"/>
			<circle id="XMLID_100_" class="st3" cx="206.8" cy="265.5" r="1.7"/>
		</g>
		<g class="st1">
			<rect x="192.4" y="280" class="st2" width="28.9" height="28.9"/>
			<circle id="XMLID_99_" class="st3" cx="206.8" cy="294.4" r="1.7"/>
		</g>
		<g class="st1">
			<rect x="192.4" y="308.8" class="st2" width="28.9" height="28.9"/>
			<circle id="XMLID_98_" class="st3" cx="206.8" cy="323.3" r="1.7"/>
		</g>
		<g class="st1">
			<rect x="192.4" y="337.7" class="st2" width="28.9" height="28.9"/>
			<circle id="XMLID_97_" class="st3" cx="206.8" cy="352.2" r="1.7"/>
		</g>
		<g class="st1">
			<rect x="163.5" y="-8.9" class="st2" width="28.9" height="28.9"/>
			<circle id="XMLID_96_" class="st3" cx="177.9" cy="5.5" r="1.7"/>
		</g>
		<g class="st1">
			<rect x="163.5" y="20" class="st2" width="28.9" height="28.9"/>
			<circle id="XMLID_95_" class="st3" cx="177.9" cy="34.4" r="1.7"/>
		</g>
		<g class="st1">
			<rect x="163.5" y="48.9" class="st2" width="28.9" height="28.9"/>
			<circle id="XMLID_94_" class="st3" cx="177.9" cy="63.3" r="1.7"/>
		</g>
		<g class="st1">
			<rect x="163.5" y="77.7" class="st2" width="28.9" height="28.9"/>
			<circle id="XMLID_93_" class="st3" cx="177.9" cy="92.2" r="1.7"/>
		</g>
		<g class="st1">
			<rect x="163.5" y="106.6" class="st2" width="28.9" height="28.9"/>
			<circle id="XMLID_92_" class="st3" cx="177.9" cy="121.1" r="1.7"/>
		</g>
		<g class="st1">
			<rect x="163.5" y="135.5" class="st2" width="28.9" height="28.9"/>
			<circle id="XMLID_91_" class="st3" cx="177.9" cy="150" r="1.7"/>
		</g>
		<g class="st1">
			<rect x="163.5" y="164.4" class="st2" width="28.9" height="28.9"/>
			<circle id="XMLID_90_" class="st3" cx="177.9" cy="178.9" r="1.7"/>
		</g>
		<g class="st1">
			<rect x="163.5" y="193.3" class="st2" width="28.9" height="28.9"/>
			<circle id="XMLID_89_" class="st3" cx="177.9" cy="207.7" r="1.7"/>
		</g>
		<g class="st1">
			<rect x="163.5" y="222.2" class="st2" width="28.9" height="28.9"/>
			<circle id="XMLID_88_" class="st3" cx="177.9" cy="236.6" r="1.7"/>
		</g>
		<g class="st1">
			<rect x="163.5" y="251.1" class="st2" width="28.9" height="28.9"/>
			<circle id="XMLID_87_" class="st3" cx="177.9" cy="265.5" r="1.7"/>
		</g>
		<g class="st1">
			<rect x="163.5" y="280" class="st2" width="28.9" height="28.9"/>
			<circle id="XMLID_86_" class="st3" cx="177.9" cy="294.4" r="1.7"/>
		</g>
		<g class="st1">
			<rect x="163.5" y="308.8" class="st2" width="28.9" height="28.9"/>
			<circle id="XMLID_85_" class="st3" cx="177.9" cy="323.3" r="1.7"/>
		</g>
		<g class="st1">
			<rect x="163.5" y="337.7" class="st2" width="28.9" height="28.9"/>
			<circle id="XMLID_84_" class="st3" cx="177.9" cy="352.2" r="1.7"/>
		</g>
		<g class="st1">
			<rect x="134.6" y="-8.9" class="st2" width="28.9" height="28.9"/>
			<circle id="XMLID_83_" class="st3" cx="149.1" cy="5.5" r="1.7"/>
		</g>
		<g class="st1">
			<rect x="134.6" y="20" class="st2" width="28.9" height="28.9"/>
			<circle id="XMLID_82_" class="st3" cx="149.1" cy="34.4" r="1.7"/>
		</g>
		<g class="st1">
			<rect x="134.6" y="48.9" class="st2" width="28.9" height="28.9"/>
			<circle id="XMLID_81_" class="st3" cx="149.1" cy="63.3" r="1.7"/>
		</g>
		<g class="st1">
			<rect x="134.6" y="77.7" class="st2" width="28.9" height="28.9"/>
			<circle id="XMLID_80_" class="st3" cx="149.1" cy="92.2" r="1.7"/>
		</g>
		<g class="st1">
			<rect x="134.6" y="106.6" class="st2" width="28.9" height="28.9"/>
			<circle id="XMLID_79_" class="st3" cx="149.1" cy="121.1" r="1.7"/>
		</g>
		<g class="st1">
			<rect x="134.6" y="135.5" class="st2" width="28.9" height="28.9"/>
			<circle id="XMLID_78_" class="st3" cx="149.1" cy="150" r="1.7"/>
		</g>
		<g class="st1">
			<rect x="134.6" y="164.4" class="st2" width="28.9" height="28.9"/>
			<circle id="XMLID_77_" class="st3" cx="149.1" cy="178.9" r="1.7"/>
		</g>
		<g class="st1">
			<rect x="134.6" y="193.3" class="st2" width="28.9" height="28.9"/>
			<circle id="XMLID_76_" class="st3" cx="149.1" cy="207.7" r="1.7"/>
		</g>
		<g class="st1">
			<rect x="134.6" y="222.2" class="st2" width="28.9" height="28.9"/>
			<circle id="XMLID_75_" class="st3" cx="149.1" cy="236.6" r="1.7"/>
		</g>
		<g class="st1">
			<rect x="134.6" y="251.1" class="st2" width="28.9" height="28.9"/>
			<circle id="XMLID_74_" class="st3" cx="149.1" cy="265.5" r="1.7"/>
		</g>
		<g class="st1">
			<rect x="134.6" y="280" class="st2" width="28.9" height="28.9"/>
			<circle id="XMLID_73_" class="st3" cx="149.1" cy="294.4" r="1.7"/>
		</g>
		<g class="st1">
			<rect x="134.6" y="308.8" class="st2" width="28.9" height="28.9"/>
			<circle id="XMLID_72_" class="st3" cx="149.1" cy="323.3" r="1.7"/>
		</g>
		<g class="st1">
			<rect x="134.6" y="337.7" class="st2" width="28.9" height="28.9"/>
			<circle id="XMLID_71_" class="st3" cx="149.1" cy="352.2" r="1.7"/>
		</g>
		<g class="st1">
			<rect x="105.7" y="-8.9" class="st2" width="28.9" height="28.9"/>
			<circle id="XMLID_70_" class="st3" cx="120.2" cy="5.5" r="1.7"/>
		</g>
		<g class="st1">
			<rect x="105.7" y="20" class="st2" width="28.9" height="28.9"/>
			<circle id="XMLID_69_" class="st3" cx="120.2" cy="34.4" r="1.7"/>
		</g>
		<g class="st1">
			<rect x="105.7" y="48.9" class="st2" width="28.9" height="28.9"/>
			<circle id="XMLID_68_" class="st3" cx="120.2" cy="63.3" r="1.7"/>
		</g>
		<g class="st1">
			<rect x="105.7" y="77.7" class="st2" width="28.9" height="28.9"/>
			<circle id="XMLID_67_" class="st3" cx="120.2" cy="92.2" r="1.7"/>
		</g>
		<g class="st1">
			<rect x="105.7" y="106.6" class="st2" width="28.9" height="28.9"/>
			<circle id="XMLID_66_" class="st3" cx="120.2" cy="121.1" r="1.7"/>
		</g>
		<g class="st1">
			<rect x="105.7" y="135.5" class="st2" width="28.9" height="28.9"/>
			<circle id="XMLID_65_" class="st3" cx="120.2" cy="150" r="1.7"/>
		</g>
		<g class="st1">
			<rect x="105.7" y="164.4" class="st2" width="28.9" height="28.9"/>
			<circle id="XMLID_64_" class="st3" cx="120.2" cy="178.9" r="1.7"/>
		</g>
		<g class="st1">
			<rect x="105.7" y="193.3" class="st2" width="28.9" height="28.9"/>
			<circle id="XMLID_63_" class="st3" cx="120.2" cy="207.7" r="1.7"/>
		</g>
		<g class="st1">
			<rect x="105.7" y="222.2" class="st2" width="28.9" height="28.9"/>
			<circle id="XMLID_62_" class="st3" cx="120.2" cy="236.6" r="1.7"/>
		</g>
		<g class="st1">
			<rect x="105.7" y="251.1" class="st2" width="28.9" height="28.9"/>
			<circle id="XMLID_61_" class="st3" cx="120.2" cy="265.5" r="1.7"/>
		</g>
		<g class="st1">
			<rect x="105.7" y="280" class="st2" width="28.9" height="28.9"/>
			<circle id="XMLID_60_" class="st3" cx="120.2" cy="294.4" r="1.7"/>
		</g>
		<g class="st1">
			<rect x="105.7" y="308.8" class="st2" width="28.9" height="28.9"/>
			<circle id="XMLID_59_" class="st3" cx="120.2" cy="323.3" r="1.7"/>
		</g>
		<g class="st1">
			<rect x="105.7" y="337.7" class="st2" width="28.9" height="28.9"/>
			<circle id="XMLID_58_" class="st3" cx="120.2" cy="352.2" r="1.7"/>
		</g>
		<g class="st1">
			<rect x="76.8" y="-8.9" class="st2" width="28.9" height="28.9"/>
			<circle id="XMLID_57_" class="st3" cx="91.3" cy="5.5" r="1.7"/>
		</g>
		<g class="st1">
			<rect x="76.8" y="20" class="st2" width="28.9" height="28.9"/>
			<circle id="XMLID_56_" class="st3" cx="91.3" cy="34.4" r="1.7"/>
		</g>
		<g class="st1">
			<rect x="76.8" y="48.9" class="st2" width="28.9" height="28.9"/>
			<circle id="XMLID_55_" class="st3" cx="91.3" cy="63.3" r="1.7"/>
		</g>
		<g class="st1">
			<rect x="76.8" y="77.7" class="st2" width="28.9" height="28.9"/>
			<circle id="XMLID_54_" class="st3" cx="91.3" cy="92.2" r="1.7"/>
		</g>
		<g class="st1">
			<rect x="76.8" y="106.6" class="st2" width="28.9" height="28.9"/>
			<circle id="XMLID_53_" class="st3" cx="91.3" cy="121.1" r="1.7"/>
		</g>
		<g class="st1">
			<rect x="76.8" y="135.5" class="st2" width="28.9" height="28.9"/>
			<circle id="XMLID_52_" class="st3" cx="91.3" cy="150" r="1.7"/>
		</g>
		<g class="st1">
			<rect x="76.8" y="164.4" class="st2" width="28.9" height="28.9"/>
			<circle id="XMLID_51_" class="st3" cx="91.3" cy="178.9" r="1.7"/>
		</g>
		<g class="st1">
			<rect x="76.8" y="193.3" class="st2" width="28.9" height="28.9"/>
			<circle id="XMLID_50_" class="st3" cx="91.3" cy="207.7" r="1.7"/>
		</g>
		<g class="st1">
			<rect x="76.8" y="222.2" class="st2" width="28.9" height="28.9"/>
			<circle id="XMLID_49_" class="st3" cx="91.3" cy="236.6" r="1.7"/>
		</g>
		<g class="st1">
			<rect x="76.8" y="251.1" class="st2" width="28.9" height="28.9"/>
			<circle id="XMLID_48_" class="st3" cx="91.3" cy="265.5" r="1.7"/>
		</g>
		<g class="st1">
			<rect x="76.8" y="280" class="st2" width="28.9" height="28.9"/>
			<circle id="XMLID_47_" class="st3" cx="91.3" cy="294.4" r="1.7"/>
		</g>
		<g class="st1">
			<rect x="76.8" y="308.8" class="st2" width="28.9" height="28.9"/>
			<circle id="XMLID_46_" class="st3" cx="91.3" cy="323.3" r="1.7"/>
		</g>
		<g class="st1">
			<rect x="76.8" y="337.7" class="st2" width="28.9" height="28.9"/>
			<circle id="XMLID_45_" class="st3" cx="91.3" cy="352.2" r="1.7"/>
		</g>
		<g class="st1">
			<rect x="47.9" y="-8.9" class="st2" width="28.9" height="28.9"/>
			<circle id="XMLID_44_" class="st3" cx="62.4" cy="5.5" r="1.7"/>
		</g>
		<g class="st1">
			<rect x="47.9" y="20" class="st2" width="28.9" height="28.9"/>
			<circle id="XMLID_43_" class="st3" cx="62.4" cy="34.4" r="1.7"/>
		</g>
		<g class="st1">
			<rect x="47.9" y="48.9" class="st2" width="28.9" height="28.9"/>
			<circle id="XMLID_42_" class="st3" cx="62.4" cy="63.3" r="1.7"/>
		</g>
		<g class="st1">
			<rect x="47.9" y="77.7" class="st2" width="28.9" height="28.9"/>
			<circle id="XMLID_41_" class="st3" cx="62.4" cy="92.2" r="1.7"/>
		</g>
		<g class="st1">
			<rect x="47.9" y="106.6" class="st2" width="28.9" height="28.9"/>
			<circle id="XMLID_40_" class="st3" cx="62.4" cy="121.1" r="1.7"/>
		</g>
		<g class="st1">
			<rect x="47.9" y="135.5" class="st2" width="28.9" height="28.9"/>
			<circle id="XMLID_39_" class="st3" cx="62.4" cy="150" r="1.7"/>
		</g>
		<g class="st1">
			<rect x="47.9" y="164.4" class="st2" width="28.9" height="28.9"/>
			<circle id="XMLID_38_" class="st3" cx="62.4" cy="178.9" r="1.7"/>
		</g>
		<g class="st1">
			<rect x="47.9" y="193.3" class="st2" width="28.9" height="28.9"/>
			<circle id="XMLID_37_" class="st3" cx="62.4" cy="207.7" r="1.7"/>
		</g>
		<g class="st1">
			<rect x="47.9" y="222.2" class="st2" width="28.9" height="28.9"/>
			<circle id="XMLID_36_" class="st3" cx="62.4" cy="236.6" r="1.7"/>
		</g>
		<g class="st1">
			<rect x="47.9" y="251.1" class="st2" width="28.9" height="28.9"/>
			<circle id="XMLID_35_" class="st3" cx="62.4" cy="265.5" r="1.7"/>
		</g>
		<g class="st1">
			<rect x="47.9" y="280" class="st2" width="28.9" height="28.9"/>
			<circle id="XMLID_34_" class="st3" cx="62.4" cy="294.4" r="1.7"/>
		</g>
		<g class="st1">
			<rect x="47.9" y="308.8" class="st2" width="28.9" height="28.9"/>
			<circle id="XMLID_33_" class="st3" cx="62.4" cy="323.3" r="1.7"/>
		</g>
		<g class="st1">
			<rect x="47.9" y="337.7" class="st2" width="28.9" height="28.9"/>
			<circle id="XMLID_32_" class="st3" cx="62.4" cy="352.2" r="1.7"/>
		</g>
		<g class="st1">
			<rect x="19.1" y="-8.9" class="st2" width="28.9" height="28.9"/>
			<circle id="XMLID_31_" class="st3" cx="33.5" cy="5.5" r="1.7"/>
		</g>
		<g class="st1">
			<rect x="19.1" y="20" class="st2" width="28.9" height="28.9"/>
			<circle id="XMLID_30_" class="st3" cx="33.5" cy="34.4" r="1.7"/>
		</g>
		<g class="st1">
			<rect x="19.1" y="48.9" class="st2" width="28.9" height="28.9"/>
			<circle id="XMLID_29_" class="st3" cx="33.5" cy="63.3" r="1.7"/>
		</g>
		<g class="st1">
			<rect x="19.1" y="77.7" class="st2" width="28.9" height="28.9"/>
			<circle id="XMLID_28_" class="st3" cx="33.5" cy="92.2" r="1.7"/>
		</g>
		<g class="st1">
			<rect x="19.1" y="106.6" class="st2" width="28.9" height="28.9"/>
			<circle id="XMLID_27_" class="st3" cx="33.5" cy="121.1" r="1.7"/>
		</g>
		<g class="st1">
			<rect x="19.1" y="135.5" class="st2" width="28.9" height="28.9"/>
			<circle id="XMLID_26_" class="st3" cx="33.5" cy="150" r="1.7"/>
		</g>
		<g class="st1">
			<rect x="19.1" y="164.4" class="st2" width="28.9" height="28.9"/>
			<circle id="XMLID_25_" class="st3" cx="33.5" cy="178.9" r="1.7"/>
		</g>
		<g class="st1">
			<rect x="19.1" y="193.3" class="st2" width="28.9" height="28.9"/>
			<circle id="XMLID_24_" class="st3" cx="33.5" cy="207.7" r="1.7"/>
		</g>
		<g class="st1">
			<rect x="19.1" y="222.2" class="st2" width="28.9" height="28.9"/>
			<circle id="XMLID_23_" class="st3" cx="33.5" cy="236.6" r="1.7"/>
		</g>
		<g class="st1">
			<rect x="19.1" y="251.1" class="st2" width="28.9" height="28.9"/>
			<circle id="XMLID_22_" class="st3" cx="33.5" cy="265.5" r="1.7"/>
		</g>
		<g class="st1">
			<rect x="19.1" y="280" class="st2" width="28.9" height="28.9"/>
			<circle id="XMLID_21_" class="st3" cx="33.5" cy="294.4" r="1.7"/>
		</g>
		<g class="st1">
			<rect x="19.1" y="308.8" class="st2" width="28.9" height="28.9"/>
			<circle id="XMLID_20_" class="st3" cx="33.5" cy="323.3" r="1.7"/>
		</g>
		<g class="st1">
			<rect x="19.1" y="337.7" class="st2" width="28.9" height="28.9"/>
			<circle id="XMLID_19_" class="st3" cx="33.5" cy="352.2" r="1.7"/>
		</g>
		<g class="st1">
			<rect x="-9.8" y="-8.9" class="st2" width="28.9" height="28.9"/>
			<circle id="XMLID_18_" class="st3" cx="4.6" cy="5.5" r="1.7"/>
		</g>
		<g class="st1">
			<rect x="-9.8" y="20" class="st2" width="28.9" height="28.9"/>
			<circle id="XMLID_17_" class="st3" cx="4.6" cy="34.4" r="1.7"/>
		</g>
		<g class="st1">
			<rect x="-9.8" y="48.9" class="st2" width="28.9" height="28.9"/>
			<circle id="XMLID_16_" class="st3" cx="4.6" cy="63.3" r="1.7"/>
		</g>
		<g class="st1">
			<rect x="-9.8" y="77.7" class="st2" width="28.9" height="28.9"/>
			<circle id="XMLID_15_" class="st3" cx="4.6" cy="92.2" r="1.7"/>
		</g>
		<g class="st1">
			<rect x="-9.8" y="106.6" class="st2" width="28.9" height="28.9"/>
			<circle id="XMLID_14_" class="st3" cx="4.6" cy="121.1" r="1.7"/>
		</g>
		<g class="st1">
			<rect x="-9.8" y="135.5" class="st2" width="28.9" height="28.9"/>
			<circle id="XMLID_13_" class="st3" cx="4.6" cy="150" r="1.7"/>
		</g>
		<g class="st1">
			<rect x="-9.8" y="164.4" class="st2" width="28.9" height="28.9"/>
			<circle id="XMLID_12_" class="st3" cx="4.6" cy="178.9" r="1.7"/>
		</g>
		<g class="st1">
			<rect x="-9.8" y="193.3" class="st2" width="28.9" height="28.9"/>
			<circle id="XMLID_11_" class="st3" cx="4.6" cy="207.7" r="1.7"/>
		</g>
		<g class="st1">
			<rect x="-9.8" y="222.2" class="st2" width="28.9" height="28.9"/>
			<circle id="XMLID_10_" class="st3" cx="4.6" cy="236.6" r="1.7"/>
		</g>
		<g class="st1">
			<rect x="-9.8" y="251.1" class="st2" width="28.9" height="28.9"/>
			<circle id="XMLID_9_" class="st3" cx="4.6" cy="265.5" r="1.7"/>
		</g>
		<g class="st1">
			<rect x="-9.8" y="280" class="st2" width="28.9" height="28.9"/>
			<circle id="XMLID_8_" class="st3" cx="4.6" cy="294.4" r="1.7"/>
		</g>
		<g class="st1">
			<rect x="-9.8" y="308.8" class="st2" width="28.9" height="28.9"/>
			<circle id="XMLID_7_" class="st3" cx="4.6" cy="323.3" r="1.7"/>
		</g>
		<g class="st1">
			<rect x="-9.8" y="337.7" class="st2" width="28.9" height="28.9"/>
			<circle id="XMLID_6_" class="st3" cx="4.6" cy="352.2" r="1.7"/>
		</g>
	</g>
</g>
</svg>
