<?xml version="1.0" encoding="utf-8"?>
<!-- Generator: Adobe Illustrator 20.1.0, SVG Export Plug-In . SVG Version: 6.00 Build 0)  -->
<svg version="1.1" id="Layer_1" xmlns="http://www.w3.org/2000/svg" xmlns:xlink="http://www.w3.org/1999/xlink" x="0px" y="0px"
	 viewBox="0 0 278.8 225.5" style="enable-background:new 0 0 278.8 225.5;" xml:space="preserve">
<style type="text/css">
	.st0{fill:none;stroke:#000000;stroke-width:2;stroke-miterlimit:10;}
	.st1{fill:none;stroke:#000000;stroke-width:2;stroke-linejoin:round;stroke-miterlimit:10;}
	.st2{fill:none;stroke:#000000;stroke-width:2;stroke-linejoin:round;}
</style>
<g id="XMLID_1_">
	<circle id="XMLID_2_" class="st0" cx="173.2" cy="41.2" r="40"/>
	<circle id="XMLID_3_" class="st0" cx="173.2" cy="52" r="40"/>
	<path id="XMLID_4_" class="st0" d="M100.5,130.5c7.3,0,13.3,5.9,13.3,13.2l0,0c0,7.3-5.9,13.3-13.2,13.3l-46.3,0.3
		c-7.3,0-13.3-5.9-13.3-13.2v0c0-7.3,5.9-13.3,13.2-13.3L100.5,130.5z"/>
	<path id="XMLID_5_" class="st0" d="M111.5,152.6c-5,5.3-13.5,5.5-18.7,0.5l0,0c-5.3-5-5.5-13.5-0.5-18.7l31.9-33.6
		c5-5.3,13.5-5.5,18.7-0.5l0,0c5.3,5,5.5,13.5,0.5,18.7L111.5,152.6z"/>
	<path id="XMLID_8_" class="st0" d="M263.7,148.4L263.7,148.4c-5,5.3-13.5,5.5-18.8,0.4l-33.5-32c-5.3-5-5.5-13.5-0.4-18.8l0,0
		c5-5.3,13.5-5.5,18.8-0.4l33.5,32C268.6,134.7,268.8,143.1,263.7,148.4z"/>
	<path id="XMLID_7_" class="st0" d="M253.3,126.7L253.3,126.7c7.3-0.7,13.8,4.6,14.5,11.9l4.5,46.1c0.7,7.3-4.6,13.8-11.9,14.5h0
		c-7.3,0.7-13.8-4.6-14.5-11.9l-4.5-46.1C240.7,133.9,246,127.4,253.3,126.7z"/>
	<path id="XMLID_15_" class="st1" d="M53.1,130.5c-2.8-1.8-19.9-12.9-19.9-12.9c-2.1-1.3-5-0.6-6.1,1.7c-1,2-0.2,4.4,1.7,5.6
		l10.3,6.9l-7.4,0.2l-8.3,0.2l-17.8,0.5c-2.2,0.1-4.2,1.7-4.3,3.9c-0.2,2.5,1.9,4.7,4.4,4.6l15.3-0.5c-1.5,0.8-2.4,2.5-2.1,4.4
		c0.3,2.1,2.3,3.6,4.5,3.6l0.1,0c-1.1,0.9-1.8,2.3-1.6,3.9c0.3,2.2,2.3,3.8,4.5,3.7l0.1,0c-0.7,0.8-1.1,1.7-1.1,2.8
		c0,1.1,0.5,2.2,1.2,2.9c0.9,0.9,2.1,1.4,3.4,1.4c12.9-0.3,24-4.9,25.5-6.2c5.4-1.8,9-7.4,9-13.4C64.5,137.2,59.6,131.6,53.1,130.5z
		"/>
	<path id="XMLID_6_" class="st0" d="M231.9,183.1c0,21.8-17.9,39.7-39.7,39.7h-34c-21.8,0-39.7-17.9-39.7-39.7v-62.2
		c0-21.8,17.9-39.7,39.7-39.7h34c21.8,0,39.7,17.9,39.7,39.7V183.1z"/>
	<circle id="XMLID_9_" class="st0" cx="149.3" cy="42.2" r="5.7"/>
	<circle id="XMLID_10_" class="st0" cx="160.7" cy="29.1" r="2.7"/>
	<path id="XMLID_11_" class="st0" d="M118.6,106.5V84.7c0-6.8,5.5-12.3,12.3-12.3h8"/>
	<path id="XMLID_13_" class="st0" d="M207.6,72.4h12c6.7,0,12.3,5.6,12.3,12.3v14.9"/>
	<path id="XMLID_12_" class="st2" d="M245.4,184.4c1.6-6,7-10.5,13.6-10.5c7.3,0,13.3,5.6,14,12.8c0.2,0.3,0.3,0.7,0.5,1.1
		c2.2,5.6,3.9,13.1,4.1,21c0.1,2.4-1.9,4.6-4.3,4.6c-1.1,0-2.1-0.4-2.8-1.1l0,0.1c0.1,2.2-1.5,4.3-3.7,4.5c-1.6,0.2-3-0.5-3.9-1.6
		l0,0.1c0.1,2.2-1.4,4.2-3.6,4.5c-1.9,0.3-3.5-0.6-4.4-2.1l0.5,2.2c0.1,2.5-2,4.6-4.6,4.4c-2.2-0.2-3.9-2.1-3.9-4.3l-0.5-4.8
		L246,207l-0.2-7.4l-5.9,10.3c-1.2,1.9-3.6,2.7-5.6,1.7c-2.3-1.1-3-4-1.7-6.1L245.4,184.4C245.4,184.3,245.4,184.4,245.4,184.4
		c0.2-0.7,0.4-1.4,0.6-2c0.1-0.3,0.3-0.7,0.5-1"/>
</g>
</svg>
