<?xml version="1.0" encoding="utf-8"?>
<!-- Generator: Adobe Illustrator 20.1.0, SVG Export Plug-In . SVG Version: 6.00 Build 0)  -->
<svg version="1.1" id="Layer_1" xmlns="http://www.w3.org/2000/svg" xmlns:xlink="http://www.w3.org/1999/xlink" x="0px" y="0px"
	 viewBox="0 0 516.7 225.5" style="enable-background:new 0 0 516.7 225.5;" xml:space="preserve">
<style type="text/css">
	.st0{fill:none;stroke:#FFFFFF;stroke-width:2;stroke-miterlimit:10;}
</style>
<g id="XMLID_1_">
	<circle id="XMLID_2_" class="st0" cx="411.3" cy="41.7" r="40"/>
	<circle id="XMLID_3_" class="st0" cx="411.3" cy="52.4" r="40"/>
	<path id="XMLID_4_" class="st0" d="M289.7,131.2l48.8-0.3c7.3,0,13.3,5.9,13.3,13.2l0,0c0,7.3-5.9,13.3-13.2,13.3l-44.7,0.3"/>
	<path id="XMLID_5_" class="st0" d="M349.6,153c-5,5.3-13.5,5.5-18.7,0.5l0,0c-5.3-5-5.5-13.5-0.5-18.7l31.9-33.6
		c5-5.3,13.5-5.5,18.7-0.5l0,0c5.3,5,5.5,13.5,0.5,18.7L349.6,153z"/>
	<path id="XMLID_8_" class="st0" d="M501.8,148.8L501.8,148.8c-5,5.3-13.5,5.5-18.8,0.4l-33.5-32c-5.3-5-5.5-13.5-0.4-18.8l0,0
		c5-5.3,13.5-5.5,18.8-0.4l33.5,32C506.7,135.1,506.9,143.5,501.8,148.8z"/>
	<path id="XMLID_6_" class="st0" d="M470,183.5c0,21.8-17.9,39.7-39.7,39.7h-34c-21.8,0-39.7-17.9-39.7-39.7v-62.2
		c0-21.8,17.9-39.7,39.7-39.7h34c21.8,0,39.7,17.9,39.7,39.7V183.5z"/>
	<circle id="XMLID_9_" class="st0" cx="387.4" cy="42.7" r="5.7"/>
	<circle id="XMLID_10_" class="st0" cx="398.8" cy="29.5" r="2.7"/>
	<path id="XMLID_11_" class="st0" d="M356.7,107V85.2c0-6.8,5.5-12.3,12.3-12.3h8"/>
	<path id="XMLID_13_" class="st0" d="M445.7,72.8h12c6.7,0,12.3,5.6,12.3,12.3V100"/>
	<g>
		<path class="st0" d="M483.5,184.8L483.5,184.8C483.5,184.7,483.5,184.8,483.5,184.8z"/>
		<path class="st0" d="M483.7,184.2c0,0.2-0.1,0.3-0.1,0.5C483.6,184.5,483.6,184.4,483.7,184.2L483.7,184.2z"/>
		<path class="st0" d="M511.5,188.3c-0.1-0.4-0.3-0.7-0.5-1.1c-0.1-1.1-0.3-2.2-0.7-3.3l0.1,1.2c0.7,7.3-4.6,13.8-11.9,14.5l0,0
			c-7.3,0.7-13.8-4.6-14.5-11.9l-0.3-3.5c0,0.1-0.1,0.3-0.1,0.4c0,0.1,0,0.1,0,0.2l0,0L470.7,206c-1.3,2.1-0.6,5,1.7,6.1
			c2,1,4.4,0.2,5.6-1.7l5.9-10.3l0.2,7.4l0.2,8.3l0.5,4.8c0.1,2.2,1.7,4.2,3.9,4.3c2.5,0.2,4.7-1.9,4.6-4.4l-0.5-2.2
			c0.8,1.5,2.5,2.4,4.4,2.1c2.1-0.3,3.6-2.3,3.6-4.5v-0.1c0.9,1.1,2.3,1.8,3.9,1.6c2.2-0.3,3.8-2.3,3.7-4.5v-0.1
			c0.8,0.7,1.7,1.1,2.8,1.1c2.4,0,4.4-2.2,4.3-4.6C515.4,201.4,513.7,193.8,511.5,188.3z"/>
		<path class="st0" d="M510.4,185.1l-0.1-1.2l-4.4-44.9c-0.7-7.3-7.2-12.6-14.5-11.9l0,0c-7.3,0.7-12.6,7.2-11.9,14.5l4.2,42.5v0.1
			l0.3,3.5c0.7,7.3,7.2,12.6,14.5,11.9S511.1,192.4,510.4,185.1z"/>
	</g>
</g>
<g id="XMLID_7_">
	<circle id="XMLID_24_" class="st0" cx="129.9" cy="41.7" r="40"/>
	<circle id="XMLID_23_" class="st0" cx="129.9" cy="52.4" r="40"/>
	<path class="st0" d="M289.7,131.3l-87-0.3c-7.3,0-13.3,5.9-13.3,13.2l0,0c0,7.3,5.9,13.3,13.2,13.3l51,0.3"/>
	<path id="XMLID_21_" class="st0" d="M210.4,153.5L210.4,153.5c5.3-5,5.5-13.5,0.5-18.7L179,101.2c-5-5.3-13.5-5.5-18.7-0.5l0,0
		c-5.3,5-5.5,13.5-0.5,18.7l31.9,33.6C196.7,158.3,205.1,158.5,210.4,153.5z"/>
	<path id="XMLID_20_" class="st0" d="M39.4,148.8L39.4,148.8c5,5.3,13.5,5.5,18.8,0.4l33.5-32c5.3-5,5.5-13.5,0.4-18.8l0,0
		c-5-5.3-13.5-5.5-18.8-0.4l-33.5,32C34.6,135.1,34.4,143.5,39.4,148.8z"/>
	<g>
		<path class="st0" d="M271.4,138.7l0.9-0.8h11.2c0,0,6.2,0.8,6.2-6.6"/>
		<path class="st0" d="M251,131.3c-1.6,0.5-3.4,1.7-5.3,4.3c-3.5,4.8-3.9,11.5-0.5,16.1c0.3,1.1,3.3,2.6,7.8,5.1
			c-0.3-1.6,0.4-3.3,1.7-4.3l2.3-2.3l6.6-5l7.8-6.5"/>
		<path class="st0" d="M272.5,137.9l-1,0.8l-7.8,6.5l-6.6,5l-2.3,2.3c-1.4,1-2,2.7-1.7,4.3c0.1,0.5,0.3,1,0.5,1.4
			c0,0,1.3,2.9,6.2,2.6c0.1,0.9,0.5,1.8,1.2,2.5c2.1,2.2,4.9,1.5,5.7,1.5c0,1,0.4,2,1.2,2.8c1,1,2.4,1.4,3.7,1.2
			c0.7,0.1,1.5,0,2.2-0.2c0,0.8,0.3,1.6,0.8,2.2c0.7,0.9,1.7,1.5,2.7,1.6c1.2,0.2,2.5-0.1,3.5-0.9c10.2-7.8,16.5-18,17-20
			c3.1-4.4,2.8-11.1-0.7-15.9c-2.5-3.4-4.1-4-6.5-4.5"/>
	</g>
	<path id="XMLID_18_" class="st0" d="M110.9,223.2h34c21.8,0,39.7-17.9,39.7-39.7v-62.2c0-21.8-17.9-39.7-39.7-39.7h-34
		c-21.8,0-39.7,17.9-39.7,39.7v62.2C71.2,205.3,89.1,223.2,110.9,223.2z"/>
	<circle id="XMLID_17_" class="st0" cx="153.9" cy="42.7" r="5.7"/>
	<circle id="XMLID_16_" class="st0" cx="142.4" cy="29.5" r="2.7"/>
	<path id="XMLID_14_" class="st0" d="M184.6,107V85.2c0-6.8-5.5-12.3-12.3-12.3h-8"/>
	<path id="XMLID_12_" class="st0" d="M95.5,72.8h-12c-6.7,0-12.3,5.6-12.3,12.3V100"/>
	<g>
		<path class="st0" d="M57.8,184.8L57.8,184.8C57.7,184.7,57.8,184.8,57.8,184.8z"/>
		<path class="st0" d="M57.6,184.2c0,0.2,0.1,0.3,0.1,0.5C57.7,184.5,57.6,184.4,57.6,184.2L57.6,184.2z"/>
		<path class="st0" d="M29.8,188.3c0.1-0.4,0.3-0.7,0.5-1.1c0.1-1.1,0.3-2.2,0.7-3.3l-0.1,1.2c-0.7,7.3,4.6,13.8,11.9,14.5l0,0
			c7.3,0.7,13.8-4.6,14.5-11.9l0.3-3.5c0,0.1,0.1,0.3,0.1,0.4c0,0.1,0,0.1,0,0.2l0,0L70.5,206c1.3,2.1,0.6,5-1.7,6.1
			c-2,1-4.4,0.2-5.6-1.7l-5.9-10.3l-0.2,7.4l-0.2,8.3l-0.5,4.8c-0.1,2.2-1.7,4.2-3.9,4.3c-2.5,0.2-4.7-1.9-4.6-4.4l0.5-2.2
			c-0.8,1.5-2.5,2.4-4.4,2.1c-2.1-0.3-3.6-2.3-3.6-4.5v-0.1c-0.9,1.1-2.3,1.8-3.9,1.6c-2.2-0.3-3.8-2.3-3.7-4.5v-0.1
			c-0.8,0.7-1.7,1.1-2.8,1.1c-2.4,0-4.4-2.2-4.3-4.6C25.9,201.4,27.5,193.8,29.8,188.3z"/>
		<path class="st0" d="M30.8,185.1l0.1-1.2l4.4-44.9c0.7-7.3,7.2-12.6,14.5-11.9l0,0c7.3,0.7,12.6,7.2,11.9,14.5l-4.2,42.5v0.1
			l-0.3,3.5c-0.7,7.3-7.2,12.6-14.5,11.9S30.1,192.4,30.8,185.1z"/>
	</g>
</g>
</svg>
