<?xml version="1.0" encoding="utf-8"?>
<!-- Generator: Adobe Illustrator 20.1.0, SVG Export Plug-In . SVG Version: 6.00 Build 0)  -->
<svg version="1.1" id="Layer_1" xmlns="http://www.w3.org/2000/svg" xmlns:xlink="http://www.w3.org/1999/xlink" x="0px" y="0px"
	 viewBox="0 0 135.3 55.2" style="enable-background:new 0 0 135.3 55.2;" xml:space="preserve">
<style type="text/css">
	.st0{fill:none;stroke:#FFFFFF;stroke-width:0.25;stroke-miterlimit:10;}
</style>
<g id="XMLID_1_">
	<path id="XMLID_46_" class="st0" d="M57.1,27.3c0.3,1.1-0.4,2.3-1.5,2.6c-1.1,0.3-2.3-0.4-2.6-1.5c-0.3-1.1,0.4-2.3,1.5-2.6
		C55.6,25.4,56.8,26.1,57.1,27.3z M53.6,22.2c-3.1,0.8-5,4-4.2,7s4,5,7,4.2c3.1-0.8,5-4,4.2-7S56.7,21.4,53.6,22.2z"/>
	<path id="XMLID_43_" class="st0" d="M43.9,30.6c0.3,1.1-0.4,2.3-1.5,2.6c-1.1,0.3-2.3-0.4-2.6-1.5c-0.3-1.1,0.4-2.3,1.5-2.6
		S43.6,29.5,43.9,30.6z M40.4,25.6c-3.1,0.8-5,4-4.2,7s4,5,7,4.2c3.1-0.8,5-4,4.2-7S43.5,24.8,40.4,25.6z"/>
	<path id="XMLID_37_" class="st0" d="M30.8,34c0.3,1.1-0.4,2.3-1.5,2.6c-1.1,0.3-2.3-0.4-2.6-1.5s0.4-2.3,1.5-2.6
		C29.3,32.2,30.5,32.9,30.8,34z M27.3,28.9c-3.1,0.8-5,4-4.2,7c0.8,3.1,4,5,7,4.2s5-4,4.2-7C33.5,30,30.4,28.1,27.3,28.9z"/>
	<path id="XMLID_49_" class="st0" d="M56.4,3.7l5.5-1.4l-0.5-2l-5.6,1.4c-1.8,0.5-3,1.9-3.3,3.6l-8.6,2.2c-0.6-0.4-1.4-0.5-2.2-0.3
		c-1.5,0.4-2.5,2-2.1,3.5c0.4,1.5,1.8,2.4,3.3,2.1l5.8,5.4l-11.6,3l-0.7-2.6c-0.3-1.1-0.6-1.9-1.7-1.7l-0.1,0l-2.4-9.3l0.4-0.1
		c1.2-0.3,1.9-1.5,1.6-2.7l-0.6-2.4c-0.3-1.2-1.5-1.9-2.7-1.6l-5.6,1.4c-1.2,0.3-1.9,1.5-1.6,2.7l0.6,2.4c0.3,1.2,1.5,1.9,2.7,1.6
		l0.4-0.1l2.4,9.3l0.5-0.1c-1,0.3-1.6,1.3-1.3,2.2l0.7,2.8L20,25.6c-1.2,0.3-1.9,1.5-1.6,2.7l1.4,5.5c0.2,0.9,1,1.5,1.9,1.7
		c-0.4-3.5,1.8-6.8,5.3-7.7c3.1-0.8,6.2,0.5,7.8,3.1c0.2-3,2.3-5.7,5.3-6.4c3.1-0.8,6.3,0.6,7.8,3.2c0.1-3,2.2-5.8,5.3-6.6
		c3.5-0.9,7.1,1,8.4,4.3c0.9-0.5,1.5-1.5,1.2-2.6l-1.4-5.5c-0.3-1.2-1.5-1.9-2.7-1.6L53.3,17l-6.6-6.1l6.7-1.7
		c1.1,1.3,2.9,2,4.6,1.6l5.6-1.4l-0.5-2l-5.5,1.4c-1.3,0.3-2.7-0.5-3-1.8l0-0.2C54.3,5.4,55.1,4,56.4,3.7z M29.6,5.6l-0.4-1.7
		c-0.1-0.5,0.2-1,0.7-1.1l1.5-0.4c0.5-0.1,1,0.2,1.1,0.7l0.4,1.7c0.1,0.5-0.2,1-0.7,1.1l-1.5,0.4C30.2,6.4,29.7,6.1,29.6,5.6z
		 M43,9.7c0.1,0.4-0.1,0.7-0.5,0.8c-0.4,0.1-0.7-0.1-0.8-0.5s0.1-0.7,0.5-0.8C42.5,9.1,42.9,9.3,43,9.7z"/>
</g>
<path id="XMLID_4_" class="st0" d="M146.6,63.9C117.7,38.9,77.4,28,37.7,38.2s-69.8,39.2-83,75L146.6,63.9z"/>
<ellipse id="XMLID_2_" transform="matrix(0.1086 -0.9941 0.9941 0.1086 42.6861 133.8927)" class="st0" cx="96" cy="43.1" rx="2.8" ry="6"/>
<ellipse id="XMLID_5_" transform="matrix(4.721079e-02 -0.9989 0.9989 4.721079e-02 33.5628 111.8695)" class="st0" cx="75.4" cy="38.3" rx="1.9" ry="4.2"/>
<ellipse id="XMLID_6_" transform="matrix(7.875951e-02 -0.9969 0.9969 7.875951e-02 31.8937 121.2978)" class="st0" cx="81.6" cy="43.4" rx="1.1" ry="2.4"/>
<ellipse id="XMLID_7_" transform="matrix(7.875951e-02 -0.9969 0.9969 7.875951e-02 40.2214 120.027)" class="st0" cx="85.1" cy="38.3" rx="1.1" ry="2.4"/>
</svg>
