<?xml version="1.0" encoding="utf-8"?>
<!-- Generator: Adobe Illustrator 20.1.0, SVG Export Plug-In . SVG Version: 6.00 Build 0)  -->
<svg version="1.1" id="Layer_1" xmlns="http://www.w3.org/2000/svg" xmlns:xlink="http://www.w3.org/1999/xlink" x="0px" y="0px"
	 viewBox="0 0 147 64.1" style="enable-background:new 0 0 147 64.1;" xml:space="preserve">
<style type="text/css">
	.st0{fill:none;stroke:#FFFFFF;stroke-width:0.5;stroke-miterlimit:10;}
</style>
<g id="XMLID_1_">
	<path id="XMLID_46_" class="st0" d="M95,33.2c0,1.2-0.9,2.1-2.1,2.1c-1.2,0-2.1-0.9-2.1-2.1s0.9-2.1,2.1-2.1
		C94.1,31.1,95,32.1,95,33.2z M92.9,27.4c-3.2,0-5.8,2.6-5.8,5.8s2.6,5.8,5.8,5.8c3.2,0,5.8-2.6,5.8-5.8S96.1,27.4,92.9,27.4z"/>
	<path id="XMLID_43_" class="st0" d="M81.4,33.2c0,1.2-0.9,2.1-2.1,2.1s-2.1-0.9-2.1-2.1s0.9-2.1,2.1-2.1S81.4,32.1,81.4,33.2z
		 M79.3,27.4c-3.2,0-5.8,2.6-5.8,5.8s2.6,5.8,5.8,5.8s5.8-2.6,5.8-5.8S82.5,27.4,79.3,27.4z"/>
	<path id="XMLID_37_" class="st0" d="M67.9,33.2c0,1.2-0.9,2.1-2.1,2.1s-2.1-0.9-2.1-2.1s0.9-2.1,2.1-2.1S67.9,32.1,67.9,33.2z
		 M65.8,27.4c-3.2,0-5.8,2.6-5.8,5.8s2.6,5.8,5.8,5.8s5.8-2.6,5.8-5.8S69,27.4,65.8,27.4z"/>
	<path id="XMLID_49_" class="st0" d="M100.2,10.2h5.7V8.2h-5.8c-1.8,0-3.4,1.1-4.1,2.7h-8.9c-0.5-0.5-1.3-0.9-2.1-0.9
		c-1.6,0-2.9,1.3-2.9,2.9c0,1.5,1.2,2.7,2.7,2.8l4.3,6.7h-12v-2.7c0-1.1-0.1-2-1.2-2h-0.1V8h0.5c1.2,0,2.2-1,2.2-2.2V3.3
		c0-1.2-1-2.2-2.2-2.2h-5.8c-1.2,0-2.2,1-2.2,2.2v2.5c0,1.2,1,2.2,2.2,2.2h0.4v9.6h0.5c-1,0-1.8,0.8-1.8,1.8v2.9h-10
		c-1.2,0-2.2,1-2.2,2.2v5.6c0,0.9,0.6,1.7,1.4,2.1c0.5-3.5,3.4-6.2,7.1-6.2c3.2,0,5.8,2.1,6.8,4.9c0.9-2.8,3.6-4.9,6.8-4.9
		c3.2,0,5.9,2.1,6.8,5c0.9-2.9,3.6-5,6.8-5c3.7,0,6.7,2.8,7.1,6.3c1-0.2,1.8-1.1,1.8-2.2v-5.6c0-1.2-1-2.2-2.2-2.2H94l-4.8-7.6h6.9
		c0.7,1.6,2.3,2.7,4.1,2.7h5.8v-2.1h-5.7c-1.4,0-2.5-1.1-2.5-2.5v-0.2C97.8,11.4,98.9,10.2,100.2,10.2z M73.8,5.4V3.7
		c0-0.5,0.4-0.9,0.9-0.9h1.5c0.5,0,0.9,0.4,0.9,0.9v1.7c0,0.5-0.4,0.9-0.9,0.9h-1.5C74.2,6.3,73.8,5.9,73.8,5.4z M85.8,12.7
		c0,0.4-0.3,0.7-0.7,0.7s-0.7-0.3-0.7-0.7c0-0.4,0.3-0.7,0.7-0.7S85.8,12.4,85.8,12.7z"/>
</g>
<path id="XMLID_4_" class="st0" d="M172.6,91c-21.7-31.4-58-52-99.1-52S-3.8,59.6-25.5,91H172.6z"/>
<ellipse id="XMLID_2_" transform="matrix(0.3529 -0.9357 0.9357 0.3529 28.7765 158.2363)" class="st0" cx="128.8" cy="58.3" rx="2.8" ry="6"/>
<ellipse id="XMLID_5_" transform="matrix(0.2946 -0.9556 0.9556 0.2946 31.2482 139.4027)" class="st0" cx="110" cy="48.5" rx="1.9" ry="4.2"/>
<ellipse id="XMLID_6_" transform="matrix(0.3246 -0.9458 0.9458 0.3246 25.5137 145.6526)" class="st0" cx="114.8" cy="55" rx="1.1" ry="2.4"/>
<ellipse id="XMLID_7_" transform="matrix(0.3246 -0.9458 0.9458 0.3246 32.5426 147.2708)" class="st0" cx="119.4" cy="50.8" rx="1.1" ry="2.4"/>
</svg>
