<?xml version="1.0" encoding="utf-8"?>
<!-- Generator: Adobe Illustrator 20.1.0, SVG Export Plug-In . SVG Version: 6.00 Build 0)  -->
<svg version="1.1" id="Layer_1" xmlns="http://www.w3.org/2000/svg" xmlns:xlink="http://www.w3.org/1999/xlink" x="0px" y="0px"
	 viewBox="0 0 196.7 132.5" style="enable-background:new 0 0 196.7 132.5;" xml:space="preserve">
<style type="text/css">
	.st0{fill:none;stroke:#FFFFFF;stroke-width:0.9;stroke-miterlimit:10;}
	.st1{fill:none;stroke:#FFFFFF;stroke-width:0.6857;stroke-miterlimit:10;}
	.st2{fill:none;stroke:#FFFFFF;stroke-width:0.7259;stroke-miterlimit:10;}
	.st3{fill:none;stroke:#FFFFFF;stroke-width:0.5767;stroke-miterlimit:10;}
	.st4{fill:none;stroke:#FFFFFF;stroke-width:0.5143;stroke-miterlimit:10;}
	.st5{fill:none;stroke:#FFFFFF;stroke-width:0.6334;stroke-miterlimit:10;}
</style>
<path id="XMLID_63_" class="st0" d="M125.2,48.7V117c-2,13.6-51.6,13.6-53.5,0V48.7"/>
<path id="XMLID_79_" class="st1" d="M118.8,123.7v0.7c-1.5,10.4-39.3,10.4-40.8,0v-0.7"/>
<circle id="XMLID_65_" class="st2" cx="98.4" cy="88" r="9.4"/>
<circle id="XMLID_66_" class="st0" cx="98.4" cy="24.7" r="24.1"/>
<path id="XMLID_67_" class="st3" d="M115.3,41.8c6,1.6,9.9,4.1,9.9,6.9c0,4.9-12,8.9-26.8,8.9s-26.8-4-26.8-8.9
	c0-2.8,3.8-5.3,9.9-6.9"/>
<circle id="XMLID_64_" class="st4" cx="98.4" cy="112.3" r="4.3"/>
<circle id="XMLID_94_" class="st4" cx="103.8" cy="14.1" r="4.3"/>
<g id="XMLID_73_">
	<g id="XMLID_69_">
		<rect id="XMLID_68_" x="130.9" y="43.6" class="st5" width="13.9" height="37.2"/>
		<rect id="XMLID_70_" x="147.8" y="43.6" class="st5" width="13.9" height="37.2"/>
		<rect id="XMLID_72_" x="130.9" y="83.3" class="st5" width="13.9" height="37.2"/>
		<rect id="XMLID_71_" x="147.8" y="83.3" class="st5" width="13.9" height="37.2"/>
	</g>
	<g id="XMLID_74_">
		<polygon id="XMLID_78_" class="st5" points="179.2,73.7 165.3,80.7 165.3,43.6 179.2,36.6 		"/>
		<polygon id="XMLID_77_" class="st5" points="196.1,65.2 182.3,72.2 182.3,35 196.1,28 		"/>
		<polygon id="XMLID_76_" class="st5" points="179.2,113.4 165.3,120.4 165.3,83.3 179.2,76.3 		"/>
		<polygon id="XMLID_75_" class="st5" points="196.1,104.9 182.3,111.9 182.3,74.7 196.1,67.7 		"/>
	</g>
</g>
<g id="XMLID_2_">
	<g id="XMLID_8_">
		<rect id="XMLID_12_" x="52.2" y="43.5" class="st5" width="13.9" height="37.2"/>
		<rect id="XMLID_11_" x="35.1" y="43.5" class="st5" width="13.9" height="37.2"/>
		<rect id="XMLID_10_" x="52.2" y="83.2" class="st5" width="13.9" height="37.2"/>
		<rect id="XMLID_9_" x="35.1" y="83.2" class="st5" width="13.9" height="37.2"/>
	</g>
	<g id="XMLID_3_">
		<polygon id="XMLID_7_" class="st5" points="17.7,73.7 31.6,80.7 31.6,43.6 17.7,36.6 		"/>
		<polygon id="XMLID_6_" class="st5" points="0.8,65.2 14.6,72.2 14.6,35 0.8,28 		"/>
		<polygon id="XMLID_5_" class="st5" points="17.7,113.4 31.6,120.4 31.6,83.3 17.7,76.3 		"/>
		<polygon id="XMLID_4_" class="st5" points="0.8,104.9 14.6,111.9 14.6,74.7 0.8,67.7 		"/>
	</g>
</g>
<polyline id="XMLID_92_" class="st2" points="103.8,80.3 103.8,70 93,70 93,80.3 "/>
<polyline id="XMLID_80_" class="st2" points="93,95.7 93,103.1 103.8,103.1 103.8,95.7 "/>
</svg>
