<?xml version="1.0" encoding="utf-8"?>
<!-- Generator: Adobe Illustrator 19.2.0, SVG Export Plug-In . SVG Version: 6.00 Build 0)  -->
<svg version="1.1" id="Layer_1" xmlns="http://www.w3.org/2000/svg" xmlns:xlink="http://www.w3.org/1999/xlink" x="0px" y="0px"
	 viewBox="0 0 788 330.7" style="enable-background:new 0 0 788 330.7;" xml:space="preserve">
<style type="text/css">
	.st0{fill:none;stroke:#FFFFFF;stroke-width:3;stroke-miterlimit:10;}
	.st1{enable-background:new    ;}
	.st2{fill:#FFFFFF;}
</style>
<g id="_Group_">
	<path id="_Path_" class="st0" d="M555.8,175.2C550.1,264.4,473.2,332,384,326.3c-50.3-3.2-96.3-29.8-124.2-71.7"/>
	<path id="_Path_2" class="st0" d="M247.3,232.2c-37.1-81.3-1.3-177.2,80-214.3s177.2-1.3,214.3,80c7.5,16.3,12.1,33.8,13.9,51.7"/>
	<path id="_Path_3" class="st0" d="M529.1,75.3c136.8-27.8,236.3-33.8,242.3-11.4c8,30-154.2,99.6-362.4,155.3S25.5,296,17.4,265.9
		c-6-22.4,83.2-67,215.5-111.3"/>
	<path id="_Path_4" class="st0" d="M541.5,97.6c52.5-7.4,87.2-6.7,90,3.7c5.1,18.9-97,62.6-228,97.7s-241.2,48.2-246.3,29.4
		c-2.8-10.4,26.9-28.4,76.1-48.2"/>
	
		<ellipse id="_Path_5" transform="matrix(0.9659 -0.2588 0.2588 0.9659 -2.2163 86.567)" class="st0" cx="327.7" cy="51.7" rx="12.3" ry="12.3"/>
</g>
<g class="st1">
	<path class="st2" d="M356.9,90.4l-6.7,2.1l-1-3.3l8.7-3h3v36h-4V90.4z"/>
	<path class="st2" d="M368.6,116.4l2.9-2.6c2.8,3.4,6.1,5.3,10.5,5.3c4.3,0,7.8-2.8,7.8-7c0-4.4-4.1-6.9-10-6.9h-2.3l-0.8-2.4
		L387.9,90h-17.4v-3.6h22.8v3L382,101.8c6.2,0.5,11.8,3.5,11.8,10.1c0,6.4-5.3,10.8-11.9,10.8C375.9,122.7,371.5,120.1,368.6,116.4z
		"/>
	<path class="st2" d="M399.6,126.6c2.3-0.9,3.4-2,3.4-3.9v-0.5h-1.8v-5.4h4.7v4.6c0,4.1-1.8,6.1-5.7,7L399.6,126.6z"/>
	<path class="st2" d="M412.3,116.4l2.9-2.6c2.8,3.4,6.1,5.3,10.5,5.3c4.3,0,7.8-2.8,7.8-7c0-4.4-4.1-6.9-10-6.9h-2.3l-0.8-2.4
		L431.7,90h-17.4v-3.6H437v3l-11.2,12.4c6.2,0.5,11.8,3.5,11.8,10.1c0,6.4-5.3,10.8-11.9,10.8C419.7,122.7,415.2,120.1,412.3,116.4z
		"/>
</g>
<g class="st1">
	<path class="st2" d="M352.3,146h2.6l6.8,9.5l6.8-9.5h2.6v18.1h-2.7v-13.8l-6.7,9.2l-6.6-9.2v13.8h-2.6V146z"/>
	<path class="st2" d="M373.9,164.1l0.3-2.3c0.4,0.1,1,0.2,1.3,0.2c2.2,0,4-0.9,4-14.5V146h12.8v18.1h-2.7v-15.7h-7.6v0.4
		c0,14.1-2.6,15.6-6,15.6C375.5,164.4,374.5,164.3,373.9,164.1z"/>
	<path class="st2" d="M398.3,146h2.7v3.6c1.5-2.2,3.6-4,6.9-4c4.3,0,8.6,3.4,8.6,9.5c0,5.9-4.3,9.4-8.6,9.4c-3.4,0-5.5-1.8-6.9-3.9
		v9.1h-2.7V146z M413.8,155.1c0-4.3-2.9-7-6.4-7c-3.4,0-6.5,2.8-6.5,7c0,4.2,3.2,7,6.5,7C411,162.1,413.8,159.5,413.8,155.1z"/>
	<path class="st2" d="M418.9,161.7h2c1.5-2.7,2.4-6.5,2.4-12.6V146h12.9v15.7h2.7l-0.4,6.9h-2.2v-4.5h-14.6l-0.5,4.5h-2.2V161.7z
		 M433.5,161.7v-13.3h-7.6v2.5c0,4.5-0.9,8.5-2.1,10.8H433.5z"/>
</g>
</svg>
