<svg id="Layer_1" data-name="Layer 1" xmlns="http://www.w3.org/2000/svg" viewBox="0 0 788 330.67"><defs><style>.cls-1{fill:none;stroke:#fff;stroke-miterlimit:10;stroke-width:0.81px;}</style></defs><title>saturn</title><g id="_Group_" data-name="&lt;Group&gt;"><path id="_Path_" data-name="&lt;Path&gt;" class="cls-1" d="M547.7,216.66a161.8,161.8,0,0,1-306.55,0"/><path id="_Path_2" data-name="&lt;Path&gt;" class="cls-1" d="M234.92,191.81a161.73,161.73,0,1,1,319,0"/><path id="_Path_3" data-name="&lt;Path&gt;" class="cls-1" d="M547.7,113.16c139.35,8.59,237,28.52,237,51.75,0,31.07-174.73,56.25-390.27,56.25S4.16,196,4.16,164.91c0-23.23,97.65-43.16,237-51.75"/><path id="_Path_4" data-name="&lt;Path&gt;" class="cls-1" d="M553.93,138c52.64,6.49,86,16.14,86,26.9,0,19.54-109.92,35.39-245.51,35.39s-245.51-15.84-245.51-35.39c0-10.77,33.36-20.41,86-26.9"/><circle id="_Path_5" data-name="&lt;Path&gt;" class="cls-1" cx="359.26" cy="38.33" r="12.31"/></g></svg>