<?xml version="1.0" encoding="utf-8"?>
<!-- Generator: Adobe Illustrator 20.1.0, SVG Export Plug-In . SVG Version: 6.00 Build 0)  -->
<svg version="1.1" id="Layer_1" xmlns="http://www.w3.org/2000/svg" xmlns:xlink="http://www.w3.org/1999/xlink" x="0px" y="0px"
	 viewBox="0 0 194.9 217.1" style="enable-background:new 0 0 194.9 217.1;" xml:space="preserve">
<style type="text/css">
	.st0{fill:none;stroke:#FCFCFC;stroke-miterlimit:10;}
</style>
<g id="XMLID_56_">
	<path id="XMLID_61_" class="st0" d="M70.3,77.5V47.9c0-15,12.2-47.2,27.2-47.2s27.2,32.2,27.2,47.2v29.6"/>
	<path id="XMLID_50_" class="st0" d="M57.1,119.9L2.7,184.6c-4.7,5.5-0.7,14,6.5,14h48"/>
	<path id="XMLID_53_" class="st0" d="M66.6,203.4l-5,8.7c-1.1,1.9,0.3,4.3,2.5,4.3h25.9c2.2,0,3.5-2.4,2.5-4.3l-5-8.7"/>
	<g id="XMLID_57_">
		<path id="XMLID_52_" class="st0" d="M138,119.9l54.5,64.6c4.7,5.5,0.7,14-6.5,14h-48"/>
		<path id="XMLID_54_" class="st0" d="M128.8,203.4l5,8.7c1.1,1.9-0.3,4.3-2.5,4.3h-25.9c-2.2,0-3.5-2.4-2.5-4.3l5-8.7"/>
	</g>
	<path id="XMLID_10_" class="st0" d="M57.1,119.9L2.7,184.6c-4.7,5.5-0.7,14,6.5,14h48"/>
	<path id="XMLID_1_" class="st0" d="M66.6,203.4l-5,8.7c-1.1,1.9,0.3,4.3,2.5,4.3h25.9c2.2,0,3.5-2.4,2.5-4.3l-5-8.7"/>
	<g id="XMLID_58_">
		<g id="XMLID_55_">
			<path id="XMLID_33_" class="st0" d="M76.8,76.4L76.8,76.4C66,76.4,57.1,85.2,57.1,96v107.4h39.3V96
				C96.5,85.2,87.7,76.4,76.8,76.4z"/>
			<path id="XMLID_51_" class="st0" d="M118.3,76.4L118.3,76.4c-10.9,0-19.7,8.8-19.7,19.7v107.4H138V96
				C138,85.2,129.2,76.4,118.3,76.4z"/>
		</g>
	</g>
	<path id="XMLID_59_" class="st0" d="M74.4,27.8c11.4,3.1,34.5,3.1,45.9,0"/>
	<path id="XMLID_60_" class="st0" d="M114.1,57.1c-5.9-4.1-27.7-4.1-33.6,0V42.7c7-4.8,26.6-4.8,33.6,0V57.1z"/>
</g>
<path id="XMLID_3_" class="st0" d="M98.8,128.6c6.3-4.7,33-4.7,39.3,0"/>
<path id="XMLID_2_" class="st0" d="M98.8,138.3c6.3-4.7,33-4.7,39.3,0"/>
<path id="XMLID_5_" class="st0" d="M98.8,141.8c6.3-4.7,33-4.7,39.3,0"/>
<path id="XMLID_4_" class="st0" d="M98.8,151.5c6.3-4.7,33-4.7,39.3,0"/>
<path id="XMLID_9_" class="st0" d="M57.3,128.6c6.3-4.7,33-4.7,39.3,0"/>
<path id="XMLID_8_" class="st0" d="M57.3,138.3c6.3-4.7,33-4.7,39.3,0"/>
<path id="XMLID_7_" class="st0" d="M57.3,141.8c6.3-4.7,33-4.7,39.3,0"/>
<path id="XMLID_6_" class="st0" d="M57.3,151.5c6.3-4.7,33-4.7,39.3,0"/>
</svg>
