<?xml version="1.0" encoding="utf-8"?>
<!-- Generator: Adobe Illustrator 19.0.0, SVG Export Plug-In . SVG Version: 6.00 Build 0)  -->
<svg version="1.1" id="Bein_unique_1_" xmlns="http://www.w3.org/2000/svg" xmlns:xlink="http://www.w3.org/1999/xlink" x="0px"
	 y="0px" viewBox="0 0 2407 727" style="enable-background:new 0 0 2407 727;" xml:space="preserve">
<metadata><?xpacket begin="﻿" id="W5M0MpCehiHzreSzNTczkc9d"?>
<x:xmpmeta xmlns:x="adobe:ns:meta/" x:xmptk="Adobe XMP Core 5.6-c067 79.157747, 2015/03/30-23:40:42        ">
   <rdf:RDF xmlns:rdf="http://www.w3.org/1999/02/22-rdf-syntax-ns#">
      <rdf:Description rdf:about=""/>
   </rdf:RDF>
</x:xmpmeta>
                                                                                                    
                                                                                                    
                                                                                                    
                                                                                                    
                                                                                                    
                                                                                                    
                                                                                                    
                                                                                                    
                                                                                                    
                                                                                                    
                                                                                                    
                                                                                                    
                                                                                                    
                                                                                                    
                                                                                                    
                                                                                                    
                                                                                                    
                                                                                                    
                                                                                                    
                                                                                                    
                           
<?xpacket end="w"?></metadata>
<style type="text/css">
	.st0{display:none;}
	.st1{display:inline;fill-rule:evenodd;clip-rule:evenodd;fill:#5D5D5D;}
	.st2{fill-rule:evenodd;clip-rule:evenodd;fill:none;stroke:#FFFFFF;stroke-width:1.4;stroke-miterlimit:100;}
	.st3{fill:#FFFFFF;}
</style>
<g id="Layer_4" class="st0">
	<rect y="-22.6" class="st1" width="2407" height="775.8"/>
</g>
<polyline class="st2" points="543,222 1,726 1837,322 "/>
<g>
	<g>
		<path class="st3" d="M626.3,261.7c-1.4-5.1-2.1-8.3-2.7-11.9h-0.2c-0.8,4-1.1,6.3-2.5,11.6l-10,38.7h-3.4l-15.8-55.9h3.8
			l10.8,39.4c0.8,3,1.9,7.3,2.8,10.9h0.2c0.7-3.5,1.6-8.3,2.5-11.6l10-38.7h3.4l10.5,39.3c1.2,4.7,1.9,7.7,2.5,11.1h0.2
			c0.6-2.8,2.1-8.7,2.8-11l11.2-39.4h3.7l-16.2,55.9h-3.4L626.3,261.7z"/>
		<path class="st3" d="M701,247.5H674v22h26v3.3h-26v24.1h27.8v3.3h-31.5v-55.9H701V247.5z"/>
		<path class="st3" d="M779.4,261.7c-1.4-5.1-2.1-8.3-2.7-11.9h-0.2c-0.8,4-1.1,6.3-2.5,11.6l-10,38.7h-3.4l-15.8-55.9h3.8
			l10.8,39.4c0.8,3,1.9,7.3,2.8,10.9h0.2c0.7-3.5,1.6-8.3,2.5-11.6l10-38.7h3.4l10.5,39.3c1.2,4.7,1.9,7.7,2.5,11.1h0.2
			c0.6-2.8,2.1-8.7,2.8-11l11.2-39.4h3.7L793,300.2h-3.4L779.4,261.7z"/>
		<path class="st3" d="M823.5,244.2h3.7v55.9h-3.7V244.2z"/>
		<path class="st3" d="M847.1,244.2h3.7v52.6h27.8v3.3h-31.5V244.2z"/>
		<path class="st3" d="M892.9,244.2h3.7v52.6h27.8v3.3h-31.5V244.2z"/>
		<path class="st3" d="M1025.8,300.2h-3.6l-5.2-32.6c-0.8-5.3-1.7-10.8-2.5-16.2h-0.2c-1.6,4.9-3.7,11-5.5,16.1l-11.6,32.7h-3.3
			l-12-34.2c-1.6-4.5-3.4-10.2-4.8-14.6h-0.2c-0.4,4.1-1,7.9-2,14.5l-5.3,34.3h-3.5l8.8-55.9h3.3l13.7,39c1.2,3.4,2.7,8.1,3.8,11.6
			h0.2c1.1-3.4,2.6-8.2,3.8-11.6l14-39h3.3L1025.8,300.2z"/>
		<path class="st3" d="M1062.4,244.2h3.6l23.7,55.9h-3.8l-6.7-15.9h-30l-6.6,15.9h-3.8L1062.4,244.2z M1050.5,281h27.2l-8.1-19
			c-1.4-3.2-4-9.8-5.3-13.4h-0.3c-1.5,3.7-4.2,10.7-5.6,13.9L1050.5,281z"/>
		<path class="st3" d="M1114.4,271.4c-2.3,2-4.4,4-6.7,6.1v22.7h-3.7v-55.9h3.7v29.1l31.6-29.1h5.2l-27.5,24.8l30.1,31.1h-4.9
			L1114.4,271.4z"/>
		<path class="st3" d="M1191.1,247.5h-26.9v22h26v3.3h-26v24.1h27.8v3.3h-31.5v-55.9h30.6V247.5z"/>
		<path class="st3" d="M1253.8,277.5l-18.7-33.3h3.9l13.1,23.7c1.3,2.4,2.4,4.4,3.3,6.4h0.4c1-2.1,1.9-3.8,3.2-6.2l13-23.9h3.9
			l-18.5,33.3v22.6h-3.7V277.5z"/>
		<path class="st3" d="M1313,242.4c18.3,0,29.6,14,29.6,29.8c0,16.5-12.7,29.8-29.6,29.8c-20.4,0-29.6-15.9-29.6-29.8
			C1283.3,256.1,1295.8,242.4,1313,242.4z M1312.9,298.7c14.4,0,25.7-11.2,25.7-26.5c0-15.1-10.5-26.5-25.7-26.5
			c-14.4,0-25.6,11-25.6,26.5C1287.3,287.5,1298.5,298.7,1312.9,298.7z"/>
		<path class="st3" d="M1358.8,278.1v-33.9h3.7v34.9c0,11.5,6.1,19.5,16.6,19.5c12,0,16.7-8,16.7-19.5v-34.9h3.7v33.7
			c0,17.7-9.3,24-20.4,24C1369,302,1358.8,295.8,1358.8,278.1z"/>
		<path class="st3" d="M1447.1,244.2h15c12.4,0,20.5,5,20.5,16.8c0,10.7-6,17-21,17h-10.7v22.1h-3.7V244.2z M1462.4,247.5h-11.6
			v27.2h12.4c11.5,0,15.5-5.8,15.5-13.5C1478.7,252.9,1473.6,247.5,1462.4,247.5z"/>
		<path class="st3" d="M1528.5,247.5h-26.9v22h26v3.3h-26v24.1h27.8v3.3h-31.5v-55.9h30.6V247.5z"/>
		<path class="st3" d="M1585.2,300.2h-4.3l-19.4-24.8h-12.2v24.8h-3.8v-55.9h16.7c13.4,0,18.3,7.1,18.3,15.7
			c0,8.2-5.7,14.2-14.9,15.3L1585.2,300.2z M1563,247.5h-13.7v24.6h13.8c8.9,0,13.5-5.6,13.5-12.1
			C1576.6,251.9,1571.8,247.5,1563,247.5z"/>
		<path class="st3" d="M1629.9,247.5h-26.9v23h26v3.3h-26v26.4h-3.7v-55.9h30.6V247.5z"/>
		<path class="st3" d="M1676,247.5h-26.9v22h26v3.3h-26v24.1h27.8v3.3h-31.5v-55.9h30.6V247.5z"/>
		<path class="st3" d="M1745.4,258.6h-4.2c-3.3-7.7-11.1-12.9-21.7-12.9c-12.5,0-24.8,9-24.8,26.4c0,15.1,10.2,26.6,25.2,26.6
			c10.6,0,18.2-5.3,21.9-13.9h4.2c-4.8,11-13.5,17.2-26.5,17.2c-17.2,0-28.8-12.7-28.8-29.9c0-17.2,13-29.6,28.8-29.6
			C1733.8,242.4,1741.8,250.1,1745.4,258.6z"/>
		<path class="st3" d="M1771.7,247.5h-16.2v-3.3h36.1v3.3h-16.2v52.6h-3.7V247.5z"/>
	</g>
	<rect x="543" y="222" class="st2" width="1294" height="100"/>
</g>
<g id="We_will_make_you_perfect">
</g>
<g id="Being_unique_doesn_x2019_t_mean_being_perfect_1_">
</g>
</svg>
