<?xml version="1.0" encoding="utf-8"?>
<!-- Generator: Adobe Illustrator 16.0.0, SVG Export Plug-In . SVG Version: 6.00 Build 0)  -->
<!DOCTYPE svg PUBLIC "-//W3C//DTD SVG 1.1//EN" "http://www.w3.org/Graphics/SVG/1.1/DTD/svg11.dtd">
<svg version="1.1" id="Layer_1" xmlns="http://www.w3.org/2000/svg" xmlns:xlink="http://www.w3.org/1999/xlink" x="0px" y="0px"
	 width="271.333px" height="140.001px" viewBox="0 0 271.333 140.001" enable-background="new 0 0 271.333 140.001"
	 xml:space="preserve">
<g>
	<path d="M168.727,73.349c0.637,0.891,0.934,1.952,0.934,3.097c0,2.036-0.594,3.606-1.824,4.793
		c-0.807,0.764-1.825,1.359-3.099,1.74c-1.399,0.424-3.055,0.637-5.049,0.637c-3.31,0-5.856-0.891-7.511-2.672
		c-2.164-2.292-2.037-5.176-2.037-5.304h1.612c0.096,1.314-0.127,2.419,1.612,4.243c1.358,1.4,3.48,2.121,6.323,2.121
		c3.352,0,5.728-0.636,7.045-1.908c0.891-0.85,1.357-2.08,1.357-3.649c0-1.571-0.807-2.801-2.505-3.861
		c-1.655-0.976-3.86-1.697-6.024-2.376c-2.165-0.679-4.158-1.273-5.729-2.207c-1.951-1.146-2.885-2.546-2.885-4.328
		c0-1.655,0.636-3.183,1.825-4.244c1.526-1.4,3.86-2.122,6.916-2.122c1.612,0,3.056,0.254,4.242,0.721
		c1.104,0.425,2.038,1.061,2.759,1.91c1.57,1.74,1.783,3.862,1.783,4.965h-1.613c0-1.443-0.509-5.983-7.171-5.983
		c-6.449,0-7.172,3.309-7.172,4.752c0,2.673,3.649,3.818,7.511,5.007c2.25,0.721,4.583,1.442,6.408,2.545
		C167.454,71.864,168.217,72.542,168.727,73.349z M134.568,57.309l-10.82,26.308h1.739l9.93-24.186l10.693,24.186h1.782
		l-11.627-26.308H134.568z M110.89,58.709h13.409v-1.4H109.15v26.308h1.74V70.462h12.603v-1.4H110.89V58.709z M190.114,68.978
		h-14.427V57.309h-1.698v26.308h1.698V70.462h14.427v13.154h1.697V57.309h-1.697V68.978z M216.719,57.309h-9.335h-1.697h-9.336
		v1.697h9.336v24.61h1.697v-24.61h9.335V57.309z M255.802,74.622h4.54v2.164c-0.127,0.297-0.806,1.613-2.247,2.843
		c-1.826,1.611-4.075,2.291-6.663,2.291c-6.45,0-10.82-4.667-10.82-11.457c0-6.789,4.37-11.457,10.82-11.457
		c2.588,0,4.837,0.721,6.663,2.291c1.441,1.231,2.12,2.546,2.247,2.844l1.614-0.467c-0.044-0.339-2.972-6.365-10.524-6.365
		c-7.554,0-12.603,5.601-12.603,13.154c0,7.596,5.049,13.154,12.603,13.154c7.553,0,10.48-6.024,10.524-6.364v-2.417V74.07v-0.806
		h-6.154V74.622z M224.614,57.309l-10.821,26.308h1.74l9.93-24.186l10.693,24.186h1.782l-11.627-26.308H224.614z"/>
	<path d="M251.432,84.616c-8.009,0-13.603-5.82-13.603-14.154s5.594-14.154,13.603-14.154c8.136,0,11.425,6.532,11.517,7.237
		l0.109,0.851l-3.288,0.951l-0.348-0.814c-0.005-0.012-0.568-1.273-1.977-2.476c-1.606-1.381-3.573-2.051-6.014-2.051
		c-5.874,0-9.82,4.202-9.82,10.457s3.946,10.457,9.82,10.457c2.481,0,4.445-0.667,6.002-2.041c1.12-0.956,1.708-1.944,1.908-2.324
		v-0.933h-4.54v-3.357h8.154l-0.008,5.116C262.857,78.084,259.569,84.616,251.432,84.616z M239.473,84.616h-3.969L225.497,61.98
		l-9.293,22.636H212.3l11.644-28.308h3.019L239.473,84.616z M208.384,84.616h-3.697v-24.61h-9.336v-3.697h22.368v3.697h-9.335
		V84.616z M192.811,84.616h-3.697V71.462h-12.427v13.154h-3.698V56.309h3.698v11.669h12.427V56.309h3.697V84.616z M159.689,84.616
		c-3.627,0-6.4-1.007-8.243-2.992c-2.198-2.328-2.32-5.168-2.305-5.982l0.019-0.981l3.523-0.021l0.067,0.927
		c0.015,0.193,0.022,0.381,0.029,0.568c0.041,1.021,0.071,1.759,1.31,3.058c1.164,1.199,3.05,1.811,5.6,1.811
		c3.052,0,5.248-0.562,6.351-1.627c0.699-0.667,1.052-1.652,1.052-2.93c0-0.812-0.231-1.888-2.034-3.013
		c-1.514-0.892-3.605-1.583-5.795-2.271l-0.405-0.127c-2.038-0.637-3.962-1.239-5.535-2.174c-2.269-1.332-3.374-3.03-3.374-5.188
		c0-1.976,0.767-3.748,2.159-4.99c1.715-1.573,4.27-2.375,7.582-2.375c1.725,0,3.274,0.266,4.608,0.791
		c1.271,0.489,2.335,1.228,3.155,2.193c1.755,1.945,2.021,4.353,2.021,5.612v1h-3.613v-1c0-1.861-0.802-4.983-6.171-4.983
		c-5.37,0-6.172,2.351-6.172,3.752c0,1.956,3.459,3.021,6.805,4.052l0.33,0.105c2.193,0.702,4.462,1.428,6.302,2.539
		c1.218,0.763,2.045,1.537,2.619,2.445c0.711,0.992,1.088,2.23,1.088,3.631c0,2.327-0.696,4.13-2.13,5.513
		c-0.955,0.904-2.133,1.568-3.507,1.979C163.518,84.394,161.771,84.616,159.689,84.616z M149.427,84.616h-3.969L135.451,61.98
		l-9.293,22.636h-3.902l11.643-28.308h3.019L149.427,84.616z M111.89,84.616h-3.74V56.309h17.149v3.4H111.89v8.353h12.603v3.4
		H111.89V84.616z"/>
</g>
<g>
	<polygon points="29.925,71.274 42.677,54.408 75.154,54.296 101.604,34.792 57.451,34.943 61.583,29.5 109.004,29.336 
		135.454,9.976 53.267,9.976 6.833,71.279 29.929,71.279 	"/>
	<polygon points="135.667,132.272 109.148,112.86 61.731,112.864 57.579,107.434 101.734,107.429 75.214,88.021 42.733,88.02 
		29.929,71.279 6.833,71.279 53.479,132.274 	"/>
</g>
</svg>
