<?xml version="1.0" encoding="utf-8"?>
<!-- Generator: Adobe Illustrator 17.0.0, SVG Export Plug-In . SVG Version: 6.00 Build 0)  -->
<!DOCTYPE svg PUBLIC "-//W3C//DTD SVG 1.1//EN" "http://www.w3.org/Graphics/SVG/1.1/DTD/svg11.dtd">
<svg version="1.1" id="Слой_1" xmlns="http://www.w3.org/2000/svg" xmlns:xlink="http://www.w3.org/1999/xlink" x="0px" y="0px"
	 width="595.28px" height="841.89px" viewBox="0 0 595.28 841.89" enable-background="new 0 0 595.28 841.89" xml:space="preserve">
<path fill="#FFFFFF" stroke="#FFFFFF" stroke-width="2" stroke-miterlimit="10" d="M331.394,423.307
	c0.637,0.891,0.934,1.952,0.934,3.098c0,2.037-0.594,3.606-1.824,4.794c-0.807,0.764-1.825,1.359-3.099,1.741
	c-1.399,0.424-3.055,0.636-5.049,0.636c-3.31,0-5.857-0.891-7.511-2.673c-2.164-2.292-2.037-5.177-2.037-5.305h1.612
	c0.096,1.314-0.127,2.418,1.612,4.244c1.358,1.4,3.48,2.121,6.323,2.121c3.352,0,5.728-0.636,7.045-1.909
	c0.891-0.849,1.357-2.08,1.357-3.649c0-1.571-0.807-2.801-2.505-3.862c-1.655-0.976-3.86-1.697-6.024-2.377
	c-2.165-0.679-4.158-1.273-5.729-2.206c-1.951-1.146-2.885-2.546-2.885-4.328c0-1.655,0.636-3.183,1.825-4.244
	c1.526-1.4,3.86-2.122,6.916-2.122c1.612,0,3.056,0.254,4.242,0.721c1.104,0.425,2.038,1.061,2.759,1.91
	c1.57,1.74,1.783,3.862,1.783,4.965h-1.613c0-1.443-0.509-5.983-7.171-5.983c-6.449,0-7.172,3.309-7.172,4.752
	c0,2.673,3.649,3.818,7.511,5.007c2.25,0.721,4.583,1.442,6.408,2.545C330.12,421.821,330.884,422.5,331.394,423.307z
	 M297.234,407.266l-10.82,26.309h1.739l9.93-24.188l10.693,24.188h1.782l-11.627-26.309H297.234z M273.556,408.667h13.409v-1.4
	h-15.149v26.309h1.74V420.42h12.603v-1.4h-12.603V408.667z M352.78,418.935h-14.427v-11.669h-1.698v26.309h1.698V420.42h14.427
	v13.155h1.697v-26.309h-1.697V418.935z M379.386,407.266h-9.335h-1.697h-9.336v1.697h9.336v24.612h1.697v-24.612h9.335V407.266z
	 M418.469,424.579h4.54v2.164c-0.127,0.297-0.806,1.613-2.247,2.844c-1.826,1.611-4.075,2.291-6.663,2.291
	c-6.45,0-10.82-4.668-10.82-11.458c0-6.789,4.37-11.456,10.82-11.456c2.588,0,4.837,0.721,6.663,2.291
	c1.441,1.231,2.12,2.546,2.247,2.844l1.614-0.467c-0.044-0.339-2.972-6.365-10.524-6.365c-7.554,0-12.603,5.601-12.603,13.154
	c0,7.596,5.049,13.155,12.603,13.155c7.553,0,10.48-6.026,10.524-6.365v-2.418v-0.764v-0.806h-6.154V424.579z M387.28,407.266
	l-10.821,26.309h1.74l9.93-24.188l10.693,24.188h1.782l-11.627-26.309H387.28z"/>
<g>
	<polygon fill="#FFFFFF" points="192.591,421.231 205.343,404.366 237.821,404.254 264.271,384.749 220.117,384.901 224.25,379.457 
		271.671,379.294 298.12,359.793 215.933,360.074 169.5,421.236 192.595,421.236 	"/>
	<polygon fill="#C3C4C8" points="298.334,482.233 271.815,462.822 224.397,462.825 220.245,457.396 264.4,457.391 237.88,437.981 
		205.399,437.979 192.595,421.236 169.5,421.236 216.145,482.236 	"/>
</g>
</svg>
