<?xml version="1.0" encoding="utf-8"?>
<!-- Generator: Adobe Illustrator 16.0.0, SVG Export Plug-In . SVG Version: 6.00 Build 0)  -->
<!DOCTYPE svg PUBLIC "-//W3C//DTD SVG 1.1//EN" "http://www.w3.org/Graphics/SVG/1.1/DTD/svg11.dtd">
<svg version="1.1" id="Layer_2" xmlns="http://www.w3.org/2000/svg" xmlns:xlink="http://www.w3.org/1999/xlink" x="0px" y="0px"
	 width="198.047px" height="242.781px" viewBox="0 0 198.047 242.781" enable-background="new 0 0 198.047 242.781"
	 xml:space="preserve">
<g>
	<g>
		<path d="M86.124,193.238c0.637,0.891,0.934,1.951,0.934,3.098c0,2.035-0.594,3.605-1.824,4.793
			c-0.807,0.764-1.825,1.359-3.099,1.74c-1.399,0.424-3.055,0.637-5.049,0.637c-3.31,0-5.856-0.891-7.511-2.672
			c-2.164-2.293-2.037-5.178-2.037-5.305h1.612c0.096,1.314-0.127,2.418,1.612,4.242c1.358,1.4,3.48,2.121,6.323,2.121
			c3.352,0,5.728-0.635,7.045-1.908c0.891-0.85,1.357-2.08,1.357-3.648c0-1.572-0.807-2.803-2.505-3.863
			c-1.655-0.975-3.86-1.697-6.024-2.375c-2.165-0.68-4.158-1.273-5.729-2.207c-1.951-1.146-2.885-2.547-2.885-4.328
			c0-1.654,0.636-3.184,1.825-4.244c1.526-1.4,3.86-2.121,6.916-2.121c1.612,0,3.056,0.254,4.242,0.721
			c1.104,0.426,2.038,1.061,2.759,1.91c1.57,1.74,1.783,3.861,1.783,4.965h-1.613c0-1.443-0.509-5.982-7.171-5.982
			c-6.449,0-7.172,3.309-7.172,4.752c0,2.672,3.649,3.818,7.511,5.008c2.25,0.721,4.583,1.441,6.408,2.545
			C84.851,191.752,85.614,192.432,86.124,193.238z M51.965,177.197l-10.82,26.309h1.739l9.93-24.188l10.693,24.188h1.782
			l-11.627-26.309H51.965z M28.286,178.598h13.41v-1.4H26.547v26.309h1.739v-13.154H40.89v-1.4H28.286V178.598z M107.511,188.865
			H93.084v-11.668h-1.698v26.309h1.698v-13.154h14.427v13.154h1.697v-26.309h-1.697V188.865z M134.116,177.197h-9.335h-1.697h-9.336
			v1.697h9.336v24.611h1.697v-24.611h9.335V177.197z M173.199,194.51h4.539v2.164c-0.127,0.297-0.805,1.613-2.246,2.844
			c-1.826,1.611-4.076,2.291-6.664,2.291c-6.449,0-10.82-4.668-10.82-11.457s4.371-11.457,10.82-11.457
			c2.588,0,4.838,0.721,6.664,2.291c1.441,1.23,2.119,2.547,2.246,2.844l1.615-0.467c-0.045-0.34-2.973-6.365-10.525-6.365
			s-12.602,5.602-12.602,13.154c0,7.596,5.049,13.154,12.602,13.154s10.48-6.025,10.525-6.365v-2.418v-0.764v-0.807h-6.154V194.51z
			 M142.011,177.197l-10.821,26.309h1.74l9.93-24.188l10.693,24.188h1.781l-11.626-26.309H142.011z"/>
		<path d="M168.828,204.506c-8.008,0-13.602-5.82-13.602-14.154s5.593-14.154,13.602-14.154c8.122,0,11.424,6.53,11.517,7.234
			l0.113,0.853l-3.291,0.951l-0.348-0.812c-0.005-0.013-0.571-1.277-1.976-2.477c-1.606-1.382-3.573-2.052-6.015-2.052
			c-5.874,0-9.82,4.202-9.82,10.457s3.946,10.457,9.82,10.457c2.482,0,4.446-0.668,6.002-2.041c1.119-0.955,1.707-1.944,1.908-2.325
			v-0.933h-4.539v-3.357h8.154l-0.009,5.119C180.252,197.976,176.95,204.506,168.828,204.506z M156.869,204.506h-3.968
			l-10.008-22.638l-9.293,22.638h-3.903l11.644-28.309h3.019L156.869,204.506z M125.781,204.506h-3.697v-24.611h-9.336v-3.697
			h22.368v3.697h-9.335V204.506z M110.208,204.506h-3.697v-13.154H94.084v13.154h-3.698v-28.309h3.698v11.668h12.427v-11.668h3.697
			V204.506z M77.086,204.506c-3.626,0-6.4-1.007-8.244-2.991c-2.198-2.33-2.32-5.169-2.304-5.983l0.019-0.981l3.523-0.021
			l0.068,0.928c0.014,0.192,0.021,0.381,0.029,0.567c0.041,1.021,0.07,1.758,1.309,3.057c1.164,1.2,3.05,1.812,5.6,1.812
			c3.053,0,5.249-0.562,6.35-1.627c0.7-0.668,1.052-1.652,1.052-2.93c0-0.812-0.231-1.889-2.035-3.015
			c-1.522-0.896-3.61-1.586-5.793-2.27l-0.412-0.129c-2.036-0.637-3.958-1.238-5.53-2.173c-2.269-1.333-3.374-3.03-3.374-5.188
			c0-1.977,0.767-3.749,2.16-4.99c1.714-1.573,4.268-2.375,7.582-2.375c1.725,0,3.275,0.266,4.608,0.79
			c1.274,0.491,2.337,1.23,3.155,2.194c1.755,1.944,2.021,4.352,2.021,5.611v1h-3.613v-1c0-1.86-0.802-4.982-6.171-4.982
			c-5.37,0-6.172,2.351-6.172,3.752c0,1.956,3.459,3.021,6.805,4.052l0.324,0.104c2.195,0.701,4.466,1.428,6.307,2.541
			c1.199,0.75,2.052,1.547,2.619,2.444c0.711,0.992,1.088,2.23,1.088,3.632c0,2.326-0.697,4.13-2.13,5.513
			c-0.955,0.904-2.132,1.567-3.506,1.979C80.915,204.283,79.168,204.506,77.086,204.506z M66.824,204.506h-3.969l-10.008-22.638
			l-9.293,22.638h-3.902l11.643-28.309h3.019L66.824,204.506z M29.286,204.506h-3.739v-28.309h17.149v3.4h-13.41v8.354H41.89v3.4
			H29.286V204.506z"/>
	</g>
	<g>
		<polygon points="41.783,100.715 54.535,83.85 87.013,83.736 113.463,64.232 69.309,64.385 73.441,58.941 120.863,58.777 
			147.312,39.416 65.125,39.416 18.691,100.719 41.787,100.719 		"/>
		<polygon points="147.526,161.717 121.007,142.305 73.59,142.309 69.438,136.879 113.592,136.873 87.072,117.465 54.592,117.463 
			41.787,100.719 18.691,100.719 65.338,161.719 		"/>
	</g>
</g>
</svg>
