<?xml version="1.0" encoding="utf-8"?>
<!-- Generator: Adobe Illustrator 19.0.0, SVG Export Plug-In . SVG Version: 6.00 Build 0)  -->
<svg version="1.1" id="Bein_unique" xmlns="http://www.w3.org/2000/svg" xmlns:xlink="http://www.w3.org/1999/xlink" x="0px"
	 y="0px" viewBox="0 0 1507.4 505" style="enable-background:new 0 0 1507.4 505;" xml:space="preserve">
<metadata><?xpacket begin="﻿" id="W5M0MpCehiHzreSzNTczkc9d"?>
<x:xmpmeta xmlns:x="adobe:ns:meta/" x:xmptk="Adobe XMP Core 5.6-c067 79.157747, 2015/03/30-23:40:42        ">
   <rdf:RDF xmlns:rdf="http://www.w3.org/1999/02/22-rdf-syntax-ns#">
      <rdf:Description rdf:about=""/>
   </rdf:RDF>
</x:xmpmeta>
                                                                                                    
                                                                                                    
                                                                                                    
                                                                                                    
                                                                                                    
                                                                                                    
                                                                                                    
                                                                                                    
                                                                                                    
                                                                                                    
                                                                                                    
                                                                                                    
                                                                                                    
                                                                                                    
                                                                                                    
                                                                                                    
                                                                                                    
                                                                                                    
                                                                                                    
                                                                                                    
                           
<?xpacket end="w"?></metadata>
<style type="text/css">
	.st0{display:none;fill:#8C8E90;}
	.st1{fill-rule:evenodd;clip-rule:evenodd;fill:none;stroke:#FFFFFF;stroke-width:0.75;stroke-miterlimit:100;}
	.st2{fill:#FFFFFF;}
</style>
<rect x="-128.6" y="-222" class="st0" width="1636" height="726"/>
<polyline class="st1" points="213.4,0 0,504 1507.4,100 "/>
<rect x="213.4" y="0" class="st1" width="1294" height="100"/>
<g>
	<path class="st2" d="M300.2,39.7c-1.4-5.1-2.1-8.3-2.7-11.9h-0.2c-0.8,4-1.1,6.3-2.5,11.6l-10,38.7h-3.4l-15.8-55.9h3.8l10.8,39.4
		c0.8,3,1.9,7.3,2.8,10.9h0.2c0.7-3.5,1.6-8.3,2.5-11.6l10-38.7h3.4l10.5,39.3c1.2,4.7,1.9,7.7,2.5,11.1h0.2c0.6-2.8,2.1-8.7,2.8-11
		l11.2-39.4h3.7l-16.2,55.9h-3.4L300.2,39.7z"/>
	<path class="st2" d="M374.9,25.5h-26.9v22h26v3.3h-26v24.1h27.8v3.3h-31.5V22.2h30.6V25.5z"/>
	<path class="st2" d="M453.2,39.7c-1.4-5.1-2.1-8.3-2.7-11.9h-0.2c-0.8,4-1.1,6.3-2.5,11.6l-10,38.7h-3.4l-15.8-55.9h3.8l10.8,39.4
		c0.8,3,1.9,7.3,2.8,10.9h0.2c0.7-3.5,1.6-8.3,2.5-11.6l10-38.7h3.4l10.5,39.3c1.2,4.7,1.9,7.7,2.5,11.1h0.2c0.6-2.8,2.1-8.7,2.8-11
		l11.2-39.4h3.7l-16.2,55.9h-3.4L453.2,39.7z"/>
	<path class="st2" d="M497.4,22.2h3.7v55.9h-3.7V22.2z"/>
	<path class="st2" d="M521,22.2h3.7v52.6h27.8v3.3H521V22.2z"/>
	<path class="st2" d="M566.8,22.2h3.7v52.6h27.8v3.3h-31.5V22.2z"/>
	<path class="st2" d="M699.6,78.2H696l-5.2-32.6c-0.8-5.3-1.7-10.8-2.5-16.2h-0.2c-1.6,4.9-3.7,11-5.5,16.1L671,78.2h-3.3l-12-34.2
		c-1.6-4.5-3.4-10.2-4.8-14.6h-0.2c-0.4,4.1-1,7.9-2,14.5l-5.3,34.3h-3.5l8.8-55.9h3.3l13.7,39c1.2,3.4,2.7,8.1,3.8,11.6h0.2
		c1.1-3.4,2.6-8.2,3.8-11.6l14-39h3.3L699.6,78.2z"/>
	<path class="st2" d="M736.3,22.2h3.6l23.7,55.9h-3.8L753,62.2h-30l-6.6,15.9h-3.8L736.3,22.2z M724.4,59h27.2l-8.1-19
		c-1.4-3.2-4-9.8-5.3-13.4h-0.3c-1.5,3.7-4.2,10.7-5.6,13.9L724.4,59z"/>
	<path class="st2" d="M788.2,49.4c-2.3,2-4.4,4-6.7,6.1v22.7h-3.7V22.2h3.7v29.1l31.6-29.1h5.2l-27.5,24.8l30.1,31.1H816L788.2,49.4
		z"/>
	<path class="st2" d="M865,25.5h-26.9v22h26v3.3h-26v24.1h27.8v3.3h-31.5V22.2H865V25.5z"/>
	<path class="st2" d="M927.7,55.5L909,22.2h3.9L926,45.9c1.3,2.4,2.4,4.4,3.3,6.4h0.4c1-2.1,1.9-3.8,3.2-6.2l13-23.9h3.9l-18.5,33.3
		v22.6h-3.7V55.5z"/>
	<path class="st2" d="M986.9,20.4c18.3,0,29.6,14,29.6,29.8c0,16.5-12.7,29.8-29.6,29.8c-20.4,0-29.6-15.9-29.6-29.8
		C957.2,34.1,969.7,20.4,986.9,20.4z M986.8,76.7c14.4,0,25.7-11.2,25.7-26.5c0-15.1-10.5-26.5-25.7-26.5c-14.4,0-25.6,11-25.6,26.5
		C961.2,65.5,972.4,76.7,986.8,76.7z"/>
	<path class="st2" d="M1032.6,56.1V22.2h3.7v34.9c0,11.5,6.1,19.5,16.6,19.5c12,0,16.7-8,16.7-19.5V22.2h3.7v33.7
		c0,17.7-9.3,24-20.4,24C1042.9,80,1032.6,73.8,1032.6,56.1z"/>
	<path class="st2" d="M1121,22.2h15c12.4,0,20.5,5,20.5,16.8c0,10.7-6,17-21,17h-10.7v22.1h-3.7V22.2z M1136.3,25.5h-11.6v27.2h12.4
		c11.5,0,15.5-5.8,15.5-13.5C1152.5,30.9,1147.5,25.5,1136.3,25.5z"/>
	<path class="st2" d="M1202.4,25.5h-26.9v22h26v3.3h-26v24.1h27.8v3.3h-31.5V22.2h30.6V25.5z"/>
	<path class="st2" d="M1259.1,78.2h-4.3l-19.4-24.8h-12.2v24.8h-3.8V22.2h16.7c13.4,0,18.3,7.1,18.3,15.7c0,8.2-5.7,14.2-14.9,15.3
		L1259.1,78.2z M1236.9,25.5h-13.7v24.6h13.8c8.9,0,13.5-5.6,13.5-12.1C1250.5,29.9,1245.7,25.5,1236.9,25.5z"/>
	<path class="st2" d="M1303.8,25.5h-26.9v23h26v3.3h-26v26.4h-3.7V22.2h30.6V25.5z"/>
	<path class="st2" d="M1349.9,25.5H1323v22h26v3.3h-26v24.1h27.8v3.3h-31.5V22.2h30.6V25.5z"/>
	<path class="st2" d="M1419.2,36.6h-4.2c-3.3-7.7-11.1-12.9-21.7-12.9c-12.5,0-24.8,9-24.8,26.4c0,15.1,10.2,26.6,25.2,26.6
		c10.6,0,18.2-5.3,21.9-13.9h4.2c-4.8,11-13.5,17.2-26.5,17.2c-17.2,0-28.8-12.7-28.8-29.9c0-17.2,13-29.6,28.8-29.6
		C1407.7,20.4,1415.6,28.1,1419.2,36.6z"/>
	<path class="st2" d="M1445.6,25.5h-16.2v-3.3h36.1v3.3h-16.2v52.6h-3.7V25.5z"/>
</g>
</svg>
