<?xml version="1.0" encoding="utf-8"?>
<!-- Generator: Adobe Illustrator 16.0.0, SVG Export Plug-In . SVG Version: 6.00 Build 0)  -->
<!DOCTYPE svg PUBLIC "-//W3C//DTD SVG 1.1//EN" "http://www.w3.org/Graphics/SVG/1.1/DTD/svg11.dtd">
<svg version="1.1" id="Layer_4" xmlns="http://www.w3.org/2000/svg" xmlns:xlink="http://www.w3.org/1999/xlink" x="0px" y="0px"
	 width="198.047px" height="242.781px" viewBox="0 0 198.047 242.781" enable-background="new 0 0 198.047 242.781"
	 xml:space="preserve">
<g>
	<g>
		<path fill="#FFFFFF" d="M86.125,193.237c0.637,0.891,0.934,1.951,0.934,3.098c0,2.037-0.594,3.605-1.824,4.794
			c-0.807,0.765-1.825,1.358-3.099,1.741c-1.399,0.424-3.055,0.636-5.049,0.636c-3.31,0-5.856-0.891-7.511-2.673
			c-2.164-2.292-2.037-5.178-2.037-5.305h1.612c0.096,1.314-0.127,2.418,1.612,4.244c1.358,1.399,3.48,2.121,6.323,2.121
			c3.352,0,5.728-0.637,7.045-1.909c0.891-0.849,1.357-2.079,1.357-3.649s-0.807-2.801-2.505-3.861
			c-1.655-0.977-3.86-1.697-6.024-2.377c-2.165-0.68-4.158-1.273-5.729-2.207c-1.951-1.145-2.885-2.545-2.885-4.328
			c0-1.654,0.636-3.182,1.825-4.243c1.526-1.4,3.86-2.122,6.916-2.122c1.612,0,3.056,0.255,4.242,0.722
			c1.104,0.425,2.038,1.062,2.759,1.909c1.57,1.74,1.783,3.862,1.783,4.965h-1.613c0-1.442-0.509-5.982-7.171-5.982
			c-6.449,0-7.172,3.309-7.172,4.752c0,2.674,3.649,3.818,7.511,5.008c2.25,0.721,4.583,1.441,6.408,2.545
			C84.851,191.752,85.615,192.431,86.125,193.237z M51.965,177.196l-10.82,26.31h1.739l9.93-24.188l10.693,24.188h1.782
			l-11.627-26.31H51.965z M28.287,178.597h13.409v-1.4H26.547v26.31h1.74v-13.155H40.89v-1.4H28.287V178.597z M107.511,188.866
			H93.084v-11.67h-1.698v26.31h1.698v-13.155h14.427v13.155h1.697v-26.31h-1.697V188.866z M134.117,177.196h-9.335h-1.697h-9.336
			v1.697h9.336v24.612h1.697v-24.612h9.335V177.196z M173.2,194.51h4.539v2.164c-0.127,0.298-0.805,1.612-2.246,2.844
			c-1.826,1.611-4.076,2.291-6.664,2.291c-6.449,0-10.82-4.668-10.82-11.458c0-6.789,4.371-11.457,10.82-11.457
			c2.588,0,4.838,0.722,6.664,2.291c1.441,1.231,2.119,2.547,2.246,2.844l1.615-0.467c-0.045-0.339-2.973-6.365-10.525-6.365
			s-12.602,5.602-12.602,13.154c0,7.596,5.049,13.155,12.602,13.155s10.48-6.026,10.525-6.365v-2.419v-0.764v-0.806H173.2V194.51z
			 M142.011,177.196l-10.821,26.31h1.74l9.93-24.188l10.693,24.188h1.782l-11.626-26.31H142.011z"/>
		<path fill="#FFFFFF" d="M168.829,204.506c-8.008,0-13.602-5.821-13.602-14.155s5.593-14.154,13.602-14.154
			c8.12,0,11.423,6.529,11.517,7.233l0.113,0.854l-3.292,0.951l-0.348-0.812c-0.005-0.013-0.57-1.276-1.976-2.477
			c-1.607-1.382-3.574-2.052-6.015-2.052c-5.874,0-9.82,4.202-9.82,10.457s3.946,10.458,9.82,10.458
			c2.482,0,4.446-0.668,6.002-2.041c1.122-0.958,1.708-1.945,1.908-2.324v-0.934H172.2v-3.357h8.154l-0.009,5.12
			C180.252,197.977,176.949,204.506,168.829,204.506z M156.87,204.506h-3.968l-10.008-22.638l-9.293,22.638h-3.903l11.644-28.31
			h3.019L156.87,204.506z M125.782,204.506h-3.697v-24.612h-9.336v-3.697h22.368v3.697h-9.335V204.506z M110.208,204.506h-3.697
			v-13.155H94.084v13.155h-3.698v-28.31h3.698v11.67h12.427v-11.67h3.697V204.506z M77.086,204.506c-3.627,0-6.4-1.007-8.244-2.992
			c-2.198-2.329-2.32-5.169-2.304-5.983l0.019-0.981l3.523-0.021l0.068,0.928c0.014,0.192,0.021,0.381,0.029,0.567
			c0.041,1.021,0.07,1.759,1.31,3.06c1.164,1.199,3.05,1.811,5.599,1.811c3.051,0,5.247-0.563,6.35-1.629
			c0.7-0.666,1.052-1.65,1.052-2.93c0-0.812-0.231-1.887-2.035-3.013c-1.51-0.891-3.604-1.583-5.794-2.271l-0.411-0.129
			c-2.036-0.637-3.958-1.238-5.53-2.173c-2.269-1.33-3.374-3.028-3.374-5.188c0-1.975,0.767-3.746,2.159-4.989
			c1.715-1.573,4.27-2.376,7.582-2.376c1.724,0,3.274,0.267,4.608,0.791c1.27,0.488,2.334,1.228,3.154,2.192
			c1.756,1.945,2.021,4.353,2.021,5.612v1h-3.613v-1c0-1.86-0.802-4.982-6.171-4.982c-5.37,0-6.172,2.351-6.172,3.752
			c0,1.956,3.459,3.021,6.805,4.052l0.324,0.104c2.196,0.702,4.466,1.429,6.308,2.542c1.217,0.763,2.045,1.537,2.619,2.444
			c0.711,0.992,1.088,2.23,1.088,3.632c0,2.326-0.697,4.129-2.129,5.514c-0.951,0.901-2.128,1.565-3.505,1.979
			C80.917,204.284,79.171,204.506,77.086,204.506z M66.825,204.506h-3.969l-10.008-22.638l-9.293,22.638h-3.902l11.643-28.31h3.019
			L66.825,204.506z M29.287,204.506h-3.74v-28.31h17.149v3.4H29.287v8.354H41.89v3.4H29.287V204.506z"/>
	</g>
	<g>
		<polygon fill="#FFFFFF" points="41.784,100.714 54.536,83.848 87.013,83.736 113.463,64.231 69.31,64.383 73.442,58.939 
			120.863,58.776 147.312,39.416 65.125,39.416 18.692,100.719 41.788,100.719 		"/>
		<polygon fill="#C3C4C8" points="147.527,161.716 121.007,142.305 73.59,142.307 69.438,136.878 113.593,136.873 87.073,117.464 
			54.592,117.462 41.788,100.719 18.692,100.719 65.338,161.719 		"/>
	</g>
</g>
</svg>
