<?xml version="1.0" encoding="utf-8"?>
<!-- Generator: Adobe Illustrator 16.0.0, SVG Export Plug-In . SVG Version: 6.00 Build 0)  -->
<!DOCTYPE svg PUBLIC "-//W3C//DTD SVG 1.1//EN" "http://www.w3.org/Graphics/SVG/1.1/DTD/svg11.dtd">
<svg version="1.1" id="Layer_3" xmlns="http://www.w3.org/2000/svg" xmlns:xlink="http://www.w3.org/1999/xlink" x="0px" y="0px"
	 width="271.333px" height="140.001px" viewBox="0 0 271.333 140.001" enable-background="new 0 0 271.333 140.001"
	 xml:space="preserve">
<g>
	<path fill="#FFFFFF" d="M168.727,73.349c0.637,0.891,0.934,1.952,0.934,3.098c0,2.037-0.594,3.606-1.824,4.794
		c-0.807,0.764-1.824,1.359-3.098,1.741c-1.4,0.424-3.055,0.636-5.049,0.636c-3.311,0-5.857-0.891-7.512-2.673
		c-2.164-2.292-2.037-5.177-2.037-5.305h1.613c0.096,1.314-0.127,2.418,1.611,4.244c1.359,1.4,3.48,2.121,6.324,2.121
		c3.352,0,5.727-0.636,7.045-1.909c0.891-0.849,1.357-2.08,1.357-3.649c0-1.571-0.807-2.801-2.506-3.862
		c-1.654-0.976-3.859-1.697-6.023-2.376c-2.166-0.679-4.158-1.273-5.73-2.207c-1.951-1.146-2.885-2.546-2.885-4.328
		c0-1.655,0.637-3.183,1.826-4.244c1.525-1.4,3.859-2.122,6.916-2.122c1.611,0,3.055,0.254,4.242,0.721
		c1.104,0.425,2.037,1.061,2.758,1.91c1.57,1.74,1.783,3.862,1.783,4.965h-1.613c0-1.443-0.508-5.983-7.17-5.983
		c-6.449,0-7.172,3.309-7.172,4.752c0,2.673,3.648,3.818,7.51,5.007c2.25,0.721,4.584,1.442,6.408,2.545
		C167.454,71.864,168.217,72.542,168.727,73.349z M134.568,57.309l-10.82,26.309h1.739l9.93-24.188l10.693,24.188h1.783
		l-11.627-26.309H134.568z M110.89,58.709h13.409v-1.4H109.15v26.309h1.74V70.462h12.603v-1.4H110.89V58.709z M190.114,68.978
		h-14.426V57.309h-1.699v26.309h1.699V70.462h14.426v13.155h1.697V57.309h-1.697V68.978z M216.719,57.309h-9.334h-1.697h-9.336
		v1.697h9.336v24.612h1.697V59.006h9.334V57.309z M255.803,74.622h4.539v2.164c-0.127,0.297-0.805,1.613-2.246,2.844
		c-1.826,1.611-4.076,2.291-6.664,2.291c-6.449,0-10.82-4.668-10.82-11.458c0-6.789,4.371-11.457,10.82-11.457
		c2.588,0,4.838,0.721,6.664,2.291c1.441,1.231,2.119,2.546,2.246,2.844l1.615-0.467c-0.045-0.339-2.973-6.365-10.525-6.365
		s-12.602,5.601-12.602,13.154c0,7.596,5.049,13.155,12.602,13.155s10.48-6.026,10.525-6.365v-2.418V74.07v-0.806h-6.154V74.622z
		 M224.614,57.309l-10.82,26.309h1.74l9.93-24.188l10.693,24.188h1.781l-11.627-26.309H224.614z"/>
	<path fill="#FFFFFF" d="M251.432,84.618c-8.009,0-13.602-5.821-13.602-14.155c0-8.333,5.593-14.154,13.602-14.154
		c8.12,0,11.424,6.53,11.517,7.234l0.113,0.853l-3.292,0.951l-0.348-0.813c-0.005-0.012-0.569-1.275-1.976-2.476
		c-1.606-1.381-3.573-2.051-6.015-2.051c-5.874,0-9.82,4.202-9.82,10.457c0,6.255,3.946,10.458,9.82,10.458
		c2.482,0,4.446-0.667,6.002-2.041c1.121-0.957,1.708-1.945,1.908-2.325v-0.933h-4.539v-3.357h8.154l-0.009,5.12
		C262.856,78.088,259.552,84.618,251.432,84.618z M239.473,84.618h-3.968L225.498,61.98l-9.293,22.637h-3.903l11.643-28.309h3.019
		L239.473,84.618z M208.385,84.618h-3.697V60.006h-9.336v-3.697h22.367v3.697h-9.334V84.618z M192.811,84.618h-3.697V71.462h-12.426
		v13.155h-3.699V56.309h3.699v11.669h12.426V56.309h3.697V84.618z M159.69,84.618c-3.628,0-6.401-1.007-8.245-2.993
		c-2.198-2.328-2.319-5.168-2.304-5.983l0.019-0.981l3.524-0.021l0.067,0.927c0.015,0.193,0.022,0.381,0.029,0.568
		c0.041,1.021,0.071,1.759,1.31,3.059c1.164,1.199,3.051,1.811,5.6,1.811c3.051,0,5.247-0.563,6.351-1.628
		c0.699-0.667,1.052-1.651,1.052-2.93c0-0.812-0.231-1.888-2.035-3.014c-1.513-0.892-3.604-1.583-5.794-2.271l-0.399-0.125
		c-2.04-0.638-3.967-1.24-5.542-2.176c-2.269-1.332-3.374-3.03-3.374-5.188c0-1.975,0.768-3.747,2.16-4.99
		c1.714-1.573,4.268-2.375,7.582-2.375c1.724,0,3.273,0.266,4.608,0.791c1.271,0.489,2.334,1.228,3.154,2.193
		c1.755,1.945,2.021,4.352,2.021,5.612v1h-3.613v-1c0-1.861-0.802-4.983-6.17-4.983c-5.37,0-6.172,2.351-6.172,3.752
		c0,1.957,3.459,3.021,6.804,4.052l0.333,0.106c2.193,0.702,4.461,1.427,6.299,2.538c1.218,0.763,2.045,1.537,2.619,2.445
		c0.711,0.992,1.088,2.23,1.088,3.632c0,2.326-0.696,4.13-2.13,5.513c-0.953,0.903-2.13,1.567-3.505,1.979
		C163.518,84.396,161.772,84.618,159.69,84.618z M149.428,84.618h-3.97L135.451,61.98l-9.293,22.637h-3.902l11.643-28.309h3.02
		L149.428,84.618z M111.89,84.618h-3.74V56.309h17.149v3.4H111.89v8.353h12.603v3.4H111.89V84.618z"/>
</g>
<g>
	<polygon fill="#FFFFFF" points="29.925,71.274 42.677,54.408 75.154,54.296 101.604,34.792 57.451,34.943 61.583,29.5 
		109.004,29.336 135.454,9.976 53.267,9.976 6.833,71.279 29.929,71.279 	"/>
	<polygon fill="#C3C4C8" points="135.668,132.276 109.148,112.865 61.731,112.867 57.579,107.438 101.734,107.433 75.214,88.024 
		42.733,88.022 29.929,71.279 6.833,71.279 53.479,132.279 	"/>
</g>
</svg>
